ISO-10303-21;
HEADER;
/* Generated by software containing ST-Developer
 * from STEP Tools, Inc. (www.steptools.com) 
 */

FILE_DESCRIPTION(
/* description */ (''),
/* implementation_level */ '2;1');

FILE_NAME(
/* name */ 'Back Plate Screw.stp',
/* time_stamp */ '2026-01-03T09:32:28-06:00',
/* author */ ('josh'),
/* organization */ (''),
/* preprocessor_version */ 'ST-DEVELOPER v20',
/* originating_system */ 'Autodesk Inventor 2025',
/* authorisation */ '');

FILE_SCHEMA (('AUTOMOTIVE_DESIGN { 1 0 10303 214 3 1 1 }'));
ENDSEC;

DATA;
#10=MECHANICAL_DESIGN_GEOMETRIC_PRESENTATION_REPRESENTATION('',(#13),#966);
#11=SHAPE_REPRESENTATION_RELATIONSHIP('SRR','None',#977,#12);
#12=ADVANCED_BREP_SHAPE_REPRESENTATION('',(#14),#965);
#13=STYLED_ITEM('',(#987),#14);
#14=MANIFOLD_SOLID_BREP('Solid3',#552);
#15=TOROIDAL_SURFACE('',#630,0.0738188976377953,0.0246062992125984);
#16=CONICAL_SURFACE('',#625,0.0521653543307087,0.0437221186015877);
#17=FACE_BOUND('',#75,.T.);
#18=FACE_BOUND('',#99,.T.);
#19=CIRCLE('',#583,0.0738188976377953);
#20=CIRCLE('',#626,0.0590551181102362);
#21=CIRCLE('',#627,0.0452755905511811);
#22=CIRCLE('',#629,0.0738188976377953);
#23=CIRCLE('',#631,0.0246062992125984);
#24=PLANE('',#577);
#25=PLANE('',#581);
#26=PLANE('',#582);
#27=PLANE('',#596);
#28=PLANE('',#599);
#29=PLANE('',#602);
#30=PLANE('',#610);
#31=PLANE('',#613);
#32=PLANE('',#616);
#33=PLANE('',#619);
#34=PLANE('',#621);
#35=PLANE('',#622);
#36=PLANE('',#623);
#37=PLANE('',#624);
#38=PLANE('',#628);
#39=PLANE('',#632);
#40=FACE_OUTER_BOUND('',#70,.T.);
#41=FACE_OUTER_BOUND('',#71,.T.);
#42=FACE_OUTER_BOUND('',#72,.T.);
#43=FACE_OUTER_BOUND('',#73,.T.);
#44=FACE_OUTER_BOUND('',#74,.T.);
#45=FACE_OUTER_BOUND('',#76,.T.);
#46=FACE_OUTER_BOUND('',#77,.T.);
#47=FACE_OUTER_BOUND('',#78,.T.);
#48=FACE_OUTER_BOUND('',#79,.T.);
#49=FACE_OUTER_BOUND('',#80,.T.);
#50=FACE_OUTER_BOUND('',#81,.T.);
#51=FACE_OUTER_BOUND('',#82,.T.);
#52=FACE_OUTER_BOUND('',#83,.T.);
#53=FACE_OUTER_BOUND('',#84,.T.);
#54=FACE_OUTER_BOUND('',#85,.T.);
#55=FACE_OUTER_BOUND('',#86,.T.);
#56=FACE_OUTER_BOUND('',#87,.T.);
#57=FACE_OUTER_BOUND('',#88,.T.);
#58=FACE_OUTER_BOUND('',#89,.T.);
#59=FACE_OUTER_BOUND('',#90,.T.);
#60=FACE_OUTER_BOUND('',#91,.T.);
#61=FACE_OUTER_BOUND('',#92,.T.);
#62=FACE_OUTER_BOUND('',#93,.T.);
#63=FACE_OUTER_BOUND('',#94,.T.);
#64=FACE_OUTER_BOUND('',#95,.T.);
#65=FACE_OUTER_BOUND('',#96,.T.);
#66=FACE_OUTER_BOUND('',#97,.T.);
#67=FACE_OUTER_BOUND('',#98,.T.);
#68=FACE_OUTER_BOUND('',#100,.T.);
#69=FACE_OUTER_BOUND('',#101,.T.);
#70=EDGE_LOOP('',(#354,#355,#356,#357));
#71=EDGE_LOOP('',(#358,#359,#360,#361));
#72=EDGE_LOOP('',(#362,#363,#364,#365));
#73=EDGE_LOOP('',(#366,#367,#368,#369));
#74=EDGE_LOOP('',(#370));
#75=EDGE_LOOP('',(#371,#372,#373,#374,#375,#376,#377,#378,#379,#380,#381,
#382,#383,#384,#385,#386,#387,#388,#389,#390,#391,#392,#393,#394));
#76=EDGE_LOOP('',(#395,#396,#397,#398));
#77=EDGE_LOOP('',(#399,#400,#401,#402));
#78=EDGE_LOOP('',(#403,#404,#405,#406));
#79=EDGE_LOOP('',(#407,#408,#409,#410));
#80=EDGE_LOOP('',(#411,#412,#413,#414));
#81=EDGE_LOOP('',(#415,#416,#417,#418,#419,#420,#421,#422,#423,#424,#425,
#426,#427,#428,#429,#430,#431,#432,#433,#434,#435,#436,#437,#438));
#82=EDGE_LOOP('',(#439,#440,#441,#442));
#83=EDGE_LOOP('',(#443,#444,#445,#446));
#84=EDGE_LOOP('',(#447,#448,#449,#450));
#85=EDGE_LOOP('',(#451,#452,#453,#454));
#86=EDGE_LOOP('',(#455,#456,#457,#458));
#87=EDGE_LOOP('',(#459,#460,#461,#462));
#88=EDGE_LOOP('',(#463,#464,#465,#466));
#89=EDGE_LOOP('',(#467,#468,#469,#470));
#90=EDGE_LOOP('',(#471,#472,#473,#474));
#91=EDGE_LOOP('',(#475,#476,#477,#478));
#92=EDGE_LOOP('',(#479,#480,#481,#482));
#93=EDGE_LOOP('',(#483,#484,#485,#486));
#94=EDGE_LOOP('',(#487,#488,#489,#490));
#95=EDGE_LOOP('',(#491,#492,#493,#494));
#96=EDGE_LOOP('',(#495,#496,#497,#498));
#97=EDGE_LOOP('',(#499,#500,#501,#502));
#98=EDGE_LOOP('',(#503));
#99=EDGE_LOOP('',(#504));
#100=EDGE_LOOP('',(#505,#506,#507,#508));
#101=EDGE_LOOP('',(#509));
#102=LINE('',#808,#151);
#103=LINE('',#811,#152);
#104=LINE('',#814,#153);
#105=LINE('',#816,#154);
#106=LINE('',#817,#155);
#107=LINE('',#822,#156);
#108=LINE('',#826,#157);
#109=LINE('',#828,#158);
#110=LINE('',#829,#159);
#111=LINE('',#834,#160);
#112=LINE('',#838,#161);
#113=LINE('',#842,#162);
#114=LINE('',#846,#163);
#115=LINE('',#850,#164);
#116=LINE('',#854,#165);
#117=LINE('',#858,#166);
#118=LINE('',#862,#167);
#119=LINE('',#866,#168);
#120=LINE('',#870,#169);
#121=LINE('',#876,#170);
#122=LINE('',#877,#171);
#123=LINE('',#879,#172);
#124=LINE('',#882,#173);
#125=LINE('',#885,#174);
#126=LINE('',#887,#175);
#127=LINE('',#892,#176);
#128=LINE('',#893,#177);
#129=LINE('',#898,#178);
#130=LINE('',#902,#179);
#131=LINE('',#905,#180);
#132=LINE('',#907,#181);
#133=LINE('',#911,#182);
#134=LINE('',#915,#183);
#135=LINE('',#919,#184);
#136=LINE('',#922,#185);
#137=LINE('',#924,#186);
#138=LINE('',#926,#187);
#139=LINE('',#928,#188);
#140=LINE('',#929,#189);
#141=LINE('',#931,#190);
#142=LINE('',#933,#191);
#143=LINE('',#935,#192);
#144=LINE('',#937,#193);
#145=LINE('',#939,#194);
#146=LINE('',#941,#195);
#147=LINE('',#942,#196);
#148=LINE('',#944,#197);
#149=LINE('',#946,#198);
#150=LINE('',#955,#199);
#151=VECTOR('',#639,0.393700787401575);
#152=VECTOR('',#642,0.393700787401575);
#153=VECTOR('',#645,0.393700787401575);
#154=VECTOR('',#646,0.393700787401575);
#155=VECTOR('',#647,0.393700787401575);
#156=VECTOR('',#652,0.393700787401575);
#157=VECTOR('',#657,0.393700787401575);
#158=VECTOR('',#658,0.393700787401575);
#159=VECTOR('',#659,0.393700787401575);
#160=VECTOR('',#664,0.393700787401575);
#161=VECTOR('',#667,0.393700787401575);
#162=VECTOR('',#670,0.393700787401575);
#163=VECTOR('',#673,0.393700787401575);
#164=VECTOR('',#676,0.393700787401575);
#165=VECTOR('',#679,0.393700787401575);
#166=VECTOR('',#682,0.393700787401575);
#167=VECTOR('',#685,0.393700787401575);
#168=VECTOR('',#688,0.393700787401575);
#169=VECTOR('',#691,0.393700787401575);
#170=VECTOR('',#698,0.393700787401575);
#171=VECTOR('',#699,0.393700787401575);
#172=VECTOR('',#702,0.393700787401575);
#173=VECTOR('',#705,0.393700787401575);
#174=VECTOR('',#708,0.393700787401575);
#175=VECTOR('',#711,0.393700787401575);
#176=VECTOR('',#716,0.393700787401575);
#177=VECTOR('',#717,0.393700787401575);
#178=VECTOR('',#722,0.393700787401575);
#179=VECTOR('',#725,0.393700787401575);
#180=VECTOR('',#728,0.393700787401575);
#181=VECTOR('',#729,0.393700787401575);
#182=VECTOR('',#732,0.393700787401575);
#183=VECTOR('',#735,0.393700787401575);
#184=VECTOR('',#738,0.393700787401575);
#185=VECTOR('',#741,0.393700787401575);
#186=VECTOR('',#744,0.393700787401575);
#187=VECTOR('',#747,0.393700787401575);
#188=VECTOR('',#750,0.393700787401575);
#189=VECTOR('',#751,0.393700787401575);
#190=VECTOR('',#754,0.393700787401575);
#191=VECTOR('',#757,0.393700787401575);
#192=VECTOR('',#760,0.393700787401575);
#193=VECTOR('',#763,0.393700787401575);
#194=VECTOR('',#766,0.393700787401575);
#195=VECTOR('',#769,0.393700787401575);
#196=VECTOR('',#770,0.393700787401575);
#197=VECTOR('',#773,0.393700787401575);
#198=VECTOR('',#776,0.393700787401575);
#199=VECTOR('',#789,0.0521653543307087);
#200=ELLIPSE('',#575,0.00401401740622232,0.00393700787401575);
#201=ELLIPSE('',#576,0.00401401740622232,0.00393700787401575);
#202=ELLIPSE('',#579,0.00401401740622232,0.00393700787401575);
#203=ELLIPSE('',#580,0.00401401740622232,0.00393700787401575);
#204=ELLIPSE('',#584,0.00401401740622232,0.00393700787401575);
#205=ELLIPSE('',#585,0.00401401740622232,0.00393700787401575);
#206=ELLIPSE('',#586,0.00401401740622232,0.00393700787401575);
#207=ELLIPSE('',#587,0.00401401740622232,0.00393700787401575);
#208=ELLIPSE('',#588,0.00401401740622232,0.00393700787401575);
#209=ELLIPSE('',#589,0.00401401740622232,0.00393700787401575);
#210=ELLIPSE('',#590,0.00401401740622232,0.00393700787401575);
#211=ELLIPSE('',#591,0.00401401740622232,0.00393700787401575);
#212=ELLIPSE('',#592,0.00401401740622232,0.00393700787401575);
#213=ELLIPSE('',#593,0.00401401740622232,0.00393700787401575);
#214=ELLIPSE('',#595,0.00401401740622232,0.00393700787401575);
#215=ELLIPSE('',#598,0.00401401740622232,0.00393700787401575);
#216=ELLIPSE('',#601,0.00401401740622232,0.00393700787401575);
#217=ELLIPSE('',#603,0.00401401740622232,0.00393700787401575);
#218=ELLIPSE('',#604,0.00401401740622232,0.00393700787401575);
#219=ELLIPSE('',#605,0.00401401740622232,0.00393700787401575);
#220=ELLIPSE('',#606,0.00401401740622232,0.00393700787401575);
#221=ELLIPSE('',#607,0.00401401740622232,0.00393700787401575);
#222=ELLIPSE('',#608,0.00401401740622232,0.00393700787401575);
#223=ELLIPSE('',#609,0.00401401740622232,0.00393700787401575);
#224=VERTEX_POINT('',#804);
#225=VERTEX_POINT('',#805);
#226=VERTEX_POINT('',#807);
#227=VERTEX_POINT('',#809);
#228=VERTEX_POINT('',#813);
#229=VERTEX_POINT('',#815);
#230=VERTEX_POINT('',#819);
#231=VERTEX_POINT('',#821);
#232=VERTEX_POINT('',#825);
#233=VERTEX_POINT('',#827);
#234=VERTEX_POINT('',#831);
#235=VERTEX_POINT('',#833);
#236=VERTEX_POINT('',#835);
#237=VERTEX_POINT('',#837);
#238=VERTEX_POINT('',#839);
#239=VERTEX_POINT('',#841);
#240=VERTEX_POINT('',#843);
#241=VERTEX_POINT('',#845);
#242=VERTEX_POINT('',#847);
#243=VERTEX_POINT('',#849);
#244=VERTEX_POINT('',#851);
#245=VERTEX_POINT('',#853);
#246=VERTEX_POINT('',#855);
#247=VERTEX_POINT('',#857);
#248=VERTEX_POINT('',#859);
#249=VERTEX_POINT('',#861);
#250=VERTEX_POINT('',#863);
#251=VERTEX_POINT('',#865);
#252=VERTEX_POINT('',#867);
#253=VERTEX_POINT('',#869);
#254=VERTEX_POINT('',#873);
#255=VERTEX_POINT('',#874);
#256=VERTEX_POINT('',#881);
#257=VERTEX_POINT('',#883);
#258=VERTEX_POINT('',#889);
#259=VERTEX_POINT('',#890);
#260=VERTEX_POINT('',#895);
#261=VERTEX_POINT('',#897);
#262=VERTEX_POINT('',#899);
#263=VERTEX_POINT('',#901);
#264=VERTEX_POINT('',#903);
#265=VERTEX_POINT('',#906);
#266=VERTEX_POINT('',#908);
#267=VERTEX_POINT('',#910);
#268=VERTEX_POINT('',#912);
#269=VERTEX_POINT('',#914);
#270=VERTEX_POINT('',#916);
#271=VERTEX_POINT('',#918);
#272=VERTEX_POINT('',#920);
#273=VERTEX_POINT('',#952);
#274=VERTEX_POINT('',#954);
#275=VERTEX_POINT('',#958);
#276=EDGE_CURVE('',#224,#225,#200,.T.);
#277=EDGE_CURVE('',#224,#226,#102,.T.);
#278=EDGE_CURVE('',#226,#227,#201,.T.);
#279=EDGE_CURVE('',#227,#225,#103,.T.);
#280=EDGE_CURVE('',#228,#227,#104,.T.);
#281=EDGE_CURVE('',#229,#228,#105,.T.);
#282=EDGE_CURVE('',#225,#229,#106,.T.);
#283=EDGE_CURVE('',#228,#230,#202,.T.);
#284=EDGE_CURVE('',#230,#231,#107,.T.);
#285=EDGE_CURVE('',#231,#229,#203,.F.);
#286=EDGE_CURVE('',#232,#230,#108,.T.);
#287=EDGE_CURVE('',#233,#232,#109,.T.);
#288=EDGE_CURVE('',#231,#233,#110,.T.);
#289=EDGE_CURVE('',#234,#234,#19,.T.);
#290=EDGE_CURVE('',#226,#235,#111,.T.);
#291=EDGE_CURVE('',#236,#235,#204,.T.);
#292=EDGE_CURVE('',#236,#237,#112,.T.);
#293=EDGE_CURVE('',#238,#237,#205,.T.);
#294=EDGE_CURVE('',#238,#239,#113,.T.);
#295=EDGE_CURVE('',#240,#239,#206,.T.);
#296=EDGE_CURVE('',#240,#241,#114,.T.);
#297=EDGE_CURVE('',#242,#241,#207,.T.);
#298=EDGE_CURVE('',#242,#243,#115,.T.);
#299=EDGE_CURVE('',#244,#243,#208,.T.);
#300=EDGE_CURVE('',#244,#245,#116,.T.);
#301=EDGE_CURVE('',#246,#245,#209,.T.);
#302=EDGE_CURVE('',#246,#247,#117,.T.);
#303=EDGE_CURVE('',#248,#247,#210,.T.);
#304=EDGE_CURVE('',#248,#249,#118,.T.);
#305=EDGE_CURVE('',#250,#249,#211,.T.);
#306=EDGE_CURVE('',#250,#251,#119,.T.);
#307=EDGE_CURVE('',#252,#251,#212,.T.);
#308=EDGE_CURVE('',#252,#253,#120,.T.);
#309=EDGE_CURVE('',#232,#253,#213,.T.);
#310=EDGE_CURVE('',#254,#255,#214,.T.);
#311=EDGE_CURVE('',#254,#236,#121,.T.);
#312=EDGE_CURVE('',#235,#255,#122,.T.);
#313=EDGE_CURVE('',#255,#224,#123,.T.);
#314=EDGE_CURVE('',#237,#256,#124,.T.);
#315=EDGE_CURVE('',#256,#257,#215,.F.);
#316=EDGE_CURVE('',#257,#238,#125,.T.);
#317=EDGE_CURVE('',#256,#254,#126,.T.);
#318=EDGE_CURVE('',#258,#259,#216,.T.);
#319=EDGE_CURVE('',#258,#248,#127,.T.);
#320=EDGE_CURVE('',#247,#259,#128,.T.);
#321=EDGE_CURVE('',#233,#260,#217,.T.);
#322=EDGE_CURVE('',#260,#261,#129,.T.);
#323=EDGE_CURVE('',#261,#262,#218,.T.);
#324=EDGE_CURVE('',#262,#263,#130,.T.);
#325=EDGE_CURVE('',#264,#263,#219,.F.);
#326=EDGE_CURVE('',#264,#258,#131,.T.);
#327=EDGE_CURVE('',#259,#265,#132,.T.);
#328=EDGE_CURVE('',#265,#266,#220,.T.);
#329=EDGE_CURVE('',#266,#267,#133,.T.);
#330=EDGE_CURVE('',#268,#267,#221,.F.);
#331=EDGE_CURVE('',#268,#269,#134,.T.);
#332=EDGE_CURVE('',#269,#270,#222,.T.);
#333=EDGE_CURVE('',#270,#271,#135,.T.);
#334=EDGE_CURVE('',#271,#272,#223,.T.);
#335=EDGE_CURVE('',#272,#257,#136,.T.);
#336=EDGE_CURVE('',#265,#246,#137,.T.);
#337=EDGE_CURVE('',#245,#266,#138,.T.);
#338=EDGE_CURVE('',#243,#268,#139,.T.);
#339=EDGE_CURVE('',#267,#244,#140,.T.);
#340=EDGE_CURVE('',#269,#242,#141,.T.);
#341=EDGE_CURVE('',#253,#260,#142,.T.);
#342=EDGE_CURVE('',#241,#270,#143,.T.);
#343=EDGE_CURVE('',#271,#240,#144,.T.);
#344=EDGE_CURVE('',#239,#272,#145,.T.);
#345=EDGE_CURVE('',#261,#252,#146,.T.);
#346=EDGE_CURVE('',#251,#262,#147,.T.);
#347=EDGE_CURVE('',#263,#250,#148,.T.);
#348=EDGE_CURVE('',#249,#264,#149,.T.);
#349=EDGE_CURVE('',#273,#273,#20,.T.);
#350=EDGE_CURVE('',#273,#274,#150,.T.);
#351=EDGE_CURVE('',#274,#274,#21,.T.);
#352=EDGE_CURVE('',#275,#275,#22,.T.);
#353=EDGE_CURVE('',#234,#275,#23,.T.);
#354=ORIENTED_EDGE('',*,*,#276,.F.);
#355=ORIENTED_EDGE('',*,*,#277,.T.);
#356=ORIENTED_EDGE('',*,*,#278,.T.);
#357=ORIENTED_EDGE('',*,*,#279,.T.);
#358=ORIENTED_EDGE('',*,*,#279,.F.);
#359=ORIENTED_EDGE('',*,*,#280,.F.);
#360=ORIENTED_EDGE('',*,*,#281,.F.);
#361=ORIENTED_EDGE('',*,*,#282,.F.);
#362=ORIENTED_EDGE('',*,*,#283,.T.);
#363=ORIENTED_EDGE('',*,*,#284,.T.);
#364=ORIENTED_EDGE('',*,*,#285,.T.);
#365=ORIENTED_EDGE('',*,*,#281,.T.);
#366=ORIENTED_EDGE('',*,*,#284,.F.);
#367=ORIENTED_EDGE('',*,*,#286,.F.);
#368=ORIENTED_EDGE('',*,*,#287,.F.);
#369=ORIENTED_EDGE('',*,*,#288,.F.);
#370=ORIENTED_EDGE('',*,*,#289,.T.);
#371=ORIENTED_EDGE('',*,*,#283,.F.);
#372=ORIENTED_EDGE('',*,*,#280,.T.);
#373=ORIENTED_EDGE('',*,*,#278,.F.);
#374=ORIENTED_EDGE('',*,*,#290,.T.);
#375=ORIENTED_EDGE('',*,*,#291,.F.);
#376=ORIENTED_EDGE('',*,*,#292,.T.);
#377=ORIENTED_EDGE('',*,*,#293,.F.);
#378=ORIENTED_EDGE('',*,*,#294,.T.);
#379=ORIENTED_EDGE('',*,*,#295,.F.);
#380=ORIENTED_EDGE('',*,*,#296,.T.);
#381=ORIENTED_EDGE('',*,*,#297,.F.);
#382=ORIENTED_EDGE('',*,*,#298,.T.);
#383=ORIENTED_EDGE('',*,*,#299,.F.);
#384=ORIENTED_EDGE('',*,*,#300,.T.);
#385=ORIENTED_EDGE('',*,*,#301,.F.);
#386=ORIENTED_EDGE('',*,*,#302,.T.);
#387=ORIENTED_EDGE('',*,*,#303,.F.);
#388=ORIENTED_EDGE('',*,*,#304,.T.);
#389=ORIENTED_EDGE('',*,*,#305,.F.);
#390=ORIENTED_EDGE('',*,*,#306,.T.);
#391=ORIENTED_EDGE('',*,*,#307,.F.);
#392=ORIENTED_EDGE('',*,*,#308,.T.);
#393=ORIENTED_EDGE('',*,*,#309,.F.);
#394=ORIENTED_EDGE('',*,*,#286,.T.);
#395=ORIENTED_EDGE('',*,*,#310,.F.);
#396=ORIENTED_EDGE('',*,*,#311,.T.);
#397=ORIENTED_EDGE('',*,*,#291,.T.);
#398=ORIENTED_EDGE('',*,*,#312,.T.);
#399=ORIENTED_EDGE('',*,*,#277,.F.);
#400=ORIENTED_EDGE('',*,*,#313,.F.);
#401=ORIENTED_EDGE('',*,*,#312,.F.);
#402=ORIENTED_EDGE('',*,*,#290,.F.);
#403=ORIENTED_EDGE('',*,*,#293,.T.);
#404=ORIENTED_EDGE('',*,*,#314,.T.);
#405=ORIENTED_EDGE('',*,*,#315,.T.);
#406=ORIENTED_EDGE('',*,*,#316,.T.);
#407=ORIENTED_EDGE('',*,*,#311,.F.);
#408=ORIENTED_EDGE('',*,*,#317,.F.);
#409=ORIENTED_EDGE('',*,*,#314,.F.);
#410=ORIENTED_EDGE('',*,*,#292,.F.);
#411=ORIENTED_EDGE('',*,*,#318,.F.);
#412=ORIENTED_EDGE('',*,*,#319,.T.);
#413=ORIENTED_EDGE('',*,*,#303,.T.);
#414=ORIENTED_EDGE('',*,*,#320,.T.);
#415=ORIENTED_EDGE('',*,*,#276,.T.);
#416=ORIENTED_EDGE('',*,*,#282,.T.);
#417=ORIENTED_EDGE('',*,*,#285,.F.);
#418=ORIENTED_EDGE('',*,*,#288,.T.);
#419=ORIENTED_EDGE('',*,*,#321,.T.);
#420=ORIENTED_EDGE('',*,*,#322,.T.);
#421=ORIENTED_EDGE('',*,*,#323,.T.);
#422=ORIENTED_EDGE('',*,*,#324,.T.);
#423=ORIENTED_EDGE('',*,*,#325,.F.);
#424=ORIENTED_EDGE('',*,*,#326,.T.);
#425=ORIENTED_EDGE('',*,*,#318,.T.);
#426=ORIENTED_EDGE('',*,*,#327,.T.);
#427=ORIENTED_EDGE('',*,*,#328,.T.);
#428=ORIENTED_EDGE('',*,*,#329,.T.);
#429=ORIENTED_EDGE('',*,*,#330,.F.);
#430=ORIENTED_EDGE('',*,*,#331,.T.);
#431=ORIENTED_EDGE('',*,*,#332,.T.);
#432=ORIENTED_EDGE('',*,*,#333,.T.);
#433=ORIENTED_EDGE('',*,*,#334,.T.);
#434=ORIENTED_EDGE('',*,*,#335,.T.);
#435=ORIENTED_EDGE('',*,*,#315,.F.);
#436=ORIENTED_EDGE('',*,*,#317,.T.);
#437=ORIENTED_EDGE('',*,*,#310,.T.);
#438=ORIENTED_EDGE('',*,*,#313,.T.);
#439=ORIENTED_EDGE('',*,*,#320,.F.);
#440=ORIENTED_EDGE('',*,*,#302,.F.);
#441=ORIENTED_EDGE('',*,*,#336,.F.);
#442=ORIENTED_EDGE('',*,*,#327,.F.);
#443=ORIENTED_EDGE('',*,*,#328,.F.);
#444=ORIENTED_EDGE('',*,*,#336,.T.);
#445=ORIENTED_EDGE('',*,*,#301,.T.);
#446=ORIENTED_EDGE('',*,*,#337,.T.);
#447=ORIENTED_EDGE('',*,*,#299,.T.);
#448=ORIENTED_EDGE('',*,*,#338,.T.);
#449=ORIENTED_EDGE('',*,*,#330,.T.);
#450=ORIENTED_EDGE('',*,*,#339,.T.);
#451=ORIENTED_EDGE('',*,*,#338,.F.);
#452=ORIENTED_EDGE('',*,*,#298,.F.);
#453=ORIENTED_EDGE('',*,*,#340,.F.);
#454=ORIENTED_EDGE('',*,*,#331,.F.);
#455=ORIENTED_EDGE('',*,*,#321,.F.);
#456=ORIENTED_EDGE('',*,*,#287,.T.);
#457=ORIENTED_EDGE('',*,*,#309,.T.);
#458=ORIENTED_EDGE('',*,*,#341,.T.);
#459=ORIENTED_EDGE('',*,*,#332,.F.);
#460=ORIENTED_EDGE('',*,*,#340,.T.);
#461=ORIENTED_EDGE('',*,*,#297,.T.);
#462=ORIENTED_EDGE('',*,*,#342,.T.);
#463=ORIENTED_EDGE('',*,*,#342,.F.);
#464=ORIENTED_EDGE('',*,*,#296,.F.);
#465=ORIENTED_EDGE('',*,*,#343,.F.);
#466=ORIENTED_EDGE('',*,*,#333,.F.);
#467=ORIENTED_EDGE('',*,*,#334,.F.);
#468=ORIENTED_EDGE('',*,*,#343,.T.);
#469=ORIENTED_EDGE('',*,*,#295,.T.);
#470=ORIENTED_EDGE('',*,*,#344,.T.);
#471=ORIENTED_EDGE('',*,*,#323,.F.);
#472=ORIENTED_EDGE('',*,*,#345,.T.);
#473=ORIENTED_EDGE('',*,*,#307,.T.);
#474=ORIENTED_EDGE('',*,*,#346,.T.);
#475=ORIENTED_EDGE('',*,*,#346,.F.);
#476=ORIENTED_EDGE('',*,*,#306,.F.);
#477=ORIENTED_EDGE('',*,*,#347,.F.);
#478=ORIENTED_EDGE('',*,*,#324,.F.);
#479=ORIENTED_EDGE('',*,*,#305,.T.);
#480=ORIENTED_EDGE('',*,*,#348,.T.);
#481=ORIENTED_EDGE('',*,*,#325,.T.);
#482=ORIENTED_EDGE('',*,*,#347,.T.);
#483=ORIENTED_EDGE('',*,*,#316,.F.);
#484=ORIENTED_EDGE('',*,*,#335,.F.);
#485=ORIENTED_EDGE('',*,*,#344,.F.);
#486=ORIENTED_EDGE('',*,*,#294,.F.);
#487=ORIENTED_EDGE('',*,*,#341,.F.);
#488=ORIENTED_EDGE('',*,*,#308,.F.);
#489=ORIENTED_EDGE('',*,*,#345,.F.);
#490=ORIENTED_EDGE('',*,*,#322,.F.);
#491=ORIENTED_EDGE('',*,*,#337,.F.);
#492=ORIENTED_EDGE('',*,*,#300,.F.);
#493=ORIENTED_EDGE('',*,*,#339,.F.);
#494=ORIENTED_EDGE('',*,*,#329,.F.);
#495=ORIENTED_EDGE('',*,*,#319,.F.);
#496=ORIENTED_EDGE('',*,*,#326,.F.);
#497=ORIENTED_EDGE('',*,*,#348,.F.);
#498=ORIENTED_EDGE('',*,*,#304,.F.);
#499=ORIENTED_EDGE('',*,*,#349,.F.);
#500=ORIENTED_EDGE('',*,*,#350,.T.);
#501=ORIENTED_EDGE('',*,*,#351,.T.);
#502=ORIENTED_EDGE('',*,*,#350,.F.);
#503=ORIENTED_EDGE('',*,*,#352,.F.);
#504=ORIENTED_EDGE('',*,*,#349,.T.);
#505=ORIENTED_EDGE('',*,*,#289,.F.);
#506=ORIENTED_EDGE('',*,*,#353,.T.);
#507=ORIENTED_EDGE('',*,*,#352,.T.);
#508=ORIENTED_EDGE('',*,*,#353,.F.);
#509=ORIENTED_EDGE('',*,*,#351,.F.);
#510=CYLINDRICAL_SURFACE('',#574,0.00393700787401575);
#511=CYLINDRICAL_SURFACE('',#578,0.00393700787401575);
#512=CYLINDRICAL_SURFACE('',#594,0.00393700787401575);
#513=CYLINDRICAL_SURFACE('',#597,0.00393700787401575);
#514=CYLINDRICAL_SURFACE('',#600,0.00393700787401575);
#515=CYLINDRICAL_SURFACE('',#611,0.00393700787401575);
#516=CYLINDRICAL_SURFACE('',#612,0.00393700787401575);
#517=CYLINDRICAL_SURFACE('',#614,0.00393700787401575);
#518=CYLINDRICAL_SURFACE('',#615,0.00393700787401575);
#519=CYLINDRICAL_SURFACE('',#617,0.00393700787401575);
#520=CYLINDRICAL_SURFACE('',#618,0.00393700787401575);
#521=CYLINDRICAL_SURFACE('',#620,0.00393700787401575);
#522=ADVANCED_FACE('',(#40),#510,.F.);
#523=ADVANCED_FACE('',(#41),#24,.F.);
#524=ADVANCED_FACE('',(#42),#511,.T.);
#525=ADVANCED_FACE('',(#43),#25,.F.);
#526=ADVANCED_FACE('',(#44,#17),#26,.T.);
#527=ADVANCED_FACE('',(#45),#512,.F.);
#528=ADVANCED_FACE('',(#46),#27,.F.);
#529=ADVANCED_FACE('',(#47),#513,.T.);
#530=ADVANCED_FACE('',(#48),#28,.F.);
#531=ADVANCED_FACE('',(#49),#514,.F.);
#532=ADVANCED_FACE('',(#50),#29,.T.);
#533=ADVANCED_FACE('',(#51),#30,.F.);
#534=ADVANCED_FACE('',(#52),#515,.F.);
#535=ADVANCED_FACE('',(#53),#516,.T.);
#536=ADVANCED_FACE('',(#54),#31,.F.);
#537=ADVANCED_FACE('',(#55),#517,.F.);
#538=ADVANCED_FACE('',(#56),#518,.F.);
#539=ADVANCED_FACE('',(#57),#32,.F.);
#540=ADVANCED_FACE('',(#58),#519,.F.);
#541=ADVANCED_FACE('',(#59),#520,.F.);
#542=ADVANCED_FACE('',(#60),#33,.F.);
#543=ADVANCED_FACE('',(#61),#521,.T.);
#544=ADVANCED_FACE('',(#62),#34,.F.);
#545=ADVANCED_FACE('',(#63),#35,.F.);
#546=ADVANCED_FACE('',(#64),#36,.F.);
#547=ADVANCED_FACE('',(#65),#37,.F.);
#548=ADVANCED_FACE('',(#66),#16,.T.);
#549=ADVANCED_FACE('',(#67,#18),#38,.T.);
#550=ADVANCED_FACE('',(#68),#15,.T.);
#551=ADVANCED_FACE('',(#69),#39,.T.);
#552=CLOSED_SHELL('',(#522,#523,#524,#525,#526,#527,#528,#529,#530,#531,
#532,#533,#534,#535,#536,#537,#538,#539,#540,#541,#542,#543,#544,#545,#546,
#547,#548,#549,#550,#551));
#553=DERIVED_UNIT_ELEMENT(#555,1.);
#554=DERIVED_UNIT_ELEMENT(#971,-3.);
#555=(
CONVERSION_BASED_UNIT('gram',#557)
MASS_UNIT()
NAMED_UNIT(#968)
);
#556=(
MASS_UNIT()
NAMED_UNIT(*)
SI_UNIT(.KILO.,.GRAM.)
);
#557=MASS_MEASURE_WITH_UNIT(MASS_MEASURE(0.001),#556);
#558=DERIVED_UNIT((#553,#554));
#559=MEASURE_REPRESENTATION_ITEM('density measure',
POSITIVE_RATIO_MEASURE(1.),#558);
#560=PROPERTY_DEFINITION_REPRESENTATION(#565,#562);
#561=PROPERTY_DEFINITION_REPRESENTATION(#566,#563);
#562=REPRESENTATION('material name',(#564),#965);
#563=REPRESENTATION('density',(#559),#965);
#564=DESCRIPTIVE_REPRESENTATION_ITEM('Generic','Generic');
#565=PROPERTY_DEFINITION('material property','material name',#979);
#566=PROPERTY_DEFINITION('material property','density of part',#979);
#567=DATE_TIME_ROLE('creation_date');
#568=APPLIED_DATE_AND_TIME_ASSIGNMENT(#569,#567,(#979));
#569=DATE_AND_TIME(#570,#571);
#570=CALENDAR_DATE(2003,3,9);
#571=LOCAL_TIME(0,0,0.,#572);
#572=COORDINATED_UNIVERSAL_TIME_OFFSET(0,0,.BEHIND.);
#573=AXIS2_PLACEMENT_3D('',#802,#633,#634);
#574=AXIS2_PLACEMENT_3D('',#803,#635,#636);
#575=AXIS2_PLACEMENT_3D('',#806,#637,#638);
#576=AXIS2_PLACEMENT_3D('',#810,#640,#641);
#577=AXIS2_PLACEMENT_3D('',#812,#643,#644);
#578=AXIS2_PLACEMENT_3D('',#818,#648,#649);
#579=AXIS2_PLACEMENT_3D('',#820,#650,#651);
#580=AXIS2_PLACEMENT_3D('',#823,#653,#654);
#581=AXIS2_PLACEMENT_3D('',#824,#655,#656);
#582=AXIS2_PLACEMENT_3D('',#830,#660,#661);
#583=AXIS2_PLACEMENT_3D('',#832,#662,#663);
#584=AXIS2_PLACEMENT_3D('',#836,#665,#666);
#585=AXIS2_PLACEMENT_3D('',#840,#668,#669);
#586=AXIS2_PLACEMENT_3D('',#844,#671,#672);
#587=AXIS2_PLACEMENT_3D('',#848,#674,#675);
#588=AXIS2_PLACEMENT_3D('',#852,#677,#678);
#589=AXIS2_PLACEMENT_3D('',#856,#680,#681);
#590=AXIS2_PLACEMENT_3D('',#860,#683,#684);
#591=AXIS2_PLACEMENT_3D('',#864,#686,#687);
#592=AXIS2_PLACEMENT_3D('',#868,#689,#690);
#593=AXIS2_PLACEMENT_3D('',#871,#692,#693);
#594=AXIS2_PLACEMENT_3D('',#872,#694,#695);
#595=AXIS2_PLACEMENT_3D('',#875,#696,#697);
#596=AXIS2_PLACEMENT_3D('',#878,#700,#701);
#597=AXIS2_PLACEMENT_3D('',#880,#703,#704);
#598=AXIS2_PLACEMENT_3D('',#884,#706,#707);
#599=AXIS2_PLACEMENT_3D('',#886,#709,#710);
#600=AXIS2_PLACEMENT_3D('',#888,#712,#713);
#601=AXIS2_PLACEMENT_3D('',#891,#714,#715);
#602=AXIS2_PLACEMENT_3D('',#894,#718,#719);
#603=AXIS2_PLACEMENT_3D('',#896,#720,#721);
#604=AXIS2_PLACEMENT_3D('',#900,#723,#724);
#605=AXIS2_PLACEMENT_3D('',#904,#726,#727);
#606=AXIS2_PLACEMENT_3D('',#909,#730,#731);
#607=AXIS2_PLACEMENT_3D('',#913,#733,#734);
#608=AXIS2_PLACEMENT_3D('',#917,#736,#737);
#609=AXIS2_PLACEMENT_3D('',#921,#739,#740);
#610=AXIS2_PLACEMENT_3D('',#923,#742,#743);
#611=AXIS2_PLACEMENT_3D('',#925,#745,#746);
#612=AXIS2_PLACEMENT_3D('',#927,#748,#749);
#613=AXIS2_PLACEMENT_3D('',#930,#752,#753);
#614=AXIS2_PLACEMENT_3D('',#932,#755,#756);
#615=AXIS2_PLACEMENT_3D('',#934,#758,#759);
#616=AXIS2_PLACEMENT_3D('',#936,#761,#762);
#617=AXIS2_PLACEMENT_3D('',#938,#764,#765);
#618=AXIS2_PLACEMENT_3D('',#940,#767,#768);
#619=AXIS2_PLACEMENT_3D('',#943,#771,#772);
#620=AXIS2_PLACEMENT_3D('',#945,#774,#775);
#621=AXIS2_PLACEMENT_3D('',#947,#777,#778);
#622=AXIS2_PLACEMENT_3D('',#948,#779,#780);
#623=AXIS2_PLACEMENT_3D('',#949,#781,#782);
#624=AXIS2_PLACEMENT_3D('',#950,#783,#784);
#625=AXIS2_PLACEMENT_3D('',#951,#785,#786);
#626=AXIS2_PLACEMENT_3D('',#953,#787,#788);
#627=AXIS2_PLACEMENT_3D('',#956,#790,#791);
#628=AXIS2_PLACEMENT_3D('',#957,#792,#793);
#629=AXIS2_PLACEMENT_3D('',#959,#794,#795);
#630=AXIS2_PLACEMENT_3D('',#960,#796,#797);
#631=AXIS2_PLACEMENT_3D('',#961,#798,#799);
#632=AXIS2_PLACEMENT_3D('',#962,#800,#801);
#633=DIRECTION('axis',(0.,0.,1.));
#634=DIRECTION('refdir',(1.,0.,0.));
#635=DIRECTION('center_axis',(-0.137844537491628,-0.980814848463989,0.137844537491629));
#636=DIRECTION('ref_axis',(0.693540830437344,-0.194941614419708,-0.693540830437342));
#637=DIRECTION('center_axis',(-1.27040445603874E-16,1.,-6.44408057410953E-16));
#638=DIRECTION('ref_axis',(0.707106781186548,-3.65834146675075E-16,-0.707106781186547));
#639=DIRECTION('',(0.137844537491628,0.980814848463989,-0.137844537491629));
#640=DIRECTION('center_axis',(-3.00060276925718E-16,1.,0.));
#641=DIRECTION('ref_axis',(0.707106781186548,2.12174656578889E-16,-0.707106781186547));
#642=DIRECTION('',(-0.137844537491628,-0.980814848463989,0.137844537491629));
#643=DIRECTION('center_axis',(4.17603192146882E-17,-0.139173100960065,-0.99026806874157));
#644=DIRECTION('ref_axis',(1.,3.00060276925718E-16,1.91052250483214E-31));
#645=DIRECTION('',(1.,3.00060276925718E-16,6.22354291386073E-33));
#646=DIRECTION('',(0.137844537491628,0.980814848463989,-0.137844537491629));
#647=DIRECTION('',(-1.,-3.00060276925718E-16,0.));
#648=DIRECTION('center_axis',(0.137844537491628,0.980814848463989,-0.137844537491629));
#649=DIRECTION('ref_axis',(-0.693540830437342,0.194941614419708,0.693540830437343));
#650=DIRECTION('center_axis',(3.00060276925718E-16,-1.,0.));
#651=DIRECTION('ref_axis',(-0.707106781186547,-2.12174656578888E-16,0.707106781186548));
#652=DIRECTION('',(-0.137844537491628,-0.980814848463989,0.137844537491629));
#653=DIRECTION('center_axis',(1.27040445603874E-16,-1.,6.44408057410953E-16));
#654=DIRECTION('ref_axis',(-0.707106781186547,3.65834146675075E-16,0.707106781186548));
#655=DIRECTION('center_axis',(0.99026806874157,-0.139173100960065,0.));
#656=DIRECTION('ref_axis',(0.,0.,1.));
#657=DIRECTION('',(0.,0.,1.));
#658=DIRECTION('',(0.137844537491628,0.980814848463989,-0.137844537491629));
#659=DIRECTION('',(0.,0.,-1.));
#660=DIRECTION('center_axis',(-3.00060276925718E-16,1.,0.));
#661=DIRECTION('ref_axis',(0.,0.,1.));
#662=DIRECTION('center_axis',(-3.00060276925718E-16,1.,0.));
#663=DIRECTION('ref_axis',(-1.,-3.00060276925718E-16,0.));
#664=DIRECTION('',(0.,0.,1.));
#665=DIRECTION('center_axis',(-3.00060276925718E-16,1.,0.));
#666=DIRECTION('ref_axis',(0.707106781186548,2.12174656578889E-16,0.707106781186547));
#667=DIRECTION('',(-1.,-3.00060276925718E-16,6.22354291386073E-33));
#668=DIRECTION('center_axis',(3.00060276925718E-16,-1.,0.));
#669=DIRECTION('ref_axis',(-0.707106781186547,-2.12174656578888E-16,-0.707106781186548));
#670=DIRECTION('',(0.,0.,1.));
#671=DIRECTION('center_axis',(-3.00060276925718E-16,1.,0.));
#672=DIRECTION('ref_axis',(0.707106781186546,2.12174656578888E-16,0.707106781186549));
#673=DIRECTION('',(-1.,-3.00060276925718E-16,0.));
#674=DIRECTION('center_axis',(-3.00060276925718E-16,1.,0.));
#675=DIRECTION('ref_axis',(-0.707106781186547,-2.12174656578888E-16,0.707106781186548));
#676=DIRECTION('',(0.,0.,-1.));
#677=DIRECTION('center_axis',(3.00060276925718E-16,-1.,0.));
#678=DIRECTION('ref_axis',(0.707106781186547,2.12174656578888E-16,-0.707106781186548));
#679=DIRECTION('',(-1.,-3.00060276925718E-16,6.22354291386073E-33));
#680=DIRECTION('center_axis',(-3.00060276925718E-16,1.,0.));
#681=DIRECTION('ref_axis',(-0.707106781186549,-2.12174656578889E-16,0.707106781186546));
#682=DIRECTION('',(0.,0.,-1.));
#683=DIRECTION('center_axis',(-3.00060276925718E-16,1.,0.));
#684=DIRECTION('ref_axis',(-0.707106781186549,-2.12174656578889E-16,-0.707106781186546));
#685=DIRECTION('',(1.,3.00060276925718E-16,6.22354291386073E-33));
#686=DIRECTION('center_axis',(3.00060276925718E-16,-1.,0.));
#687=DIRECTION('ref_axis',(0.707106781186547,2.12174656578888E-16,0.707106781186548));
#688=DIRECTION('',(0.,0.,-1.));
#689=DIRECTION('center_axis',(-3.00060276925718E-16,1.,0.));
#690=DIRECTION('ref_axis',(-0.707106781186547,-2.12174656578888E-16,-0.707106781186548));
#691=DIRECTION('',(1.,3.00060276925718E-16,0.));
#692=DIRECTION('center_axis',(-3.00060276925718E-16,1.,0.));
#693=DIRECTION('ref_axis',(0.707106781186545,2.12174656578888E-16,-0.70710678118655));
#694=DIRECTION('center_axis',(-0.137844537491628,-0.980814848463989,-0.137844537491629));
#695=DIRECTION('ref_axis',(0.693540830437343,-0.194941614419708,0.693540830437342));
#696=DIRECTION('center_axis',(-1.27040445603874E-16,1.,-6.44408057410953E-16));
#697=DIRECTION('ref_axis',(0.707106781186548,5.45496467817995E-16,0.707106781186547));
#698=DIRECTION('',(0.137844537491628,0.980814848463989,0.137844537491629));
#699=DIRECTION('',(-0.137844537491628,-0.980814848463989,-0.137844537491629));
#700=DIRECTION('center_axis',(0.99026806874157,-0.139173100960065,0.));
#701=DIRECTION('ref_axis',(0.,0.,1.));
#702=DIRECTION('',(0.,0.,-1.));
#703=DIRECTION('center_axis',(-0.137844537491628,-0.980814848463989,-0.137844537491629));
#704=DIRECTION('ref_axis',(-0.693540830437342,0.194941614419708,-0.693540830437343));
#705=DIRECTION('',(-0.137844537491628,-0.980814848463989,-0.137844537491629));
#706=DIRECTION('center_axis',(1.27040445603874E-16,-1.,6.44408057410953E-16));
#707=DIRECTION('ref_axis',(-0.707106781186547,-5.45496467817995E-16,-0.707106781186548));
#708=DIRECTION('',(0.137844537491628,0.980814848463989,0.137844537491629));
#709=DIRECTION('center_axis',(4.17603192146882E-17,-0.139173100960065,0.99026806874157));
#710=DIRECTION('ref_axis',(-1.,-3.00060276925718E-16,1.91052250483214E-31));
#711=DIRECTION('',(1.,3.00060276925718E-16,0.));
#712=DIRECTION('center_axis',(0.137844537491629,-0.980814848463989,0.137844537491629));
#713=DIRECTION('ref_axis',(-0.693540830437344,-0.194941614419708,-0.693540830437342));
#714=DIRECTION('center_axis',(-1.27040445603874E-16,1.,-6.44408057410953E-16));
#715=DIRECTION('ref_axis',(-0.707106781186548,-5.45496467817995E-16,-0.707106781186547));
#716=DIRECTION('',(-0.137844537491629,0.980814848463989,-0.137844537491629));
#717=DIRECTION('',(0.137844537491629,-0.980814848463989,0.137844537491629));
#718=DIRECTION('center_axis',(-1.27040445603874E-16,1.,-6.44408057410953E-16));
#719=DIRECTION('ref_axis',(0.,6.44408057410953E-16,1.));
#720=DIRECTION('center_axis',(-1.27040445603874E-16,1.,-6.44408057410953E-16));
#721=DIRECTION('ref_axis',(0.707106781186545,-3.65834146675077E-16,-0.70710678118655));
#722=DIRECTION('',(-1.,-3.00060276925718E-16,0.));
#723=DIRECTION('center_axis',(-1.27040445603874E-16,1.,-6.44408057410953E-16));
#724=DIRECTION('ref_axis',(-0.707106781186547,-5.45496467817995E-16,-0.707106781186548));
#725=DIRECTION('',(0.,0.,1.));
#726=DIRECTION('center_axis',(1.27040445603874E-16,-1.,6.44408057410953E-16));
#727=DIRECTION('ref_axis',(0.707106781186547,5.45496467817995E-16,0.707106781186548));
#728=DIRECTION('',(-1.,-3.00060276925718E-16,0.));
#729=DIRECTION('',(0.,0.,1.));
#730=DIRECTION('center_axis',(-1.27040445603874E-16,1.,-6.44408057410953E-16));
#731=DIRECTION('ref_axis',(-0.707106781186549,3.65834146675074E-16,0.707106781186546));
#732=DIRECTION('',(1.,3.00060276925718E-16,0.));
#733=DIRECTION('center_axis',(1.27040445603874E-16,-1.,6.44408057410953E-16));
#734=DIRECTION('ref_axis',(0.707106781186547,-3.65834146675075E-16,-0.707106781186548));
#735=DIRECTION('',(0.,0.,1.));
#736=DIRECTION('center_axis',(-1.27040445603874E-16,1.,-6.44408057410953E-16));
#737=DIRECTION('ref_axis',(-0.707106781186547,3.65834146675075E-16,0.707106781186548));
#738=DIRECTION('',(1.,3.00060276925718E-16,0.));
#739=DIRECTION('center_axis',(-1.27040445603874E-16,1.,-6.44408057410953E-16));
#740=DIRECTION('ref_axis',(0.707106781186546,5.45496467817995E-16,0.707106781186549));
#741=DIRECTION('',(0.,0.,-1.));
#742=DIRECTION('center_axis',(-0.99026806874157,-0.139173100960066,0.));
#743=DIRECTION('ref_axis',(0.,0.,-1.));
#744=DIRECTION('',(-0.137844537491629,0.980814848463989,0.137844537491629));
#745=DIRECTION('center_axis',(0.137844537491629,-0.980814848463989,-0.137844537491629));
#746=DIRECTION('ref_axis',(-0.693540830437344,-0.194941614419708,0.693540830437342));
#747=DIRECTION('',(0.137844537491629,-0.980814848463989,-0.137844537491629));
#748=DIRECTION('center_axis',(-0.137844537491629,0.980814848463989,0.137844537491629));
#749=DIRECTION('ref_axis',(0.693540830437342,0.194941614419708,-0.693540830437343));
#750=DIRECTION('',(0.137844537491629,-0.980814848463989,-0.137844537491629));
#751=DIRECTION('',(-0.137844537491629,0.980814848463989,0.137844537491629));
#752=DIRECTION('center_axis',(-0.99026806874157,-0.139173100960066,0.));
#753=DIRECTION('ref_axis',(0.,0.,-1.));
#754=DIRECTION('',(-0.137844537491629,0.980814848463989,0.137844537491629));
#755=DIRECTION('center_axis',(-0.137844537491628,-0.980814848463989,0.137844537491629));
#756=DIRECTION('ref_axis',(0.69354083043734,-0.194941614419708,-0.693540830437345));
#757=DIRECTION('',(-0.137844537491628,-0.980814848463989,0.137844537491629));
#758=DIRECTION('center_axis',(0.137844537491629,-0.980814848463989,-0.137844537491629));
#759=DIRECTION('ref_axis',(-0.693540830437342,-0.194941614419708,0.693540830437343));
#760=DIRECTION('',(0.137844537491629,-0.980814848463989,-0.137844537491629));
#761=DIRECTION('center_axis',(4.17603192146882E-17,-0.139173100960066,0.99026806874157));
#762=DIRECTION('ref_axis',(-1.,-3.00060276925718E-16,-9.86076131526265E-32));
#763=DIRECTION('',(0.137844537491628,0.980814848463989,0.137844537491629));
#764=DIRECTION('center_axis',(-0.137844537491628,-0.980814848463989,-0.137844537491629));
#765=DIRECTION('ref_axis',(0.693540830437342,-0.194941614419708,0.693540830437344));
#766=DIRECTION('',(-0.137844537491628,-0.980814848463989,-0.137844537491629));
#767=DIRECTION('center_axis',(0.137844537491629,-0.980814848463989,0.137844537491629));
#768=DIRECTION('ref_axis',(-0.693540830437342,-0.194941614419708,-0.693540830437343));
#769=DIRECTION('',(-0.137844537491629,0.980814848463989,-0.137844537491629));
#770=DIRECTION('',(0.137844537491629,-0.980814848463989,0.137844537491629));
#771=DIRECTION('center_axis',(-0.99026806874157,-0.139173100960066,0.));
#772=DIRECTION('ref_axis',(0.,0.,-1.));
#773=DIRECTION('',(-0.137844537491629,0.980814848463989,-0.137844537491629));
#774=DIRECTION('center_axis',(0.137844537491629,-0.980814848463989,0.137844537491629));
#775=DIRECTION('ref_axis',(0.693540830437342,0.194941614419708,0.693540830437343));
#776=DIRECTION('',(0.137844537491629,-0.980814848463989,0.137844537491629));
#777=DIRECTION('center_axis',(0.99026806874157,-0.139173100960065,0.));
#778=DIRECTION('ref_axis',(0.,0.,1.));
#779=DIRECTION('center_axis',(4.17603192146882E-17,-0.139173100960066,-0.99026806874157));
#780=DIRECTION('ref_axis',(1.,3.00060276925718E-16,-9.86076131526265E-32));
#781=DIRECTION('center_axis',(4.17603192146882E-17,-0.139173100960065,0.99026806874157));
#782=DIRECTION('ref_axis',(-1.,-3.00060276925718E-16,1.91052250483214E-31));
#783=DIRECTION('center_axis',(4.17603192146882E-17,-0.139173100960065,-0.99026806874157));
#784=DIRECTION('ref_axis',(1.,3.00060276925718E-16,1.91052250483214E-31));
#785=DIRECTION('center_axis',(-3.00060276925718E-16,1.,0.));
#786=DIRECTION('ref_axis',(-1.,-3.00060276925718E-16,0.));
#787=DIRECTION('center_axis',(-3.00060276925718E-16,1.,0.));
#788=DIRECTION('ref_axis',(-1.,-3.00060276925718E-16,0.));
#789=DIRECTION('',(-0.0437081898936154,-0.999044340425501,5.35270948497412E-18));
#790=DIRECTION('center_axis',(-3.00060276925718E-16,1.,0.));
#791=DIRECTION('ref_axis',(-1.,-3.00060276925718E-16,0.));
#792=DIRECTION('center_axis',(3.00060276925718E-16,-1.,0.));
#793=DIRECTION('ref_axis',(0.,0.,-1.));
#794=DIRECTION('center_axis',(-3.00060276925718E-16,1.,0.));
#795=DIRECTION('ref_axis',(-1.,-3.00060276925718E-16,0.));
#796=DIRECTION('center_axis',(-3.00060276925718E-16,1.,0.));
#797=DIRECTION('ref_axis',(0.,0.,1.));
#798=DIRECTION('center_axis',(-1.,-3.00060276925718E-16,1.22464679914735E-16));
#799=DIRECTION('ref_axis',(-1.22464679914735E-16,0.,-1.));
#800=DIRECTION('center_axis',(3.00060276925718E-16,-1.,0.));
#801=DIRECTION('ref_axis',(0.,0.,-1.));
#802=CARTESIAN_POINT('',(0.,0.,0.));
#803=CARTESIAN_POINT('Origin',(0.0548938704956366,0.362852982094977,-0.0135552878184712));
#804=CARTESIAN_POINT('',(0.0535220143817957,0.324803149606299,-0.00828473852060835));
#805=CARTESIAN_POINT('',(0.0496233211977736,0.324803149606299,-0.0121834317046303));
#806=CARTESIAN_POINT('Origin',(0.0495463152773913,0.324803149606299,-0.00820773260022626));
#807=CARTESIAN_POINT('',(0.0590551181102362,0.364173228346457,-0.0138178422490489));
#808=CARTESIAN_POINT('',(0.0587925636796583,0.362305056500646,-0.0135552878184712));
#809=CARTESIAN_POINT('',(0.0551564249262142,0.364173228346457,-0.0177165354330709));
#810=CARTESIAN_POINT('Origin',(0.0550794190058323,0.364173228346457,-0.0137408363286668));
#811=CARTESIAN_POINT('',(0.0548938704956366,0.362305056500646,-0.0174539810024931));
#812=CARTESIAN_POINT('Origin',(0.0590551181102362,0.364173228346457,-0.0177165354330709));
#813=CARTESIAN_POINT('',(0.0216152286170927,0.364173228346457,-0.0177165354330709));
#814=CARTESIAN_POINT('',(0.0110728346456692,0.364173228346457,-0.0177165354330709));
#815=CARTESIAN_POINT('',(0.0160821248886521,0.324803149606299,-0.0121834317046303));
#816=CARTESIAN_POINT('',(0.0212045151396133,0.361250850104224,-0.0173058219555915));
#817=CARTESIAN_POINT('',(0.0590551181102362,0.324803149606299,-0.0121834317046303));
#818=CARTESIAN_POINT('Origin',(0.0212045151396133,0.360702924509893,-0.0212045151396134));
#819=CARTESIAN_POINT('',(0.0177165354330708,0.364173228346457,-0.0216152286170928));
#820=CARTESIAN_POINT('Origin',(0.0216922345374748,0.364173228346457,-0.0216922345374749));
#821=CARTESIAN_POINT('',(0.0121834317046302,0.324803149606299,-0.0160821248886522));
#822=CARTESIAN_POINT('',(0.0173058219555913,0.361250850104224,-0.0212045151396134));
#823=CARTESIAN_POINT('Origin',(0.0161591308090342,0.324803149606299,-0.0161591308090343));
#824=CARTESIAN_POINT('Origin',(0.0177165354330707,0.364173228346457,0.0590551181102362));
#825=CARTESIAN_POINT('',(0.0177165354330708,0.364173228346457,-0.0551564249262142));
#826=CARTESIAN_POINT('',(0.0177165354330708,0.364173228346457,0.0295275590551181));
#827=CARTESIAN_POINT('',(0.0121834317046302,0.324803149606299,-0.0496233211977736));
#828=CARTESIAN_POINT('',(0.0166685017764263,0.356716081397929,-0.0541083912695697));
#829=CARTESIAN_POINT('',(0.0121834317046302,0.324803149606299,0.0590551181102362));
#830=CARTESIAN_POINT('Origin',(-0.0369094488188978,0.364173228346457,0.));
#831=CARTESIAN_POINT('',(-1.14770108398634E-16,0.364173228346457,-0.0738188976377953));
#832=CARTESIAN_POINT('Origin',(-1.0927391974657E-16,0.364173228346457,0.));
#833=CARTESIAN_POINT('',(0.0590551181102362,0.364173228346457,0.0138178422490489));
#834=CARTESIAN_POINT('',(0.0590551181102362,0.364173228346457,0.00885826771653543));
#835=CARTESIAN_POINT('',(0.0551564249262142,0.364173228346457,0.0177165354330709));
#836=CARTESIAN_POINT('Origin',(0.0550794190058323,0.364173228346457,0.0137408363286668));
#837=CARTESIAN_POINT('',(0.0216152286170927,0.364173228346457,0.0177165354330709));
#838=CARTESIAN_POINT('',(-0.0479822834645669,0.364173228346457,0.0177165354330709));
#839=CARTESIAN_POINT('',(0.0177165354330708,0.364173228346457,0.0216152286170928));
#840=CARTESIAN_POINT('Origin',(0.0216922345374748,0.364173228346457,0.0216922345374749));
#841=CARTESIAN_POINT('',(0.0177165354330708,0.364173228346457,0.0551564249262142));
#842=CARTESIAN_POINT('',(0.0177165354330708,0.364173228346457,0.0295275590551181));
#843=CARTESIAN_POINT('',(0.0138178422490488,0.364173228346457,0.0590551181102362));
#844=CARTESIAN_POINT('Origin',(0.0137408363286668,0.364173228346457,0.0550794190058323));
#845=CARTESIAN_POINT('',(-0.0138178422490491,0.364173228346457,0.0590551181102362));
#846=CARTESIAN_POINT('',(-0.0273129921259844,0.364173228346457,0.0590551181102362));
#847=CARTESIAN_POINT('',(-0.017716535433071,0.364173228346457,0.0551564249262142));
#848=CARTESIAN_POINT('Origin',(-0.013740836328667,0.364173228346457,0.0550794190058323));
#849=CARTESIAN_POINT('',(-0.017716535433071,0.364173228346457,0.0216152286170928));
#850=CARTESIAN_POINT('',(-0.017716535433071,0.364173228346457,-0.0295275590551181));
#851=CARTESIAN_POINT('',(-0.0216152286170929,0.364173228346457,0.0177165354330709));
#852=CARTESIAN_POINT('Origin',(-0.021692234537475,0.364173228346457,0.0216922345374749));
#853=CARTESIAN_POINT('',(-0.0551564249262146,0.364173228346457,0.0177165354330709));
#854=CARTESIAN_POINT('',(-0.0479822834645669,0.364173228346457,0.0177165354330709));
#855=CARTESIAN_POINT('',(-0.0590551181102362,0.364173228346457,0.0138178422490489));
#856=CARTESIAN_POINT('Origin',(-0.0550794190058323,0.364173228346457,0.0137408363286668));
#857=CARTESIAN_POINT('',(-0.0590551181102362,0.364173228346457,-0.0138178422490489));
#858=CARTESIAN_POINT('',(-0.0590551181102362,0.364173228346457,-0.00885826771653543));
#859=CARTESIAN_POINT('',(-0.0551564249262146,0.364173228346457,-0.0177165354330709));
#860=CARTESIAN_POINT('Origin',(-0.0550794190058323,0.364173228346457,-0.0137408363286668));
#861=CARTESIAN_POINT('',(-0.0216152286170929,0.364173228346457,-0.0177165354330709));
#862=CARTESIAN_POINT('',(0.0110728346456692,0.364173228346457,-0.0177165354330709));
#863=CARTESIAN_POINT('',(-0.017716535433071,0.364173228346457,-0.0216152286170928));
#864=CARTESIAN_POINT('Origin',(-0.021692234537475,0.364173228346457,-0.0216922345374749));
#865=CARTESIAN_POINT('',(-0.017716535433071,0.364173228346457,-0.0551564249262142));
#866=CARTESIAN_POINT('',(-0.017716535433071,0.364173228346457,-0.0295275590551181));
#867=CARTESIAN_POINT('',(-0.0138178422490491,0.364173228346457,-0.0590551181102362));
#868=CARTESIAN_POINT('Origin',(-0.013740836328667,0.364173228346457,-0.0550794190058323));
#869=CARTESIAN_POINT('',(0.0138178422490488,0.364173228346457,-0.0590551181102362));
#870=CARTESIAN_POINT('',(-0.0095964566929135,0.364173228346457,-0.0590551181102362));
#871=CARTESIAN_POINT('Origin',(0.0137408363286668,0.364173228346457,-0.0550794190058323));
#872=CARTESIAN_POINT('Origin',(0.0541083912695697,0.35726400699226,0.0127698085924044));
#873=CARTESIAN_POINT('',(0.0496233211977736,0.324803149606299,0.0121834317046303));
#874=CARTESIAN_POINT('',(0.0535220143817957,0.324803149606299,0.00828473852060831));
#875=CARTESIAN_POINT('Origin',(0.0495463152773913,0.324803149606299,0.00820773260022622));
#876=CARTESIAN_POINT('',(0.0541083912695697,0.356716081397929,0.0166685017764264));
#877=CARTESIAN_POINT('',(0.0580070844535917,0.356716081397929,0.0127698085924044));
#878=CARTESIAN_POINT('Origin',(0.0590551181102362,0.364173228346457,0.0177165354330709));
#879=CARTESIAN_POINT('',(0.0535220143817957,0.324803149606299,0.0177165354330709));
#880=CARTESIAN_POINT('Origin',(0.0212045151396133,0.360702924509893,0.0212045151396133));
#881=CARTESIAN_POINT('',(0.0160821248886521,0.324803149606299,0.0121834317046303));
#882=CARTESIAN_POINT('',(0.0212045151396133,0.361250850104224,0.0173058219555914));
#883=CARTESIAN_POINT('',(0.0121834317046302,0.324803149606299,0.0160821248886522));
#884=CARTESIAN_POINT('Origin',(0.0161591308090342,0.324803149606299,0.0161591308090343));
#885=CARTESIAN_POINT('',(0.0173058219555913,0.361250850104224,0.0212045151396133));
#886=CARTESIAN_POINT('Origin',(-0.0590551181102362,0.364173228346457,0.0177165354330709));
#887=CARTESIAN_POINT('',(-0.0590551181102362,0.324803149606299,0.0121834317046303));
#888=CARTESIAN_POINT('Origin',(-0.0541083912695701,0.35726400699226,-0.0127698085924044));
#889=CARTESIAN_POINT('',(-0.0496233211977736,0.324803149606299,-0.0121834317046303));
#890=CARTESIAN_POINT('',(-0.0535220143817957,0.324803149606299,-0.00828473852060835));
#891=CARTESIAN_POINT('Origin',(-0.0495463152773917,0.324803149606299,-0.00820773260022626));
#892=CARTESIAN_POINT('',(-0.0541083912695701,0.356716081397929,-0.0166685017764264));
#893=CARTESIAN_POINT('',(-0.0580070844535917,0.356716081397929,-0.0127698085924044));
#894=CARTESIAN_POINT('Origin',(-1.01078375765578E-16,0.324803149606299,
-4.38432947234929E-18));
#895=CARTESIAN_POINT('',(0.00828473852060823,0.324803149606299,-0.0535220143817957));
#896=CARTESIAN_POINT('Origin',(0.00820773260022614,0.324803149606299,-0.0495463152773917));
#897=CARTESIAN_POINT('',(-0.00828473852060843,0.324803149606299,-0.0535220143817957));
#898=CARTESIAN_POINT('',(0.0177165354330708,0.324803149606299,-0.0535220143817957));
#899=CARTESIAN_POINT('',(-0.0121834317046304,0.324803149606299,-0.0496233211977736));
#900=CARTESIAN_POINT('Origin',(-0.00820773260022634,0.324803149606299,-0.0495463152773917));
#901=CARTESIAN_POINT('',(-0.0121834317046304,0.324803149606299,-0.0160821248886522));
#902=CARTESIAN_POINT('',(-0.0121834317046304,0.324803149606299,-0.0590551181102362));
#903=CARTESIAN_POINT('',(-0.0160821248886523,0.324803149606299,-0.0121834317046303));
#904=CARTESIAN_POINT('Origin',(-0.0161591308090344,0.324803149606299,-0.0161591308090343));
#905=CARTESIAN_POINT('',(0.0590551181102362,0.324803149606299,-0.0121834317046303));
#906=CARTESIAN_POINT('',(-0.0535220143817957,0.324803149606299,0.00828473852060835));
#907=CARTESIAN_POINT('',(-0.0535220143817957,0.324803149606299,-0.0177165354330709));
#908=CARTESIAN_POINT('',(-0.0496233211977736,0.324803149606299,0.0121834317046303));
#909=CARTESIAN_POINT('Origin',(-0.0495463152773917,0.324803149606299,0.00820773260022626));
#910=CARTESIAN_POINT('',(-0.0160821248886523,0.324803149606299,0.0121834317046303));
#911=CARTESIAN_POINT('',(-0.0590551181102362,0.324803149606299,0.0121834317046303));
#912=CARTESIAN_POINT('',(-0.0121834317046304,0.324803149606299,0.0160821248886522));
#913=CARTESIAN_POINT('Origin',(-0.0161591308090344,0.324803149606299,0.0161591308090343));
#914=CARTESIAN_POINT('',(-0.0121834317046304,0.324803149606299,0.0496233211977736));
#915=CARTESIAN_POINT('',(-0.0121834317046304,0.324803149606299,-0.0590551181102362));
#916=CARTESIAN_POINT('',(-0.00828473852060843,0.324803149606299,0.0535220143817957));
#917=CARTESIAN_POINT('Origin',(-0.00820773260022634,0.324803149606299,0.0495463152773917));
#918=CARTESIAN_POINT('',(0.00828473852060823,0.324803149606299,0.0535220143817957));
#919=CARTESIAN_POINT('',(-0.0177165354330709,0.324803149606299,0.0535220143817957));
#920=CARTESIAN_POINT('',(0.0121834317046302,0.324803149606299,0.0496233211977736));
#921=CARTESIAN_POINT('Origin',(0.00820773260022614,0.324803149606299,0.0495463152773917));
#922=CARTESIAN_POINT('',(0.0121834317046302,0.324803149606299,0.0590551181102362));
#923=CARTESIAN_POINT('Origin',(-0.0590551181102362,0.364173228346457,-0.0177165354330709));
#924=CARTESIAN_POINT('',(-0.0587925636796586,0.362305056500646,0.0135552878184712));
#925=CARTESIAN_POINT('Origin',(-0.0548938704956366,0.362852982094977,0.0135552878184712));
#926=CARTESIAN_POINT('',(-0.0548938704956366,0.362305056500646,0.0174539810024931));
#927=CARTESIAN_POINT('Origin',(-0.0212045151396135,0.360702924509893,0.0212045151396134));
#928=CARTESIAN_POINT('',(-0.0173058219555915,0.361250850104224,0.0212045151396134));
#929=CARTESIAN_POINT('',(-0.0212045151396135,0.361250850104224,0.0173058219555914));
#930=CARTESIAN_POINT('Origin',(-0.017716535433071,0.364173228346457,-0.0590551181102362));
#931=CARTESIAN_POINT('',(-0.0166685017764265,0.356716081397929,0.0541083912695697));
#932=CARTESIAN_POINT('Origin',(0.0127698085924043,0.35726400699226,-0.0541083912695697));
#933=CARTESIAN_POINT('',(0.0127698085924043,0.356716081397929,-0.0580070844535917));
#934=CARTESIAN_POINT('Origin',(-0.0127698085924045,0.35726400699226,0.0541083912695697));
#935=CARTESIAN_POINT('',(-0.0127698085924045,0.356716081397929,0.0580070844535917));
#936=CARTESIAN_POINT('Origin',(-0.017716535433071,0.364173228346457,0.0590551181102362));
#937=CARTESIAN_POINT('',(0.0135552878184711,0.362305056500646,0.0587925636796583));
#938=CARTESIAN_POINT('Origin',(0.0135552878184711,0.362852982094977,0.0548938704956366));
#939=CARTESIAN_POINT('',(0.017453981002493,0.362305056500646,0.0548938704956366));
#940=CARTESIAN_POINT('Origin',(-0.0135552878184713,0.362852982094977,-0.0548938704956366));
#941=CARTESIAN_POINT('',(-0.0135552878184713,0.362305056500646,-0.0587925636796583));
#942=CARTESIAN_POINT('',(-0.0174539810024932,0.362305056500646,-0.0548938704956366));
#943=CARTESIAN_POINT('Origin',(-0.017716535433071,0.364173228346457,-0.0590551181102362));
#944=CARTESIAN_POINT('',(-0.0173058219555915,0.361250850104224,-0.0212045151396134));
#945=CARTESIAN_POINT('Origin',(-0.0212045151396135,0.360702924509893,-0.0212045151396134));
#946=CARTESIAN_POINT('',(-0.0212045151396135,0.361250850104224,-0.0173058219555915));
#947=CARTESIAN_POINT('Origin',(0.0177165354330707,0.364173228346457,0.0590551181102362));
#948=CARTESIAN_POINT('Origin',(0.0177165354330707,0.364173228346457,-0.0590551181102362));
#949=CARTESIAN_POINT('Origin',(-0.0590551181102362,0.364173228346457,0.0177165354330709));
#950=CARTESIAN_POINT('Origin',(0.0590551181102362,0.364173228346457,-0.0177165354330709));
#951=CARTESIAN_POINT('Origin',(-4.72535869174358E-17,0.15748031496063,0.));
#952=CARTESIAN_POINT('',(0.0590551181102362,0.31496062992126,-7.23216613669697E-18));
#953=CARTESIAN_POINT('Origin',(-9.45071738348716E-17,0.31496062992126,0.));
#954=CARTESIAN_POINT('',(0.0452755905511811,4.37095678986284E-17,-5.54466070480102E-18));
#955=CARTESIAN_POINT('',(0.0521653543307086,0.15748031496063,-6.38841342074899E-18));
#956=CARTESIAN_POINT('Origin',(-4.07644075815154E-33,1.35854062387628E-17,
0.));
#957=CARTESIAN_POINT('Origin',(-0.0664370078740157,0.31496062992126,0.));
#958=CARTESIAN_POINT('',(-1.00003362486935E-16,0.31496062992126,-0.0738188976377953));
#959=CARTESIAN_POINT('Origin',(-9.45071738348716E-17,0.31496062992126,0.));
#960=CARTESIAN_POINT('Origin',(-9.83465277719134E-17,0.339566929133858,
0.));
#961=CARTESIAN_POINT('Origin',(-1.07386735442785E-16,0.339566929133858,
-0.0738188976377953));
#962=CARTESIAN_POINT('Origin',(-0.0226377952755905,0.,0.));
#963=UNCERTAINTY_MEASURE_WITH_UNIT(LENGTH_MEASURE(0.000393700787401575),
#969,'DISTANCE_ACCURACY_VALUE',
'Maximum model space distance between geometric entities at asserted c
onnectivities');
#964=UNCERTAINTY_MEASURE_WITH_UNIT(LENGTH_MEASURE(0.000393700787401575),
#969,'DISTANCE_ACCURACY_VALUE',
'Maximum model space distance between geometric entities at asserted c
onnectivities');
#965=(
GEOMETRIC_REPRESENTATION_CONTEXT(3)
GLOBAL_UNCERTAINTY_ASSIGNED_CONTEXT((#963))
GLOBAL_UNIT_ASSIGNED_CONTEXT((#969,#973,#974))
REPRESENTATION_CONTEXT('','3D')
);
#966=(
GEOMETRIC_REPRESENTATION_CONTEXT(3)
GLOBAL_UNCERTAINTY_ASSIGNED_CONTEXT((#964))
GLOBAL_UNIT_ASSIGNED_CONTEXT((#969,#973,#974))
REPRESENTATION_CONTEXT('','3D')
);
#967=DIMENSIONAL_EXPONENTS(1.,0.,0.,0.,0.,0.,0.);
#968=DIMENSIONAL_EXPONENTS(0.,1.,0.,0.,0.,0.,0.);
#969=(
CONVERSION_BASED_UNIT('inch',#972)
LENGTH_UNIT()
NAMED_UNIT(#967)
);
#970=(
LENGTH_UNIT()
NAMED_UNIT(*)
SI_UNIT(.MILLI.,.METRE.)
);
#971=(
LENGTH_UNIT()
NAMED_UNIT(*)
SI_UNIT(.CENTI.,.METRE.)
);
#972=LENGTH_MEASURE_WITH_UNIT(LENGTH_MEASURE(25.4),#970);
#973=(
NAMED_UNIT(*)
PLANE_ANGLE_UNIT()
SI_UNIT($,.RADIAN.)
);
#974=(
NAMED_UNIT(*)
SI_UNIT($,.STERADIAN.)
SOLID_ANGLE_UNIT()
);
#975=SHAPE_DEFINITION_REPRESENTATION(#976,#977);
#976=PRODUCT_DEFINITION_SHAPE('',$,#979);
#977=SHAPE_REPRESENTATION('',(#573),#965);
#978=PRODUCT_DEFINITION_CONTEXT('part definition',#983,'design');
#979=PRODUCT_DEFINITION('Back Plate Screw','Back Plate Screw',#980,#978);
#980=PRODUCT_DEFINITION_FORMATION('',$,#985);
#981=PRODUCT_RELATED_PRODUCT_CATEGORY('Back Plate Screw',
'Back Plate Screw',(#985));
#982=APPLICATION_PROTOCOL_DEFINITION('international standard',
'automotive_design',2009,#983);
#983=APPLICATION_CONTEXT(
'Core Data for Automotive Mechanical Design Process');
#984=PRODUCT_CONTEXT('part definition',#983,'mechanical');
#985=PRODUCT('Back Plate Screw','Back Plate Screw',$,(#984));
#986=PRESENTATION_STYLE_ASSIGNMENT((#988));
#987=PRESENTATION_STYLE_ASSIGNMENT((#989));
#988=SURFACE_STYLE_USAGE(.BOTH.,#994);
#989=SURFACE_STYLE_USAGE(.BOTH.,#995);
#990=SURFACE_STYLE_RENDERING_WITH_PROPERTIES($,#1002,(#992));
#991=SURFACE_STYLE_RENDERING_WITH_PROPERTIES($,#1003,(#993));
#992=SURFACE_STYLE_TRANSPARENT(0.);
#993=SURFACE_STYLE_TRANSPARENT(0.);
#994=SURFACE_SIDE_STYLE('',(#996,#990));
#995=SURFACE_SIDE_STYLE('',(#997,#991));
#996=SURFACE_STYLE_FILL_AREA(#998);
#997=SURFACE_STYLE_FILL_AREA(#999);
#998=FILL_AREA_STYLE('',(#1000));
#999=FILL_AREA_STYLE('',(#1001));
#1000=FILL_AREA_STYLE_COLOUR('',#1002);
#1001=FILL_AREA_STYLE_COLOUR('',#1003);
#1002=COLOUR_RGB('',0.749019607843137,0.749019607843137,0.749019607843137);
#1003=COLOUR_RGB('',0.780392156862745,0.925490196078431,0.435294117647059);
ENDSEC;
END-ISO-10303-21;
