ISO-10303-21;
HEADER;
/* Generated by software containing ST-Developer
 * from STEP Tools, Inc. (www.steptools.com) 
 */

FILE_DESCRIPTION(
/* description */ (''),
/* implementation_level */ '2;1');

FILE_NAME(
/* name */ 'bushing.stp',
/* time_stamp */ '2026-01-03T09:32:30-06:00',
/* author */ ('josh'),
/* organization */ (''),
/* preprocessor_version */ 'ST-DEVELOPER v20',
/* originating_system */ 'Autodesk Inventor 2025',
/* authorisation */ '');

FILE_SCHEMA (('AUTOMOTIVE_DESIGN { 1 0 10303 214 3 1 1 }'));
ENDSEC;

DATA;
#10=MECHANICAL_DESIGN_GEOMETRIC_PRESENTATION_REPRESENTATION('',(#13),#169);
#11=SHAPE_REPRESENTATION_RELATIONSHIP('SRR','None',#180,#12);
#12=ADVANCED_BREP_SHAPE_REPRESENTATION('',(#14),#168);
#13=STYLED_ITEM('',(#190),#14);
#14=MANIFOLD_SOLID_BREP('Solid3',#83);
#15=FACE_BOUND('',#33,.T.);
#16=FACE_BOUND('',#36,.T.);
#17=PLANE('',#112);
#18=PLANE('',#116);
#19=LINE('',#156,#21);
#20=LINE('',#164,#22);
#21=VECTOR('',#131,0.285433070866142);
#22=VECTOR('',#142,0.216535433070866);
#23=CYLINDRICAL_SURFACE('',#110,0.285433070866142);
#24=CYLINDRICAL_SURFACE('',#114,0.216535433070866);
#25=FACE_OUTER_BOUND('',#30,.T.);
#26=FACE_OUTER_BOUND('',#31,.T.);
#27=FACE_OUTER_BOUND('',#32,.T.);
#28=FACE_OUTER_BOUND('',#34,.T.);
#29=FACE_OUTER_BOUND('',#35,.T.);
#30=EDGE_LOOP('',(#59,#60,#61,#62,#63));
#31=EDGE_LOOP('',(#64,#65,#66,#67,#68));
#32=EDGE_LOOP('',(#69));
#33=EDGE_LOOP('',(#70));
#34=EDGE_LOOP('',(#71,#72,#73,#74));
#35=EDGE_LOOP('',(#75));
#36=EDGE_LOOP('',(#76));
#37=CIRCLE('',#106,0.285433070866142);
#38=CIRCLE('',#107,0.0393700787401575);
#39=CIRCLE('',#108,0.246062992125984);
#40=CIRCLE('',#109,0.285433070866142);
#41=CIRCLE('',#111,0.285433070866142);
#42=CIRCLE('',#113,0.216535433070866);
#43=CIRCLE('',#115,0.216535433070866);
#44=VERTEX_POINT('',#147);
#45=VERTEX_POINT('',#148);
#46=VERTEX_POINT('',#150);
#47=VERTEX_POINT('',#155);
#48=VERTEX_POINT('',#159);
#49=VERTEX_POINT('',#162);
#50=EDGE_CURVE('',#44,#45,#37,.T.);
#51=EDGE_CURVE('',#45,#46,#38,.T.);
#52=EDGE_CURVE('',#46,#46,#39,.T.);
#53=EDGE_CURVE('',#45,#44,#40,.T.);
#54=EDGE_CURVE('',#44,#47,#19,.T.);
#55=EDGE_CURVE('',#47,#47,#41,.T.);
#56=EDGE_CURVE('',#48,#48,#42,.T.);
#57=EDGE_CURVE('',#49,#49,#43,.T.);
#58=EDGE_CURVE('',#49,#48,#20,.T.);
#59=ORIENTED_EDGE('',*,*,#50,.T.);
#60=ORIENTED_EDGE('',*,*,#51,.T.);
#61=ORIENTED_EDGE('',*,*,#52,.T.);
#62=ORIENTED_EDGE('',*,*,#51,.F.);
#63=ORIENTED_EDGE('',*,*,#53,.T.);
#64=ORIENTED_EDGE('',*,*,#50,.F.);
#65=ORIENTED_EDGE('',*,*,#54,.T.);
#66=ORIENTED_EDGE('',*,*,#55,.T.);
#67=ORIENTED_EDGE('',*,*,#54,.F.);
#68=ORIENTED_EDGE('',*,*,#53,.F.);
#69=ORIENTED_EDGE('',*,*,#52,.F.);
#70=ORIENTED_EDGE('',*,*,#56,.F.);
#71=ORIENTED_EDGE('',*,*,#57,.F.);
#72=ORIENTED_EDGE('',*,*,#58,.T.);
#73=ORIENTED_EDGE('',*,*,#56,.T.);
#74=ORIENTED_EDGE('',*,*,#58,.F.);
#75=ORIENTED_EDGE('',*,*,#55,.F.);
#76=ORIENTED_EDGE('',*,*,#57,.T.);
#77=TOROIDAL_SURFACE('',#105,0.246062992125984,0.0393700787401575);
#78=ADVANCED_FACE('',(#25),#77,.T.);
#79=ADVANCED_FACE('',(#26),#23,.T.);
#80=ADVANCED_FACE('',(#27,#15),#17,.T.);
#81=ADVANCED_FACE('',(#28),#24,.F.);
#82=ADVANCED_FACE('',(#29,#16),#18,.T.);
#83=CLOSED_SHELL('',(#78,#79,#80,#81,#82));
#84=DERIVED_UNIT_ELEMENT(#86,1.);
#85=DERIVED_UNIT_ELEMENT(#174,-3.);
#86=(
CONVERSION_BASED_UNIT('gram',#88)
MASS_UNIT()
NAMED_UNIT(#171)
);
#87=(
MASS_UNIT()
NAMED_UNIT(*)
SI_UNIT(.KILO.,.GRAM.)
);
#88=MASS_MEASURE_WITH_UNIT(MASS_MEASURE(0.001),#87);
#89=DERIVED_UNIT((#84,#85));
#90=MEASURE_REPRESENTATION_ITEM('density measure',
POSITIVE_RATIO_MEASURE(1.),#89);
#91=PROPERTY_DEFINITION_REPRESENTATION(#96,#93);
#92=PROPERTY_DEFINITION_REPRESENTATION(#97,#94);
#93=REPRESENTATION('material name',(#95),#168);
#94=REPRESENTATION('density',(#90),#168);
#95=DESCRIPTIVE_REPRESENTATION_ITEM('Generic','Generic');
#96=PROPERTY_DEFINITION('material property','material name',#182);
#97=PROPERTY_DEFINITION('material property','density of part',#182);
#98=DATE_TIME_ROLE('creation_date');
#99=APPLIED_DATE_AND_TIME_ASSIGNMENT(#100,#98,(#182));
#100=DATE_AND_TIME(#101,#102);
#101=CALENDAR_DATE(2001,29,3);
#102=LOCAL_TIME(15,32,0.,#103);
#103=COORDINATED_UNIVERSAL_TIME_OFFSET(0,0,.BEHIND.);
#104=AXIS2_PLACEMENT_3D('',#145,#117,#118);
#105=AXIS2_PLACEMENT_3D('',#146,#119,#120);
#106=AXIS2_PLACEMENT_3D('',#149,#121,#122);
#107=AXIS2_PLACEMENT_3D('',#151,#123,#124);
#108=AXIS2_PLACEMENT_3D('',#152,#125,#126);
#109=AXIS2_PLACEMENT_3D('',#153,#127,#128);
#110=AXIS2_PLACEMENT_3D('',#154,#129,#130);
#111=AXIS2_PLACEMENT_3D('',#157,#132,#133);
#112=AXIS2_PLACEMENT_3D('',#158,#134,#135);
#113=AXIS2_PLACEMENT_3D('',#160,#136,#137);
#114=AXIS2_PLACEMENT_3D('',#161,#138,#139);
#115=AXIS2_PLACEMENT_3D('',#163,#140,#141);
#116=AXIS2_PLACEMENT_3D('',#165,#143,#144);
#117=DIRECTION('axis',(0.,0.,1.));
#118=DIRECTION('refdir',(1.,0.,0.));
#119=DIRECTION('center_axis',(1.07222978529254E-15,7.15520095438559E-32,
1.));
#120=DIRECTION('ref_axis',(1.,0.,-7.77921788289075E-16));
#121=DIRECTION('center_axis',(-1.07222978529254E-15,-7.15520095438559E-32,
-1.));
#122=DIRECTION('ref_axis',(-1.,9.86924269570435E-33,1.07222978529254E-15));
#123=DIRECTION('center_axis',(1.14850657719844E-16,-1.,-5.15942865237992E-32));
#124=DIRECTION('ref_axis',(-1.,-1.14850657719844E-16,1.225073682345E-15));
#125=DIRECTION('center_axis',(1.07222978529254E-15,7.15520095438559E-32,
1.));
#126=DIRECTION('ref_axis',(-1.,9.86924269570435E-33,1.07222978529254E-15));
#127=DIRECTION('center_axis',(-1.07222978529254E-15,-7.15520095438559E-32,
-1.));
#128=DIRECTION('ref_axis',(-1.,9.86924269570435E-33,1.07222978529254E-15));
#129=DIRECTION('center_axis',(0.,0.,-1.));
#130=DIRECTION('ref_axis',(-1.,0.,0.));
#131=DIRECTION('',(0.,0.,1.));
#132=DIRECTION('center_axis',(0.,0.,-1.));
#133=DIRECTION('ref_axis',(-1.,0.,0.));
#134=DIRECTION('center_axis',(-1.07222978529254E-15,-7.15520095438559E-32,
-1.));
#135=DIRECTION('ref_axis',(-1.,0.,1.07222978529254E-15));
#136=DIRECTION('center_axis',(-1.07222978529254E-15,-7.15520095438559E-32,
-1.));
#137=DIRECTION('ref_axis',(-1.,7.67201958304584E-47,1.07222978529254E-15));
#138=DIRECTION('center_axis',(0.,0.,-1.));
#139=DIRECTION('ref_axis',(-1.,0.,0.));
#140=DIRECTION('center_axis',(0.,0.,-1.));
#141=DIRECTION('ref_axis',(-1.,0.,0.));
#142=DIRECTION('',(0.,0.,-1.));
#143=DIRECTION('center_axis',(0.,0.,1.));
#144=DIRECTION('ref_axis',(1.,0.,0.));
#145=CARTESIAN_POINT('',(0.,0.,0.));
#146=CARTESIAN_POINT('Origin',(-1.74838271594513E-16,0.037580529706513,
-1.00393700787402));
#147=CARTESIAN_POINT('',(0.285433070866142,0.037580529706513,-1.00393700787402));
#148=CARTESIAN_POINT('',(-0.285433070866142,0.037580529706513,-1.00393700787402));
#149=CARTESIAN_POINT('Origin',(-1.74838271594513E-16,0.037580529706513,
-1.00393700787402));
#150=CARTESIAN_POINT('',(-0.246062992125985,0.037580529706513,-1.04330708661417));
#151=CARTESIAN_POINT('Origin',(-0.246062992125984,0.037580529706513,-1.00393700787402));
#152=CARTESIAN_POINT('Origin',(-2.17052042669022E-16,0.037580529706513,
-1.04330708661417));
#153=CARTESIAN_POINT('Origin',(-1.74838271594513E-16,0.037580529706513,
-1.00393700787402));
#154=CARTESIAN_POINT('Origin',(-1.74838271594513E-16,0.037580529706513,
0.));
#155=CARTESIAN_POINT('',(0.285433070866142,0.037580529706513,0.));
#156=CARTESIAN_POINT('',(0.285433070866142,0.037580529706513,0.));
#157=CARTESIAN_POINT('Origin',(-1.74838271594513E-16,0.037580529706513,
0.));
#158=CARTESIAN_POINT('Origin',(-1.74838271594513E-16,0.037580529706513,
-1.04330708661417));
#159=CARTESIAN_POINT('',(0.216535433070866,0.037580529706513,-1.04330708661417));
#160=CARTESIAN_POINT('Origin',(-1.74838271594513E-16,0.037580529706513,
-1.04330708661417));
#161=CARTESIAN_POINT('Origin',(-1.74838271594513E-16,0.037580529706513,
0.));
#162=CARTESIAN_POINT('',(0.216535433070866,0.037580529706513,0.));
#163=CARTESIAN_POINT('Origin',(-1.74838271594513E-16,0.037580529706513,
0.));
#164=CARTESIAN_POINT('',(0.216535433070866,0.037580529706513,0.));
#165=CARTESIAN_POINT('Origin',(0.0259484609878309,0.037580529706513,0.));
#166=UNCERTAINTY_MEASURE_WITH_UNIT(LENGTH_MEASURE(0.000393700787401575),
#172,'DISTANCE_ACCURACY_VALUE',
'Maximum model space distance between geometric entities at asserted c
onnectivities');
#167=UNCERTAINTY_MEASURE_WITH_UNIT(LENGTH_MEASURE(0.000393700787401575),
#172,'DISTANCE_ACCURACY_VALUE',
'Maximum model space distance between geometric entities at asserted c
onnectivities');
#168=(
GEOMETRIC_REPRESENTATION_CONTEXT(3)
GLOBAL_UNCERTAINTY_ASSIGNED_CONTEXT((#166))
GLOBAL_UNIT_ASSIGNED_CONTEXT((#172,#176,#177))
REPRESENTATION_CONTEXT('','3D')
);
#169=(
GEOMETRIC_REPRESENTATION_CONTEXT(3)
GLOBAL_UNCERTAINTY_ASSIGNED_CONTEXT((#167))
GLOBAL_UNIT_ASSIGNED_CONTEXT((#172,#176,#177))
REPRESENTATION_CONTEXT('','3D')
);
#170=DIMENSIONAL_EXPONENTS(1.,0.,0.,0.,0.,0.,0.);
#171=DIMENSIONAL_EXPONENTS(0.,1.,0.,0.,0.,0.,0.);
#172=(
CONVERSION_BASED_UNIT('inch',#175)
LENGTH_UNIT()
NAMED_UNIT(#170)
);
#173=(
LENGTH_UNIT()
NAMED_UNIT(*)
SI_UNIT(.MILLI.,.METRE.)
);
#174=(
LENGTH_UNIT()
NAMED_UNIT(*)
SI_UNIT(.CENTI.,.METRE.)
);
#175=LENGTH_MEASURE_WITH_UNIT(LENGTH_MEASURE(25.4),#173);
#176=(
NAMED_UNIT(*)
PLANE_ANGLE_UNIT()
SI_UNIT($,.RADIAN.)
);
#177=(
NAMED_UNIT(*)
SI_UNIT($,.STERADIAN.)
SOLID_ANGLE_UNIT()
);
#178=SHAPE_DEFINITION_REPRESENTATION(#179,#180);
#179=PRODUCT_DEFINITION_SHAPE('',$,#182);
#180=SHAPE_REPRESENTATION('',(#104),#168);
#181=PRODUCT_DEFINITION_CONTEXT('part definition',#186,'design');
#182=PRODUCT_DEFINITION('bushing','bushing',#183,#181);
#183=PRODUCT_DEFINITION_FORMATION('',$,#188);
#184=PRODUCT_RELATED_PRODUCT_CATEGORY('bushing','bushing',(#188));
#185=APPLICATION_PROTOCOL_DEFINITION('international standard',
'automotive_design',2009,#186);
#186=APPLICATION_CONTEXT(
'Core Data for Automotive Mechanical Design Process');
#187=PRODUCT_CONTEXT('part definition',#186,'mechanical');
#188=PRODUCT('bushing','bushing',$,(#187));
#189=PRESENTATION_STYLE_ASSIGNMENT((#191));
#190=PRESENTATION_STYLE_ASSIGNMENT((#192));
#191=SURFACE_STYLE_USAGE(.BOTH.,#197);
#192=SURFACE_STYLE_USAGE(.BOTH.,#198);
#193=SURFACE_STYLE_RENDERING_WITH_PROPERTIES($,#205,(#195));
#194=SURFACE_STYLE_RENDERING_WITH_PROPERTIES($,#206,(#196));
#195=SURFACE_STYLE_TRANSPARENT(0.);
#196=SURFACE_STYLE_TRANSPARENT(0.);
#197=SURFACE_SIDE_STYLE('',(#199,#193));
#198=SURFACE_SIDE_STYLE('',(#200,#194));
#199=SURFACE_STYLE_FILL_AREA(#201);
#200=SURFACE_STYLE_FILL_AREA(#202);
#201=FILL_AREA_STYLE('',(#203));
#202=FILL_AREA_STYLE('',(#204));
#203=FILL_AREA_STYLE_COLOUR('',#205);
#204=FILL_AREA_STYLE_COLOUR('',#206);
#205=COLOUR_RGB('',0.749019607843137,0.749019607843137,0.749019607843137);
#206=COLOUR_RGB('',0.780392156862745,0.568627450980392,0.113725490196078);
ENDSEC;
END-ISO-10303-21;
