ISO-10303-21;
HEADER;
/* Generated by software containing ST-Developer
 * from STEP Tools, Inc. (www.steptools.com) 
 */

FILE_DESCRIPTION(
/* description */ ('PROXIMITY SENSOR'),
/* implementation_level */ '2;1');

FILE_NAME(
/* name */ 'Cage Sensor.stp',
/* time_stamp */ '2026-01-03T09:33:22-06:00',
/* author */ ('josh'),
/* organization */ (''),
/* preprocessor_version */ 'ST-DEVELOPER v20',
/* originating_system */ 'Autodesk Inventor 2025',
/* authorisation */ '');

FILE_SCHEMA (('AUTOMOTIVE_DESIGN { 1 0 10303 214 3 1 1 }'));
ENDSEC;

DATA;
#10=MECHANICAL_DESIGN_GEOMETRIC_PRESENTATION_REPRESENTATION('',(#13),#947);
#11=SHAPE_REPRESENTATION_RELATIONSHIP('SRR','None',#958,#12);
#12=ADVANCED_BREP_SHAPE_REPRESENTATION('',(#14),#946);
#13=STYLED_ITEM('',(#968),#14);
#14=MANIFOLD_SOLID_BREP('Solid3',#543);
#15=FACE_BOUND('',#111,.T.);
#16=FACE_BOUND('',#114,.T.);
#17=FACE_BOUND('',#116,.T.);
#18=FACE_BOUND('',#117,.T.);
#19=FACE_BOUND('',#119,.T.);
#20=FACE_BOUND('',#121,.T.);
#21=FACE_BOUND('',#123,.T.);
#22=FACE_BOUND('',#125,.T.);
#23=FACE_BOUND('',#127,.T.);
#24=FACE_BOUND('',#133,.T.);
#25=CIRCLE('',#567,0.025);
#26=CIRCLE('',#568,0.025);
#27=CIRCLE('',#571,0.025);
#28=CIRCLE('',#572,0.025);
#29=CIRCLE('',#575,0.1875);
#30=CIRCLE('',#576,0.1875);
#31=CIRCLE('',#579,0.1875);
#32=CIRCLE('',#580,0.1875);
#33=CIRCLE('',#583,0.3155);
#34=CIRCLE('',#584,0.3155);
#35=CIRCLE('',#587,0.3155);
#36=CIRCLE('',#588,0.3155);
#37=CIRCLE('',#591,0.356);
#38=CIRCLE('',#592,0.356);
#39=CIRCLE('',#595,0.356);
#40=CIRCLE('',#596,0.356);
#41=CIRCLE('',#597,0.356);
#42=CIRCLE('',#600,0.137);
#43=CIRCLE('',#601,0.0575);
#44=CIRCLE('',#603,0.356);
#45=CIRCLE('',#604,0.137);
#46=CIRCLE('',#605,0.0575);
#47=CIRCLE('',#607,0.356);
#48=CIRCLE('',#609,0.356);
#49=CIRCLE('',#610,0.137);
#50=CIRCLE('',#611,0.0575);
#51=CIRCLE('',#613,0.137);
#52=CIRCLE('',#614,0.0575);
#53=CYLINDRICAL_SURFACE('',#566,0.025);
#54=CYLINDRICAL_SURFACE('',#570,0.025);
#55=CYLINDRICAL_SURFACE('',#574,0.1875);
#56=CYLINDRICAL_SURFACE('',#578,0.1875);
#57=CYLINDRICAL_SURFACE('',#582,0.3155);
#58=CYLINDRICAL_SURFACE('',#586,0.3155);
#59=CYLINDRICAL_SURFACE('',#594,0.356);
#60=CYLINDRICAL_SURFACE('',#615,0.0575);
#61=CYLINDRICAL_SURFACE('',#616,0.0575);
#62=CYLINDRICAL_SURFACE('',#617,0.137);
#63=CYLINDRICAL_SURFACE('',#619,0.356);
#64=CYLINDRICAL_SURFACE('',#622,0.137);
#65=FACE_OUTER_BOUND('',#97,.T.);
#66=FACE_OUTER_BOUND('',#98,.T.);
#67=FACE_OUTER_BOUND('',#99,.T.);
#68=FACE_OUTER_BOUND('',#100,.T.);
#69=FACE_OUTER_BOUND('',#101,.T.);
#70=FACE_OUTER_BOUND('',#102,.T.);
#71=FACE_OUTER_BOUND('',#103,.T.);
#72=FACE_OUTER_BOUND('',#104,.T.);
#73=FACE_OUTER_BOUND('',#105,.T.);
#74=FACE_OUTER_BOUND('',#106,.T.);
#75=FACE_OUTER_BOUND('',#107,.T.);
#76=FACE_OUTER_BOUND('',#108,.T.);
#77=FACE_OUTER_BOUND('',#109,.T.);
#78=FACE_OUTER_BOUND('',#110,.T.);
#79=FACE_OUTER_BOUND('',#112,.T.);
#80=FACE_OUTER_BOUND('',#113,.T.);
#81=FACE_OUTER_BOUND('',#115,.T.);
#82=FACE_OUTER_BOUND('',#118,.T.);
#83=FACE_OUTER_BOUND('',#120,.T.);
#84=FACE_OUTER_BOUND('',#122,.T.);
#85=FACE_OUTER_BOUND('',#124,.T.);
#86=FACE_OUTER_BOUND('',#126,.T.);
#87=FACE_OUTER_BOUND('',#128,.T.);
#88=FACE_OUTER_BOUND('',#129,.T.);
#89=FACE_OUTER_BOUND('',#130,.T.);
#90=FACE_OUTER_BOUND('',#131,.T.);
#91=FACE_OUTER_BOUND('',#132,.T.);
#92=FACE_OUTER_BOUND('',#134,.T.);
#93=FACE_OUTER_BOUND('',#135,.T.);
#94=FACE_OUTER_BOUND('',#136,.T.);
#95=FACE_OUTER_BOUND('',#137,.T.);
#96=FACE_OUTER_BOUND('',#138,.T.);
#97=EDGE_LOOP('',(#347,#348,#349,#350));
#98=EDGE_LOOP('',(#351,#352,#353,#354));
#99=EDGE_LOOP('',(#355,#356,#357,#358));
#100=EDGE_LOOP('',(#359,#360,#361,#362));
#101=EDGE_LOOP('',(#363,#364,#365,#366));
#102=EDGE_LOOP('',(#367,#368,#369,#370));
#103=EDGE_LOOP('',(#371));
#104=EDGE_LOOP('',(#372,#373,#374,#375));
#105=EDGE_LOOP('',(#376));
#106=EDGE_LOOP('',(#377,#378,#379,#380));
#107=EDGE_LOOP('',(#381,#382,#383,#384));
#108=EDGE_LOOP('',(#385,#386,#387,#388));
#109=EDGE_LOOP('',(#389,#390,#391,#392));
#110=EDGE_LOOP('',(#393,#394,#395,#396));
#111=EDGE_LOOP('',(#397,#398,#399,#400));
#112=EDGE_LOOP('',(#401,#402,#403,#404));
#113=EDGE_LOOP('',(#405,#406,#407,#408));
#114=EDGE_LOOP('',(#409,#410,#411,#412));
#115=EDGE_LOOP('',(#413,#414,#415,#416));
#116=EDGE_LOOP('',(#417));
#117=EDGE_LOOP('',(#418));
#118=EDGE_LOOP('',(#419,#420,#421,#422));
#119=EDGE_LOOP('',(#423));
#120=EDGE_LOOP('',(#424,#425,#426,#427));
#121=EDGE_LOOP('',(#428));
#122=EDGE_LOOP('',(#429,#430,#431,#432));
#123=EDGE_LOOP('',(#433,#434,#435,#436));
#124=EDGE_LOOP('',(#437,#438,#439,#440));
#125=EDGE_LOOP('',(#441));
#126=EDGE_LOOP('',(#442,#443,#444,#445));
#127=EDGE_LOOP('',(#446));
#128=EDGE_LOOP('',(#447,#448,#449,#450));
#129=EDGE_LOOP('',(#451,#452,#453,#454));
#130=EDGE_LOOP('',(#455,#456,#457,#458));
#131=EDGE_LOOP('',(#459,#460,#461,#462));
#132=EDGE_LOOP('',(#463,#464,#465,#466));
#133=EDGE_LOOP('',(#467,#468,#469,#470));
#134=EDGE_LOOP('',(#471,#472,#473,#474));
#135=EDGE_LOOP('',(#475,#476,#477,#478));
#136=EDGE_LOOP('',(#479,#480,#481,#482));
#137=EDGE_LOOP('',(#483,#484,#485,#486));
#138=EDGE_LOOP('',(#487,#488,#489,#490));
#139=LINE('',#795,#183);
#140=LINE('',#797,#184);
#141=LINE('',#799,#185);
#142=LINE('',#800,#186);
#143=LINE('',#806,#187);
#144=LINE('',#809,#188);
#145=LINE('',#811,#189);
#146=LINE('',#812,#190);
#147=LINE('',#821,#191);
#148=LINE('',#828,#192);
#149=LINE('',#836,#193);
#150=LINE('',#839,#194);
#151=LINE('',#842,#195);
#152=LINE('',#844,#196);
#153=LINE('',#845,#197);
#154=LINE('',#850,#198);
#155=LINE('',#853,#199);
#156=LINE('',#854,#200);
#157=LINE('',#860,#201);
#158=LINE('',#863,#202);
#159=LINE('',#866,#203);
#160=LINE('',#868,#204);
#161=LINE('',#869,#205);
#162=LINE('',#872,#206);
#163=LINE('',#878,#207);
#164=LINE('',#881,#208);
#165=LINE('',#885,#209);
#166=LINE('',#888,#210);
#167=LINE('',#896,#211);
#168=LINE('',#899,#212);
#169=LINE('',#904,#213);
#170=LINE('',#911,#214);
#171=LINE('',#914,#215);
#172=LINE('',#919,#216);
#173=LINE('',#922,#217);
#174=LINE('',#926,#218);
#175=LINE('',#928,#219);
#176=LINE('',#930,#220);
#177=LINE('',#931,#221);
#178=LINE('',#933,#222);
#179=LINE('',#935,#223);
#180=LINE('',#936,#224);
#181=LINE('',#939,#225);
#182=LINE('',#941,#226);
#183=VECTOR('',#629,0.393700787401575);
#184=VECTOR('',#630,0.393700787401575);
#185=VECTOR('',#631,0.393700787401575);
#186=VECTOR('',#632,0.393700787401575);
#187=VECTOR('',#639,0.393700787401575);
#188=VECTOR('',#642,0.393700787401575);
#189=VECTOR('',#643,0.393700787401575);
#190=VECTOR('',#644,0.393700787401575);
#191=VECTOR('',#657,0.1875);
#192=VECTOR('',#666,0.1875);
#193=VECTOR('',#675,0.393700787401575);
#194=VECTOR('',#678,0.393700787401575);
#195=VECTOR('',#681,0.393700787401575);
#196=VECTOR('',#682,0.393700787401575);
#197=VECTOR('',#683,0.393700787401575);
#198=VECTOR('',#688,0.393700787401575);
#199=VECTOR('',#693,0.393700787401575);
#200=VECTOR('',#694,0.393700787401575);
#201=VECTOR('',#699,0.393700787401575);
#202=VECTOR('',#702,0.393700787401575);
#203=VECTOR('',#705,0.393700787401575);
#204=VECTOR('',#706,0.393700787401575);
#205=VECTOR('',#707,0.393700787401575);
#206=VECTOR('',#710,0.393700787401575);
#207=VECTOR('',#715,0.393700787401575);
#208=VECTOR('',#718,0.393700787401575);
#209=VECTOR('',#723,0.393700787401575);
#210=VECTOR('',#726,0.393700787401575);
#211=VECTOR('',#733,0.393700787401575);
#212=VECTOR('',#736,0.393700787401575);
#213=VECTOR('',#741,0.393700787401575);
#214=VECTOR('',#748,0.393700787401575);
#215=VECTOR('',#751,0.393700787401575);
#216=VECTOR('',#756,0.393700787401575);
#217=VECTOR('',#759,0.393700787401575);
#218=VECTOR('',#764,0.0575);
#219=VECTOR('',#767,0.0575);
#220=VECTOR('',#770,0.393700787401575);
#221=VECTOR('',#771,0.393700787401575);
#222=VECTOR('',#774,0.393700787401575);
#223=VECTOR('',#777,0.393700787401575);
#224=VECTOR('',#778,0.393700787401575);
#225=VECTOR('',#783,0.393700787401575);
#226=VECTOR('',#786,0.393700787401575);
#227=VERTEX_POINT('',#793);
#228=VERTEX_POINT('',#794);
#229=VERTEX_POINT('',#796);
#230=VERTEX_POINT('',#798);
#231=VERTEX_POINT('',#802);
#232=VERTEX_POINT('',#804);
#233=VERTEX_POINT('',#808);
#234=VERTEX_POINT('',#810);
#235=VERTEX_POINT('',#818);
#236=VERTEX_POINT('',#820);
#237=VERTEX_POINT('',#825);
#238=VERTEX_POINT('',#827);
#239=VERTEX_POINT('',#832);
#240=VERTEX_POINT('',#833);
#241=VERTEX_POINT('',#835);
#242=VERTEX_POINT('',#837);
#243=VERTEX_POINT('',#841);
#244=VERTEX_POINT('',#843);
#245=VERTEX_POINT('',#847);
#246=VERTEX_POINT('',#849);
#247=VERTEX_POINT('',#856);
#248=VERTEX_POINT('',#857);
#249=VERTEX_POINT('',#859);
#250=VERTEX_POINT('',#861);
#251=VERTEX_POINT('',#865);
#252=VERTEX_POINT('',#867);
#253=VERTEX_POINT('',#871);
#254=VERTEX_POINT('',#874);
#255=VERTEX_POINT('',#875);
#256=VERTEX_POINT('',#877);
#257=VERTEX_POINT('',#879);
#258=VERTEX_POINT('',#884);
#259=VERTEX_POINT('',#886);
#260=VERTEX_POINT('',#889);
#261=VERTEX_POINT('',#892);
#262=VERTEX_POINT('',#893);
#263=VERTEX_POINT('',#895);
#264=VERTEX_POINT('',#897);
#265=VERTEX_POINT('',#900);
#266=VERTEX_POINT('',#903);
#267=VERTEX_POINT('',#907);
#268=VERTEX_POINT('',#908);
#269=VERTEX_POINT('',#910);
#270=VERTEX_POINT('',#912);
#271=VERTEX_POINT('',#915);
#272=VERTEX_POINT('',#918);
#273=VERTEX_POINT('',#920);
#274=VERTEX_POINT('',#923);
#275=EDGE_CURVE('',#227,#228,#139,.T.);
#276=EDGE_CURVE('',#227,#229,#140,.T.);
#277=EDGE_CURVE('',#230,#229,#141,.T.);
#278=EDGE_CURVE('',#228,#230,#142,.T.);
#279=EDGE_CURVE('',#228,#231,#25,.T.);
#280=EDGE_CURVE('',#232,#230,#26,.T.);
#281=EDGE_CURVE('',#231,#232,#143,.T.);
#282=EDGE_CURVE('',#231,#233,#144,.T.);
#283=EDGE_CURVE('',#234,#232,#145,.T.);
#284=EDGE_CURVE('',#233,#234,#146,.T.);
#285=EDGE_CURVE('',#233,#227,#27,.T.);
#286=EDGE_CURVE('',#229,#234,#28,.T.);
#287=EDGE_CURVE('',#235,#235,#29,.T.);
#288=EDGE_CURVE('',#235,#236,#147,.T.);
#289=EDGE_CURVE('',#236,#236,#30,.T.);
#290=EDGE_CURVE('',#237,#237,#31,.T.);
#291=EDGE_CURVE('',#237,#238,#148,.T.);
#292=EDGE_CURVE('',#238,#238,#32,.T.);
#293=EDGE_CURVE('',#239,#240,#33,.T.);
#294=EDGE_CURVE('',#239,#241,#149,.T.);
#295=EDGE_CURVE('',#241,#242,#34,.T.);
#296=EDGE_CURVE('',#240,#242,#150,.T.);
#297=EDGE_CURVE('',#243,#239,#151,.T.);
#298=EDGE_CURVE('',#243,#244,#152,.T.);
#299=EDGE_CURVE('',#244,#241,#153,.T.);
#300=EDGE_CURVE('',#245,#243,#35,.T.);
#301=EDGE_CURVE('',#245,#246,#154,.T.);
#302=EDGE_CURVE('',#246,#244,#36,.T.);
#303=EDGE_CURVE('',#240,#245,#155,.T.);
#304=EDGE_CURVE('',#242,#246,#156,.T.);
#305=EDGE_CURVE('',#247,#248,#37,.T.);
#306=EDGE_CURVE('',#249,#247,#157,.T.);
#307=EDGE_CURVE('',#250,#249,#38,.T.);
#308=EDGE_CURVE('',#248,#250,#158,.T.);
#309=EDGE_CURVE('',#250,#251,#159,.T.);
#310=EDGE_CURVE('',#252,#251,#160,.T.);
#311=EDGE_CURVE('',#248,#252,#161,.T.);
#312=EDGE_CURVE('',#249,#253,#162,.T.);
#313=EDGE_CURVE('',#251,#253,#39,.T.);
#314=EDGE_CURVE('',#254,#255,#40,.T.);
#315=EDGE_CURVE('',#254,#256,#163,.T.);
#316=EDGE_CURVE('',#257,#256,#41,.T.);
#317=EDGE_CURVE('',#255,#257,#164,.T.);
#318=EDGE_CURVE('',#255,#258,#165,.T.);
#319=EDGE_CURVE('',#258,#259,#42,.T.);
#320=EDGE_CURVE('',#259,#254,#166,.T.);
#321=EDGE_CURVE('',#260,#260,#43,.T.);
#322=EDGE_CURVE('',#261,#262,#44,.T.);
#323=EDGE_CURVE('',#262,#263,#167,.T.);
#324=EDGE_CURVE('',#263,#264,#45,.T.);
#325=EDGE_CURVE('',#264,#261,#168,.T.);
#326=EDGE_CURVE('',#265,#265,#46,.T.);
#327=EDGE_CURVE('',#253,#266,#169,.T.);
#328=EDGE_CURVE('',#266,#252,#47,.T.);
#329=EDGE_CURVE('',#267,#268,#48,.T.);
#330=EDGE_CURVE('',#268,#269,#170,.T.);
#331=EDGE_CURVE('',#269,#270,#49,.T.);
#332=EDGE_CURVE('',#270,#267,#171,.T.);
#333=EDGE_CURVE('',#271,#271,#50,.T.);
#334=EDGE_CURVE('',#256,#272,#172,.T.);
#335=EDGE_CURVE('',#272,#273,#51,.T.);
#336=EDGE_CURVE('',#273,#257,#173,.T.);
#337=EDGE_CURVE('',#274,#274,#52,.T.);
#338=EDGE_CURVE('',#271,#265,#174,.T.);
#339=EDGE_CURVE('',#274,#260,#175,.T.);
#340=EDGE_CURVE('',#270,#263,#176,.T.);
#341=EDGE_CURVE('',#264,#269,#177,.T.);
#342=EDGE_CURVE('',#261,#268,#178,.T.);
#343=EDGE_CURVE('',#247,#266,#179,.T.);
#344=EDGE_CURVE('',#262,#267,#180,.T.);
#345=EDGE_CURVE('',#258,#273,#181,.T.);
#346=EDGE_CURVE('',#259,#272,#182,.T.);
#347=ORIENTED_EDGE('',*,*,#275,.F.);
#348=ORIENTED_EDGE('',*,*,#276,.T.);
#349=ORIENTED_EDGE('',*,*,#277,.F.);
#350=ORIENTED_EDGE('',*,*,#278,.F.);
#351=ORIENTED_EDGE('',*,*,#279,.F.);
#352=ORIENTED_EDGE('',*,*,#278,.T.);
#353=ORIENTED_EDGE('',*,*,#280,.F.);
#354=ORIENTED_EDGE('',*,*,#281,.F.);
#355=ORIENTED_EDGE('',*,*,#282,.F.);
#356=ORIENTED_EDGE('',*,*,#281,.T.);
#357=ORIENTED_EDGE('',*,*,#283,.F.);
#358=ORIENTED_EDGE('',*,*,#284,.F.);
#359=ORIENTED_EDGE('',*,*,#285,.F.);
#360=ORIENTED_EDGE('',*,*,#284,.T.);
#361=ORIENTED_EDGE('',*,*,#286,.F.);
#362=ORIENTED_EDGE('',*,*,#276,.F.);
#363=ORIENTED_EDGE('',*,*,#286,.T.);
#364=ORIENTED_EDGE('',*,*,#283,.T.);
#365=ORIENTED_EDGE('',*,*,#280,.T.);
#366=ORIENTED_EDGE('',*,*,#277,.T.);
#367=ORIENTED_EDGE('',*,*,#287,.F.);
#368=ORIENTED_EDGE('',*,*,#288,.T.);
#369=ORIENTED_EDGE('',*,*,#289,.F.);
#370=ORIENTED_EDGE('',*,*,#288,.F.);
#371=ORIENTED_EDGE('',*,*,#287,.T.);
#372=ORIENTED_EDGE('',*,*,#290,.F.);
#373=ORIENTED_EDGE('',*,*,#291,.T.);
#374=ORIENTED_EDGE('',*,*,#292,.F.);
#375=ORIENTED_EDGE('',*,*,#291,.F.);
#376=ORIENTED_EDGE('',*,*,#290,.T.);
#377=ORIENTED_EDGE('',*,*,#293,.F.);
#378=ORIENTED_EDGE('',*,*,#294,.T.);
#379=ORIENTED_EDGE('',*,*,#295,.T.);
#380=ORIENTED_EDGE('',*,*,#296,.F.);
#381=ORIENTED_EDGE('',*,*,#297,.F.);
#382=ORIENTED_EDGE('',*,*,#298,.T.);
#383=ORIENTED_EDGE('',*,*,#299,.T.);
#384=ORIENTED_EDGE('',*,*,#294,.F.);
#385=ORIENTED_EDGE('',*,*,#300,.F.);
#386=ORIENTED_EDGE('',*,*,#301,.T.);
#387=ORIENTED_EDGE('',*,*,#302,.T.);
#388=ORIENTED_EDGE('',*,*,#298,.F.);
#389=ORIENTED_EDGE('',*,*,#303,.F.);
#390=ORIENTED_EDGE('',*,*,#296,.T.);
#391=ORIENTED_EDGE('',*,*,#304,.T.);
#392=ORIENTED_EDGE('',*,*,#301,.F.);
#393=ORIENTED_EDGE('',*,*,#305,.F.);
#394=ORIENTED_EDGE('',*,*,#306,.F.);
#395=ORIENTED_EDGE('',*,*,#307,.F.);
#396=ORIENTED_EDGE('',*,*,#308,.F.);
#397=ORIENTED_EDGE('',*,*,#304,.F.);
#398=ORIENTED_EDGE('',*,*,#295,.F.);
#399=ORIENTED_EDGE('',*,*,#299,.F.);
#400=ORIENTED_EDGE('',*,*,#302,.F.);
#401=ORIENTED_EDGE('',*,*,#308,.T.);
#402=ORIENTED_EDGE('',*,*,#309,.T.);
#403=ORIENTED_EDGE('',*,*,#310,.F.);
#404=ORIENTED_EDGE('',*,*,#311,.F.);
#405=ORIENTED_EDGE('',*,*,#307,.T.);
#406=ORIENTED_EDGE('',*,*,#312,.T.);
#407=ORIENTED_EDGE('',*,*,#313,.F.);
#408=ORIENTED_EDGE('',*,*,#309,.F.);
#409=ORIENTED_EDGE('',*,*,#314,.F.);
#410=ORIENTED_EDGE('',*,*,#315,.T.);
#411=ORIENTED_EDGE('',*,*,#316,.F.);
#412=ORIENTED_EDGE('',*,*,#317,.F.);
#413=ORIENTED_EDGE('',*,*,#293,.T.);
#414=ORIENTED_EDGE('',*,*,#303,.T.);
#415=ORIENTED_EDGE('',*,*,#300,.T.);
#416=ORIENTED_EDGE('',*,*,#297,.T.);
#417=ORIENTED_EDGE('',*,*,#289,.T.);
#418=ORIENTED_EDGE('',*,*,#292,.T.);
#419=ORIENTED_EDGE('',*,*,#314,.T.);
#420=ORIENTED_EDGE('',*,*,#318,.T.);
#421=ORIENTED_EDGE('',*,*,#319,.T.);
#422=ORIENTED_EDGE('',*,*,#320,.T.);
#423=ORIENTED_EDGE('',*,*,#321,.T.);
#424=ORIENTED_EDGE('',*,*,#322,.T.);
#425=ORIENTED_EDGE('',*,*,#323,.T.);
#426=ORIENTED_EDGE('',*,*,#324,.T.);
#427=ORIENTED_EDGE('',*,*,#325,.T.);
#428=ORIENTED_EDGE('',*,*,#326,.T.);
#429=ORIENTED_EDGE('',*,*,#310,.T.);
#430=ORIENTED_EDGE('',*,*,#313,.T.);
#431=ORIENTED_EDGE('',*,*,#327,.T.);
#432=ORIENTED_EDGE('',*,*,#328,.T.);
#433=ORIENTED_EDGE('',*,*,#275,.T.);
#434=ORIENTED_EDGE('',*,*,#279,.T.);
#435=ORIENTED_EDGE('',*,*,#282,.T.);
#436=ORIENTED_EDGE('',*,*,#285,.T.);
#437=ORIENTED_EDGE('',*,*,#329,.T.);
#438=ORIENTED_EDGE('',*,*,#330,.T.);
#439=ORIENTED_EDGE('',*,*,#331,.T.);
#440=ORIENTED_EDGE('',*,*,#332,.T.);
#441=ORIENTED_EDGE('',*,*,#333,.T.);
#442=ORIENTED_EDGE('',*,*,#316,.T.);
#443=ORIENTED_EDGE('',*,*,#334,.T.);
#444=ORIENTED_EDGE('',*,*,#335,.T.);
#445=ORIENTED_EDGE('',*,*,#336,.T.);
#446=ORIENTED_EDGE('',*,*,#337,.T.);
#447=ORIENTED_EDGE('',*,*,#333,.F.);
#448=ORIENTED_EDGE('',*,*,#338,.T.);
#449=ORIENTED_EDGE('',*,*,#326,.F.);
#450=ORIENTED_EDGE('',*,*,#338,.F.);
#451=ORIENTED_EDGE('',*,*,#337,.F.);
#452=ORIENTED_EDGE('',*,*,#339,.T.);
#453=ORIENTED_EDGE('',*,*,#321,.F.);
#454=ORIENTED_EDGE('',*,*,#339,.F.);
#455=ORIENTED_EDGE('',*,*,#340,.F.);
#456=ORIENTED_EDGE('',*,*,#331,.F.);
#457=ORIENTED_EDGE('',*,*,#341,.F.);
#458=ORIENTED_EDGE('',*,*,#324,.F.);
#459=ORIENTED_EDGE('',*,*,#341,.T.);
#460=ORIENTED_EDGE('',*,*,#330,.F.);
#461=ORIENTED_EDGE('',*,*,#342,.F.);
#462=ORIENTED_EDGE('',*,*,#325,.F.);
#463=ORIENTED_EDGE('',*,*,#305,.T.);
#464=ORIENTED_EDGE('',*,*,#311,.T.);
#465=ORIENTED_EDGE('',*,*,#328,.F.);
#466=ORIENTED_EDGE('',*,*,#343,.F.);
#467=ORIENTED_EDGE('',*,*,#342,.T.);
#468=ORIENTED_EDGE('',*,*,#329,.F.);
#469=ORIENTED_EDGE('',*,*,#344,.F.);
#470=ORIENTED_EDGE('',*,*,#322,.F.);
#471=ORIENTED_EDGE('',*,*,#306,.T.);
#472=ORIENTED_EDGE('',*,*,#343,.T.);
#473=ORIENTED_EDGE('',*,*,#327,.F.);
#474=ORIENTED_EDGE('',*,*,#312,.F.);
#475=ORIENTED_EDGE('',*,*,#317,.T.);
#476=ORIENTED_EDGE('',*,*,#336,.F.);
#477=ORIENTED_EDGE('',*,*,#345,.F.);
#478=ORIENTED_EDGE('',*,*,#318,.F.);
#479=ORIENTED_EDGE('',*,*,#345,.T.);
#480=ORIENTED_EDGE('',*,*,#335,.F.);
#481=ORIENTED_EDGE('',*,*,#346,.F.);
#482=ORIENTED_EDGE('',*,*,#319,.F.);
#483=ORIENTED_EDGE('',*,*,#346,.T.);
#484=ORIENTED_EDGE('',*,*,#334,.F.);
#485=ORIENTED_EDGE('',*,*,#315,.F.);
#486=ORIENTED_EDGE('',*,*,#320,.F.);
#487=ORIENTED_EDGE('',*,*,#344,.T.);
#488=ORIENTED_EDGE('',*,*,#332,.F.);
#489=ORIENTED_EDGE('',*,*,#340,.T.);
#490=ORIENTED_EDGE('',*,*,#323,.F.);
#491=PLANE('',#565);
#492=PLANE('',#569);
#493=PLANE('',#573);
#494=PLANE('',#577);
#495=PLANE('',#581);
#496=PLANE('',#585);
#497=PLANE('',#589);
#498=PLANE('',#590);
#499=PLANE('',#593);
#500=PLANE('',#598);
#501=PLANE('',#599);
#502=PLANE('',#602);
#503=PLANE('',#606);
#504=PLANE('',#608);
#505=PLANE('',#612);
#506=PLANE('',#618);
#507=PLANE('',#620);
#508=PLANE('',#621);
#509=PLANE('',#623);
#510=PLANE('',#624);
#511=ADVANCED_FACE('',(#65),#491,.T.);
#512=ADVANCED_FACE('',(#66),#53,.T.);
#513=ADVANCED_FACE('',(#67),#492,.T.);
#514=ADVANCED_FACE('',(#68),#54,.T.);
#515=ADVANCED_FACE('',(#69),#493,.T.);
#516=ADVANCED_FACE('',(#70),#55,.T.);
#517=ADVANCED_FACE('',(#71),#494,.T.);
#518=ADVANCED_FACE('',(#72),#56,.T.);
#519=ADVANCED_FACE('',(#73),#495,.T.);
#520=ADVANCED_FACE('',(#74),#57,.T.);
#521=ADVANCED_FACE('',(#75),#496,.F.);
#522=ADVANCED_FACE('',(#76),#58,.T.);
#523=ADVANCED_FACE('',(#77),#497,.F.);
#524=ADVANCED_FACE('',(#78,#15),#498,.T.);
#525=ADVANCED_FACE('',(#79),#499,.T.);
#526=ADVANCED_FACE('',(#80,#16),#59,.T.);
#527=ADVANCED_FACE('',(#81,#17,#18),#500,.T.);
#528=ADVANCED_FACE('',(#82,#19),#501,.F.);
#529=ADVANCED_FACE('',(#83,#20),#502,.F.);
#530=ADVANCED_FACE('',(#84,#21),#503,.T.);
#531=ADVANCED_FACE('',(#85,#22),#504,.T.);
#532=ADVANCED_FACE('',(#86,#23),#505,.T.);
#533=ADVANCED_FACE('',(#87),#60,.F.);
#534=ADVANCED_FACE('',(#88),#61,.F.);
#535=ADVANCED_FACE('',(#89),#62,.T.);
#536=ADVANCED_FACE('',(#90),#506,.T.);
#537=ADVANCED_FACE('',(#91,#24),#63,.T.);
#538=ADVANCED_FACE('',(#92),#507,.T.);
#539=ADVANCED_FACE('',(#93),#508,.T.);
#540=ADVANCED_FACE('',(#94),#64,.T.);
#541=ADVANCED_FACE('',(#95),#509,.T.);
#542=ADVANCED_FACE('',(#96),#510,.T.);
#543=CLOSED_SHELL('',(#511,#512,#513,#514,#515,#516,#517,#518,#519,#520,
#521,#522,#523,#524,#525,#526,#527,#528,#529,#530,#531,#532,#533,#534,#535,
#536,#537,#538,#539,#540,#541,#542));
#544=DERIVED_UNIT_ELEMENT(#546,1.);
#545=DERIVED_UNIT_ELEMENT(#952,-3.);
#546=(
CONVERSION_BASED_UNIT('gram',#548)
MASS_UNIT()
NAMED_UNIT(#949)
);
#547=(
MASS_UNIT()
NAMED_UNIT(*)
SI_UNIT(.KILO.,.GRAM.)
);
#548=MASS_MEASURE_WITH_UNIT(MASS_MEASURE(0.001),#547);
#549=DERIVED_UNIT((#544,#545));
#550=MEASURE_REPRESENTATION_ITEM('density measure',
POSITIVE_RATIO_MEASURE(7.85),#549);
#551=PROPERTY_DEFINITION_REPRESENTATION(#556,#553);
#552=PROPERTY_DEFINITION_REPRESENTATION(#557,#554);
#553=REPRESENTATION('material name',(#555),#946);
#554=REPRESENTATION('density',(#550),#946);
#555=DESCRIPTIVE_REPRESENTATION_ITEM('Steel, Mild','Steel, Mild');
#556=PROPERTY_DEFINITION('material property','material name',#960);
#557=PROPERTY_DEFINITION('material property','density of part',#960);
#558=DATE_TIME_ROLE('creation_date');
#559=APPLIED_DATE_AND_TIME_ASSIGNMENT(#560,#558,(#960));
#560=DATE_AND_TIME(#561,#562);
#561=CALENDAR_DATE(2025,10,10);
#562=LOCAL_TIME(0,0,0.,#563);
#563=COORDINATED_UNIVERSAL_TIME_OFFSET(0,0,.BEHIND.);
#564=AXIS2_PLACEMENT_3D('',#791,#625,#626);
#565=AXIS2_PLACEMENT_3D('',#792,#627,#628);
#566=AXIS2_PLACEMENT_3D('',#801,#633,#634);
#567=AXIS2_PLACEMENT_3D('',#803,#635,#636);
#568=AXIS2_PLACEMENT_3D('',#805,#637,#638);
#569=AXIS2_PLACEMENT_3D('',#807,#640,#641);
#570=AXIS2_PLACEMENT_3D('',#813,#645,#646);
#571=AXIS2_PLACEMENT_3D('',#814,#647,#648);
#572=AXIS2_PLACEMENT_3D('',#815,#649,#650);
#573=AXIS2_PLACEMENT_3D('',#816,#651,#652);
#574=AXIS2_PLACEMENT_3D('',#817,#653,#654);
#575=AXIS2_PLACEMENT_3D('',#819,#655,#656);
#576=AXIS2_PLACEMENT_3D('',#822,#658,#659);
#577=AXIS2_PLACEMENT_3D('',#823,#660,#661);
#578=AXIS2_PLACEMENT_3D('',#824,#662,#663);
#579=AXIS2_PLACEMENT_3D('',#826,#664,#665);
#580=AXIS2_PLACEMENT_3D('',#829,#667,#668);
#581=AXIS2_PLACEMENT_3D('',#830,#669,#670);
#582=AXIS2_PLACEMENT_3D('',#831,#671,#672);
#583=AXIS2_PLACEMENT_3D('',#834,#673,#674);
#584=AXIS2_PLACEMENT_3D('',#838,#676,#677);
#585=AXIS2_PLACEMENT_3D('',#840,#679,#680);
#586=AXIS2_PLACEMENT_3D('',#846,#684,#685);
#587=AXIS2_PLACEMENT_3D('',#848,#686,#687);
#588=AXIS2_PLACEMENT_3D('',#851,#689,#690);
#589=AXIS2_PLACEMENT_3D('',#852,#691,#692);
#590=AXIS2_PLACEMENT_3D('',#855,#695,#696);
#591=AXIS2_PLACEMENT_3D('',#858,#697,#698);
#592=AXIS2_PLACEMENT_3D('',#862,#700,#701);
#593=AXIS2_PLACEMENT_3D('',#864,#703,#704);
#594=AXIS2_PLACEMENT_3D('',#870,#708,#709);
#595=AXIS2_PLACEMENT_3D('',#873,#711,#712);
#596=AXIS2_PLACEMENT_3D('',#876,#713,#714);
#597=AXIS2_PLACEMENT_3D('',#880,#716,#717);
#598=AXIS2_PLACEMENT_3D('',#882,#719,#720);
#599=AXIS2_PLACEMENT_3D('',#883,#721,#722);
#600=AXIS2_PLACEMENT_3D('',#887,#724,#725);
#601=AXIS2_PLACEMENT_3D('',#890,#727,#728);
#602=AXIS2_PLACEMENT_3D('',#891,#729,#730);
#603=AXIS2_PLACEMENT_3D('',#894,#731,#732);
#604=AXIS2_PLACEMENT_3D('',#898,#734,#735);
#605=AXIS2_PLACEMENT_3D('',#901,#737,#738);
#606=AXIS2_PLACEMENT_3D('',#902,#739,#740);
#607=AXIS2_PLACEMENT_3D('',#905,#742,#743);
#608=AXIS2_PLACEMENT_3D('',#906,#744,#745);
#609=AXIS2_PLACEMENT_3D('',#909,#746,#747);
#610=AXIS2_PLACEMENT_3D('',#913,#749,#750);
#611=AXIS2_PLACEMENT_3D('',#916,#752,#753);
#612=AXIS2_PLACEMENT_3D('',#917,#754,#755);
#613=AXIS2_PLACEMENT_3D('',#921,#757,#758);
#614=AXIS2_PLACEMENT_3D('',#924,#760,#761);
#615=AXIS2_PLACEMENT_3D('',#925,#762,#763);
#616=AXIS2_PLACEMENT_3D('',#927,#765,#766);
#617=AXIS2_PLACEMENT_3D('',#929,#768,#769);
#618=AXIS2_PLACEMENT_3D('',#932,#772,#773);
#619=AXIS2_PLACEMENT_3D('',#934,#775,#776);
#620=AXIS2_PLACEMENT_3D('',#937,#779,#780);
#621=AXIS2_PLACEMENT_3D('',#938,#781,#782);
#622=AXIS2_PLACEMENT_3D('',#940,#784,#785);
#623=AXIS2_PLACEMENT_3D('',#942,#787,#788);
#624=AXIS2_PLACEMENT_3D('',#943,#789,#790);
#625=DIRECTION('axis',(0.,0.,1.));
#626=DIRECTION('refdir',(1.,0.,0.));
#627=DIRECTION('center_axis',(0.,1.,0.));
#628=DIRECTION('ref_axis',(-1.,0.,0.));
#629=DIRECTION('',(1.,0.,0.));
#630=DIRECTION('',(0.,0.,1.));
#631=DIRECTION('',(-1.,0.,0.));
#632=DIRECTION('',(0.,0.,1.));
#633=DIRECTION('center_axis',(0.,0.,1.));
#634=DIRECTION('ref_axis',(0.,-1.,0.));
#635=DIRECTION('center_axis',(0.,0.,-1.));
#636=DIRECTION('ref_axis',(0.,-1.,0.));
#637=DIRECTION('center_axis',(0.,0.,1.));
#638=DIRECTION('ref_axis',(0.,-1.,0.));
#639=DIRECTION('',(0.,0.,1.));
#640=DIRECTION('center_axis',(0.,-1.,0.));
#641=DIRECTION('ref_axis',(1.,0.,0.));
#642=DIRECTION('',(-1.,0.,0.));
#643=DIRECTION('',(1.,0.,0.));
#644=DIRECTION('',(0.,0.,1.));
#645=DIRECTION('center_axis',(0.,0.,1.));
#646=DIRECTION('ref_axis',(0.,1.,0.));
#647=DIRECTION('center_axis',(0.,0.,-1.));
#648=DIRECTION('ref_axis',(0.,1.,0.));
#649=DIRECTION('center_axis',(0.,0.,1.));
#650=DIRECTION('ref_axis',(0.,1.,0.));
#651=DIRECTION('center_axis',(0.,0.,1.));
#652=DIRECTION('ref_axis',(1.,0.,0.));
#653=DIRECTION('center_axis',(0.,0.,-1.));
#654=DIRECTION('ref_axis',(-1.,0.,0.));
#655=DIRECTION('center_axis',(0.,0.,-1.));
#656=DIRECTION('ref_axis',(-1.,0.,0.));
#657=DIRECTION('',(0.,0.,1.));
#658=DIRECTION('center_axis',(0.,0.,1.));
#659=DIRECTION('ref_axis',(-1.,0.,0.));
#660=DIRECTION('center_axis',(0.,0.,-1.));
#661=DIRECTION('ref_axis',(-1.,0.,0.));
#662=DIRECTION('center_axis',(0.,0.,-1.));
#663=DIRECTION('ref_axis',(-1.,0.,0.));
#664=DIRECTION('center_axis',(0.,0.,-1.));
#665=DIRECTION('ref_axis',(-1.,0.,0.));
#666=DIRECTION('',(0.,0.,1.));
#667=DIRECTION('center_axis',(0.,0.,1.));
#668=DIRECTION('ref_axis',(-1.,0.,0.));
#669=DIRECTION('center_axis',(0.,0.,-1.));
#670=DIRECTION('ref_axis',(-1.,0.,0.));
#671=DIRECTION('center_axis',(0.,0.,1.));
#672=DIRECTION('ref_axis',(0.,1.,0.));
#673=DIRECTION('center_axis',(0.,0.,-1.));
#674=DIRECTION('ref_axis',(0.,1.,0.));
#675=DIRECTION('',(0.,0.,1.));
#676=DIRECTION('center_axis',(0.,0.,-1.));
#677=DIRECTION('ref_axis',(0.,1.,0.));
#678=DIRECTION('',(0.,0.,1.));
#679=DIRECTION('center_axis',(0.,1.,0.));
#680=DIRECTION('ref_axis',(-1.,0.,0.));
#681=DIRECTION('',(-1.,0.,0.));
#682=DIRECTION('',(0.,0.,1.));
#683=DIRECTION('',(-1.,0.,0.));
#684=DIRECTION('center_axis',(0.,0.,1.));
#685=DIRECTION('ref_axis',(0.,-1.,0.));
#686=DIRECTION('center_axis',(0.,0.,-1.));
#687=DIRECTION('ref_axis',(0.,-1.,0.));
#688=DIRECTION('',(0.,0.,1.));
#689=DIRECTION('center_axis',(0.,0.,-1.));
#690=DIRECTION('ref_axis',(0.,-1.,0.));
#691=DIRECTION('center_axis',(0.,-1.,0.));
#692=DIRECTION('ref_axis',(1.,0.,0.));
#693=DIRECTION('',(1.,0.,0.));
#694=DIRECTION('',(1.,0.,0.));
#695=DIRECTION('center_axis',(0.,0.,-1.));
#696=DIRECTION('ref_axis',(-1.,0.,0.));
#697=DIRECTION('center_axis',(0.,0.,1.));
#698=DIRECTION('ref_axis',(2.45559370217012E-16,1.,0.));
#699=DIRECTION('',(-1.,0.,0.));
#700=DIRECTION('center_axis',(0.,0.,1.));
#701=DIRECTION('ref_axis',(0.,-1.,0.));
#702=DIRECTION('',(1.,0.,0.));
#703=DIRECTION('center_axis',(0.,-1.,0.));
#704=DIRECTION('ref_axis',(1.,0.,0.));
#705=DIRECTION('',(0.,0.,1.));
#706=DIRECTION('',(1.,0.,0.));
#707=DIRECTION('',(0.,0.,1.));
#708=DIRECTION('center_axis',(0.,0.,1.));
#709=DIRECTION('ref_axis',(0.,-1.,0.));
#710=DIRECTION('',(0.,0.,1.));
#711=DIRECTION('center_axis',(0.,0.,1.));
#712=DIRECTION('ref_axis',(0.,-1.,0.));
#713=DIRECTION('center_axis',(0.,0.,1.));
#714=DIRECTION('ref_axis',(-2.45559370217012E-16,1.,0.));
#715=DIRECTION('',(0.,0.,1.));
#716=DIRECTION('center_axis',(0.,0.,-1.));
#717=DIRECTION('ref_axis',(0.,-1.,0.));
#718=DIRECTION('',(0.,0.,1.));
#719=DIRECTION('center_axis',(0.,0.,-1.));
#720=DIRECTION('ref_axis',(-1.,0.,0.));
#721=DIRECTION('center_axis',(0.,0.,1.));
#722=DIRECTION('ref_axis',(1.,0.,0.));
#723=DIRECTION('',(0.89724537618672,-0.441532258064516,0.));
#724=DIRECTION('center_axis',(0.,0.,-1.));
#725=DIRECTION('ref_axis',(1.,0.,0.));
#726=DIRECTION('',(-0.897245376186721,-0.441532258064516,0.));
#727=DIRECTION('center_axis',(0.,0.,1.));
#728=DIRECTION('ref_axis',(-1.,0.,0.));
#729=DIRECTION('center_axis',(0.,0.,1.));
#730=DIRECTION('ref_axis',(1.,0.,0.));
#731=DIRECTION('center_axis',(0.,0.,1.));
#732=DIRECTION('ref_axis',(0.,-1.,0.));
#733=DIRECTION('',(-0.897245376186721,0.441532258064516,0.));
#734=DIRECTION('center_axis',(0.,0.,-1.));
#735=DIRECTION('ref_axis',(1.,0.,0.));
#736=DIRECTION('',(0.89724537618672,0.441532258064516,0.));
#737=DIRECTION('center_axis',(0.,0.,1.));
#738=DIRECTION('ref_axis',(-1.,0.,0.));
#739=DIRECTION('center_axis',(0.,0.,1.));
#740=DIRECTION('ref_axis',(1.,0.,0.));
#741=DIRECTION('',(-1.,0.,0.));
#742=DIRECTION('center_axis',(0.,0.,1.));
#743=DIRECTION('ref_axis',(2.45559370217012E-16,1.,0.));
#744=DIRECTION('center_axis',(0.,0.,1.));
#745=DIRECTION('ref_axis',(1.,0.,0.));
#746=DIRECTION('center_axis',(0.,0.,-1.));
#747=DIRECTION('ref_axis',(2.45559370217012E-16,1.,0.));
#748=DIRECTION('',(-0.89724537618672,-0.441532258064516,0.));
#749=DIRECTION('center_axis',(0.,0.,1.));
#750=DIRECTION('ref_axis',(1.,0.,0.));
#751=DIRECTION('',(0.897245376186721,-0.441532258064516,0.));
#752=DIRECTION('center_axis',(0.,0.,-1.));
#753=DIRECTION('ref_axis',(-1.,0.,0.));
#754=DIRECTION('center_axis',(0.,0.,1.));
#755=DIRECTION('ref_axis',(1.,0.,0.));
#756=DIRECTION('',(0.897245376186721,0.441532258064516,0.));
#757=DIRECTION('center_axis',(0.,0.,1.));
#758=DIRECTION('ref_axis',(1.,0.,0.));
#759=DIRECTION('',(-0.89724537618672,0.441532258064516,0.));
#760=DIRECTION('center_axis',(0.,0.,-1.));
#761=DIRECTION('ref_axis',(-1.,0.,0.));
#762=DIRECTION('center_axis',(0.,0.,1.));
#763=DIRECTION('ref_axis',(-1.,0.,0.));
#764=DIRECTION('',(0.,0.,-1.));
#765=DIRECTION('center_axis',(0.,0.,1.));
#766=DIRECTION('ref_axis',(-1.,0.,0.));
#767=DIRECTION('',(0.,0.,-1.));
#768=DIRECTION('center_axis',(0.,0.,1.));
#769=DIRECTION('ref_axis',(-1.,-1.22464679914735E-16,0.));
#770=DIRECTION('',(0.,0.,-1.));
#771=DIRECTION('',(0.,0.,1.));
#772=DIRECTION('center_axis',(-0.441532258064516,0.89724537618672,0.));
#773=DIRECTION('ref_axis',(-0.89724537618672,-0.441532258064516,0.));
#774=DIRECTION('',(0.,0.,1.));
#775=DIRECTION('center_axis',(0.,0.,1.));
#776=DIRECTION('ref_axis',(2.45559370217012E-16,1.,0.));
#777=DIRECTION('',(0.,0.,1.));
#778=DIRECTION('',(0.,0.,1.));
#779=DIRECTION('center_axis',(0.,1.,0.));
#780=DIRECTION('ref_axis',(-1.,0.,0.));
#781=DIRECTION('center_axis',(0.441532258064516,0.89724537618672,0.));
#782=DIRECTION('ref_axis',(-0.89724537618672,0.441532258064516,0.));
#783=DIRECTION('',(0.,0.,1.));
#784=DIRECTION('center_axis',(0.,0.,1.));
#785=DIRECTION('ref_axis',(1.,0.,0.));
#786=DIRECTION('',(0.,0.,1.));
#787=DIRECTION('center_axis',(0.441532258064516,-0.897245376186721,0.));
#788=DIRECTION('ref_axis',(0.897245376186721,0.441532258064516,0.));
#789=DIRECTION('center_axis',(-0.441532258064516,-0.897245376186721,0.));
#790=DIRECTION('ref_axis',(0.897245376186721,-0.441532258064516,0.));
#791=CARTESIAN_POINT('',(0.,0.,0.));
#792=CARTESIAN_POINT('Origin',(0.1,-0.296,0.4485));
#793=CARTESIAN_POINT('',(-0.1,-0.296,0.4485));
#794=CARTESIAN_POINT('',(0.1,-0.296,0.4485));
#795=CARTESIAN_POINT('',(0.05,-0.296,0.4485));
#796=CARTESIAN_POINT('',(-0.1,-0.296,1.9485));
#797=CARTESIAN_POINT('',(-0.1,-0.296,0.4485));
#798=CARTESIAN_POINT('',(0.1,-0.296,1.9485));
#799=CARTESIAN_POINT('',(0.1,-0.296,1.9485));
#800=CARTESIAN_POINT('',(0.1,-0.296,0.4485));
#801=CARTESIAN_POINT('Origin',(0.1,-0.321,0.4485));
#802=CARTESIAN_POINT('',(0.1,-0.346,0.4485));
#803=CARTESIAN_POINT('Origin',(0.1,-0.321,0.4485));
#804=CARTESIAN_POINT('',(0.1,-0.346,1.9485));
#805=CARTESIAN_POINT('Origin',(0.1,-0.321,1.9485));
#806=CARTESIAN_POINT('',(0.1,-0.346,0.4485));
#807=CARTESIAN_POINT('Origin',(-0.1,-0.346,0.4485));
#808=CARTESIAN_POINT('',(-0.1,-0.346,0.4485));
#809=CARTESIAN_POINT('',(-0.05,-0.346,0.4485));
#810=CARTESIAN_POINT('',(-0.1,-0.346,1.9485));
#811=CARTESIAN_POINT('',(-0.1,-0.346,1.9485));
#812=CARTESIAN_POINT('',(-0.1,-0.346,0.4485));
#813=CARTESIAN_POINT('Origin',(-0.1,-0.321,0.4485));
#814=CARTESIAN_POINT('Origin',(-0.1,-0.321,0.4485));
#815=CARTESIAN_POINT('Origin',(-0.1,-0.321,1.9485));
#816=CARTESIAN_POINT('Origin',(-2.18547839493141E-17,-0.321,1.9485));
#817=CARTESIAN_POINT('Origin',(0.292,0.,-0.436));
#818=CARTESIAN_POINT('',(0.4795,-2.29621274840129E-17,-0.446));
#819=CARTESIAN_POINT('Origin',(0.292,0.,-0.446));
#820=CARTESIAN_POINT('',(0.4795,-2.29621274840129E-17,-0.436));
#821=CARTESIAN_POINT('',(0.4795,-2.29621274840129E-17,-0.436));
#822=CARTESIAN_POINT('Origin',(0.292,0.,-0.436));
#823=CARTESIAN_POINT('Origin',(0.292,0.,-0.446));
#824=CARTESIAN_POINT('Origin',(-0.292,5.46369598732852E-18,-0.436));
#825=CARTESIAN_POINT('',(-0.1045,-1.74984314966843E-17,-0.446));
#826=CARTESIAN_POINT('Origin',(-0.292,5.46369598732852E-18,-0.446));
#827=CARTESIAN_POINT('',(-0.1045,-1.74984314966843E-17,-0.436));
#828=CARTESIAN_POINT('',(-0.1045,-1.74984314966843E-17,-0.436));
#829=CARTESIAN_POINT('Origin',(-0.292,5.46369598732852E-18,-0.436));
#830=CARTESIAN_POINT('Origin',(-0.292,0.,-0.446));
#831=CARTESIAN_POINT('Origin',(-0.292,5.46369598732852E-18,-0.436));
#832=CARTESIAN_POINT('',(-0.292,-0.3155,-0.436));
#833=CARTESIAN_POINT('',(-0.292,0.3155,-0.436));
#834=CARTESIAN_POINT('Origin',(-0.292,5.46369598732852E-18,-0.436));
#835=CARTESIAN_POINT('',(-0.292,-0.3155,-0.283));
#836=CARTESIAN_POINT('',(-0.292,-0.3155,-0.436));
#837=CARTESIAN_POINT('',(-0.292,0.3155,-0.283));
#838=CARTESIAN_POINT('Origin',(-0.292,5.46369598732852E-18,-0.283));
#839=CARTESIAN_POINT('',(-0.292,0.3155,-0.436));
#840=CARTESIAN_POINT('Origin',(0.292,-0.3155,-0.436));
#841=CARTESIAN_POINT('',(0.292,-0.3155,-0.436));
#842=CARTESIAN_POINT('',(0.146,-0.3155,-0.436));
#843=CARTESIAN_POINT('',(0.292,-0.3155,-0.283));
#844=CARTESIAN_POINT('',(0.292,-0.3155,-0.436));
#845=CARTESIAN_POINT('',(-0.292,-0.3155,-0.283));
#846=CARTESIAN_POINT('Origin',(0.292,0.,-0.436));
#847=CARTESIAN_POINT('',(0.292,0.3155,-0.436));
#848=CARTESIAN_POINT('Origin',(0.292,0.,-0.436));
#849=CARTESIAN_POINT('',(0.292,0.3155,-0.283));
#850=CARTESIAN_POINT('',(0.292,0.3155,-0.436));
#851=CARTESIAN_POINT('Origin',(0.292,0.,-0.283));
#852=CARTESIAN_POINT('Origin',(-0.292,0.3155,-0.436));
#853=CARTESIAN_POINT('',(-0.146,0.3155,-0.436));
#854=CARTESIAN_POINT('',(0.292,0.3155,-0.283));
#855=CARTESIAN_POINT('Origin',(0.,4.37095678986282E-17,-0.283));
#856=CARTESIAN_POINT('',(-0.292,0.356,-0.283));
#857=CARTESIAN_POINT('',(-0.292,-0.356,-0.283));
#858=CARTESIAN_POINT('Origin',(-0.292,5.46369598732852E-18,-0.283));
#859=CARTESIAN_POINT('',(0.292,0.356,-0.283));
#860=CARTESIAN_POINT('',(0.146,0.356,-0.283));
#861=CARTESIAN_POINT('',(0.292,-0.356,-0.283));
#862=CARTESIAN_POINT('Origin',(0.292,0.,-0.283));
#863=CARTESIAN_POINT('',(-0.146,-0.356,-0.283));
#864=CARTESIAN_POINT('Origin',(-0.292,-0.356,0.));
#865=CARTESIAN_POINT('',(0.292,-0.356,0.4485));
#866=CARTESIAN_POINT('',(0.292,-0.356,0.));
#867=CARTESIAN_POINT('',(-0.292,-0.356,0.4485));
#868=CARTESIAN_POINT('',(-0.292,-0.356,0.4485));
#869=CARTESIAN_POINT('',(-0.292,-0.356,0.));
#870=CARTESIAN_POINT('Origin',(0.292,0.,0.));
#871=CARTESIAN_POINT('',(0.292,0.356,0.4485));
#872=CARTESIAN_POINT('',(0.292,0.356,0.));
#873=CARTESIAN_POINT('Origin',(0.292,0.,0.4485));
#874=CARTESIAN_POINT('',(0.449185483870967,-0.319419353922473,-0.0385));
#875=CARTESIAN_POINT('',(0.449185483870968,0.319419353922472,-0.0385));
#876=CARTESIAN_POINT('Origin',(0.292,0.,-0.0385));
#877=CARTESIAN_POINT('',(0.449185483870967,-0.319419353922473,0.0385));
#878=CARTESIAN_POINT('',(0.449185483870967,-0.319419353922473,0.));
#879=CARTESIAN_POINT('',(0.449185483870968,0.319419353922472,0.0385));
#880=CARTESIAN_POINT('Origin',(0.292,0.,0.0385));
#881=CARTESIAN_POINT('',(0.449185483870968,0.319419353922472,0.));
#882=CARTESIAN_POINT('Origin',(0.,4.37095678986282E-17,-0.436));
#883=CARTESIAN_POINT('Origin',(0.,4.37095678986282E-17,-0.0385));
#884=CARTESIAN_POINT('',(0.848489919354839,0.122922616537581,-0.0385));
#885=CARTESIAN_POINT('',(0.848489919354839,0.122922616537581,-0.0385));
#886=CARTESIAN_POINT('',(0.848489919354839,-0.122922616537581,-0.0385));
#887=CARTESIAN_POINT('Origin',(0.788,-1.0927391974657E-16,-0.0385));
#888=CARTESIAN_POINT('',(0.449185483870967,-0.319419353922472,-0.0385));
#889=CARTESIAN_POINT('',(0.8455,-1.09273919746571E-16,-0.0385));
#890=CARTESIAN_POINT('Origin',(0.788,-1.0927391974657E-16,-0.0385));
#891=CARTESIAN_POINT('Origin',(0.,4.37095678986282E-17,-0.0385));
#892=CARTESIAN_POINT('',(-0.449185483870968,0.319419353922473,-0.0385));
#893=CARTESIAN_POINT('',(-0.449185483870967,-0.319419353922472,-0.0385));
#894=CARTESIAN_POINT('Origin',(-0.292,5.46369598732852E-18,-0.0385));
#895=CARTESIAN_POINT('',(-0.848489919354839,-0.122922616537581,-0.0385));
#896=CARTESIAN_POINT('',(-0.848489919354839,-0.122922616537581,-0.0385));
#897=CARTESIAN_POINT('',(-0.848489919354839,0.122922616537581,-0.0385));
#898=CARTESIAN_POINT('Origin',(-0.788,-1.0927391974657E-16,-0.0385));
#899=CARTESIAN_POINT('',(-0.449185483870968,0.319419353922473,-0.0385));
#900=CARTESIAN_POINT('',(-0.7305,-1.09273919746571E-16,-0.0385));
#901=CARTESIAN_POINT('Origin',(-0.788,-1.0927391974657E-16,-0.0385));
#902=CARTESIAN_POINT('Origin',(-4.37095678986282E-17,4.37095678986282E-17,
0.4485));
#903=CARTESIAN_POINT('',(-0.292,0.356,0.4485));
#904=CARTESIAN_POINT('',(0.292,0.356,0.4485));
#905=CARTESIAN_POINT('Origin',(-0.292,5.46369598732852E-18,0.4485));
#906=CARTESIAN_POINT('Origin',(0.,4.37095678986282E-17,0.0385));
#907=CARTESIAN_POINT('',(-0.449185483870967,-0.319419353922472,0.0385));
#908=CARTESIAN_POINT('',(-0.449185483870968,0.319419353922473,0.0385));
#909=CARTESIAN_POINT('Origin',(-0.292,5.46369598732852E-18,0.0385));
#910=CARTESIAN_POINT('',(-0.848489919354839,0.122922616537581,0.0385));
#911=CARTESIAN_POINT('',(-0.449185483870968,0.319419353922473,0.0385));
#912=CARTESIAN_POINT('',(-0.848489919354839,-0.122922616537581,0.0385));
#913=CARTESIAN_POINT('Origin',(-0.788,-1.0927391974657E-16,0.0385));
#914=CARTESIAN_POINT('',(-0.848489919354839,-0.122922616537581,0.0385));
#915=CARTESIAN_POINT('',(-0.7305,-1.09273919746571E-16,0.0385));
#916=CARTESIAN_POINT('Origin',(-0.788,-1.0927391974657E-16,0.0385));
#917=CARTESIAN_POINT('Origin',(0.,4.37095678986282E-17,0.0385));
#918=CARTESIAN_POINT('',(0.848489919354839,-0.122922616537581,0.0385));
#919=CARTESIAN_POINT('',(0.449185483870967,-0.319419353922472,0.0385));
#920=CARTESIAN_POINT('',(0.848489919354839,0.122922616537581,0.0385));
#921=CARTESIAN_POINT('Origin',(0.788,-1.0927391974657E-16,0.0385));
#922=CARTESIAN_POINT('',(0.848489919354839,0.122922616537581,0.0385));
#923=CARTESIAN_POINT('',(0.8455,-1.09273919746571E-16,0.0385));
#924=CARTESIAN_POINT('Origin',(0.788,-1.0927391974657E-16,0.0385));
#925=CARTESIAN_POINT('Origin',(-0.788,-1.0927391974657E-16,0.));
#926=CARTESIAN_POINT('',(-0.7305,-1.02232200651473E-16,0.));
#927=CARTESIAN_POINT('Origin',(0.788,-1.0927391974657E-16,0.));
#928=CARTESIAN_POINT('',(0.8455,-1.02232200651473E-16,0.));
#929=CARTESIAN_POINT('Origin',(-0.788,-1.0927391974657E-16,0.));
#930=CARTESIAN_POINT('',(-0.848489919354839,-0.122922616537581,0.));
#931=CARTESIAN_POINT('',(-0.848489919354839,0.122922616537581,0.));
#932=CARTESIAN_POINT('Origin',(-0.449185483870968,0.319419353922473,0.));
#933=CARTESIAN_POINT('',(-0.449185483870968,0.319419353922473,0.));
#934=CARTESIAN_POINT('Origin',(-0.292,5.46369598732852E-18,0.));
#935=CARTESIAN_POINT('',(-0.292,0.356,0.));
#936=CARTESIAN_POINT('',(-0.449185483870967,-0.319419353922472,0.));
#937=CARTESIAN_POINT('Origin',(0.292,0.356,0.));
#938=CARTESIAN_POINT('Origin',(0.848489919354839,0.122922616537581,0.));
#939=CARTESIAN_POINT('',(0.848489919354839,0.122922616537581,0.));
#940=CARTESIAN_POINT('Origin',(0.788,-1.0927391974657E-16,0.));
#941=CARTESIAN_POINT('',(0.848489919354839,-0.122922616537581,0.));
#942=CARTESIAN_POINT('Origin',(0.449185483870967,-0.319419353922472,0.));
#943=CARTESIAN_POINT('Origin',(-0.848489919354839,-0.122922616537581,0.));
#944=UNCERTAINTY_MEASURE_WITH_UNIT(LENGTH_MEASURE(0.000393700787401575),
#950,'DISTANCE_ACCURACY_VALUE',
'Maximum model space distance between geometric entities at asserted c
onnectivities');
#945=UNCERTAINTY_MEASURE_WITH_UNIT(LENGTH_MEASURE(0.000393700787401575),
#950,'DISTANCE_ACCURACY_VALUE',
'Maximum model space distance between geometric entities at asserted c
onnectivities');
#946=(
GEOMETRIC_REPRESENTATION_CONTEXT(3)
GLOBAL_UNCERTAINTY_ASSIGNED_CONTEXT((#944))
GLOBAL_UNIT_ASSIGNED_CONTEXT((#950,#954,#955))
REPRESENTATION_CONTEXT('','3D')
);
#947=(
GEOMETRIC_REPRESENTATION_CONTEXT(3)
GLOBAL_UNCERTAINTY_ASSIGNED_CONTEXT((#945))
GLOBAL_UNIT_ASSIGNED_CONTEXT((#950,#954,#955))
REPRESENTATION_CONTEXT('','3D')
);
#948=DIMENSIONAL_EXPONENTS(1.,0.,0.,0.,0.,0.,0.);
#949=DIMENSIONAL_EXPONENTS(0.,1.,0.,0.,0.,0.,0.);
#950=(
CONVERSION_BASED_UNIT('inch',#953)
LENGTH_UNIT()
NAMED_UNIT(#948)
);
#951=(
LENGTH_UNIT()
NAMED_UNIT(*)
SI_UNIT(.MILLI.,.METRE.)
);
#952=(
LENGTH_UNIT()
NAMED_UNIT(*)
SI_UNIT(.CENTI.,.METRE.)
);
#953=LENGTH_MEASURE_WITH_UNIT(LENGTH_MEASURE(25.4),#951);
#954=(
NAMED_UNIT(*)
PLANE_ANGLE_UNIT()
SI_UNIT($,.RADIAN.)
);
#955=(
NAMED_UNIT(*)
SI_UNIT($,.STERADIAN.)
SOLID_ANGLE_UNIT()
);
#956=SHAPE_DEFINITION_REPRESENTATION(#957,#958);
#957=PRODUCT_DEFINITION_SHAPE('',$,#960);
#958=SHAPE_REPRESENTATION('',(#564),#946);
#959=PRODUCT_DEFINITION_CONTEXT('part definition',#964,'design');
#960=PRODUCT_DEFINITION('Cage Sensor','Cage Sensor',#961,#959);
#961=PRODUCT_DEFINITION_FORMATION('',$,#966);
#962=PRODUCT_RELATED_PRODUCT_CATEGORY('Cage Sensor','Cage Sensor',(#966));
#963=APPLICATION_PROTOCOL_DEFINITION('international standard',
'automotive_design',2009,#964);
#964=APPLICATION_CONTEXT(
'Core Data for Automotive Mechanical Design Process');
#965=PRODUCT_CONTEXT('part definition',#964,'mechanical');
#966=PRODUCT('Cage Sensor','Cage Sensor','PROXIMITY SENSOR',(#965));
#967=PRESENTATION_STYLE_ASSIGNMENT((#969));
#968=PRESENTATION_STYLE_ASSIGNMENT((#970));
#969=SURFACE_STYLE_USAGE(.BOTH.,#975);
#970=SURFACE_STYLE_USAGE(.BOTH.,#976);
#971=SURFACE_STYLE_RENDERING_WITH_PROPERTIES($,#983,(#973));
#972=SURFACE_STYLE_RENDERING_WITH_PROPERTIES($,#984,(#974));
#973=SURFACE_STYLE_TRANSPARENT(0.);
#974=SURFACE_STYLE_TRANSPARENT(0.);
#975=SURFACE_SIDE_STYLE('',(#977,#971));
#976=SURFACE_SIDE_STYLE('',(#978,#972));
#977=SURFACE_STYLE_FILL_AREA(#979);
#978=SURFACE_STYLE_FILL_AREA(#980);
#979=FILL_AREA_STYLE('',(#981));
#980=FILL_AREA_STYLE('',(#982));
#981=FILL_AREA_STYLE_COLOUR('',#983);
#982=FILL_AREA_STYLE_COLOUR('',#984);
#983=COLOUR_RGB('',0.749019607843137,0.749019607843137,0.749019607843137);
#984=COLOUR_RGB('',0.,0.,0.);
ENDSEC;
END-ISO-10303-21;
