ISO-10303-21;
HEADER;
/* Generated by software containing ST-Developer
 * from STEP Tools, Inc. (www.steptools.com) 
 */

FILE_DESCRIPTION(
/* description */ (''),
/* implementation_level */ '2;1');

FILE_NAME(
/* name */ 'center adjust.stp',
/* time_stamp */ '2026-01-03T09:32:27-06:00',
/* author */ ('josh'),
/* organization */ (''),
/* preprocessor_version */ 'ST-DEVELOPER v20',
/* originating_system */ 'Autodesk Inventor 2025',
/* authorisation */ '');

FILE_SCHEMA (('AUTOMOTIVE_DESIGN { 1 0 10303 214 3 1 1 }'));
ENDSEC;

DATA;
#10=MECHANICAL_DESIGN_GEOMETRIC_PRESENTATION_REPRESENTATION('',(#13),#370);
#11=SHAPE_REPRESENTATION_RELATIONSHIP('SRR','None',#381,#12);
#12=ADVANCED_BREP_SHAPE_REPRESENTATION('',(#14),#369);
#13=STYLED_ITEM('',(#391),#14);
#14=MANIFOLD_SOLID_BREP('Solid3',#207);
#15=FACE_BOUND('',#48,.T.);
#16=CYLINDRICAL_SURFACE('',#238,0.15748031496063);
#17=CIRCLE('',#236,0.15748031496063);
#18=CIRCLE('',#237,0.127290846456693);
#19=CIRCLE('',#239,0.15748031496063);
#20=CIRCLE('',#241,0.0393700787401575);
#21=CONICAL_SURFACE('',#235,0.142385580708662,1.0471975511966);
#22=CONICAL_SURFACE('',#240,0.0984251968503937,0.785398163397505);
#23=CONICAL_SURFACE('',#243,0.0454724409448819,1.04719755119646);
#24=FACE_OUTER_BOUND('',#36,.T.);
#25=FACE_OUTER_BOUND('',#37,.T.);
#26=FACE_OUTER_BOUND('',#38,.T.);
#27=FACE_OUTER_BOUND('',#39,.T.);
#28=FACE_OUTER_BOUND('',#40,.T.);
#29=FACE_OUTER_BOUND('',#41,.T.);
#30=FACE_OUTER_BOUND('',#42,.T.);
#31=FACE_OUTER_BOUND('',#43,.T.);
#32=FACE_OUTER_BOUND('',#44,.T.);
#33=FACE_OUTER_BOUND('',#45,.T.);
#34=FACE_OUTER_BOUND('',#46,.T.);
#35=FACE_OUTER_BOUND('',#47,.T.);
#36=EDGE_LOOP('',(#133,#134,#135,#136));
#37=EDGE_LOOP('',(#137,#138,#139,#140,#141));
#38=EDGE_LOOP('',(#142,#143,#144,#145));
#39=EDGE_LOOP('',(#146,#147,#148,#149));
#40=EDGE_LOOP('',(#150,#151,#152,#153));
#41=EDGE_LOOP('',(#154,#155,#156,#157));
#42=EDGE_LOOP('',(#158,#159,#160,#161));
#43=EDGE_LOOP('',(#162,#163,#164,#165));
#44=EDGE_LOOP('',(#166,#167,#168,#169));
#45=EDGE_LOOP('',(#170));
#46=EDGE_LOOP('',(#171,#172,#173,#174,#175,#176,#177,#178,#179));
#47=EDGE_LOOP('',(#180));
#48=EDGE_LOOP('',(#181,#182,#183,#184,#185,#186));
#49=LINE('',#303,#65);
#50=LINE('',#305,#66);
#51=LINE('',#306,#67);
#52=LINE('',#314,#68);
#53=LINE('',#315,#69);
#54=LINE('',#325,#70);
#55=LINE('',#326,#71);
#56=LINE('',#333,#72);
#57=LINE('',#334,#73);
#58=LINE('',#341,#74);
#59=LINE('',#342,#75);
#60=LINE('',#347,#76);
#61=LINE('',#352,#77);
#62=LINE('',#357,#78);
#63=LINE('',#360,#79);
#64=LINE('',#365,#80);
#65=VECTOR('',#249,0.0393700787401575);
#66=VECTOR('',#250,0.0393700787401575);
#67=VECTOR('',#251,0.0393700787401575);
#68=VECTOR('',#254,0.0393700787401575);
#69=VECTOR('',#255,0.0393700787401575);
#70=VECTOR('',#258,0.0393700787401575);
#71=VECTOR('',#259,0.0393700787401575);
#72=VECTOR('',#262,0.0393700787401575);
#73=VECTOR('',#263,0.0393700787401575);
#74=VECTOR('',#266,0.0393700787401575);
#75=VECTOR('',#267,0.0393700787401575);
#76=VECTOR('',#270,0.0393700787401575);
#77=VECTOR('',#275,0.142385580708662);
#78=VECTOR('',#282,0.15748031496063);
#79=VECTOR('',#285,0.0984251968503937);
#80=VECTOR('',#292,0.0454724409448819);
#81=(
BOUNDED_CURVE()
B_SPLINE_CURVE(2,(#299,#300,#301),.UNSPECIFIED.,.F.,.F.)
B_SPLINE_CURVE_WITH_KNOTS((3,3),(0.,2.33747832381572),.UNSPECIFIED.)
CURVE()
GEOMETRIC_REPRESENTATION_ITEM()
RATIONAL_B_SPLINE_CURVE((1.,1.15470053837919,1.))
REPRESENTATION_ITEM('')
);
#82=(
BOUNDED_CURVE()
B_SPLINE_CURVE(2,(#310,#311,#312),.UNSPECIFIED.,.F.,.F.)
B_SPLINE_CURVE_WITH_KNOTS((3,3),(0.662107751198983,0.994000418143945),
 .UNSPECIFIED.)
CURVE()
GEOMETRIC_REPRESENTATION_ITEM()
RATIONAL_B_SPLINE_CURVE((2.60727832082281,2.80895200079072,2.80895200079072))
REPRESENTATION_ITEM('')
);
#83=(
BOUNDED_CURVE()
B_SPLINE_CURVE(2,(#316,#317,#318),.UNSPECIFIED.,.F.,.F.)
B_SPLINE_CURVE_WITH_KNOTS((3,3),(0.994000418143945,1.32589308508891),
 .UNSPECIFIED.)
CURVE()
GEOMETRIC_REPRESENTATION_ITEM()
RATIONAL_B_SPLINE_CURVE((2.80895200079072,2.80895200079072,2.60727832082281))
REPRESENTATION_ITEM('')
);
#84=(
BOUNDED_CURVE()
B_SPLINE_CURVE(2,(#321,#322,#323),.UNSPECIFIED.,.F.,.F.)
B_SPLINE_CURVE_WITH_KNOTS((3,3),(0.,2.33747832381573),.UNSPECIFIED.)
CURVE()
GEOMETRIC_REPRESENTATION_ITEM()
RATIONAL_B_SPLINE_CURVE((1.,1.15470053837919,1.))
REPRESENTATION_ITEM('')
);
#85=(
BOUNDED_CURVE()
B_SPLINE_CURVE(2,(#329,#330,#331),.UNSPECIFIED.,.F.,.F.)
B_SPLINE_CURVE_WITH_KNOTS((3,3),(0.,2.33747832381587),.UNSPECIFIED.)
CURVE()
GEOMETRIC_REPRESENTATION_ITEM()
RATIONAL_B_SPLINE_CURVE((1.,1.15470053837927,1.))
REPRESENTATION_ITEM('')
);
#86=(
BOUNDED_CURVE()
B_SPLINE_CURVE(2,(#337,#338,#339),.UNSPECIFIED.,.F.,.F.)
B_SPLINE_CURVE_WITH_KNOTS((3,3),(0.,2.33747832381585),.UNSPECIFIED.)
CURVE()
GEOMETRIC_REPRESENTATION_ITEM()
RATIONAL_B_SPLINE_CURVE((1.,1.15470053837938,1.))
REPRESENTATION_ITEM('')
);
#87=(
BOUNDED_CURVE()
B_SPLINE_CURVE(2,(#344,#345,#346),.UNSPECIFIED.,.F.,.F.)
B_SPLINE_CURVE_WITH_KNOTS((3,3),(0.,2.33747832381593),.UNSPECIFIED.)
CURVE()
GEOMETRIC_REPRESENTATION_ITEM()
RATIONAL_B_SPLINE_CURVE((1.,1.15470053837936,1.))
REPRESENTATION_ITEM('')
);
#88=VERTEX_POINT('',#297);
#89=VERTEX_POINT('',#298);
#90=VERTEX_POINT('',#302);
#91=VERTEX_POINT('',#304);
#92=VERTEX_POINT('',#308);
#93=VERTEX_POINT('',#309);
#94=VERTEX_POINT('',#313);
#95=VERTEX_POINT('',#320);
#96=VERTEX_POINT('',#324);
#97=VERTEX_POINT('',#328);
#98=VERTEX_POINT('',#332);
#99=VERTEX_POINT('',#336);
#100=VERTEX_POINT('',#340);
#101=VERTEX_POINT('',#349);
#102=VERTEX_POINT('',#351);
#103=VERTEX_POINT('',#355);
#104=VERTEX_POINT('',#359);
#105=VERTEX_POINT('',#364);
#106=EDGE_CURVE('',#88,#89,#81,.T.);
#107=EDGE_CURVE('',#88,#90,#49,.T.);
#108=EDGE_CURVE('',#91,#90,#50,.T.);
#109=EDGE_CURVE('',#89,#91,#51,.T.);
#110=EDGE_CURVE('',#92,#93,#82,.T.);
#111=EDGE_CURVE('',#92,#94,#52,.T.);
#112=EDGE_CURVE('',#90,#94,#53,.T.);
#113=EDGE_CURVE('',#93,#88,#83,.T.);
#114=EDGE_CURVE('',#95,#92,#84,.T.);
#115=EDGE_CURVE('',#95,#96,#54,.T.);
#116=EDGE_CURVE('',#94,#96,#55,.T.);
#117=EDGE_CURVE('',#97,#95,#85,.T.);
#118=EDGE_CURVE('',#98,#97,#56,.T.);
#119=EDGE_CURVE('',#96,#98,#57,.T.);
#120=EDGE_CURVE('',#89,#99,#86,.T.);
#121=EDGE_CURVE('',#100,#91,#58,.T.);
#122=EDGE_CURVE('',#99,#100,#59,.T.);
#123=EDGE_CURVE('',#99,#97,#87,.T.);
#124=EDGE_CURVE('',#98,#100,#60,.T.);
#125=EDGE_CURVE('',#101,#101,#17,.T.);
#126=EDGE_CURVE('',#101,#102,#61,.T.);
#127=EDGE_CURVE('',#102,#102,#18,.T.);
#128=EDGE_CURVE('',#103,#103,#19,.T.);
#129=EDGE_CURVE('',#103,#101,#62,.T.);
#130=EDGE_CURVE('',#103,#104,#63,.T.);
#131=EDGE_CURVE('',#104,#104,#20,.T.);
#132=EDGE_CURVE('',#105,#93,#64,.T.);
#133=ORIENTED_EDGE('',*,*,#106,.F.);
#134=ORIENTED_EDGE('',*,*,#107,.T.);
#135=ORIENTED_EDGE('',*,*,#108,.F.);
#136=ORIENTED_EDGE('',*,*,#109,.F.);
#137=ORIENTED_EDGE('',*,*,#110,.F.);
#138=ORIENTED_EDGE('',*,*,#111,.T.);
#139=ORIENTED_EDGE('',*,*,#112,.F.);
#140=ORIENTED_EDGE('',*,*,#107,.F.);
#141=ORIENTED_EDGE('',*,*,#113,.F.);
#142=ORIENTED_EDGE('',*,*,#114,.F.);
#143=ORIENTED_EDGE('',*,*,#115,.T.);
#144=ORIENTED_EDGE('',*,*,#116,.F.);
#145=ORIENTED_EDGE('',*,*,#111,.F.);
#146=ORIENTED_EDGE('',*,*,#117,.F.);
#147=ORIENTED_EDGE('',*,*,#118,.F.);
#148=ORIENTED_EDGE('',*,*,#119,.F.);
#149=ORIENTED_EDGE('',*,*,#115,.F.);
#150=ORIENTED_EDGE('',*,*,#120,.F.);
#151=ORIENTED_EDGE('',*,*,#109,.T.);
#152=ORIENTED_EDGE('',*,*,#121,.F.);
#153=ORIENTED_EDGE('',*,*,#122,.F.);
#154=ORIENTED_EDGE('',*,*,#123,.F.);
#155=ORIENTED_EDGE('',*,*,#122,.T.);
#156=ORIENTED_EDGE('',*,*,#124,.F.);
#157=ORIENTED_EDGE('',*,*,#118,.T.);
#158=ORIENTED_EDGE('',*,*,#125,.F.);
#159=ORIENTED_EDGE('',*,*,#126,.T.);
#160=ORIENTED_EDGE('',*,*,#127,.T.);
#161=ORIENTED_EDGE('',*,*,#126,.F.);
#162=ORIENTED_EDGE('',*,*,#128,.F.);
#163=ORIENTED_EDGE('',*,*,#129,.T.);
#164=ORIENTED_EDGE('',*,*,#125,.T.);
#165=ORIENTED_EDGE('',*,*,#129,.F.);
#166=ORIENTED_EDGE('',*,*,#128,.T.);
#167=ORIENTED_EDGE('',*,*,#130,.T.);
#168=ORIENTED_EDGE('',*,*,#131,.F.);
#169=ORIENTED_EDGE('',*,*,#130,.F.);
#170=ORIENTED_EDGE('',*,*,#131,.T.);
#171=ORIENTED_EDGE('',*,*,#132,.T.);
#172=ORIENTED_EDGE('',*,*,#113,.T.);
#173=ORIENTED_EDGE('',*,*,#106,.T.);
#174=ORIENTED_EDGE('',*,*,#120,.T.);
#175=ORIENTED_EDGE('',*,*,#123,.T.);
#176=ORIENTED_EDGE('',*,*,#117,.T.);
#177=ORIENTED_EDGE('',*,*,#114,.T.);
#178=ORIENTED_EDGE('',*,*,#110,.T.);
#179=ORIENTED_EDGE('',*,*,#132,.F.);
#180=ORIENTED_EDGE('',*,*,#127,.F.);
#181=ORIENTED_EDGE('',*,*,#112,.T.);
#182=ORIENTED_EDGE('',*,*,#116,.T.);
#183=ORIENTED_EDGE('',*,*,#119,.T.);
#184=ORIENTED_EDGE('',*,*,#124,.T.);
#185=ORIENTED_EDGE('',*,*,#121,.T.);
#186=ORIENTED_EDGE('',*,*,#108,.T.);
#187=PLANE('',#229);
#188=PLANE('',#230);
#189=PLANE('',#231);
#190=PLANE('',#232);
#191=PLANE('',#233);
#192=PLANE('',#234);
#193=PLANE('',#242);
#194=PLANE('',#244);
#195=ADVANCED_FACE('',(#24),#187,.F.);
#196=ADVANCED_FACE('',(#25),#188,.F.);
#197=ADVANCED_FACE('',(#26),#189,.F.);
#198=ADVANCED_FACE('',(#27),#190,.F.);
#199=ADVANCED_FACE('',(#28),#191,.F.);
#200=ADVANCED_FACE('',(#29),#192,.F.);
#201=ADVANCED_FACE('',(#30),#21,.T.);
#202=ADVANCED_FACE('',(#31),#16,.T.);
#203=ADVANCED_FACE('',(#32),#22,.T.);
#204=ADVANCED_FACE('',(#33),#193,.T.);
#205=ADVANCED_FACE('',(#34),#23,.F.);
#206=ADVANCED_FACE('',(#35,#15),#194,.T.);
#207=CLOSED_SHELL('',(#195,#196,#197,#198,#199,#200,#201,#202,#203,#204,
#205,#206));
#208=DERIVED_UNIT_ELEMENT(#210,1.);
#209=DERIVED_UNIT_ELEMENT(#375,-3.);
#210=(
CONVERSION_BASED_UNIT('gram',#212)
MASS_UNIT()
NAMED_UNIT(#372)
);
#211=(
MASS_UNIT()
NAMED_UNIT(*)
SI_UNIT(.KILO.,.GRAM.)
);
#212=MASS_MEASURE_WITH_UNIT(MASS_MEASURE(0.001),#211);
#213=DERIVED_UNIT((#208,#209));
#214=MEASURE_REPRESENTATION_ITEM('density measure',
POSITIVE_RATIO_MEASURE(1.),#213);
#215=PROPERTY_DEFINITION_REPRESENTATION(#220,#217);
#216=PROPERTY_DEFINITION_REPRESENTATION(#221,#218);
#217=REPRESENTATION('material name',(#219),#369);
#218=REPRESENTATION('density',(#214),#369);
#219=DESCRIPTIVE_REPRESENTATION_ITEM('Generic','Generic');
#220=PROPERTY_DEFINITION('material property','material name',#383);
#221=PROPERTY_DEFINITION('material property','density of part',#383);
#222=DATE_TIME_ROLE('creation_date');
#223=APPLIED_DATE_AND_TIME_ASSIGNMENT(#224,#222,(#383));
#224=DATE_AND_TIME(#225,#226);
#225=CALENDAR_DATE(2001,28,3);
#226=LOCAL_TIME(11,39,24.,#227);
#227=COORDINATED_UNIVERSAL_TIME_OFFSET(0,0,.BEHIND.);
#228=AXIS2_PLACEMENT_3D('',#295,#245,#246);
#229=AXIS2_PLACEMENT_3D('',#296,#247,#248);
#230=AXIS2_PLACEMENT_3D('',#307,#252,#253);
#231=AXIS2_PLACEMENT_3D('',#319,#256,#257);
#232=AXIS2_PLACEMENT_3D('',#327,#260,#261);
#233=AXIS2_PLACEMENT_3D('',#335,#264,#265);
#234=AXIS2_PLACEMENT_3D('',#343,#268,#269);
#235=AXIS2_PLACEMENT_3D('',#348,#271,#272);
#236=AXIS2_PLACEMENT_3D('',#350,#273,#274);
#237=AXIS2_PLACEMENT_3D('',#353,#276,#277);
#238=AXIS2_PLACEMENT_3D('',#354,#278,#279);
#239=AXIS2_PLACEMENT_3D('',#356,#280,#281);
#240=AXIS2_PLACEMENT_3D('',#358,#283,#284);
#241=AXIS2_PLACEMENT_3D('',#361,#286,#287);
#242=AXIS2_PLACEMENT_3D('',#362,#288,#289);
#243=AXIS2_PLACEMENT_3D('',#363,#290,#291);
#244=AXIS2_PLACEMENT_3D('',#366,#293,#294);
#245=DIRECTION('axis',(0.,0.,1.));
#246=DIRECTION('refdir',(1.,0.,0.));
#247=DIRECTION('center_axis',(0.,0.499999999999998,0.86602540378444));
#248=DIRECTION('ref_axis',(1.,0.,0.));
#249=DIRECTION('',(1.,0.,0.));
#250=DIRECTION('',(0.,0.86602540378444,-0.499999999999998));
#251=DIRECTION('',(1.,0.,0.));
#252=DIRECTION('center_axis',(0.,1.,0.));
#253=DIRECTION('ref_axis',(0.,0.,1.));
#254=DIRECTION('',(1.,0.,0.));
#255=DIRECTION('',(0.,0.,-1.));
#256=DIRECTION('center_axis',(0.,0.499999999999999,-0.866025403784439));
#257=DIRECTION('ref_axis',(-1.,0.,0.));
#258=DIRECTION('',(1.,0.,0.));
#259=DIRECTION('',(0.,-0.866025403784439,-0.499999999999999));
#260=DIRECTION('center_axis',(0.,-0.500000000000001,-0.866025403784438));
#261=DIRECTION('ref_axis',(-1.,0.,0.));
#262=DIRECTION('',(-1.,0.,0.));
#263=DIRECTION('',(0.,-0.866025403784438,0.500000000000001));
#264=DIRECTION('center_axis',(0.,-0.500000000000001,0.866025403784438));
#265=DIRECTION('ref_axis',(1.,0.,0.));
#266=DIRECTION('',(0.,0.866025403784438,0.500000000000001));
#267=DIRECTION('',(1.,0.,0.));
#268=DIRECTION('center_axis',(0.,-1.,0.));
#269=DIRECTION('ref_axis',(0.,0.,-1.));
#270=DIRECTION('',(0.,0.,1.));
#271=DIRECTION('center_axis',(-1.,0.,0.));
#272=DIRECTION('ref_axis',(0.,-1.,0.));
#273=DIRECTION('center_axis',(-1.,0.,0.));
#274=DIRECTION('ref_axis',(0.,-1.,0.));
#275=DIRECTION('',(0.499999999999998,-0.86602540378444,1.06057523872491E-16));
#276=DIRECTION('center_axis',(-1.,0.,0.));
#277=DIRECTION('ref_axis',(0.,-1.,0.));
#278=DIRECTION('center_axis',(-1.,0.,0.));
#279=DIRECTION('ref_axis',(0.,-1.,0.));
#280=DIRECTION('center_axis',(-1.,0.,0.));
#281=DIRECTION('ref_axis',(0.,-1.,0.));
#282=DIRECTION('',(1.,0.,0.));
#283=DIRECTION('center_axis',(1.,0.,0.));
#284=DIRECTION('ref_axis',(0.,-1.,0.));
#285=DIRECTION('',(-0.707106781186507,-0.707106781186588,-8.65956056235543E-17));
#286=DIRECTION('center_axis',(-1.,0.,0.));
#287=DIRECTION('ref_axis',(0.,-1.,0.));
#288=DIRECTION('center_axis',(-1.,0.,0.));
#289=DIRECTION('ref_axis',(0.,0.,1.));
#290=DIRECTION('center_axis',(1.,0.,0.));
#291=DIRECTION('ref_axis',(0.,-1.,0.));
#292=DIRECTION('',(0.500000000000119,0.86602540378437,1.06057523872482E-16));
#293=DIRECTION('center_axis',(1.,0.,0.));
#294=DIRECTION('ref_axis',(0.,0.,-1.));
#295=CARTESIAN_POINT('',(0.,0.,0.));
#296=CARTESIAN_POINT('Origin',(0.236220472440945,0.0787605780607146,0.0454724409448827));
#297=CARTESIAN_POINT('',(0.118110236220474,0.0787605780607146,0.0454724409448827));
#298=CARTESIAN_POINT('',(0.118110236220473,5.59482469102441E-16,0.0909448818897653));
#299=CARTESIAN_POINT('Ctrl Pts',(0.118110236220472,0.0787605780607102,0.0454724409448858));
#300=CARTESIAN_POINT('Ctrl Pts',(0.104983473210351,0.0393802890303575,0.0682086614173252));
#301=CARTESIAN_POINT('Ctrl Pts',(0.118110236220472,3.91637728371709E-15,
0.0909448818897646));
#302=CARTESIAN_POINT('',(0.236220472440945,0.0787605780607146,0.0454724409448827));
#303=CARTESIAN_POINT('',(0.177165354330709,0.0787605780607146,0.045472440944876));
#304=CARTESIAN_POINT('',(0.236220472440945,2.23792987640976E-15,0.0909448818897653));
#305=CARTESIAN_POINT('',(0.236220472440945,0.0590704335455362,0.0568405511811035));
#306=CARTESIAN_POINT('',(0.177165354330709,5.59482469102441E-15,0.0909448818897638));
#307=CARTESIAN_POINT('Origin',(0.236220472440945,0.0787605780607146,-0.0454724409448827));
#308=CARTESIAN_POINT('',(0.118110236220474,0.0787605780607146,-0.0454724409448827));
#309=CARTESIAN_POINT('',(0.11107562512488,0.0787605780607145,8.71289694790502E-18));
#310=CARTESIAN_POINT('Ctrl Pts',(0.118110236220474,0.0787605780607145,-0.0454724409448827));
#311=CARTESIAN_POINT('Ctrl Pts',(0.11107562512488,0.0787605780607145,-0.0211038332867763));
#312=CARTESIAN_POINT('Ctrl Pts',(0.11107562512488,0.0787605780607145,7.78040491370518E-18));
#313=CARTESIAN_POINT('',(0.236220472440945,0.0787605780607146,-0.0454724409448827));
#314=CARTESIAN_POINT('',(0.177165354330709,0.0787605780607091,-0.0454724409448862));
#315=CARTESIAN_POINT('',(0.236220472440945,0.0787605780607146,-0.0227362204724414));
#316=CARTESIAN_POINT('Ctrl Pts',(0.11107562512488,0.0787605780607145,7.78040491370518E-18));
#317=CARTESIAN_POINT('Ctrl Pts',(0.11107562512488,0.0787605780607145,0.0211038332867762));
#318=CARTESIAN_POINT('Ctrl Pts',(0.118110236220474,0.0787605780607145,0.0454724409448825));
#319=CARTESIAN_POINT('Origin',(0.236220472440945,2.23792987640976E-15,-0.0909448818897653));
#320=CARTESIAN_POINT('',(0.118110236220473,5.59482469102441E-16,-0.0909448818897653));
#321=CARTESIAN_POINT('Ctrl Pts',(0.118110236220472,3.91637728371709E-15,
-0.0909448818897646));
#322=CARTESIAN_POINT('Ctrl Pts',(0.104983473210351,0.0393802890303575,-0.0682086614173248));
#323=CARTESIAN_POINT('Ctrl Pts',(0.118110236220472,0.0787605780607102,-0.0454724409448854));
#324=CARTESIAN_POINT('',(0.236220472440945,2.23792987640976E-15,-0.0909448818897653));
#325=CARTESIAN_POINT('',(0.177165354330709,0.,-0.0909448818897638));
#326=CARTESIAN_POINT('',(0.236220472440945,0.0196901445151798,-0.0795767716535449));
#327=CARTESIAN_POINT('Origin',(0.236220472440945,-0.0787605780607098,-0.0454724409448827));
#328=CARTESIAN_POINT('',(0.118110236220472,-0.0787605780607098,-0.0454724409448827));
#329=CARTESIAN_POINT('Ctrl Pts',(0.118110236220472,-0.0787605780607102,
-0.0454724409448827));
#330=CARTESIAN_POINT('Ctrl Pts',(0.10498347321035,-0.0393802890303551,-0.0682086614173236));
#331=CARTESIAN_POINT('Ctrl Pts',(0.118110236220472,5.59482469102441E-16,
-0.0909448818897646));
#332=CARTESIAN_POINT('',(0.236220472440945,-0.0787605780607098,-0.0454724409448827));
#333=CARTESIAN_POINT('',(0.177165354330709,-0.0787605780607102,-0.0454724409448823));
#334=CARTESIAN_POINT('',(0.236220472440945,-0.0590704335455323,-0.0568405511811035));
#335=CARTESIAN_POINT('Origin',(0.236220472440945,2.23792987640976E-15,0.0909448818897653));
#336=CARTESIAN_POINT('',(0.118110236220472,-0.0787605780607098,0.0454724409448827));
#337=CARTESIAN_POINT('Ctrl Pts',(0.118110236220472,-5.59482469102441E-16,
0.0909448818897642));
#338=CARTESIAN_POINT('Ctrl Pts',(0.10498347321035,-0.0393802890303555,0.0682086614173232));
#339=CARTESIAN_POINT('Ctrl Pts',(0.118110236220472,-0.0787605780607106,
0.0454724409448823));
#340=CARTESIAN_POINT('',(0.236220472440945,-0.0787605780607098,0.0454724409448827));
#341=CARTESIAN_POINT('',(0.236220472440945,-0.0196901445151759,0.0795767716535445));
#342=CARTESIAN_POINT('',(0.177165354330709,-0.0787605780607102,0.0454724409448823));
#343=CARTESIAN_POINT('Origin',(0.236220472440945,-0.0787605780607098,0.0454724409448827));
#344=CARTESIAN_POINT('Ctrl Pts',(0.118110236220472,-0.0787605780607098,
0.0454724409448831));
#345=CARTESIAN_POINT('Ctrl Pts',(0.104983473210349,-0.0787605780607099,
0.));
#346=CARTESIAN_POINT('Ctrl Pts',(0.118110236220472,-0.0787605780607098,
-0.0454724409448831));
#347=CARTESIAN_POINT('',(0.236220472440945,-0.0787605780607102,0.0227362204724412));
#348=CARTESIAN_POINT('Origin',(0.227505523557225,5.59482469102441E-16,0.));
#349=CARTESIAN_POINT('',(0.218790574673505,0.15748031496063,-1.92857763645252E-17));
#350=CARTESIAN_POINT('Origin',(0.218790574673505,5.59482469102441E-16,0.));
#351=CARTESIAN_POINT('',(0.236220472440945,0.127290846456693,-1.55886327673946E-17));
#352=CARTESIAN_POINT('',(0.227505523557225,0.142385580708662,-1.743720456596E-17));
#353=CARTESIAN_POINT('Origin',(0.236220472440945,5.59482469102441E-16,0.));
#354=CARTESIAN_POINT('Origin',(0.168450405446982,5.59482469102441E-16,0.));
#355=CARTESIAN_POINT('',(0.118110236220459,0.15748031496063,-1.92857763645252E-17));
#356=CARTESIAN_POINT('Origin',(0.118110236220459,5.59482469102441E-16,0.));
#357=CARTESIAN_POINT('',(0.168450405446982,0.15748031496063,-1.92857763645252E-17));
#358=CARTESIAN_POINT('Origin',(0.0590551181102295,5.59482469102441E-16,
0.));
#359=CARTESIAN_POINT('',(0.,0.0393700787401579,-4.8214440911313E-18));
#360=CARTESIAN_POINT('',(0.0590551181102295,0.0984251968503943,1.20536102278283E-17));
#361=CARTESIAN_POINT('Origin',(0.,5.59482469102441E-16,0.));
#362=CARTESIAN_POINT('Origin',(0.,-0.0196850393700787,0.));
#363=CARTESIAN_POINT('Origin',(0.0918567102002268,5.59482469102441E-16,
0.));
#364=CARTESIAN_POINT('',(0.0656031841799815,5.59482469102441E-16,0.));
#365=CARTESIAN_POINT('',(0.0918567102002268,0.0454724409448824,5.56876792525666E-18));
#366=CARTESIAN_POINT('Origin',(0.236220472440945,-0.109117864173228,0.));
#367=UNCERTAINTY_MEASURE_WITH_UNIT(LENGTH_MEASURE(0.000393700787401575),
#373,'DISTANCE_ACCURACY_VALUE',
'Maximum model space distance between geometric entities at asserted c
onnectivities');
#368=UNCERTAINTY_MEASURE_WITH_UNIT(LENGTH_MEASURE(0.000393700787401575),
#373,'DISTANCE_ACCURACY_VALUE',
'Maximum model space distance between geometric entities at asserted c
onnectivities');
#369=(
GEOMETRIC_REPRESENTATION_CONTEXT(3)
GLOBAL_UNCERTAINTY_ASSIGNED_CONTEXT((#367))
GLOBAL_UNIT_ASSIGNED_CONTEXT((#373,#377,#378))
REPRESENTATION_CONTEXT('','3D')
);
#370=(
GEOMETRIC_REPRESENTATION_CONTEXT(3)
GLOBAL_UNCERTAINTY_ASSIGNED_CONTEXT((#368))
GLOBAL_UNIT_ASSIGNED_CONTEXT((#373,#377,#378))
REPRESENTATION_CONTEXT('','3D')
);
#371=DIMENSIONAL_EXPONENTS(1.,0.,0.,0.,0.,0.,0.);
#372=DIMENSIONAL_EXPONENTS(0.,1.,0.,0.,0.,0.,0.);
#373=(
CONVERSION_BASED_UNIT('inch',#376)
LENGTH_UNIT()
NAMED_UNIT(#371)
);
#374=(
LENGTH_UNIT()
NAMED_UNIT(*)
SI_UNIT(.MILLI.,.METRE.)
);
#375=(
LENGTH_UNIT()
NAMED_UNIT(*)
SI_UNIT(.CENTI.,.METRE.)
);
#376=LENGTH_MEASURE_WITH_UNIT(LENGTH_MEASURE(25.4),#374);
#377=(
NAMED_UNIT(*)
PLANE_ANGLE_UNIT()
SI_UNIT($,.RADIAN.)
);
#378=(
NAMED_UNIT(*)
SI_UNIT($,.STERADIAN.)
SOLID_ANGLE_UNIT()
);
#379=SHAPE_DEFINITION_REPRESENTATION(#380,#381);
#380=PRODUCT_DEFINITION_SHAPE('',$,#383);
#381=SHAPE_REPRESENTATION('',(#228),#369);
#382=PRODUCT_DEFINITION_CONTEXT('part definition',#387,'design');
#383=PRODUCT_DEFINITION('center adjust','center adjust',#384,#382);
#384=PRODUCT_DEFINITION_FORMATION('',$,#389);
#385=PRODUCT_RELATED_PRODUCT_CATEGORY('center adjust','center adjust',(#389));
#386=APPLICATION_PROTOCOL_DEFINITION('international standard',
'automotive_design',2009,#387);
#387=APPLICATION_CONTEXT(
'Core Data for Automotive Mechanical Design Process');
#388=PRODUCT_CONTEXT('part definition',#387,'mechanical');
#389=PRODUCT('center adjust','center adjust',$,(#388));
#390=PRESENTATION_STYLE_ASSIGNMENT((#392));
#391=PRESENTATION_STYLE_ASSIGNMENT((#393));
#392=SURFACE_STYLE_USAGE(.BOTH.,#398);
#393=SURFACE_STYLE_USAGE(.BOTH.,#399);
#394=SURFACE_STYLE_RENDERING_WITH_PROPERTIES($,#406,(#396));
#395=SURFACE_STYLE_RENDERING_WITH_PROPERTIES($,#407,(#397));
#396=SURFACE_STYLE_TRANSPARENT(0.);
#397=SURFACE_STYLE_TRANSPARENT(0.);
#398=SURFACE_SIDE_STYLE('',(#400,#394));
#399=SURFACE_SIDE_STYLE('',(#401,#395));
#400=SURFACE_STYLE_FILL_AREA(#402);
#401=SURFACE_STYLE_FILL_AREA(#403);
#402=FILL_AREA_STYLE('',(#404));
#403=FILL_AREA_STYLE('',(#405));
#404=FILL_AREA_STYLE_COLOUR('',#406);
#405=FILL_AREA_STYLE_COLOUR('',#407);
#406=COLOUR_RGB('',0.749019607843137,0.749019607843137,0.749019607843137);
#407=COLOUR_RGB('',0.505882352941176,0.505882352941176,0.505882352941176);
ENDSEC;
END-ISO-10303-21;
