ISO-10303-21;
HEADER;
/* Generated by software containing ST-Developer
 * from STEP Tools, Inc. (www.steptools.com) 
 */

FILE_DESCRIPTION(
/* description */ (''),
/* implementation_level */ '2;1');

FILE_NAME(
/* name */ 'Motor Can Screw.stp',
/* time_stamp */ '2026-01-03T09:32:25-06:00',
/* author */ ('josh'),
/* organization */ (''),
/* preprocessor_version */ 'ST-DEVELOPER v20',
/* originating_system */ 'Autodesk Inventor 2025',
/* authorisation */ '');

FILE_SCHEMA (('AUTOMOTIVE_DESIGN { 1 0 10303 214 3 1 1 }'));
ENDSEC;

DATA;
#10=MECHANICAL_DESIGN_GEOMETRIC_PRESENTATION_REPRESENTATION('',(#13),#625);
#11=SHAPE_REPRESENTATION_RELATIONSHIP('SRR','None',#636,#12);
#12=ADVANCED_BREP_SHAPE_REPRESENTATION('',(#14),#624);
#13=STYLED_ITEM('',(#646),#14);
#14=MANIFOLD_SOLID_BREP('Solid3',#345);
#15=TOROIDAL_SURFACE('',#394,0.150984251968504,0.0196850393700787);
#16=TOROIDAL_SURFACE('',#401,0.131299212598425,0.0393700787401575);
#17=FACE_BOUND('',#113,.T.);
#18=FACE_BOUND('',#118,.T.);
#19=CYLINDRICAL_SURFACE('',#390,0.0974409448818898);
#20=CYLINDRICAL_SURFACE('',#398,0.170669291338583);
#21=LINE('',#521,#43);
#22=LINE('',#523,#44);
#23=LINE('',#524,#45);
#24=LINE('',#527,#46);
#25=LINE('',#529,#47);
#26=LINE('',#543,#48);
#27=LINE('',#545,#49);
#28=LINE('',#546,#50);
#29=LINE('',#549,#51);
#30=LINE('',#551,#52);
#31=LINE('',#565,#53);
#32=LINE('',#567,#54);
#33=LINE('',#568,#55);
#34=LINE('',#571,#56);
#35=LINE('',#573,#57);
#36=LINE('',#587,#58);
#37=LINE('',#589,#59);
#38=LINE('',#590,#60);
#39=LINE('',#592,#61);
#40=LINE('',#593,#62);
#41=LINE('',#601,#63);
#42=LINE('',#616,#64);
#43=VECTOR('',#415,0.393700787401575);
#44=VECTOR('',#416,0.393700787401575);
#45=VECTOR('',#417,0.393700787401575);
#46=VECTOR('',#420,0.393700787401575);
#47=VECTOR('',#421,0.393700787401575);
#48=VECTOR('',#430,0.393700787401575);
#49=VECTOR('',#431,0.393700787401575);
#50=VECTOR('',#432,0.393700787401575);
#51=VECTOR('',#435,0.393700787401575);
#52=VECTOR('',#436,0.393700787401575);
#53=VECTOR('',#445,0.393700787401575);
#54=VECTOR('',#446,0.393700787401575);
#55=VECTOR('',#447,0.393700787401575);
#56=VECTOR('',#450,0.393700787401575);
#57=VECTOR('',#451,0.393700787401575);
#58=VECTOR('',#460,0.393700787401575);
#59=VECTOR('',#461,0.393700787401575);
#60=VECTOR('',#462,0.393700787401575);
#61=VECTOR('',#465,0.393700787401575);
#62=VECTOR('',#466,0.393700787401575);
#63=VECTOR('',#477,0.0974409448818898);
#64=VECTOR('',#496,0.170669291338583);
#65=PLANE('',#370);
#66=PLANE('',#371);
#67=PLANE('',#375);
#68=PLANE('',#376);
#69=PLANE('',#380);
#70=PLANE('',#381);
#71=PLANE('',#385);
#72=PLANE('',#386);
#73=PLANE('',#387);
#74=PLANE('',#388);
#75=PLANE('',#392);
#76=PLANE('',#404);
#77=FACE_OUTER_BOUND('',#97,.T.);
#78=FACE_OUTER_BOUND('',#98,.T.);
#79=FACE_OUTER_BOUND('',#99,.T.);
#80=FACE_OUTER_BOUND('',#100,.T.);
#81=FACE_OUTER_BOUND('',#101,.T.);
#82=FACE_OUTER_BOUND('',#102,.T.);
#83=FACE_OUTER_BOUND('',#103,.T.);
#84=FACE_OUTER_BOUND('',#104,.T.);
#85=FACE_OUTER_BOUND('',#105,.T.);
#86=FACE_OUTER_BOUND('',#106,.T.);
#87=FACE_OUTER_BOUND('',#107,.T.);
#88=FACE_OUTER_BOUND('',#108,.T.);
#89=FACE_OUTER_BOUND('',#109,.T.);
#90=FACE_OUTER_BOUND('',#110,.T.);
#91=FACE_OUTER_BOUND('',#111,.T.);
#92=FACE_OUTER_BOUND('',#112,.T.);
#93=FACE_OUTER_BOUND('',#114,.T.);
#94=FACE_OUTER_BOUND('',#115,.T.);
#95=FACE_OUTER_BOUND('',#116,.T.);
#96=FACE_OUTER_BOUND('',#117,.T.);
#97=EDGE_LOOP('',(#225,#226,#227,#228));
#98=EDGE_LOOP('',(#229,#230,#231,#232));
#99=EDGE_LOOP('',(#233,#234,#235,#236));
#100=EDGE_LOOP('',(#237,#238,#239,#240));
#101=EDGE_LOOP('',(#241,#242,#243,#244));
#102=EDGE_LOOP('',(#245,#246,#247,#248));
#103=EDGE_LOOP('',(#249,#250,#251,#252));
#104=EDGE_LOOP('',(#253,#254,#255,#256));
#105=EDGE_LOOP('',(#257,#258,#259,#260));
#106=EDGE_LOOP('',(#261,#262,#263,#264));
#107=EDGE_LOOP('',(#265,#266,#267,#268));
#108=EDGE_LOOP('',(#269,#270,#271,#272));
#109=EDGE_LOOP('',(#273,#274,#275,#276,#277,#278,#279,#280,#281,#282,#283,
#284));
#110=EDGE_LOOP('',(#285));
#111=EDGE_LOOP('',(#286,#287,#288,#289));
#112=EDGE_LOOP('',(#290));
#113=EDGE_LOOP('',(#291));
#114=EDGE_LOOP('',(#292,#293,#294,#295,#296));
#115=EDGE_LOOP('',(#297,#298,#299,#300,#301,#302));
#116=EDGE_LOOP('',(#303,#304,#305,#306,#307));
#117=EDGE_LOOP('',(#308));
#118=EDGE_LOOP('',(#309,#310,#311,#312,#313,#314,#315,#316,#317,#318,#319,
#320));
#119=B_SPLINE_CURVE_WITH_KNOTS('',2,(#511,#512,#513),.UNSPECIFIED.,.F.,
 .F.,(3,3),(0.014539224067119,0.168254695295946),.UNSPECIFIED.);
#120=B_SPLINE_CURVE_WITH_KNOTS('',2,(#516,#517,#518),.UNSPECIFIED.,.F.,
 .F.,(3,3),(0.0145392240671107,0.168254695295936),.UNSPECIFIED.);
#121=B_SPLINE_CURVE_WITH_KNOTS('',2,(#530,#531,#532),.UNSPECIFIED.,.F.,
 .F.,(3,3),(0.0145392240671187,0.168254695295946),.UNSPECIFIED.);
#122=B_SPLINE_CURVE_WITH_KNOTS('',2,(#538,#539,#540),.UNSPECIFIED.,.F.,
 .F.,(3,3),(0.0145392240671099,0.168254695295935),.UNSPECIFIED.);
#123=B_SPLINE_CURVE_WITH_KNOTS('',2,(#552,#553,#554),.UNSPECIFIED.,.F.,
 .F.,(3,3),(0.014539224067119,0.168254695295946),.UNSPECIFIED.);
#124=B_SPLINE_CURVE_WITH_KNOTS('',2,(#560,#561,#562),.UNSPECIFIED.,.F.,
 .F.,(3,3),(0.0145392240671192,0.168254695295947),.UNSPECIFIED.);
#125=B_SPLINE_CURVE_WITH_KNOTS('',2,(#574,#575,#576),.UNSPECIFIED.,.F.,
 .F.,(3,3),(0.0145392240671187,0.168254695295946),.UNSPECIFIED.);
#126=B_SPLINE_CURVE_WITH_KNOTS('',2,(#582,#583,#584),.UNSPECIFIED.,.F.,
 .F.,(3,3),(0.0145392240671194,0.168254695295946),.UNSPECIFIED.);
#127=CIRCLE('',#368,0.0771854145250905);
#128=CIRCLE('',#369,0.0875984251968504);
#129=CIRCLE('',#373,0.0771854145250905);
#130=CIRCLE('',#374,0.0875984251968504);
#131=CIRCLE('',#378,0.0771854145250905);
#132=CIRCLE('',#379,0.0875984251968504);
#133=CIRCLE('',#383,0.0771854145250905);
#134=CIRCLE('',#384,0.0875984251968504);
#135=CIRCLE('',#389,0.0974409448818898);
#136=CIRCLE('',#391,0.0974409448818898);
#137=CIRCLE('',#393,0.150984251968504);
#138=CIRCLE('',#395,0.170669291338583);
#139=CIRCLE('',#396,0.170669291338583);
#140=CIRCLE('',#397,0.0196850393700787);
#141=CIRCLE('',#399,0.170669291338583);
#142=CIRCLE('',#400,0.170669291338583);
#143=CIRCLE('',#402,0.131299212598425);
#144=CIRCLE('',#403,0.0393700787401575);
#145=VERTEX_POINT('',#507);
#146=VERTEX_POINT('',#508);
#147=VERTEX_POINT('',#510);
#148=VERTEX_POINT('',#514);
#149=VERTEX_POINT('',#520);
#150=VERTEX_POINT('',#522);
#151=VERTEX_POINT('',#526);
#152=VERTEX_POINT('',#528);
#153=VERTEX_POINT('',#534);
#154=VERTEX_POINT('',#536);
#155=VERTEX_POINT('',#542);
#156=VERTEX_POINT('',#544);
#157=VERTEX_POINT('',#548);
#158=VERTEX_POINT('',#550);
#159=VERTEX_POINT('',#556);
#160=VERTEX_POINT('',#558);
#161=VERTEX_POINT('',#564);
#162=VERTEX_POINT('',#566);
#163=VERTEX_POINT('',#570);
#164=VERTEX_POINT('',#572);
#165=VERTEX_POINT('',#578);
#166=VERTEX_POINT('',#580);
#167=VERTEX_POINT('',#586);
#168=VERTEX_POINT('',#588);
#169=VERTEX_POINT('',#596);
#170=VERTEX_POINT('',#599);
#171=VERTEX_POINT('',#603);
#172=VERTEX_POINT('',#606);
#173=VERTEX_POINT('',#607);
#174=VERTEX_POINT('',#612);
#175=VERTEX_POINT('',#613);
#176=VERTEX_POINT('',#618);
#177=EDGE_CURVE('',#145,#146,#127,.T.);
#178=EDGE_CURVE('',#147,#145,#119,.T.);
#179=EDGE_CURVE('',#148,#147,#128,.T.);
#180=EDGE_CURVE('',#148,#146,#120,.T.);
#181=EDGE_CURVE('',#146,#149,#21,.T.);
#182=EDGE_CURVE('',#150,#148,#22,.T.);
#183=EDGE_CURVE('',#150,#149,#23,.T.);
#184=EDGE_CURVE('',#149,#151,#24,.T.);
#185=EDGE_CURVE('',#152,#150,#25,.T.);
#186=EDGE_CURVE('',#152,#151,#121,.T.);
#187=EDGE_CURVE('',#151,#153,#129,.T.);
#188=EDGE_CURVE('',#154,#152,#130,.T.);
#189=EDGE_CURVE('',#154,#153,#122,.T.);
#190=EDGE_CURVE('',#153,#155,#26,.T.);
#191=EDGE_CURVE('',#156,#154,#27,.T.);
#192=EDGE_CURVE('',#156,#155,#28,.T.);
#193=EDGE_CURVE('',#155,#157,#29,.T.);
#194=EDGE_CURVE('',#158,#156,#30,.T.);
#195=EDGE_CURVE('',#158,#157,#123,.T.);
#196=EDGE_CURVE('',#157,#159,#131,.T.);
#197=EDGE_CURVE('',#160,#158,#132,.T.);
#198=EDGE_CURVE('',#160,#159,#124,.T.);
#199=EDGE_CURVE('',#159,#161,#31,.T.);
#200=EDGE_CURVE('',#162,#160,#32,.T.);
#201=EDGE_CURVE('',#162,#161,#33,.T.);
#202=EDGE_CURVE('',#161,#163,#34,.T.);
#203=EDGE_CURVE('',#164,#162,#35,.T.);
#204=EDGE_CURVE('',#164,#163,#125,.T.);
#205=EDGE_CURVE('',#163,#165,#133,.T.);
#206=EDGE_CURVE('',#166,#164,#134,.T.);
#207=EDGE_CURVE('',#166,#165,#126,.T.);
#208=EDGE_CURVE('',#165,#167,#36,.T.);
#209=EDGE_CURVE('',#168,#166,#37,.T.);
#210=EDGE_CURVE('',#168,#167,#38,.T.);
#211=EDGE_CURVE('',#167,#145,#39,.T.);
#212=EDGE_CURVE('',#147,#168,#40,.T.);
#213=EDGE_CURVE('',#169,#169,#135,.T.);
#214=EDGE_CURVE('',#170,#170,#136,.T.);
#215=EDGE_CURVE('',#170,#169,#41,.T.);
#216=EDGE_CURVE('',#171,#171,#137,.T.);
#217=EDGE_CURVE('',#172,#173,#138,.T.);
#218=EDGE_CURVE('',#173,#172,#139,.T.);
#219=EDGE_CURVE('',#173,#171,#140,.T.);
#220=EDGE_CURVE('',#174,#175,#141,.T.);
#221=EDGE_CURVE('',#175,#174,#142,.T.);
#222=EDGE_CURVE('',#175,#172,#42,.T.);
#223=EDGE_CURVE('',#176,#176,#143,.T.);
#224=EDGE_CURVE('',#176,#174,#144,.T.);
#225=ORIENTED_EDGE('',*,*,#177,.F.);
#226=ORIENTED_EDGE('',*,*,#178,.F.);
#227=ORIENTED_EDGE('',*,*,#179,.F.);
#228=ORIENTED_EDGE('',*,*,#180,.T.);
#229=ORIENTED_EDGE('',*,*,#181,.F.);
#230=ORIENTED_EDGE('',*,*,#180,.F.);
#231=ORIENTED_EDGE('',*,*,#182,.F.);
#232=ORIENTED_EDGE('',*,*,#183,.T.);
#233=ORIENTED_EDGE('',*,*,#184,.F.);
#234=ORIENTED_EDGE('',*,*,#183,.F.);
#235=ORIENTED_EDGE('',*,*,#185,.F.);
#236=ORIENTED_EDGE('',*,*,#186,.T.);
#237=ORIENTED_EDGE('',*,*,#187,.F.);
#238=ORIENTED_EDGE('',*,*,#186,.F.);
#239=ORIENTED_EDGE('',*,*,#188,.F.);
#240=ORIENTED_EDGE('',*,*,#189,.T.);
#241=ORIENTED_EDGE('',*,*,#190,.F.);
#242=ORIENTED_EDGE('',*,*,#189,.F.);
#243=ORIENTED_EDGE('',*,*,#191,.F.);
#244=ORIENTED_EDGE('',*,*,#192,.T.);
#245=ORIENTED_EDGE('',*,*,#193,.F.);
#246=ORIENTED_EDGE('',*,*,#192,.F.);
#247=ORIENTED_EDGE('',*,*,#194,.F.);
#248=ORIENTED_EDGE('',*,*,#195,.T.);
#249=ORIENTED_EDGE('',*,*,#196,.F.);
#250=ORIENTED_EDGE('',*,*,#195,.F.);
#251=ORIENTED_EDGE('',*,*,#197,.F.);
#252=ORIENTED_EDGE('',*,*,#198,.T.);
#253=ORIENTED_EDGE('',*,*,#199,.F.);
#254=ORIENTED_EDGE('',*,*,#198,.F.);
#255=ORIENTED_EDGE('',*,*,#200,.F.);
#256=ORIENTED_EDGE('',*,*,#201,.T.);
#257=ORIENTED_EDGE('',*,*,#202,.F.);
#258=ORIENTED_EDGE('',*,*,#201,.F.);
#259=ORIENTED_EDGE('',*,*,#203,.F.);
#260=ORIENTED_EDGE('',*,*,#204,.T.);
#261=ORIENTED_EDGE('',*,*,#205,.F.);
#262=ORIENTED_EDGE('',*,*,#204,.F.);
#263=ORIENTED_EDGE('',*,*,#206,.F.);
#264=ORIENTED_EDGE('',*,*,#207,.T.);
#265=ORIENTED_EDGE('',*,*,#208,.F.);
#266=ORIENTED_EDGE('',*,*,#207,.F.);
#267=ORIENTED_EDGE('',*,*,#209,.F.);
#268=ORIENTED_EDGE('',*,*,#210,.T.);
#269=ORIENTED_EDGE('',*,*,#211,.F.);
#270=ORIENTED_EDGE('',*,*,#210,.F.);
#271=ORIENTED_EDGE('',*,*,#212,.F.);
#272=ORIENTED_EDGE('',*,*,#178,.T.);
#273=ORIENTED_EDGE('',*,*,#177,.T.);
#274=ORIENTED_EDGE('',*,*,#181,.T.);
#275=ORIENTED_EDGE('',*,*,#184,.T.);
#276=ORIENTED_EDGE('',*,*,#187,.T.);
#277=ORIENTED_EDGE('',*,*,#190,.T.);
#278=ORIENTED_EDGE('',*,*,#193,.T.);
#279=ORIENTED_EDGE('',*,*,#196,.T.);
#280=ORIENTED_EDGE('',*,*,#199,.T.);
#281=ORIENTED_EDGE('',*,*,#202,.T.);
#282=ORIENTED_EDGE('',*,*,#205,.T.);
#283=ORIENTED_EDGE('',*,*,#208,.T.);
#284=ORIENTED_EDGE('',*,*,#211,.T.);
#285=ORIENTED_EDGE('',*,*,#213,.F.);
#286=ORIENTED_EDGE('',*,*,#214,.F.);
#287=ORIENTED_EDGE('',*,*,#215,.T.);
#288=ORIENTED_EDGE('',*,*,#213,.T.);
#289=ORIENTED_EDGE('',*,*,#215,.F.);
#290=ORIENTED_EDGE('',*,*,#216,.F.);
#291=ORIENTED_EDGE('',*,*,#214,.T.);
#292=ORIENTED_EDGE('',*,*,#217,.F.);
#293=ORIENTED_EDGE('',*,*,#218,.F.);
#294=ORIENTED_EDGE('',*,*,#219,.T.);
#295=ORIENTED_EDGE('',*,*,#216,.T.);
#296=ORIENTED_EDGE('',*,*,#219,.F.);
#297=ORIENTED_EDGE('',*,*,#220,.F.);
#298=ORIENTED_EDGE('',*,*,#221,.F.);
#299=ORIENTED_EDGE('',*,*,#222,.T.);
#300=ORIENTED_EDGE('',*,*,#217,.T.);
#301=ORIENTED_EDGE('',*,*,#218,.T.);
#302=ORIENTED_EDGE('',*,*,#222,.F.);
#303=ORIENTED_EDGE('',*,*,#223,.F.);
#304=ORIENTED_EDGE('',*,*,#224,.T.);
#305=ORIENTED_EDGE('',*,*,#220,.T.);
#306=ORIENTED_EDGE('',*,*,#221,.T.);
#307=ORIENTED_EDGE('',*,*,#224,.F.);
#308=ORIENTED_EDGE('',*,*,#223,.T.);
#309=ORIENTED_EDGE('',*,*,#179,.T.);
#310=ORIENTED_EDGE('',*,*,#212,.T.);
#311=ORIENTED_EDGE('',*,*,#209,.T.);
#312=ORIENTED_EDGE('',*,*,#206,.T.);
#313=ORIENTED_EDGE('',*,*,#203,.T.);
#314=ORIENTED_EDGE('',*,*,#200,.T.);
#315=ORIENTED_EDGE('',*,*,#197,.T.);
#316=ORIENTED_EDGE('',*,*,#194,.T.);
#317=ORIENTED_EDGE('',*,*,#191,.T.);
#318=ORIENTED_EDGE('',*,*,#188,.T.);
#319=ORIENTED_EDGE('',*,*,#185,.T.);
#320=ORIENTED_EDGE('',*,*,#182,.T.);
#321=CONICAL_SURFACE('',#367,0.0875984251968504,0.174532925199433);
#322=CONICAL_SURFACE('',#372,0.0875984251968504,0.174532925199433);
#323=CONICAL_SURFACE('',#377,0.0875984251968504,0.174532925199433);
#324=CONICAL_SURFACE('',#382,0.0875984251968504,0.174532925199433);
#325=ADVANCED_FACE('',(#77),#321,.F.);
#326=ADVANCED_FACE('',(#78),#65,.F.);
#327=ADVANCED_FACE('',(#79),#66,.F.);
#328=ADVANCED_FACE('',(#80),#322,.F.);
#329=ADVANCED_FACE('',(#81),#67,.F.);
#330=ADVANCED_FACE('',(#82),#68,.F.);
#331=ADVANCED_FACE('',(#83),#323,.F.);
#332=ADVANCED_FACE('',(#84),#69,.F.);
#333=ADVANCED_FACE('',(#85),#70,.F.);
#334=ADVANCED_FACE('',(#86),#324,.F.);
#335=ADVANCED_FACE('',(#87),#71,.F.);
#336=ADVANCED_FACE('',(#88),#72,.F.);
#337=ADVANCED_FACE('',(#89),#73,.T.);
#338=ADVANCED_FACE('',(#90),#74,.T.);
#339=ADVANCED_FACE('',(#91),#19,.T.);
#340=ADVANCED_FACE('',(#92,#17),#75,.T.);
#341=ADVANCED_FACE('',(#93),#15,.T.);
#342=ADVANCED_FACE('',(#94),#20,.T.);
#343=ADVANCED_FACE('',(#95),#16,.T.);
#344=ADVANCED_FACE('',(#96,#18),#76,.T.);
#345=CLOSED_SHELL('',(#325,#326,#327,#328,#329,#330,#331,#332,#333,#334,
#335,#336,#337,#338,#339,#340,#341,#342,#343,#344));
#346=DERIVED_UNIT_ELEMENT(#348,1.);
#347=DERIVED_UNIT_ELEMENT(#630,-3.);
#348=(
CONVERSION_BASED_UNIT('gram',#350)
MASS_UNIT()
NAMED_UNIT(#627)
);
#349=(
MASS_UNIT()
NAMED_UNIT(*)
SI_UNIT(.KILO.,.GRAM.)
);
#350=MASS_MEASURE_WITH_UNIT(MASS_MEASURE(0.001),#349);
#351=DERIVED_UNIT((#346,#347));
#352=MEASURE_REPRESENTATION_ITEM('density measure',
POSITIVE_RATIO_MEASURE(1.),#351);
#353=PROPERTY_DEFINITION_REPRESENTATION(#358,#355);
#354=PROPERTY_DEFINITION_REPRESENTATION(#359,#356);
#355=REPRESENTATION('material name',(#357),#624);
#356=REPRESENTATION('density',(#352),#624);
#357=DESCRIPTIVE_REPRESENTATION_ITEM('Generic','Generic');
#358=PROPERTY_DEFINITION('material property','material name',#638);
#359=PROPERTY_DEFINITION('material property','density of part',#638);
#360=DATE_TIME_ROLE('creation_date');
#361=APPLIED_DATE_AND_TIME_ASSIGNMENT(#362,#360,(#638));
#362=DATE_AND_TIME(#363,#364);
#363=CALENDAR_DATE(2007,26,2);
#364=LOCAL_TIME(0,0,0.,#365);
#365=COORDINATED_UNIVERSAL_TIME_OFFSET(0,0,.BEHIND.);
#366=AXIS2_PLACEMENT_3D('',#505,#405,#406);
#367=AXIS2_PLACEMENT_3D('',#506,#407,#408);
#368=AXIS2_PLACEMENT_3D('',#509,#409,#410);
#369=AXIS2_PLACEMENT_3D('',#515,#411,#412);
#370=AXIS2_PLACEMENT_3D('',#519,#413,#414);
#371=AXIS2_PLACEMENT_3D('',#525,#418,#419);
#372=AXIS2_PLACEMENT_3D('',#533,#422,#423);
#373=AXIS2_PLACEMENT_3D('',#535,#424,#425);
#374=AXIS2_PLACEMENT_3D('',#537,#426,#427);
#375=AXIS2_PLACEMENT_3D('',#541,#428,#429);
#376=AXIS2_PLACEMENT_3D('',#547,#433,#434);
#377=AXIS2_PLACEMENT_3D('',#555,#437,#438);
#378=AXIS2_PLACEMENT_3D('',#557,#439,#440);
#379=AXIS2_PLACEMENT_3D('',#559,#441,#442);
#380=AXIS2_PLACEMENT_3D('',#563,#443,#444);
#381=AXIS2_PLACEMENT_3D('',#569,#448,#449);
#382=AXIS2_PLACEMENT_3D('',#577,#452,#453);
#383=AXIS2_PLACEMENT_3D('',#579,#454,#455);
#384=AXIS2_PLACEMENT_3D('',#581,#456,#457);
#385=AXIS2_PLACEMENT_3D('',#585,#458,#459);
#386=AXIS2_PLACEMENT_3D('',#591,#463,#464);
#387=AXIS2_PLACEMENT_3D('',#594,#467,#468);
#388=AXIS2_PLACEMENT_3D('',#595,#469,#470);
#389=AXIS2_PLACEMENT_3D('',#597,#471,#472);
#390=AXIS2_PLACEMENT_3D('',#598,#473,#474);
#391=AXIS2_PLACEMENT_3D('',#600,#475,#476);
#392=AXIS2_PLACEMENT_3D('',#602,#478,#479);
#393=AXIS2_PLACEMENT_3D('',#604,#480,#481);
#394=AXIS2_PLACEMENT_3D('',#605,#482,#483);
#395=AXIS2_PLACEMENT_3D('',#608,#484,#485);
#396=AXIS2_PLACEMENT_3D('',#609,#486,#487);
#397=AXIS2_PLACEMENT_3D('',#610,#488,#489);
#398=AXIS2_PLACEMENT_3D('',#611,#490,#491);
#399=AXIS2_PLACEMENT_3D('',#614,#492,#493);
#400=AXIS2_PLACEMENT_3D('',#615,#494,#495);
#401=AXIS2_PLACEMENT_3D('',#617,#497,#498);
#402=AXIS2_PLACEMENT_3D('',#619,#499,#500);
#403=AXIS2_PLACEMENT_3D('',#620,#501,#502);
#404=AXIS2_PLACEMENT_3D('',#621,#503,#504);
#405=DIRECTION('axis',(0.,0.,1.));
#406=DIRECTION('refdir',(1.,0.,0.));
#407=DIRECTION('center_axis',(0.,1.,0.));
#408=DIRECTION('ref_axis',(-0.966030798211446,0.,-0.258426966292135));
#409=DIRECTION('center_axis',(0.,1.,0.));
#410=DIRECTION('ref_axis',(-0.966030798211446,0.,-0.258426966292135));
#411=DIRECTION('center_axis',(0.,-1.,0.));
#412=DIRECTION('ref_axis',(-0.966030798211446,0.,-0.258426966292135));
#413=DIRECTION('center_axis',(3.47225411843669E-16,-0.17364817766693,0.984807753012208));
#414=DIRECTION('ref_axis',(-1.,-6.16297582203915E-32,3.52581923509049E-16));
#415=DIRECTION('',(1.,0.,-3.52581923509049E-16));
#416=DIRECTION('',(-1.,0.,3.52581923509049E-16));
#417=DIRECTION('',(0.171087869746035,-0.970287525247814,-0.171087869746036));
#418=DIRECTION('center_axis',(-0.984807753012208,-0.17364817766693,8.68063529609172E-17));
#419=DIRECTION('ref_axis',(-8.81454808772623E-17,-9.24446373305873E-33,
-1.));
#420=DIRECTION('',(8.81454808772622E-17,0.,1.));
#421=DIRECTION('',(-8.81454808772622E-17,0.,-1.));
#422=DIRECTION('center_axis',(0.,1.,0.));
#423=DIRECTION('ref_axis',(-0.258426966292135,0.,0.966030798211446));
#424=DIRECTION('center_axis',(0.,1.,0.));
#425=DIRECTION('ref_axis',(-0.258426966292135,0.,0.966030798211446));
#426=DIRECTION('center_axis',(0.,-1.,0.));
#427=DIRECTION('ref_axis',(-0.258426966292135,0.,0.966030798211446));
#428=DIRECTION('center_axis',(0.984807753012208,-0.17364817766693,-2.60419058882752E-16));
#429=DIRECTION('ref_axis',(2.64436442631787E-16,-3.69778549322349E-32,1.));
#430=DIRECTION('',(-2.64436442631787E-16,0.,-1.));
#431=DIRECTION('',(2.64436442631787E-16,0.,1.));
#432=DIRECTION('',(-0.171087869746036,-0.970287525247814,-0.171087869746035));
#433=DIRECTION('center_axis',(0.,-0.17364817766693,0.984807753012208));
#434=DIRECTION('ref_axis',(-1.,0.,0.));
#435=DIRECTION('',(1.,0.,0.));
#436=DIRECTION('',(-1.,0.,0.));
#437=DIRECTION('center_axis',(0.,1.,0.));
#438=DIRECTION('ref_axis',(0.966030798211446,0.,0.258426966292135));
#439=DIRECTION('center_axis',(0.,1.,0.));
#440=DIRECTION('ref_axis',(0.966030798211446,0.,0.258426966292135));
#441=DIRECTION('center_axis',(0.,-1.,0.));
#442=DIRECTION('ref_axis',(0.966030798211446,0.,0.258426966292135));
#443=DIRECTION('center_axis',(-2.17015882402293E-16,-0.17364817766693,-0.984807753012208));
#444=DIRECTION('ref_axis',(1.,6.16297582203915E-32,-2.20363702193156E-16));
#445=DIRECTION('',(-1.,0.,2.20363702193156E-16));
#446=DIRECTION('',(1.,0.,-2.20363702193156E-16));
#447=DIRECTION('',(-0.171087869746035,-0.970287525247814,0.171087869746035));
#448=DIRECTION('center_axis',(0.984807753012208,-0.17364817766693,4.34031764804586E-17));
#449=DIRECTION('ref_axis',(-4.40727404386311E-17,4.62223186652937E-33,1.));
#450=DIRECTION('',(4.40727404386311E-17,0.,-1.));
#451=DIRECTION('',(-4.40727404386311E-17,0.,1.));
#452=DIRECTION('center_axis',(0.,1.,0.));
#453=DIRECTION('ref_axis',(0.258426966292135,0.,-0.966030798211446));
#454=DIRECTION('center_axis',(0.,1.,0.));
#455=DIRECTION('ref_axis',(0.258426966292135,0.,-0.966030798211446));
#456=DIRECTION('center_axis',(0.,-1.,0.));
#457=DIRECTION('ref_axis',(0.258426966292135,0.,-0.966030798211446));
#458=DIRECTION('center_axis',(-0.984807753012208,-0.17364817766693,4.34031764804586E-17));
#459=DIRECTION('ref_axis',(-4.40727404386311E-17,-4.62223186652937E-33,
-1.));
#460=DIRECTION('',(4.40727404386311E-17,0.,1.));
#461=DIRECTION('',(-4.40727404386311E-17,0.,-1.));
#462=DIRECTION('',(0.171087869746035,-0.970287525247814,0.171087869746036));
#463=DIRECTION('center_axis',(-1.30209529441376E-16,-0.17364817766693,-0.984807753012208));
#464=DIRECTION('ref_axis',(1.,-1.04770588974666E-31,-1.32218221315894E-16));
#465=DIRECTION('',(-1.,0.,1.32218221315893E-16));
#466=DIRECTION('',(1.,0.,-1.32218221315893E-16));
#467=DIRECTION('center_axis',(0.,1.,0.));
#468=DIRECTION('ref_axis',(0.,0.,1.));
#469=DIRECTION('center_axis',(0.,-1.,0.));
#470=DIRECTION('ref_axis',(0.,0.,-1.));
#471=DIRECTION('center_axis',(0.,1.,0.));
#472=DIRECTION('ref_axis',(-1.,0.,0.));
#473=DIRECTION('center_axis',(0.,1.,0.));
#474=DIRECTION('ref_axis',(-1.,0.,0.));
#475=DIRECTION('center_axis',(0.,1.,0.));
#476=DIRECTION('ref_axis',(-1.,0.,0.));
#477=DIRECTION('',(0.,-1.,0.));
#478=DIRECTION('center_axis',(0.,-1.,0.));
#479=DIRECTION('ref_axis',(0.,0.,-1.));
#480=DIRECTION('center_axis',(0.,1.,0.));
#481=DIRECTION('ref_axis',(-1.,0.,0.));
#482=DIRECTION('center_axis',(0.,1.,0.));
#483=DIRECTION('ref_axis',(0.,0.,1.));
#484=DIRECTION('center_axis',(0.,1.,0.));
#485=DIRECTION('ref_axis',(-1.,0.,0.));
#486=DIRECTION('center_axis',(0.,1.,0.));
#487=DIRECTION('ref_axis',(-1.,0.,0.));
#488=DIRECTION('center_axis',(-1.,0.,1.22464679914735E-16));
#489=DIRECTION('ref_axis',(-1.22464679914735E-16,0.,-1.));
#490=DIRECTION('center_axis',(0.,1.,0.));
#491=DIRECTION('ref_axis',(-1.,0.,0.));
#492=DIRECTION('center_axis',(0.,1.,0.));
#493=DIRECTION('ref_axis',(-1.,0.,0.));
#494=DIRECTION('center_axis',(0.,1.,0.));
#495=DIRECTION('ref_axis',(-1.,0.,0.));
#496=DIRECTION('',(0.,-1.,0.));
#497=DIRECTION('center_axis',(0.,1.,0.));
#498=DIRECTION('ref_axis',(0.,0.,1.));
#499=DIRECTION('center_axis',(0.,1.,0.));
#500=DIRECTION('ref_axis',(-1.,0.,0.));
#501=DIRECTION('center_axis',(-1.,0.,1.22464679914735E-16));
#502=DIRECTION('ref_axis',(-1.22464679914735E-16,0.,-1.));
#503=DIRECTION('center_axis',(0.,1.,0.));
#504=DIRECTION('ref_axis',(0.,0.,1.));
#505=CARTESIAN_POINT('',(0.,0.,0.));
#506=CARTESIAN_POINT('Origin',(0.,0.590551181102362,0.));
#507=CARTESIAN_POINT('',(-0.0762111727819484,0.531496062992126,-0.0122247846038308));
#508=CARTESIAN_POINT('',(-0.0762111727819484,0.531496062992126,0.0122247846038308));
#509=CARTESIAN_POINT('Origin',(0.,0.531496062992126,0.));
#510=CARTESIAN_POINT('',(-0.0846227766149791,0.590551181102362,-0.0226377952755905));
#511=CARTESIAN_POINT('Ctrl Pts',(-0.0846227766149791,0.590551181102362,
-0.0226377952755905));
#512=CARTESIAN_POINT('Ctrl Pts',(-0.0804169746984516,0.559479332860331,
-0.0171589900900415));
#513=CARTESIAN_POINT('Ctrl Pts',(-0.0762111727819484,0.531496062992126,
-0.0122247846038308));
#514=CARTESIAN_POINT('',(-0.0846227766149791,0.590551181102362,0.0226377952755905));
#515=CARTESIAN_POINT('Origin',(0.,0.590551181102362,0.));
#516=CARTESIAN_POINT('Ctrl Pts',(-0.0846227766149791,0.590551181102362,
0.0226377952755905));
#517=CARTESIAN_POINT('Ctrl Pts',(-0.0804169746984496,0.559479332860315,
0.0171589900900387));
#518=CARTESIAN_POINT('Ctrl Pts',(-0.0762111727819484,0.531496062992126,
0.0122247846038308));
#519=CARTESIAN_POINT('Origin',(-0.0846227766149791,0.590551181102362,0.0226377952755905));
#520=CARTESIAN_POINT('',(-0.0122247846038308,0.531496062992126,0.0122247846038308));
#521=CARTESIAN_POINT('',(-0.0846227766149791,0.531496062992126,0.0122247846038308));
#522=CARTESIAN_POINT('',(-0.0226377952755905,0.590551181102362,0.0226377952755905));
#523=CARTESIAN_POINT('',(-0.0751361914570957,0.590551181102362,0.0226377952755905));
#524=CARTESIAN_POINT('',(-0.0235449783039402,0.595696071718106,0.0235449783039401));
#525=CARTESIAN_POINT('Origin',(-0.0226377952755905,0.590551181102362,0.0226377952755905));
#526=CARTESIAN_POINT('',(-0.0122247846038308,0.531496062992126,0.0762111727819484));
#527=CARTESIAN_POINT('',(-0.0122247846038308,0.531496062992126,0.0226377952755905));
#528=CARTESIAN_POINT('',(-0.0226377952755905,0.590551181102362,0.0846227766149791));
#529=CARTESIAN_POINT('',(-0.0226377952755905,0.590551181102362,0.0113188976377953));
#530=CARTESIAN_POINT('Ctrl Pts',(-0.0226377952755905,0.590551181102362,
0.0846227766149791));
#531=CARTESIAN_POINT('Ctrl Pts',(-0.0171589900900414,0.559479332860331,
0.0804169746984516));
#532=CARTESIAN_POINT('Ctrl Pts',(-0.0122247846038308,0.531496062992126,
0.0762111727819484));
#533=CARTESIAN_POINT('Origin',(0.,0.590551181102362,0.));
#534=CARTESIAN_POINT('',(0.0122247846038308,0.531496062992126,0.0762111727819484));
#535=CARTESIAN_POINT('Origin',(0.,0.531496062992126,0.));
#536=CARTESIAN_POINT('',(0.0226377952755905,0.590551181102362,0.0846227766149791));
#537=CARTESIAN_POINT('Origin',(0.,0.590551181102362,0.));
#538=CARTESIAN_POINT('Ctrl Pts',(0.0226377952755905,0.590551181102362,0.0846227766149791));
#539=CARTESIAN_POINT('Ctrl Pts',(0.0171589900900385,0.559479332860315,0.0804169746984492));
#540=CARTESIAN_POINT('Ctrl Pts',(0.0122247846038308,0.531496062992126,0.0762111727819484));
#541=CARTESIAN_POINT('Origin',(0.0226377952755905,0.590551181102362,0.0846227766149791));
#542=CARTESIAN_POINT('',(0.0122247846038308,0.531496062992126,0.0122247846038308));
#543=CARTESIAN_POINT('',(0.0122247846038308,0.531496062992126,0.0846227766149791));
#544=CARTESIAN_POINT('',(0.0226377952755905,0.590551181102362,0.0226377952755905));
#545=CARTESIAN_POINT('',(0.0226377952755905,0.590551181102362,0.0423113883074894));
#546=CARTESIAN_POINT('',(0.0235449783039401,0.595696071718106,0.0235449783039401));
#547=CARTESIAN_POINT('Origin',(0.0226377952755905,0.590551181102362,0.0226377952755905));
#548=CARTESIAN_POINT('',(0.0762111727819484,0.531496062992126,0.0122247846038308));
#549=CARTESIAN_POINT('',(0.0226377952755905,0.531496062992126,0.0122247846038308));
#550=CARTESIAN_POINT('',(0.0846227766149791,0.590551181102362,0.0226377952755905));
#551=CARTESIAN_POINT('',(-0.021505905511811,0.590551181102362,0.0226377952755905));
#552=CARTESIAN_POINT('Ctrl Pts',(0.0846227766149791,0.590551181102362,0.0226377952755905));
#553=CARTESIAN_POINT('Ctrl Pts',(0.0804169746984516,0.559479332860331,0.0171589900900415));
#554=CARTESIAN_POINT('Ctrl Pts',(0.0762111727819484,0.531496062992126,0.0122247846038308));
#555=CARTESIAN_POINT('Origin',(0.,0.590551181102362,0.));
#556=CARTESIAN_POINT('',(0.0762111727819484,0.531496062992126,-0.0122247846038308));
#557=CARTESIAN_POINT('Origin',(0.,0.531496062992126,0.));
#558=CARTESIAN_POINT('',(0.0846227766149791,0.590551181102362,-0.0226377952755905));
#559=CARTESIAN_POINT('Origin',(0.,0.590551181102362,0.));
#560=CARTESIAN_POINT('Ctrl Pts',(0.0846227766149791,0.590551181102362,-0.0226377952755905));
#561=CARTESIAN_POINT('Ctrl Pts',(0.0804169746984516,0.559479332860331,-0.0171589900900416));
#562=CARTESIAN_POINT('Ctrl Pts',(0.0762111727819484,0.531496062992126,-0.0122247846038308));
#563=CARTESIAN_POINT('Origin',(0.0846227766149791,0.590551181102362,-0.0226377952755905));
#564=CARTESIAN_POINT('',(0.0122247846038308,0.531496062992126,-0.0122247846038308));
#565=CARTESIAN_POINT('',(0.0846227766149791,0.531496062992126,-0.0122247846038308));
#566=CARTESIAN_POINT('',(0.0226377952755905,0.590551181102362,-0.0226377952755905));
#567=CARTESIAN_POINT('',(0.00948658515788327,0.590551181102362,-0.0226377952755905));
#568=CARTESIAN_POINT('',(0.0235449783039402,0.595696071718106,-0.0235449783039401));
#569=CARTESIAN_POINT('Origin',(0.0226377952755905,0.590551181102362,-0.0226377952755905));
#570=CARTESIAN_POINT('',(0.0122247846038308,0.531496062992126,-0.0762111727819484));
#571=CARTESIAN_POINT('',(0.0122247846038308,0.531496062992126,-0.0226377952755905));
#572=CARTESIAN_POINT('',(0.0226377952755905,0.590551181102362,-0.0846227766149791));
#573=CARTESIAN_POINT('',(0.0226377952755905,0.590551181102362,-0.0113188976377953));
#574=CARTESIAN_POINT('Ctrl Pts',(0.0226377952755905,0.590551181102362,-0.0846227766149791));
#575=CARTESIAN_POINT('Ctrl Pts',(0.0171589900900415,0.559479332860331,-0.0804169746984516));
#576=CARTESIAN_POINT('Ctrl Pts',(0.0122247846038308,0.531496062992126,-0.0762111727819484));
#577=CARTESIAN_POINT('Origin',(0.,0.590551181102362,0.));
#578=CARTESIAN_POINT('',(-0.0122247846038308,0.531496062992126,-0.0762111727819484));
#579=CARTESIAN_POINT('Origin',(0.,0.531496062992126,0.));
#580=CARTESIAN_POINT('',(-0.0226377952755905,0.590551181102362,-0.0846227766149791));
#581=CARTESIAN_POINT('Origin',(0.,0.590551181102362,0.));
#582=CARTESIAN_POINT('Ctrl Pts',(-0.0226377952755905,0.590551181102362,
-0.0846227766149791));
#583=CARTESIAN_POINT('Ctrl Pts',(-0.0171589900900417,0.559479332860331,
-0.080416974698452));
#584=CARTESIAN_POINT('Ctrl Pts',(-0.0122247846038308,0.531496062992126,
-0.0762111727819484));
#585=CARTESIAN_POINT('Origin',(-0.0226377952755905,0.590551181102362,-0.0846227766149791));
#586=CARTESIAN_POINT('',(-0.0122247846038308,0.531496062992126,-0.0122247846038308));
#587=CARTESIAN_POINT('',(-0.0122247846038308,0.531496062992126,-0.0846227766149791));
#588=CARTESIAN_POINT('',(-0.0226377952755905,0.590551181102362,-0.0226377952755905));
#589=CARTESIAN_POINT('',(-0.0226377952755905,0.590551181102362,-0.0423113883074894));
#590=CARTESIAN_POINT('',(-0.0235449783039401,0.595696071718106,-0.0235449783039402));
#591=CARTESIAN_POINT('Origin',(-0.0226377952755905,0.590551181102362,-0.0226377952755905));
#592=CARTESIAN_POINT('',(-0.0226377952755905,0.531496062992126,-0.0122247846038308));
#593=CARTESIAN_POINT('',(-0.0441437007874016,0.590551181102362,-0.0226377952755905));
#594=CARTESIAN_POINT('Origin',(6.82961998416067E-19,0.531496062992126,4.5937162595413E-18));
#595=CARTESIAN_POINT('Origin',(-0.0487204724409449,-1.49158500281023E-17,
0.));
#596=CARTESIAN_POINT('',(0.0974409448818898,0.,-1.193307412555E-17));
#597=CARTESIAN_POINT('Origin',(0.,0.,0.));
#598=CARTESIAN_POINT('Origin',(0.,0.231299212598425,0.));
#599=CARTESIAN_POINT('',(0.0974409448818898,0.46259842519685,-1.193307412555E-17));
#600=CARTESIAN_POINT('Origin',(0.,0.46259842519685,0.));
#601=CARTESIAN_POINT('',(0.0974409448818898,0.231299212598425,-1.193307412555E-17));
#602=CARTESIAN_POINT('Origin',(-0.124212598425197,0.46259842519685,0.));
#603=CARTESIAN_POINT('',(-1.84902380894886E-17,0.46259842519685,-0.150984251968504));
#604=CARTESIAN_POINT('Origin',(0.,0.46259842519685,0.));
#605=CARTESIAN_POINT('Origin',(0.,0.482283464566929,0.));
#606=CARTESIAN_POINT('',(0.170669291338583,0.482283464566929,-2.09009601350542E-17));
#607=CARTESIAN_POINT('',(-2.09009601350542E-17,0.482283464566929,-0.170669291338583));
#608=CARTESIAN_POINT('Origin',(0.,0.482283464566929,0.));
#609=CARTESIAN_POINT('Origin',(0.,0.482283464566929,0.));
#610=CARTESIAN_POINT('Origin',(-1.84902380894886E-17,0.482283464566929,
-0.150984251968504));
#611=CARTESIAN_POINT('Origin',(0.,0.516732283464567,0.));
#612=CARTESIAN_POINT('',(-2.09009601350542E-17,0.551181102362205,-0.170669291338583));
#613=CARTESIAN_POINT('',(0.170669291338583,0.551181102362205,-2.09009601350542E-17));
#614=CARTESIAN_POINT('Origin',(0.,0.551181102362205,0.));
#615=CARTESIAN_POINT('Origin',(0.,0.551181102362205,0.));
#616=CARTESIAN_POINT('',(0.170669291338583,0.516732283464567,-2.09009601350542E-17));
#617=CARTESIAN_POINT('Origin',(0.,0.551181102362205,0.));
#618=CARTESIAN_POINT('',(-1.60795160439229E-17,0.590551181102362,-0.131299212598425));
#619=CARTESIAN_POINT('Origin',(0.,0.590551181102362,0.));
#620=CARTESIAN_POINT('Origin',(-1.60795160439229E-17,0.551181102362205,
-0.131299212598425));
#621=CARTESIAN_POINT('Origin',(-0.0656496062992126,0.590551181102362,0.));
#622=UNCERTAINTY_MEASURE_WITH_UNIT(LENGTH_MEASURE(0.000393700787401575),
#628,'DISTANCE_ACCURACY_VALUE',
'Maximum model space distance between geometric entities at asserted c
onnectivities');
#623=UNCERTAINTY_MEASURE_WITH_UNIT(LENGTH_MEASURE(0.000393700787401575),
#628,'DISTANCE_ACCURACY_VALUE',
'Maximum model space distance between geometric entities at asserted c
onnectivities');
#624=(
GEOMETRIC_REPRESENTATION_CONTEXT(3)
GLOBAL_UNCERTAINTY_ASSIGNED_CONTEXT((#622))
GLOBAL_UNIT_ASSIGNED_CONTEXT((#628,#632,#633))
REPRESENTATION_CONTEXT('','3D')
);
#625=(
GEOMETRIC_REPRESENTATION_CONTEXT(3)
GLOBAL_UNCERTAINTY_ASSIGNED_CONTEXT((#623))
GLOBAL_UNIT_ASSIGNED_CONTEXT((#628,#632,#633))
REPRESENTATION_CONTEXT('','3D')
);
#626=DIMENSIONAL_EXPONENTS(1.,0.,0.,0.,0.,0.,0.);
#627=DIMENSIONAL_EXPONENTS(0.,1.,0.,0.,0.,0.,0.);
#628=(
CONVERSION_BASED_UNIT('inch',#631)
LENGTH_UNIT()
NAMED_UNIT(#626)
);
#629=(
LENGTH_UNIT()
NAMED_UNIT(*)
SI_UNIT(.MILLI.,.METRE.)
);
#630=(
LENGTH_UNIT()
NAMED_UNIT(*)
SI_UNIT(.CENTI.,.METRE.)
);
#631=LENGTH_MEASURE_WITH_UNIT(LENGTH_MEASURE(25.4),#629);
#632=(
NAMED_UNIT(*)
PLANE_ANGLE_UNIT()
SI_UNIT($,.RADIAN.)
);
#633=(
NAMED_UNIT(*)
SI_UNIT($,.STERADIAN.)
SOLID_ANGLE_UNIT()
);
#634=SHAPE_DEFINITION_REPRESENTATION(#635,#636);
#635=PRODUCT_DEFINITION_SHAPE('',$,#638);
#636=SHAPE_REPRESENTATION('',(#366),#624);
#637=PRODUCT_DEFINITION_CONTEXT('part definition',#642,'design');
#638=PRODUCT_DEFINITION('Motor Can Screw','Motor Can Screw',#639,#637);
#639=PRODUCT_DEFINITION_FORMATION('',$,#644);
#640=PRODUCT_RELATED_PRODUCT_CATEGORY('Motor Can Screw',
'Motor Can Screw',(#644));
#641=APPLICATION_PROTOCOL_DEFINITION('international standard',
'automotive_design',2009,#642);
#642=APPLICATION_CONTEXT(
'Core Data for Automotive Mechanical Design Process');
#643=PRODUCT_CONTEXT('part definition',#642,'mechanical');
#644=PRODUCT('Motor Can Screw','Motor Can Screw',$,(#643));
#645=PRESENTATION_STYLE_ASSIGNMENT((#647));
#646=PRESENTATION_STYLE_ASSIGNMENT((#648));
#647=SURFACE_STYLE_USAGE(.BOTH.,#653);
#648=SURFACE_STYLE_USAGE(.BOTH.,#654);
#649=SURFACE_STYLE_RENDERING_WITH_PROPERTIES($,#661,(#651));
#650=SURFACE_STYLE_RENDERING_WITH_PROPERTIES($,#662,(#652));
#651=SURFACE_STYLE_TRANSPARENT(0.);
#652=SURFACE_STYLE_TRANSPARENT(0.);
#653=SURFACE_SIDE_STYLE('',(#655,#649));
#654=SURFACE_SIDE_STYLE('',(#656,#650));
#655=SURFACE_STYLE_FILL_AREA(#657);
#656=SURFACE_STYLE_FILL_AREA(#658);
#657=FILL_AREA_STYLE('',(#659));
#658=FILL_AREA_STYLE('',(#660));
#659=FILL_AREA_STYLE_COLOUR('',#661);
#660=FILL_AREA_STYLE_COLOUR('',#662);
#661=COLOUR_RGB('',0.749019607843137,0.749019607843137,0.749019607843137);
#662=COLOUR_RGB('',0.,0.,0.);
ENDSEC;
END-ISO-10303-21;
