ISO-10303-21;
HEADER;
/* Generated by software containing ST-Developer
 * from STEP Tools, Inc. (www.steptools.com) 
 */

FILE_DESCRIPTION(
/* description */ ('Brush Roller to Drive Connector Bushing'),
/* implementation_level */ '2;1');

FILE_NAME(
/* name */ 'Shaft Coupler.stp',
/* time_stamp */ '2026-01-03T09:33:28-06:00',
/* author */ ('josh'),
/* organization */ (''),
/* preprocessor_version */ 'ST-DEVELOPER v20',
/* originating_system */ 'Autodesk Inventor 2025',
/* authorisation */ '');

FILE_SCHEMA (('AUTOMOTIVE_DESIGN { 1 0 10303 214 3 1 1 }'));
ENDSEC;

DATA;
#10=MECHANICAL_DESIGN_GEOMETRIC_PRESENTATION_REPRESENTATION('',(#13),#240);
#11=SHAPE_REPRESENTATION_RELATIONSHIP('SRR','None',#251,#12);
#12=ADVANCED_BREP_SHAPE_REPRESENTATION('',(#14),#239);
#13=STYLED_ITEM('',(#260),#14);
#14=MANIFOLD_SOLID_BREP('Solid3',#121);
#15=FACE_BOUND('',#41,.T.);
#16=FACE_BOUND('',#44,.T.);
#17=FACE_BOUND('',#47,.T.);
#18=PLANE('',#150);
#19=PLANE('',#155);
#20=PLANE('',#159);
#21=LINE('',#214,#24);
#22=LINE('',#230,#25);
#23=LINE('',#236,#26);
#24=VECTOR('',#174,0.59);
#25=VECTOR('',#195,0.276);
#26=VECTOR('',#204,0.196850393700787);
#27=CYLINDRICAL_SURFACE('',#147,0.59);
#28=CYLINDRICAL_SURFACE('',#157,0.276);
#29=CYLINDRICAL_SURFACE('',#161,0.196850393700787);
#30=FACE_OUTER_BOUND('',#38,.T.);
#31=FACE_OUTER_BOUND('',#39,.T.);
#32=FACE_OUTER_BOUND('',#40,.T.);
#33=FACE_OUTER_BOUND('',#42,.T.);
#34=FACE_OUTER_BOUND('',#43,.T.);
#35=FACE_OUTER_BOUND('',#45,.T.);
#36=FACE_OUTER_BOUND('',#46,.T.);
#37=FACE_OUTER_BOUND('',#48,.T.);
#38=EDGE_LOOP('',(#83,#84,#85,#86));
#39=EDGE_LOOP('',(#87,#88,#89,#90,#91));
#40=EDGE_LOOP('',(#92));
#41=EDGE_LOOP('',(#93));
#42=EDGE_LOOP('',(#94,#95,#96,#97,#98));
#43=EDGE_LOOP('',(#99));
#44=EDGE_LOOP('',(#100));
#45=EDGE_LOOP('',(#101,#102,#103,#104));
#46=EDGE_LOOP('',(#105));
#47=EDGE_LOOP('',(#106));
#48=EDGE_LOOP('',(#107,#108,#109,#110));
#49=CIRCLE('',#144,0.56);
#50=CIRCLE('',#145,0.03);
#51=CIRCLE('',#146,0.59);
#52=CIRCLE('',#148,0.59);
#53=CIRCLE('',#149,0.59);
#54=CIRCLE('',#151,0.276);
#55=CIRCLE('',#153,0.56);
#56=CIRCLE('',#154,0.03);
#57=CIRCLE('',#156,0.196850393700787);
#58=CIRCLE('',#158,0.276);
#59=CIRCLE('',#160,0.196850393700787);
#60=VERTEX_POINT('',#207);
#61=VERTEX_POINT('',#209);
#62=VERTEX_POINT('',#213);
#63=VERTEX_POINT('',#215);
#64=VERTEX_POINT('',#219);
#65=VERTEX_POINT('',#222);
#66=VERTEX_POINT('',#226);
#67=VERTEX_POINT('',#229);
#68=VERTEX_POINT('',#233);
#69=EDGE_CURVE('',#60,#60,#49,.T.);
#70=EDGE_CURVE('',#60,#61,#50,.T.);
#71=EDGE_CURVE('',#61,#61,#51,.T.);
#72=EDGE_CURVE('',#61,#62,#21,.T.);
#73=EDGE_CURVE('',#63,#62,#52,.T.);
#74=EDGE_CURVE('',#62,#63,#53,.T.);
#75=EDGE_CURVE('',#64,#64,#54,.T.);
#76=EDGE_CURVE('',#65,#65,#55,.T.);
#77=EDGE_CURVE('',#65,#63,#56,.T.);
#78=EDGE_CURVE('',#66,#66,#57,.T.);
#79=EDGE_CURVE('',#64,#67,#22,.T.);
#80=EDGE_CURVE('',#67,#67,#58,.T.);
#81=EDGE_CURVE('',#68,#68,#59,.T.);
#82=EDGE_CURVE('',#68,#66,#23,.T.);
#83=ORIENTED_EDGE('',*,*,#69,.T.);
#84=ORIENTED_EDGE('',*,*,#70,.T.);
#85=ORIENTED_EDGE('',*,*,#71,.T.);
#86=ORIENTED_EDGE('',*,*,#70,.F.);
#87=ORIENTED_EDGE('',*,*,#71,.F.);
#88=ORIENTED_EDGE('',*,*,#72,.T.);
#89=ORIENTED_EDGE('',*,*,#73,.F.);
#90=ORIENTED_EDGE('',*,*,#74,.F.);
#91=ORIENTED_EDGE('',*,*,#72,.F.);
#92=ORIENTED_EDGE('',*,*,#69,.F.);
#93=ORIENTED_EDGE('',*,*,#75,.T.);
#94=ORIENTED_EDGE('',*,*,#76,.T.);
#95=ORIENTED_EDGE('',*,*,#77,.T.);
#96=ORIENTED_EDGE('',*,*,#73,.T.);
#97=ORIENTED_EDGE('',*,*,#74,.T.);
#98=ORIENTED_EDGE('',*,*,#77,.F.);
#99=ORIENTED_EDGE('',*,*,#76,.F.);
#100=ORIENTED_EDGE('',*,*,#78,.T.);
#101=ORIENTED_EDGE('',*,*,#75,.F.);
#102=ORIENTED_EDGE('',*,*,#79,.T.);
#103=ORIENTED_EDGE('',*,*,#80,.T.);
#104=ORIENTED_EDGE('',*,*,#79,.F.);
#105=ORIENTED_EDGE('',*,*,#80,.F.);
#106=ORIENTED_EDGE('',*,*,#81,.F.);
#107=ORIENTED_EDGE('',*,*,#81,.T.);
#108=ORIENTED_EDGE('',*,*,#82,.T.);
#109=ORIENTED_EDGE('',*,*,#78,.F.);
#110=ORIENTED_EDGE('',*,*,#82,.F.);
#111=TOROIDAL_SURFACE('',#143,0.56,0.03);
#112=TOROIDAL_SURFACE('',#152,0.56,0.03);
#113=ADVANCED_FACE('',(#30),#111,.T.);
#114=ADVANCED_FACE('',(#31),#27,.T.);
#115=ADVANCED_FACE('',(#32,#15),#18,.T.);
#116=ADVANCED_FACE('',(#33),#112,.T.);
#117=ADVANCED_FACE('',(#34,#16),#19,.F.);
#118=ADVANCED_FACE('',(#35),#28,.F.);
#119=ADVANCED_FACE('',(#36,#17),#20,.T.);
#120=ADVANCED_FACE('',(#37),#29,.F.);
#121=CLOSED_SHELL('',(#113,#114,#115,#116,#117,#118,#119,#120));
#122=DERIVED_UNIT_ELEMENT(#124,1.);
#123=DERIVED_UNIT_ELEMENT(#245,-3.);
#124=(
CONVERSION_BASED_UNIT('gram',#126)
MASS_UNIT()
NAMED_UNIT(#242)
);
#125=(
MASS_UNIT()
NAMED_UNIT(*)
SI_UNIT(.KILO.,.GRAM.)
);
#126=MASS_MEASURE_WITH_UNIT(MASS_MEASURE(0.001),#125);
#127=DERIVED_UNIT((#122,#123));
#128=MEASURE_REPRESENTATION_ITEM('density measure',
POSITIVE_RATIO_MEASURE(7.85),#127);
#129=PROPERTY_DEFINITION_REPRESENTATION(#134,#131);
#130=PROPERTY_DEFINITION_REPRESENTATION(#135,#132);
#131=REPRESENTATION('material name',(#133),#239);
#132=REPRESENTATION('density',(#128),#239);
#133=DESCRIPTIVE_REPRESENTATION_ITEM('Steel, Mild','Steel, Mild');
#134=PROPERTY_DEFINITION('material property','material name',#253);
#135=PROPERTY_DEFINITION('material property','density of part',#253);
#136=DATE_TIME_ROLE('creation_date');
#137=APPLIED_DATE_AND_TIME_ASSIGNMENT(#138,#136,(#253));
#138=DATE_AND_TIME(#139,#140);
#139=CALENDAR_DATE(2025,16,9);
#140=LOCAL_TIME(0,0,0.,#141);
#141=COORDINATED_UNIVERSAL_TIME_OFFSET(0,0,.BEHIND.);
#142=AXIS2_PLACEMENT_3D('',#205,#162,#163);
#143=AXIS2_PLACEMENT_3D('',#206,#164,#165);
#144=AXIS2_PLACEMENT_3D('',#208,#166,#167);
#145=AXIS2_PLACEMENT_3D('',#210,#168,#169);
#146=AXIS2_PLACEMENT_3D('',#211,#170,#171);
#147=AXIS2_PLACEMENT_3D('',#212,#172,#173);
#148=AXIS2_PLACEMENT_3D('',#216,#175,#176);
#149=AXIS2_PLACEMENT_3D('',#217,#177,#178);
#150=AXIS2_PLACEMENT_3D('',#218,#179,#180);
#151=AXIS2_PLACEMENT_3D('',#220,#181,#182);
#152=AXIS2_PLACEMENT_3D('',#221,#183,#184);
#153=AXIS2_PLACEMENT_3D('',#223,#185,#186);
#154=AXIS2_PLACEMENT_3D('',#224,#187,#188);
#155=AXIS2_PLACEMENT_3D('',#225,#189,#190);
#156=AXIS2_PLACEMENT_3D('',#227,#191,#192);
#157=AXIS2_PLACEMENT_3D('',#228,#193,#194);
#158=AXIS2_PLACEMENT_3D('',#231,#196,#197);
#159=AXIS2_PLACEMENT_3D('',#232,#198,#199);
#160=AXIS2_PLACEMENT_3D('',#234,#200,#201);
#161=AXIS2_PLACEMENT_3D('',#235,#202,#203);
#162=DIRECTION('axis',(0.,0.,1.));
#163=DIRECTION('refdir',(1.,0.,0.));
#164=DIRECTION('center_axis',(0.,0.,1.));
#165=DIRECTION('ref_axis',(1.,0.,0.));
#166=DIRECTION('center_axis',(0.,0.,-1.));
#167=DIRECTION('ref_axis',(-1.,1.22464679914735E-16,0.));
#168=DIRECTION('center_axis',(1.22464679914735E-16,-1.,0.));
#169=DIRECTION('ref_axis',(-1.,-1.22464679914735E-16,0.));
#170=DIRECTION('center_axis',(0.,0.,1.));
#171=DIRECTION('ref_axis',(-1.,1.22464679914735E-16,0.));
#172=DIRECTION('center_axis',(0.,0.,1.));
#173=DIRECTION('ref_axis',(1.,0.,0.));
#174=DIRECTION('',(0.,0.,-1.));
#175=DIRECTION('center_axis',(0.,0.,-1.));
#176=DIRECTION('ref_axis',(-1.,1.22464679914735E-16,0.));
#177=DIRECTION('center_axis',(0.,0.,-1.));
#178=DIRECTION('ref_axis',(-1.,1.22464679914735E-16,0.));
#179=DIRECTION('center_axis',(0.,0.,1.));
#180=DIRECTION('ref_axis',(1.,0.,0.));
#181=DIRECTION('center_axis',(0.,0.,-1.));
#182=DIRECTION('ref_axis',(1.,0.,0.));
#183=DIRECTION('center_axis',(0.,0.,-1.));
#184=DIRECTION('ref_axis',(-1.,0.,0.));
#185=DIRECTION('center_axis',(0.,0.,1.));
#186=DIRECTION('ref_axis',(-1.,1.22464679914735E-16,0.));
#187=DIRECTION('center_axis',(-1.22464679914735E-16,-1.,0.));
#188=DIRECTION('ref_axis',(1.,-1.22464679914735E-16,0.));
#189=DIRECTION('center_axis',(0.,0.,1.));
#190=DIRECTION('ref_axis',(1.,0.,0.));
#191=DIRECTION('center_axis',(0.,0.,1.));
#192=DIRECTION('ref_axis',(-1.,0.,0.));
#193=DIRECTION('center_axis',(0.,0.,-1.));
#194=DIRECTION('ref_axis',(1.,0.,0.));
#195=DIRECTION('',(0.,0.,-1.));
#196=DIRECTION('center_axis',(0.,0.,-1.));
#197=DIRECTION('ref_axis',(1.,0.,0.));
#198=DIRECTION('center_axis',(0.,0.,1.));
#199=DIRECTION('ref_axis',(1.,0.,0.));
#200=DIRECTION('center_axis',(0.,0.,1.));
#201=DIRECTION('ref_axis',(-1.,0.,0.));
#202=DIRECTION('center_axis',(0.,0.,1.));
#203=DIRECTION('ref_axis',(-1.,0.,0.));
#204=DIRECTION('',(0.,0.,-1.));
#205=CARTESIAN_POINT('',(0.,0.,0.));
#206=CARTESIAN_POINT('Origin',(0.,0.,0.755));
#207=CARTESIAN_POINT('',(-0.56,-6.85802207522518E-17,0.785));
#208=CARTESIAN_POINT('Origin',(0.,0.,0.785));
#209=CARTESIAN_POINT('',(-0.59,-7.22541611496938E-17,0.755));
#210=CARTESIAN_POINT('Origin',(-0.56,-6.85802207522518E-17,0.755));
#211=CARTESIAN_POINT('Origin',(0.,0.,0.755));
#212=CARTESIAN_POINT('Origin',(0.,0.,0.));
#213=CARTESIAN_POINT('',(-0.59,-7.22541611496938E-17,-0.755));
#214=CARTESIAN_POINT('',(-0.59,-7.22541611496938E-17,0.));
#215=CARTESIAN_POINT('',(0.59,-1.44508322299388E-16,-0.755));
#216=CARTESIAN_POINT('Origin',(0.,0.,-0.755));
#217=CARTESIAN_POINT('Origin',(0.,0.,-0.755));
#218=CARTESIAN_POINT('Origin',(0.,0.,0.785));
#219=CARTESIAN_POINT('',(-0.276,3.38002516564669E-17,0.785));
#220=CARTESIAN_POINT('Origin',(0.,0.,0.785));
#221=CARTESIAN_POINT('Origin',(0.,0.,-0.755));
#222=CARTESIAN_POINT('',(0.56,0.,-0.785));
#223=CARTESIAN_POINT('Origin',(0.,0.,-0.785));
#224=CARTESIAN_POINT('Origin',(0.56,-6.85802207522518E-17,-0.755));
#225=CARTESIAN_POINT('Origin',(0.,0.,-0.785));
#226=CARTESIAN_POINT('',(0.196850393700787,2.41072204556566E-17,-0.785));
#227=CARTESIAN_POINT('Origin',(0.,0.,-0.785));
#228=CARTESIAN_POINT('Origin',(0.,0.,0.785));
#229=CARTESIAN_POINT('',(-0.276,3.38002516564669E-17,1.74838271594513E-16));
#230=CARTESIAN_POINT('',(-0.276,3.38002516564669E-17,0.785));
#231=CARTESIAN_POINT('Origin',(0.,0.,8.74191357972564E-17));
#232=CARTESIAN_POINT('Origin',(0.,0.,8.74191357972564E-17));
#233=CARTESIAN_POINT('',(0.196850393700787,2.41072204556566E-17,8.74191357972564E-17));
#234=CARTESIAN_POINT('Origin',(0.,0.,8.74191357972564E-17));
#235=CARTESIAN_POINT('Origin',(0.,0.,0.));
#236=CARTESIAN_POINT('',(0.196850393700787,2.41072204556566E-17,0.));
#237=UNCERTAINTY_MEASURE_WITH_UNIT(LENGTH_MEASURE(0.000393700787401575),
#243,'DISTANCE_ACCURACY_VALUE',
'Maximum model space distance between geometric entities at asserted c
onnectivities');
#238=UNCERTAINTY_MEASURE_WITH_UNIT(LENGTH_MEASURE(0.000393700787401575),
#243,'DISTANCE_ACCURACY_VALUE',
'Maximum model space distance between geometric entities at asserted c
onnectivities');
#239=(
GEOMETRIC_REPRESENTATION_CONTEXT(3)
GLOBAL_UNCERTAINTY_ASSIGNED_CONTEXT((#237))
GLOBAL_UNIT_ASSIGNED_CONTEXT((#243,#247,#248))
REPRESENTATION_CONTEXT('','3D')
);
#240=(
GEOMETRIC_REPRESENTATION_CONTEXT(3)
GLOBAL_UNCERTAINTY_ASSIGNED_CONTEXT((#238))
GLOBAL_UNIT_ASSIGNED_CONTEXT((#243,#247,#248))
REPRESENTATION_CONTEXT('','3D')
);
#241=DIMENSIONAL_EXPONENTS(1.,0.,0.,0.,0.,0.,0.);
#242=DIMENSIONAL_EXPONENTS(0.,1.,0.,0.,0.,0.,0.);
#243=(
CONVERSION_BASED_UNIT('inch',#246)
LENGTH_UNIT()
NAMED_UNIT(#241)
);
#244=(
LENGTH_UNIT()
NAMED_UNIT(*)
SI_UNIT(.MILLI.,.METRE.)
);
#245=(
LENGTH_UNIT()
NAMED_UNIT(*)
SI_UNIT(.CENTI.,.METRE.)
);
#246=LENGTH_MEASURE_WITH_UNIT(LENGTH_MEASURE(25.4),#244);
#247=(
NAMED_UNIT(*)
PLANE_ANGLE_UNIT()
SI_UNIT($,.RADIAN.)
);
#248=(
NAMED_UNIT(*)
SI_UNIT($,.STERADIAN.)
SOLID_ANGLE_UNIT()
);
#249=SHAPE_DEFINITION_REPRESENTATION(#250,#251);
#250=PRODUCT_DEFINITION_SHAPE('',$,#253);
#251=SHAPE_REPRESENTATION('',(#142),#239);
#252=PRODUCT_DEFINITION_CONTEXT('part definition',#257,'design');
#253=PRODUCT_DEFINITION('Shaft Coupler','Shaft Coupler',#254,#252);
#254=PRODUCT_DEFINITION_FORMATION('',$,#259);
#255=PRODUCT_RELATED_PRODUCT_CATEGORY('Shaft Coupler','Shaft Coupler',(#259));
#256=APPLICATION_PROTOCOL_DEFINITION('international standard',
'automotive_design',2009,#257);
#257=APPLICATION_CONTEXT(
'Core Data for Automotive Mechanical Design Process');
#258=PRODUCT_CONTEXT('part definition',#257,'mechanical');
#259=PRODUCT('Shaft Coupler','Shaft Coupler',
'Brush Roller to Drive Connector Bushing',(#258));
#260=PRESENTATION_STYLE_ASSIGNMENT((#261));
#261=SURFACE_STYLE_USAGE(.BOTH.,#264);
#262=SURFACE_STYLE_RENDERING_WITH_PROPERTIES($,#268,(#263));
#263=SURFACE_STYLE_TRANSPARENT(0.);
#264=SURFACE_SIDE_STYLE('',(#265,#262));
#265=SURFACE_STYLE_FILL_AREA(#266);
#266=FILL_AREA_STYLE('',(#267));
#267=FILL_AREA_STYLE_COLOUR('',#268);
#268=COLOUR_RGB('',0.749019607843137,0.749019607843137,0.749019607843137);
ENDSEC;
END-ISO-10303-21;
