ISO-10303-21;
HEADER;
/* Generated by software containing ST-Developer
 * from STEP Tools, Inc. (www.steptools.com) 
 */

FILE_DESCRIPTION(
/* description */ ('Electrical Enclosure Conduit Tube'),
/* implementation_level */ '2;1');

FILE_NAME(
/* name */ 'ELB-1007.stp',
/* time_stamp */ '2025-12-23T10:24:05-06:00',
/* author */ ('josh'),
/* organization */ (''),
/* preprocessor_version */ 'ST-DEVELOPER v20',
/* originating_system */ 'Autodesk Inventor 2025',
/* authorisation */ '');

FILE_SCHEMA (('AUTOMOTIVE_DESIGN { 1 0 10303 214 3 1 1 }'));
ENDSEC;

DATA;
#10=MECHANICAL_DESIGN_GEOMETRIC_PRESENTATION_REPRESENTATION('',(#13),#241);
#11=SHAPE_REPRESENTATION_RELATIONSHIP('SRR','None',#252,#12);
#12=ADVANCED_BREP_SHAPE_REPRESENTATION('',(#14),#240);
#13=STYLED_ITEM('',(#261),#14);
#14=MANIFOLD_SOLID_BREP('ELB-1007',#119);
#15=LINE('',#219,#17);
#16=LINE('',#231,#18);
#17=VECTOR('',#179,1.237);
#18=VECTOR('',#194,1.44);
#19=CYLINDRICAL_SURFACE('',#148,1.237);
#20=CYLINDRICAL_SURFACE('',#155,1.44);
#21=FACE_BOUND('',#34,.T.);
#22=FACE_BOUND('',#40,.T.);
#23=PLANE('',#146);
#24=PLANE('',#160);
#25=FACE_OUTER_BOUND('',#32,.T.);
#26=FACE_OUTER_BOUND('',#33,.T.);
#27=FACE_OUTER_BOUND('',#35,.T.);
#28=FACE_OUTER_BOUND('',#36,.T.);
#29=FACE_OUTER_BOUND('',#37,.T.);
#30=FACE_OUTER_BOUND('',#38,.T.);
#31=FACE_OUTER_BOUND('',#39,.T.);
#32=EDGE_LOOP('',(#79,#80,#81,#82,#83));
#33=EDGE_LOOP('',(#84));
#34=EDGE_LOOP('',(#85));
#35=EDGE_LOOP('',(#86,#87,#88,#89,#90,#91));
#36=EDGE_LOOP('',(#92,#93,#94,#95,#96));
#37=EDGE_LOOP('',(#97,#98,#99,#100,#101));
#38=EDGE_LOOP('',(#102,#103,#104,#105,#106));
#39=EDGE_LOOP('',(#107));
#40=EDGE_LOOP('',(#108));
#41=CIRCLE('',#142,1.327);
#42=CIRCLE('',#143,0.09);
#43=CIRCLE('',#144,1.237);
#44=CIRCLE('',#145,1.237);
#45=CIRCLE('',#147,1.35);
#46=CIRCLE('',#149,1.237);
#47=CIRCLE('',#150,1.237);
#48=CIRCLE('',#152,0.09);
#49=CIRCLE('',#153,1.44);
#50=CIRCLE('',#154,1.44);
#51=CIRCLE('',#156,1.44);
#52=CIRCLE('',#158,1.362);
#53=CIRCLE('',#159,0.125);
#54=VERTEX_POINT('',#207);
#55=VERTEX_POINT('',#209);
#56=VERTEX_POINT('',#211);
#57=VERTEX_POINT('',#215);
#58=VERTEX_POINT('',#218);
#59=VERTEX_POINT('',#220);
#60=VERTEX_POINT('',#224);
#61=VERTEX_POINT('',#226);
#62=VERTEX_POINT('',#230);
#63=VERTEX_POINT('',#234);
#64=EDGE_CURVE('',#54,#54,#41,.T.);
#65=EDGE_CURVE('',#54,#55,#42,.T.);
#66=EDGE_CURVE('',#55,#56,#43,.T.);
#67=EDGE_CURVE('',#56,#55,#44,.T.);
#68=EDGE_CURVE('',#57,#57,#45,.T.);
#69=EDGE_CURVE('',#56,#58,#15,.T.);
#70=EDGE_CURVE('',#59,#58,#46,.T.);
#71=EDGE_CURVE('',#58,#59,#47,.T.);
#72=EDGE_CURVE('',#57,#60,#48,.T.);
#73=EDGE_CURVE('',#60,#61,#49,.T.);
#74=EDGE_CURVE('',#61,#60,#50,.T.);
#75=EDGE_CURVE('',#61,#62,#16,.T.);
#76=EDGE_CURVE('',#62,#62,#51,.T.);
#77=EDGE_CURVE('',#63,#63,#52,.T.);
#78=EDGE_CURVE('',#63,#59,#53,.T.);
#79=ORIENTED_EDGE('',*,*,#64,.T.);
#80=ORIENTED_EDGE('',*,*,#65,.T.);
#81=ORIENTED_EDGE('',*,*,#66,.T.);
#82=ORIENTED_EDGE('',*,*,#67,.T.);
#83=ORIENTED_EDGE('',*,*,#65,.F.);
#84=ORIENTED_EDGE('',*,*,#68,.F.);
#85=ORIENTED_EDGE('',*,*,#64,.F.);
#86=ORIENTED_EDGE('',*,*,#67,.F.);
#87=ORIENTED_EDGE('',*,*,#69,.T.);
#88=ORIENTED_EDGE('',*,*,#70,.F.);
#89=ORIENTED_EDGE('',*,*,#71,.F.);
#90=ORIENTED_EDGE('',*,*,#69,.F.);
#91=ORIENTED_EDGE('',*,*,#66,.F.);
#92=ORIENTED_EDGE('',*,*,#68,.T.);
#93=ORIENTED_EDGE('',*,*,#72,.T.);
#94=ORIENTED_EDGE('',*,*,#73,.T.);
#95=ORIENTED_EDGE('',*,*,#74,.T.);
#96=ORIENTED_EDGE('',*,*,#72,.F.);
#97=ORIENTED_EDGE('',*,*,#74,.F.);
#98=ORIENTED_EDGE('',*,*,#75,.T.);
#99=ORIENTED_EDGE('',*,*,#76,.F.);
#100=ORIENTED_EDGE('',*,*,#75,.F.);
#101=ORIENTED_EDGE('',*,*,#73,.F.);
#102=ORIENTED_EDGE('',*,*,#77,.T.);
#103=ORIENTED_EDGE('',*,*,#78,.T.);
#104=ORIENTED_EDGE('',*,*,#70,.T.);
#105=ORIENTED_EDGE('',*,*,#71,.T.);
#106=ORIENTED_EDGE('',*,*,#78,.F.);
#107=ORIENTED_EDGE('',*,*,#76,.T.);
#108=ORIENTED_EDGE('',*,*,#77,.F.);
#109=TOROIDAL_SURFACE('',#141,1.327,0.09);
#110=TOROIDAL_SURFACE('',#151,1.35,0.09);
#111=TOROIDAL_SURFACE('',#157,1.362,0.125);
#112=ADVANCED_FACE('',(#25),#109,.T.);
#113=ADVANCED_FACE('',(#26,#21),#23,.T.);
#114=ADVANCED_FACE('',(#27),#19,.F.);
#115=ADVANCED_FACE('',(#28),#110,.T.);
#116=ADVANCED_FACE('',(#29),#20,.T.);
#117=ADVANCED_FACE('',(#30),#111,.T.);
#118=ADVANCED_FACE('',(#31,#22),#24,.T.);
#119=CLOSED_SHELL('',(#112,#113,#114,#115,#116,#117,#118));
#120=DERIVED_UNIT_ELEMENT(#122,1.);
#121=DERIVED_UNIT_ELEMENT(#246,-3.);
#122=(
CONVERSION_BASED_UNIT('gram',#124)
MASS_UNIT()
NAMED_UNIT(#243)
);
#123=(
MASS_UNIT()
NAMED_UNIT(*)
SI_UNIT(.KILO.,.GRAM.)
);
#124=MASS_MEASURE_WITH_UNIT(MASS_MEASURE(0.001),#123);
#125=DERIVED_UNIT((#120,#121));
#126=MEASURE_REPRESENTATION_ITEM('density measure',
POSITIVE_RATIO_MEASURE(7.85),#125);
#127=PROPERTY_DEFINITION_REPRESENTATION(#132,#129);
#128=PROPERTY_DEFINITION_REPRESENTATION(#133,#130);
#129=REPRESENTATION('material name',(#131),#240);
#130=REPRESENTATION('density',(#126),#240);
#131=DESCRIPTIVE_REPRESENTATION_ITEM('Steel, Mild','Steel, Mild');
#132=PROPERTY_DEFINITION('material property','material name',#254);
#133=PROPERTY_DEFINITION('material property','density of part',#254);
#134=DATE_TIME_ROLE('creation_date');
#135=APPLIED_DATE_AND_TIME_ASSIGNMENT(#136,#134,(#254));
#136=DATE_AND_TIME(#137,#138);
#137=CALENDAR_DATE(2025,12,12);
#138=LOCAL_TIME(0,0,0.,#139);
#139=COORDINATED_UNIVERSAL_TIME_OFFSET(0,0,.BEHIND.);
#140=AXIS2_PLACEMENT_3D('',#205,#161,#162);
#141=AXIS2_PLACEMENT_3D('',#206,#163,#164);
#142=AXIS2_PLACEMENT_3D('',#208,#165,#166);
#143=AXIS2_PLACEMENT_3D('',#210,#167,#168);
#144=AXIS2_PLACEMENT_3D('',#212,#169,#170);
#145=AXIS2_PLACEMENT_3D('',#213,#171,#172);
#146=AXIS2_PLACEMENT_3D('',#214,#173,#174);
#147=AXIS2_PLACEMENT_3D('',#216,#175,#176);
#148=AXIS2_PLACEMENT_3D('',#217,#177,#178);
#149=AXIS2_PLACEMENT_3D('',#221,#180,#181);
#150=AXIS2_PLACEMENT_3D('',#222,#182,#183);
#151=AXIS2_PLACEMENT_3D('',#223,#184,#185);
#152=AXIS2_PLACEMENT_3D('',#225,#186,#187);
#153=AXIS2_PLACEMENT_3D('',#227,#188,#189);
#154=AXIS2_PLACEMENT_3D('',#228,#190,#191);
#155=AXIS2_PLACEMENT_3D('',#229,#192,#193);
#156=AXIS2_PLACEMENT_3D('',#232,#195,#196);
#157=AXIS2_PLACEMENT_3D('',#233,#197,#198);
#158=AXIS2_PLACEMENT_3D('',#235,#199,#200);
#159=AXIS2_PLACEMENT_3D('',#236,#201,#202);
#160=AXIS2_PLACEMENT_3D('',#237,#203,#204);
#161=DIRECTION('axis',(0.,0.,1.));
#162=DIRECTION('refdir',(1.,0.,0.));
#163=DIRECTION('center_axis',(0.,1.,0.));
#164=DIRECTION('ref_axis',(0.,0.,1.));
#165=DIRECTION('center_axis',(0.,-1.,0.));
#166=DIRECTION('ref_axis',(-1.,0.,0.));
#167=DIRECTION('center_axis',(-1.,0.,1.22464679914735E-16));
#168=DIRECTION('ref_axis',(-1.22464679914735E-16,0.,-1.));
#169=DIRECTION('center_axis',(0.,1.,0.));
#170=DIRECTION('ref_axis',(-1.,0.,0.));
#171=DIRECTION('center_axis',(0.,1.,0.));
#172=DIRECTION('ref_axis',(-1.,0.,0.));
#173=DIRECTION('center_axis',(0.,-1.,0.));
#174=DIRECTION('ref_axis',(0.,0.,-1.));
#175=DIRECTION('center_axis',(0.,1.,0.));
#176=DIRECTION('ref_axis',(-1.,0.,0.));
#177=DIRECTION('center_axis',(0.,-1.,0.));
#178=DIRECTION('ref_axis',(-1.,0.,0.));
#179=DIRECTION('',(0.,1.,0.));
#180=DIRECTION('center_axis',(0.,-1.,0.));
#181=DIRECTION('ref_axis',(-1.,0.,0.));
#182=DIRECTION('center_axis',(0.,-1.,0.));
#183=DIRECTION('ref_axis',(-1.,0.,0.));
#184=DIRECTION('center_axis',(0.,-1.,0.));
#185=DIRECTION('ref_axis',(0.,0.,-1.));
#186=DIRECTION('center_axis',(-1.,0.,-1.22464679914735E-16));
#187=DIRECTION('ref_axis',(-1.22464679914735E-16,0.,1.));
#188=DIRECTION('center_axis',(0.,-1.,0.));
#189=DIRECTION('ref_axis',(-1.,0.,0.));
#190=DIRECTION('center_axis',(0.,-1.,0.));
#191=DIRECTION('ref_axis',(-1.,0.,0.));
#192=DIRECTION('center_axis',(0.,-1.,0.));
#193=DIRECTION('ref_axis',(1.,0.,0.));
#194=DIRECTION('',(0.,1.,0.));
#195=DIRECTION('center_axis',(0.,1.,0.));
#196=DIRECTION('ref_axis',(1.,0.,0.));
#197=DIRECTION('center_axis',(0.,-1.,0.));
#198=DIRECTION('ref_axis',(0.,0.,-1.));
#199=DIRECTION('center_axis',(0.,1.,0.));
#200=DIRECTION('ref_axis',(-1.,0.,0.));
#201=DIRECTION('center_axis',(-1.,0.,-1.22464679914735E-16));
#202=DIRECTION('ref_axis',(-1.22464679914735E-16,0.,1.));
#203=DIRECTION('center_axis',(0.,1.,0.));
#204=DIRECTION('ref_axis',(0.,0.,1.));
#205=CARTESIAN_POINT('',(0.,0.,0.));
#206=CARTESIAN_POINT('Origin',(2.09805925913415E-15,-20.785,-6.01));
#207=CARTESIAN_POINT('',(1.9355486288873E-15,-20.875,-7.337));
#208=CARTESIAN_POINT('Origin',(2.09805925913415E-15,-20.875,-6.01));
#209=CARTESIAN_POINT('',(1.94657045007963E-15,-20.785,-7.247));
#210=CARTESIAN_POINT('Origin',(1.9355486288873E-15,-20.785,-7.337));
#211=CARTESIAN_POINT('',(1.237,-20.785,-6.01));
#212=CARTESIAN_POINT('Origin',(2.09805925913415E-15,-20.785,-6.01));
#213=CARTESIAN_POINT('Origin',(2.09805925913415E-15,-20.785,-6.01));
#214=CARTESIAN_POINT('Origin',(2.09805925913415E-15,-20.875,-6.01));
#215=CARTESIAN_POINT('',(1.93273194124926E-15,-20.875,-4.66));
#216=CARTESIAN_POINT('Origin',(2.09805925913415E-15,-20.875,-6.01));
#217=CARTESIAN_POINT('Origin',(2.09805925913415E-15,-12.06,-6.01));
#218=CARTESIAN_POINT('',(1.237,-12.125,-6.01));
#219=CARTESIAN_POINT('',(1.237,-12.06,-6.01));
#220=CARTESIAN_POINT('',(1.94657045007963E-15,-12.125,-4.773));
#221=CARTESIAN_POINT('Origin',(2.09805925913415E-15,-12.125,-6.01));
#222=CARTESIAN_POINT('Origin',(2.09805925913415E-15,-12.125,-6.01));
#223=CARTESIAN_POINT('Origin',(2.09805925913415E-15,-20.785,-6.01));
#224=CARTESIAN_POINT('',(1.92171012005694E-15,-20.785,-4.57));
#225=CARTESIAN_POINT('Origin',(1.93273194124926E-15,-20.785,-4.66));
#226=CARTESIAN_POINT('',(-1.44,-20.785,-6.01));
#227=CARTESIAN_POINT('Origin',(2.09805925913415E-15,-20.785,-6.01));
#228=CARTESIAN_POINT('Origin',(2.09805925913415E-15,-20.785,-6.01));
#229=CARTESIAN_POINT('Origin',(2.09805925913415E-15,-12.06,-6.01));
#230=CARTESIAN_POINT('',(-1.44,-12.,-6.01));
#231=CARTESIAN_POINT('',(-1.44,-12.06,-6.01));
#232=CARTESIAN_POINT('Origin',(2.09805925913415E-15,-12.,-6.01));
#233=CARTESIAN_POINT('Origin',(2.09805925913415E-15,-12.125,-6.01));
#234=CARTESIAN_POINT('',(1.93126236509028E-15,-12.,-4.648));
#235=CARTESIAN_POINT('Origin',(2.09805925913415E-15,-12.,-6.01));
#236=CARTESIAN_POINT('Origin',(1.93126236509028E-15,-12.125,-4.648));
#237=CARTESIAN_POINT('Origin',(2.09805925913415E-15,-12.,-6.01));
#238=UNCERTAINTY_MEASURE_WITH_UNIT(LENGTH_MEASURE(0.000393700787401575),
#244,'DISTANCE_ACCURACY_VALUE',
'Maximum model space distance between geometric entities at asserted c
onnectivities');
#239=UNCERTAINTY_MEASURE_WITH_UNIT(LENGTH_MEASURE(0.000393700787401575),
#244,'DISTANCE_ACCURACY_VALUE',
'Maximum model space distance between geometric entities at asserted c
onnectivities');
#240=(
GEOMETRIC_REPRESENTATION_CONTEXT(3)
GLOBAL_UNCERTAINTY_ASSIGNED_CONTEXT((#238))
GLOBAL_UNIT_ASSIGNED_CONTEXT((#244,#248,#249))
REPRESENTATION_CONTEXT('','3D')
);
#241=(
GEOMETRIC_REPRESENTATION_CONTEXT(3)
GLOBAL_UNCERTAINTY_ASSIGNED_CONTEXT((#239))
GLOBAL_UNIT_ASSIGNED_CONTEXT((#244,#248,#249))
REPRESENTATION_CONTEXT('','3D')
);
#242=DIMENSIONAL_EXPONENTS(1.,0.,0.,0.,0.,0.,0.);
#243=DIMENSIONAL_EXPONENTS(0.,1.,0.,0.,0.,0.,0.);
#244=(
CONVERSION_BASED_UNIT('inch',#247)
LENGTH_UNIT()
NAMED_UNIT(#242)
);
#245=(
LENGTH_UNIT()
NAMED_UNIT(*)
SI_UNIT(.MILLI.,.METRE.)
);
#246=(
LENGTH_UNIT()
NAMED_UNIT(*)
SI_UNIT(.CENTI.,.METRE.)
);
#247=LENGTH_MEASURE_WITH_UNIT(LENGTH_MEASURE(25.4),#245);
#248=(
NAMED_UNIT(*)
PLANE_ANGLE_UNIT()
SI_UNIT($,.RADIAN.)
);
#249=(
NAMED_UNIT(*)
SI_UNIT($,.STERADIAN.)
SOLID_ANGLE_UNIT()
);
#250=SHAPE_DEFINITION_REPRESENTATION(#251,#252);
#251=PRODUCT_DEFINITION_SHAPE('',$,#254);
#252=SHAPE_REPRESENTATION('',(#140),#240);
#253=PRODUCT_DEFINITION_CONTEXT('part definition',#258,'design');
#254=PRODUCT_DEFINITION('ELB-1007','ELB-1007',#255,#253);
#255=PRODUCT_DEFINITION_FORMATION('',$,#260);
#256=PRODUCT_RELATED_PRODUCT_CATEGORY('ELB-1007','ELB-1007',(#260));
#257=APPLICATION_PROTOCOL_DEFINITION('international standard',
'automotive_design',2009,#258);
#258=APPLICATION_CONTEXT(
'Core Data for Automotive Mechanical Design Process');
#259=PRODUCT_CONTEXT('part definition',#258,'mechanical');
#260=PRODUCT('ELB-1007','ELB-1007','Electrical Enclosure Conduit Tube',
(#259));
#261=PRESENTATION_STYLE_ASSIGNMENT((#262));
#262=SURFACE_STYLE_USAGE(.BOTH.,#265);
#263=SURFACE_STYLE_RENDERING_WITH_PROPERTIES($,#269,(#264));
#264=SURFACE_STYLE_TRANSPARENT(0.);
#265=SURFACE_SIDE_STYLE('',(#266,#263));
#266=SURFACE_STYLE_FILL_AREA(#267);
#267=FILL_AREA_STYLE('',(#268));
#268=FILL_AREA_STYLE_COLOUR('',#269);
#269=COLOUR_RGB('',0.749019607843137,0.749019607843137,0.749019607843137);
ENDSEC;
END-ISO-10303-21;
