ISO-10303-21;
HEADER;
/* Generated by software containing ST-Developer
 * from STEP Tools, Inc. (www.steptools.com) 
 */

FILE_DESCRIPTION(
/* description */ ('Flanged wheel bearing seal spacer'),
/* implementation_level */ '2;1');

FILE_NAME(
/* name */ '0222-113-2.stp',
/* time_stamp */ '2025-12-15T14:41:08-06:00',
/* author */ ('josh Hofer'),
/* organization */ (''),
/* preprocessor_version */ 'ST-DEVELOPER v20',
/* originating_system */ 'Autodesk Inventor 2025',
/* authorisation */ '');

FILE_SCHEMA (('AUTOMOTIVE_DESIGN { 1 0 10303 214 3 1 1 }'));
ENDSEC;

DATA;
#10=MECHANICAL_DESIGN_GEOMETRIC_PRESENTATION_REPRESENTATION('',(#13),#343);
#11=SHAPE_REPRESENTATION_RELATIONSHIP('SRR','None',#354,#12);
#12=ADVANCED_BREP_SHAPE_REPRESENTATION('',(#14),#342);
#13=STYLED_ITEM('',(#363),#14);
#14=MANIFOLD_SOLID_BREP('Solid1',#180);
#15=CYLINDRICAL_SURFACE('',#208,0.492125984251968);
#16=CYLINDRICAL_SURFACE('',#213,0.688976377952756);
#17=CYLINDRICAL_SURFACE('',#219,0.8125);
#18=FACE_BOUND('',#37,.T.);
#19=FACE_BOUND('',#44,.T.);
#20=FACE_BOUND('',#47,.T.);
#21=PLANE('',#206);
#22=PLANE('',#222);
#23=PLANE('',#225);
#24=FACE_OUTER_BOUND('',#35,.T.);
#25=FACE_OUTER_BOUND('',#36,.T.);
#26=FACE_OUTER_BOUND('',#38,.T.);
#27=FACE_OUTER_BOUND('',#39,.T.);
#28=FACE_OUTER_BOUND('',#40,.T.);
#29=FACE_OUTER_BOUND('',#41,.T.);
#30=FACE_OUTER_BOUND('',#42,.T.);
#31=FACE_OUTER_BOUND('',#43,.T.);
#32=FACE_OUTER_BOUND('',#45,.T.);
#33=FACE_OUTER_BOUND('',#46,.T.);
#34=FACE_OUTER_BOUND('',#48,.T.);
#35=EDGE_LOOP('',(#118,#119,#120,#121,#122));
#36=EDGE_LOOP('',(#123));
#37=EDGE_LOOP('',(#124));
#38=EDGE_LOOP('',(#125,#126,#127,#128,#129));
#39=EDGE_LOOP('',(#130,#131,#132,#133,#134));
#40=EDGE_LOOP('',(#135,#136,#137,#138,#139));
#41=EDGE_LOOP('',(#140,#141,#142,#143,#144));
#42=EDGE_LOOP('',(#145,#146,#147,#148,#149,#150));
#43=EDGE_LOOP('',(#151));
#44=EDGE_LOOP('',(#152));
#45=EDGE_LOOP('',(#153,#154,#155,#156));
#46=EDGE_LOOP('',(#157));
#47=EDGE_LOOP('',(#158));
#48=EDGE_LOOP('',(#159,#160,#161,#162,#163));
#49=LINE('',#295,#57);
#50=LINE('',#305,#58);
#51=LINE('',#308,#59);
#52=LINE('',#315,#60);
#53=LINE('',#322,#61);
#54=LINE('',#329,#62);
#55=LINE('',#334,#63);
#56=LINE('',#339,#64);
#57=VECTOR('',#234,0.499925984251968);
#58=VECTOR('',#247,0.492125984251968);
#59=VECTOR('',#250,0.681176377952756);
#60=VECTOR('',#259,0.688976377952756);
#61=VECTOR('',#266,0.8047);
#62=VECTOR('',#275,0.8125);
#63=VECTOR('',#282,0.499925984251968);
#64=VECTOR('',#289,0.8047);
#65=CIRCLE('',#203,0.507725984251968);
#66=CIRCLE('',#204,0.492125984251968);
#67=CIRCLE('',#205,0.492125984251968);
#68=CIRCLE('',#207,0.673376377952756);
#69=CIRCLE('',#209,0.492125984251968);
#70=CIRCLE('',#211,0.688976377952756);
#71=CIRCLE('',#212,0.688976377952756);
#72=CIRCLE('',#214,0.688976377952756);
#73=CIRCLE('',#216,0.8125);
#74=CIRCLE('',#217,0.8125);
#75=CIRCLE('',#218,0.7969);
#76=CIRCLE('',#220,0.8125);
#77=CIRCLE('',#221,0.8125);
#78=CIRCLE('',#224,0.507725984251968);
#79=CIRCLE('',#226,0.7969);
#80=VERTEX_POINT('',#292);
#81=VERTEX_POINT('',#294);
#82=VERTEX_POINT('',#296);
#83=VERTEX_POINT('',#300);
#84=VERTEX_POINT('',#303);
#85=VERTEX_POINT('',#307);
#86=VERTEX_POINT('',#309);
#87=VERTEX_POINT('',#313);
#88=VERTEX_POINT('',#317);
#89=VERTEX_POINT('',#318);
#90=VERTEX_POINT('',#321);
#91=VERTEX_POINT('',#325);
#92=VERTEX_POINT('',#326);
#93=VERTEX_POINT('',#332);
#94=VERTEX_POINT('',#336);
#95=EDGE_CURVE('',#80,#80,#65,.T.);
#96=EDGE_CURVE('',#80,#81,#49,.T.);
#97=EDGE_CURVE('',#81,#82,#66,.T.);
#98=EDGE_CURVE('',#82,#81,#67,.T.);
#99=EDGE_CURVE('',#83,#83,#68,.T.);
#100=EDGE_CURVE('',#84,#84,#69,.T.);
#101=EDGE_CURVE('',#84,#82,#50,.T.);
#102=EDGE_CURVE('',#83,#85,#51,.T.);
#103=EDGE_CURVE('',#85,#86,#70,.T.);
#104=EDGE_CURVE('',#86,#85,#71,.T.);
#105=EDGE_CURVE('',#87,#87,#72,.T.);
#106=EDGE_CURVE('',#87,#86,#52,.T.);
#107=EDGE_CURVE('',#88,#89,#73,.T.);
#108=EDGE_CURVE('',#89,#88,#74,.T.);
#109=EDGE_CURVE('',#88,#90,#53,.T.);
#110=EDGE_CURVE('',#90,#90,#75,.T.);
#111=EDGE_CURVE('',#91,#92,#76,.T.);
#112=EDGE_CURVE('',#92,#91,#77,.T.);
#113=EDGE_CURVE('',#92,#89,#54,.T.);
#114=EDGE_CURVE('',#93,#93,#78,.T.);
#115=EDGE_CURVE('',#93,#84,#55,.T.);
#116=EDGE_CURVE('',#94,#94,#79,.T.);
#117=EDGE_CURVE('',#94,#91,#56,.T.);
#118=ORIENTED_EDGE('',*,*,#95,.T.);
#119=ORIENTED_EDGE('',*,*,#96,.T.);
#120=ORIENTED_EDGE('',*,*,#97,.T.);
#121=ORIENTED_EDGE('',*,*,#98,.T.);
#122=ORIENTED_EDGE('',*,*,#96,.F.);
#123=ORIENTED_EDGE('',*,*,#99,.F.);
#124=ORIENTED_EDGE('',*,*,#95,.F.);
#125=ORIENTED_EDGE('',*,*,#100,.F.);
#126=ORIENTED_EDGE('',*,*,#101,.T.);
#127=ORIENTED_EDGE('',*,*,#97,.F.);
#128=ORIENTED_EDGE('',*,*,#98,.F.);
#129=ORIENTED_EDGE('',*,*,#101,.F.);
#130=ORIENTED_EDGE('',*,*,#99,.T.);
#131=ORIENTED_EDGE('',*,*,#102,.T.);
#132=ORIENTED_EDGE('',*,*,#103,.T.);
#133=ORIENTED_EDGE('',*,*,#104,.T.);
#134=ORIENTED_EDGE('',*,*,#102,.F.);
#135=ORIENTED_EDGE('',*,*,#105,.F.);
#136=ORIENTED_EDGE('',*,*,#106,.T.);
#137=ORIENTED_EDGE('',*,*,#103,.F.);
#138=ORIENTED_EDGE('',*,*,#104,.F.);
#139=ORIENTED_EDGE('',*,*,#106,.F.);
#140=ORIENTED_EDGE('',*,*,#107,.T.);
#141=ORIENTED_EDGE('',*,*,#108,.T.);
#142=ORIENTED_EDGE('',*,*,#109,.T.);
#143=ORIENTED_EDGE('',*,*,#110,.T.);
#144=ORIENTED_EDGE('',*,*,#109,.F.);
#145=ORIENTED_EDGE('',*,*,#111,.F.);
#146=ORIENTED_EDGE('',*,*,#112,.F.);
#147=ORIENTED_EDGE('',*,*,#113,.T.);
#148=ORIENTED_EDGE('',*,*,#107,.F.);
#149=ORIENTED_EDGE('',*,*,#108,.F.);
#150=ORIENTED_EDGE('',*,*,#113,.F.);
#151=ORIENTED_EDGE('',*,*,#110,.F.);
#152=ORIENTED_EDGE('',*,*,#105,.T.);
#153=ORIENTED_EDGE('',*,*,#114,.T.);
#154=ORIENTED_EDGE('',*,*,#115,.T.);
#155=ORIENTED_EDGE('',*,*,#100,.T.);
#156=ORIENTED_EDGE('',*,*,#115,.F.);
#157=ORIENTED_EDGE('',*,*,#116,.F.);
#158=ORIENTED_EDGE('',*,*,#114,.F.);
#159=ORIENTED_EDGE('',*,*,#116,.T.);
#160=ORIENTED_EDGE('',*,*,#117,.T.);
#161=ORIENTED_EDGE('',*,*,#111,.T.);
#162=ORIENTED_EDGE('',*,*,#112,.T.);
#163=ORIENTED_EDGE('',*,*,#117,.F.);
#164=CONICAL_SURFACE('',#202,0.499925984251968,0.78539816339745);
#165=CONICAL_SURFACE('',#210,0.681176377952756,0.78539816339745);
#166=CONICAL_SURFACE('',#215,0.8047,0.785398163397445);
#167=CONICAL_SURFACE('',#223,0.499925984251968,0.785398163397448);
#168=CONICAL_SURFACE('',#227,0.8047,0.785398163397445);
#169=ADVANCED_FACE('',(#24),#164,.F.);
#170=ADVANCED_FACE('',(#25,#18),#21,.F.);
#171=ADVANCED_FACE('',(#26),#15,.F.);
#172=ADVANCED_FACE('',(#27),#165,.T.);
#173=ADVANCED_FACE('',(#28),#16,.T.);
#174=ADVANCED_FACE('',(#29),#166,.T.);
#175=ADVANCED_FACE('',(#30),#17,.T.);
#176=ADVANCED_FACE('',(#31,#19),#22,.F.);
#177=ADVANCED_FACE('',(#32),#167,.F.);
#178=ADVANCED_FACE('',(#33,#20),#23,.T.);
#179=ADVANCED_FACE('',(#34),#168,.T.);
#180=CLOSED_SHELL('',(#169,#170,#171,#172,#173,#174,#175,#176,#177,#178,
#179));
#181=DERIVED_UNIT_ELEMENT(#183,1.);
#182=DERIVED_UNIT_ELEMENT(#348,-3.);
#183=(
CONVERSION_BASED_UNIT('gram',#185)
MASS_UNIT()
NAMED_UNIT(#345)
);
#184=(
MASS_UNIT()
NAMED_UNIT(*)
SI_UNIT(.KILO.,.GRAM.)
);
#185=MASS_MEASURE_WITH_UNIT(MASS_MEASURE(0.001),#184);
#186=DERIVED_UNIT((#181,#182));
#187=MEASURE_REPRESENTATION_ITEM('density measure',
POSITIVE_RATIO_MEASURE(7.85),#186);
#188=PROPERTY_DEFINITION_REPRESENTATION(#193,#190);
#189=PROPERTY_DEFINITION_REPRESENTATION(#194,#191);
#190=REPRESENTATION('material name',(#192),#342);
#191=REPRESENTATION('density',(#187),#342);
#192=DESCRIPTIVE_REPRESENTATION_ITEM('Steel, Mild','Steel, Mild');
#193=PROPERTY_DEFINITION('material property','material name',#356);
#194=PROPERTY_DEFINITION('material property','density of part',#356);
#195=DATE_TIME_ROLE('creation_date');
#196=APPLIED_DATE_AND_TIME_ASSIGNMENT(#197,#195,(#356));
#197=DATE_AND_TIME(#198,#199);
#198=CALENDAR_DATE(2022,22,4);
#199=LOCAL_TIME(17,13,34.,#200);
#200=COORDINATED_UNIVERSAL_TIME_OFFSET(0,0,.BEHIND.);
#201=AXIS2_PLACEMENT_3D('',#290,#228,#229);
#202=AXIS2_PLACEMENT_3D('',#291,#230,#231);
#203=AXIS2_PLACEMENT_3D('',#293,#232,#233);
#204=AXIS2_PLACEMENT_3D('',#297,#235,#236);
#205=AXIS2_PLACEMENT_3D('',#298,#237,#238);
#206=AXIS2_PLACEMENT_3D('',#299,#239,#240);
#207=AXIS2_PLACEMENT_3D('',#301,#241,#242);
#208=AXIS2_PLACEMENT_3D('',#302,#243,#244);
#209=AXIS2_PLACEMENT_3D('',#304,#245,#246);
#210=AXIS2_PLACEMENT_3D('',#306,#248,#249);
#211=AXIS2_PLACEMENT_3D('',#310,#251,#252);
#212=AXIS2_PLACEMENT_3D('',#311,#253,#254);
#213=AXIS2_PLACEMENT_3D('',#312,#255,#256);
#214=AXIS2_PLACEMENT_3D('',#314,#257,#258);
#215=AXIS2_PLACEMENT_3D('',#316,#260,#261);
#216=AXIS2_PLACEMENT_3D('',#319,#262,#263);
#217=AXIS2_PLACEMENT_3D('',#320,#264,#265);
#218=AXIS2_PLACEMENT_3D('',#323,#267,#268);
#219=AXIS2_PLACEMENT_3D('',#324,#269,#270);
#220=AXIS2_PLACEMENT_3D('',#327,#271,#272);
#221=AXIS2_PLACEMENT_3D('',#328,#273,#274);
#222=AXIS2_PLACEMENT_3D('',#330,#276,#277);
#223=AXIS2_PLACEMENT_3D('',#331,#278,#279);
#224=AXIS2_PLACEMENT_3D('',#333,#280,#281);
#225=AXIS2_PLACEMENT_3D('',#335,#283,#284);
#226=AXIS2_PLACEMENT_3D('',#337,#285,#286);
#227=AXIS2_PLACEMENT_3D('',#338,#287,#288);
#228=DIRECTION('axis',(0.,0.,1.));
#229=DIRECTION('refdir',(1.,0.,0.));
#230=DIRECTION('center_axis',(0.,0.,-1.));
#231=DIRECTION('ref_axis',(1.,0.,0.));
#232=DIRECTION('center_axis',(0.,0.,-1.));
#233=DIRECTION('ref_axis',(1.,0.,0.));
#234=DIRECTION('',(0.707106781186548,-8.65956056235495E-17,0.707106781186546));
#235=DIRECTION('center_axis',(0.,0.,1.));
#236=DIRECTION('ref_axis',(1.,0.,0.));
#237=DIRECTION('center_axis',(0.,0.,1.));
#238=DIRECTION('ref_axis',(1.,0.,0.));
#239=DIRECTION('center_axis',(0.,0.,1.));
#240=DIRECTION('ref_axis',(1.,0.,0.));
#241=DIRECTION('center_axis',(0.,0.,1.));
#242=DIRECTION('ref_axis',(1.,0.,0.));
#243=DIRECTION('center_axis',(0.,0.,-1.));
#244=DIRECTION('ref_axis',(-1.,0.,0.));
#245=DIRECTION('center_axis',(0.,0.,-1.));
#246=DIRECTION('ref_axis',(-1.,0.,0.));
#247=DIRECTION('',(0.,0.,-1.));
#248=DIRECTION('center_axis',(0.,0.,1.));
#249=DIRECTION('ref_axis',(1.,0.,0.));
#250=DIRECTION('',(-0.707106781186548,8.65956056235494E-17,0.707106781186547));
#251=DIRECTION('center_axis',(0.,0.,-1.));
#252=DIRECTION('ref_axis',(1.,0.,0.));
#253=DIRECTION('center_axis',(0.,0.,-1.));
#254=DIRECTION('ref_axis',(1.,0.,0.));
#255=DIRECTION('center_axis',(0.,0.,1.));
#256=DIRECTION('ref_axis',(-1.,0.,0.));
#257=DIRECTION('center_axis',(0.,0.,1.));
#258=DIRECTION('ref_axis',(-1.,0.,0.));
#259=DIRECTION('',(0.,0.,-1.));
#260=DIRECTION('center_axis',(0.,0.,1.));
#261=DIRECTION('ref_axis',(-1.,0.,0.));
#262=DIRECTION('center_axis',(0.,0.,-1.));
#263=DIRECTION('ref_axis',(-1.,0.,0.));
#264=DIRECTION('center_axis',(0.,0.,-1.));
#265=DIRECTION('ref_axis',(-1.,0.,0.));
#266=DIRECTION('',(-0.707106781186545,-8.65956056235491E-17,-0.70710678118655));
#267=DIRECTION('center_axis',(0.,0.,1.));
#268=DIRECTION('ref_axis',(-1.,0.,0.));
#269=DIRECTION('center_axis',(0.,0.,1.));
#270=DIRECTION('ref_axis',(1.,0.,0.));
#271=DIRECTION('center_axis',(0.,0.,1.));
#272=DIRECTION('ref_axis',(-1.,0.,0.));
#273=DIRECTION('center_axis',(0.,0.,1.));
#274=DIRECTION('ref_axis',(-1.,0.,0.));
#275=DIRECTION('',(0.,0.,-1.));
#276=DIRECTION('center_axis',(0.,0.,1.));
#277=DIRECTION('ref_axis',(1.,0.,0.));
#278=DIRECTION('center_axis',(0.,0.,1.));
#279=DIRECTION('ref_axis',(-1.,0.,0.));
#280=DIRECTION('center_axis',(0.,0.,1.));
#281=DIRECTION('ref_axis',(-1.,0.,0.));
#282=DIRECTION('',(-0.707106781186548,-8.65956056235493E-17,-0.707106781186548));
#283=DIRECTION('center_axis',(0.,0.,1.));
#284=DIRECTION('ref_axis',(1.,0.,0.));
#285=DIRECTION('center_axis',(0.,0.,-1.));
#286=DIRECTION('ref_axis',(-1.,0.,0.));
#287=DIRECTION('center_axis',(0.,0.,-1.));
#288=DIRECTION('ref_axis',(-1.,0.,0.));
#289=DIRECTION('',(0.707106781186545,8.65956056235491E-17,-0.70710678118655));
#290=CARTESIAN_POINT('',(0.,0.,0.));
#291=CARTESIAN_POINT('Origin',(0.,0.,0.0078));
#292=CARTESIAN_POINT('',(-0.507725984251968,6.21785001458113E-17,0.));
#293=CARTESIAN_POINT('Origin',(0.,0.,0.));
#294=CARTESIAN_POINT('',(-0.492125984251968,-6.02680511391414E-17,0.0156));
#295=CARTESIAN_POINT('',(-0.499925984251968,6.12232756424763E-17,0.0078));
#296=CARTESIAN_POINT('',(0.492125984251968,-6.02680511391414E-17,0.0156));
#297=CARTESIAN_POINT('Origin',(0.,0.,0.0156));
#298=CARTESIAN_POINT('Origin',(0.,0.,0.0156));
#299=CARTESIAN_POINT('Origin',(0.,0.,0.));
#300=CARTESIAN_POINT('',(-0.673376377952756,-8.24648225881281E-17,0.));
#301=CARTESIAN_POINT('Origin',(0.,0.,0.));
#302=CARTESIAN_POINT('Origin',(0.,0.,0.393700787401575));
#303=CARTESIAN_POINT('',(0.492125984251968,-6.02680511391414E-17,0.503100787401575));
#304=CARTESIAN_POINT('Origin',(0.,0.,0.503100787401575));
#305=CARTESIAN_POINT('',(0.492125984251968,-6.02680511391414E-17,0.393700787401575));
#306=CARTESIAN_POINT('Origin',(0.,0.,0.0078));
#307=CARTESIAN_POINT('',(-0.688976377952756,8.4375271594798E-17,0.0156));
#308=CARTESIAN_POINT('',(-0.681176377952756,8.3420047091463E-17,0.0078));
#309=CARTESIAN_POINT('',(0.688976377952756,8.4375271594798E-17,0.0156));
#310=CARTESIAN_POINT('Origin',(0.,0.,0.0156));
#311=CARTESIAN_POINT('Origin',(0.,0.,0.0156));
#312=CARTESIAN_POINT('Origin',(0.,0.,0.));
#313=CARTESIAN_POINT('',(0.688976377952756,-8.4375271594798E-17,0.393700787401575));
#314=CARTESIAN_POINT('Origin',(0.,0.,0.393700787401575));
#315=CARTESIAN_POINT('',(0.688976377952756,8.4375271594798E-17,0.));
#316=CARTESIAN_POINT('Origin',(0.,0.,0.401500787401575));
#317=CARTESIAN_POINT('',(0.8125,-9.95025524307224E-17,0.409300787401575));
#318=CARTESIAN_POINT('',(-0.8125,-9.95025524307224E-17,0.409300787401575));
#319=CARTESIAN_POINT('Origin',(0.,0.,0.409300787401575));
#320=CARTESIAN_POINT('Origin',(0.,0.,0.409300787401575));
#321=CARTESIAN_POINT('',(0.7969,9.75921034240526E-17,0.393700787401575));
#322=CARTESIAN_POINT('',(0.8047,9.85473279273875E-17,0.401500787401575));
#323=CARTESIAN_POINT('Origin',(0.,0.,0.393700787401575));
#324=CARTESIAN_POINT('Origin',(0.,0.,0.393700787401575));
#325=CARTESIAN_POINT('',(0.8125,9.95025524307224E-17,0.503100787401575));
#326=CARTESIAN_POINT('',(-0.8125,-9.95025524307224E-17,0.503100787401575));
#327=CARTESIAN_POINT('Origin',(0.,0.,0.503100787401575));
#328=CARTESIAN_POINT('Origin',(0.,0.,0.503100787401575));
#329=CARTESIAN_POINT('',(-0.8125,-9.95025524307224E-17,0.393700787401575));
#330=CARTESIAN_POINT('Origin',(0.,0.,0.393700787401575));
#331=CARTESIAN_POINT('Origin',(0.,0.,0.510900787401575));
#332=CARTESIAN_POINT('',(0.507725984251968,6.21785001458113E-17,0.518700787401575));
#333=CARTESIAN_POINT('Origin',(0.,0.,0.518700787401575));
#334=CARTESIAN_POINT('',(0.499925984251968,6.12232756424763E-17,0.510900787401575));
#335=CARTESIAN_POINT('Origin',(0.,0.,0.518700787401575));
#336=CARTESIAN_POINT('',(0.7969,-9.75921034240526E-17,0.518700787401575));
#337=CARTESIAN_POINT('Origin',(0.,0.,0.518700787401575));
#338=CARTESIAN_POINT('Origin',(0.,0.,0.510900787401575));
#339=CARTESIAN_POINT('',(0.8047,9.85473279273875E-17,0.510900787401575));
#340=UNCERTAINTY_MEASURE_WITH_UNIT(LENGTH_MEASURE(0.000393700787401575),
#346,'DISTANCE_ACCURACY_VALUE',
'Maximum model space distance between geometric entities at asserted c
onnectivities');
#341=UNCERTAINTY_MEASURE_WITH_UNIT(LENGTH_MEASURE(0.000393700787401575),
#346,'DISTANCE_ACCURACY_VALUE',
'Maximum model space distance between geometric entities at asserted c
onnectivities');
#342=(
GEOMETRIC_REPRESENTATION_CONTEXT(3)
GLOBAL_UNCERTAINTY_ASSIGNED_CONTEXT((#340))
GLOBAL_UNIT_ASSIGNED_CONTEXT((#346,#350,#351))
REPRESENTATION_CONTEXT('','3D')
);
#343=(
GEOMETRIC_REPRESENTATION_CONTEXT(3)
GLOBAL_UNCERTAINTY_ASSIGNED_CONTEXT((#341))
GLOBAL_UNIT_ASSIGNED_CONTEXT((#346,#350,#351))
REPRESENTATION_CONTEXT('','3D')
);
#344=DIMENSIONAL_EXPONENTS(1.,0.,0.,0.,0.,0.,0.);
#345=DIMENSIONAL_EXPONENTS(0.,1.,0.,0.,0.,0.,0.);
#346=(
CONVERSION_BASED_UNIT('inch',#349)
LENGTH_UNIT()
NAMED_UNIT(#344)
);
#347=(
LENGTH_UNIT()
NAMED_UNIT(*)
SI_UNIT(.MILLI.,.METRE.)
);
#348=(
LENGTH_UNIT()
NAMED_UNIT(*)
SI_UNIT(.CENTI.,.METRE.)
);
#349=LENGTH_MEASURE_WITH_UNIT(LENGTH_MEASURE(25.4),#347);
#350=(
NAMED_UNIT(*)
PLANE_ANGLE_UNIT()
SI_UNIT($,.RADIAN.)
);
#351=(
NAMED_UNIT(*)
SI_UNIT($,.STERADIAN.)
SOLID_ANGLE_UNIT()
);
#352=SHAPE_DEFINITION_REPRESENTATION(#353,#354);
#353=PRODUCT_DEFINITION_SHAPE('',$,#356);
#354=SHAPE_REPRESENTATION('',(#201),#342);
#355=PRODUCT_DEFINITION_CONTEXT('part definition',#360,'design');
#356=PRODUCT_DEFINITION('0222-113-2','0222-113-2',#357,#355);
#357=PRODUCT_DEFINITION_FORMATION('ANY',$,#362);
#358=PRODUCT_RELATED_PRODUCT_CATEGORY('0222-113-2','0222-113-2',(#362));
#359=APPLICATION_PROTOCOL_DEFINITION('international standard',
'automotive_design',2009,#360);
#360=APPLICATION_CONTEXT(
'Core Data for Automotive Mechanical Design Process');
#361=PRODUCT_CONTEXT('part definition',#360,'mechanical');
#362=PRODUCT('0222-113-2','0222-113-2',
'Flanged wheel bearing seal spacer',(#361));
#363=PRESENTATION_STYLE_ASSIGNMENT((#364));
#364=SURFACE_STYLE_USAGE(.BOTH.,#367);
#365=SURFACE_STYLE_RENDERING_WITH_PROPERTIES($,#371,(#366));
#366=SURFACE_STYLE_TRANSPARENT(0.);
#367=SURFACE_SIDE_STYLE('',(#368,#365));
#368=SURFACE_STYLE_FILL_AREA(#369);
#369=FILL_AREA_STYLE('',(#370));
#370=FILL_AREA_STYLE_COLOUR('',#371);
#371=COLOUR_RGB('',0.745098039215686,0.737254901960784,0.729411764705882);
ENDSEC;
END-ISO-10303-21;
