ISO-10303-21;
HEADER;
/* Generated by software containing ST-Developer
 * from STEP Tools, Inc. (www.steptools.com) 
 */

FILE_DESCRIPTION(
/* description */ ('Wheel Bearing seal spacer'),
/* implementation_level */ '2;1');

FILE_NAME(
/* name */ '0222-113.stp',
/* time_stamp */ '2025-12-15T14:41:41-06:00',
/* author */ ('josh Hofer'),
/* organization */ (''),
/* preprocessor_version */ 'ST-DEVELOPER v20',
/* originating_system */ 'Autodesk Inventor 2025',
/* authorisation */ '');

FILE_SCHEMA (('AUTOMOTIVE_DESIGN { 1 0 10303 214 3 1 1 }'));
ENDSEC;

DATA;
#10=MECHANICAL_DESIGN_GEOMETRIC_PRESENTATION_REPRESENTATION('',(#13),#263);
#11=SHAPE_REPRESENTATION_RELATIONSHIP('SRR','None',#274,#12);
#12=ADVANCED_BREP_SHAPE_REPRESENTATION('',(#14),#262);
#13=STYLED_ITEM('',(#283),#14);
#14=MANIFOLD_SOLID_BREP('Solid1',#136);
#15=CYLINDRICAL_SURFACE('',#164,0.492125984251968);
#16=CYLINDRICAL_SURFACE('',#169,0.688976377952756);
#17=FACE_BOUND('',#31,.T.);
#18=FACE_BOUND('',#37,.T.);
#19=PLANE('',#162);
#20=PLANE('',#174);
#21=FACE_OUTER_BOUND('',#29,.T.);
#22=FACE_OUTER_BOUND('',#30,.T.);
#23=FACE_OUTER_BOUND('',#32,.T.);
#24=FACE_OUTER_BOUND('',#33,.T.);
#25=FACE_OUTER_BOUND('',#34,.T.);
#26=FACE_OUTER_BOUND('',#35,.T.);
#27=FACE_OUTER_BOUND('',#36,.T.);
#28=FACE_OUTER_BOUND('',#38,.T.);
#29=EDGE_LOOP('',(#90,#91,#92,#93,#94));
#30=EDGE_LOOP('',(#95));
#31=EDGE_LOOP('',(#96));
#32=EDGE_LOOP('',(#97,#98,#99,#100,#101,#102));
#33=EDGE_LOOP('',(#103,#104,#105,#106));
#34=EDGE_LOOP('',(#107,#108,#109,#110,#111));
#35=EDGE_LOOP('',(#112,#113,#114,#115,#116));
#36=EDGE_LOOP('',(#117));
#37=EDGE_LOOP('',(#118));
#38=EDGE_LOOP('',(#119,#120,#121,#122,#123));
#39=LINE('',#228,#45);
#40=LINE('',#240,#46);
#41=LINE('',#243,#47);
#42=LINE('',#247,#48);
#43=LINE('',#253,#49);
#44=LINE('',#259,#50);
#45=VECTOR('',#183,0.499925984251968);
#46=VECTOR('',#198,0.492125984251968);
#47=VECTOR('',#201,0.681176377952756);
#48=VECTOR('',#206,0.688976377952756);
#49=VECTOR('',#213,0.499925984251968);
#50=VECTOR('',#222,0.681176377952756);
#51=CIRCLE('',#159,0.507725984251968);
#52=CIRCLE('',#160,0.492125984251968);
#53=CIRCLE('',#161,0.492125984251968);
#54=CIRCLE('',#163,0.673376377952756);
#55=CIRCLE('',#165,0.492125984251968);
#56=CIRCLE('',#166,0.492125984251968);
#57=CIRCLE('',#168,0.688976377952756);
#58=CIRCLE('',#170,0.688976377952756);
#59=CIRCLE('',#171,0.688976377952756);
#60=CIRCLE('',#173,0.507725984251968);
#61=CIRCLE('',#175,0.673376377952756);
#62=VERTEX_POINT('',#225);
#63=VERTEX_POINT('',#227);
#64=VERTEX_POINT('',#229);
#65=VERTEX_POINT('',#233);
#66=VERTEX_POINT('',#236);
#67=VERTEX_POINT('',#237);
#68=VERTEX_POINT('',#242);
#69=VERTEX_POINT('',#246);
#70=VERTEX_POINT('',#248);
#71=VERTEX_POINT('',#252);
#72=VERTEX_POINT('',#256);
#73=EDGE_CURVE('',#62,#62,#51,.T.);
#74=EDGE_CURVE('',#62,#63,#39,.T.);
#75=EDGE_CURVE('',#63,#64,#52,.T.);
#76=EDGE_CURVE('',#64,#63,#53,.T.);
#77=EDGE_CURVE('',#65,#65,#54,.T.);
#78=EDGE_CURVE('',#66,#67,#55,.T.);
#79=EDGE_CURVE('',#67,#66,#56,.T.);
#80=EDGE_CURVE('',#67,#64,#40,.T.);
#81=EDGE_CURVE('',#65,#68,#41,.T.);
#82=EDGE_CURVE('',#68,#68,#57,.T.);
#83=EDGE_CURVE('',#68,#69,#42,.T.);
#84=EDGE_CURVE('',#70,#69,#58,.T.);
#85=EDGE_CURVE('',#69,#70,#59,.T.);
#86=EDGE_CURVE('',#66,#71,#43,.T.);
#87=EDGE_CURVE('',#71,#71,#60,.T.);
#88=EDGE_CURVE('',#72,#72,#61,.T.);
#89=EDGE_CURVE('',#72,#70,#44,.T.);
#90=ORIENTED_EDGE('',*,*,#73,.T.);
#91=ORIENTED_EDGE('',*,*,#74,.T.);
#92=ORIENTED_EDGE('',*,*,#75,.T.);
#93=ORIENTED_EDGE('',*,*,#76,.T.);
#94=ORIENTED_EDGE('',*,*,#74,.F.);
#95=ORIENTED_EDGE('',*,*,#77,.F.);
#96=ORIENTED_EDGE('',*,*,#73,.F.);
#97=ORIENTED_EDGE('',*,*,#78,.F.);
#98=ORIENTED_EDGE('',*,*,#79,.F.);
#99=ORIENTED_EDGE('',*,*,#80,.T.);
#100=ORIENTED_EDGE('',*,*,#75,.F.);
#101=ORIENTED_EDGE('',*,*,#76,.F.);
#102=ORIENTED_EDGE('',*,*,#80,.F.);
#103=ORIENTED_EDGE('',*,*,#77,.T.);
#104=ORIENTED_EDGE('',*,*,#81,.T.);
#105=ORIENTED_EDGE('',*,*,#82,.T.);
#106=ORIENTED_EDGE('',*,*,#81,.F.);
#107=ORIENTED_EDGE('',*,*,#82,.F.);
#108=ORIENTED_EDGE('',*,*,#83,.T.);
#109=ORIENTED_EDGE('',*,*,#84,.F.);
#110=ORIENTED_EDGE('',*,*,#85,.F.);
#111=ORIENTED_EDGE('',*,*,#83,.F.);
#112=ORIENTED_EDGE('',*,*,#78,.T.);
#113=ORIENTED_EDGE('',*,*,#79,.T.);
#114=ORIENTED_EDGE('',*,*,#86,.T.);
#115=ORIENTED_EDGE('',*,*,#87,.T.);
#116=ORIENTED_EDGE('',*,*,#86,.F.);
#117=ORIENTED_EDGE('',*,*,#88,.F.);
#118=ORIENTED_EDGE('',*,*,#87,.F.);
#119=ORIENTED_EDGE('',*,*,#88,.T.);
#120=ORIENTED_EDGE('',*,*,#89,.T.);
#121=ORIENTED_EDGE('',*,*,#84,.T.);
#122=ORIENTED_EDGE('',*,*,#85,.T.);
#123=ORIENTED_EDGE('',*,*,#89,.F.);
#124=CONICAL_SURFACE('',#158,0.499925984251968,0.78539816339745);
#125=CONICAL_SURFACE('',#167,0.681176377952756,0.78539816339745);
#126=CONICAL_SURFACE('',#172,0.499925984251968,0.78539816339745);
#127=CONICAL_SURFACE('',#176,0.681176377952756,0.78539816339745);
#128=ADVANCED_FACE('',(#21),#124,.F.);
#129=ADVANCED_FACE('',(#22,#17),#19,.F.);
#130=ADVANCED_FACE('',(#23),#15,.F.);
#131=ADVANCED_FACE('',(#24),#125,.T.);
#132=ADVANCED_FACE('',(#25),#16,.T.);
#133=ADVANCED_FACE('',(#26),#126,.F.);
#134=ADVANCED_FACE('',(#27,#18),#20,.T.);
#135=ADVANCED_FACE('',(#28),#127,.T.);
#136=CLOSED_SHELL('',(#128,#129,#130,#131,#132,#133,#134,#135));
#137=DERIVED_UNIT_ELEMENT(#139,1.);
#138=DERIVED_UNIT_ELEMENT(#268,-3.);
#139=(
CONVERSION_BASED_UNIT('gram',#141)
MASS_UNIT()
NAMED_UNIT(#265)
);
#140=(
MASS_UNIT()
NAMED_UNIT(*)
SI_UNIT(.KILO.,.GRAM.)
);
#141=MASS_MEASURE_WITH_UNIT(MASS_MEASURE(0.001),#140);
#142=DERIVED_UNIT((#137,#138));
#143=MEASURE_REPRESENTATION_ITEM('density measure',
POSITIVE_RATIO_MEASURE(7.85),#142);
#144=PROPERTY_DEFINITION_REPRESENTATION(#149,#146);
#145=PROPERTY_DEFINITION_REPRESENTATION(#150,#147);
#146=REPRESENTATION('material name',(#148),#262);
#147=REPRESENTATION('density',(#143),#262);
#148=DESCRIPTIVE_REPRESENTATION_ITEM('Steel, Mild','Steel, Mild');
#149=PROPERTY_DEFINITION('material property','material name',#276);
#150=PROPERTY_DEFINITION('material property','density of part',#276);
#151=DATE_TIME_ROLE('creation_date');
#152=APPLIED_DATE_AND_TIME_ASSIGNMENT(#153,#151,(#276));
#153=DATE_AND_TIME(#154,#155);
#154=CALENDAR_DATE(2022,22,4);
#155=LOCAL_TIME(17,13,34.,#156);
#156=COORDINATED_UNIVERSAL_TIME_OFFSET(0,0,.BEHIND.);
#157=AXIS2_PLACEMENT_3D('',#223,#177,#178);
#158=AXIS2_PLACEMENT_3D('',#224,#179,#180);
#159=AXIS2_PLACEMENT_3D('',#226,#181,#182);
#160=AXIS2_PLACEMENT_3D('',#230,#184,#185);
#161=AXIS2_PLACEMENT_3D('',#231,#186,#187);
#162=AXIS2_PLACEMENT_3D('',#232,#188,#189);
#163=AXIS2_PLACEMENT_3D('',#234,#190,#191);
#164=AXIS2_PLACEMENT_3D('',#235,#192,#193);
#165=AXIS2_PLACEMENT_3D('',#238,#194,#195);
#166=AXIS2_PLACEMENT_3D('',#239,#196,#197);
#167=AXIS2_PLACEMENT_3D('',#241,#199,#200);
#168=AXIS2_PLACEMENT_3D('',#244,#202,#203);
#169=AXIS2_PLACEMENT_3D('',#245,#204,#205);
#170=AXIS2_PLACEMENT_3D('',#249,#207,#208);
#171=AXIS2_PLACEMENT_3D('',#250,#209,#210);
#172=AXIS2_PLACEMENT_3D('',#251,#211,#212);
#173=AXIS2_PLACEMENT_3D('',#254,#214,#215);
#174=AXIS2_PLACEMENT_3D('',#255,#216,#217);
#175=AXIS2_PLACEMENT_3D('',#257,#218,#219);
#176=AXIS2_PLACEMENT_3D('',#258,#220,#221);
#177=DIRECTION('axis',(0.,0.,1.));
#178=DIRECTION('refdir',(1.,0.,0.));
#179=DIRECTION('center_axis',(0.,0.,-1.));
#180=DIRECTION('ref_axis',(1.,0.,0.));
#181=DIRECTION('center_axis',(0.,0.,-1.));
#182=DIRECTION('ref_axis',(1.,0.,0.));
#183=DIRECTION('',(0.707106781186548,-8.65956056235495E-17,0.707106781186546));
#184=DIRECTION('center_axis',(0.,0.,1.));
#185=DIRECTION('ref_axis',(1.,0.,0.));
#186=DIRECTION('center_axis',(0.,0.,1.));
#187=DIRECTION('ref_axis',(1.,0.,0.));
#188=DIRECTION('center_axis',(0.,0.,1.));
#189=DIRECTION('ref_axis',(1.,0.,0.));
#190=DIRECTION('center_axis',(0.,0.,1.));
#191=DIRECTION('ref_axis',(1.,0.,0.));
#192=DIRECTION('center_axis',(0.,0.,-1.));
#193=DIRECTION('ref_axis',(-1.,0.,0.));
#194=DIRECTION('center_axis',(0.,0.,-1.));
#195=DIRECTION('ref_axis',(1.,0.,0.));
#196=DIRECTION('center_axis',(0.,0.,-1.));
#197=DIRECTION('ref_axis',(1.,0.,0.));
#198=DIRECTION('',(0.,0.,-1.));
#199=DIRECTION('center_axis',(0.,0.,1.));
#200=DIRECTION('ref_axis',(1.,0.,0.));
#201=DIRECTION('',(-0.707106781186549,8.65956056235495E-17,0.707106781186546));
#202=DIRECTION('center_axis',(0.,0.,-1.));
#203=DIRECTION('ref_axis',(1.,0.,0.));
#204=DIRECTION('center_axis',(0.,0.,-1.));
#205=DIRECTION('ref_axis',(1.,0.,0.));
#206=DIRECTION('',(0.,0.,1.));
#207=DIRECTION('center_axis',(0.,0.,1.));
#208=DIRECTION('ref_axis',(-1.,0.,0.));
#209=DIRECTION('center_axis',(0.,0.,1.));
#210=DIRECTION('ref_axis',(-1.,0.,0.));
#211=DIRECTION('center_axis',(0.,0.,1.));
#212=DIRECTION('ref_axis',(1.,0.,0.));
#213=DIRECTION('',(-0.707106781186548,8.65956056235495E-17,0.707106781186546));
#214=DIRECTION('center_axis',(0.,0.,1.));
#215=DIRECTION('ref_axis',(1.,0.,0.));
#216=DIRECTION('center_axis',(0.,0.,1.));
#217=DIRECTION('ref_axis',(1.,0.,0.));
#218=DIRECTION('center_axis',(0.,0.,-1.));
#219=DIRECTION('ref_axis',(-1.,0.,0.));
#220=DIRECTION('center_axis',(0.,0.,-1.));
#221=DIRECTION('ref_axis',(-1.,0.,0.));
#222=DIRECTION('',(0.707106781186549,8.65956056235495E-17,-0.707106781186546));
#223=CARTESIAN_POINT('',(0.,0.,0.));
#224=CARTESIAN_POINT('Origin',(0.,0.,0.0078));
#225=CARTESIAN_POINT('',(-0.507725984251968,6.21785001458113E-17,0.));
#226=CARTESIAN_POINT('Origin',(0.,0.,0.));
#227=CARTESIAN_POINT('',(-0.492125984251968,-6.02680511391414E-17,0.0156));
#228=CARTESIAN_POINT('',(-0.499925984251968,6.12232756424763E-17,0.0078));
#229=CARTESIAN_POINT('',(0.492125984251968,-6.02680511391414E-17,0.0156));
#230=CARTESIAN_POINT('Origin',(0.,0.,0.0156));
#231=CARTESIAN_POINT('Origin',(0.,0.,0.0156));
#232=CARTESIAN_POINT('Origin',(0.,0.,0.));
#233=CARTESIAN_POINT('',(-0.673376377952756,-8.24648225881281E-17,0.));
#234=CARTESIAN_POINT('Origin',(0.,0.,0.));
#235=CARTESIAN_POINT('Origin',(0.,0.,0.393700787401575));
#236=CARTESIAN_POINT('',(-0.492125984251968,6.02680511391414E-17,0.378100787401575));
#237=CARTESIAN_POINT('',(0.492125984251968,-6.02680511391414E-17,0.378100787401575));
#238=CARTESIAN_POINT('Origin',(0.,0.,0.378100787401575));
#239=CARTESIAN_POINT('Origin',(0.,0.,0.378100787401575));
#240=CARTESIAN_POINT('',(0.492125984251968,-6.02680511391414E-17,0.393700787401575));
#241=CARTESIAN_POINT('Origin',(0.,0.,0.0078));
#242=CARTESIAN_POINT('',(-0.688976377952756,8.4375271594798E-17,0.0156));
#243=CARTESIAN_POINT('',(-0.681176377952756,8.3420047091463E-17,0.0078));
#244=CARTESIAN_POINT('Origin',(0.,0.,0.0156));
#245=CARTESIAN_POINT('Origin',(0.,0.,0.393700787401575));
#246=CARTESIAN_POINT('',(-0.688976377952756,8.4375271594798E-17,0.378100787401575));
#247=CARTESIAN_POINT('',(-0.688976377952756,8.4375271594798E-17,0.393700787401575));
#248=CARTESIAN_POINT('',(0.688976377952756,8.4375271594798E-17,0.378100787401575));
#249=CARTESIAN_POINT('Origin',(0.,0.,0.378100787401575));
#250=CARTESIAN_POINT('Origin',(0.,0.,0.378100787401575));
#251=CARTESIAN_POINT('Origin',(0.,0.,0.385900787401575));
#252=CARTESIAN_POINT('',(-0.507725984251968,-6.21785001458113E-17,0.393700787401575));
#253=CARTESIAN_POINT('',(-0.499925984251968,6.12232756424763E-17,0.385900787401575));
#254=CARTESIAN_POINT('Origin',(0.,0.,0.393700787401575));
#255=CARTESIAN_POINT('Origin',(0.,0.,0.393700787401575));
#256=CARTESIAN_POINT('',(0.673376377952756,-8.24648225881281E-17,0.393700787401575));
#257=CARTESIAN_POINT('Origin',(0.,0.,0.393700787401575));
#258=CARTESIAN_POINT('Origin',(0.,0.,0.385900787401575));
#259=CARTESIAN_POINT('',(0.681176377952756,8.3420047091463E-17,0.385900787401575));
#260=UNCERTAINTY_MEASURE_WITH_UNIT(LENGTH_MEASURE(0.000393700787401575),
#266,'DISTANCE_ACCURACY_VALUE',
'Maximum model space distance between geometric entities at asserted c
onnectivities');
#261=UNCERTAINTY_MEASURE_WITH_UNIT(LENGTH_MEASURE(0.000393700787401575),
#266,'DISTANCE_ACCURACY_VALUE',
'Maximum model space distance between geometric entities at asserted c
onnectivities');
#262=(
GEOMETRIC_REPRESENTATION_CONTEXT(3)
GLOBAL_UNCERTAINTY_ASSIGNED_CONTEXT((#260))
GLOBAL_UNIT_ASSIGNED_CONTEXT((#266,#270,#271))
REPRESENTATION_CONTEXT('','3D')
);
#263=(
GEOMETRIC_REPRESENTATION_CONTEXT(3)
GLOBAL_UNCERTAINTY_ASSIGNED_CONTEXT((#261))
GLOBAL_UNIT_ASSIGNED_CONTEXT((#266,#270,#271))
REPRESENTATION_CONTEXT('','3D')
);
#264=DIMENSIONAL_EXPONENTS(1.,0.,0.,0.,0.,0.,0.);
#265=DIMENSIONAL_EXPONENTS(0.,1.,0.,0.,0.,0.,0.);
#266=(
CONVERSION_BASED_UNIT('inch',#269)
LENGTH_UNIT()
NAMED_UNIT(#264)
);
#267=(
LENGTH_UNIT()
NAMED_UNIT(*)
SI_UNIT(.MILLI.,.METRE.)
);
#268=(
LENGTH_UNIT()
NAMED_UNIT(*)
SI_UNIT(.CENTI.,.METRE.)
);
#269=LENGTH_MEASURE_WITH_UNIT(LENGTH_MEASURE(25.4),#267);
#270=(
NAMED_UNIT(*)
PLANE_ANGLE_UNIT()
SI_UNIT($,.RADIAN.)
);
#271=(
NAMED_UNIT(*)
SI_UNIT($,.STERADIAN.)
SOLID_ANGLE_UNIT()
);
#272=SHAPE_DEFINITION_REPRESENTATION(#273,#274);
#273=PRODUCT_DEFINITION_SHAPE('',$,#276);
#274=SHAPE_REPRESENTATION('',(#157),#262);
#275=PRODUCT_DEFINITION_CONTEXT('part definition',#280,'design');
#276=PRODUCT_DEFINITION('0222-113','0222-113',#277,#275);
#277=PRODUCT_DEFINITION_FORMATION('ANY',$,#282);
#278=PRODUCT_RELATED_PRODUCT_CATEGORY('0222-113','0222-113',(#282));
#279=APPLICATION_PROTOCOL_DEFINITION('international standard',
'automotive_design',2009,#280);
#280=APPLICATION_CONTEXT(
'Core Data for Automotive Mechanical Design Process');
#281=PRODUCT_CONTEXT('part definition',#280,'mechanical');
#282=PRODUCT('0222-113','0222-113','Wheel Bearing seal spacer',(#281));
#283=PRESENTATION_STYLE_ASSIGNMENT((#284));
#284=SURFACE_STYLE_USAGE(.BOTH.,#287);
#285=SURFACE_STYLE_RENDERING_WITH_PROPERTIES($,#291,(#286));
#286=SURFACE_STYLE_TRANSPARENT(0.);
#287=SURFACE_SIDE_STYLE('',(#288,#285));
#288=SURFACE_STYLE_FILL_AREA(#289);
#289=FILL_AREA_STYLE('',(#290));
#290=FILL_AREA_STYLE_COLOUR('',#291);
#291=COLOUR_RGB('',0.745098039215686,0.737254901960784,0.729411764705882);
ENDSEC;
END-ISO-10303-21;
