ISO-10303-21;
HEADER;
/* Generated by software containing ST-Developer
 * from STEP Tools, Inc. (www.steptools.com) 
 */

FILE_DESCRIPTION(
/* description */ ('Shaft Seal 35 mm Shaft 52 mm OD x 8.3 Thick'),
/* implementation_level */ '2;1');

FILE_NAME(
/* name */ '1199N323.stp',
/* time_stamp */ '2025-12-15T14:41:06-06:00',
/* author */ ('Administrator'),
/* organization */ ('Managed by Terraform'),
/* preprocessor_version */ 'ST-DEVELOPER v20',
/* originating_system */ 'Autodesk Inventor 2025',
/* authorisation */ '');

FILE_SCHEMA (('AUTOMOTIVE_DESIGN { 1 0 10303 214 3 1 1 }'));
ENDSEC;

DATA;
#10=MECHANICAL_DESIGN_GEOMETRIC_PRESENTATION_REPRESENTATION('',(#16,#17),
#650);
#11=GEOMETRICALLY_BOUNDED_WIREFRAME_SHAPE_REPRESENTATION('',(#12),#649);
#12=GEOMETRIC_CURVE_SET('Sketch12',(#646));
#13=SHAPE_REPRESENTATION_RELATIONSHIP('SRR','None',#661,#15);
#14=SHAPE_REPRESENTATION_RELATIONSHIP('SRR','None',#661,#11);
#15=ADVANCED_BREP_SHAPE_REPRESENTATION('',(#18,#19),#649);
#16=STYLED_ITEM('',(#671),#18);
#17=STYLED_ITEM('',(#670),#19);
#18=MANIFOLD_SOLID_BREP('Solid3',#344);
#19=MANIFOLD_SOLID_BREP('Solid4',#345);
#20=FACE_BOUND('',#108,.T.);
#21=FACE_BOUND('',#110,.T.);
#22=FACE_BOUND('',#112,.T.);
#23=FACE_BOUND('',#114,.T.);
#24=FACE_BOUND('',#116,.T.);
#25=FACE_BOUND('',#118,.T.);
#26=PLANE('',#414);
#27=PLANE('',#415);
#28=PLANE('',#416);
#29=PLANE('',#417);
#30=PLANE('',#418);
#31=PLANE('',#419);
#32=CONICAL_SURFACE('',#390,0.688976377952756,0.748378047523381);
#33=CONICAL_SURFACE('',#394,0.744750656167979,0.552075269622797);
#34=CONICAL_SURFACE('',#397,0.688976377952756,0.694714311616197);
#35=CONICAL_SURFACE('',#400,0.721893660113846,0.8760820151787);
#36=CONICAL_SURFACE('',#403,0.744750656167979,0.694714311616196);
#37=CONICAL_SURFACE('',#406,0.772637795275591,0.488333951056407);
#38=LINE('',#564,#50);
#39=LINE('',#574,#51);
#40=LINE('',#583,#52);
#41=LINE('',#586,#53);
#42=LINE('',#593,#54);
#43=LINE('',#598,#55);
#44=LINE('',#606,#56);
#45=LINE('',#610,#57);
#46=LINE('',#618,#58);
#47=LINE('',#622,#59);
#48=LINE('',#628,#60);
#49=LINE('',#634,#61);
#50=VECTOR('',#443,1.02362204724409);
#51=VECTOR('',#456,0.912073490813648);
#52=VECTOR('',#469,0.800524934383202);
#53=VECTOR('',#472,0.800524934383202);
#54=VECTOR('',#479,0.688976377952756);
#55=VECTOR('',#486,0.744750656167979);
#56=VECTOR('',#495,0.688976377952756);
#57=VECTOR('',#500,0.721893660113846);
#58=VECTOR('',#509,0.744750656167979);
#59=VECTOR('',#514,0.772637795275591);
#60=VECTOR('',#521,0.800524934383202);
#61=VECTOR('',#528,0.912073490813648);
#62=CYLINDRICAL_SURFACE('',#375,1.02362204724409);
#63=CYLINDRICAL_SURFACE('',#380,0.912073490813648);
#64=CYLINDRICAL_SURFACE('',#387,0.800524934383202);
#65=CYLINDRICAL_SURFACE('',#388,0.800524934383202);
#66=CYLINDRICAL_SURFACE('',#408,0.800524934383202);
#67=CYLINDRICAL_SURFACE('',#411,0.912073490813648);
#68=FACE_OUTER_BOUND('',#91,.T.);
#69=FACE_OUTER_BOUND('',#92,.T.);
#70=FACE_OUTER_BOUND('',#93,.T.);
#71=FACE_OUTER_BOUND('',#94,.T.);
#72=FACE_OUTER_BOUND('',#95,.T.);
#73=FACE_OUTER_BOUND('',#96,.T.);
#74=FACE_OUTER_BOUND('',#97,.T.);
#75=FACE_OUTER_BOUND('',#98,.T.);
#76=FACE_OUTER_BOUND('',#99,.T.);
#77=FACE_OUTER_BOUND('',#100,.T.);
#78=FACE_OUTER_BOUND('',#101,.T.);
#79=FACE_OUTER_BOUND('',#102,.T.);
#80=FACE_OUTER_BOUND('',#103,.T.);
#81=FACE_OUTER_BOUND('',#104,.T.);
#82=FACE_OUTER_BOUND('',#105,.T.);
#83=FACE_OUTER_BOUND('',#106,.T.);
#84=FACE_OUTER_BOUND('',#107,.T.);
#85=FACE_OUTER_BOUND('',#109,.T.);
#86=FACE_OUTER_BOUND('',#111,.T.);
#87=FACE_OUTER_BOUND('',#113,.T.);
#88=FACE_OUTER_BOUND('',#115,.T.);
#89=FACE_OUTER_BOUND('',#117,.T.);
#90=FACE_OUTER_BOUND('',#119,.T.);
#91=EDGE_LOOP('',(#226,#227,#228,#229));
#92=EDGE_LOOP('',(#230,#231,#232,#233));
#93=EDGE_LOOP('',(#234,#235,#236,#237));
#94=EDGE_LOOP('',(#238,#239,#240,#241));
#95=EDGE_LOOP('',(#242,#243,#244,#245));
#96=EDGE_LOOP('',(#246,#247,#248,#249));
#97=EDGE_LOOP('',(#250,#251,#252,#253));
#98=EDGE_LOOP('',(#254,#255,#256,#257));
#99=EDGE_LOOP('',(#258,#259,#260,#261,#262));
#100=EDGE_LOOP('',(#263,#264,#265,#266,#267,#268));
#101=EDGE_LOOP('',(#269,#270,#271,#272,#273,#274));
#102=EDGE_LOOP('',(#275,#276,#277,#278,#279,#280));
#103=EDGE_LOOP('',(#281,#282,#283,#284,#285,#286));
#104=EDGE_LOOP('',(#287,#288,#289,#290,#291));
#105=EDGE_LOOP('',(#292,#293,#294,#295));
#106=EDGE_LOOP('',(#296,#297,#298,#299));
#107=EDGE_LOOP('',(#300));
#108=EDGE_LOOP('',(#301));
#109=EDGE_LOOP('',(#302));
#110=EDGE_LOOP('',(#303));
#111=EDGE_LOOP('',(#304));
#112=EDGE_LOOP('',(#305));
#113=EDGE_LOOP('',(#306));
#114=EDGE_LOOP('',(#307));
#115=EDGE_LOOP('',(#308));
#116=EDGE_LOOP('',(#309));
#117=EDGE_LOOP('',(#310));
#118=EDGE_LOOP('',(#311));
#119=EDGE_LOOP('',(#312,#313,#314,#315));
#120=CIRCLE('',#368,0.800524934383202);
#121=CIRCLE('',#369,0.031496062992126);
#122=CIRCLE('',#370,0.800524934383202);
#123=CIRCLE('',#372,0.992125984251968);
#124=CIRCLE('',#373,0.0314960629921259);
#125=CIRCLE('',#374,1.02362204724409);
#126=CIRCLE('',#376,1.02362204724409);
#127=CIRCLE('',#378,0.0157480314960631);
#128=CIRCLE('',#379,1.00787401574803);
#129=CIRCLE('',#381,0.912073490813648);
#130=CIRCLE('',#382,0.912073490813648);
#131=CIRCLE('',#384,0.816272965879265);
#132=CIRCLE('',#385,0.0157480314960629);
#133=CIRCLE('',#386,0.800524934383202);
#134=CIRCLE('',#389,0.800524934383202);
#135=CIRCLE('',#391,0.688976377952756);
#136=CIRCLE('',#392,0.75721784776901);
#137=CIRCLE('',#393,0.688976377952756);
#138=CIRCLE('',#395,0.744750656167979);
#139=CIRCLE('',#396,0.744750656167979);
#140=CIRCLE('',#398,0.688976377952756);
#141=CIRCLE('',#399,0.688976377952756);
#142=CIRCLE('',#401,0.721893660113846);
#143=CIRCLE('',#402,0.721893660113846);
#144=CIRCLE('',#404,0.744750656167979);
#145=CIRCLE('',#405,0.744750656167979);
#146=CIRCLE('',#407,0.772637795275591);
#147=CIRCLE('',#409,0.800524934383202);
#148=CIRCLE('',#410,0.800524934383202);
#149=CIRCLE('',#412,0.912073490813648);
#150=CIRCLE('',#413,0.912073490813648);
#151=CIRCLE('',#421,0.031496062992126);
#152=CIRCLE('',#422,0.769028871391076);
#153=VERTEX_POINT('',#551);
#154=VERTEX_POINT('',#553);
#155=VERTEX_POINT('',#557);
#156=VERTEX_POINT('',#559);
#157=VERTEX_POINT('',#563);
#158=VERTEX_POINT('',#567);
#159=VERTEX_POINT('',#571);
#160=VERTEX_POINT('',#573);
#161=VERTEX_POINT('',#577);
#162=VERTEX_POINT('',#579);
#163=VERTEX_POINT('',#585);
#164=VERTEX_POINT('',#589);
#165=VERTEX_POINT('',#590);
#166=VERTEX_POINT('',#592);
#167=VERTEX_POINT('',#597);
#168=VERTEX_POINT('',#599);
#169=VERTEX_POINT('',#603);
#170=VERTEX_POINT('',#604);
#171=VERTEX_POINT('',#609);
#172=VERTEX_POINT('',#611);
#173=VERTEX_POINT('',#615);
#174=VERTEX_POINT('',#616);
#175=VERTEX_POINT('',#621);
#176=VERTEX_POINT('',#625);
#177=VERTEX_POINT('',#627);
#178=VERTEX_POINT('',#631);
#179=VERTEX_POINT('',#633);
#180=VERTEX_POINT('',#643);
#181=EDGE_CURVE('',#153,#153,#120,.T.);
#182=EDGE_CURVE('',#153,#154,#121,.T.);
#183=EDGE_CURVE('',#154,#154,#122,.T.);
#184=EDGE_CURVE('',#155,#155,#123,.T.);
#185=EDGE_CURVE('',#155,#156,#124,.T.);
#186=EDGE_CURVE('',#156,#156,#125,.T.);
#187=EDGE_CURVE('',#156,#157,#38,.T.);
#188=EDGE_CURVE('',#157,#157,#126,.T.);
#189=EDGE_CURVE('',#157,#158,#127,.T.);
#190=EDGE_CURVE('',#158,#158,#128,.T.);
#191=EDGE_CURVE('',#159,#159,#129,.T.);
#192=EDGE_CURVE('',#159,#160,#39,.T.);
#193=EDGE_CURVE('',#160,#160,#130,.T.);
#194=EDGE_CURVE('',#161,#161,#131,.T.);
#195=EDGE_CURVE('',#161,#162,#132,.T.);
#196=EDGE_CURVE('',#162,#162,#133,.T.);
#197=EDGE_CURVE('',#162,#153,#40,.T.);
#198=EDGE_CURVE('',#154,#163,#41,.T.);
#199=EDGE_CURVE('',#163,#163,#134,.T.);
#200=EDGE_CURVE('',#164,#165,#135,.T.);
#201=EDGE_CURVE('',#165,#166,#42,.T.);
#202=EDGE_CURVE('',#166,#166,#136,.T.);
#203=EDGE_CURVE('',#165,#164,#137,.T.);
#204=EDGE_CURVE('',#164,#167,#43,.T.);
#205=EDGE_CURVE('',#167,#168,#138,.T.);
#206=EDGE_CURVE('',#168,#167,#139,.T.);
#207=EDGE_CURVE('',#169,#170,#140,.T.);
#208=EDGE_CURVE('',#170,#168,#44,.T.);
#209=EDGE_CURVE('',#170,#169,#141,.T.);
#210=EDGE_CURVE('',#169,#171,#45,.T.);
#211=EDGE_CURVE('',#171,#172,#142,.T.);
#212=EDGE_CURVE('',#172,#171,#143,.T.);
#213=EDGE_CURVE('',#173,#174,#144,.T.);
#214=EDGE_CURVE('',#174,#172,#46,.T.);
#215=EDGE_CURVE('',#174,#173,#145,.T.);
#216=EDGE_CURVE('',#173,#175,#47,.T.);
#217=EDGE_CURVE('',#175,#175,#146,.T.);
#218=EDGE_CURVE('',#176,#176,#147,.T.);
#219=EDGE_CURVE('',#176,#177,#48,.T.);
#220=EDGE_CURVE('',#177,#177,#148,.T.);
#221=EDGE_CURVE('',#178,#178,#149,.T.);
#222=EDGE_CURVE('',#178,#179,#49,.T.);
#223=EDGE_CURVE('',#179,#179,#150,.T.);
#224=EDGE_CURVE('',#180,#180,#151,.T.);
#225=EDGE_CURVE('',#180,#180,#152,.T.);
#226=ORIENTED_EDGE('',*,*,#181,.F.);
#227=ORIENTED_EDGE('',*,*,#182,.T.);
#228=ORIENTED_EDGE('',*,*,#183,.T.);
#229=ORIENTED_EDGE('',*,*,#182,.F.);
#230=ORIENTED_EDGE('',*,*,#184,.F.);
#231=ORIENTED_EDGE('',*,*,#185,.T.);
#232=ORIENTED_EDGE('',*,*,#186,.T.);
#233=ORIENTED_EDGE('',*,*,#185,.F.);
#234=ORIENTED_EDGE('',*,*,#186,.F.);
#235=ORIENTED_EDGE('',*,*,#187,.T.);
#236=ORIENTED_EDGE('',*,*,#188,.T.);
#237=ORIENTED_EDGE('',*,*,#187,.F.);
#238=ORIENTED_EDGE('',*,*,#188,.F.);
#239=ORIENTED_EDGE('',*,*,#189,.T.);
#240=ORIENTED_EDGE('',*,*,#190,.T.);
#241=ORIENTED_EDGE('',*,*,#189,.F.);
#242=ORIENTED_EDGE('',*,*,#191,.F.);
#243=ORIENTED_EDGE('',*,*,#192,.T.);
#244=ORIENTED_EDGE('',*,*,#193,.T.);
#245=ORIENTED_EDGE('',*,*,#192,.F.);
#246=ORIENTED_EDGE('',*,*,#194,.F.);
#247=ORIENTED_EDGE('',*,*,#195,.T.);
#248=ORIENTED_EDGE('',*,*,#196,.T.);
#249=ORIENTED_EDGE('',*,*,#195,.F.);
#250=ORIENTED_EDGE('',*,*,#196,.F.);
#251=ORIENTED_EDGE('',*,*,#197,.T.);
#252=ORIENTED_EDGE('',*,*,#181,.T.);
#253=ORIENTED_EDGE('',*,*,#197,.F.);
#254=ORIENTED_EDGE('',*,*,#183,.F.);
#255=ORIENTED_EDGE('',*,*,#198,.T.);
#256=ORIENTED_EDGE('',*,*,#199,.T.);
#257=ORIENTED_EDGE('',*,*,#198,.F.);
#258=ORIENTED_EDGE('',*,*,#200,.T.);
#259=ORIENTED_EDGE('',*,*,#201,.T.);
#260=ORIENTED_EDGE('',*,*,#202,.F.);
#261=ORIENTED_EDGE('',*,*,#201,.F.);
#262=ORIENTED_EDGE('',*,*,#203,.T.);
#263=ORIENTED_EDGE('',*,*,#200,.F.);
#264=ORIENTED_EDGE('',*,*,#204,.T.);
#265=ORIENTED_EDGE('',*,*,#205,.T.);
#266=ORIENTED_EDGE('',*,*,#206,.T.);
#267=ORIENTED_EDGE('',*,*,#204,.F.);
#268=ORIENTED_EDGE('',*,*,#203,.F.);
#269=ORIENTED_EDGE('',*,*,#207,.T.);
#270=ORIENTED_EDGE('',*,*,#208,.T.);
#271=ORIENTED_EDGE('',*,*,#205,.F.);
#272=ORIENTED_EDGE('',*,*,#206,.F.);
#273=ORIENTED_EDGE('',*,*,#208,.F.);
#274=ORIENTED_EDGE('',*,*,#209,.T.);
#275=ORIENTED_EDGE('',*,*,#207,.F.);
#276=ORIENTED_EDGE('',*,*,#210,.T.);
#277=ORIENTED_EDGE('',*,*,#211,.T.);
#278=ORIENTED_EDGE('',*,*,#212,.T.);
#279=ORIENTED_EDGE('',*,*,#210,.F.);
#280=ORIENTED_EDGE('',*,*,#209,.F.);
#281=ORIENTED_EDGE('',*,*,#213,.T.);
#282=ORIENTED_EDGE('',*,*,#214,.T.);
#283=ORIENTED_EDGE('',*,*,#211,.F.);
#284=ORIENTED_EDGE('',*,*,#212,.F.);
#285=ORIENTED_EDGE('',*,*,#214,.F.);
#286=ORIENTED_EDGE('',*,*,#215,.T.);
#287=ORIENTED_EDGE('',*,*,#213,.F.);
#288=ORIENTED_EDGE('',*,*,#216,.T.);
#289=ORIENTED_EDGE('',*,*,#217,.T.);
#290=ORIENTED_EDGE('',*,*,#216,.F.);
#291=ORIENTED_EDGE('',*,*,#215,.F.);
#292=ORIENTED_EDGE('',*,*,#218,.F.);
#293=ORIENTED_EDGE('',*,*,#219,.T.);
#294=ORIENTED_EDGE('',*,*,#220,.T.);
#295=ORIENTED_EDGE('',*,*,#219,.F.);
#296=ORIENTED_EDGE('',*,*,#221,.F.);
#297=ORIENTED_EDGE('',*,*,#222,.T.);
#298=ORIENTED_EDGE('',*,*,#223,.T.);
#299=ORIENTED_EDGE('',*,*,#222,.F.);
#300=ORIENTED_EDGE('',*,*,#184,.T.);
#301=ORIENTED_EDGE('',*,*,#223,.F.);
#302=ORIENTED_EDGE('',*,*,#221,.T.);
#303=ORIENTED_EDGE('',*,*,#220,.F.);
#304=ORIENTED_EDGE('',*,*,#218,.T.);
#305=ORIENTED_EDGE('',*,*,#217,.F.);
#306=ORIENTED_EDGE('',*,*,#199,.F.);
#307=ORIENTED_EDGE('',*,*,#202,.T.);
#308=ORIENTED_EDGE('',*,*,#193,.F.);
#309=ORIENTED_EDGE('',*,*,#194,.T.);
#310=ORIENTED_EDGE('',*,*,#190,.F.);
#311=ORIENTED_EDGE('',*,*,#191,.T.);
#312=ORIENTED_EDGE('',*,*,#224,.F.);
#313=ORIENTED_EDGE('',*,*,#225,.T.);
#314=ORIENTED_EDGE('',*,*,#224,.T.);
#315=ORIENTED_EDGE('',*,*,#225,.F.);
#316=TOROIDAL_SURFACE('',#367,0.800524934383202,0.031496062992126);
#317=TOROIDAL_SURFACE('',#371,0.992125984251968,0.0314960629921259);
#318=TOROIDAL_SURFACE('',#377,1.00787401574803,0.0157480314960631);
#319=TOROIDAL_SURFACE('',#383,0.816272965879265,0.0157480314960629);
#320=TOROIDAL_SURFACE('',#420,0.800524934383202,0.031496062992126);
#321=ADVANCED_FACE('',(#68),#316,.F.);
#322=ADVANCED_FACE('',(#69),#317,.T.);
#323=ADVANCED_FACE('',(#70),#62,.T.);
#324=ADVANCED_FACE('',(#71),#318,.T.);
#325=ADVANCED_FACE('',(#72),#63,.F.);
#326=ADVANCED_FACE('',(#73),#319,.F.);
#327=ADVANCED_FACE('',(#74),#64,.T.);
#328=ADVANCED_FACE('',(#75),#65,.T.);
#329=ADVANCED_FACE('',(#76),#32,.F.);
#330=ADVANCED_FACE('',(#77),#33,.F.);
#331=ADVANCED_FACE('',(#78),#34,.F.);
#332=ADVANCED_FACE('',(#79),#35,.F.);
#333=ADVANCED_FACE('',(#80),#36,.T.);
#334=ADVANCED_FACE('',(#81),#37,.F.);
#335=ADVANCED_FACE('',(#82),#66,.T.);
#336=ADVANCED_FACE('',(#83),#67,.F.);
#337=ADVANCED_FACE('',(#84,#20),#26,.F.);
#338=ADVANCED_FACE('',(#85,#21),#27,.F.);
#339=ADVANCED_FACE('',(#86,#22),#28,.F.);
#340=ADVANCED_FACE('',(#87,#23),#29,.F.);
#341=ADVANCED_FACE('',(#88,#24),#30,.F.);
#342=ADVANCED_FACE('',(#89,#25),#31,.F.);
#343=ADVANCED_FACE('',(#90),#320,.T.);
#344=CLOSED_SHELL('',(#321,#322,#323,#324,#325,#326,#327,#328,#329,#330,
#331,#332,#333,#334,#335,#336,#337,#338,#339,#340,#341,#342));
#345=CLOSED_SHELL('',(#343));
#346=DERIVED_UNIT_ELEMENT(#348,1.);
#347=DERIVED_UNIT_ELEMENT(#655,-3.);
#348=(
CONVERSION_BASED_UNIT('gram',#350)
MASS_UNIT()
NAMED_UNIT(#652)
);
#349=(
MASS_UNIT()
NAMED_UNIT(*)
SI_UNIT(.KILO.,.GRAM.)
);
#350=MASS_MEASURE_WITH_UNIT(MASS_MEASURE(0.001),#349);
#351=DERIVED_UNIT((#346,#347));
#352=MEASURE_REPRESENTATION_ITEM('density measure',
POSITIVE_RATIO_MEASURE(7.85),#351);
#353=PROPERTY_DEFINITION_REPRESENTATION(#358,#355);
#354=PROPERTY_DEFINITION_REPRESENTATION(#359,#356);
#355=REPRESENTATION('material name',(#357),#649);
#356=REPRESENTATION('density',(#352),#649);
#357=DESCRIPTIVE_REPRESENTATION_ITEM('Steel, Mild','Steel, Mild');
#358=PROPERTY_DEFINITION('material property','material name',#663);
#359=PROPERTY_DEFINITION('material property','density of part',#663);
#360=DATE_TIME_ROLE('creation_date');
#361=APPLIED_DATE_AND_TIME_ASSIGNMENT(#362,#360,(#663));
#362=DATE_AND_TIME(#363,#364);
#363=CALENDAR_DATE(2021,10,7);
#364=LOCAL_TIME(0,52,35.,#365);
#365=COORDINATED_UNIVERSAL_TIME_OFFSET(0,0,.BEHIND.);
#366=AXIS2_PLACEMENT_3D('',#549,#423,#424);
#367=AXIS2_PLACEMENT_3D('',#550,#425,#426);
#368=AXIS2_PLACEMENT_3D('',#552,#427,#428);
#369=AXIS2_PLACEMENT_3D('',#554,#429,#430);
#370=AXIS2_PLACEMENT_3D('',#555,#431,#432);
#371=AXIS2_PLACEMENT_3D('',#556,#433,#434);
#372=AXIS2_PLACEMENT_3D('',#558,#435,#436);
#373=AXIS2_PLACEMENT_3D('',#560,#437,#438);
#374=AXIS2_PLACEMENT_3D('',#561,#439,#440);
#375=AXIS2_PLACEMENT_3D('',#562,#441,#442);
#376=AXIS2_PLACEMENT_3D('',#565,#444,#445);
#377=AXIS2_PLACEMENT_3D('',#566,#446,#447);
#378=AXIS2_PLACEMENT_3D('',#568,#448,#449);
#379=AXIS2_PLACEMENT_3D('',#569,#450,#451);
#380=AXIS2_PLACEMENT_3D('',#570,#452,#453);
#381=AXIS2_PLACEMENT_3D('',#572,#454,#455);
#382=AXIS2_PLACEMENT_3D('',#575,#457,#458);
#383=AXIS2_PLACEMENT_3D('',#576,#459,#460);
#384=AXIS2_PLACEMENT_3D('',#578,#461,#462);
#385=AXIS2_PLACEMENT_3D('',#580,#463,#464);
#386=AXIS2_PLACEMENT_3D('',#581,#465,#466);
#387=AXIS2_PLACEMENT_3D('',#582,#467,#468);
#388=AXIS2_PLACEMENT_3D('',#584,#470,#471);
#389=AXIS2_PLACEMENT_3D('',#587,#473,#474);
#390=AXIS2_PLACEMENT_3D('',#588,#475,#476);
#391=AXIS2_PLACEMENT_3D('',#591,#477,#478);
#392=AXIS2_PLACEMENT_3D('',#594,#480,#481);
#393=AXIS2_PLACEMENT_3D('',#595,#482,#483);
#394=AXIS2_PLACEMENT_3D('',#596,#484,#485);
#395=AXIS2_PLACEMENT_3D('',#600,#487,#488);
#396=AXIS2_PLACEMENT_3D('',#601,#489,#490);
#397=AXIS2_PLACEMENT_3D('',#602,#491,#492);
#398=AXIS2_PLACEMENT_3D('',#605,#493,#494);
#399=AXIS2_PLACEMENT_3D('',#607,#496,#497);
#400=AXIS2_PLACEMENT_3D('',#608,#498,#499);
#401=AXIS2_PLACEMENT_3D('',#612,#501,#502);
#402=AXIS2_PLACEMENT_3D('',#613,#503,#504);
#403=AXIS2_PLACEMENT_3D('',#614,#505,#506);
#404=AXIS2_PLACEMENT_3D('',#617,#507,#508);
#405=AXIS2_PLACEMENT_3D('',#619,#510,#511);
#406=AXIS2_PLACEMENT_3D('',#620,#512,#513);
#407=AXIS2_PLACEMENT_3D('',#623,#515,#516);
#408=AXIS2_PLACEMENT_3D('',#624,#517,#518);
#409=AXIS2_PLACEMENT_3D('',#626,#519,#520);
#410=AXIS2_PLACEMENT_3D('',#629,#522,#523);
#411=AXIS2_PLACEMENT_3D('',#630,#524,#525);
#412=AXIS2_PLACEMENT_3D('',#632,#526,#527);
#413=AXIS2_PLACEMENT_3D('',#635,#529,#530);
#414=AXIS2_PLACEMENT_3D('',#636,#531,#532);
#415=AXIS2_PLACEMENT_3D('',#637,#533,#534);
#416=AXIS2_PLACEMENT_3D('',#638,#535,#536);
#417=AXIS2_PLACEMENT_3D('',#639,#537,#538);
#418=AXIS2_PLACEMENT_3D('',#640,#539,#540);
#419=AXIS2_PLACEMENT_3D('',#641,#541,#542);
#420=AXIS2_PLACEMENT_3D('',#642,#543,#544);
#421=AXIS2_PLACEMENT_3D('',#644,#545,#546);
#422=AXIS2_PLACEMENT_3D('',#645,#547,#548);
#423=DIRECTION('axis',(0.,0.,1.));
#424=DIRECTION('refdir',(1.,0.,0.));
#425=DIRECTION('center_axis',(-1.,-1.4261130718744E-18,0.));
#426=DIRECTION('ref_axis',(0.,-1.,0.));
#427=DIRECTION('center_axis',(-1.,-1.4261130718744E-18,0.));
#428=DIRECTION('ref_axis',(1.4261130718744E-18,-1.,0.));
#429=DIRECTION('center_axis',(-1.74648480869319E-34,1.22464679914735E-16,
1.));
#430=DIRECTION('ref_axis',(0.,1.,-1.22464679914735E-16));
#431=DIRECTION('center_axis',(-1.,-1.4261130718744E-18,0.));
#432=DIRECTION('ref_axis',(1.4261130718744E-18,-1.,0.));
#433=DIRECTION('center_axis',(-1.,-1.4261130718744E-18,0.));
#434=DIRECTION('ref_axis',(0.,-1.,0.));
#435=DIRECTION('center_axis',(-1.,-1.4261130718744E-18,0.));
#436=DIRECTION('ref_axis',(1.4261130718744E-18,-1.,0.));
#437=DIRECTION('center_axis',(1.74648480869319E-34,-1.22464679914735E-16,
-1.));
#438=DIRECTION('ref_axis',(0.,1.,-1.22464679914735E-16));
#439=DIRECTION('center_axis',(-1.,-1.4261130718744E-18,0.));
#440=DIRECTION('ref_axis',(1.4261130718744E-18,-1.,0.));
#441=DIRECTION('center_axis',(-1.,-1.4261130718744E-18,0.));
#442=DIRECTION('ref_axis',(1.4261130718744E-18,-1.,0.));
#443=DIRECTION('',(1.,1.4261130718744E-18,0.));
#444=DIRECTION('center_axis',(-1.,-1.4261130718744E-18,0.));
#445=DIRECTION('ref_axis',(1.4261130718744E-18,-1.,0.));
#446=DIRECTION('center_axis',(-1.,-1.4261130718744E-18,0.));
#447=DIRECTION('ref_axis',(0.,-1.,0.));
#448=DIRECTION('center_axis',(1.74648480869319E-34,-1.22464679914735E-16,
-1.));
#449=DIRECTION('ref_axis',(0.,1.,-1.22464679914735E-16));
#450=DIRECTION('center_axis',(-1.,-1.4261130718744E-18,0.));
#451=DIRECTION('ref_axis',(1.4261130718744E-18,-1.,0.));
#452=DIRECTION('center_axis',(-1.,-1.4261130718744E-18,0.));
#453=DIRECTION('ref_axis',(1.4261130718744E-18,-1.,0.));
#454=DIRECTION('center_axis',(-1.,-1.4261130718744E-18,0.));
#455=DIRECTION('ref_axis',(1.4261130718744E-18,-1.,0.));
#456=DIRECTION('',(-1.,-1.4261130718744E-18,0.));
#457=DIRECTION('center_axis',(-1.,-1.4261130718744E-18,0.));
#458=DIRECTION('ref_axis',(1.4261130718744E-18,-1.,0.));
#459=DIRECTION('center_axis',(-1.,-1.4261130718744E-18,0.));
#460=DIRECTION('ref_axis',(0.,-1.,0.));
#461=DIRECTION('center_axis',(-1.,-1.4261130718744E-18,0.));
#462=DIRECTION('ref_axis',(1.4261130718744E-18,-1.,0.));
#463=DIRECTION('center_axis',(-1.74648480869319E-34,1.22464679914735E-16,
1.));
#464=DIRECTION('ref_axis',(0.,1.,-1.22464679914735E-16));
#465=DIRECTION('center_axis',(-1.,-1.4261130718744E-18,0.));
#466=DIRECTION('ref_axis',(1.4261130718744E-18,-1.,0.));
#467=DIRECTION('center_axis',(-1.,-1.4261130718744E-18,0.));
#468=DIRECTION('ref_axis',(1.4261130718744E-18,-1.,0.));
#469=DIRECTION('',(1.,1.4261130718744E-18,0.));
#470=DIRECTION('center_axis',(-1.,-1.4261130718744E-18,0.));
#471=DIRECTION('ref_axis',(1.4261130718744E-18,-1.,0.));
#472=DIRECTION('',(1.,1.4261130718744E-18,0.));
#473=DIRECTION('center_axis',(-1.,-1.4261130718744E-18,0.));
#474=DIRECTION('ref_axis',(1.4261130718744E-18,-1.,0.));
#475=DIRECTION('center_axis',(1.,1.4261130718744E-18,0.));
#476=DIRECTION('ref_axis',(-1.4261130718744E-18,1.,0.));
#477=DIRECTION('center_axis',(-1.,-1.4261130718744E-18,0.));
#478=DIRECTION('ref_axis',(1.4261130718744E-18,-1.,0.));
#479=DIRECTION('',(0.732793491626393,-0.680451099367177,-8.33312260816311E-17));
#480=DIRECTION('center_axis',(-1.,-1.4261130718744E-18,0.));
#481=DIRECTION('ref_axis',(1.4261130718744E-18,-1.,0.));
#482=DIRECTION('center_axis',(-1.,-1.4261130718744E-18,0.));
#483=DIRECTION('ref_axis',(1.4261130718744E-18,-1.,0.));
#484=DIRECTION('center_axis',(-1.,-1.4261130718744E-18,0.));
#485=DIRECTION('ref_axis',(1.4261130718744E-18,-1.,0.));
#486=DIRECTION('',(-0.851437970107902,0.524455320364409,-6.42272529380073E-17));
#487=DIRECTION('center_axis',(-1.,-1.4261130718744E-18,0.));
#488=DIRECTION('ref_axis',(1.4261130718744E-18,-1.,0.));
#489=DIRECTION('center_axis',(-1.,-1.4261130718744E-18,0.));
#490=DIRECTION('ref_axis',(1.4261130718744E-18,-1.,0.));
#491=DIRECTION('center_axis',(1.,1.4261130718744E-18,0.));
#492=DIRECTION('ref_axis',(-1.4261130718744E-18,1.,0.));
#493=DIRECTION('center_axis',(-1.,-1.4261130718744E-18,0.));
#494=DIRECTION('ref_axis',(1.4261130718744E-18,-1.,0.));
#495=DIRECTION('',(0.768236621127364,-0.640165989379951,-7.83977229817156E-17));
#496=DIRECTION('center_axis',(-1.,-1.4261130718744E-18,0.));
#497=DIRECTION('ref_axis',(1.4261130718744E-18,-1.,0.));
#498=DIRECTION('center_axis',(-1.,-1.4261130718744E-18,0.));
#499=DIRECTION('ref_axis',(1.4261130718744E-18,-1.,0.));
#500=DIRECTION('',(-0.64016598937995,0.768236621127364,-9.40818519051405E-17));
#501=DIRECTION('center_axis',(-1.,-1.4261130718744E-18,0.));
#502=DIRECTION('ref_axis',(1.4261130718744E-18,-1.,0.));
#503=DIRECTION('center_axis',(-1.,-1.4261130718744E-18,0.));
#504=DIRECTION('ref_axis',(1.4261130718744E-18,-1.,0.));
#505=DIRECTION('center_axis',(1.,1.4261130718744E-18,0.));
#506=DIRECTION('ref_axis',(-1.4261130718744E-18,1.,0.));
#507=DIRECTION('center_axis',(-1.,-1.4261130718744E-18,0.));
#508=DIRECTION('ref_axis',(1.4261130718744E-18,-1.,0.));
#509=DIRECTION('',(-0.768236621127364,0.64016598937995,7.83977229817154E-17));
#510=DIRECTION('center_axis',(-1.,-1.4261130718744E-18,0.));
#511=DIRECTION('ref_axis',(1.4261130718744E-18,-1.,0.));
#512=DIRECTION('center_axis',(-1.,-1.4261130718744E-18,0.));
#513=DIRECTION('ref_axis',(1.4261130718744E-18,-1.,0.));
#514=DIRECTION('',(-0.88311571945741,0.46915522596175,-5.74549445777311E-17));
#515=DIRECTION('center_axis',(-1.,-1.4261130718744E-18,0.));
#516=DIRECTION('ref_axis',(1.4261130718744E-18,-1.,0.));
#517=DIRECTION('center_axis',(-1.,-1.4261130718744E-18,0.));
#518=DIRECTION('ref_axis',(1.4261130718744E-18,-1.,0.));
#519=DIRECTION('center_axis',(-1.,-1.4261130718744E-18,0.));
#520=DIRECTION('ref_axis',(1.4261130718744E-18,-1.,0.));
#521=DIRECTION('',(1.,1.4261130718744E-18,0.));
#522=DIRECTION('center_axis',(-1.,-1.4261130718744E-18,0.));
#523=DIRECTION('ref_axis',(1.4261130718744E-18,-1.,0.));
#524=DIRECTION('center_axis',(-1.,-1.4261130718744E-18,0.));
#525=DIRECTION('ref_axis',(1.4261130718744E-18,-1.,0.));
#526=DIRECTION('center_axis',(-1.,-1.4261130718744E-18,0.));
#527=DIRECTION('ref_axis',(1.4261130718744E-18,-1.,0.));
#528=DIRECTION('',(-1.,-1.4261130718744E-18,0.));
#529=DIRECTION('center_axis',(-1.,-1.4261130718744E-18,0.));
#530=DIRECTION('ref_axis',(1.4261130718744E-18,-1.,0.));
#531=DIRECTION('center_axis',(1.,1.4261130718744E-18,0.));
#532=DIRECTION('ref_axis',(-1.4261130718744E-18,1.,0.));
#533=DIRECTION('center_axis',(1.,1.4261130718744E-18,0.));
#534=DIRECTION('ref_axis',(-1.4261130718744E-18,1.,0.));
#535=DIRECTION('center_axis',(1.,1.4261130718744E-18,0.));
#536=DIRECTION('ref_axis',(-1.4261130718744E-18,1.,0.));
#537=DIRECTION('center_axis',(-1.,-1.4261130718744E-18,0.));
#538=DIRECTION('ref_axis',(1.4261130718744E-18,-1.,0.));
#539=DIRECTION('center_axis',(-1.,-1.4261130718744E-18,0.));
#540=DIRECTION('ref_axis',(1.4261130718744E-18,-1.,0.));
#541=DIRECTION('center_axis',(-1.,-1.4261130718744E-18,0.));
#542=DIRECTION('ref_axis',(1.4261130718744E-18,-1.,0.));
#543=DIRECTION('center_axis',(-1.,0.,0.));
#544=DIRECTION('ref_axis',(0.,0.,1.));
#545=DIRECTION('center_axis',(0.,-1.,1.22464679914735E-16));
#546=DIRECTION('ref_axis',(0.,-1.22464679914735E-16,-1.));
#547=DIRECTION('center_axis',(1.,0.,0.));
#548=DIRECTION('ref_axis',(0.,0.,1.));
#549=CARTESIAN_POINT('',(0.,0.,0.));
#550=CARTESIAN_POINT('Origin',(0.20997375328084,0.,0.));
#551=CARTESIAN_POINT('',(0.178477690288714,0.800524934383202,9.80360298530034E-17));
#552=CARTESIAN_POINT('Origin',(0.178477690288714,-1.94640104297819E-19,
0.));
#553=CARTESIAN_POINT('',(0.241469816272966,0.800524934383202,-9.80360298530033E-17));
#554=CARTESIAN_POINT('Origin',(0.20997375328084,0.800524934383202,-9.80360298530033E-17));
#555=CARTESIAN_POINT('Origin',(0.241469816272966,-1.04806210006518E-19,
0.));
#556=CARTESIAN_POINT('Origin',(0.031496062992126,0.,0.));
#557=CARTESIAN_POINT('',(-7.07441917543995E-19,0.992125984251968,-1.21500391096509E-16));
#558=CARTESIAN_POINT('Origin',(0.,-4.49169471456505E-19,0.));
#559=CARTESIAN_POINT('',(0.031496062992126,1.02362204724409,-1.25357546369414E-16));
#560=CARTESIAN_POINT('Origin',(0.031496062992126,0.992125984251968,-1.21500391096509E-16));
#561=CARTESIAN_POINT('Origin',(0.031496062992126,-4.04252524310854E-19,
0.));
#562=CARTESIAN_POINT('Origin',(0.31496062992126,0.,0.));
#563=CARTESIAN_POINT('',(0.299212598425197,1.02362204724409,-1.25357546369414E-16));
#564=CARTESIAN_POINT('',(0.31496062992126,1.02362204724409,-1.25357546369414E-16));
#565=CARTESIAN_POINT('Origin',(0.299212598425197,-2.24584735728252E-20,
0.));
#566=CARTESIAN_POINT('Origin',(0.299212598425197,0.,0.));
#567=CARTESIAN_POINT('',(0.31496062992126,1.00787401574803,-1.23428968732962E-16));
#568=CARTESIAN_POINT('Origin',(0.299212598425197,1.00787401574803,-1.23428968732962E-16));
#569=CARTESIAN_POINT('Origin',(0.31496062992126,9.94479160086009E-35,0.));
#570=CARTESIAN_POINT('Origin',(0.31496062992126,0.,0.));
#571=CARTESIAN_POINT('',(0.31496062992126,0.912073490813648,-1.11696788111209E-16));
#572=CARTESIAN_POINT('Origin',(0.31496062992126,1.85497369182529E-36,0.));
#573=CARTESIAN_POINT('',(0.10498687664042,0.912073490813648,-1.11696788111209E-16));
#574=CARTESIAN_POINT('',(0.31496062992126,0.912073490813648,-1.11696788111209E-16));
#575=CARTESIAN_POINT('Origin',(0.10498687664042,-2.99446314304336E-19,0.));
#576=CARTESIAN_POINT('Origin',(0.120734908136483,0.,0.));
#577=CARTESIAN_POINT('',(0.10498687664042,0.816272965879265,-9.99646074894559E-17));
#578=CARTESIAN_POINT('Origin',(0.10498687664042,-2.99446314304336E-19,0.));
#579=CARTESIAN_POINT('',(0.120734908136483,0.800524934383202,-9.80360298530033E-17));
#580=CARTESIAN_POINT('Origin',(0.120734908136483,0.816272965879265,-9.99646074894559E-17));
#581=CARTESIAN_POINT('Origin',(0.120734908136483,-2.76987840731511E-19,
0.));
#582=CARTESIAN_POINT('Origin',(0.31496062992126,0.,0.));
#583=CARTESIAN_POINT('',(0.31496062992126,0.800524934383202,-9.80360298530033E-17));
#584=CARTESIAN_POINT('Origin',(0.31496062992126,0.,0.));
#585=CARTESIAN_POINT('',(0.283464566929134,0.800524934383202,-9.80360298530033E-17));
#586=CARTESIAN_POINT('',(0.31496062992126,0.800524934383202,-9.80360298530033E-17));
#587=CARTESIAN_POINT('Origin',(0.283464566929134,-4.49169471456504E-20,
0.));
#588=CARTESIAN_POINT('Origin',(0.20997375328084,-1.49723157152168E-19,0.));
#589=CARTESIAN_POINT('',(0.20997375328084,0.688976377952756,8.77904611593493E-17));
#590=CARTESIAN_POINT('',(0.20997375328084,-0.688976377952756,-8.4375271594798E-17));
#591=CARTESIAN_POINT('Origin',(0.20997375328084,-1.49723157152168E-19,0.));
#592=CARTESIAN_POINT('',(0.283464566929134,-0.75721784776901,-9.27324413527566E-17));
#593=CARTESIAN_POINT('',(0.20997375328084,-0.688976377952756,-8.4375271594798E-17));
#594=CARTESIAN_POINT('Origin',(0.283464566929134,-4.49169471456504E-20,
0.));
#595=CARTESIAN_POINT('Origin',(0.20997375328084,-1.49723157152168E-19,0.));
#596=CARTESIAN_POINT('Origin',(0.119425833593789,-2.78854729048905E-19,
0.));
#597=CARTESIAN_POINT('',(0.119425833593789,0.744750656167979,-9.12056507239007E-17));
#598=CARTESIAN_POINT('',(0.119425833593789,0.744750656167979,-9.12056507239007E-17));
#599=CARTESIAN_POINT('',(0.119425833593789,-0.744750656167979,9.12056507239007E-17));
#600=CARTESIAN_POINT('Origin',(0.119425833593789,-2.78854729048905E-19,
0.));
#601=CARTESIAN_POINT('Origin',(0.119425833593789,-2.78854729048905E-19,
0.));
#602=CARTESIAN_POINT('Origin',(0.05249343832021,-3.7430789288042E-19,0.));
#603=CARTESIAN_POINT('',(0.05249343832021,0.688976377952756,8.63908738065584E-17));
#604=CARTESIAN_POINT('',(0.0524934383202099,-0.688976377952756,-8.4375271594798E-17));
#605=CARTESIAN_POINT('Origin',(0.05249343832021,-3.7430789288042E-19,0.));
#606=CARTESIAN_POINT('',(0.05249343832021,-0.688976377952756,-8.4375271594798E-17));
#607=CARTESIAN_POINT('Origin',(0.05249343832021,-3.7430789288042E-19,0.));
#608=CARTESIAN_POINT('Origin',(0.0250637064865077,-4.13425792006473E-19,
0.));
#609=CARTESIAN_POINT('',(0.0250637064865076,0.721893660113846,-8.84064760183189E-17));
#610=CARTESIAN_POINT('',(0.0250637064865077,0.721893660113846,-8.84064760183189E-17));
#611=CARTESIAN_POINT('',(0.0250637064865077,-0.721893660113846,8.98060633711098E-17));
#612=CARTESIAN_POINT('Origin',(0.0250637064865077,-4.13425792006473E-19,
0.));
#613=CARTESIAN_POINT('Origin',(0.0250637064865077,-4.13425792006473E-19,
0.));
#614=CARTESIAN_POINT('Origin',(0.05249343832021,-3.7430789288042E-19,0.));
#615=CARTESIAN_POINT('',(0.05249343832021,0.744750656167979,9.29132455061763E-17));
#616=CARTESIAN_POINT('',(0.05249343832021,-0.744750656167979,-9.12056507239006E-17));
#617=CARTESIAN_POINT('Origin',(0.05249343832021,-3.7430789288042E-19,0.));
#618=CARTESIAN_POINT('',(0.05249343832021,-0.744750656167979,-9.12056507239006E-17));
#619=CARTESIAN_POINT('Origin',(0.05249343832021,-3.7430789288042E-19,0.));
#620=CARTESIAN_POINT('Origin',(0.,-4.49169471456505E-19,0.));
#621=CARTESIAN_POINT('',(-5.03660011915241E-17,0.772637795275591,-9.4620840288452E-17));
#622=CARTESIAN_POINT('',(-1.10186885966674E-18,0.772637795275591,-9.4620840288452E-17));
#623=CARTESIAN_POINT('Origin',(0.,-4.49169471456505E-19,0.));
#624=CARTESIAN_POINT('Origin',(0.31496062992126,0.,0.));
#625=CARTESIAN_POINT('',(0.,0.800524934383202,-9.80360298530033E-17));
#626=CARTESIAN_POINT('Origin',(0.,-4.49169471456505E-19,0.));
#627=CARTESIAN_POINT('',(0.00984251968503938,0.800524934383202,-9.80360298530033E-17));
#628=CARTESIAN_POINT('',(0.31496062992126,0.800524934383202,-9.80360298530033E-17));
#629=CARTESIAN_POINT('Origin',(0.00984251968503938,-4.35132925473489E-19,
0.));
#630=CARTESIAN_POINT('Origin',(0.31496062992126,0.,0.));
#631=CARTESIAN_POINT('',(0.00984251968503938,0.912073490813648,-1.11696788111209E-16));
#632=CARTESIAN_POINT('Origin',(0.00984251968503938,-4.35132925473489E-19,
0.));
#633=CARTESIAN_POINT('',(4.37095678986282E-17,0.912073490813648,-1.11696788111209E-16));
#634=CARTESIAN_POINT('',(0.31496062992126,0.912073490813648,-1.11696788111209E-16));
#635=CARTESIAN_POINT('Origin',(0.,-4.49169471456505E-19,0.));
#636=CARTESIAN_POINT('Origin',(8.47994302653656E-18,0.992125984251968,0.));
#637=CARTESIAN_POINT('Origin',(0.00984251968503938,0.912073490813648,0.));
#638=CARTESIAN_POINT('Origin',(-1.98851068092723E-20,0.800524934383202,
0.));
#639=CARTESIAN_POINT('Origin',(0.283464566929134,0.75721784776901,0.));
#640=CARTESIAN_POINT('Origin',(0.10498687664042,0.816272965879265,0.));
#641=CARTESIAN_POINT('Origin',(0.31496062992126,0.912073490813648,0.));
#642=CARTESIAN_POINT('Origin',(0.20997375328084,0.,0.));
#643=CARTESIAN_POINT('',(0.20997375328084,-9.41788745800983E-17,-0.769028871391076));
#644=CARTESIAN_POINT('Origin',(0.20997375328084,-9.80360298530033E-17,-0.800524934383202));
#645=CARTESIAN_POINT('Origin',(0.20997375328084,0.,0.));
#646=CARTESIAN_POINT('',(0.,0.,0.));
#647=UNCERTAINTY_MEASURE_WITH_UNIT(LENGTH_MEASURE(0.000393700787401575),
#653,'DISTANCE_ACCURACY_VALUE',
'Maximum model space distance between geometric entities at asserted c
onnectivities');
#648=UNCERTAINTY_MEASURE_WITH_UNIT(LENGTH_MEASURE(0.000393700787401575),
#653,'DISTANCE_ACCURACY_VALUE',
'Maximum model space distance between geometric entities at asserted c
onnectivities');
#649=(
GEOMETRIC_REPRESENTATION_CONTEXT(3)
GLOBAL_UNCERTAINTY_ASSIGNED_CONTEXT((#647))
GLOBAL_UNIT_ASSIGNED_CONTEXT((#653,#657,#658))
REPRESENTATION_CONTEXT('','3D')
);
#650=(
GEOMETRIC_REPRESENTATION_CONTEXT(3)
GLOBAL_UNCERTAINTY_ASSIGNED_CONTEXT((#648))
GLOBAL_UNIT_ASSIGNED_CONTEXT((#653,#657,#658))
REPRESENTATION_CONTEXT('','3D')
);
#651=DIMENSIONAL_EXPONENTS(1.,0.,0.,0.,0.,0.,0.);
#652=DIMENSIONAL_EXPONENTS(0.,1.,0.,0.,0.,0.,0.);
#653=(
CONVERSION_BASED_UNIT('inch',#656)
LENGTH_UNIT()
NAMED_UNIT(#651)
);
#654=(
LENGTH_UNIT()
NAMED_UNIT(*)
SI_UNIT(.MILLI.,.METRE.)
);
#655=(
LENGTH_UNIT()
NAMED_UNIT(*)
SI_UNIT(.CENTI.,.METRE.)
);
#656=LENGTH_MEASURE_WITH_UNIT(LENGTH_MEASURE(25.4),#654);
#657=(
NAMED_UNIT(*)
PLANE_ANGLE_UNIT()
SI_UNIT($,.RADIAN.)
);
#658=(
NAMED_UNIT(*)
SI_UNIT($,.STERADIAN.)
SOLID_ANGLE_UNIT()
);
#659=SHAPE_DEFINITION_REPRESENTATION(#660,#661);
#660=PRODUCT_DEFINITION_SHAPE('',$,#663);
#661=SHAPE_REPRESENTATION('',(#366),#649);
#662=PRODUCT_DEFINITION_CONTEXT('part definition',#667,'design');
#663=PRODUCT_DEFINITION('1199N323','1199N323',#664,#662);
#664=PRODUCT_DEFINITION_FORMATION('ANY',$,#669);
#665=PRODUCT_RELATED_PRODUCT_CATEGORY('1199N323','1199N323',(#669));
#666=APPLICATION_PROTOCOL_DEFINITION('international standard',
'automotive_design',2009,#667);
#667=APPLICATION_CONTEXT(
'Core Data for Automotive Mechanical Design Process');
#668=PRODUCT_CONTEXT('part definition',#667,'mechanical');
#669=PRODUCT('1199N323','1199N323',
'Shaft Seal 35 mm Shaft 52 mm OD x 8.3 Thick',(#668));
#670=PRESENTATION_STYLE_ASSIGNMENT((#673));
#671=PRESENTATION_STYLE_ASSIGNMENT((#674));
#672=PRESENTATION_STYLE_ASSIGNMENT((#675));
#673=SURFACE_STYLE_USAGE(.BOTH.,#680);
#674=SURFACE_STYLE_USAGE(.BOTH.,#681);
#675=SURFACE_STYLE_USAGE(.BOTH.,#682);
#676=SURFACE_STYLE_RENDERING_WITH_PROPERTIES($,#692,(#678));
#677=SURFACE_STYLE_RENDERING_WITH_PROPERTIES($,#693,(#679));
#678=SURFACE_STYLE_TRANSPARENT(0.);
#679=SURFACE_STYLE_TRANSPARENT(0.);
#680=SURFACE_SIDE_STYLE('',(#683,#676));
#681=SURFACE_SIDE_STYLE('',(#684,#677));
#682=SURFACE_SIDE_STYLE('',(#685));
#683=SURFACE_STYLE_FILL_AREA(#686);
#684=SURFACE_STYLE_FILL_AREA(#687);
#685=SURFACE_STYLE_FILL_AREA(#688);
#686=FILL_AREA_STYLE('',(#689));
#687=FILL_AREA_STYLE('',(#690));
#688=FILL_AREA_STYLE('',(#691));
#689=FILL_AREA_STYLE_COLOUR('',#692);
#690=FILL_AREA_STYLE_COLOUR('',#693);
#691=FILL_AREA_STYLE_COLOUR('',#694);
#692=COLOUR_RGB('',0.749019607843137,0.749019607843137,0.749019607843137);
#693=COLOUR_RGB('',0.968627450980392,0.968627450980392,0.898039215686275);
#694=COLOUR_RGB('',0.227450980392157,0.580392156862745,0.341176470588235);
ENDSEC;
END-ISO-10303-21;
