ISO-10303-21;
HEADER;
/* Generated by software containing ST-Developer
 * from STEP Tools, Inc. (www.steptools.com) 
 */

FILE_DESCRIPTION(
/* description */ ('1/4"-20 X 5/8" Long Flange Bolt '),
/* implementation_level */ '2;1');

FILE_NAME(
/* name */ '1_4-20 UNC x 0.625.stp',
/* time_stamp */ '2025-12-15T14:41:27-06:00',
/* author */ ('josh'),
/* organization */ (''),
/* preprocessor_version */ 'ST-DEVELOPER v20',
/* originating_system */ 'Autodesk Inventor 2025',
/* authorisation */ '');

FILE_SCHEMA (('AUTOMOTIVE_DESIGN { 1 0 10303 214 3 1 1 }'));
ENDSEC;

DATA;
#10=MECHANICAL_DESIGN_GEOMETRIC_PRESENTATION_REPRESENTATION('',(#13),#548);
#11=SHAPE_REPRESENTATION_RELATIONSHIP('SRR','None',#559,#12);
#12=ADVANCED_BREP_SHAPE_REPRESENTATION('',(#14),#547);
#13=STYLED_ITEM('',(#568),#14);
#14=MANIFOLD_SOLID_BREP('Solid1',#291);
#15=FACE_BOUND('',#83,.T.);
#16=TOROIDAL_SURFACE('',#342,0.24,0.04);
#17=(
BOUNDED_CURVE()
B_SPLINE_CURVE(2,(#440,#441,#442),.UNSPECIFIED.,.F.,.F.)
B_SPLINE_CURVE_WITH_KNOTS((3,3),(0.,0.278944253566709),.UNSPECIFIED.)
CURVE()
GEOMETRIC_REPRESENTATION_ITEM()
RATIONAL_B_SPLINE_CURVE((1.,1.03795484930206,1.))
REPRESENTATION_ITEM('')
);
#18=(
BOUNDED_CURVE()
B_SPLINE_CURVE(2,(#444,#445,#446),.UNSPECIFIED.,.F.,.F.)
B_SPLINE_CURVE_WITH_KNOTS((3,3),(0.278944253566709,0.557888507133418),
 .UNSPECIFIED.)
CURVE()
GEOMETRIC_REPRESENTATION_ITEM()
RATIONAL_B_SPLINE_CURVE((1.,1.03795484930208,1.))
REPRESENTATION_ITEM('')
);
#19=(
BOUNDED_CURVE()
B_SPLINE_CURVE(2,(#451,#452,#453),.UNSPECIFIED.,.F.,.F.)
B_SPLINE_CURVE_WITH_KNOTS((3,3),(0.278944253566709,0.557888507133418),
 .UNSPECIFIED.)
CURVE()
GEOMETRIC_REPRESENTATION_ITEM()
RATIONAL_B_SPLINE_CURVE((1.,1.03795484930206,1.))
REPRESENTATION_ITEM('')
);
#20=(
BOUNDED_CURVE()
B_SPLINE_CURVE(2,(#455,#456,#457),.UNSPECIFIED.,.F.,.F.)
B_SPLINE_CURVE_WITH_KNOTS((3,3),(0.,0.278944253566709),.UNSPECIFIED.)
CURVE()
GEOMETRIC_REPRESENTATION_ITEM()
RATIONAL_B_SPLINE_CURVE((1.,1.03795484930205,1.))
REPRESENTATION_ITEM('')
);
#21=(
BOUNDED_CURVE()
B_SPLINE_CURVE(2,(#461,#462,#463),.UNSPECIFIED.,.F.,.F.)
B_SPLINE_CURVE_WITH_KNOTS((3,3),(0.278944253566708,0.557888507133417),
 .UNSPECIFIED.)
CURVE()
GEOMETRIC_REPRESENTATION_ITEM()
RATIONAL_B_SPLINE_CURVE((1.,1.03795484930204,1.))
REPRESENTATION_ITEM('')
);
#22=(
BOUNDED_CURVE()
B_SPLINE_CURVE(2,(#465,#466,#467),.UNSPECIFIED.,.F.,.F.)
B_SPLINE_CURVE_WITH_KNOTS((3,3),(0.,0.278944253566709),.UNSPECIFIED.)
CURVE()
GEOMETRIC_REPRESENTATION_ITEM()
RATIONAL_B_SPLINE_CURVE((1.,1.03795484930206,1.))
REPRESENTATION_ITEM('')
);
#23=(
BOUNDED_CURVE()
B_SPLINE_CURVE(2,(#471,#472,#473),.UNSPECIFIED.,.F.,.F.)
B_SPLINE_CURVE_WITH_KNOTS((3,3),(0.,0.278944253566709),.UNSPECIFIED.)
CURVE()
GEOMETRIC_REPRESENTATION_ITEM()
RATIONAL_B_SPLINE_CURVE((1.,1.03795484930206,1.))
REPRESENTATION_ITEM('')
);
#24=(
BOUNDED_CURVE()
B_SPLINE_CURVE(2,(#474,#475,#476),.UNSPECIFIED.,.F.,.F.)
B_SPLINE_CURVE_WITH_KNOTS((3,3),(0.278944253566709,0.557888507133418),
 .UNSPECIFIED.)
CURVE()
GEOMETRIC_REPRESENTATION_ITEM()
RATIONAL_B_SPLINE_CURVE((1.,1.03795484930208,1.))
REPRESENTATION_ITEM('')
);
#25=(
BOUNDED_CURVE()
B_SPLINE_CURVE(2,(#481,#482,#483),.UNSPECIFIED.,.F.,.F.)
B_SPLINE_CURVE_WITH_KNOTS((3,3),(0.278944253566709,0.557888507133417),
 .UNSPECIFIED.)
CURVE()
GEOMETRIC_REPRESENTATION_ITEM()
RATIONAL_B_SPLINE_CURVE((1.,1.03795484930204,1.))
REPRESENTATION_ITEM('')
);
#26=(
BOUNDED_CURVE()
B_SPLINE_CURVE(2,(#485,#486,#487),.UNSPECIFIED.,.F.,.F.)
B_SPLINE_CURVE_WITH_KNOTS((3,3),(0.,0.278944253566708),.UNSPECIFIED.)
CURVE()
GEOMETRIC_REPRESENTATION_ITEM()
RATIONAL_B_SPLINE_CURVE((1.,1.03795484930204,1.))
REPRESENTATION_ITEM('')
);
#27=(
BOUNDED_CURVE()
B_SPLINE_CURVE(2,(#490,#491,#492),.UNSPECIFIED.,.F.,.F.)
B_SPLINE_CURVE_WITH_KNOTS((3,3),(0.278944253566709,0.557888507133418),
 .UNSPECIFIED.)
CURVE()
GEOMETRIC_REPRESENTATION_ITEM()
RATIONAL_B_SPLINE_CURVE((1.,1.03795484930207,1.))
REPRESENTATION_ITEM('')
);
#28=(
BOUNDED_CURVE()
B_SPLINE_CURVE(2,(#494,#495,#496),.UNSPECIFIED.,.F.,.F.)
B_SPLINE_CURVE_WITH_KNOTS((3,3),(0.,0.278944253566709),.UNSPECIFIED.)
CURVE()
GEOMETRIC_REPRESENTATION_ITEM()
RATIONAL_B_SPLINE_CURVE((1.,1.03795484930202,1.))
REPRESENTATION_ITEM('')
);
#29=(
BOUNDED_CURVE()
B_SPLINE_CURVE(2,(#501,#502,#503),.UNSPECIFIED.,.F.,.F.)
B_SPLINE_CURVE_WITH_KNOTS((3,3),(0.146045491609128,0.761146595875705),
 .UNSPECIFIED.)
CURVE()
GEOMETRIC_REPRESENTATION_ITEM()
RATIONAL_B_SPLINE_CURVE((1.09999441699151,1.27016414551318,1.09999441699151))
REPRESENTATION_ITEM('')
);
#30=(
BOUNDED_CURVE()
B_SPLINE_CURVE(2,(#508,#509,#510),.UNSPECIFIED.,.F.,.F.)
B_SPLINE_CURVE_WITH_KNOTS((3,3),(0.146045491609128,0.761146595875705),
 .UNSPECIFIED.)
CURVE()
GEOMETRIC_REPRESENTATION_ITEM()
RATIONAL_B_SPLINE_CURVE((1.09999441699151,1.27016414551318,1.09999441699151))
REPRESENTATION_ITEM('')
);
#31=(
BOUNDED_CURVE()
B_SPLINE_CURVE(2,(#514,#515,#516),.UNSPECIFIED.,.F.,.F.)
B_SPLINE_CURVE_WITH_KNOTS((3,3),(0.146045491609128,0.761146595875705),
 .UNSPECIFIED.)
CURVE()
GEOMETRIC_REPRESENTATION_ITEM()
RATIONAL_B_SPLINE_CURVE((1.09999441699151,1.27016414551318,1.09999441699151))
REPRESENTATION_ITEM('')
);
#32=(
BOUNDED_CURVE()
B_SPLINE_CURVE(2,(#519,#520,#521),.UNSPECIFIED.,.F.,.F.)
B_SPLINE_CURVE_WITH_KNOTS((3,3),(0.146045491609127,0.761146595875705),
 .UNSPECIFIED.)
CURVE()
GEOMETRIC_REPRESENTATION_ITEM()
RATIONAL_B_SPLINE_CURVE((1.09999441699151,1.27016414551318,1.09999441699151))
REPRESENTATION_ITEM('')
);
#33=(
BOUNDED_CURVE()
B_SPLINE_CURVE(2,(#525,#526,#527),.UNSPECIFIED.,.F.,.F.)
B_SPLINE_CURVE_WITH_KNOTS((3,3),(0.146045491609127,0.761146595875705),
 .UNSPECIFIED.)
CURVE()
GEOMETRIC_REPRESENTATION_ITEM()
RATIONAL_B_SPLINE_CURVE((1.09999441699151,1.27016414551319,1.09999441699151))
REPRESENTATION_ITEM('')
);
#34=(
BOUNDED_CURVE()
B_SPLINE_CURVE(2,(#530,#531,#532),.UNSPECIFIED.,.F.,.F.)
B_SPLINE_CURVE_WITH_KNOTS((3,3),(0.146045491609127,0.761146595875706),
 .UNSPECIFIED.)
CURVE()
GEOMETRIC_REPRESENTATION_ITEM()
RATIONAL_B_SPLINE_CURVE((1.09999441699151,1.27016414551319,1.09999441699151))
REPRESENTATION_ITEM('')
);
#35=PLANE('',#319);
#36=PLANE('',#332);
#37=PLANE('',#333);
#38=PLANE('',#334);
#39=PLANE('',#335);
#40=PLANE('',#336);
#41=PLANE('',#337);
#42=PLANE('',#338);
#43=PLANE('',#345);
#44=CYLINDRICAL_SURFACE('',#317,0.125);
#45=FACE_OUTER_BOUND('',#64,.T.);
#46=FACE_OUTER_BOUND('',#65,.T.);
#47=FACE_OUTER_BOUND('',#66,.T.);
#48=FACE_OUTER_BOUND('',#67,.T.);
#49=FACE_OUTER_BOUND('',#68,.T.);
#50=FACE_OUTER_BOUND('',#69,.T.);
#51=FACE_OUTER_BOUND('',#70,.T.);
#52=FACE_OUTER_BOUND('',#71,.T.);
#53=FACE_OUTER_BOUND('',#72,.T.);
#54=FACE_OUTER_BOUND('',#73,.T.);
#55=FACE_OUTER_BOUND('',#74,.T.);
#56=FACE_OUTER_BOUND('',#75,.T.);
#57=FACE_OUTER_BOUND('',#76,.T.);
#58=FACE_OUTER_BOUND('',#77,.T.);
#59=FACE_OUTER_BOUND('',#78,.T.);
#60=FACE_OUTER_BOUND('',#79,.T.);
#61=FACE_OUTER_BOUND('',#80,.T.);
#62=FACE_OUTER_BOUND('',#81,.T.);
#63=FACE_OUTER_BOUND('',#82,.T.);
#64=EDGE_LOOP('',(#182,#183,#184,#185,#186));
#65=EDGE_LOOP('',(#187,#188,#189,#190,#191));
#66=EDGE_LOOP('',(#192));
#67=EDGE_LOOP('',(#193,#194,#195));
#68=EDGE_LOOP('',(#196,#197,#198));
#69=EDGE_LOOP('',(#199,#200,#201));
#70=EDGE_LOOP('',(#202,#203,#204));
#71=EDGE_LOOP('',(#205,#206,#207));
#72=EDGE_LOOP('',(#208,#209,#210));
#73=EDGE_LOOP('',(#211,#212,#213,#214,#215));
#74=EDGE_LOOP('',(#216,#217,#218,#219,#220));
#75=EDGE_LOOP('',(#221,#222,#223,#224,#225));
#76=EDGE_LOOP('',(#226,#227,#228,#229,#230));
#77=EDGE_LOOP('',(#231,#232,#233,#234,#235));
#78=EDGE_LOOP('',(#236,#237,#238,#239,#240));
#79=EDGE_LOOP('',(#241,#242,#243,#244,#245,#246));
#80=EDGE_LOOP('',(#247,#248,#249,#250,#251,#252,#253,#254,#255,#256));
#81=EDGE_LOOP('',(#257,#258,#259,#260,#261));
#82=EDGE_LOOP('',(#262));
#83=EDGE_LOOP('',(#263));
#84=LINE('',#428,#93);
#85=LINE('',#434,#94);
#86=LINE('',#499,#95);
#87=LINE('',#504,#96);
#88=LINE('',#507,#97);
#89=LINE('',#513,#98);
#90=LINE('',#522,#99);
#91=LINE('',#528,#100);
#92=LINE('',#538,#101);
#93=VECTOR('',#352,0.109663750000001);
#94=VECTOR('',#359,0.125);
#95=VECTOR('',#390,0.393700787401575);
#96=VECTOR('',#391,0.393700787401575);
#97=VECTOR('',#394,0.393700787401575);
#98=VECTOR('',#397,0.393700787401575);
#99=VECTOR('',#400,0.393700787401575);
#100=VECTOR('',#403,0.393700787401575);
#101=VECTOR('',#412,0.203562599315953);
#102=CIRCLE('',#314,0.0943275);
#103=CIRCLE('',#315,0.125);
#104=CIRCLE('',#316,0.125);
#105=CIRCLE('',#318,0.125);
#106=CIRCLE('',#321,0.1875);
#107=CIRCLE('',#323,0.1875);
#108=CIRCLE('',#325,0.1875);
#109=CIRCLE('',#327,0.1875);
#110=CIRCLE('',#329,0.1875);
#111=CIRCLE('',#331,0.1875);
#112=CIRCLE('',#340,0.256904730469628);
#113=CIRCLE('',#341,0.256904730469628);
#114=CIRCLE('',#343,0.24);
#115=CIRCLE('',#344,0.04);
#116=VERTEX_POINT('',#425);
#117=VERTEX_POINT('',#427);
#118=VERTEX_POINT('',#429);
#119=VERTEX_POINT('',#433);
#120=VERTEX_POINT('',#438);
#121=VERTEX_POINT('',#439);
#122=VERTEX_POINT('',#443);
#123=VERTEX_POINT('',#449);
#124=VERTEX_POINT('',#450);
#125=VERTEX_POINT('',#459);
#126=VERTEX_POINT('',#460);
#127=VERTEX_POINT('',#469);
#128=VERTEX_POINT('',#470);
#129=VERTEX_POINT('',#479);
#130=VERTEX_POINT('',#480);
#131=VERTEX_POINT('',#489);
#132=VERTEX_POINT('',#498);
#133=VERTEX_POINT('',#500);
#134=VERTEX_POINT('',#506);
#135=VERTEX_POINT('',#512);
#136=VERTEX_POINT('',#518);
#137=VERTEX_POINT('',#524);
#138=VERTEX_POINT('',#535);
#139=VERTEX_POINT('',#536);
#140=VERTEX_POINT('',#541);
#141=EDGE_CURVE('',#116,#116,#102,.T.);
#142=EDGE_CURVE('',#116,#117,#84,.T.);
#143=EDGE_CURVE('',#117,#118,#103,.T.);
#144=EDGE_CURVE('',#118,#117,#104,.T.);
#145=EDGE_CURVE('',#118,#119,#85,.T.);
#146=EDGE_CURVE('',#119,#119,#105,.T.);
#147=EDGE_CURVE('',#120,#121,#17,.T.);
#148=EDGE_CURVE('',#122,#120,#18,.T.);
#149=EDGE_CURVE('',#121,#122,#106,.T.);
#150=EDGE_CURVE('',#123,#124,#19,.T.);
#151=EDGE_CURVE('',#122,#123,#107,.T.);
#152=EDGE_CURVE('',#124,#122,#20,.T.);
#153=EDGE_CURVE('',#125,#126,#21,.T.);
#154=EDGE_CURVE('',#123,#125,#108,.T.);
#155=EDGE_CURVE('',#126,#123,#22,.T.);
#156=EDGE_CURVE('',#127,#128,#23,.T.);
#157=EDGE_CURVE('',#121,#127,#24,.T.);
#158=EDGE_CURVE('',#128,#121,#109,.T.);
#159=EDGE_CURVE('',#129,#130,#25,.T.);
#160=EDGE_CURVE('',#125,#129,#110,.T.);
#161=EDGE_CURVE('',#130,#125,#26,.T.);
#162=EDGE_CURVE('',#128,#131,#27,.T.);
#163=EDGE_CURVE('',#129,#128,#111,.T.);
#164=EDGE_CURVE('',#131,#129,#28,.T.);
#165=EDGE_CURVE('',#132,#130,#86,.T.);
#166=EDGE_CURVE('',#133,#132,#29,.T.);
#167=EDGE_CURVE('',#133,#131,#87,.T.);
#168=EDGE_CURVE('',#134,#126,#88,.T.);
#169=EDGE_CURVE('',#132,#134,#30,.T.);
#170=EDGE_CURVE('',#135,#124,#89,.T.);
#171=EDGE_CURVE('',#134,#135,#31,.T.);
#172=EDGE_CURVE('',#136,#133,#32,.T.);
#173=EDGE_CURVE('',#136,#127,#90,.T.);
#174=EDGE_CURVE('',#137,#136,#33,.T.);
#175=EDGE_CURVE('',#137,#120,#91,.T.);
#176=EDGE_CURVE('',#135,#137,#34,.T.);
#177=EDGE_CURVE('',#138,#139,#112,.T.);
#178=EDGE_CURVE('',#138,#132,#92,.T.);
#179=EDGE_CURVE('',#139,#138,#113,.T.);
#180=EDGE_CURVE('',#140,#140,#114,.T.);
#181=EDGE_CURVE('',#140,#139,#115,.T.);
#182=ORIENTED_EDGE('',*,*,#141,.T.);
#183=ORIENTED_EDGE('',*,*,#142,.T.);
#184=ORIENTED_EDGE('',*,*,#143,.T.);
#185=ORIENTED_EDGE('',*,*,#144,.T.);
#186=ORIENTED_EDGE('',*,*,#142,.F.);
#187=ORIENTED_EDGE('',*,*,#143,.F.);
#188=ORIENTED_EDGE('',*,*,#144,.F.);
#189=ORIENTED_EDGE('',*,*,#145,.T.);
#190=ORIENTED_EDGE('',*,*,#146,.T.);
#191=ORIENTED_EDGE('',*,*,#145,.F.);
#192=ORIENTED_EDGE('',*,*,#141,.F.);
#193=ORIENTED_EDGE('',*,*,#147,.F.);
#194=ORIENTED_EDGE('',*,*,#148,.F.);
#195=ORIENTED_EDGE('',*,*,#149,.F.);
#196=ORIENTED_EDGE('',*,*,#150,.F.);
#197=ORIENTED_EDGE('',*,*,#151,.F.);
#198=ORIENTED_EDGE('',*,*,#152,.F.);
#199=ORIENTED_EDGE('',*,*,#153,.F.);
#200=ORIENTED_EDGE('',*,*,#154,.F.);
#201=ORIENTED_EDGE('',*,*,#155,.F.);
#202=ORIENTED_EDGE('',*,*,#156,.F.);
#203=ORIENTED_EDGE('',*,*,#157,.F.);
#204=ORIENTED_EDGE('',*,*,#158,.F.);
#205=ORIENTED_EDGE('',*,*,#159,.F.);
#206=ORIENTED_EDGE('',*,*,#160,.F.);
#207=ORIENTED_EDGE('',*,*,#161,.F.);
#208=ORIENTED_EDGE('',*,*,#162,.F.);
#209=ORIENTED_EDGE('',*,*,#163,.F.);
#210=ORIENTED_EDGE('',*,*,#164,.F.);
#211=ORIENTED_EDGE('',*,*,#164,.T.);
#212=ORIENTED_EDGE('',*,*,#159,.T.);
#213=ORIENTED_EDGE('',*,*,#165,.F.);
#214=ORIENTED_EDGE('',*,*,#166,.F.);
#215=ORIENTED_EDGE('',*,*,#167,.T.);
#216=ORIENTED_EDGE('',*,*,#161,.T.);
#217=ORIENTED_EDGE('',*,*,#153,.T.);
#218=ORIENTED_EDGE('',*,*,#168,.F.);
#219=ORIENTED_EDGE('',*,*,#169,.F.);
#220=ORIENTED_EDGE('',*,*,#165,.T.);
#221=ORIENTED_EDGE('',*,*,#155,.T.);
#222=ORIENTED_EDGE('',*,*,#150,.T.);
#223=ORIENTED_EDGE('',*,*,#170,.F.);
#224=ORIENTED_EDGE('',*,*,#171,.F.);
#225=ORIENTED_EDGE('',*,*,#168,.T.);
#226=ORIENTED_EDGE('',*,*,#162,.T.);
#227=ORIENTED_EDGE('',*,*,#167,.F.);
#228=ORIENTED_EDGE('',*,*,#172,.F.);
#229=ORIENTED_EDGE('',*,*,#173,.T.);
#230=ORIENTED_EDGE('',*,*,#156,.T.);
#231=ORIENTED_EDGE('',*,*,#157,.T.);
#232=ORIENTED_EDGE('',*,*,#173,.F.);
#233=ORIENTED_EDGE('',*,*,#174,.F.);
#234=ORIENTED_EDGE('',*,*,#175,.T.);
#235=ORIENTED_EDGE('',*,*,#147,.T.);
#236=ORIENTED_EDGE('',*,*,#148,.T.);
#237=ORIENTED_EDGE('',*,*,#175,.F.);
#238=ORIENTED_EDGE('',*,*,#176,.F.);
#239=ORIENTED_EDGE('',*,*,#170,.T.);
#240=ORIENTED_EDGE('',*,*,#152,.T.);
#241=ORIENTED_EDGE('',*,*,#151,.T.);
#242=ORIENTED_EDGE('',*,*,#154,.T.);
#243=ORIENTED_EDGE('',*,*,#160,.T.);
#244=ORIENTED_EDGE('',*,*,#163,.T.);
#245=ORIENTED_EDGE('',*,*,#158,.T.);
#246=ORIENTED_EDGE('',*,*,#149,.T.);
#247=ORIENTED_EDGE('',*,*,#177,.F.);
#248=ORIENTED_EDGE('',*,*,#178,.T.);
#249=ORIENTED_EDGE('',*,*,#169,.T.);
#250=ORIENTED_EDGE('',*,*,#171,.T.);
#251=ORIENTED_EDGE('',*,*,#176,.T.);
#252=ORIENTED_EDGE('',*,*,#174,.T.);
#253=ORIENTED_EDGE('',*,*,#172,.T.);
#254=ORIENTED_EDGE('',*,*,#166,.T.);
#255=ORIENTED_EDGE('',*,*,#178,.F.);
#256=ORIENTED_EDGE('',*,*,#179,.F.);
#257=ORIENTED_EDGE('',*,*,#180,.F.);
#258=ORIENTED_EDGE('',*,*,#181,.T.);
#259=ORIENTED_EDGE('',*,*,#179,.T.);
#260=ORIENTED_EDGE('',*,*,#177,.T.);
#261=ORIENTED_EDGE('',*,*,#181,.F.);
#262=ORIENTED_EDGE('',*,*,#180,.T.);
#263=ORIENTED_EDGE('',*,*,#146,.F.);
#264=CONICAL_SURFACE('',#313,0.10966375,0.785398163397448);
#265=CONICAL_SURFACE('',#320,0.202003175473055,1.0471975511966);
#266=CONICAL_SURFACE('',#322,0.202003175473055,1.0471975511966);
#267=CONICAL_SURFACE('',#324,0.202003175473055,1.0471975511966);
#268=CONICAL_SURFACE('',#326,0.202003175473055,1.0471975511966);
#269=CONICAL_SURFACE('',#328,0.202003175473055,1.0471975511966);
#270=CONICAL_SURFACE('',#330,0.202003175473055,1.0471975511966);
#271=CONICAL_SURFACE('',#339,0.203562599315953,1.13446401379631);
#272=ADVANCED_FACE('',(#45),#264,.T.);
#273=ADVANCED_FACE('',(#46),#44,.T.);
#274=ADVANCED_FACE('',(#47),#35,.T.);
#275=ADVANCED_FACE('',(#48),#265,.T.);
#276=ADVANCED_FACE('',(#49),#266,.T.);
#277=ADVANCED_FACE('',(#50),#267,.T.);
#278=ADVANCED_FACE('',(#51),#268,.T.);
#279=ADVANCED_FACE('',(#52),#269,.T.);
#280=ADVANCED_FACE('',(#53),#270,.T.);
#281=ADVANCED_FACE('',(#54),#36,.T.);
#282=ADVANCED_FACE('',(#55),#37,.T.);
#283=ADVANCED_FACE('',(#56),#38,.T.);
#284=ADVANCED_FACE('',(#57),#39,.T.);
#285=ADVANCED_FACE('',(#58),#40,.T.);
#286=ADVANCED_FACE('',(#59),#41,.T.);
#287=ADVANCED_FACE('',(#60),#42,.F.);
#288=ADVANCED_FACE('',(#61),#271,.T.);
#289=ADVANCED_FACE('',(#62),#16,.T.);
#290=ADVANCED_FACE('',(#63,#15),#43,.T.);
#291=CLOSED_SHELL('',(#272,#273,#274,#275,#276,#277,#278,#279,#280,#281,
#282,#283,#284,#285,#286,#287,#288,#289,#290));
#292=DERIVED_UNIT_ELEMENT(#294,1.);
#293=DERIVED_UNIT_ELEMENT(#553,-3.);
#294=(
CONVERSION_BASED_UNIT('gram',#296)
MASS_UNIT()
NAMED_UNIT(#550)
);
#295=(
MASS_UNIT()
NAMED_UNIT(*)
SI_UNIT(.KILO.,.GRAM.)
);
#296=MASS_MEASURE_WITH_UNIT(MASS_MEASURE(0.001),#295);
#297=DERIVED_UNIT((#292,#293));
#298=MEASURE_REPRESENTATION_ITEM('density measure',
POSITIVE_RATIO_MEASURE(7.85),#297);
#299=PROPERTY_DEFINITION_REPRESENTATION(#304,#301);
#300=PROPERTY_DEFINITION_REPRESENTATION(#305,#302);
#301=REPRESENTATION('material name',(#303),#547);
#302=REPRESENTATION('density',(#298),#547);
#303=DESCRIPTIVE_REPRESENTATION_ITEM('Steel, Mild','Steel, Mild');
#304=PROPERTY_DEFINITION('material property','material name',#561);
#305=PROPERTY_DEFINITION('material property','density of part',#561);
#306=DATE_TIME_ROLE('creation_date');
#307=APPLIED_DATE_AND_TIME_ASSIGNMENT(#308,#306,(#561));
#308=DATE_AND_TIME(#309,#310);
#309=CALENDAR_DATE(2024,20,1);
#310=LOCAL_TIME(0,0,0.,#311);
#311=COORDINATED_UNIVERSAL_TIME_OFFSET(0,0,.BEHIND.);
#312=AXIS2_PLACEMENT_3D('',#423,#346,#347);
#313=AXIS2_PLACEMENT_3D('',#424,#348,#349);
#314=AXIS2_PLACEMENT_3D('',#426,#350,#351);
#315=AXIS2_PLACEMENT_3D('',#430,#353,#354);
#316=AXIS2_PLACEMENT_3D('',#431,#355,#356);
#317=AXIS2_PLACEMENT_3D('',#432,#357,#358);
#318=AXIS2_PLACEMENT_3D('',#435,#360,#361);
#319=AXIS2_PLACEMENT_3D('',#436,#362,#363);
#320=AXIS2_PLACEMENT_3D('',#437,#364,#365);
#321=AXIS2_PLACEMENT_3D('',#447,#366,#367);
#322=AXIS2_PLACEMENT_3D('',#448,#368,#369);
#323=AXIS2_PLACEMENT_3D('',#454,#370,#371);
#324=AXIS2_PLACEMENT_3D('',#458,#372,#373);
#325=AXIS2_PLACEMENT_3D('',#464,#374,#375);
#326=AXIS2_PLACEMENT_3D('',#468,#376,#377);
#327=AXIS2_PLACEMENT_3D('',#477,#378,#379);
#328=AXIS2_PLACEMENT_3D('',#478,#380,#381);
#329=AXIS2_PLACEMENT_3D('',#484,#382,#383);
#330=AXIS2_PLACEMENT_3D('',#488,#384,#385);
#331=AXIS2_PLACEMENT_3D('',#493,#386,#387);
#332=AXIS2_PLACEMENT_3D('',#497,#388,#389);
#333=AXIS2_PLACEMENT_3D('',#505,#392,#393);
#334=AXIS2_PLACEMENT_3D('',#511,#395,#396);
#335=AXIS2_PLACEMENT_3D('',#517,#398,#399);
#336=AXIS2_PLACEMENT_3D('',#523,#401,#402);
#337=AXIS2_PLACEMENT_3D('',#529,#404,#405);
#338=AXIS2_PLACEMENT_3D('',#533,#406,#407);
#339=AXIS2_PLACEMENT_3D('',#534,#408,#409);
#340=AXIS2_PLACEMENT_3D('',#537,#410,#411);
#341=AXIS2_PLACEMENT_3D('',#539,#413,#414);
#342=AXIS2_PLACEMENT_3D('',#540,#415,#416);
#343=AXIS2_PLACEMENT_3D('',#542,#417,#418);
#344=AXIS2_PLACEMENT_3D('',#543,#419,#420);
#345=AXIS2_PLACEMENT_3D('',#544,#421,#422);
#346=DIRECTION('axis',(0.,0.,1.));
#347=DIRECTION('refdir',(1.,0.,0.));
#348=DIRECTION('center_axis',(-1.,-1.16403642872512E-16,0.));
#349=DIRECTION('ref_axis',(-1.64284529859507E-15,-1.,0.));
#350=DIRECTION('center_axis',(-1.,-1.16403642872512E-16,0.));
#351=DIRECTION('ref_axis',(1.16403642872512E-16,-1.,0.));
#352=DIRECTION('',(-0.707106781186552,0.707106781186543,8.65956056235488E-17));
#353=DIRECTION('center_axis',(1.,1.16403642872512E-16,0.));
#354=DIRECTION('ref_axis',(-2.97040973480534E-15,-1.,0.));
#355=DIRECTION('center_axis',(1.,1.16403642872512E-16,0.));
#356=DIRECTION('ref_axis',(-2.97040973480534E-15,-1.,0.));
#357=DIRECTION('center_axis',(1.,1.16403642872512E-16,0.));
#358=DIRECTION('ref_axis',(2.97040973480534E-15,1.,0.));
#359=DIRECTION('',(-1.,-1.16403642872512E-16,0.));
#360=DIRECTION('center_axis',(1.,1.16403642872512E-16,0.));
#361=DIRECTION('ref_axis',(2.97040973480534E-15,1.,0.));
#362=DIRECTION('center_axis',(1.,1.16403642872512E-16,0.));
#363=DIRECTION('ref_axis',(0.,0.,-1.));
#364=DIRECTION('center_axis',(1.,0.,0.));
#365=DIRECTION('ref_axis',(0.,1.,0.));
#366=DIRECTION('center_axis',(-1.,-1.16403642872512E-16,-2.55130885855686E-32));
#367=DIRECTION('ref_axis',(0.,1.,0.));
#368=DIRECTION('center_axis',(1.,0.,0.));
#369=DIRECTION('ref_axis',(0.,1.,0.));
#370=DIRECTION('center_axis',(-1.,-1.16403642872512E-16,-2.55130885855686E-32));
#371=DIRECTION('ref_axis',(0.,1.,0.));
#372=DIRECTION('center_axis',(1.,0.,0.));
#373=DIRECTION('ref_axis',(0.,1.,0.));
#374=DIRECTION('center_axis',(-1.,-1.16403642872512E-16,-2.55130885855686E-32));
#375=DIRECTION('ref_axis',(0.,1.,0.));
#376=DIRECTION('center_axis',(1.,0.,0.));
#377=DIRECTION('ref_axis',(0.,1.,0.));
#378=DIRECTION('center_axis',(-1.,-1.16403642872512E-16,-2.55130885855686E-32));
#379=DIRECTION('ref_axis',(0.,1.,0.));
#380=DIRECTION('center_axis',(1.,0.,0.));
#381=DIRECTION('ref_axis',(0.,-1.,1.22464679914735E-16));
#382=DIRECTION('center_axis',(-1.,-1.16403642872512E-16,-2.55130885855686E-32));
#383=DIRECTION('ref_axis',(0.,1.,0.));
#384=DIRECTION('center_axis',(1.,0.,0.));
#385=DIRECTION('ref_axis',(0.,1.,0.));
#386=DIRECTION('center_axis',(-1.,-1.16403642872512E-16,-2.55130885855686E-32));
#387=DIRECTION('ref_axis',(0.,1.,0.));
#388=DIRECTION('center_axis',(6.75957074797372E-17,-0.866025403784438,0.5));
#389=DIRECTION('ref_axis',(1.,0.,-1.35191414959474E-16));
#390=DIRECTION('',(-1.,-7.80527998189789E-17,0.));
#391=DIRECTION('',(-1.,-7.80527998189789E-17,0.));
#392=DIRECTION('center_axis',(6.75957074797372E-17,-0.866025403784439,-0.499999999999999));
#393=DIRECTION('ref_axis',(0.,0.499999999999999,-0.866025403784439));
#394=DIRECTION('',(-1.,-7.80527998189789E-17,0.));
#395=DIRECTION('center_axis',(5.51521444271725E-32,-7.06600462188186E-16,
-1.));
#396=DIRECTION('ref_axis',(-1.,0.,-5.51521444271725E-32));
#397=DIRECTION('',(-1.,-7.80527998189789E-17,0.));
#398=DIRECTION('center_axis',(-1.57577555506207E-32,2.01885846339482E-16,
1.));
#399=DIRECTION('ref_axis',(1.,0.,1.57577555506207E-32));
#400=DIRECTION('',(-1.,-7.80527998189789E-17,0.));
#401=DIRECTION('center_axis',(-6.75957074797372E-17,0.866025403784439,0.5));
#402=DIRECTION('ref_axis',(1.,0.,1.35191414959474E-16));
#403=DIRECTION('',(-1.,-7.80527998189789E-17,0.));
#404=DIRECTION('center_axis',(-6.75957074797372E-17,0.866025403784438,-0.500000000000001));
#405=DIRECTION('ref_axis',(-1.,0.,1.35191414959474E-16));
#406=DIRECTION('center_axis',(1.,1.16403642872512E-16,2.55130885855686E-32));
#407=DIRECTION('ref_axis',(2.55130885855686E-32,0.,-1.));
#408=DIRECTION('center_axis',(1.,1.16403642872512E-16,0.));
#409=DIRECTION('ref_axis',(2.97040973480534E-15,1.,0.));
#410=DIRECTION('center_axis',(1.,1.16403642872512E-16,0.));
#411=DIRECTION('ref_axis',(2.97040973480534E-15,1.,0.));
#412=DIRECTION('',(-0.422618261740697,0.906307787036651,1.10990693043676E-16));
#413=DIRECTION('center_axis',(1.,1.16403642872512E-16,0.));
#414=DIRECTION('ref_axis',(2.97040973480534E-15,1.,0.));
#415=DIRECTION('center_axis',(1.,1.16403642872512E-16,0.));
#416=DIRECTION('ref_axis',(0.,0.,-1.));
#417=DIRECTION('center_axis',(1.,1.16403642872512E-16,0.));
#418=DIRECTION('ref_axis',(2.97040973480534E-15,1.,0.));
#419=DIRECTION('center_axis',(1.16403642872512E-16,-1.,-1.22464679914735E-16));
#420=DIRECTION('ref_axis',(0.,-1.22464679914735E-16,1.));
#421=DIRECTION('center_axis',(1.,1.16403642872512E-16,0.));
#422=DIRECTION('ref_axis',(0.,0.,-1.));
#423=CARTESIAN_POINT('',(0.,0.,0.));
#424=CARTESIAN_POINT('Origin',(0.60966375,-1.78519536800359E-18,0.));
#425=CARTESIAN_POINT('',(0.625,0.0943275,-1.15517870946572E-17));
#426=CARTESIAN_POINT('Origin',(0.625,-1.09186579524316E-32,0.));
#427=CARTESIAN_POINT('',(0.5943275,0.125,1.53080849893419E-17));
#428=CARTESIAN_POINT('',(0.60966375,0.10966375,1.34299360419996E-17));
#429=CARTESIAN_POINT('',(0.5943275,-0.125,-1.53080849893419E-17));
#430=CARTESIAN_POINT('Origin',(0.5943275,-3.57039073600718E-18,0.));
#431=CARTESIAN_POINT('Origin',(0.5943275,-3.57039073600718E-18,0.));
#432=CARTESIAN_POINT('Origin',(0.3935,-2.69474433249865E-17,0.));
#433=CARTESIAN_POINT('',(-6.11933950580795E-16,-0.125,-1.53080849893419E-17));
#434=CARTESIAN_POINT('',(0.3935,-0.125,-1.53080849893419E-17));
#435=CARTESIAN_POINT('Origin',(6.55643518479423E-17,-7.27522767953199E-17,
0.));
#436=CARTESIAN_POINT('Origin',(0.625,0.0625,0.));
#437=CARTESIAN_POINT('Origin',(-0.271626587736527,0.,0.));
#438=CARTESIAN_POINT('',(-0.263253175473055,0.21650635094611,0.));
#439=CARTESIAN_POINT('',(-0.28,0.162379763209582,0.09375));
#440=CARTESIAN_POINT('Ctrl Pts',(-0.263253175473055,0.21650635094611,1.6396720787931E-16));
#441=CARTESIAN_POINT('Ctrl Pts',(-0.28,0.1875,0.0502404735808361));
#442=CARTESIAN_POINT('Ctrl Pts',(-0.28,0.162379763209582,0.09375));
#443=CARTESIAN_POINT('',(-0.28,0.162379763209582,-0.09375));
#444=CARTESIAN_POINT('Ctrl Pts',(-0.28,0.162379763209582,-0.09375));
#445=CARTESIAN_POINT('Ctrl Pts',(-0.28,0.1875,-0.0502404735808361));
#446=CARTESIAN_POINT('Ctrl Pts',(-0.263253175473055,0.216506350946109,-3.1622247233867E-16));
#447=CARTESIAN_POINT('Origin',(-0.28,0.,0.));
#448=CARTESIAN_POINT('Origin',(-0.271626587736527,0.,0.));
#449=CARTESIAN_POINT('',(-0.28,-1.31128703695885E-16,-0.1875));
#450=CARTESIAN_POINT('',(-0.263253175473055,0.108253175473055,-0.1875));
#451=CARTESIAN_POINT('Ctrl Pts',(-0.28,-1.31128703695885E-16,-0.1875));
#452=CARTESIAN_POINT('Ctrl Pts',(-0.28,0.050240473580835,-0.1875));
#453=CARTESIAN_POINT('Ctrl Pts',(-0.263253175473055,0.108253175473054,-0.1875));
#454=CARTESIAN_POINT('Origin',(-0.28,0.,0.));
#455=CARTESIAN_POINT('Ctrl Pts',(-0.263253175473055,0.108253175473055,-0.1875));
#456=CARTESIAN_POINT('Ctrl Pts',(-0.28,0.137259526419165,-0.137259526419164));
#457=CARTESIAN_POINT('Ctrl Pts',(-0.28,0.162379763209582,-0.09375));
#458=CARTESIAN_POINT('Origin',(-0.271626587736527,0.,0.));
#459=CARTESIAN_POINT('',(-0.28,-0.162379763209582,-0.0937499999999999));
#460=CARTESIAN_POINT('',(-0.263253175473055,-0.108253175473055,-0.1875));
#461=CARTESIAN_POINT('Ctrl Pts',(-0.28,-0.162379763209582,-0.0937499999999999));
#462=CARTESIAN_POINT('Ctrl Pts',(-0.28,-0.137259526419165,-0.137259526419164));
#463=CARTESIAN_POINT('Ctrl Pts',(-0.263253175473055,-0.108253175473055,
-0.1875));
#464=CARTESIAN_POINT('Origin',(-0.28,0.,0.));
#465=CARTESIAN_POINT('Ctrl Pts',(-0.263253175473055,-0.108253175473055,
-0.1875));
#466=CARTESIAN_POINT('Ctrl Pts',(-0.28,-0.0502404735808353,-0.1875));
#467=CARTESIAN_POINT('Ctrl Pts',(-0.28,-1.31128703695885E-16,-0.1875));
#468=CARTESIAN_POINT('Origin',(-0.271626587736527,0.,0.));
#469=CARTESIAN_POINT('',(-0.263253175473055,0.108253175473055,0.1875));
#470=CARTESIAN_POINT('',(-0.28,3.27821759239712E-17,0.1875));
#471=CARTESIAN_POINT('Ctrl Pts',(-0.263253175473055,0.108253175473055,0.1875));
#472=CARTESIAN_POINT('Ctrl Pts',(-0.28,0.0502404735808352,0.1875));
#473=CARTESIAN_POINT('Ctrl Pts',(-0.28,3.27821759239712E-17,0.1875));
#474=CARTESIAN_POINT('Ctrl Pts',(-0.28,0.162379763209582,0.09375));
#475=CARTESIAN_POINT('Ctrl Pts',(-0.28,0.137259526419165,0.137259526419164));
#476=CARTESIAN_POINT('Ctrl Pts',(-0.263253175473055,0.108253175473055,0.1875));
#477=CARTESIAN_POINT('Origin',(-0.28,0.,0.));
#478=CARTESIAN_POINT('Origin',(-0.271626587736527,0.,0.));
#479=CARTESIAN_POINT('',(-0.28,-0.162379763209582,0.0937500000000001));
#480=CARTESIAN_POINT('',(-0.263253175473055,-0.21650635094611,3.27821759239712E-16));
#481=CARTESIAN_POINT('Ctrl Pts',(-0.28,-0.162379763209582,0.0937500000000001));
#482=CARTESIAN_POINT('Ctrl Pts',(-0.28,-0.1875,0.050240473580836));
#483=CARTESIAN_POINT('Ctrl Pts',(-0.263253175473055,-0.21650635094611,4.21629963118227E-16));
#484=CARTESIAN_POINT('Origin',(-0.28,0.,0.));
#485=CARTESIAN_POINT('Ctrl Pts',(-0.263253175473055,-0.216506350946109,
-3.39646359178572E-16));
#486=CARTESIAN_POINT('Ctrl Pts',(-0.28,-0.1875,-0.0502404735808359));
#487=CARTESIAN_POINT('Ctrl Pts',(-0.28,-0.162379763209582,-0.0937499999999999));
#488=CARTESIAN_POINT('Origin',(-0.271626587736527,0.,0.));
#489=CARTESIAN_POINT('',(-0.263253175473055,-0.108253175473055,0.1875));
#490=CARTESIAN_POINT('Ctrl Pts',(-0.28,3.27821759239712E-17,0.1875));
#491=CARTESIAN_POINT('Ctrl Pts',(-0.28,-0.0502404735808351,0.1875));
#492=CARTESIAN_POINT('Ctrl Pts',(-0.263253175473055,-0.108253175473055,
0.1875));
#493=CARTESIAN_POINT('Origin',(-0.28,0.,0.));
#494=CARTESIAN_POINT('Ctrl Pts',(-0.263253175473055,-0.108253175473055,
0.1875));
#495=CARTESIAN_POINT('Ctrl Pts',(-0.28,-0.137259526419165,0.137259526419164));
#496=CARTESIAN_POINT('Ctrl Pts',(-0.28,-0.162379763209582,0.0937500000000001));
#497=CARTESIAN_POINT('Origin',(7.89605272608745E-17,-0.108253175473055,
0.1875));
#498=CARTESIAN_POINT('',(-0.0950903852303346,-0.21650635094611,1.20201311721228E-16));
#499=CARTESIAN_POINT('',(9.15615912384553E-17,-0.21650635094611,1.20201311721228E-16));
#500=CARTESIAN_POINT('',(-0.0950903852303346,-0.108253175473055,0.1875));
#501=CARTESIAN_POINT('Ctrl Pts',(-0.0950903852303346,-0.108253175473055,
0.1875));
#502=CARTESIAN_POINT('Ctrl Pts',(-0.120330027601597,-0.162379763209552,
0.093750000000053));
#503=CARTESIAN_POINT('Ctrl Pts',(-0.0950903852303346,-0.21650635094611,
1.20201311721228E-16));
#504=CARTESIAN_POINT('',(7.89605272608745E-17,-0.108253175473055,0.1875));
#505=CARTESIAN_POINT('Origin',(9.15615912384553E-17,-0.21650635094611,1.20201311721228E-16));
#506=CARTESIAN_POINT('',(-0.0950903852303346,-0.108253175473055,-0.1875));
#507=CARTESIAN_POINT('',(7.89605272608745E-17,-0.108253175473055,-0.1875));
#508=CARTESIAN_POINT('Ctrl Pts',(-0.0950903852303346,-0.21650635094611,
1.20201311721228E-16));
#509=CARTESIAN_POINT('Ctrl Pts',(-0.120330027601597,-0.162379763209613,
-0.0937499999999469));
#510=CARTESIAN_POINT('Ctrl Pts',(-0.0950903852303346,-0.108253175473055,
-0.1875));
#511=CARTESIAN_POINT('Origin',(7.89605272608745E-17,-0.108253175473055,
-0.1875));
#512=CARTESIAN_POINT('',(-0.0950903852303346,0.108253175473055,-0.1875));
#513=CARTESIAN_POINT('',(5.37583993057128E-17,0.108253175473055,-0.1875));
#514=CARTESIAN_POINT('Ctrl Pts',(-0.0950903852303346,-0.108253175473055,
-0.1875));
#515=CARTESIAN_POINT('Ctrl Pts',(-0.120330027601597,-6.14938983373826E-14,
-0.1875));
#516=CARTESIAN_POINT('Ctrl Pts',(-0.0950903852303346,0.108253175473055,
-0.1875));
#517=CARTESIAN_POINT('Origin',(5.37583993057128E-17,0.108253175473055,0.1875));
#518=CARTESIAN_POINT('',(-0.0950903852303346,0.108253175473055,0.1875));
#519=CARTESIAN_POINT('Ctrl Pts',(-0.0950903852303346,0.108253175473055,
0.1875));
#520=CARTESIAN_POINT('Ctrl Pts',(-0.120330027601597,6.11851995140985E-14,
0.1875));
#521=CARTESIAN_POINT('Ctrl Pts',(-0.0950903852303346,-0.108253175473055,
0.1875));
#522=CARTESIAN_POINT('',(5.37583993057128E-17,0.108253175473055,0.1875));
#523=CARTESIAN_POINT('Origin',(4.1157335328132E-17,0.21650635094611,0.));
#524=CARTESIAN_POINT('',(-0.0950903852303346,0.21650635094611,0.));
#525=CARTESIAN_POINT('Ctrl Pts',(-0.0950903852303346,0.21650635094611,0.));
#526=CARTESIAN_POINT('Ctrl Pts',(-0.120330027601597,0.162379763209613,0.093749999999947));
#527=CARTESIAN_POINT('Ctrl Pts',(-0.0950903852303346,0.108253175473055,
0.1875));
#528=CARTESIAN_POINT('',(4.1157335328132E-17,0.21650635094611,0.));
#529=CARTESIAN_POINT('Origin',(5.37583993057128E-17,0.108253175473055,-0.1875));
#530=CARTESIAN_POINT('Ctrl Pts',(-0.0950903852303346,0.108253175473055,
-0.1875));
#531=CARTESIAN_POINT('Ctrl Pts',(-0.120330027601597,0.162379763209552,-0.093750000000053));
#532=CARTESIAN_POINT('Ctrl Pts',(-0.0950903852303346,0.21650635094611,0.));
#533=CARTESIAN_POINT('Origin',(-0.28,-9.83465277719135E-17,2.45866319429784E-17));
#534=CARTESIAN_POINT('Origin',(-0.101126155740733,-8.45237297132342E-17,
0.));
#535=CARTESIAN_POINT('',(-0.0762523114814665,-0.256904730469628,-3.14617555855444E-17));
#536=CARTESIAN_POINT('',(-0.0762523114814659,-1.23100792501792E-16,0.256904730469628));
#537=CARTESIAN_POINT('Origin',(-0.0762523114814659,-8.1628323629212E-17,
0.));
#538=CARTESIAN_POINT('',(-0.101126155740734,-0.203562599315953,-2.49292285678397E-17));
#539=CARTESIAN_POINT('Origin',(-0.0762523114814659,-8.1628323629212E-17,
0.));
#540=CARTESIAN_POINT('Origin',(-0.0399999999999999,-8.74191357972564E-17,
0.));
#541=CARTESIAN_POINT('',(6.55643518479423E-17,-1.12154513261892E-16,0.24));
#542=CARTESIAN_POINT('Origin',(6.55643518479423E-17,-7.27522767953199E-17,
0.));
#543=CARTESIAN_POINT('Origin',(-0.0399999999999999,-1.16810658976793E-16,
0.24));
#544=CARTESIAN_POINT('Origin',(4.51157984590602E-17,0.1825,0.));
#545=UNCERTAINTY_MEASURE_WITH_UNIT(LENGTH_MEASURE(0.000393700787401575),
#551,'DISTANCE_ACCURACY_VALUE',
'Maximum model space distance between geometric entities at asserted c
onnectivities');
#546=UNCERTAINTY_MEASURE_WITH_UNIT(LENGTH_MEASURE(0.000393700787401575),
#551,'DISTANCE_ACCURACY_VALUE',
'Maximum model space distance between geometric entities at asserted c
onnectivities');
#547=(
GEOMETRIC_REPRESENTATION_CONTEXT(3)
GLOBAL_UNCERTAINTY_ASSIGNED_CONTEXT((#545))
GLOBAL_UNIT_ASSIGNED_CONTEXT((#551,#555,#556))
REPRESENTATION_CONTEXT('','3D')
);
#548=(
GEOMETRIC_REPRESENTATION_CONTEXT(3)
GLOBAL_UNCERTAINTY_ASSIGNED_CONTEXT((#546))
GLOBAL_UNIT_ASSIGNED_CONTEXT((#551,#555,#556))
REPRESENTATION_CONTEXT('','3D')
);
#549=DIMENSIONAL_EXPONENTS(1.,0.,0.,0.,0.,0.,0.);
#550=DIMENSIONAL_EXPONENTS(0.,1.,0.,0.,0.,0.,0.);
#551=(
CONVERSION_BASED_UNIT('inch',#554)
LENGTH_UNIT()
NAMED_UNIT(#549)
);
#552=(
LENGTH_UNIT()
NAMED_UNIT(*)
SI_UNIT(.MILLI.,.METRE.)
);
#553=(
LENGTH_UNIT()
NAMED_UNIT(*)
SI_UNIT(.CENTI.,.METRE.)
);
#554=LENGTH_MEASURE_WITH_UNIT(LENGTH_MEASURE(25.4),#552);
#555=(
NAMED_UNIT(*)
PLANE_ANGLE_UNIT()
SI_UNIT($,.RADIAN.)
);
#556=(
NAMED_UNIT(*)
SI_UNIT($,.STERADIAN.)
SOLID_ANGLE_UNIT()
);
#557=SHAPE_DEFINITION_REPRESENTATION(#558,#559);
#558=PRODUCT_DEFINITION_SHAPE('',$,#561);
#559=SHAPE_REPRESENTATION('',(#312),#547);
#560=PRODUCT_DEFINITION_CONTEXT('part definition',#565,'design');
#561=PRODUCT_DEFINITION('1_4-20 UNC x 0.625','1_4-20 UNC x 0.625',#562,
#560);
#562=PRODUCT_DEFINITION_FORMATION('',$,#567);
#563=PRODUCT_RELATED_PRODUCT_CATEGORY('1_4-20 UNC x 0.625',
'1_4-20 UNC x 0.625',(#567));
#564=APPLICATION_PROTOCOL_DEFINITION('international standard',
'automotive_design',2009,#565);
#565=APPLICATION_CONTEXT(
'Core Data for Automotive Mechanical Design Process');
#566=PRODUCT_CONTEXT('part definition',#565,'mechanical');
#567=PRODUCT('1_4-20 UNC x 0.625','1_4-20 UNC x 0.625',
'1/4"-20 X 5/8" Long Flange Bolt ',(#566));
#568=PRESENTATION_STYLE_ASSIGNMENT((#569));
#569=SURFACE_STYLE_USAGE(.BOTH.,#572);
#570=SURFACE_STYLE_RENDERING_WITH_PROPERTIES($,#576,(#571));
#571=SURFACE_STYLE_TRANSPARENT(0.);
#572=SURFACE_SIDE_STYLE('',(#573,#570));
#573=SURFACE_STYLE_FILL_AREA(#574);
#574=FILL_AREA_STYLE('',(#575));
#575=FILL_AREA_STYLE_COLOUR('',#576);
#576=COLOUR_RGB('',0.745098039215686,0.737254901960784,0.729411764705882);
ENDSEC;
END-ISO-10303-21;
