ISO-10303-21;
HEADER;
/* Generated by software containing ST-Developer
 * from STEP Tools, Inc. (www.steptools.com) 
 */

FILE_DESCRIPTION(
/* description */ (
'Motor & Drive, Model:115ZYT-207-24, 800 Watt, 50:1 Ratio '),
/* implementation_level */ '2;1');

FILE_NAME(
/* name */ '251105 Motor_Drive.stp',
/* time_stamp */ '2025-12-15T14:41:38-06:00',
/* author */ ('josh Hofer'),
/* organization */ (''),
/* preprocessor_version */ 'ST-DEVELOPER v20',
/* originating_system */ 'Autodesk Inventor 2025',
/* authorisation */ '');

FILE_SCHEMA (('AUTOMOTIVE_DESIGN { 1 0 10303 214 3 1 1 }'));
ENDSEC;

DATA;
#10=MECHANICAL_DESIGN_GEOMETRIC_PRESENTATION_REPRESENTATION('',(#13),#660);
#11=SHAPE_REPRESENTATION_RELATIONSHIP('SRR','None',#671,#12);
#12=ADVANCED_BREP_SHAPE_REPRESENTATION('',(#14),#659);
#13=STYLED_ITEM('',(#680),#14);
#14=MANIFOLD_SOLID_BREP('Solid1',#382);
#15=FACE_BOUND('',#74,.T.);
#16=FACE_BOUND('',#76,.T.);
#17=FACE_BOUND('',#80,.T.);
#18=FACE_BOUND('',#81,.T.);
#19=FACE_BOUND('',#82,.T.);
#20=FACE_BOUND('',#83,.T.);
#21=FACE_BOUND('',#84,.T.);
#22=FACE_BOUND('',#86,.T.);
#23=FACE_BOUND('',#87,.T.);
#24=FACE_BOUND('',#88,.T.);
#25=FACE_BOUND('',#89,.T.);
#26=FACE_BOUND('',#90,.T.);
#27=PLANE('',#430);
#28=PLANE('',#431);
#29=PLANE('',#432);
#30=PLANE('',#433);
#31=PLANE('',#434);
#32=PLANE('',#435);
#33=PLANE('',#436);
#34=PLANE('',#437);
#35=PLANE('',#438);
#36=PLANE('',#439);
#37=PLANE('',#440);
#38=PLANE('',#441);
#39=PLANE('',#442);
#40=FACE_OUTER_BOUND('',#61,.T.);
#41=FACE_OUTER_BOUND('',#62,.T.);
#42=FACE_OUTER_BOUND('',#63,.T.);
#43=FACE_OUTER_BOUND('',#64,.T.);
#44=FACE_OUTER_BOUND('',#65,.T.);
#45=FACE_OUTER_BOUND('',#66,.T.);
#46=FACE_OUTER_BOUND('',#67,.T.);
#47=FACE_OUTER_BOUND('',#68,.T.);
#48=FACE_OUTER_BOUND('',#69,.T.);
#49=FACE_OUTER_BOUND('',#70,.T.);
#50=FACE_OUTER_BOUND('',#71,.T.);
#51=FACE_OUTER_BOUND('',#72,.T.);
#52=FACE_OUTER_BOUND('',#73,.T.);
#53=FACE_OUTER_BOUND('',#75,.T.);
#54=FACE_OUTER_BOUND('',#77,.T.);
#55=FACE_OUTER_BOUND('',#78,.T.);
#56=FACE_OUTER_BOUND('',#79,.T.);
#57=FACE_OUTER_BOUND('',#85,.T.);
#58=FACE_OUTER_BOUND('',#91,.T.);
#59=FACE_OUTER_BOUND('',#92,.T.);
#60=FACE_OUTER_BOUND('',#93,.T.);
#61=EDGE_LOOP('',(#255,#256,#257,#258));
#62=EDGE_LOOP('',(#259,#260,#261,#262));
#63=EDGE_LOOP('',(#263,#264,#265,#266,#267,#268));
#64=EDGE_LOOP('',(#269,#270,#271,#272));
#65=EDGE_LOOP('',(#273,#274,#275,#276));
#66=EDGE_LOOP('',(#277,#278,#279,#280));
#67=EDGE_LOOP('',(#281,#282,#283,#284));
#68=EDGE_LOOP('',(#285,#286,#287,#288));
#69=EDGE_LOOP('',(#289,#290,#291,#292));
#70=EDGE_LOOP('',(#293,#294,#295,#296));
#71=EDGE_LOOP('',(#297,#298,#299,#300));
#72=EDGE_LOOP('',(#301,#302,#303,#304));
#73=EDGE_LOOP('',(#305));
#74=EDGE_LOOP('',(#306,#307,#308,#309));
#75=EDGE_LOOP('',(#310));
#76=EDGE_LOOP('',(#311,#312,#313,#314));
#77=EDGE_LOOP('',(#315,#316,#317,#318,#319));
#78=EDGE_LOOP('',(#320));
#79=EDGE_LOOP('',(#321,#322,#323,#324,#325));
#80=EDGE_LOOP('',(#326));
#81=EDGE_LOOP('',(#327));
#82=EDGE_LOOP('',(#328));
#83=EDGE_LOOP('',(#329));
#84=EDGE_LOOP('',(#330));
#85=EDGE_LOOP('',(#331,#332,#333,#334,#335));
#86=EDGE_LOOP('',(#336));
#87=EDGE_LOOP('',(#337));
#88=EDGE_LOOP('',(#338));
#89=EDGE_LOOP('',(#339));
#90=EDGE_LOOP('',(#340));
#91=EDGE_LOOP('',(#341,#342,#343,#344));
#92=EDGE_LOOP('',(#345,#346,#347,#348));
#93=EDGE_LOOP('',(#349,#350,#351,#352));
#94=LINE('',#559,#125);
#95=LINE('',#565,#126);
#96=LINE('',#572,#127);
#97=LINE('',#582,#128);
#98=LINE('',#585,#129);
#99=LINE('',#590,#130);
#100=LINE('',#596,#131);
#101=LINE('',#602,#132);
#102=LINE('',#608,#133);
#103=LINE('',#613,#134);
#104=LINE('',#615,#135);
#105=LINE('',#617,#136);
#106=LINE('',#618,#137);
#107=LINE('',#621,#138);
#108=LINE('',#623,#139);
#109=LINE('',#624,#140);
#110=LINE('',#626,#141);
#111=LINE('',#627,#142);
#112=LINE('',#630,#143);
#113=LINE('',#632,#144);
#114=LINE('',#633,#145);
#115=LINE('',#636,#146);
#116=LINE('',#638,#147);
#117=LINE('',#639,#148);
#118=LINE('',#643,#149);
#119=LINE('',#644,#150);
#120=LINE('',#645,#151);
#121=LINE('',#647,#152);
#122=LINE('',#648,#153);
#123=LINE('',#653,#154);
#124=LINE('',#654,#155);
#125=VECTOR('',#449,1.37795275590551);
#126=VECTOR('',#456,1.37795275590551);
#127=VECTOR('',#463,2.24409448818898);
#128=VECTOR('',#474,39.3700787401575);
#129=VECTOR('',#477,39.3700787401575);
#130=VECTOR('',#482,0.15748031496063);
#131=VECTOR('',#489,0.15748031496063);
#132=VECTOR('',#496,0.15748031496063);
#133=VECTOR('',#503,0.15748031496063);
#134=VECTOR('',#508,39.3700787401575);
#135=VECTOR('',#509,39.3700787401575);
#136=VECTOR('',#510,39.3700787401575);
#137=VECTOR('',#511,39.3700787401575);
#138=VECTOR('',#514,39.3700787401575);
#139=VECTOR('',#515,39.3700787401575);
#140=VECTOR('',#516,39.3700787401575);
#141=VECTOR('',#519,39.3700787401575);
#142=VECTOR('',#520,39.3700787401575);
#143=VECTOR('',#523,39.3700787401575);
#144=VECTOR('',#524,39.3700787401575);
#145=VECTOR('',#525,39.3700787401575);
#146=VECTOR('',#528,39.3700787401575);
#147=VECTOR('',#529,39.3700787401575);
#148=VECTOR('',#530,39.3700787401575);
#149=VECTOR('',#533,39.3700787401575);
#150=VECTOR('',#534,39.3700787401575);
#151=VECTOR('',#535,39.3700787401575);
#152=VECTOR('',#538,39.3700787401575);
#153=VECTOR('',#539,39.3700787401575);
#154=VECTOR('',#548,39.3700787401575);
#155=VECTOR('',#549,39.3700787401575);
#156=CIRCLE('',#405,1.37795275590551);
#157=CIRCLE('',#406,1.37795275590551);
#158=CIRCLE('',#408,1.37795275590551);
#159=CIRCLE('',#409,1.37795275590551);
#160=CIRCLE('',#411,2.24409448818898);
#161=CIRCLE('',#412,2.24409448818898);
#162=CIRCLE('',#413,2.24409448818898);
#163=CIRCLE('',#414,2.24409448818898);
#164=CIRCLE('',#416,0.492125984251968);
#165=CIRCLE('',#417,0.492125984251968);
#166=CIRCLE('',#419,0.15748031496063);
#167=CIRCLE('',#420,0.15748031496063);
#168=CIRCLE('',#422,0.15748031496063);
#169=CIRCLE('',#423,0.15748031496063);
#170=CIRCLE('',#425,0.15748031496063);
#171=CIRCLE('',#426,0.15748031496063);
#172=CIRCLE('',#428,0.15748031496063);
#173=CIRCLE('',#429,0.15748031496063);
#174=VERTEX_POINT('',#556);
#175=VERTEX_POINT('',#558);
#176=VERTEX_POINT('',#562);
#177=VERTEX_POINT('',#564);
#178=VERTEX_POINT('',#568);
#179=VERTEX_POINT('',#569);
#180=VERTEX_POINT('',#571);
#181=VERTEX_POINT('',#574);
#182=VERTEX_POINT('',#578);
#183=VERTEX_POINT('',#579);
#184=VERTEX_POINT('',#581);
#185=VERTEX_POINT('',#583);
#186=VERTEX_POINT('',#587);
#187=VERTEX_POINT('',#589);
#188=VERTEX_POINT('',#593);
#189=VERTEX_POINT('',#595);
#190=VERTEX_POINT('',#599);
#191=VERTEX_POINT('',#601);
#192=VERTEX_POINT('',#605);
#193=VERTEX_POINT('',#607);
#194=VERTEX_POINT('',#611);
#195=VERTEX_POINT('',#612);
#196=VERTEX_POINT('',#614);
#197=VERTEX_POINT('',#616);
#198=VERTEX_POINT('',#620);
#199=VERTEX_POINT('',#622);
#200=VERTEX_POINT('',#629);
#201=VERTEX_POINT('',#631);
#202=VERTEX_POINT('',#635);
#203=VERTEX_POINT('',#637);
#204=VERTEX_POINT('',#641);
#205=VERTEX_POINT('',#642);
#206=EDGE_CURVE('',#174,#174,#156,.T.);
#207=EDGE_CURVE('',#174,#175,#94,.T.);
#208=EDGE_CURVE('',#175,#175,#157,.T.);
#209=EDGE_CURVE('',#176,#176,#158,.T.);
#210=EDGE_CURVE('',#176,#177,#95,.T.);
#211=EDGE_CURVE('',#177,#177,#159,.T.);
#212=EDGE_CURVE('',#178,#179,#160,.T.);
#213=EDGE_CURVE('',#179,#180,#96,.T.);
#214=EDGE_CURVE('',#180,#180,#161,.T.);
#215=EDGE_CURVE('',#179,#181,#162,.T.);
#216=EDGE_CURVE('',#181,#178,#163,.T.);
#217=EDGE_CURVE('',#182,#183,#164,.T.);
#218=EDGE_CURVE('',#184,#183,#97,.T.);
#219=EDGE_CURVE('',#185,#184,#165,.T.);
#220=EDGE_CURVE('',#182,#185,#98,.T.);
#221=EDGE_CURVE('',#186,#186,#166,.T.);
#222=EDGE_CURVE('',#186,#187,#99,.T.);
#223=EDGE_CURVE('',#187,#187,#167,.T.);
#224=EDGE_CURVE('',#188,#188,#168,.T.);
#225=EDGE_CURVE('',#188,#189,#100,.T.);
#226=EDGE_CURVE('',#189,#189,#169,.T.);
#227=EDGE_CURVE('',#190,#190,#170,.T.);
#228=EDGE_CURVE('',#190,#191,#101,.T.);
#229=EDGE_CURVE('',#191,#191,#171,.T.);
#230=EDGE_CURVE('',#192,#192,#172,.T.);
#231=EDGE_CURVE('',#192,#193,#102,.T.);
#232=EDGE_CURVE('',#193,#193,#173,.T.);
#233=EDGE_CURVE('',#194,#195,#103,.T.);
#234=EDGE_CURVE('',#195,#196,#104,.T.);
#235=EDGE_CURVE('',#197,#196,#105,.T.);
#236=EDGE_CURVE('',#194,#197,#106,.T.);
#237=EDGE_CURVE('',#198,#178,#107,.T.);
#238=EDGE_CURVE('',#199,#181,#108,.T.);
#239=EDGE_CURVE('',#198,#199,#109,.T.);
#240=EDGE_CURVE('',#195,#198,#110,.T.);
#241=EDGE_CURVE('',#196,#199,#111,.T.);
#242=EDGE_CURVE('',#200,#194,#112,.T.);
#243=EDGE_CURVE('',#201,#197,#113,.T.);
#244=EDGE_CURVE('',#201,#200,#114,.T.);
#245=EDGE_CURVE('',#202,#182,#115,.T.);
#246=EDGE_CURVE('',#203,#202,#116,.T.);
#247=EDGE_CURVE('',#183,#203,#117,.T.);
#248=EDGE_CURVE('',#204,#205,#118,.T.);
#249=EDGE_CURVE('',#205,#185,#119,.T.);
#250=EDGE_CURVE('',#184,#204,#120,.T.);
#251=EDGE_CURVE('',#178,#200,#121,.T.);
#252=EDGE_CURVE('',#181,#201,#122,.T.);
#253=EDGE_CURVE('',#204,#203,#123,.T.);
#254=EDGE_CURVE('',#205,#202,#124,.T.);
#255=ORIENTED_EDGE('',*,*,#206,.T.);
#256=ORIENTED_EDGE('',*,*,#207,.T.);
#257=ORIENTED_EDGE('',*,*,#208,.F.);
#258=ORIENTED_EDGE('',*,*,#207,.F.);
#259=ORIENTED_EDGE('',*,*,#209,.F.);
#260=ORIENTED_EDGE('',*,*,#210,.T.);
#261=ORIENTED_EDGE('',*,*,#211,.T.);
#262=ORIENTED_EDGE('',*,*,#210,.F.);
#263=ORIENTED_EDGE('',*,*,#212,.T.);
#264=ORIENTED_EDGE('',*,*,#213,.T.);
#265=ORIENTED_EDGE('',*,*,#214,.F.);
#266=ORIENTED_EDGE('',*,*,#213,.F.);
#267=ORIENTED_EDGE('',*,*,#215,.T.);
#268=ORIENTED_EDGE('',*,*,#216,.T.);
#269=ORIENTED_EDGE('',*,*,#217,.T.);
#270=ORIENTED_EDGE('',*,*,#218,.F.);
#271=ORIENTED_EDGE('',*,*,#219,.F.);
#272=ORIENTED_EDGE('',*,*,#220,.F.);
#273=ORIENTED_EDGE('',*,*,#221,.F.);
#274=ORIENTED_EDGE('',*,*,#222,.T.);
#275=ORIENTED_EDGE('',*,*,#223,.F.);
#276=ORIENTED_EDGE('',*,*,#222,.F.);
#277=ORIENTED_EDGE('',*,*,#224,.F.);
#278=ORIENTED_EDGE('',*,*,#225,.T.);
#279=ORIENTED_EDGE('',*,*,#226,.F.);
#280=ORIENTED_EDGE('',*,*,#225,.F.);
#281=ORIENTED_EDGE('',*,*,#227,.F.);
#282=ORIENTED_EDGE('',*,*,#228,.T.);
#283=ORIENTED_EDGE('',*,*,#229,.F.);
#284=ORIENTED_EDGE('',*,*,#228,.F.);
#285=ORIENTED_EDGE('',*,*,#230,.F.);
#286=ORIENTED_EDGE('',*,*,#231,.T.);
#287=ORIENTED_EDGE('',*,*,#232,.F.);
#288=ORIENTED_EDGE('',*,*,#231,.F.);
#289=ORIENTED_EDGE('',*,*,#233,.T.);
#290=ORIENTED_EDGE('',*,*,#234,.T.);
#291=ORIENTED_EDGE('',*,*,#235,.F.);
#292=ORIENTED_EDGE('',*,*,#236,.F.);
#293=ORIENTED_EDGE('',*,*,#237,.T.);
#294=ORIENTED_EDGE('',*,*,#216,.F.);
#295=ORIENTED_EDGE('',*,*,#238,.F.);
#296=ORIENTED_EDGE('',*,*,#239,.F.);
#297=ORIENTED_EDGE('',*,*,#240,.T.);
#298=ORIENTED_EDGE('',*,*,#239,.T.);
#299=ORIENTED_EDGE('',*,*,#241,.F.);
#300=ORIENTED_EDGE('',*,*,#234,.F.);
#301=ORIENTED_EDGE('',*,*,#242,.T.);
#302=ORIENTED_EDGE('',*,*,#236,.T.);
#303=ORIENTED_EDGE('',*,*,#243,.F.);
#304=ORIENTED_EDGE('',*,*,#244,.T.);
#305=ORIENTED_EDGE('',*,*,#206,.F.);
#306=ORIENTED_EDGE('',*,*,#245,.F.);
#307=ORIENTED_EDGE('',*,*,#246,.F.);
#308=ORIENTED_EDGE('',*,*,#247,.F.);
#309=ORIENTED_EDGE('',*,*,#217,.F.);
#310=ORIENTED_EDGE('',*,*,#209,.T.);
#311=ORIENTED_EDGE('',*,*,#248,.T.);
#312=ORIENTED_EDGE('',*,*,#249,.T.);
#313=ORIENTED_EDGE('',*,*,#219,.T.);
#314=ORIENTED_EDGE('',*,*,#250,.T.);
#315=ORIENTED_EDGE('',*,*,#212,.F.);
#316=ORIENTED_EDGE('',*,*,#251,.T.);
#317=ORIENTED_EDGE('',*,*,#244,.F.);
#318=ORIENTED_EDGE('',*,*,#252,.F.);
#319=ORIENTED_EDGE('',*,*,#215,.F.);
#320=ORIENTED_EDGE('',*,*,#214,.T.);
#321=ORIENTED_EDGE('',*,*,#243,.T.);
#322=ORIENTED_EDGE('',*,*,#235,.T.);
#323=ORIENTED_EDGE('',*,*,#241,.T.);
#324=ORIENTED_EDGE('',*,*,#238,.T.);
#325=ORIENTED_EDGE('',*,*,#252,.T.);
#326=ORIENTED_EDGE('',*,*,#221,.T.);
#327=ORIENTED_EDGE('',*,*,#224,.T.);
#328=ORIENTED_EDGE('',*,*,#227,.T.);
#329=ORIENTED_EDGE('',*,*,#230,.T.);
#330=ORIENTED_EDGE('',*,*,#211,.F.);
#331=ORIENTED_EDGE('',*,*,#242,.F.);
#332=ORIENTED_EDGE('',*,*,#251,.F.);
#333=ORIENTED_EDGE('',*,*,#237,.F.);
#334=ORIENTED_EDGE('',*,*,#240,.F.);
#335=ORIENTED_EDGE('',*,*,#233,.F.);
#336=ORIENTED_EDGE('',*,*,#208,.T.);
#337=ORIENTED_EDGE('',*,*,#223,.T.);
#338=ORIENTED_EDGE('',*,*,#226,.T.);
#339=ORIENTED_EDGE('',*,*,#229,.T.);
#340=ORIENTED_EDGE('',*,*,#232,.T.);
#341=ORIENTED_EDGE('',*,*,#253,.T.);
#342=ORIENTED_EDGE('',*,*,#246,.T.);
#343=ORIENTED_EDGE('',*,*,#254,.F.);
#344=ORIENTED_EDGE('',*,*,#248,.F.);
#345=ORIENTED_EDGE('',*,*,#254,.T.);
#346=ORIENTED_EDGE('',*,*,#245,.T.);
#347=ORIENTED_EDGE('',*,*,#220,.T.);
#348=ORIENTED_EDGE('',*,*,#249,.F.);
#349=ORIENTED_EDGE('',*,*,#218,.T.);
#350=ORIENTED_EDGE('',*,*,#247,.T.);
#351=ORIENTED_EDGE('',*,*,#253,.F.);
#352=ORIENTED_EDGE('',*,*,#250,.F.);
#353=CYLINDRICAL_SURFACE('',#404,1.37795275590551);
#354=CYLINDRICAL_SURFACE('',#407,1.37795275590551);
#355=CYLINDRICAL_SURFACE('',#410,2.24409448818898);
#356=CYLINDRICAL_SURFACE('',#415,0.492125984251968);
#357=CYLINDRICAL_SURFACE('',#418,0.15748031496063);
#358=CYLINDRICAL_SURFACE('',#421,0.15748031496063);
#359=CYLINDRICAL_SURFACE('',#424,0.15748031496063);
#360=CYLINDRICAL_SURFACE('',#427,0.15748031496063);
#361=ADVANCED_FACE('',(#40),#353,.T.);
#362=ADVANCED_FACE('',(#41),#354,.T.);
#363=ADVANCED_FACE('',(#42),#355,.T.);
#364=ADVANCED_FACE('',(#43),#356,.F.);
#365=ADVANCED_FACE('',(#44),#357,.F.);
#366=ADVANCED_FACE('',(#45),#358,.F.);
#367=ADVANCED_FACE('',(#46),#359,.F.);
#368=ADVANCED_FACE('',(#47),#360,.F.);
#369=ADVANCED_FACE('',(#48),#27,.F.);
#370=ADVANCED_FACE('',(#49),#28,.F.);
#371=ADVANCED_FACE('',(#50),#29,.F.);
#372=ADVANCED_FACE('',(#51),#30,.F.);
#373=ADVANCED_FACE('',(#52,#15),#31,.T.);
#374=ADVANCED_FACE('',(#53,#16),#32,.F.);
#375=ADVANCED_FACE('',(#54),#33,.F.);
#376=ADVANCED_FACE('',(#55),#34,.T.);
#377=ADVANCED_FACE('',(#56,#17,#18,#19,#20,#21),#35,.T.);
#378=ADVANCED_FACE('',(#57,#22,#23,#24,#25,#26),#36,.T.);
#379=ADVANCED_FACE('',(#58),#37,.F.);
#380=ADVANCED_FACE('',(#59),#38,.F.);
#381=ADVANCED_FACE('',(#60),#39,.F.);
#382=CLOSED_SHELL('',(#361,#362,#363,#364,#365,#366,#367,#368,#369,#370,
#371,#372,#373,#374,#375,#376,#377,#378,#379,#380,#381));
#383=DERIVED_UNIT_ELEMENT(#385,1.);
#384=DERIVED_UNIT_ELEMENT(#665,-3.);
#385=(
CONVERSION_BASED_UNIT('gram',#387)
MASS_UNIT()
NAMED_UNIT(#662)
);
#386=(
MASS_UNIT()
NAMED_UNIT(*)
SI_UNIT(.KILO.,.GRAM.)
);
#387=MASS_MEASURE_WITH_UNIT(MASS_MEASURE(0.001),#386);
#388=DERIVED_UNIT((#383,#384));
#389=MEASURE_REPRESENTATION_ITEM('density measure',
POSITIVE_RATIO_MEASURE(1.),#388);
#390=PROPERTY_DEFINITION_REPRESENTATION(#395,#392);
#391=PROPERTY_DEFINITION_REPRESENTATION(#396,#393);
#392=REPRESENTATION('material name',(#394),#659);
#393=REPRESENTATION('density',(#389),#659);
#394=DESCRIPTIVE_REPRESENTATION_ITEM('Generic','Generic');
#395=PROPERTY_DEFINITION('material property','material name',#673);
#396=PROPERTY_DEFINITION('material property','density of part',#673);
#397=DATE_TIME_ROLE('creation_date');
#398=APPLIED_DATE_AND_TIME_ASSIGNMENT(#399,#397,(#673));
#399=DATE_AND_TIME(#400,#401);
#400=CALENDAR_DATE(2022,22,4);
#401=LOCAL_TIME(17,13,34.,#402);
#402=COORDINATED_UNIVERSAL_TIME_OFFSET(0,0,.BEHIND.);
#403=AXIS2_PLACEMENT_3D('',#554,#443,#444);
#404=AXIS2_PLACEMENT_3D('',#555,#445,#446);
#405=AXIS2_PLACEMENT_3D('',#557,#447,#448);
#406=AXIS2_PLACEMENT_3D('',#560,#450,#451);
#407=AXIS2_PLACEMENT_3D('',#561,#452,#453);
#408=AXIS2_PLACEMENT_3D('',#563,#454,#455);
#409=AXIS2_PLACEMENT_3D('',#566,#457,#458);
#410=AXIS2_PLACEMENT_3D('',#567,#459,#460);
#411=AXIS2_PLACEMENT_3D('',#570,#461,#462);
#412=AXIS2_PLACEMENT_3D('',#573,#464,#465);
#413=AXIS2_PLACEMENT_3D('',#575,#466,#467);
#414=AXIS2_PLACEMENT_3D('',#576,#468,#469);
#415=AXIS2_PLACEMENT_3D('',#577,#470,#471);
#416=AXIS2_PLACEMENT_3D('',#580,#472,#473);
#417=AXIS2_PLACEMENT_3D('',#584,#475,#476);
#418=AXIS2_PLACEMENT_3D('',#586,#478,#479);
#419=AXIS2_PLACEMENT_3D('',#588,#480,#481);
#420=AXIS2_PLACEMENT_3D('',#591,#483,#484);
#421=AXIS2_PLACEMENT_3D('',#592,#485,#486);
#422=AXIS2_PLACEMENT_3D('',#594,#487,#488);
#423=AXIS2_PLACEMENT_3D('',#597,#490,#491);
#424=AXIS2_PLACEMENT_3D('',#598,#492,#493);
#425=AXIS2_PLACEMENT_3D('',#600,#494,#495);
#426=AXIS2_PLACEMENT_3D('',#603,#497,#498);
#427=AXIS2_PLACEMENT_3D('',#604,#499,#500);
#428=AXIS2_PLACEMENT_3D('',#606,#501,#502);
#429=AXIS2_PLACEMENT_3D('',#609,#504,#505);
#430=AXIS2_PLACEMENT_3D('',#610,#506,#507);
#431=AXIS2_PLACEMENT_3D('',#619,#512,#513);
#432=AXIS2_PLACEMENT_3D('',#625,#517,#518);
#433=AXIS2_PLACEMENT_3D('',#628,#521,#522);
#434=AXIS2_PLACEMENT_3D('',#634,#526,#527);
#435=AXIS2_PLACEMENT_3D('',#640,#531,#532);
#436=AXIS2_PLACEMENT_3D('',#646,#536,#537);
#437=AXIS2_PLACEMENT_3D('',#649,#540,#541);
#438=AXIS2_PLACEMENT_3D('',#650,#542,#543);
#439=AXIS2_PLACEMENT_3D('',#651,#544,#545);
#440=AXIS2_PLACEMENT_3D('',#652,#546,#547);
#441=AXIS2_PLACEMENT_3D('',#655,#550,#551);
#442=AXIS2_PLACEMENT_3D('',#656,#552,#553);
#443=DIRECTION('axis',(0.,0.,1.));
#444=DIRECTION('refdir',(1.,0.,0.));
#445=DIRECTION('center_axis',(-4.93038065763132E-32,-9.86076131526265E-32,
1.));
#446=DIRECTION('ref_axis',(1.,1.69157904674974E-32,4.93038065763132E-32));
#447=DIRECTION('center_axis',(4.93038065763132E-32,9.86076131526265E-32,
-1.));
#448=DIRECTION('ref_axis',(-1.,-1.69157904674974E-32,-4.93038065763132E-32));
#449=DIRECTION('',(4.93038065763132E-32,9.86076131526265E-32,-1.));
#450=DIRECTION('center_axis',(4.93038065763132E-32,9.86076131526265E-32,
-1.));
#451=DIRECTION('ref_axis',(-1.,-1.69157904674974E-32,-4.93038065763132E-32));
#452=DIRECTION('center_axis',(4.93038065763132E-32,9.86076131526265E-32,
-1.));
#453=DIRECTION('ref_axis',(-1.,-1.69157904674974E-32,-4.93038065763132E-32));
#454=DIRECTION('center_axis',(4.93038065763132E-32,9.86076131526265E-32,
-1.));
#455=DIRECTION('ref_axis',(-1.,-1.69157904674974E-32,-4.93038065763132E-32));
#456=DIRECTION('',(-4.93038065763132E-32,-9.86076131526265E-32,1.));
#457=DIRECTION('center_axis',(4.93038065763132E-32,9.86076131526265E-32,
-1.));
#458=DIRECTION('ref_axis',(-1.,-1.69157904674974E-32,-4.93038065763132E-32));
#459=DIRECTION('center_axis',(1.,1.69157904674974E-32,-4.93038065763133E-32));
#460=DIRECTION('ref_axis',(-4.93038065763133E-32,-8.34012861294937E-64,
-1.));
#461=DIRECTION('center_axis',(-1.,-1.69157904674974E-32,4.93038065763133E-32));
#462=DIRECTION('ref_axis',(4.93038065763133E-32,8.34012861294937E-64,1.));
#463=DIRECTION('',(-1.,-1.69157904674974E-32,4.93038065763133E-32));
#464=DIRECTION('center_axis',(-1.,-1.69157904674974E-32,4.93038065763133E-32));
#465=DIRECTION('ref_axis',(4.93038065763133E-32,8.34012861294937E-64,1.));
#466=DIRECTION('center_axis',(-1.,-1.69157904674974E-32,4.93038065763133E-32));
#467=DIRECTION('ref_axis',(4.93038065763133E-32,8.34012861294937E-64,1.));
#468=DIRECTION('center_axis',(-1.,-1.69157904674974E-32,4.93038065763133E-32));
#469=DIRECTION('ref_axis',(4.93038065763133E-32,8.34012861294937E-64,1.));
#470=DIRECTION('center_axis',(4.93038065763132E-32,9.86076131526265E-32,
-1.));
#471=DIRECTION('ref_axis',(-4.50212443845799E-15,1.,9.86076131526263E-32));
#472=DIRECTION('center_axis',(-4.93038065763132E-32,-9.86076131526265E-32,
1.));
#473=DIRECTION('ref_axis',(1.,-4.86173068582902E-63,4.93038065763132E-32));
#474=DIRECTION('',(-4.93038065763132E-32,-9.86076131526265E-32,1.));
#475=DIRECTION('center_axis',(-4.93038065763132E-32,-9.86076131526265E-32,
1.));
#476=DIRECTION('ref_axis',(1.,1.69157904674974E-32,4.93038065763132E-32));
#477=DIRECTION('',(4.93038065763132E-32,9.86076131526265E-32,-1.));
#478=DIRECTION('center_axis',(-4.93038065763132E-32,-9.86076131526265E-32,
1.));
#479=DIRECTION('ref_axis',(1.,-4.86173068582902E-63,4.93038065763132E-32));
#480=DIRECTION('center_axis',(-4.93038065763132E-32,-9.86076131526265E-32,
1.));
#481=DIRECTION('ref_axis',(-1.,4.86173068582902E-63,-4.93038065763132E-32));
#482=DIRECTION('',(-4.93038065763132E-32,-9.86076131526265E-32,1.));
#483=DIRECTION('center_axis',(4.93038065763132E-32,9.86076131526265E-32,
-1.));
#484=DIRECTION('ref_axis',(1.,-4.86173068582902E-63,4.93038065763132E-32));
#485=DIRECTION('center_axis',(-4.93038065763132E-32,-9.86076131526265E-32,
1.));
#486=DIRECTION('ref_axis',(1.,-4.86173068582902E-63,4.93038065763132E-32));
#487=DIRECTION('center_axis',(-4.93038065763132E-32,-9.86076131526265E-32,
1.));
#488=DIRECTION('ref_axis',(-1.,4.86173068582902E-63,-4.93038065763132E-32));
#489=DIRECTION('',(-4.93038065763132E-32,-9.86076131526265E-32,1.));
#490=DIRECTION('center_axis',(4.93038065763132E-32,9.86076131526265E-32,
-1.));
#491=DIRECTION('ref_axis',(1.,-4.86173068582902E-63,4.93038065763132E-32));
#492=DIRECTION('center_axis',(-4.93038065763132E-32,-9.86076131526265E-32,
1.));
#493=DIRECTION('ref_axis',(1.,-4.86173068582902E-63,4.93038065763132E-32));
#494=DIRECTION('center_axis',(-4.93038065763132E-32,-9.86076131526265E-32,
1.));
#495=DIRECTION('ref_axis',(-1.,4.86173068582902E-63,-4.93038065763132E-32));
#496=DIRECTION('',(-4.93038065763132E-32,-9.86076131526265E-32,1.));
#497=DIRECTION('center_axis',(4.93038065763132E-32,9.86076131526265E-32,
-1.));
#498=DIRECTION('ref_axis',(1.,-4.86173068582902E-63,4.93038065763132E-32));
#499=DIRECTION('center_axis',(-4.93038065763132E-32,-9.86076131526265E-32,
1.));
#500=DIRECTION('ref_axis',(1.,-4.86173068582902E-63,4.93038065763132E-32));
#501=DIRECTION('center_axis',(-4.93038065763132E-32,-9.86076131526265E-32,
1.));
#502=DIRECTION('ref_axis',(-1.,4.86173068582902E-63,-4.93038065763132E-32));
#503=DIRECTION('',(-4.93038065763132E-32,-9.86076131526265E-32,1.));
#504=DIRECTION('center_axis',(4.93038065763132E-32,9.86076131526265E-32,
-1.));
#505=DIRECTION('ref_axis',(1.,-4.86173068582902E-63,4.93038065763132E-32));
#506=DIRECTION('center_axis',(-1.,-1.69157904674974E-32,-4.93038065763132E-32));
#507=DIRECTION('ref_axis',(-4.93038065763132E-32,-9.86076131526265E-32,
1.));
#508=DIRECTION('',(-4.76866936096E-17,-1.,9.86076131526265E-32));
#509=DIRECTION('',(4.93038065763132E-32,9.86076131526265E-32,-1.));
#510=DIRECTION('',(-4.76866936096E-17,-1.,9.86076131526265E-32));
#511=DIRECTION('',(4.93038065763132E-32,9.86076131526265E-32,-1.));
#512=DIRECTION('center_axis',(1.,1.69157904674974E-32,4.93038065763132E-32));
#513=DIRECTION('ref_axis',(4.93038065763132E-32,9.86076131526265E-32,-1.));
#514=DIRECTION('',(1.69157904674974E-32,1.,-9.86076131526265E-32));
#515=DIRECTION('',(1.69157904674974E-32,1.,-9.86076131526265E-32));
#516=DIRECTION('',(4.93038065763132E-32,9.86076131526265E-32,-1.));
#517=DIRECTION('center_axis',(1.69157904674974E-32,1.,9.86076131526265E-32));
#518=DIRECTION('ref_axis',(-4.93038065763132E-32,-9.86076131526265E-32,
1.));
#519=DIRECTION('',(-1.,-1.69157904674974E-32,4.93038065763133E-32));
#520=DIRECTION('',(-1.,-1.69157904674974E-32,4.93038065763133E-32));
#521=DIRECTION('center_axis',(-1.69157904674974E-32,-1.,-9.86076131526265E-32));
#522=DIRECTION('ref_axis',(4.93038065763132E-32,9.86076131526265E-32,-1.));
#523=DIRECTION('',(1.,1.69157904674974E-32,-4.93038065763133E-32));
#524=DIRECTION('',(1.,1.69157904674974E-32,-4.93038065763133E-32));
#525=DIRECTION('',(-4.93038065763132E-32,-9.86076131526265E-32,1.));
#526=DIRECTION('center_axis',(4.93038065763133E-32,-9.86076131526265E-32,
1.));
#527=DIRECTION('ref_axis',(1.,1.69157904674974E-32,-4.93038065763133E-32));
#528=DIRECTION('',(1.69157904674974E-32,1.,-9.86076131526265E-32));
#529=DIRECTION('',(1.,4.33680868994202E-16,-4.93038065763133E-32));
#530=DIRECTION('',(-4.38362501863878E-16,-1.,9.86076131526265E-32));
#531=DIRECTION('center_axis',(4.93038065763133E-32,-9.86076131526265E-32,
1.));
#532=DIRECTION('ref_axis',(1.,1.69157904674974E-32,-4.93038065763133E-32));
#533=DIRECTION('',(1.,4.33680868994202E-16,-4.93038065763133E-32));
#534=DIRECTION('',(1.69157904674974E-32,1.,-9.86076131526265E-32));
#535=DIRECTION('',(-4.38362501863878E-16,-1.,9.86076131526265E-32));
#536=DIRECTION('center_axis',(-1.,-1.69157904674974E-32,-4.93038065763132E-32));
#537=DIRECTION('ref_axis',(-4.93038065763132E-32,-9.86076131526265E-32,
1.));
#538=DIRECTION('',(1.69157904674974E-32,1.,-9.86076131526265E-32));
#539=DIRECTION('',(1.69157904674974E-32,1.,-9.86076131526265E-32));
#540=DIRECTION('center_axis',(-1.,-1.69157904674974E-32,-4.93038065763132E-32));
#541=DIRECTION('ref_axis',(-4.93038065763132E-32,-9.86076131526265E-32,
1.));
#542=DIRECTION('center_axis',(-4.93038065763133E-32,9.86076131526265E-32,
-1.));
#543=DIRECTION('ref_axis',(-1.,-1.69157904674974E-32,4.93038065763133E-32));
#544=DIRECTION('center_axis',(4.93038065763133E-32,-9.86076131526265E-32,
1.));
#545=DIRECTION('ref_axis',(-1.,-1.69157904674974E-32,4.93038065763133E-32));
#546=DIRECTION('center_axis',(4.33680868994202E-16,-1.,9.86076131526265E-32));
#547=DIRECTION('ref_axis',(1.,4.33680868994202E-16,-4.93038065763133E-32));
#548=DIRECTION('',(-4.93038065763132E-32,-9.86076131526265E-32,1.));
#549=DIRECTION('',(-4.93038065763132E-32,-9.86076131526265E-32,1.));
#550=DIRECTION('center_axis',(1.,1.69157904674974E-32,4.93038065763132E-32));
#551=DIRECTION('ref_axis',(4.93038065763132E-32,9.86076131526265E-32,-1.));
#552=DIRECTION('center_axis',(-1.,4.38362501863878E-16,4.93038065763133E-32));
#553=DIRECTION('ref_axis',(-4.38362501863878E-16,-1.,9.86076131526265E-32));
#554=CARTESIAN_POINT('',(0.,0.,0.));
#555=CARTESIAN_POINT('Origin',(-4.37095678986282E-15,0.,1.71259842519685));
#556=CARTESIAN_POINT('',(-1.37795275590552,-1.68750543189596E-16,1.81102362204724));
#557=CARTESIAN_POINT('Origin',(-4.37095678986282E-15,0.,1.81102362204724));
#558=CARTESIAN_POINT('',(-1.37795275590552,-1.68750543189596E-16,1.71259842519685));
#559=CARTESIAN_POINT('',(-1.37795275590552,-1.68750543189596E-16,1.71259842519685));
#560=CARTESIAN_POINT('Origin',(-4.37095678986282E-15,0.,1.71259842519685));
#561=CARTESIAN_POINT('Origin',(0.,0.,-1.71259842519685));
#562=CARTESIAN_POINT('',(1.37795275590551,-1.68750543189596E-16,-1.81102362204724));
#563=CARTESIAN_POINT('Origin',(0.,0.,-1.81102362204724));
#564=CARTESIAN_POINT('',(1.37795275590551,-1.68750543189596E-16,-1.71259842519685));
#565=CARTESIAN_POINT('',(1.37795275590551,-1.68750543189596E-16,-1.71259842519685));
#566=CARTESIAN_POINT('Origin',(0.,0.,-1.71259842519685));
#567=CARTESIAN_POINT('Origin',(-11.8110236220472,2.04133858267716,0.));
#568=CARTESIAN_POINT('',(-2.36220472440945,0.591177658526534,1.71259842519685));
#569=CARTESIAN_POINT('',(-2.36220472440945,2.04133858267716,2.24409448818898));
#570=CARTESIAN_POINT('Origin',(-2.36220472440945,2.04133858267716,0.));
#571=CARTESIAN_POINT('',(-11.8110236220472,2.04133858267716,2.24409448818898));
#572=CARTESIAN_POINT('',(-11.8110236220472,2.04133858267716,2.24409448818898));
#573=CARTESIAN_POINT('Origin',(-11.8110236220472,2.04133858267716,0.));
#574=CARTESIAN_POINT('',(-2.36220472440945,0.591177658526533,-1.71259842519685));
#575=CARTESIAN_POINT('Origin',(-2.36220472440945,2.04133858267716,0.));
#576=CARTESIAN_POINT('Origin',(-2.36220472440945,2.04133858267716,0.));
#577=CARTESIAN_POINT('Origin',(-4.37095678986282E-15,1.09273919746571E-15,
1.81102362204724));
#578=CARTESIAN_POINT('',(0.157480314960626,-0.466248790642795,1.81102362204724));
#579=CARTESIAN_POINT('',(-0.157480314960634,-0.466248790642795,1.81102362204724));
#580=CARTESIAN_POINT('Origin',(-4.37095678986282E-15,1.09273919746571E-15,
1.81102362204724));
#581=CARTESIAN_POINT('',(-0.15748031496063,-0.466248790642795,-1.81102362204724));
#582=CARTESIAN_POINT('',(-0.157480314960634,-0.466248790642795,1.81102362204724));
#583=CARTESIAN_POINT('',(0.15748031496063,-0.466248790642795,-1.81102362204724));
#584=CARTESIAN_POINT('Origin',(0.,0.,-1.81102362204724));
#585=CARTESIAN_POINT('',(0.157480314960626,-0.466248790642795,1.81102362204724));
#586=CARTESIAN_POINT('Origin',(-1.1831511102531,-1.18315111025306,-2.24409448818898));
#587=CARTESIAN_POINT('',(-1.34063142521373,-1.18315111025306,-1.71259842519685));
#588=CARTESIAN_POINT('Origin',(-1.1831511102531,-1.18315111025306,-1.71259842519685));
#589=CARTESIAN_POINT('',(-1.34063142521373,-1.18315111025306,1.71259842519685));
#590=CARTESIAN_POINT('',(-1.34063142521373,-1.18315111025306,-2.24409448818898));
#591=CARTESIAN_POINT('Origin',(-1.1831511102531,-1.18315111025306,1.71259842519685));
#592=CARTESIAN_POINT('Origin',(1.18315111025306,-1.18315111025309,-2.24409448818898));
#593=CARTESIAN_POINT('',(1.02567079529243,-1.18315111025309,-1.71259842519685));
#594=CARTESIAN_POINT('Origin',(1.18315111025306,-1.1831511102531,-1.71259842519685));
#595=CARTESIAN_POINT('',(1.02567079529243,-1.18315111025309,1.71259842519685));
#596=CARTESIAN_POINT('',(1.02567079529243,-1.18315111025309,-2.24409448818898));
#597=CARTESIAN_POINT('Origin',(1.18315111025306,-1.1831511102531,1.71259842519685));
#598=CARTESIAN_POINT('Origin',(1.18315111025309,1.18315111025307,-2.24409448818898));
#599=CARTESIAN_POINT('',(1.02567079529246,1.18315111025307,-1.71259842519685));
#600=CARTESIAN_POINT('Origin',(1.18315111025309,1.18315111025307,-1.71259842519685));
#601=CARTESIAN_POINT('',(1.02567079529246,1.18315111025307,1.71259842519685));
#602=CARTESIAN_POINT('',(1.02567079529246,1.18315111025307,-2.24409448818898));
#603=CARTESIAN_POINT('Origin',(1.18315111025309,1.18315111025307,1.71259842519685));
#604=CARTESIAN_POINT('Origin',(-1.18315111025308,1.18315111025309,-2.24409448818898));
#605=CARTESIAN_POINT('',(-1.34063142521371,1.18315111025309,-1.71259842519685));
#606=CARTESIAN_POINT('Origin',(-1.18315111025308,1.18315111025309,-1.71259842519685));
#607=CARTESIAN_POINT('',(-1.34063142521371,1.18315111025309,1.71259842519685));
#608=CARTESIAN_POINT('',(-1.34063142521371,1.18315111025309,-2.24409448818898));
#609=CARTESIAN_POINT('Origin',(-1.18315111025308,1.18315111025309,1.71259842519685));
#610=CARTESIAN_POINT('Origin',(2.36220472440944,2.36220472440945,1.81102362204724));
#611=CARTESIAN_POINT('',(2.36220472440944,3.36653800627613,1.71259842519685));
#612=CARTESIAN_POINT('',(2.36220472440944,-2.36220472440945,1.71259842519685));
#613=CARTESIAN_POINT('',(2.36220472440944,3.36653800627613,1.71259842519685));
#614=CARTESIAN_POINT('',(2.36220472440944,-2.36220472440945,-1.71259842519685));
#615=CARTESIAN_POINT('',(2.36220472440944,-2.36220472440945,1.81102362204724));
#616=CARTESIAN_POINT('',(2.36220472440944,3.36653800627613,-1.71259842519685));
#617=CARTESIAN_POINT('',(2.36220472440944,3.36653800627613,-1.71259842519685));
#618=CARTESIAN_POINT('',(2.36220472440944,3.36653800627613,1.81102362204725));
#619=CARTESIAN_POINT('Origin',(-2.36220472440945,2.36220472440945,1.81102362204724));
#620=CARTESIAN_POINT('',(-2.36220472440945,-2.36220472440945,1.71259842519685));
#621=CARTESIAN_POINT('',(-2.36220472440945,0.7161391590782,1.71259842519685));
#622=CARTESIAN_POINT('',(-2.36220472440945,-2.36220472440945,-1.71259842519685));
#623=CARTESIAN_POINT('',(-2.36220472440945,-2.36220472440945,-1.71259842519685));
#624=CARTESIAN_POINT('',(-2.36220472440945,-2.36220472440945,1.81102362204725));
#625=CARTESIAN_POINT('Origin',(-2.36220472440945,-2.36220472440945,1.81102362204725));
#626=CARTESIAN_POINT('',(2.36220472440944,-2.36220472440945,1.71259842519685));
#627=CARTESIAN_POINT('',(2.36220472440944,-2.36220472440945,-1.71259842519685));
#628=CARTESIAN_POINT('Origin',(6.12091614982076,3.36653800627613,1.81102362204725));
#629=CARTESIAN_POINT('',(-2.36220472440945,3.36653800627613,1.71259842519685));
#630=CARTESIAN_POINT('',(-2.36220472440945,3.36653800627613,1.71259842519685));
#631=CARTESIAN_POINT('',(-2.36220472440945,3.36653800627613,-1.71259842519685));
#632=CARTESIAN_POINT('',(-2.36220472440945,3.36653800627613,-1.71259842519685));
#633=CARTESIAN_POINT('',(-2.36220472440945,3.36653800627613,1.81102362204724));
#634=CARTESIAN_POINT('Origin',(-4.37095678986282E-15,0.,1.81102362204724));
#635=CARTESIAN_POINT('',(0.157480314960626,-0.622047244094487,1.81102362204724));
#636=CARTESIAN_POINT('',(0.157480314960626,-0.466248790642795,1.81102362204724));
#637=CARTESIAN_POINT('',(-0.157480314960634,-0.622047244094487,1.81102362204724));
#638=CARTESIAN_POINT('',(0.157480314960626,-0.622047244094487,1.81102362204724));
#639=CARTESIAN_POINT('',(-0.157480314960634,-0.466248790642795,1.81102362204724));
#640=CARTESIAN_POINT('Origin',(0.,0.,-1.81102362204724));
#641=CARTESIAN_POINT('',(-0.15748031496063,-0.622047244094487,-1.81102362204724));
#642=CARTESIAN_POINT('',(0.15748031496063,-0.622047244094487,-1.81102362204724));
#643=CARTESIAN_POINT('',(0.,-0.622047244094487,-1.81102362204724));
#644=CARTESIAN_POINT('',(0.15748031496063,0.,-1.81102362204724));
#645=CARTESIAN_POINT('',(-0.15748031496063,0.,-1.81102362204724));
#646=CARTESIAN_POINT('Origin',(-2.36220472440945,2.04133858267716,0.));
#647=CARTESIAN_POINT('',(-2.36220472440945,0.7161391590782,1.71259842519685));
#648=CARTESIAN_POINT('',(-2.36220472440945,-2.36220472440945,-1.71259842519685));
#649=CARTESIAN_POINT('Origin',(-11.8110236220472,2.04133858267716,0.));
#650=CARTESIAN_POINT('Origin',(0.,0.,-1.71259842519685));
#651=CARTESIAN_POINT('Origin',(-4.37095678986282E-15,0.,1.71259842519685));
#652=CARTESIAN_POINT('Origin',(0.15748031496063,-0.622047244094485,-2.24409448818898));
#653=CARTESIAN_POINT('',(-0.15748031496063,-0.622047244094485,-2.24409448818898));
#654=CARTESIAN_POINT('',(0.15748031496063,-0.622047244094485,-2.24409448818898));
#655=CARTESIAN_POINT('Origin',(0.15748031496063,-0.466248790642793,-2.24409448818898));
#656=CARTESIAN_POINT('Origin',(-0.15748031496063,-0.466248790642793,-2.24409448818898));
#657=UNCERTAINTY_MEASURE_WITH_UNIT(LENGTH_MEASURE(0.000393700787401575),
#663,'DISTANCE_ACCURACY_VALUE',
'Maximum model space distance between geometric entities at asserted c
onnectivities');
#658=UNCERTAINTY_MEASURE_WITH_UNIT(LENGTH_MEASURE(0.000393700787401575),
#663,'DISTANCE_ACCURACY_VALUE',
'Maximum model space distance between geometric entities at asserted c
onnectivities');
#659=(
GEOMETRIC_REPRESENTATION_CONTEXT(3)
GLOBAL_UNCERTAINTY_ASSIGNED_CONTEXT((#657))
GLOBAL_UNIT_ASSIGNED_CONTEXT((#663,#667,#668))
REPRESENTATION_CONTEXT('','3D')
);
#660=(
GEOMETRIC_REPRESENTATION_CONTEXT(3)
GLOBAL_UNCERTAINTY_ASSIGNED_CONTEXT((#658))
GLOBAL_UNIT_ASSIGNED_CONTEXT((#663,#667,#668))
REPRESENTATION_CONTEXT('','3D')
);
#661=DIMENSIONAL_EXPONENTS(1.,0.,0.,0.,0.,0.,0.);
#662=DIMENSIONAL_EXPONENTS(0.,1.,0.,0.,0.,0.,0.);
#663=(
CONVERSION_BASED_UNIT('inch',#666)
LENGTH_UNIT()
NAMED_UNIT(#661)
);
#664=(
LENGTH_UNIT()
NAMED_UNIT(*)
SI_UNIT(.MILLI.,.METRE.)
);
#665=(
LENGTH_UNIT()
NAMED_UNIT(*)
SI_UNIT(.CENTI.,.METRE.)
);
#666=LENGTH_MEASURE_WITH_UNIT(LENGTH_MEASURE(25.4),#664);
#667=(
NAMED_UNIT(*)
PLANE_ANGLE_UNIT()
SI_UNIT($,.RADIAN.)
);
#668=(
NAMED_UNIT(*)
SI_UNIT($,.STERADIAN.)
SOLID_ANGLE_UNIT()
);
#669=SHAPE_DEFINITION_REPRESENTATION(#670,#671);
#670=PRODUCT_DEFINITION_SHAPE('',$,#673);
#671=SHAPE_REPRESENTATION('',(#403),#659);
#672=PRODUCT_DEFINITION_CONTEXT('part definition',#677,'design');
#673=PRODUCT_DEFINITION('251105 Motor_Drive','251105 Motor_Drive',#674,
#672);
#674=PRODUCT_DEFINITION_FORMATION('ANY',$,#679);
#675=PRODUCT_RELATED_PRODUCT_CATEGORY('251105 Motor_Drive',
'251105 Motor_Drive',(#679));
#676=APPLICATION_PROTOCOL_DEFINITION('international standard',
'automotive_design',2009,#677);
#677=APPLICATION_CONTEXT(
'Core Data for Automotive Mechanical Design Process');
#678=PRODUCT_CONTEXT('part definition',#677,'mechanical');
#679=PRODUCT('251105 Motor_Drive','251105 Motor_Drive',
'Motor & Drive, Model:115ZYT-207-24, 800 Watt, 50:1 Ratio ',(#678));
#680=PRESENTATION_STYLE_ASSIGNMENT((#681));
#681=SURFACE_STYLE_USAGE(.BOTH.,#684);
#682=SURFACE_STYLE_RENDERING_WITH_PROPERTIES($,#688,(#683));
#683=SURFACE_STYLE_TRANSPARENT(0.);
#684=SURFACE_SIDE_STYLE('',(#685,#682));
#685=SURFACE_STYLE_FILL_AREA(#686);
#686=FILL_AREA_STYLE('',(#687));
#687=FILL_AREA_STYLE_COLOUR('',#688);
#688=COLOUR_RGB('',0.749019607843137,0.749019607843137,0.749019607843137);
ENDSEC;
END-ISO-10303-21;
