ISO-10303-21;
HEADER;
/* Generated by software containing ST-Developer
 * from STEP Tools, Inc. (www.steptools.com) 
 */

FILE_DESCRIPTION(
/* description */ ('Rounded Machine Key 7mm x 8mm, 70mm Long'),
/* implementation_level */ '2;1');

FILE_NAME(
/* name */ '96717A416.stp',
/* time_stamp */ '2025-12-15T14:41:40-06:00',
/* author */ ('josh Hofer'),
/* organization */ (''),
/* preprocessor_version */ 'ST-DEVELOPER v20',
/* originating_system */ 'Autodesk Inventor 2025',
/* authorisation */ '');

FILE_SCHEMA (('AUTOMOTIVE_DESIGN { 1 0 10303 214 3 1 1 }'));
ENDSEC;

DATA;
#10=MECHANICAL_DESIGN_GEOMETRIC_PRESENTATION_REPRESENTATION('',(#13),#195);
#11=SHAPE_REPRESENTATION_RELATIONSHIP('SRR','None',#206,#12);
#12=ADVANCED_BREP_SHAPE_REPRESENTATION('',(#14),#194);
#13=STYLED_ITEM('',(#215),#14);
#14=MANIFOLD_SOLID_BREP('Solid1',#103);
#15=PLANE('',#128);
#16=PLANE('',#129);
#17=PLANE('',#130);
#18=PLANE('',#132);
#19=FACE_OUTER_BOUND('',#25,.T.);
#20=FACE_OUTER_BOUND('',#26,.T.);
#21=FACE_OUTER_BOUND('',#27,.T.);
#22=FACE_OUTER_BOUND('',#28,.T.);
#23=FACE_OUTER_BOUND('',#29,.T.);
#24=FACE_OUTER_BOUND('',#30,.T.);
#25=EDGE_LOOP('',(#71,#72,#73,#74));
#26=EDGE_LOOP('',(#75,#76,#77,#78));
#27=EDGE_LOOP('',(#79,#80,#81,#82));
#28=EDGE_LOOP('',(#83,#84,#85,#86));
#29=EDGE_LOOP('',(#87,#88,#89,#90));
#30=EDGE_LOOP('',(#91,#92,#93,#94));
#31=LINE('',#171,#39);
#32=LINE('',#174,#40);
#33=LINE('',#177,#41);
#34=LINE('',#179,#42);
#35=LINE('',#180,#43);
#36=LINE('',#183,#44);
#37=LINE('',#185,#45);
#38=LINE('',#186,#46);
#39=VECTOR('',#141,39.3700787401575);
#40=VECTOR('',#144,39.3700787401575);
#41=VECTOR('',#147,39.3700787401575);
#42=VECTOR('',#148,39.3700787401575);
#43=VECTOR('',#149,39.3700787401575);
#44=VECTOR('',#152,39.3700787401575);
#45=VECTOR('',#153,39.3700787401575);
#46=VECTOR('',#154,39.3700787401575);
#47=CIRCLE('',#126,0.15748031496063);
#48=CIRCLE('',#127,0.15748031496063);
#49=CIRCLE('',#131,0.15748031496063);
#50=CIRCLE('',#133,0.15748031496063);
#51=VERTEX_POINT('',#167);
#52=VERTEX_POINT('',#168);
#53=VERTEX_POINT('',#170);
#54=VERTEX_POINT('',#172);
#55=VERTEX_POINT('',#176);
#56=VERTEX_POINT('',#178);
#57=VERTEX_POINT('',#182);
#58=VERTEX_POINT('',#184);
#59=EDGE_CURVE('',#51,#52,#47,.T.);
#60=EDGE_CURVE('',#51,#53,#31,.T.);
#61=EDGE_CURVE('',#53,#54,#48,.T.);
#62=EDGE_CURVE('',#52,#54,#32,.T.);
#63=EDGE_CURVE('',#55,#54,#33,.T.);
#64=EDGE_CURVE('',#56,#55,#34,.T.);
#65=EDGE_CURVE('',#52,#56,#35,.T.);
#66=EDGE_CURVE('',#57,#53,#36,.T.);
#67=EDGE_CURVE('',#51,#58,#37,.T.);
#68=EDGE_CURVE('',#58,#57,#38,.T.);
#69=EDGE_CURVE('',#56,#58,#49,.T.);
#70=EDGE_CURVE('',#55,#57,#50,.T.);
#71=ORIENTED_EDGE('',*,*,#59,.F.);
#72=ORIENTED_EDGE('',*,*,#60,.T.);
#73=ORIENTED_EDGE('',*,*,#61,.T.);
#74=ORIENTED_EDGE('',*,*,#62,.F.);
#75=ORIENTED_EDGE('',*,*,#62,.T.);
#76=ORIENTED_EDGE('',*,*,#63,.F.);
#77=ORIENTED_EDGE('',*,*,#64,.F.);
#78=ORIENTED_EDGE('',*,*,#65,.F.);
#79=ORIENTED_EDGE('',*,*,#66,.T.);
#80=ORIENTED_EDGE('',*,*,#60,.F.);
#81=ORIENTED_EDGE('',*,*,#67,.T.);
#82=ORIENTED_EDGE('',*,*,#68,.T.);
#83=ORIENTED_EDGE('',*,*,#59,.T.);
#84=ORIENTED_EDGE('',*,*,#65,.T.);
#85=ORIENTED_EDGE('',*,*,#69,.T.);
#86=ORIENTED_EDGE('',*,*,#67,.F.);
#87=ORIENTED_EDGE('',*,*,#61,.F.);
#88=ORIENTED_EDGE('',*,*,#66,.F.);
#89=ORIENTED_EDGE('',*,*,#70,.F.);
#90=ORIENTED_EDGE('',*,*,#63,.T.);
#91=ORIENTED_EDGE('',*,*,#70,.T.);
#92=ORIENTED_EDGE('',*,*,#68,.F.);
#93=ORIENTED_EDGE('',*,*,#69,.F.);
#94=ORIENTED_EDGE('',*,*,#64,.T.);
#95=CYLINDRICAL_SURFACE('',#125,0.15748031496063);
#96=CYLINDRICAL_SURFACE('',#134,0.15748031496063);
#97=ADVANCED_FACE('',(#19),#95,.T.);
#98=ADVANCED_FACE('',(#20),#15,.F.);
#99=ADVANCED_FACE('',(#21),#16,.T.);
#100=ADVANCED_FACE('',(#22),#17,.T.);
#101=ADVANCED_FACE('',(#23),#18,.T.);
#102=ADVANCED_FACE('',(#24),#96,.T.);
#103=CLOSED_SHELL('',(#97,#98,#99,#100,#101,#102));
#104=DERIVED_UNIT_ELEMENT(#106,1.);
#105=DERIVED_UNIT_ELEMENT(#200,-3.);
#106=(
CONVERSION_BASED_UNIT('gram',#108)
MASS_UNIT()
NAMED_UNIT(#197)
);
#107=(
MASS_UNIT()
NAMED_UNIT(*)
SI_UNIT(.KILO.,.GRAM.)
);
#108=MASS_MEASURE_WITH_UNIT(MASS_MEASURE(0.001),#107);
#109=DERIVED_UNIT((#104,#105));
#110=MEASURE_REPRESENTATION_ITEM('density measure',
POSITIVE_RATIO_MEASURE(1.),#109);
#111=PROPERTY_DEFINITION_REPRESENTATION(#116,#113);
#112=PROPERTY_DEFINITION_REPRESENTATION(#117,#114);
#113=REPRESENTATION('material name',(#115),#194);
#114=REPRESENTATION('density',(#110),#194);
#115=DESCRIPTIVE_REPRESENTATION_ITEM('Generic','Generic');
#116=PROPERTY_DEFINITION('material property','material name',#208);
#117=PROPERTY_DEFINITION('material property','density of part',#208);
#118=DATE_TIME_ROLE('creation_date');
#119=APPLIED_DATE_AND_TIME_ASSIGNMENT(#120,#118,(#208));
#120=DATE_AND_TIME(#121,#122);
#121=CALENDAR_DATE(2022,22,4);
#122=LOCAL_TIME(17,13,34.,#123);
#123=COORDINATED_UNIVERSAL_TIME_OFFSET(0,0,.BEHIND.);
#124=AXIS2_PLACEMENT_3D('',#165,#135,#136);
#125=AXIS2_PLACEMENT_3D('',#166,#137,#138);
#126=AXIS2_PLACEMENT_3D('',#169,#139,#140);
#127=AXIS2_PLACEMENT_3D('',#173,#142,#143);
#128=AXIS2_PLACEMENT_3D('',#175,#145,#146);
#129=AXIS2_PLACEMENT_3D('',#181,#150,#151);
#130=AXIS2_PLACEMENT_3D('',#187,#155,#156);
#131=AXIS2_PLACEMENT_3D('',#188,#157,#158);
#132=AXIS2_PLACEMENT_3D('',#189,#159,#160);
#133=AXIS2_PLACEMENT_3D('',#190,#161,#162);
#134=AXIS2_PLACEMENT_3D('',#191,#163,#164);
#135=DIRECTION('axis',(0.,0.,1.));
#136=DIRECTION('refdir',(1.,0.,0.));
#137=DIRECTION('center_axis',(0.,0.,1.));
#138=DIRECTION('ref_axis',(1.,0.,0.));
#139=DIRECTION('center_axis',(0.,0.,-1.));
#140=DIRECTION('ref_axis',(-1.,0.,0.));
#141=DIRECTION('',(0.,0.,1.));
#142=DIRECTION('center_axis',(0.,0.,-1.));
#143=DIRECTION('ref_axis',(-1.,0.,0.));
#144=DIRECTION('',(0.,0.,1.));
#145=DIRECTION('center_axis',(0.,1.,0.));
#146=DIRECTION('ref_axis',(0.,0.,1.));
#147=DIRECTION('',(1.,0.,0.));
#148=DIRECTION('',(0.,0.,1.));
#149=DIRECTION('',(-1.,0.,0.));
#150=DIRECTION('center_axis',(0.,1.,0.));
#151=DIRECTION('ref_axis',(0.,0.,1.));
#152=DIRECTION('',(1.,0.,0.));
#153=DIRECTION('',(-1.,0.,0.));
#154=DIRECTION('',(0.,0.,1.));
#155=DIRECTION('center_axis',(0.,0.,-1.));
#156=DIRECTION('ref_axis',(-1.,0.,0.));
#157=DIRECTION('center_axis',(0.,0.,-1.));
#158=DIRECTION('ref_axis',(-1.,0.,0.));
#159=DIRECTION('center_axis',(0.,0.,1.));
#160=DIRECTION('ref_axis',(1.,0.,0.));
#161=DIRECTION('center_axis',(0.,0.,-1.));
#162=DIRECTION('ref_axis',(-1.,0.,0.));
#163=DIRECTION('center_axis',(0.,0.,1.));
#164=DIRECTION('ref_axis',(-1.,1.22464679914735E-16,0.));
#165=CARTESIAN_POINT('',(0.,0.,0.));
#166=CARTESIAN_POINT('Origin',(1.22047244094488,-0.15748031496063,-0.137795275590551));
#167=CARTESIAN_POINT('',(1.22047244094488,0.,-0.137795275590551));
#168=CARTESIAN_POINT('',(1.22047244094488,-0.314960629921261,-0.137795275590551));
#169=CARTESIAN_POINT('Origin',(1.22047244094488,-0.15748031496063,-0.137795275590551));
#170=CARTESIAN_POINT('',(1.22047244094488,3.41480999208033E-17,0.137795275590551));
#171=CARTESIAN_POINT('',(1.22047244094488,3.41480999208033E-17,-0.137795275590551));
#172=CARTESIAN_POINT('',(1.22047244094488,-0.314960629921261,0.137795275590551));
#173=CARTESIAN_POINT('Origin',(1.22047244094488,-0.15748031496063,0.137795275590551));
#174=CARTESIAN_POINT('',(1.22047244094488,-0.314960629921261,-0.137795275590551));
#175=CARTESIAN_POINT('Origin',(-1.37795275590551,-0.31496062992126,0.137795275590551));
#176=CARTESIAN_POINT('',(-1.22047244094488,-0.314960629921261,0.137795275590551));
#177=CARTESIAN_POINT('',(-1.37795275590551,-0.31496062992126,0.137795275590551));
#178=CARTESIAN_POINT('',(-1.22047244094488,-0.314960629921261,-0.137795275590551));
#179=CARTESIAN_POINT('',(-1.22047244094488,-0.314960629921261,-0.137795275590551));
#180=CARTESIAN_POINT('',(-1.37795275590551,-0.31496062992126,-0.137795275590551));
#181=CARTESIAN_POINT('Origin',(-1.37795275590551,0.,0.137795275590551));
#182=CARTESIAN_POINT('',(-1.22047244094488,0.,0.137795275590551));
#183=CARTESIAN_POINT('',(-1.37795275590551,0.,0.137795275590551));
#184=CARTESIAN_POINT('',(-1.22047244094488,3.41480999208033E-17,-0.137795275590551));
#185=CARTESIAN_POINT('',(-1.37795275590551,0.,-0.137795275590551));
#186=CARTESIAN_POINT('',(-1.22047244094488,3.41480999208033E-17,-0.137795275590551));
#187=CARTESIAN_POINT('Origin',(-1.37795275590551,-0.31496062992126,-0.137795275590551));
#188=CARTESIAN_POINT('Origin',(-1.22047244094488,-0.15748031496063,-0.137795275590551));
#189=CARTESIAN_POINT('Origin',(-1.37795275590551,-0.31496062992126,0.137795275590551));
#190=CARTESIAN_POINT('Origin',(-1.22047244094488,-0.15748031496063,0.137795275590551));
#191=CARTESIAN_POINT('Origin',(-1.22047244094488,-0.15748031496063,-0.137795275590551));
#192=UNCERTAINTY_MEASURE_WITH_UNIT(LENGTH_MEASURE(0.000393700787401575),
#198,'DISTANCE_ACCURACY_VALUE',
'Maximum model space distance between geometric entities at asserted c
onnectivities');
#193=UNCERTAINTY_MEASURE_WITH_UNIT(LENGTH_MEASURE(0.000393700787401575),
#198,'DISTANCE_ACCURACY_VALUE',
'Maximum model space distance between geometric entities at asserted c
onnectivities');
#194=(
GEOMETRIC_REPRESENTATION_CONTEXT(3)
GLOBAL_UNCERTAINTY_ASSIGNED_CONTEXT((#192))
GLOBAL_UNIT_ASSIGNED_CONTEXT((#198,#202,#203))
REPRESENTATION_CONTEXT('','3D')
);
#195=(
GEOMETRIC_REPRESENTATION_CONTEXT(3)
GLOBAL_UNCERTAINTY_ASSIGNED_CONTEXT((#193))
GLOBAL_UNIT_ASSIGNED_CONTEXT((#198,#202,#203))
REPRESENTATION_CONTEXT('','3D')
);
#196=DIMENSIONAL_EXPONENTS(1.,0.,0.,0.,0.,0.,0.);
#197=DIMENSIONAL_EXPONENTS(0.,1.,0.,0.,0.,0.,0.);
#198=(
CONVERSION_BASED_UNIT('inch',#201)
LENGTH_UNIT()
NAMED_UNIT(#196)
);
#199=(
LENGTH_UNIT()
NAMED_UNIT(*)
SI_UNIT(.MILLI.,.METRE.)
);
#200=(
LENGTH_UNIT()
NAMED_UNIT(*)
SI_UNIT(.CENTI.,.METRE.)
);
#201=LENGTH_MEASURE_WITH_UNIT(LENGTH_MEASURE(25.4),#199);
#202=(
NAMED_UNIT(*)
PLANE_ANGLE_UNIT()
SI_UNIT($,.RADIAN.)
);
#203=(
NAMED_UNIT(*)
SI_UNIT($,.STERADIAN.)
SOLID_ANGLE_UNIT()
);
#204=SHAPE_DEFINITION_REPRESENTATION(#205,#206);
#205=PRODUCT_DEFINITION_SHAPE('',$,#208);
#206=SHAPE_REPRESENTATION('',(#124),#194);
#207=PRODUCT_DEFINITION_CONTEXT('part definition',#212,'design');
#208=PRODUCT_DEFINITION('96717A416','96717A416',#209,#207);
#209=PRODUCT_DEFINITION_FORMATION('ANY',$,#214);
#210=PRODUCT_RELATED_PRODUCT_CATEGORY('96717A416','96717A416',(#214));
#211=APPLICATION_PROTOCOL_DEFINITION('international standard',
'automotive_design',2009,#212);
#212=APPLICATION_CONTEXT(
'Core Data for Automotive Mechanical Design Process');
#213=PRODUCT_CONTEXT('part definition',#212,'mechanical');
#214=PRODUCT('96717A416','96717A416',
'Rounded Machine Key 7mm x 8mm, 70mm Long',(#213));
#215=PRESENTATION_STYLE_ASSIGNMENT((#216));
#216=SURFACE_STYLE_USAGE(.BOTH.,#219);
#217=SURFACE_STYLE_RENDERING_WITH_PROPERTIES($,#223,(#218));
#218=SURFACE_STYLE_TRANSPARENT(0.);
#219=SURFACE_SIDE_STYLE('',(#220,#217));
#220=SURFACE_STYLE_FILL_AREA(#221);
#221=FILL_AREA_STYLE('',(#222));
#222=FILL_AREA_STYLE_COLOUR('',#223);
#223=COLOUR_RGB('',0.749019607843137,0.749019607843137,0.749019607843137);
ENDSEC;
END-ISO-10303-21;
