ISO-10303-21;
HEADER;
/* Generated by software containing ST-Developer
 * from STEP Tools, Inc. (www.steptools.com) 
 */

FILE_DESCRIPTION(
/* description */ ('Motor Spacer Bushing'),
/* implementation_level */ '2;1');

FILE_NAME(
/* name */ 'BV-222-120.stp',
/* time_stamp */ '2025-12-15T14:41:54-06:00',
/* author */ ('josh'),
/* organization */ (''),
/* preprocessor_version */ 'ST-DEVELOPER v20',
/* originating_system */ 'Autodesk Inventor 2025',
/* authorisation */ '');

FILE_SCHEMA (('AUTOMOTIVE_DESIGN { 1 0 10303 214 3 1 1 }'));
ENDSEC;

DATA;
#10=MECHANICAL_DESIGN_GEOMETRIC_PRESENTATION_REPRESENTATION('',(#13),#409);
#11=SHAPE_REPRESENTATION_RELATIONSHIP('SRR','None',#420,#12);
#12=ADVANCED_BREP_SHAPE_REPRESENTATION('',(#14),#408);
#13=STYLED_ITEM('',(#429),#14);
#14=MANIFOLD_SOLID_BREP('BV-222-120',#223);
#15=FACE_BOUND('',#48,.T.);
#16=FACE_BOUND('',#49,.T.);
#17=FACE_BOUND('',#50,.T.);
#18=FACE_BOUND('',#51,.T.);
#19=FACE_BOUND('',#52,.T.);
#20=FACE_BOUND('',#55,.T.);
#21=FACE_BOUND('',#56,.T.);
#22=FACE_BOUND('',#57,.T.);
#23=FACE_BOUND('',#58,.T.);
#24=FACE_BOUND('',#59,.T.);
#25=PLANE('',#250);
#26=PLANE('',#258);
#27=CYLINDRICAL_SURFACE('',#248,1.37824803149606);
#28=CYLINDRICAL_SURFACE('',#267,2.);
#29=CYLINDRICAL_SURFACE('',#271,0.177);
#30=CYLINDRICAL_SURFACE('',#272,0.177);
#31=CYLINDRICAL_SURFACE('',#273,0.177);
#32=CYLINDRICAL_SURFACE('',#274,0.177);
#33=FACE_OUTER_BOUND('',#45,.T.);
#34=FACE_OUTER_BOUND('',#46,.T.);
#35=FACE_OUTER_BOUND('',#47,.T.);
#36=FACE_OUTER_BOUND('',#53,.T.);
#37=FACE_OUTER_BOUND('',#54,.T.);
#38=FACE_OUTER_BOUND('',#60,.T.);
#39=FACE_OUTER_BOUND('',#61,.T.);
#40=FACE_OUTER_BOUND('',#62,.T.);
#41=FACE_OUTER_BOUND('',#63,.T.);
#42=FACE_OUTER_BOUND('',#64,.T.);
#43=FACE_OUTER_BOUND('',#65,.T.);
#44=FACE_OUTER_BOUND('',#66,.T.);
#45=EDGE_LOOP('',(#151,#152,#153,#154));
#46=EDGE_LOOP('',(#155,#156,#157,#158));
#47=EDGE_LOOP('',(#159));
#48=EDGE_LOOP('',(#160));
#49=EDGE_LOOP('',(#161));
#50=EDGE_LOOP('',(#162));
#51=EDGE_LOOP('',(#163));
#52=EDGE_LOOP('',(#164));
#53=EDGE_LOOP('',(#165,#166,#167,#168));
#54=EDGE_LOOP('',(#169));
#55=EDGE_LOOP('',(#170));
#56=EDGE_LOOP('',(#171));
#57=EDGE_LOOP('',(#172));
#58=EDGE_LOOP('',(#173));
#59=EDGE_LOOP('',(#174));
#60=EDGE_LOOP('',(#175,#176,#177,#178,#179));
#61=EDGE_LOOP('',(#180,#181,#182,#183,#184,#185));
#62=EDGE_LOOP('',(#186,#187,#188,#189,#190));
#63=EDGE_LOOP('',(#191,#192,#193,#194));
#64=EDGE_LOOP('',(#195,#196,#197,#198));
#65=EDGE_LOOP('',(#199,#200,#201,#202));
#66=EDGE_LOOP('',(#203,#204,#205,#206));
#67=LINE('',#352,#77);
#68=LINE('',#357,#78);
#69=LINE('',#372,#79);
#70=LINE('',#386,#80);
#71=LINE('',#392,#81);
#72=LINE('',#397,#82);
#73=LINE('',#399,#83);
#74=LINE('',#401,#84);
#75=LINE('',#403,#85);
#76=LINE('',#405,#86);
#77=VECTOR('',#281,1.39324803149606);
#78=VECTOR('',#288,1.37824803149606);
#79=VECTOR('',#305,1.39324803149607);
#80=VECTOR('',#320,1.98500000000001);
#81=VECTOR('',#327,2.);
#82=VECTOR('',#334,1.98499999999999);
#83=VECTOR('',#337,0.177);
#84=VECTOR('',#340,0.177);
#85=VECTOR('',#343,0.177);
#86=VECTOR('',#346,0.177);
#87=CIRCLE('',#246,1.37824803149606);
#88=CIRCLE('',#247,1.40824803149606);
#89=CIRCLE('',#249,1.37824803149606);
#90=CIRCLE('',#251,1.97);
#91=CIRCLE('',#252,0.177);
#92=CIRCLE('',#253,0.177);
#93=CIRCLE('',#254,0.177);
#94=CIRCLE('',#255,0.177);
#95=CIRCLE('',#257,1.40824803149606);
#96=CIRCLE('',#259,1.97);
#97=CIRCLE('',#260,0.177);
#98=CIRCLE('',#261,0.177);
#99=CIRCLE('',#262,0.177);
#100=CIRCLE('',#263,0.177);
#101=CIRCLE('',#265,2.);
#102=CIRCLE('',#266,2.);
#103=CIRCLE('',#268,2.);
#104=CIRCLE('',#269,2.);
#105=VERTEX_POINT('',#349);
#106=VERTEX_POINT('',#351);
#107=VERTEX_POINT('',#355);
#108=VERTEX_POINT('',#359);
#109=VERTEX_POINT('',#361);
#110=VERTEX_POINT('',#363);
#111=VERTEX_POINT('',#365);
#112=VERTEX_POINT('',#367);
#113=VERTEX_POINT('',#370);
#114=VERTEX_POINT('',#374);
#115=VERTEX_POINT('',#376);
#116=VERTEX_POINT('',#378);
#117=VERTEX_POINT('',#380);
#118=VERTEX_POINT('',#382);
#119=VERTEX_POINT('',#385);
#120=VERTEX_POINT('',#387);
#121=VERTEX_POINT('',#391);
#122=VERTEX_POINT('',#393);
#123=EDGE_CURVE('',#105,#105,#87,.T.);
#124=EDGE_CURVE('',#105,#106,#67,.T.);
#125=EDGE_CURVE('',#106,#106,#88,.T.);
#126=EDGE_CURVE('',#107,#107,#89,.T.);
#127=EDGE_CURVE('',#107,#105,#68,.T.);
#128=EDGE_CURVE('',#108,#108,#90,.T.);
#129=EDGE_CURVE('',#109,#109,#91,.T.);
#130=EDGE_CURVE('',#110,#110,#92,.T.);
#131=EDGE_CURVE('',#111,#111,#93,.T.);
#132=EDGE_CURVE('',#112,#112,#94,.T.);
#133=EDGE_CURVE('',#113,#113,#95,.T.);
#134=EDGE_CURVE('',#113,#107,#69,.T.);
#135=EDGE_CURVE('',#114,#114,#96,.T.);
#136=EDGE_CURVE('',#115,#115,#97,.T.);
#137=EDGE_CURVE('',#116,#116,#98,.T.);
#138=EDGE_CURVE('',#117,#117,#99,.T.);
#139=EDGE_CURVE('',#118,#118,#100,.T.);
#140=EDGE_CURVE('',#114,#119,#70,.T.);
#141=EDGE_CURVE('',#119,#120,#101,.T.);
#142=EDGE_CURVE('',#120,#119,#102,.T.);
#143=EDGE_CURVE('',#120,#121,#71,.T.);
#144=EDGE_CURVE('',#122,#121,#103,.T.);
#145=EDGE_CURVE('',#121,#122,#104,.T.);
#146=EDGE_CURVE('',#122,#108,#72,.T.);
#147=EDGE_CURVE('',#118,#112,#73,.T.);
#148=EDGE_CURVE('',#117,#111,#74,.T.);
#149=EDGE_CURVE('',#116,#110,#75,.T.);
#150=EDGE_CURVE('',#115,#109,#76,.T.);
#151=ORIENTED_EDGE('',*,*,#123,.T.);
#152=ORIENTED_EDGE('',*,*,#124,.T.);
#153=ORIENTED_EDGE('',*,*,#125,.T.);
#154=ORIENTED_EDGE('',*,*,#124,.F.);
#155=ORIENTED_EDGE('',*,*,#126,.F.);
#156=ORIENTED_EDGE('',*,*,#127,.T.);
#157=ORIENTED_EDGE('',*,*,#123,.F.);
#158=ORIENTED_EDGE('',*,*,#127,.F.);
#159=ORIENTED_EDGE('',*,*,#128,.F.);
#160=ORIENTED_EDGE('',*,*,#129,.F.);
#161=ORIENTED_EDGE('',*,*,#130,.F.);
#162=ORIENTED_EDGE('',*,*,#131,.F.);
#163=ORIENTED_EDGE('',*,*,#132,.F.);
#164=ORIENTED_EDGE('',*,*,#125,.F.);
#165=ORIENTED_EDGE('',*,*,#133,.T.);
#166=ORIENTED_EDGE('',*,*,#134,.T.);
#167=ORIENTED_EDGE('',*,*,#126,.T.);
#168=ORIENTED_EDGE('',*,*,#134,.F.);
#169=ORIENTED_EDGE('',*,*,#135,.F.);
#170=ORIENTED_EDGE('',*,*,#136,.T.);
#171=ORIENTED_EDGE('',*,*,#137,.T.);
#172=ORIENTED_EDGE('',*,*,#138,.T.);
#173=ORIENTED_EDGE('',*,*,#139,.T.);
#174=ORIENTED_EDGE('',*,*,#133,.F.);
#175=ORIENTED_EDGE('',*,*,#135,.T.);
#176=ORIENTED_EDGE('',*,*,#140,.T.);
#177=ORIENTED_EDGE('',*,*,#141,.T.);
#178=ORIENTED_EDGE('',*,*,#142,.T.);
#179=ORIENTED_EDGE('',*,*,#140,.F.);
#180=ORIENTED_EDGE('',*,*,#141,.F.);
#181=ORIENTED_EDGE('',*,*,#142,.F.);
#182=ORIENTED_EDGE('',*,*,#143,.T.);
#183=ORIENTED_EDGE('',*,*,#144,.F.);
#184=ORIENTED_EDGE('',*,*,#145,.F.);
#185=ORIENTED_EDGE('',*,*,#143,.F.);
#186=ORIENTED_EDGE('',*,*,#144,.T.);
#187=ORIENTED_EDGE('',*,*,#145,.T.);
#188=ORIENTED_EDGE('',*,*,#146,.T.);
#189=ORIENTED_EDGE('',*,*,#128,.T.);
#190=ORIENTED_EDGE('',*,*,#146,.F.);
#191=ORIENTED_EDGE('',*,*,#139,.F.);
#192=ORIENTED_EDGE('',*,*,#147,.T.);
#193=ORIENTED_EDGE('',*,*,#132,.T.);
#194=ORIENTED_EDGE('',*,*,#147,.F.);
#195=ORIENTED_EDGE('',*,*,#138,.F.);
#196=ORIENTED_EDGE('',*,*,#148,.T.);
#197=ORIENTED_EDGE('',*,*,#131,.T.);
#198=ORIENTED_EDGE('',*,*,#148,.F.);
#199=ORIENTED_EDGE('',*,*,#137,.F.);
#200=ORIENTED_EDGE('',*,*,#149,.T.);
#201=ORIENTED_EDGE('',*,*,#130,.T.);
#202=ORIENTED_EDGE('',*,*,#149,.F.);
#203=ORIENTED_EDGE('',*,*,#136,.F.);
#204=ORIENTED_EDGE('',*,*,#150,.T.);
#205=ORIENTED_EDGE('',*,*,#129,.T.);
#206=ORIENTED_EDGE('',*,*,#150,.F.);
#207=CONICAL_SURFACE('',#245,1.39324803149606,0.785398163397443);
#208=CONICAL_SURFACE('',#256,1.39324803149606,0.785398163397453);
#209=CONICAL_SURFACE('',#264,1.985,0.785398163397456);
#210=CONICAL_SURFACE('',#270,1.985,0.785398163397441);
#211=ADVANCED_FACE('',(#33),#207,.F.);
#212=ADVANCED_FACE('',(#34),#27,.F.);
#213=ADVANCED_FACE('',(#35,#15,#16,#17,#18,#19),#25,.F.);
#214=ADVANCED_FACE('',(#36),#208,.F.);
#215=ADVANCED_FACE('',(#37,#20,#21,#22,#23,#24),#26,.T.);
#216=ADVANCED_FACE('',(#38),#209,.T.);
#217=ADVANCED_FACE('',(#39),#28,.T.);
#218=ADVANCED_FACE('',(#40),#210,.T.);
#219=ADVANCED_FACE('',(#41),#29,.F.);
#220=ADVANCED_FACE('',(#42),#30,.F.);
#221=ADVANCED_FACE('',(#43),#31,.F.);
#222=ADVANCED_FACE('',(#44),#32,.F.);
#223=CLOSED_SHELL('',(#211,#212,#213,#214,#215,#216,#217,#218,#219,#220,
#221,#222));
#224=DERIVED_UNIT_ELEMENT(#226,1.);
#225=DERIVED_UNIT_ELEMENT(#414,-3.);
#226=(
CONVERSION_BASED_UNIT('gram',#228)
MASS_UNIT()
NAMED_UNIT(#411)
);
#227=(
MASS_UNIT()
NAMED_UNIT(*)
SI_UNIT(.KILO.,.GRAM.)
);
#228=MASS_MEASURE_WITH_UNIT(MASS_MEASURE(0.001),#227);
#229=DERIVED_UNIT((#224,#225));
#230=MEASURE_REPRESENTATION_ITEM('density measure',
POSITIVE_RATIO_MEASURE(7.85),#229);
#231=PROPERTY_DEFINITION_REPRESENTATION(#236,#233);
#232=PROPERTY_DEFINITION_REPRESENTATION(#237,#234);
#233=REPRESENTATION('material name',(#235),#408);
#234=REPRESENTATION('density',(#230),#408);
#235=DESCRIPTIVE_REPRESENTATION_ITEM('Steel, Mild','Steel, Mild');
#236=PROPERTY_DEFINITION('material property','material name',#422);
#237=PROPERTY_DEFINITION('material property','density of part',#422);
#238=DATE_TIME_ROLE('creation_date');
#239=APPLIED_DATE_AND_TIME_ASSIGNMENT(#240,#238,(#422));
#240=DATE_AND_TIME(#241,#242);
#241=CALENDAR_DATE(2025,5,12);
#242=LOCAL_TIME(0,0,0.,#243);
#243=COORDINATED_UNIVERSAL_TIME_OFFSET(0,0,.BEHIND.);
#244=AXIS2_PLACEMENT_3D('',#347,#275,#276);
#245=AXIS2_PLACEMENT_3D('',#348,#277,#278);
#246=AXIS2_PLACEMENT_3D('',#350,#279,#280);
#247=AXIS2_PLACEMENT_3D('',#353,#282,#283);
#248=AXIS2_PLACEMENT_3D('',#354,#284,#285);
#249=AXIS2_PLACEMENT_3D('',#356,#286,#287);
#250=AXIS2_PLACEMENT_3D('',#358,#289,#290);
#251=AXIS2_PLACEMENT_3D('',#360,#291,#292);
#252=AXIS2_PLACEMENT_3D('',#362,#293,#294);
#253=AXIS2_PLACEMENT_3D('',#364,#295,#296);
#254=AXIS2_PLACEMENT_3D('',#366,#297,#298);
#255=AXIS2_PLACEMENT_3D('',#368,#299,#300);
#256=AXIS2_PLACEMENT_3D('',#369,#301,#302);
#257=AXIS2_PLACEMENT_3D('',#371,#303,#304);
#258=AXIS2_PLACEMENT_3D('',#373,#306,#307);
#259=AXIS2_PLACEMENT_3D('',#375,#308,#309);
#260=AXIS2_PLACEMENT_3D('',#377,#310,#311);
#261=AXIS2_PLACEMENT_3D('',#379,#312,#313);
#262=AXIS2_PLACEMENT_3D('',#381,#314,#315);
#263=AXIS2_PLACEMENT_3D('',#383,#316,#317);
#264=AXIS2_PLACEMENT_3D('',#384,#318,#319);
#265=AXIS2_PLACEMENT_3D('',#388,#321,#322);
#266=AXIS2_PLACEMENT_3D('',#389,#323,#324);
#267=AXIS2_PLACEMENT_3D('',#390,#325,#326);
#268=AXIS2_PLACEMENT_3D('',#394,#328,#329);
#269=AXIS2_PLACEMENT_3D('',#395,#330,#331);
#270=AXIS2_PLACEMENT_3D('',#396,#332,#333);
#271=AXIS2_PLACEMENT_3D('',#398,#335,#336);
#272=AXIS2_PLACEMENT_3D('',#400,#338,#339);
#273=AXIS2_PLACEMENT_3D('',#402,#341,#342);
#274=AXIS2_PLACEMENT_3D('',#404,#344,#345);
#275=DIRECTION('axis',(0.,0.,1.));
#276=DIRECTION('refdir',(1.,0.,0.));
#277=DIRECTION('center_axis',(0.,1.,0.));
#278=DIRECTION('ref_axis',(-1.,-1.10883524411579E-16,0.));
#279=DIRECTION('center_axis',(2.19404889844095E-16,-1.,0.));
#280=DIRECTION('ref_axis',(-1.,0.,0.));
#281=DIRECTION('',(0.707106781186547,0.707106781186548,8.65956056235493E-17));
#282=DIRECTION('center_axis',(-2.19404889844095E-16,1.,0.));
#283=DIRECTION('ref_axis',(-1.,-2.19404889844095E-16,0.));
#284=DIRECTION('center_axis',(0.,-1.,0.));
#285=DIRECTION('ref_axis',(-1.,0.,0.));
#286=DIRECTION('center_axis',(-2.19404889844095E-16,1.,0.));
#287=DIRECTION('ref_axis',(-1.,0.,0.));
#288=DIRECTION('',(0.,1.,0.));
#289=DIRECTION('center_axis',(2.19404889844095E-16,-1.,0.));
#290=DIRECTION('ref_axis',(0.,0.,-1.));
#291=DIRECTION('center_axis',(2.19404889844095E-16,-1.,0.));
#292=DIRECTION('ref_axis',(-1.,-2.19404889844095E-16,0.));
#293=DIRECTION('center_axis',(-2.19404889844095E-16,1.,0.));
#294=DIRECTION('ref_axis',(-1.,-2.19404889844095E-16,0.));
#295=DIRECTION('center_axis',(-2.19404889844095E-16,1.,0.));
#296=DIRECTION('ref_axis',(-1.,-2.19404889844095E-16,0.));
#297=DIRECTION('center_axis',(-2.19404889844095E-16,1.,0.));
#298=DIRECTION('ref_axis',(-1.,-2.19404889844095E-16,0.));
#299=DIRECTION('center_axis',(-2.19404889844095E-16,1.,0.));
#300=DIRECTION('ref_axis',(-1.,-2.19404889844095E-16,0.));
#301=DIRECTION('center_axis',(0.,-1.,0.));
#302=DIRECTION('ref_axis',(-1.,-1.10883524411579E-16,0.));
#303=DIRECTION('center_axis',(2.19404889844095E-16,-1.,0.));
#304=DIRECTION('ref_axis',(-1.,-2.19404889844095E-16,0.));
#305=DIRECTION('',(-0.707106781186547,0.707106781186547,-8.65956056235493E-17));
#306=DIRECTION('center_axis',(2.19404889844095E-16,-1.,0.));
#307=DIRECTION('ref_axis',(0.,0.,-1.));
#308=DIRECTION('center_axis',(-2.19404889844095E-16,1.,0.));
#309=DIRECTION('ref_axis',(-1.,-2.19404889844095E-16,0.));
#310=DIRECTION('center_axis',(-2.19404889844095E-16,1.,0.));
#311=DIRECTION('ref_axis',(-1.,-2.19404889844095E-16,0.));
#312=DIRECTION('center_axis',(-2.19404889844095E-16,1.,0.));
#313=DIRECTION('ref_axis',(-1.,-2.19404889844095E-16,0.));
#314=DIRECTION('center_axis',(-2.19404889844095E-16,1.,0.));
#315=DIRECTION('ref_axis',(-1.,-2.19404889844095E-16,0.));
#316=DIRECTION('center_axis',(-2.19404889844095E-16,1.,0.));
#317=DIRECTION('ref_axis',(-1.,-2.19404889844095E-16,0.));
#318=DIRECTION('center_axis',(0.,1.,0.));
#319=DIRECTION('ref_axis',(-1.,-1.08873459192158E-16,0.));
#320=DIRECTION('',(0.707106781186547,0.707106781186548,8.65956056235493E-17));
#321=DIRECTION('center_axis',(2.19404889844095E-16,-1.,0.));
#322=DIRECTION('ref_axis',(-1.,0.,0.));
#323=DIRECTION('center_axis',(2.19404889844095E-16,-1.,0.));
#324=DIRECTION('ref_axis',(-1.,0.,0.));
#325=DIRECTION('center_axis',(0.,-1.,0.));
#326=DIRECTION('ref_axis',(1.,0.,0.));
#327=DIRECTION('',(0.,1.,0.));
#328=DIRECTION('center_axis',(-2.19404889844095E-16,1.,0.));
#329=DIRECTION('ref_axis',(-1.,0.,0.));
#330=DIRECTION('center_axis',(-2.19404889844095E-16,1.,0.));
#331=DIRECTION('ref_axis',(-1.,0.,0.));
#332=DIRECTION('center_axis',(0.,-1.,0.));
#333=DIRECTION('ref_axis',(-1.,-1.08873459192158E-16,0.));
#334=DIRECTION('',(-0.707106781186547,0.707106781186547,-8.65956056235493E-17));
#335=DIRECTION('center_axis',(0.,-1.,0.));
#336=DIRECTION('ref_axis',(-1.,0.,0.));
#337=DIRECTION('',(0.,1.,0.));
#338=DIRECTION('center_axis',(0.,-1.,0.));
#339=DIRECTION('ref_axis',(-1.,0.,0.));
#340=DIRECTION('',(0.,1.,0.));
#341=DIRECTION('center_axis',(0.,-1.,0.));
#342=DIRECTION('ref_axis',(-1.,0.,0.));
#343=DIRECTION('',(0.,1.,0.));
#344=DIRECTION('center_axis',(0.,-1.,0.));
#345=DIRECTION('ref_axis',(-1.,0.,0.));
#346=DIRECTION('',(0.,1.,0.));
#347=CARTESIAN_POINT('',(0.,0.,0.));
#348=CARTESIAN_POINT('Origin',(19.,17.7975,-5.8125));
#349=CARTESIAN_POINT('',(20.378248031496,17.7825,-5.8125));
#350=CARTESIAN_POINT('Origin',(19.,17.7825,-5.8125));
#351=CARTESIAN_POINT('',(20.4082480314961,17.8125,-5.8125));
#352=CARTESIAN_POINT('',(20.3932480314961,17.7975,-5.8125));
#353=CARTESIAN_POINT('Origin',(19.,17.8125,-5.8125));
#354=CARTESIAN_POINT('Origin',(19.,17.8125,-5.8125));
#355=CARTESIAN_POINT('',(20.378248031496,17.1469,-5.8125));
#356=CARTESIAN_POINT('Origin',(19.,17.1469,-5.8125));
#357=CARTESIAN_POINT('',(20.378248031496,17.8125,-5.8125));
#358=CARTESIAN_POINT('Origin',(19.,17.8125,-5.8125));
#359=CARTESIAN_POINT('',(20.97,17.8125,-5.8125));
#360=CARTESIAN_POINT('Origin',(19.,17.8125,-5.8125));
#361=CARTESIAN_POINT('',(20.36,17.8125,-6.9955));
#362=CARTESIAN_POINT('Origin',(20.183,17.8125,-6.9955));
#363=CARTESIAN_POINT('',(17.994,17.8125,-6.9955));
#364=CARTESIAN_POINT('Origin',(17.817,17.8125,-6.9955));
#365=CARTESIAN_POINT('',(17.994,17.8125,-4.6295));
#366=CARTESIAN_POINT('Origin',(17.817,17.8125,-4.6295));
#367=CARTESIAN_POINT('',(20.36,17.8125,-4.6295));
#368=CARTESIAN_POINT('Origin',(20.183,17.8125,-4.6295));
#369=CARTESIAN_POINT('Origin',(19.,17.1319,-5.8125));
#370=CARTESIAN_POINT('',(20.4082480314961,17.1169,-5.8125));
#371=CARTESIAN_POINT('Origin',(19.,17.1169,-5.8125));
#372=CARTESIAN_POINT('',(20.3932480314961,17.1319,-5.8125));
#373=CARTESIAN_POINT('Origin',(19.,17.1169,-5.8125));
#374=CARTESIAN_POINT('',(20.97,17.1169,-5.8125));
#375=CARTESIAN_POINT('Origin',(19.,17.1169,-5.8125));
#376=CARTESIAN_POINT('',(20.36,17.1169,-6.9955));
#377=CARTESIAN_POINT('Origin',(20.183,17.1169,-6.9955));
#378=CARTESIAN_POINT('',(17.994,17.1169,-6.9955));
#379=CARTESIAN_POINT('Origin',(17.817,17.1169,-6.9955));
#380=CARTESIAN_POINT('',(17.994,17.1169,-4.6295));
#381=CARTESIAN_POINT('Origin',(17.817,17.1169,-4.6295));
#382=CARTESIAN_POINT('',(20.36,17.1169,-4.6295));
#383=CARTESIAN_POINT('Origin',(20.183,17.1169,-4.6295));
#384=CARTESIAN_POINT('Origin',(19.,17.1319,-5.8125));
#385=CARTESIAN_POINT('',(21.,17.1469,-5.8125));
#386=CARTESIAN_POINT('',(20.985,17.1319,-5.8125));
#387=CARTESIAN_POINT('',(17.,17.1469,-5.8125));
#388=CARTESIAN_POINT('Origin',(19.,17.1469,-5.8125));
#389=CARTESIAN_POINT('Origin',(19.,17.1469,-5.8125));
#390=CARTESIAN_POINT('Origin',(19.,17.8125,-5.8125));
#391=CARTESIAN_POINT('',(17.,17.7825,-5.8125));
#392=CARTESIAN_POINT('',(17.,17.8125,-5.8125));
#393=CARTESIAN_POINT('',(21.,17.7825,-5.8125));
#394=CARTESIAN_POINT('Origin',(19.,17.7825,-5.8125));
#395=CARTESIAN_POINT('Origin',(19.,17.7825,-5.8125));
#396=CARTESIAN_POINT('Origin',(19.,17.7975,-5.8125));
#397=CARTESIAN_POINT('',(20.985,17.7975,-5.8125));
#398=CARTESIAN_POINT('Origin',(20.183,17.8125,-4.6295));
#399=CARTESIAN_POINT('',(20.36,17.8125,-4.6295));
#400=CARTESIAN_POINT('Origin',(17.817,17.8125,-4.6295));
#401=CARTESIAN_POINT('',(17.994,17.8125,-4.6295));
#402=CARTESIAN_POINT('Origin',(17.817,17.8125,-6.9955));
#403=CARTESIAN_POINT('',(17.994,17.8125,-6.9955));
#404=CARTESIAN_POINT('Origin',(20.183,17.8125,-6.9955));
#405=CARTESIAN_POINT('',(20.36,17.8125,-6.9955));
#406=UNCERTAINTY_MEASURE_WITH_UNIT(LENGTH_MEASURE(0.000393700787401575),
#412,'DISTANCE_ACCURACY_VALUE',
'Maximum model space distance between geometric entities at asserted c
onnectivities');
#407=UNCERTAINTY_MEASURE_WITH_UNIT(LENGTH_MEASURE(0.000393700787401575),
#412,'DISTANCE_ACCURACY_VALUE',
'Maximum model space distance between geometric entities at asserted c
onnectivities');
#408=(
GEOMETRIC_REPRESENTATION_CONTEXT(3)
GLOBAL_UNCERTAINTY_ASSIGNED_CONTEXT((#406))
GLOBAL_UNIT_ASSIGNED_CONTEXT((#412,#416,#417))
REPRESENTATION_CONTEXT('','3D')
);
#409=(
GEOMETRIC_REPRESENTATION_CONTEXT(3)
GLOBAL_UNCERTAINTY_ASSIGNED_CONTEXT((#407))
GLOBAL_UNIT_ASSIGNED_CONTEXT((#412,#416,#417))
REPRESENTATION_CONTEXT('','3D')
);
#410=DIMENSIONAL_EXPONENTS(1.,0.,0.,0.,0.,0.,0.);
#411=DIMENSIONAL_EXPONENTS(0.,1.,0.,0.,0.,0.,0.);
#412=(
CONVERSION_BASED_UNIT('inch',#415)
LENGTH_UNIT()
NAMED_UNIT(#410)
);
#413=(
LENGTH_UNIT()
NAMED_UNIT(*)
SI_UNIT(.MILLI.,.METRE.)
);
#414=(
LENGTH_UNIT()
NAMED_UNIT(*)
SI_UNIT(.CENTI.,.METRE.)
);
#415=LENGTH_MEASURE_WITH_UNIT(LENGTH_MEASURE(25.4),#413);
#416=(
NAMED_UNIT(*)
PLANE_ANGLE_UNIT()
SI_UNIT($,.RADIAN.)
);
#417=(
NAMED_UNIT(*)
SI_UNIT($,.STERADIAN.)
SOLID_ANGLE_UNIT()
);
#418=SHAPE_DEFINITION_REPRESENTATION(#419,#420);
#419=PRODUCT_DEFINITION_SHAPE('',$,#422);
#420=SHAPE_REPRESENTATION('',(#244),#408);
#421=PRODUCT_DEFINITION_CONTEXT('part definition',#426,'design');
#422=PRODUCT_DEFINITION('BV-222-120','BV-222-120',#423,#421);
#423=PRODUCT_DEFINITION_FORMATION('',$,#428);
#424=PRODUCT_RELATED_PRODUCT_CATEGORY('BV-222-120','BV-222-120',(#428));
#425=APPLICATION_PROTOCOL_DEFINITION('international standard',
'automotive_design',2009,#426);
#426=APPLICATION_CONTEXT(
'Core Data for Automotive Mechanical Design Process');
#427=PRODUCT_CONTEXT('part definition',#426,'mechanical');
#428=PRODUCT('BV-222-120','BV-222-120','Motor Spacer Bushing',(#427));
#429=PRESENTATION_STYLE_ASSIGNMENT((#430));
#430=SURFACE_STYLE_USAGE(.BOTH.,#433);
#431=SURFACE_STYLE_RENDERING_WITH_PROPERTIES($,#437,(#432));
#432=SURFACE_STYLE_TRANSPARENT(0.);
#433=SURFACE_SIDE_STYLE('',(#434,#431));
#434=SURFACE_STYLE_FILL_AREA(#435);
#435=FILL_AREA_STYLE('',(#436));
#436=FILL_AREA_STYLE_COLOUR('',#437);
#437=COLOUR_RGB('',0.749019607843137,0.749019607843137,0.749019607843137);
ENDSEC;
END-ISO-10303-21;
