ISO-10303-21;
HEADER;
/* Generated by software containing ST-Developer
 * from STEP Tools, Inc. (www.steptools.com) 
 */

FILE_DESCRIPTION(
/* description */ ('Motor Spacer Bearing housing Bushing'),
/* implementation_level */ '2;1');

FILE_NAME(
/* name */ 'BV-222-119.stp',
/* time_stamp */ '2025-12-15T14:41:57-06:00',
/* author */ ('josh'),
/* organization */ (''),
/* preprocessor_version */ 'ST-DEVELOPER v20',
/* originating_system */ 'Autodesk Inventor 2025',
/* authorisation */ '');

FILE_SCHEMA (('AUTOMOTIVE_DESIGN { 1 0 10303 214 3 1 1 }'));
ENDSEC;

DATA;
#10=MECHANICAL_DESIGN_GEOMETRIC_PRESENTATION_REPRESENTATION('',(#13),#549);
#11=SHAPE_REPRESENTATION_RELATIONSHIP('SRR','None',#560,#12);
#12=ADVANCED_BREP_SHAPE_REPRESENTATION('',(#14),#548);
#13=STYLED_ITEM('',(#569),#14);
#14=MANIFOLD_SOLID_BREP('BV-222-119',#301);
#15=CYLINDRICAL_SURFACE('',#333,2.);
#16=CYLINDRICAL_SURFACE('',#338,1.02411417322835);
#17=CYLINDRICAL_SURFACE('',#343,0.8125);
#18=CYLINDRICAL_SURFACE('',#359,1.37824803149606);
#19=CYLINDRICAL_SURFACE('',#361,0.177);
#20=CYLINDRICAL_SURFACE('',#362,0.177);
#21=CYLINDRICAL_SURFACE('',#363,0.177);
#22=CYLINDRICAL_SURFACE('',#364,0.177);
#23=FACE_BOUND('',#59,.T.);
#24=FACE_BOUND('',#60,.T.);
#25=FACE_BOUND('',#61,.T.);
#26=FACE_BOUND('',#62,.T.);
#27=FACE_BOUND('',#63,.T.);
#28=FACE_BOUND('',#70,.T.);
#29=FACE_BOUND('',#73,.T.);
#30=FACE_BOUND('',#76,.T.);
#31=FACE_BOUND('',#77,.T.);
#32=FACE_BOUND('',#78,.T.);
#33=FACE_BOUND('',#79,.T.);
#34=FACE_BOUND('',#80,.T.);
#35=PLANE('',#327);
#36=PLANE('',#345);
#37=PLANE('',#348);
#38=PLANE('',#353);
#39=FACE_OUTER_BOUND('',#57,.T.);
#40=FACE_OUTER_BOUND('',#58,.T.);
#41=FACE_OUTER_BOUND('',#64,.T.);
#42=FACE_OUTER_BOUND('',#65,.T.);
#43=FACE_OUTER_BOUND('',#66,.T.);
#44=FACE_OUTER_BOUND('',#67,.T.);
#45=FACE_OUTER_BOUND('',#68,.T.);
#46=FACE_OUTER_BOUND('',#69,.T.);
#47=FACE_OUTER_BOUND('',#71,.T.);
#48=FACE_OUTER_BOUND('',#72,.T.);
#49=FACE_OUTER_BOUND('',#74,.T.);
#50=FACE_OUTER_BOUND('',#75,.T.);
#51=FACE_OUTER_BOUND('',#81,.T.);
#52=FACE_OUTER_BOUND('',#82,.T.);
#53=FACE_OUTER_BOUND('',#83,.T.);
#54=FACE_OUTER_BOUND('',#84,.T.);
#55=FACE_OUTER_BOUND('',#85,.T.);
#56=FACE_OUTER_BOUND('',#86,.T.);
#57=EDGE_LOOP('',(#201,#202,#203,#204,#205));
#58=EDGE_LOOP('',(#206));
#59=EDGE_LOOP('',(#207));
#60=EDGE_LOOP('',(#208));
#61=EDGE_LOOP('',(#209));
#62=EDGE_LOOP('',(#210));
#63=EDGE_LOOP('',(#211));
#64=EDGE_LOOP('',(#212,#213,#214,#215,#216,#217));
#65=EDGE_LOOP('',(#218,#219,#220,#221));
#66=EDGE_LOOP('',(#222,#223,#224,#225));
#67=EDGE_LOOP('',(#226,#227,#228,#229));
#68=EDGE_LOOP('',(#230,#231,#232,#233));
#69=EDGE_LOOP('',(#234));
#70=EDGE_LOOP('',(#235));
#71=EDGE_LOOP('',(#236,#237,#238,#239));
#72=EDGE_LOOP('',(#240));
#73=EDGE_LOOP('',(#241));
#74=EDGE_LOOP('',(#242,#243,#244,#245));
#75=EDGE_LOOP('',(#246));
#76=EDGE_LOOP('',(#247));
#77=EDGE_LOOP('',(#248));
#78=EDGE_LOOP('',(#249));
#79=EDGE_LOOP('',(#250));
#80=EDGE_LOOP('',(#251));
#81=EDGE_LOOP('',(#252,#253,#254,#255));
#82=EDGE_LOOP('',(#256,#257,#258,#259,#260));
#83=EDGE_LOOP('',(#261,#262,#263,#264));
#84=EDGE_LOOP('',(#265,#266,#267,#268));
#85=EDGE_LOOP('',(#269,#270,#271,#272));
#86=EDGE_LOOP('',(#273,#274,#275,#276));
#87=LINE('',#472,#101);
#88=LINE('',#490,#102);
#89=LINE('',#494,#103);
#90=LINE('',#498,#104);
#91=LINE('',#503,#105);
#92=LINE('',#508,#106);
#93=LINE('',#513,#107);
#94=LINE('',#521,#108);
#95=LINE('',#535,#109);
#96=LINE('',#537,#110);
#97=LINE('',#539,#111);
#98=LINE('',#541,#112);
#99=LINE('',#543,#113);
#100=LINE('',#545,#114);
#101=VECTOR('',#373,1.98499999999998);
#102=VECTOR('',#394,2.);
#103=VECTOR('',#399,1.03911417322834);
#104=VECTOR('',#404,1.02411417322835);
#105=VECTOR('',#409,0.827499999999997);
#106=VECTOR('',#416,0.8125);
#107=VECTOR('',#423,0.827500000000002);
#108=VECTOR('',#432,1.39324803149607);
#109=VECTOR('',#449,1.37824803149606);
#110=VECTOR('',#452,1.98500000000001);
#111=VECTOR('',#455,0.177);
#112=VECTOR('',#458,0.177);
#113=VECTOR('',#461,0.177);
#114=VECTOR('',#464,0.177);
#115=CIRCLE('',#324,2.);
#116=CIRCLE('',#325,2.);
#117=CIRCLE('',#326,1.97);
#118=CIRCLE('',#328,1.05411417322835);
#119=CIRCLE('',#329,0.177);
#120=CIRCLE('',#330,0.177);
#121=CIRCLE('',#331,0.177);
#122=CIRCLE('',#332,0.177);
#123=CIRCLE('',#334,2.);
#124=CIRCLE('',#335,2.);
#125=CIRCLE('',#337,1.02411417322835);
#126=CIRCLE('',#339,1.02411417322835);
#127=CIRCLE('',#341,0.8125);
#128=CIRCLE('',#342,0.8425);
#129=CIRCLE('',#344,0.8125);
#130=CIRCLE('',#347,0.8425);
#131=CIRCLE('',#349,1.37824803149606);
#132=CIRCLE('',#351,1.40824803149606);
#133=CIRCLE('',#352,1.37824803149606);
#134=CIRCLE('',#354,1.97);
#135=CIRCLE('',#355,0.177);
#136=CIRCLE('',#356,0.177);
#137=CIRCLE('',#357,0.177);
#138=CIRCLE('',#358,0.177);
#139=VERTEX_POINT('',#467);
#140=VERTEX_POINT('',#468);
#141=VERTEX_POINT('',#471);
#142=VERTEX_POINT('',#475);
#143=VERTEX_POINT('',#477);
#144=VERTEX_POINT('',#479);
#145=VERTEX_POINT('',#481);
#146=VERTEX_POINT('',#483);
#147=VERTEX_POINT('',#486);
#148=VERTEX_POINT('',#487);
#149=VERTEX_POINT('',#492);
#150=VERTEX_POINT('',#496);
#151=VERTEX_POINT('',#500);
#152=VERTEX_POINT('',#502);
#153=VERTEX_POINT('',#506);
#154=VERTEX_POINT('',#511);
#155=VERTEX_POINT('',#515);
#156=VERTEX_POINT('',#518);
#157=VERTEX_POINT('',#520);
#158=VERTEX_POINT('',#524);
#159=VERTEX_POINT('',#526);
#160=VERTEX_POINT('',#528);
#161=VERTEX_POINT('',#530);
#162=VERTEX_POINT('',#532);
#163=EDGE_CURVE('',#139,#140,#115,.T.);
#164=EDGE_CURVE('',#140,#139,#116,.T.);
#165=EDGE_CURVE('',#139,#141,#87,.T.);
#166=EDGE_CURVE('',#141,#141,#117,.T.);
#167=EDGE_CURVE('',#142,#142,#118,.T.);
#168=EDGE_CURVE('',#143,#143,#119,.T.);
#169=EDGE_CURVE('',#144,#144,#120,.T.);
#170=EDGE_CURVE('',#145,#145,#121,.T.);
#171=EDGE_CURVE('',#146,#146,#122,.T.);
#172=EDGE_CURVE('',#147,#148,#123,.T.);
#173=EDGE_CURVE('',#148,#147,#124,.T.);
#174=EDGE_CURVE('',#148,#140,#88,.T.);
#175=EDGE_CURVE('',#149,#149,#125,.T.);
#176=EDGE_CURVE('',#149,#142,#89,.T.);
#177=EDGE_CURVE('',#150,#150,#126,.T.);
#178=EDGE_CURVE('',#150,#149,#90,.T.);
#179=EDGE_CURVE('',#151,#151,#127,.T.);
#180=EDGE_CURVE('',#151,#152,#91,.T.);
#181=EDGE_CURVE('',#152,#152,#128,.T.);
#182=EDGE_CURVE('',#153,#153,#129,.T.);
#183=EDGE_CURVE('',#153,#151,#92,.T.);
#184=EDGE_CURVE('',#154,#154,#130,.T.);
#185=EDGE_CURVE('',#154,#153,#93,.T.);
#186=EDGE_CURVE('',#155,#155,#131,.T.);
#187=EDGE_CURVE('',#156,#156,#132,.T.);
#188=EDGE_CURVE('',#156,#157,#94,.T.);
#189=EDGE_CURVE('',#157,#157,#133,.T.);
#190=EDGE_CURVE('',#158,#158,#134,.T.);
#191=EDGE_CURVE('',#159,#159,#135,.T.);
#192=EDGE_CURVE('',#160,#160,#136,.T.);
#193=EDGE_CURVE('',#161,#161,#137,.T.);
#194=EDGE_CURVE('',#162,#162,#138,.T.);
#195=EDGE_CURVE('',#157,#155,#95,.T.);
#196=EDGE_CURVE('',#158,#147,#96,.T.);
#197=EDGE_CURVE('',#162,#146,#97,.T.);
#198=EDGE_CURVE('',#161,#145,#98,.T.);
#199=EDGE_CURVE('',#160,#144,#99,.T.);
#200=EDGE_CURVE('',#159,#143,#100,.T.);
#201=ORIENTED_EDGE('',*,*,#163,.T.);
#202=ORIENTED_EDGE('',*,*,#164,.T.);
#203=ORIENTED_EDGE('',*,*,#165,.T.);
#204=ORIENTED_EDGE('',*,*,#166,.T.);
#205=ORIENTED_EDGE('',*,*,#165,.F.);
#206=ORIENTED_EDGE('',*,*,#166,.F.);
#207=ORIENTED_EDGE('',*,*,#167,.F.);
#208=ORIENTED_EDGE('',*,*,#168,.F.);
#209=ORIENTED_EDGE('',*,*,#169,.F.);
#210=ORIENTED_EDGE('',*,*,#170,.F.);
#211=ORIENTED_EDGE('',*,*,#171,.F.);
#212=ORIENTED_EDGE('',*,*,#172,.F.);
#213=ORIENTED_EDGE('',*,*,#173,.F.);
#214=ORIENTED_EDGE('',*,*,#174,.T.);
#215=ORIENTED_EDGE('',*,*,#163,.F.);
#216=ORIENTED_EDGE('',*,*,#164,.F.);
#217=ORIENTED_EDGE('',*,*,#174,.F.);
#218=ORIENTED_EDGE('',*,*,#175,.T.);
#219=ORIENTED_EDGE('',*,*,#176,.T.);
#220=ORIENTED_EDGE('',*,*,#167,.T.);
#221=ORIENTED_EDGE('',*,*,#176,.F.);
#222=ORIENTED_EDGE('',*,*,#177,.F.);
#223=ORIENTED_EDGE('',*,*,#178,.T.);
#224=ORIENTED_EDGE('',*,*,#175,.F.);
#225=ORIENTED_EDGE('',*,*,#178,.F.);
#226=ORIENTED_EDGE('',*,*,#179,.T.);
#227=ORIENTED_EDGE('',*,*,#180,.T.);
#228=ORIENTED_EDGE('',*,*,#181,.T.);
#229=ORIENTED_EDGE('',*,*,#180,.F.);
#230=ORIENTED_EDGE('',*,*,#182,.F.);
#231=ORIENTED_EDGE('',*,*,#183,.T.);
#232=ORIENTED_EDGE('',*,*,#179,.F.);
#233=ORIENTED_EDGE('',*,*,#183,.F.);
#234=ORIENTED_EDGE('',*,*,#177,.T.);
#235=ORIENTED_EDGE('',*,*,#181,.F.);
#236=ORIENTED_EDGE('',*,*,#184,.T.);
#237=ORIENTED_EDGE('',*,*,#185,.T.);
#238=ORIENTED_EDGE('',*,*,#182,.T.);
#239=ORIENTED_EDGE('',*,*,#185,.F.);
#240=ORIENTED_EDGE('',*,*,#186,.T.);
#241=ORIENTED_EDGE('',*,*,#184,.F.);
#242=ORIENTED_EDGE('',*,*,#187,.T.);
#243=ORIENTED_EDGE('',*,*,#188,.T.);
#244=ORIENTED_EDGE('',*,*,#189,.T.);
#245=ORIENTED_EDGE('',*,*,#188,.F.);
#246=ORIENTED_EDGE('',*,*,#190,.F.);
#247=ORIENTED_EDGE('',*,*,#191,.T.);
#248=ORIENTED_EDGE('',*,*,#192,.T.);
#249=ORIENTED_EDGE('',*,*,#193,.T.);
#250=ORIENTED_EDGE('',*,*,#194,.T.);
#251=ORIENTED_EDGE('',*,*,#187,.F.);
#252=ORIENTED_EDGE('',*,*,#189,.F.);
#253=ORIENTED_EDGE('',*,*,#195,.T.);
#254=ORIENTED_EDGE('',*,*,#186,.F.);
#255=ORIENTED_EDGE('',*,*,#195,.F.);
#256=ORIENTED_EDGE('',*,*,#190,.T.);
#257=ORIENTED_EDGE('',*,*,#196,.T.);
#258=ORIENTED_EDGE('',*,*,#172,.T.);
#259=ORIENTED_EDGE('',*,*,#173,.T.);
#260=ORIENTED_EDGE('',*,*,#196,.F.);
#261=ORIENTED_EDGE('',*,*,#194,.F.);
#262=ORIENTED_EDGE('',*,*,#197,.T.);
#263=ORIENTED_EDGE('',*,*,#171,.T.);
#264=ORIENTED_EDGE('',*,*,#197,.F.);
#265=ORIENTED_EDGE('',*,*,#193,.F.);
#266=ORIENTED_EDGE('',*,*,#198,.T.);
#267=ORIENTED_EDGE('',*,*,#170,.T.);
#268=ORIENTED_EDGE('',*,*,#198,.F.);
#269=ORIENTED_EDGE('',*,*,#192,.F.);
#270=ORIENTED_EDGE('',*,*,#199,.T.);
#271=ORIENTED_EDGE('',*,*,#169,.T.);
#272=ORIENTED_EDGE('',*,*,#199,.F.);
#273=ORIENTED_EDGE('',*,*,#191,.F.);
#274=ORIENTED_EDGE('',*,*,#200,.T.);
#275=ORIENTED_EDGE('',*,*,#168,.T.);
#276=ORIENTED_EDGE('',*,*,#200,.F.);
#277=CONICAL_SURFACE('',#323,1.985,0.785398163397441);
#278=CONICAL_SURFACE('',#336,1.03911417322835,0.785398163397445);
#279=CONICAL_SURFACE('',#340,0.8275,0.785398163397445);
#280=CONICAL_SURFACE('',#346,0.8275,0.785398163397451);
#281=CONICAL_SURFACE('',#350,1.39324803149606,0.785398163397453);
#282=CONICAL_SURFACE('',#360,1.985,0.785398163397456);
#283=ADVANCED_FACE('',(#39),#277,.T.);
#284=ADVANCED_FACE('',(#40,#23,#24,#25,#26,#27),#35,.F.);
#285=ADVANCED_FACE('',(#41),#15,.T.);
#286=ADVANCED_FACE('',(#42),#278,.F.);
#287=ADVANCED_FACE('',(#43),#16,.F.);
#288=ADVANCED_FACE('',(#44),#279,.F.);
#289=ADVANCED_FACE('',(#45),#17,.F.);
#290=ADVANCED_FACE('',(#46,#28),#36,.F.);
#291=ADVANCED_FACE('',(#47),#280,.F.);
#292=ADVANCED_FACE('',(#48,#29),#37,.T.);
#293=ADVANCED_FACE('',(#49),#281,.F.);
#294=ADVANCED_FACE('',(#50,#30,#31,#32,#33,#34),#38,.T.);
#295=ADVANCED_FACE('',(#51),#18,.F.);
#296=ADVANCED_FACE('',(#52),#282,.T.);
#297=ADVANCED_FACE('',(#53),#19,.F.);
#298=ADVANCED_FACE('',(#54),#20,.F.);
#299=ADVANCED_FACE('',(#55),#21,.F.);
#300=ADVANCED_FACE('',(#56),#22,.F.);
#301=CLOSED_SHELL('',(#283,#284,#285,#286,#287,#288,#289,#290,#291,#292,
#293,#294,#295,#296,#297,#298,#299,#300));
#302=DERIVED_UNIT_ELEMENT(#304,1.);
#303=DERIVED_UNIT_ELEMENT(#554,-3.);
#304=(
CONVERSION_BASED_UNIT('gram',#306)
MASS_UNIT()
NAMED_UNIT(#551)
);
#305=(
MASS_UNIT()
NAMED_UNIT(*)
SI_UNIT(.KILO.,.GRAM.)
);
#306=MASS_MEASURE_WITH_UNIT(MASS_MEASURE(0.001),#305);
#307=DERIVED_UNIT((#302,#303));
#308=MEASURE_REPRESENTATION_ITEM('density measure',
POSITIVE_RATIO_MEASURE(7.85),#307);
#309=PROPERTY_DEFINITION_REPRESENTATION(#314,#311);
#310=PROPERTY_DEFINITION_REPRESENTATION(#315,#312);
#311=REPRESENTATION('material name',(#313),#548);
#312=REPRESENTATION('density',(#308),#548);
#313=DESCRIPTIVE_REPRESENTATION_ITEM('Steel, Mild','Steel, Mild');
#314=PROPERTY_DEFINITION('material property','material name',#562);
#315=PROPERTY_DEFINITION('material property','density of part',#562);
#316=DATE_TIME_ROLE('creation_date');
#317=APPLIED_DATE_AND_TIME_ASSIGNMENT(#318,#316,(#562));
#318=DATE_AND_TIME(#319,#320);
#319=CALENDAR_DATE(2025,5,12);
#320=LOCAL_TIME(0,0,0.,#321);
#321=COORDINATED_UNIVERSAL_TIME_OFFSET(0,0,.BEHIND.);
#322=AXIS2_PLACEMENT_3D('',#465,#365,#366);
#323=AXIS2_PLACEMENT_3D('',#466,#367,#368);
#324=AXIS2_PLACEMENT_3D('',#469,#369,#370);
#325=AXIS2_PLACEMENT_3D('',#470,#371,#372);
#326=AXIS2_PLACEMENT_3D('',#473,#374,#375);
#327=AXIS2_PLACEMENT_3D('',#474,#376,#377);
#328=AXIS2_PLACEMENT_3D('',#476,#378,#379);
#329=AXIS2_PLACEMENT_3D('',#478,#380,#381);
#330=AXIS2_PLACEMENT_3D('',#480,#382,#383);
#331=AXIS2_PLACEMENT_3D('',#482,#384,#385);
#332=AXIS2_PLACEMENT_3D('',#484,#386,#387);
#333=AXIS2_PLACEMENT_3D('',#485,#388,#389);
#334=AXIS2_PLACEMENT_3D('',#488,#390,#391);
#335=AXIS2_PLACEMENT_3D('',#489,#392,#393);
#336=AXIS2_PLACEMENT_3D('',#491,#395,#396);
#337=AXIS2_PLACEMENT_3D('',#493,#397,#398);
#338=AXIS2_PLACEMENT_3D('',#495,#400,#401);
#339=AXIS2_PLACEMENT_3D('',#497,#402,#403);
#340=AXIS2_PLACEMENT_3D('',#499,#405,#406);
#341=AXIS2_PLACEMENT_3D('',#501,#407,#408);
#342=AXIS2_PLACEMENT_3D('',#504,#410,#411);
#343=AXIS2_PLACEMENT_3D('',#505,#412,#413);
#344=AXIS2_PLACEMENT_3D('',#507,#414,#415);
#345=AXIS2_PLACEMENT_3D('',#509,#417,#418);
#346=AXIS2_PLACEMENT_3D('',#510,#419,#420);
#347=AXIS2_PLACEMENT_3D('',#512,#421,#422);
#348=AXIS2_PLACEMENT_3D('',#514,#424,#425);
#349=AXIS2_PLACEMENT_3D('',#516,#426,#427);
#350=AXIS2_PLACEMENT_3D('',#517,#428,#429);
#351=AXIS2_PLACEMENT_3D('',#519,#430,#431);
#352=AXIS2_PLACEMENT_3D('',#522,#433,#434);
#353=AXIS2_PLACEMENT_3D('',#523,#435,#436);
#354=AXIS2_PLACEMENT_3D('',#525,#437,#438);
#355=AXIS2_PLACEMENT_3D('',#527,#439,#440);
#356=AXIS2_PLACEMENT_3D('',#529,#441,#442);
#357=AXIS2_PLACEMENT_3D('',#531,#443,#444);
#358=AXIS2_PLACEMENT_3D('',#533,#445,#446);
#359=AXIS2_PLACEMENT_3D('',#534,#447,#448);
#360=AXIS2_PLACEMENT_3D('',#536,#450,#451);
#361=AXIS2_PLACEMENT_3D('',#538,#453,#454);
#362=AXIS2_PLACEMENT_3D('',#540,#456,#457);
#363=AXIS2_PLACEMENT_3D('',#542,#459,#460);
#364=AXIS2_PLACEMENT_3D('',#544,#462,#463);
#365=DIRECTION('axis',(0.,0.,1.));
#366=DIRECTION('refdir',(1.,0.,0.));
#367=DIRECTION('center_axis',(0.,1.,0.));
#368=DIRECTION('ref_axis',(1.,1.08873459192158E-16,-6.99498815297905E-16));
#369=DIRECTION('center_axis',(2.19404889844095E-16,-1.,0.));
#370=DIRECTION('ref_axis',(1.,0.,-6.99498815297905E-16));
#371=DIRECTION('center_axis',(2.19404889844095E-16,-1.,0.));
#372=DIRECTION('ref_axis',(1.,0.,-6.99498815297905E-16));
#373=DIRECTION('',(0.707106781186548,-0.707106781186548,-5.81215961352654E-16));
#374=DIRECTION('center_axis',(-2.19404889844095E-16,1.,0.));
#375=DIRECTION('ref_axis',(1.,2.19404889844095E-16,-6.99498815297905E-16));
#376=DIRECTION('center_axis',(-2.19404889844095E-16,1.,0.));
#377=DIRECTION('ref_axis',(0.,0.,1.));
#378=DIRECTION('center_axis',(2.19404889844095E-16,-1.,0.));
#379=DIRECTION('ref_axis',(1.,2.19404889844094E-16,-6.99498815297905E-16));
#380=DIRECTION('center_axis',(2.19404889844095E-16,-1.,0.));
#381=DIRECTION('ref_axis',(1.,2.19404889844095E-16,-6.99498815297905E-16));
#382=DIRECTION('center_axis',(2.19404889844095E-16,-1.,0.));
#383=DIRECTION('ref_axis',(1.,2.19404889844095E-16,-6.99498815297905E-16));
#384=DIRECTION('center_axis',(2.19404889844095E-16,-1.,0.));
#385=DIRECTION('ref_axis',(1.,2.19404889844095E-16,-6.99498815297905E-16));
#386=DIRECTION('center_axis',(2.19404889844095E-16,-1.,0.));
#387=DIRECTION('ref_axis',(1.,2.19404889844095E-16,-6.99498815297905E-16));
#388=DIRECTION('center_axis',(0.,1.,0.));
#389=DIRECTION('ref_axis',(-1.,0.,6.99498815297905E-16));
#390=DIRECTION('center_axis',(-2.19404889844095E-16,1.,0.));
#391=DIRECTION('ref_axis',(1.,0.,-6.99498815297905E-16));
#392=DIRECTION('center_axis',(-2.19404889844095E-16,1.,0.));
#393=DIRECTION('ref_axis',(1.,0.,-6.99498815297905E-16));
#394=DIRECTION('',(0.,-1.,0.));
#395=DIRECTION('center_axis',(0.,-1.,0.));
#396=DIRECTION('ref_axis',(1.,1.11286040561705E-16,-6.99498815297905E-16));
#397=DIRECTION('center_axis',(-2.19404889844095E-16,1.,0.));
#398=DIRECTION('ref_axis',(1.,0.,-6.99498815297905E-16));
#399=DIRECTION('',(-0.707106781186548,-0.707106781186548,5.81215961352654E-16));
#400=DIRECTION('center_axis',(0.,1.,0.));
#401=DIRECTION('ref_axis',(1.,0.,-6.99498815297905E-16));
#402=DIRECTION('center_axis',(2.19404889844095E-16,-1.,0.));
#403=DIRECTION('ref_axis',(1.,2.19404889844095E-16,-6.99498815297905E-16));
#404=DIRECTION('',(0.,-1.,0.));
#405=DIRECTION('center_axis',(0.,-1.,0.));
#406=DIRECTION('ref_axis',(1.,1.11691008878338E-16,-6.99498815297905E-16));
#407=DIRECTION('center_axis',(-2.19404889844095E-16,1.,0.));
#408=DIRECTION('ref_axis',(1.,0.,-6.99498815297905E-16));
#409=DIRECTION('',(-0.707106781186548,-0.707106781186548,5.81215961352654E-16));
#410=DIRECTION('center_axis',(2.19404889844095E-16,-1.,0.));
#411=DIRECTION('ref_axis',(1.,2.19404889844095E-16,-6.99498815297905E-16));
#412=DIRECTION('center_axis',(0.,1.,0.));
#413=DIRECTION('ref_axis',(1.,0.,-6.99498815297905E-16));
#414=DIRECTION('center_axis',(2.19404889844095E-16,-1.,0.));
#415=DIRECTION('ref_axis',(1.,0.,-6.99498815297905E-16));
#416=DIRECTION('',(0.,-1.,0.));
#417=DIRECTION('center_axis',(-2.19404889844095E-16,1.,0.));
#418=DIRECTION('ref_axis',(0.,0.,1.));
#419=DIRECTION('center_axis',(0.,1.,0.));
#420=DIRECTION('ref_axis',(1.,1.11691008878338E-16,-6.99498815297905E-16));
#421=DIRECTION('center_axis',(-2.19404889844095E-16,1.,0.));
#422=DIRECTION('ref_axis',(1.,2.19404889844095E-16,-6.99498815297905E-16));
#423=DIRECTION('',(0.707106781186548,-0.707106781186547,-5.81215961352654E-16));
#424=DIRECTION('center_axis',(-2.19404889844095E-16,1.,0.));
#425=DIRECTION('ref_axis',(0.,0.,1.));
#426=DIRECTION('center_axis',(-2.19404889844095E-16,1.,0.));
#427=DIRECTION('ref_axis',(1.,0.,-6.99498815297905E-16));
#428=DIRECTION('center_axis',(0.,1.,0.));
#429=DIRECTION('ref_axis',(1.,1.10883524411579E-16,-6.99498815297905E-16));
#430=DIRECTION('center_axis',(-2.19404889844095E-16,1.,0.));
#431=DIRECTION('ref_axis',(1.,2.19404889844095E-16,-6.99498815297905E-16));
#432=DIRECTION('',(0.707106781186548,-0.707106781186548,-5.81215961352654E-16));
#433=DIRECTION('center_axis',(2.19404889844095E-16,-1.,0.));
#434=DIRECTION('ref_axis',(1.,0.,-6.99498815297905E-16));
#435=DIRECTION('center_axis',(-2.19404889844095E-16,1.,0.));
#436=DIRECTION('ref_axis',(0.,0.,1.));
#437=DIRECTION('center_axis',(2.19404889844095E-16,-1.,0.));
#438=DIRECTION('ref_axis',(1.,2.19404889844095E-16,-6.99498815297905E-16));
#439=DIRECTION('center_axis',(2.19404889844095E-16,-1.,0.));
#440=DIRECTION('ref_axis',(1.,2.19404889844095E-16,-6.99498815297905E-16));
#441=DIRECTION('center_axis',(2.19404889844095E-16,-1.,0.));
#442=DIRECTION('ref_axis',(1.,2.19404889844095E-16,-6.99498815297905E-16));
#443=DIRECTION('center_axis',(2.19404889844095E-16,-1.,0.));
#444=DIRECTION('ref_axis',(1.,2.19404889844095E-16,-6.99498815297905E-16));
#445=DIRECTION('center_axis',(2.19404889844095E-16,-1.,0.));
#446=DIRECTION('ref_axis',(1.,2.19404889844095E-16,-6.99498815297905E-16));
#447=DIRECTION('center_axis',(0.,1.,0.));
#448=DIRECTION('ref_axis',(1.,0.,-6.99498815297905E-16));
#449=DIRECTION('',(0.,-1.,0.));
#450=DIRECTION('center_axis',(0.,-1.,0.));
#451=DIRECTION('ref_axis',(1.,1.08873459192158E-16,-6.99498815297905E-16));
#452=DIRECTION('',(-0.707106781186547,-0.707106781186548,5.81215961352654E-16));
#453=DIRECTION('center_axis',(0.,1.,0.));
#454=DIRECTION('ref_axis',(1.,0.,-6.99498815297905E-16));
#455=DIRECTION('',(0.,-1.,0.));
#456=DIRECTION('center_axis',(0.,1.,0.));
#457=DIRECTION('ref_axis',(1.,0.,-6.99498815297905E-16));
#458=DIRECTION('',(0.,-1.,0.));
#459=DIRECTION('center_axis',(0.,1.,0.));
#460=DIRECTION('ref_axis',(1.,0.,-6.99498815297905E-16));
#461=DIRECTION('',(0.,-1.,0.));
#462=DIRECTION('center_axis',(0.,1.,0.));
#463=DIRECTION('ref_axis',(1.,0.,-6.99498815297905E-16));
#464=DIRECTION('',(0.,-1.,0.));
#465=CARTESIAN_POINT('',(0.,0.,0.));
#466=CARTESIAN_POINT('Origin',(19.,12.5244,-5.81249999999999));
#467=CARTESIAN_POINT('',(17.,12.5394,-5.81249999999999));
#468=CARTESIAN_POINT('',(21.,12.5394,-5.81249999999999));
#469=CARTESIAN_POINT('Origin',(19.,12.5394,-5.81249999999999));
#470=CARTESIAN_POINT('Origin',(19.,12.5394,-5.81249999999999));
#471=CARTESIAN_POINT('',(17.03,12.5094,-5.81249999999999));
#472=CARTESIAN_POINT('',(17.015,12.5244,-5.81249999999999));
#473=CARTESIAN_POINT('Origin',(19.,12.5094,-5.81249999999999));
#474=CARTESIAN_POINT('Origin',(19.,12.5094,-5.81249999999999));
#475=CARTESIAN_POINT('',(17.9458858267716,12.5094,-5.81249999999999));
#476=CARTESIAN_POINT('Origin',(19.,12.5094,-5.81249999999999));
#477=CARTESIAN_POINT('',(20.006,12.5094,-4.6295));
#478=CARTESIAN_POINT('Origin',(20.183,12.5094,-4.6295));
#479=CARTESIAN_POINT('',(17.64,12.5094,-4.6295));
#480=CARTESIAN_POINT('Origin',(17.817,12.5094,-4.6295));
#481=CARTESIAN_POINT('',(17.64,12.5094,-6.9955));
#482=CARTESIAN_POINT('Origin',(17.817,12.5094,-6.9955));
#483=CARTESIAN_POINT('',(20.006,12.5094,-6.9955));
#484=CARTESIAN_POINT('Origin',(20.183,12.5094,-6.9955));
#485=CARTESIAN_POINT('Origin',(19.,12.5094,-5.81249999999999));
#486=CARTESIAN_POINT('',(17.,13.6669,-5.81249999999999));
#487=CARTESIAN_POINT('',(21.,13.6669,-5.81249999999999));
#488=CARTESIAN_POINT('Origin',(19.,13.6669,-5.81249999999999));
#489=CARTESIAN_POINT('Origin',(19.,13.6669,-5.81249999999999));
#490=CARTESIAN_POINT('',(21.,12.5094,-5.81249999999999));
#491=CARTESIAN_POINT('Origin',(19.,12.5244,-5.81249999999999));
#492=CARTESIAN_POINT('',(17.9758858267716,12.5394,-5.81249999999999));
#493=CARTESIAN_POINT('Origin',(19.,12.5394,-5.81249999999999));
#494=CARTESIAN_POINT('',(17.9608858267716,12.5244,-5.81249999999999));
#495=CARTESIAN_POINT('Origin',(19.,12.5094,-5.81249999999999));
#496=CARTESIAN_POINT('',(17.9758858267716,13.4194,-5.81249999999999));
#497=CARTESIAN_POINT('Origin',(19.,13.4194,-5.81249999999999));
#498=CARTESIAN_POINT('',(17.9758858267716,12.5094,-5.81249999999999));
#499=CARTESIAN_POINT('Origin',(19.,13.4344,-5.81249999999999));
#500=CARTESIAN_POINT('',(18.1875,13.4494,-5.81249999999999));
#501=CARTESIAN_POINT('Origin',(19.,13.4494,-5.81249999999999));
#502=CARTESIAN_POINT('',(18.1575,13.4194,-5.81249999999999));
#503=CARTESIAN_POINT('',(18.1725,13.4344,-5.81249999999999));
#504=CARTESIAN_POINT('Origin',(19.,13.4194,-5.81249999999999));
#505=CARTESIAN_POINT('Origin',(19.,13.4194,-5.81249999999999));
#506=CARTESIAN_POINT('',(18.1875,13.5644,-5.81249999999999));
#507=CARTESIAN_POINT('Origin',(19.,13.5644,-5.81249999999999));
#508=CARTESIAN_POINT('',(18.1875,13.4194,-5.81249999999999));
#509=CARTESIAN_POINT('Origin',(19.,13.4194,-5.81249999999999));
#510=CARTESIAN_POINT('Origin',(19.,13.5794,-5.81249999999999));
#511=CARTESIAN_POINT('',(18.1575,13.5944,-5.81249999999999));
#512=CARTESIAN_POINT('Origin',(19.,13.5944,-5.81249999999999));
#513=CARTESIAN_POINT('',(18.1725,13.5794,-5.81249999999999));
#514=CARTESIAN_POINT('Origin',(19.,13.5944,-5.81249999999999));
#515=CARTESIAN_POINT('',(17.6217519685039,13.5944,-5.81249999999999));
#516=CARTESIAN_POINT('Origin',(19.,13.5944,-5.81249999999999));
#517=CARTESIAN_POINT('Origin',(19.,13.6819,-5.81249999999999));
#518=CARTESIAN_POINT('',(17.5917519685039,13.6969,-5.81249999999999));
#519=CARTESIAN_POINT('Origin',(19.,13.6969,-5.81249999999999));
#520=CARTESIAN_POINT('',(17.6217519685039,13.6669,-5.81249999999999));
#521=CARTESIAN_POINT('',(17.6067519685039,13.6819,-5.81249999999999));
#522=CARTESIAN_POINT('Origin',(19.,13.6669,-5.81249999999999));
#523=CARTESIAN_POINT('Origin',(19.,13.6969,-5.81249999999999));
#524=CARTESIAN_POINT('',(17.03,13.6969,-5.81249999999999));
#525=CARTESIAN_POINT('Origin',(19.,13.6969,-5.81249999999999));
#526=CARTESIAN_POINT('',(20.006,13.6969,-4.6295));
#527=CARTESIAN_POINT('Origin',(20.183,13.6969,-4.6295));
#528=CARTESIAN_POINT('',(17.64,13.6969,-4.6295));
#529=CARTESIAN_POINT('Origin',(17.817,13.6969,-4.6295));
#530=CARTESIAN_POINT('',(17.64,13.6969,-6.9955));
#531=CARTESIAN_POINT('Origin',(17.817,13.6969,-6.9955));
#532=CARTESIAN_POINT('',(20.006,13.6969,-6.9955));
#533=CARTESIAN_POINT('Origin',(20.183,13.6969,-6.9955));
#534=CARTESIAN_POINT('Origin',(19.,13.5944,-5.81249999999999));
#535=CARTESIAN_POINT('',(17.6217519685039,13.5944,-5.81249999999999));
#536=CARTESIAN_POINT('Origin',(19.,13.6819,-5.81249999999999));
#537=CARTESIAN_POINT('',(17.015,13.6819,-5.81249999999999));
#538=CARTESIAN_POINT('Origin',(20.183,12.5094,-6.9955));
#539=CARTESIAN_POINT('',(20.006,12.5094,-6.9955));
#540=CARTESIAN_POINT('Origin',(17.817,12.5094,-6.9955));
#541=CARTESIAN_POINT('',(17.64,12.5094,-6.9955));
#542=CARTESIAN_POINT('Origin',(17.817,12.5094,-4.6295));
#543=CARTESIAN_POINT('',(17.64,12.5094,-4.6295));
#544=CARTESIAN_POINT('Origin',(20.183,12.5094,-4.6295));
#545=CARTESIAN_POINT('',(20.006,12.5094,-4.6295));
#546=UNCERTAINTY_MEASURE_WITH_UNIT(LENGTH_MEASURE(0.000393700787401575),
#552,'DISTANCE_ACCURACY_VALUE',
'Maximum model space distance between geometric entities at asserted c
onnectivities');
#547=UNCERTAINTY_MEASURE_WITH_UNIT(LENGTH_MEASURE(0.000393700787401575),
#552,'DISTANCE_ACCURACY_VALUE',
'Maximum model space distance between geometric entities at asserted c
onnectivities');
#548=(
GEOMETRIC_REPRESENTATION_CONTEXT(3)
GLOBAL_UNCERTAINTY_ASSIGNED_CONTEXT((#546))
GLOBAL_UNIT_ASSIGNED_CONTEXT((#552,#556,#557))
REPRESENTATION_CONTEXT('','3D')
);
#549=(
GEOMETRIC_REPRESENTATION_CONTEXT(3)
GLOBAL_UNCERTAINTY_ASSIGNED_CONTEXT((#547))
GLOBAL_UNIT_ASSIGNED_CONTEXT((#552,#556,#557))
REPRESENTATION_CONTEXT('','3D')
);
#550=DIMENSIONAL_EXPONENTS(1.,0.,0.,0.,0.,0.,0.);
#551=DIMENSIONAL_EXPONENTS(0.,1.,0.,0.,0.,0.,0.);
#552=(
CONVERSION_BASED_UNIT('inch',#555)
LENGTH_UNIT()
NAMED_UNIT(#550)
);
#553=(
LENGTH_UNIT()
NAMED_UNIT(*)
SI_UNIT(.MILLI.,.METRE.)
);
#554=(
LENGTH_UNIT()
NAMED_UNIT(*)
SI_UNIT(.CENTI.,.METRE.)
);
#555=LENGTH_MEASURE_WITH_UNIT(LENGTH_MEASURE(25.4),#553);
#556=(
NAMED_UNIT(*)
PLANE_ANGLE_UNIT()
SI_UNIT($,.RADIAN.)
);
#557=(
NAMED_UNIT(*)
SI_UNIT($,.STERADIAN.)
SOLID_ANGLE_UNIT()
);
#558=SHAPE_DEFINITION_REPRESENTATION(#559,#560);
#559=PRODUCT_DEFINITION_SHAPE('',$,#562);
#560=SHAPE_REPRESENTATION('',(#322),#548);
#561=PRODUCT_DEFINITION_CONTEXT('part definition',#566,'design');
#562=PRODUCT_DEFINITION('BV-222-119','BV-222-119',#563,#561);
#563=PRODUCT_DEFINITION_FORMATION('',$,#568);
#564=PRODUCT_RELATED_PRODUCT_CATEGORY('BV-222-119','BV-222-119',(#568));
#565=APPLICATION_PROTOCOL_DEFINITION('international standard',
'automotive_design',2009,#566);
#566=APPLICATION_CONTEXT(
'Core Data for Automotive Mechanical Design Process');
#567=PRODUCT_CONTEXT('part definition',#566,'mechanical');
#568=PRODUCT('BV-222-119','BV-222-119',
'Motor Spacer Bearing housing Bushing',(#567));
#569=PRESENTATION_STYLE_ASSIGNMENT((#570));
#570=SURFACE_STYLE_USAGE(.BOTH.,#573);
#571=SURFACE_STYLE_RENDERING_WITH_PROPERTIES($,#577,(#572));
#572=SURFACE_STYLE_TRANSPARENT(0.);
#573=SURFACE_SIDE_STYLE('',(#574,#571));
#574=SURFACE_STYLE_FILL_AREA(#575);
#575=FILL_AREA_STYLE('',(#576));
#576=FILL_AREA_STYLE_COLOUR('',#577);
#577=COLOUR_RGB('',0.749019607843137,0.749019607843137,0.749019607843137);
ENDSEC;
END-ISO-10303-21;
