ISO-10303-21;
HEADER;
/* Generated by software containing ST-Developer
 * from STEP Tools, Inc. (www.steptools.com) 
 */

FILE_DESCRIPTION(
/* description */ ('Base Vehicle Wheel Extention Bushing'),
/* implementation_level */ '2;1');

FILE_NAME(
/* name */ 'BV-222-116.stp',
/* time_stamp */ '2025-12-15T14:40:46-06:00',
/* author */ ('josh'),
/* organization */ (''),
/* preprocessor_version */ 'ST-DEVELOPER v20',
/* originating_system */ 'Autodesk Inventor 2025',
/* authorisation */ '');

FILE_SCHEMA (('AUTOMOTIVE_DESIGN { 1 0 10303 214 3 1 1 }'));
ENDSEC;

DATA;
#10=MECHANICAL_DESIGN_GEOMETRIC_PRESENTATION_REPRESENTATION('',(#13),#839);
#11=SHAPE_REPRESENTATION_RELATIONSHIP('SRR','None',#850,#12);
#12=ADVANCED_BREP_SHAPE_REPRESENTATION('',(#14),#838);
#13=STYLED_ITEM('',(#859),#14);
#14=MANIFOLD_SOLID_BREP('BV-222-116',#467);
#15=CONICAL_SURFACE('',#516,0.765,0.785398163397451);
#16=CONICAL_SURFACE('',#518,0.765,0.785398163397451);
#17=CONICAL_SURFACE('',#520,0.855,0.785398163397451);
#18=CONICAL_SURFACE('',#528,0.765,0.785398163397451);
#19=CONICAL_SURFACE('',#532,1.0386,0.785398163397452);
#20=CONICAL_SURFACE('',#539,1.1725,0.785398163397452);
#21=FACE_BOUND('',#80,.T.);
#22=FACE_BOUND('',#85,.T.);
#23=FACE_BOUND('',#91,.T.);
#24=FACE_BOUND('',#96,.T.);
#25=(
BOUNDED_CURVE()
B_SPLINE_CURVE(2,(#720,#721,#722),.UNSPECIFIED.,.F.,.F.)
B_SPLINE_CURVE_WITH_KNOTS((3,3),(0.,0.115977098228043),.UNSPECIFIED.)
CURVE()
GEOMETRIC_REPRESENTATION_ITEM()
RATIONAL_B_SPLINE_CURVE((1.,1.00025317321138,1.))
REPRESENTATION_ITEM('')
);
#26=(
BOUNDED_CURVE()
B_SPLINE_CURVE(2,(#736,#737,#738),.UNSPECIFIED.,.F.,.F.)
B_SPLINE_CURVE_WITH_KNOTS((3,3),(0.,0.115977098228043),.UNSPECIFIED.)
CURVE()
GEOMETRIC_REPRESENTATION_ITEM()
RATIONAL_B_SPLINE_CURVE((1.,1.00025317321138,1.))
REPRESENTATION_ITEM('')
);
#27=(
BOUNDED_CURVE()
B_SPLINE_CURVE(2,(#760,#761,#762),.UNSPECIFIED.,.F.,.F.)
B_SPLINE_CURVE_WITH_KNOTS((3,3),(0.,0.115977098228043),.UNSPECIFIED.)
CURVE()
GEOMETRIC_REPRESENTATION_ITEM()
RATIONAL_B_SPLINE_CURVE((1.,1.00025317323391,1.))
REPRESENTATION_ITEM('')
);
#28=(
BOUNDED_CURVE()
B_SPLINE_CURVE(2,(#770,#771,#772),.UNSPECIFIED.,.F.,.F.)
B_SPLINE_CURVE_WITH_KNOTS((3,3),(0.,0.115977098228043),.UNSPECIFIED.)
CURVE()
GEOMETRIC_REPRESENTATION_ITEM()
RATIONAL_B_SPLINE_CURVE((1.,1.00025317323391,1.))
REPRESENTATION_ITEM('')
);
#29=PLANE('',#492);
#30=PLANE('',#496);
#31=PLANE('',#500);
#32=PLANE('',#504);
#33=PLANE('',#505);
#34=PLANE('',#506);
#35=PLANE('',#507);
#36=PLANE('',#510);
#37=PLANE('',#512);
#38=PLANE('',#524);
#39=PLANE('',#536);
#40=PLANE('',#544);
#41=FACE_OUTER_BOUND('',#67,.T.);
#42=FACE_OUTER_BOUND('',#68,.T.);
#43=FACE_OUTER_BOUND('',#69,.T.);
#44=FACE_OUTER_BOUND('',#70,.T.);
#45=FACE_OUTER_BOUND('',#71,.T.);
#46=FACE_OUTER_BOUND('',#72,.T.);
#47=FACE_OUTER_BOUND('',#73,.T.);
#48=FACE_OUTER_BOUND('',#74,.T.);
#49=FACE_OUTER_BOUND('',#75,.T.);
#50=FACE_OUTER_BOUND('',#76,.T.);
#51=FACE_OUTER_BOUND('',#77,.T.);
#52=FACE_OUTER_BOUND('',#78,.T.);
#53=FACE_OUTER_BOUND('',#79,.T.);
#54=FACE_OUTER_BOUND('',#81,.T.);
#55=FACE_OUTER_BOUND('',#82,.T.);
#56=FACE_OUTER_BOUND('',#83,.T.);
#57=FACE_OUTER_BOUND('',#84,.T.);
#58=FACE_OUTER_BOUND('',#86,.T.);
#59=FACE_OUTER_BOUND('',#87,.T.);
#60=FACE_OUTER_BOUND('',#88,.T.);
#61=FACE_OUTER_BOUND('',#89,.T.);
#62=FACE_OUTER_BOUND('',#90,.T.);
#63=FACE_OUTER_BOUND('',#92,.T.);
#64=FACE_OUTER_BOUND('',#93,.T.);
#65=FACE_OUTER_BOUND('',#94,.T.);
#66=FACE_OUTER_BOUND('',#95,.T.);
#67=EDGE_LOOP('',(#301,#302,#303,#304));
#68=EDGE_LOOP('',(#305,#306,#307,#308));
#69=EDGE_LOOP('',(#309,#310,#311,#312));
#70=EDGE_LOOP('',(#313,#314,#315,#316,#317));
#71=EDGE_LOOP('',(#318,#319,#320,#321));
#72=EDGE_LOOP('',(#322,#323,#324,#325,#326));
#73=EDGE_LOOP('',(#327,#328,#329,#330));
#74=EDGE_LOOP('',(#331,#332,#333,#334));
#75=EDGE_LOOP('',(#335,#336,#337,#338,#339));
#76=EDGE_LOOP('',(#340,#341,#342,#343,#344));
#77=EDGE_LOOP('',(#345,#346,#347,#348,#349,#350,#351));
#78=EDGE_LOOP('',(#352,#353,#354,#355,#356,#357));
#79=EDGE_LOOP('',(#358));
#80=EDGE_LOOP('',(#359,#360,#361,#362,#363,#364,#365,#366,#367,#368,#369,
#370));
#81=EDGE_LOOP('',(#371,#372,#373,#374));
#82=EDGE_LOOP('',(#375,#376,#377,#378));
#83=EDGE_LOOP('',(#379,#380,#381,#382,#383));
#84=EDGE_LOOP('',(#384));
#85=EDGE_LOOP('',(#385));
#86=EDGE_LOOP('',(#386,#387,#388,#389,#390));
#87=EDGE_LOOP('',(#391,#392,#393,#394,#395));
#88=EDGE_LOOP('',(#396,#397,#398,#399,#400,#401,#402,#403,#404,#405,#406,
#407,#408));
#89=EDGE_LOOP('',(#409,#410,#411,#412,#413));
#90=EDGE_LOOP('',(#414));
#91=EDGE_LOOP('',(#415));
#92=EDGE_LOOP('',(#416,#417,#418,#419,#420));
#93=EDGE_LOOP('',(#421,#422,#423,#424,#425));
#94=EDGE_LOOP('',(#426,#427,#428,#429,#430));
#95=EDGE_LOOP('',(#431));
#96=EDGE_LOOP('',(#432));
#97=LINE('',#697,#129);
#98=LINE('',#700,#130);
#99=LINE('',#703,#131);
#100=LINE('',#705,#132);
#101=LINE('',#706,#133);
#102=LINE('',#712,#134);
#103=LINE('',#715,#135);
#104=LINE('',#718,#136);
#105=LINE('',#724,#137);
#106=LINE('',#725,#138);
#107=LINE('',#731,#139);
#108=LINE('',#734,#140);
#109=LINE('',#740,#141);
#110=LINE('',#741,#142);
#111=LINE('',#747,#143);
#112=LINE('',#750,#144);
#113=LINE('',#752,#145);
#114=LINE('',#753,#146);
#115=LINE('',#756,#147);
#116=LINE('',#758,#148);
#117=LINE('',#763,#149);
#118=LINE('',#766,#150);
#119=LINE('',#768,#151);
#120=LINE('',#773,#152);
#121=LINE('',#793,#153);
#122=LINE('',#802,#154);
#123=LINE('',#806,#155);
#124=LINE('',#811,#156);
#125=LINE('',#816,#157);
#126=LINE('',#824,#158);
#127=LINE('',#827,#159);
#128=LINE('',#833,#160);
#129=VECTOR('',#551,0.393700787401575);
#130=VECTOR('',#554,0.393700787401575);
#131=VECTOR('',#557,0.393700787401575);
#132=VECTOR('',#558,0.393700787401575);
#133=VECTOR('',#559,0.393700787401575);
#134=VECTOR('',#564,0.393700787401575);
#135=VECTOR('',#567,0.393700787401575);
#136=VECTOR('',#570,0.393700787401575);
#137=VECTOR('',#571,0.393700787401575);
#138=VECTOR('',#572,0.393700787401575);
#139=VECTOR('',#579,0.393700787401575);
#140=VECTOR('',#582,0.393700787401575);
#141=VECTOR('',#583,0.393700787401575);
#142=VECTOR('',#584,0.393700787401575);
#143=VECTOR('',#589,0.393700787401575);
#144=VECTOR('',#592,0.393700787401575);
#145=VECTOR('',#595,0.393700787401575);
#146=VECTOR('',#596,0.393700787401575);
#147=VECTOR('',#599,0.393700787401575);
#148=VECTOR('',#600,0.393700787401575);
#149=VECTOR('',#601,0.393700787401575);
#150=VECTOR('',#604,0.393700787401575);
#151=VECTOR('',#605,0.393700787401575);
#152=VECTOR('',#606,0.393700787401575);
#153=VECTOR('',#637,0.855000000000003);
#154=VECTOR('',#648,0.87);
#155=VECTOR('',#653,0.765000000000002);
#156=VECTOR('',#660,0.75);
#157=VECTOR('',#665,1.0386);
#158=VECTOR('',#676,1.0236);
#159=VECTOR('',#679,1.1725);
#160=VECTOR('',#686,1.1875);
#161=CIRCLE('',#490,0.1875);
#162=CIRCLE('',#491,0.1875);
#163=CIRCLE('',#494,0.1875);
#164=CIRCLE('',#495,0.1875);
#165=CIRCLE('',#498,0.1875);
#166=CIRCLE('',#499,0.1875);
#167=CIRCLE('',#502,0.1875);
#168=CIRCLE('',#503,0.1875);
#169=CIRCLE('',#508,0.75);
#170=CIRCLE('',#509,0.75);
#171=CIRCLE('',#511,0.75);
#172=CIRCLE('',#513,1.0236);
#173=CIRCLE('',#514,0.78);
#174=CIRCLE('',#515,0.78);
#175=CIRCLE('',#517,0.75);
#176=CIRCLE('',#519,0.75);
#177=CIRCLE('',#521,0.84);
#178=CIRCLE('',#522,0.87);
#179=CIRCLE('',#523,0.87);
#180=CIRCLE('',#525,0.78);
#181=CIRCLE('',#527,0.87);
#182=CIRCLE('',#529,0.75);
#183=CIRCLE('',#530,0.75);
#184=CIRCLE('',#533,1.0536);
#185=CIRCLE('',#534,1.0236);
#186=CIRCLE('',#535,1.0236);
#187=CIRCLE('',#537,1.1575);
#188=CIRCLE('',#540,1.1875);
#189=CIRCLE('',#541,1.1875);
#190=CIRCLE('',#543,1.1875);
#191=VERTEX_POINT('',#693);
#192=VERTEX_POINT('',#694);
#193=VERTEX_POINT('',#696);
#194=VERTEX_POINT('',#698);
#195=VERTEX_POINT('',#702);
#196=VERTEX_POINT('',#704);
#197=VERTEX_POINT('',#708);
#198=VERTEX_POINT('',#709);
#199=VERTEX_POINT('',#711);
#200=VERTEX_POINT('',#713);
#201=VERTEX_POINT('',#717);
#202=VERTEX_POINT('',#719);
#203=VERTEX_POINT('',#723);
#204=VERTEX_POINT('',#727);
#205=VERTEX_POINT('',#729);
#206=VERTEX_POINT('',#733);
#207=VERTEX_POINT('',#735);
#208=VERTEX_POINT('',#739);
#209=VERTEX_POINT('',#743);
#210=VERTEX_POINT('',#744);
#211=VERTEX_POINT('',#746);
#212=VERTEX_POINT('',#748);
#213=VERTEX_POINT('',#755);
#214=VERTEX_POINT('',#757);
#215=VERTEX_POINT('',#759);
#216=VERTEX_POINT('',#765);
#217=VERTEX_POINT('',#767);
#218=VERTEX_POINT('',#769);
#219=VERTEX_POINT('',#775);
#220=VERTEX_POINT('',#781);
#221=VERTEX_POINT('',#790);
#222=VERTEX_POINT('',#792);
#223=VERTEX_POINT('',#794);
#224=VERTEX_POINT('',#798);
#225=VERTEX_POINT('',#801);
#226=VERTEX_POINT('',#805);
#227=VERTEX_POINT('',#807);
#228=VERTEX_POINT('',#813);
#229=VERTEX_POINT('',#815);
#230=VERTEX_POINT('',#817);
#231=VERTEX_POINT('',#821);
#232=VERTEX_POINT('',#826);
#233=VERTEX_POINT('',#828);
#234=VERTEX_POINT('',#832);
#235=EDGE_CURVE('',#191,#192,#161,.T.);
#236=EDGE_CURVE('',#191,#193,#97,.T.);
#237=EDGE_CURVE('',#193,#194,#162,.T.);
#238=EDGE_CURVE('',#194,#192,#98,.T.);
#239=EDGE_CURVE('',#195,#194,#99,.T.);
#240=EDGE_CURVE('',#196,#195,#100,.T.);
#241=EDGE_CURVE('',#196,#192,#101,.T.);
#242=EDGE_CURVE('',#197,#198,#163,.T.);
#243=EDGE_CURVE('',#197,#199,#102,.T.);
#244=EDGE_CURVE('',#199,#200,#164,.T.);
#245=EDGE_CURVE('',#200,#198,#103,.T.);
#246=EDGE_CURVE('',#201,#200,#104,.T.);
#247=EDGE_CURVE('',#202,#201,#25,.T.);
#248=EDGE_CURVE('',#203,#202,#105,.T.);
#249=EDGE_CURVE('',#203,#198,#106,.T.);
#250=EDGE_CURVE('',#196,#204,#165,.T.);
#251=EDGE_CURVE('',#195,#205,#166,.T.);
#252=EDGE_CURVE('',#205,#204,#107,.T.);
#253=EDGE_CURVE('',#206,#205,#108,.T.);
#254=EDGE_CURVE('',#207,#206,#26,.T.);
#255=EDGE_CURVE('',#208,#207,#109,.T.);
#256=EDGE_CURVE('',#208,#204,#110,.T.);
#257=EDGE_CURVE('',#209,#210,#167,.T.);
#258=EDGE_CURVE('',#209,#211,#111,.T.);
#259=EDGE_CURVE('',#211,#212,#168,.T.);
#260=EDGE_CURVE('',#212,#210,#112,.T.);
#261=EDGE_CURVE('',#197,#210,#113,.T.);
#262=EDGE_CURVE('',#199,#212,#114,.T.);
#263=EDGE_CURVE('',#209,#213,#115,.T.);
#264=EDGE_CURVE('',#214,#213,#116,.T.);
#265=EDGE_CURVE('',#215,#214,#27,.T.);
#266=EDGE_CURVE('',#211,#215,#117,.T.);
#267=EDGE_CURVE('',#191,#216,#118,.T.);
#268=EDGE_CURVE('',#217,#216,#119,.T.);
#269=EDGE_CURVE('',#218,#217,#28,.T.);
#270=EDGE_CURVE('',#193,#218,#120,.T.);
#271=EDGE_CURVE('',#219,#203,#169,.T.);
#272=EDGE_CURVE('',#213,#219,#170,.T.);
#273=EDGE_CURVE('',#216,#208,#171,.T.);
#274=EDGE_CURVE('',#220,#220,#172,.T.);
#275=EDGE_CURVE('',#201,#218,#173,.T.);
#276=EDGE_CURVE('',#206,#215,#174,.T.);
#277=EDGE_CURVE('',#217,#202,#175,.T.);
#278=EDGE_CURVE('',#214,#207,#176,.T.);
#279=EDGE_CURVE('',#221,#221,#177,.T.);
#280=EDGE_CURVE('',#221,#222,#121,.T.);
#281=EDGE_CURVE('',#222,#223,#178,.T.);
#282=EDGE_CURVE('',#223,#222,#179,.T.);
#283=EDGE_CURVE('',#224,#224,#180,.T.);
#284=EDGE_CURVE('',#223,#225,#122,.T.);
#285=EDGE_CURVE('',#225,#225,#181,.T.);
#286=EDGE_CURVE('',#224,#226,#123,.T.);
#287=EDGE_CURVE('',#226,#227,#182,.T.);
#288=EDGE_CURVE('',#227,#226,#183,.T.);
#289=EDGE_CURVE('',#219,#227,#124,.T.);
#290=EDGE_CURVE('',#228,#228,#184,.T.);
#291=EDGE_CURVE('',#228,#229,#125,.T.);
#292=EDGE_CURVE('',#229,#230,#185,.T.);
#293=EDGE_CURVE('',#230,#229,#186,.T.);
#294=EDGE_CURVE('',#231,#231,#187,.T.);
#295=EDGE_CURVE('',#230,#220,#126,.T.);
#296=EDGE_CURVE('',#231,#232,#127,.T.);
#297=EDGE_CURVE('',#232,#233,#188,.T.);
#298=EDGE_CURVE('',#233,#232,#189,.T.);
#299=EDGE_CURVE('',#233,#234,#128,.T.);
#300=EDGE_CURVE('',#234,#234,#190,.T.);
#301=ORIENTED_EDGE('',*,*,#235,.F.);
#302=ORIENTED_EDGE('',*,*,#236,.T.);
#303=ORIENTED_EDGE('',*,*,#237,.T.);
#304=ORIENTED_EDGE('',*,*,#238,.T.);
#305=ORIENTED_EDGE('',*,*,#238,.F.);
#306=ORIENTED_EDGE('',*,*,#239,.F.);
#307=ORIENTED_EDGE('',*,*,#240,.F.);
#308=ORIENTED_EDGE('',*,*,#241,.T.);
#309=ORIENTED_EDGE('',*,*,#242,.F.);
#310=ORIENTED_EDGE('',*,*,#243,.T.);
#311=ORIENTED_EDGE('',*,*,#244,.T.);
#312=ORIENTED_EDGE('',*,*,#245,.T.);
#313=ORIENTED_EDGE('',*,*,#245,.F.);
#314=ORIENTED_EDGE('',*,*,#246,.F.);
#315=ORIENTED_EDGE('',*,*,#247,.F.);
#316=ORIENTED_EDGE('',*,*,#248,.F.);
#317=ORIENTED_EDGE('',*,*,#249,.T.);
#318=ORIENTED_EDGE('',*,*,#250,.F.);
#319=ORIENTED_EDGE('',*,*,#240,.T.);
#320=ORIENTED_EDGE('',*,*,#251,.T.);
#321=ORIENTED_EDGE('',*,*,#252,.T.);
#322=ORIENTED_EDGE('',*,*,#252,.F.);
#323=ORIENTED_EDGE('',*,*,#253,.F.);
#324=ORIENTED_EDGE('',*,*,#254,.F.);
#325=ORIENTED_EDGE('',*,*,#255,.F.);
#326=ORIENTED_EDGE('',*,*,#256,.T.);
#327=ORIENTED_EDGE('',*,*,#257,.F.);
#328=ORIENTED_EDGE('',*,*,#258,.T.);
#329=ORIENTED_EDGE('',*,*,#259,.T.);
#330=ORIENTED_EDGE('',*,*,#260,.T.);
#331=ORIENTED_EDGE('',*,*,#243,.F.);
#332=ORIENTED_EDGE('',*,*,#261,.T.);
#333=ORIENTED_EDGE('',*,*,#260,.F.);
#334=ORIENTED_EDGE('',*,*,#262,.F.);
#335=ORIENTED_EDGE('',*,*,#258,.F.);
#336=ORIENTED_EDGE('',*,*,#263,.T.);
#337=ORIENTED_EDGE('',*,*,#264,.F.);
#338=ORIENTED_EDGE('',*,*,#265,.F.);
#339=ORIENTED_EDGE('',*,*,#266,.F.);
#340=ORIENTED_EDGE('',*,*,#236,.F.);
#341=ORIENTED_EDGE('',*,*,#267,.T.);
#342=ORIENTED_EDGE('',*,*,#268,.F.);
#343=ORIENTED_EDGE('',*,*,#269,.F.);
#344=ORIENTED_EDGE('',*,*,#270,.F.);
#345=ORIENTED_EDGE('',*,*,#242,.T.);
#346=ORIENTED_EDGE('',*,*,#249,.F.);
#347=ORIENTED_EDGE('',*,*,#271,.F.);
#348=ORIENTED_EDGE('',*,*,#272,.F.);
#349=ORIENTED_EDGE('',*,*,#263,.F.);
#350=ORIENTED_EDGE('',*,*,#257,.T.);
#351=ORIENTED_EDGE('',*,*,#261,.F.);
#352=ORIENTED_EDGE('',*,*,#235,.T.);
#353=ORIENTED_EDGE('',*,*,#241,.F.);
#354=ORIENTED_EDGE('',*,*,#250,.T.);
#355=ORIENTED_EDGE('',*,*,#256,.F.);
#356=ORIENTED_EDGE('',*,*,#273,.F.);
#357=ORIENTED_EDGE('',*,*,#267,.F.);
#358=ORIENTED_EDGE('',*,*,#274,.F.);
#359=ORIENTED_EDGE('',*,*,#253,.T.);
#360=ORIENTED_EDGE('',*,*,#251,.F.);
#361=ORIENTED_EDGE('',*,*,#239,.T.);
#362=ORIENTED_EDGE('',*,*,#237,.F.);
#363=ORIENTED_EDGE('',*,*,#270,.T.);
#364=ORIENTED_EDGE('',*,*,#275,.F.);
#365=ORIENTED_EDGE('',*,*,#246,.T.);
#366=ORIENTED_EDGE('',*,*,#244,.F.);
#367=ORIENTED_EDGE('',*,*,#262,.T.);
#368=ORIENTED_EDGE('',*,*,#259,.F.);
#369=ORIENTED_EDGE('',*,*,#266,.T.);
#370=ORIENTED_EDGE('',*,*,#276,.F.);
#371=ORIENTED_EDGE('',*,*,#269,.T.);
#372=ORIENTED_EDGE('',*,*,#277,.T.);
#373=ORIENTED_EDGE('',*,*,#247,.T.);
#374=ORIENTED_EDGE('',*,*,#275,.T.);
#375=ORIENTED_EDGE('',*,*,#254,.T.);
#376=ORIENTED_EDGE('',*,*,#276,.T.);
#377=ORIENTED_EDGE('',*,*,#265,.T.);
#378=ORIENTED_EDGE('',*,*,#278,.T.);
#379=ORIENTED_EDGE('',*,*,#279,.T.);
#380=ORIENTED_EDGE('',*,*,#280,.T.);
#381=ORIENTED_EDGE('',*,*,#281,.T.);
#382=ORIENTED_EDGE('',*,*,#282,.T.);
#383=ORIENTED_EDGE('',*,*,#280,.F.);
#384=ORIENTED_EDGE('',*,*,#279,.F.);
#385=ORIENTED_EDGE('',*,*,#283,.F.);
#386=ORIENTED_EDGE('',*,*,#281,.F.);
#387=ORIENTED_EDGE('',*,*,#282,.F.);
#388=ORIENTED_EDGE('',*,*,#284,.T.);
#389=ORIENTED_EDGE('',*,*,#285,.F.);
#390=ORIENTED_EDGE('',*,*,#284,.F.);
#391=ORIENTED_EDGE('',*,*,#283,.T.);
#392=ORIENTED_EDGE('',*,*,#286,.T.);
#393=ORIENTED_EDGE('',*,*,#287,.T.);
#394=ORIENTED_EDGE('',*,*,#288,.T.);
#395=ORIENTED_EDGE('',*,*,#286,.F.);
#396=ORIENTED_EDGE('',*,*,#255,.T.);
#397=ORIENTED_EDGE('',*,*,#278,.F.);
#398=ORIENTED_EDGE('',*,*,#264,.T.);
#399=ORIENTED_EDGE('',*,*,#272,.T.);
#400=ORIENTED_EDGE('',*,*,#289,.T.);
#401=ORIENTED_EDGE('',*,*,#287,.F.);
#402=ORIENTED_EDGE('',*,*,#288,.F.);
#403=ORIENTED_EDGE('',*,*,#289,.F.);
#404=ORIENTED_EDGE('',*,*,#271,.T.);
#405=ORIENTED_EDGE('',*,*,#248,.T.);
#406=ORIENTED_EDGE('',*,*,#277,.F.);
#407=ORIENTED_EDGE('',*,*,#268,.T.);
#408=ORIENTED_EDGE('',*,*,#273,.T.);
#409=ORIENTED_EDGE('',*,*,#290,.T.);
#410=ORIENTED_EDGE('',*,*,#291,.T.);
#411=ORIENTED_EDGE('',*,*,#292,.T.);
#412=ORIENTED_EDGE('',*,*,#293,.T.);
#413=ORIENTED_EDGE('',*,*,#291,.F.);
#414=ORIENTED_EDGE('',*,*,#294,.F.);
#415=ORIENTED_EDGE('',*,*,#290,.F.);
#416=ORIENTED_EDGE('',*,*,#292,.F.);
#417=ORIENTED_EDGE('',*,*,#293,.F.);
#418=ORIENTED_EDGE('',*,*,#295,.T.);
#419=ORIENTED_EDGE('',*,*,#274,.T.);
#420=ORIENTED_EDGE('',*,*,#295,.F.);
#421=ORIENTED_EDGE('',*,*,#294,.T.);
#422=ORIENTED_EDGE('',*,*,#296,.T.);
#423=ORIENTED_EDGE('',*,*,#297,.T.);
#424=ORIENTED_EDGE('',*,*,#298,.T.);
#425=ORIENTED_EDGE('',*,*,#296,.F.);
#426=ORIENTED_EDGE('',*,*,#297,.F.);
#427=ORIENTED_EDGE('',*,*,#298,.F.);
#428=ORIENTED_EDGE('',*,*,#299,.T.);
#429=ORIENTED_EDGE('',*,*,#300,.T.);
#430=ORIENTED_EDGE('',*,*,#299,.F.);
#431=ORIENTED_EDGE('',*,*,#300,.F.);
#432=ORIENTED_EDGE('',*,*,#285,.T.);
#433=CYLINDRICAL_SURFACE('',#489,0.1875);
#434=CYLINDRICAL_SURFACE('',#493,0.1875);
#435=CYLINDRICAL_SURFACE('',#497,0.1875);
#436=CYLINDRICAL_SURFACE('',#501,0.1875);
#437=CYLINDRICAL_SURFACE('',#526,0.87);
#438=CYLINDRICAL_SURFACE('',#531,0.75);
#439=CYLINDRICAL_SURFACE('',#538,1.0236);
#440=CYLINDRICAL_SURFACE('',#542,1.1875);
#441=ADVANCED_FACE('',(#41),#433,.F.);
#442=ADVANCED_FACE('',(#42),#29,.F.);
#443=ADVANCED_FACE('',(#43),#434,.F.);
#444=ADVANCED_FACE('',(#44),#30,.F.);
#445=ADVANCED_FACE('',(#45),#435,.F.);
#446=ADVANCED_FACE('',(#46),#31,.F.);
#447=ADVANCED_FACE('',(#47),#436,.F.);
#448=ADVANCED_FACE('',(#48),#32,.F.);
#449=ADVANCED_FACE('',(#49),#33,.F.);
#450=ADVANCED_FACE('',(#50),#34,.F.);
#451=ADVANCED_FACE('',(#51),#35,.F.);
#452=ADVANCED_FACE('',(#52),#36,.F.);
#453=ADVANCED_FACE('',(#53,#21),#37,.T.);
#454=ADVANCED_FACE('',(#54),#15,.F.);
#455=ADVANCED_FACE('',(#55),#16,.F.);
#456=ADVANCED_FACE('',(#56),#17,.T.);
#457=ADVANCED_FACE('',(#57,#22),#38,.T.);
#458=ADVANCED_FACE('',(#58),#437,.T.);
#459=ADVANCED_FACE('',(#59),#18,.F.);
#460=ADVANCED_FACE('',(#60),#438,.F.);
#461=ADVANCED_FACE('',(#61),#19,.F.);
#462=ADVANCED_FACE('',(#62,#23),#39,.T.);
#463=ADVANCED_FACE('',(#63),#439,.F.);
#464=ADVANCED_FACE('',(#64),#20,.T.);
#465=ADVANCED_FACE('',(#65),#440,.T.);
#466=ADVANCED_FACE('',(#66,#24),#40,.F.);
#467=CLOSED_SHELL('',(#441,#442,#443,#444,#445,#446,#447,#448,#449,#450,
#451,#452,#453,#454,#455,#456,#457,#458,#459,#460,#461,#462,#463,#464,#465,
#466));
#468=DERIVED_UNIT_ELEMENT(#470,1.);
#469=DERIVED_UNIT_ELEMENT(#844,-3.);
#470=(
CONVERSION_BASED_UNIT('gram',#472)
MASS_UNIT()
NAMED_UNIT(#841)
);
#471=(
MASS_UNIT()
NAMED_UNIT(*)
SI_UNIT(.KILO.,.GRAM.)
);
#472=MASS_MEASURE_WITH_UNIT(MASS_MEASURE(0.001),#471);
#473=DERIVED_UNIT((#468,#469));
#474=MEASURE_REPRESENTATION_ITEM('density measure',
POSITIVE_RATIO_MEASURE(7.85),#473);
#475=PROPERTY_DEFINITION_REPRESENTATION(#480,#477);
#476=PROPERTY_DEFINITION_REPRESENTATION(#481,#478);
#477=REPRESENTATION('material name',(#479),#838);
#478=REPRESENTATION('density',(#474),#838);
#479=DESCRIPTIVE_REPRESENTATION_ITEM('Steel, Mild','Steel, Mild');
#480=PROPERTY_DEFINITION('material property','material name',#852);
#481=PROPERTY_DEFINITION('material property','density of part',#852);
#482=DATE_TIME_ROLE('creation_date');
#483=APPLIED_DATE_AND_TIME_ASSIGNMENT(#484,#482,(#852));
#484=DATE_AND_TIME(#485,#486);
#485=CALENDAR_DATE(2025,5,12);
#486=LOCAL_TIME(0,0,0.,#487);
#487=COORDINATED_UNIVERSAL_TIME_OFFSET(0,0,.BEHIND.);
#488=AXIS2_PLACEMENT_3D('',#691,#545,#546);
#489=AXIS2_PLACEMENT_3D('',#692,#547,#548);
#490=AXIS2_PLACEMENT_3D('',#695,#549,#550);
#491=AXIS2_PLACEMENT_3D('',#699,#552,#553);
#492=AXIS2_PLACEMENT_3D('',#701,#555,#556);
#493=AXIS2_PLACEMENT_3D('',#707,#560,#561);
#494=AXIS2_PLACEMENT_3D('',#710,#562,#563);
#495=AXIS2_PLACEMENT_3D('',#714,#565,#566);
#496=AXIS2_PLACEMENT_3D('',#716,#568,#569);
#497=AXIS2_PLACEMENT_3D('',#726,#573,#574);
#498=AXIS2_PLACEMENT_3D('',#728,#575,#576);
#499=AXIS2_PLACEMENT_3D('',#730,#577,#578);
#500=AXIS2_PLACEMENT_3D('',#732,#580,#581);
#501=AXIS2_PLACEMENT_3D('',#742,#585,#586);
#502=AXIS2_PLACEMENT_3D('',#745,#587,#588);
#503=AXIS2_PLACEMENT_3D('',#749,#590,#591);
#504=AXIS2_PLACEMENT_3D('',#751,#593,#594);
#505=AXIS2_PLACEMENT_3D('',#754,#597,#598);
#506=AXIS2_PLACEMENT_3D('',#764,#602,#603);
#507=AXIS2_PLACEMENT_3D('',#774,#607,#608);
#508=AXIS2_PLACEMENT_3D('',#776,#609,#610);
#509=AXIS2_PLACEMENT_3D('',#777,#611,#612);
#510=AXIS2_PLACEMENT_3D('',#778,#613,#614);
#511=AXIS2_PLACEMENT_3D('',#779,#615,#616);
#512=AXIS2_PLACEMENT_3D('',#780,#617,#618);
#513=AXIS2_PLACEMENT_3D('',#782,#619,#620);
#514=AXIS2_PLACEMENT_3D('',#783,#621,#622);
#515=AXIS2_PLACEMENT_3D('',#784,#623,#624);
#516=AXIS2_PLACEMENT_3D('',#785,#625,#626);
#517=AXIS2_PLACEMENT_3D('',#786,#627,#628);
#518=AXIS2_PLACEMENT_3D('',#787,#629,#630);
#519=AXIS2_PLACEMENT_3D('',#788,#631,#632);
#520=AXIS2_PLACEMENT_3D('',#789,#633,#634);
#521=AXIS2_PLACEMENT_3D('',#791,#635,#636);
#522=AXIS2_PLACEMENT_3D('',#795,#638,#639);
#523=AXIS2_PLACEMENT_3D('',#796,#640,#641);
#524=AXIS2_PLACEMENT_3D('',#797,#642,#643);
#525=AXIS2_PLACEMENT_3D('',#799,#644,#645);
#526=AXIS2_PLACEMENT_3D('',#800,#646,#647);
#527=AXIS2_PLACEMENT_3D('',#803,#649,#650);
#528=AXIS2_PLACEMENT_3D('',#804,#651,#652);
#529=AXIS2_PLACEMENT_3D('',#808,#654,#655);
#530=AXIS2_PLACEMENT_3D('',#809,#656,#657);
#531=AXIS2_PLACEMENT_3D('',#810,#658,#659);
#532=AXIS2_PLACEMENT_3D('',#812,#661,#662);
#533=AXIS2_PLACEMENT_3D('',#814,#663,#664);
#534=AXIS2_PLACEMENT_3D('',#818,#666,#667);
#535=AXIS2_PLACEMENT_3D('',#819,#668,#669);
#536=AXIS2_PLACEMENT_3D('',#820,#670,#671);
#537=AXIS2_PLACEMENT_3D('',#822,#672,#673);
#538=AXIS2_PLACEMENT_3D('',#823,#674,#675);
#539=AXIS2_PLACEMENT_3D('',#825,#677,#678);
#540=AXIS2_PLACEMENT_3D('',#829,#680,#681);
#541=AXIS2_PLACEMENT_3D('',#830,#682,#683);
#542=AXIS2_PLACEMENT_3D('',#831,#684,#685);
#543=AXIS2_PLACEMENT_3D('',#834,#687,#688);
#544=AXIS2_PLACEMENT_3D('',#835,#689,#690);
#545=DIRECTION('axis',(0.,0.,1.));
#546=DIRECTION('refdir',(1.,0.,0.));
#547=DIRECTION('center_axis',(0.,-1.,0.));
#548=DIRECTION('ref_axis',(0.707106781186553,0.,0.707106781186542));
#549=DIRECTION('center_axis',(0.,1.,0.));
#550=DIRECTION('ref_axis',(0.707106781186553,0.,0.707106781186542));
#551=DIRECTION('',(0.,1.,0.));
#552=DIRECTION('center_axis',(-2.19404889844095E-16,1.,0.));
#553=DIRECTION('ref_axis',(0.707106781186553,0.,0.707106781186542));
#554=DIRECTION('',(0.,-1.,0.));
#555=DIRECTION('center_axis',(1.,0.,-4.66235390918701E-16));
#556=DIRECTION('ref_axis',(4.66235390918701E-16,1.02294324585936E-31,1.));
#557=DIRECTION('',(4.66235390918701E-16,1.02294324585936E-31,1.));
#558=DIRECTION('',(0.,1.,0.));
#559=DIRECTION('',(4.66235390918701E-16,1.02294324585936E-31,1.));
#560=DIRECTION('center_axis',(0.,-1.,0.));
#561=DIRECTION('ref_axis',(-0.707106781186553,0.,0.707106781186542));
#562=DIRECTION('center_axis',(0.,1.,0.));
#563=DIRECTION('ref_axis',(-0.707106781186553,0.,0.707106781186542));
#564=DIRECTION('',(0.,1.,0.));
#565=DIRECTION('center_axis',(-2.19404889844095E-16,1.,0.));
#566=DIRECTION('ref_axis',(-0.707106781186553,0.,0.707106781186542));
#567=DIRECTION('',(0.,-1.,0.));
#568=DIRECTION('center_axis',(2.49768959420733E-16,0.,1.));
#569=DIRECTION('ref_axis',(-1.,-2.19404889844094E-16,2.49768959420733E-16));
#570=DIRECTION('',(-1.,-2.19404889844094E-16,2.49768959420733E-16));
#571=DIRECTION('',(0.,1.,0.));
#572=DIRECTION('',(-1.,-2.19404889844094E-16,2.49768959420733E-16));
#573=DIRECTION('center_axis',(0.,-1.,0.));
#574=DIRECTION('ref_axis',(0.707106781186553,0.,-0.707106781186542));
#575=DIRECTION('center_axis',(0.,1.,0.));
#576=DIRECTION('ref_axis',(0.707106781186553,0.,-0.707106781186542));
#577=DIRECTION('center_axis',(-2.19404889844095E-16,1.,0.));
#578=DIRECTION('ref_axis',(0.707106781186553,0.,-0.707106781186542));
#579=DIRECTION('',(0.,-1.,0.));
#580=DIRECTION('center_axis',(-2.49768959420733E-16,0.,-1.));
#581=DIRECTION('ref_axis',(1.,2.19404889844094E-16,-2.49768959420733E-16));
#582=DIRECTION('',(1.,2.19404889844094E-16,-2.49768959420733E-16));
#583=DIRECTION('',(0.,1.,0.));
#584=DIRECTION('',(1.,2.19404889844094E-16,-2.49768959420733E-16));
#585=DIRECTION('center_axis',(0.,-1.,0.));
#586=DIRECTION('ref_axis',(-0.707106781186553,0.,-0.707106781186542));
#587=DIRECTION('center_axis',(0.,1.,0.));
#588=DIRECTION('ref_axis',(-0.707106781186553,0.,-0.707106781186542));
#589=DIRECTION('',(0.,1.,0.));
#590=DIRECTION('center_axis',(-2.19404889844095E-16,1.,0.));
#591=DIRECTION('ref_axis',(-0.707106781186553,0.,-0.707106781186542));
#592=DIRECTION('',(0.,-1.,0.));
#593=DIRECTION('center_axis',(-1.,0.,4.66235390918701E-16));
#594=DIRECTION('ref_axis',(-4.66235390918701E-16,-1.02294324585936E-31,
-1.));
#595=DIRECTION('',(-4.66235390918701E-16,-1.02294324585936E-31,-1.));
#596=DIRECTION('',(-4.66235390918701E-16,-1.02294324585936E-31,-1.));
#597=DIRECTION('center_axis',(-2.49768959420733E-16,0.,-1.));
#598=DIRECTION('ref_axis',(1.,2.19404889844094E-16,-2.49768959420733E-16));
#599=DIRECTION('',(1.,2.19404889844094E-16,-2.49768959420733E-16));
#600=DIRECTION('',(0.,-1.,0.));
#601=DIRECTION('',(1.,2.19404889844094E-16,-2.49768959420733E-16));
#602=DIRECTION('center_axis',(2.49768959420733E-16,0.,1.));
#603=DIRECTION('ref_axis',(-1.,-2.19404889844094E-16,2.49768959420733E-16));
#604=DIRECTION('',(-1.,-2.19404889844094E-16,2.49768959420733E-16));
#605=DIRECTION('',(0.,-1.,0.));
#606=DIRECTION('',(-1.,-2.19404889844094E-16,2.49768959420733E-16));
#607=DIRECTION('center_axis',(0.,-1.,0.));
#608=DIRECTION('ref_axis',(0.,0.,-1.));
#609=DIRECTION('center_axis',(0.,1.,0.));
#610=DIRECTION('ref_axis',(1.,0.,-7.58620297088054E-16));
#611=DIRECTION('center_axis',(0.,1.,0.));
#612=DIRECTION('ref_axis',(1.,0.,-7.58620297088054E-16));
#613=DIRECTION('center_axis',(0.,-1.,0.));
#614=DIRECTION('ref_axis',(0.,0.,-1.));
#615=DIRECTION('center_axis',(0.,1.,0.));
#616=DIRECTION('ref_axis',(1.,0.,-7.58620297088054E-16));
#617=DIRECTION('center_axis',(-2.19404889844095E-16,1.,0.));
#618=DIRECTION('ref_axis',(0.,0.,1.));
#619=DIRECTION('center_axis',(2.19404889844095E-16,-1.,0.));
#620=DIRECTION('ref_axis',(-1.,-2.19404889844095E-16,7.58620297088054E-16));
#621=DIRECTION('center_axis',(-2.19404889844095E-16,1.,0.));
#622=DIRECTION('ref_axis',(1.,2.19404889844095E-16,-7.58620297088054E-16));
#623=DIRECTION('center_axis',(-2.19404889844095E-16,1.,0.));
#624=DIRECTION('ref_axis',(1.,2.19404889844095E-16,-7.58620297088054E-16));
#625=DIRECTION('center_axis',(0.,1.,0.));
#626=DIRECTION('ref_axis',(1.,1.11853473253852E-16,-7.58620297088054E-16));
#627=DIRECTION('center_axis',(2.19404889844095E-16,-1.,0.));
#628=DIRECTION('ref_axis',(1.,0.,-7.58620297088054E-16));
#629=DIRECTION('center_axis',(0.,1.,0.));
#630=DIRECTION('ref_axis',(1.,1.11853473253852E-16,-7.58620297088054E-16));
#631=DIRECTION('center_axis',(2.19404889844095E-16,-1.,0.));
#632=DIRECTION('ref_axis',(1.,0.,-7.58620297088054E-16));
#633=DIRECTION('center_axis',(0.,1.,0.));
#634=DIRECTION('ref_axis',(-1.,-1.07777840625169E-16,0.));
#635=DIRECTION('center_axis',(-2.19404889844095E-16,1.,0.));
#636=DIRECTION('ref_axis',(-1.,-2.19404889844095E-16,0.));
#637=DIRECTION('',(0.707106781186547,0.707106781186548,8.65956056235493E-17));
#638=DIRECTION('center_axis',(2.19404889844095E-16,-1.,0.));
#639=DIRECTION('ref_axis',(-1.,0.,0.));
#640=DIRECTION('center_axis',(2.19404889844095E-16,-1.,0.));
#641=DIRECTION('ref_axis',(-1.,0.,0.));
#642=DIRECTION('center_axis',(2.19404889844095E-16,-1.,0.));
#643=DIRECTION('ref_axis',(0.,0.,-1.));
#644=DIRECTION('center_axis',(2.19404889844095E-16,-1.,0.));
#645=DIRECTION('ref_axis',(-1.,-2.19404889844095E-16,7.58620297088054E-16));
#646=DIRECTION('center_axis',(0.,-1.,0.));
#647=DIRECTION('ref_axis',(1.,0.,0.));
#648=DIRECTION('',(0.,1.,0.));
#649=DIRECTION('center_axis',(-2.19404889844095E-16,1.,0.));
#650=DIRECTION('ref_axis',(1.,0.,0.));
#651=DIRECTION('center_axis',(0.,-1.,0.));
#652=DIRECTION('ref_axis',(-1.,-1.11853473253852E-16,7.58620297088054E-16));
#653=DIRECTION('',(-0.707106781186548,0.707106781186547,4.49829950793167E-16));
#654=DIRECTION('center_axis',(-2.19404889844095E-16,1.,0.));
#655=DIRECTION('ref_axis',(-1.,0.,7.58620297088054E-16));
#656=DIRECTION('center_axis',(-2.19404889844095E-16,1.,0.));
#657=DIRECTION('ref_axis',(-1.,0.,7.58620297088054E-16));
#658=DIRECTION('center_axis',(0.,1.,0.));
#659=DIRECTION('ref_axis',(1.,0.,-7.58620297088054E-16));
#660=DIRECTION('',(0.,-1.,0.));
#661=DIRECTION('center_axis',(0.,1.,0.));
#662=DIRECTION('ref_axis',(1.,1.11286824542527E-16,-7.58620297088054E-16));
#663=DIRECTION('center_axis',(-2.19404889844095E-16,1.,0.));
#664=DIRECTION('ref_axis',(1.,2.19404889844095E-16,-7.58620297088054E-16));
#665=DIRECTION('',(0.707106781186548,-0.707106781186547,-6.23021162040265E-16));
#666=DIRECTION('center_axis',(2.19404889844095E-16,-1.,0.));
#667=DIRECTION('ref_axis',(1.,0.,-7.58620297088054E-16));
#668=DIRECTION('center_axis',(2.19404889844095E-16,-1.,0.));
#669=DIRECTION('ref_axis',(1.,0.,-7.58620297088054E-16));
#670=DIRECTION('center_axis',(-2.19404889844095E-16,1.,0.));
#671=DIRECTION('ref_axis',(0.,0.,1.));
#672=DIRECTION('center_axis',(2.19404889844095E-16,-1.,0.));
#673=DIRECTION('ref_axis',(1.,2.19404889844094E-16,-7.58620297088054E-16));
#674=DIRECTION('center_axis',(0.,-1.,0.));
#675=DIRECTION('ref_axis',(-1.,0.,7.58620297088054E-16));
#676=DIRECTION('',(0.,-1.,0.));
#677=DIRECTION('center_axis',(0.,-1.,0.));
#678=DIRECTION('ref_axis',(1.,1.08299002129868E-16,-7.58620297088054E-16));
#679=DIRECTION('',(-0.707106781186547,-0.707106781186548,6.23021162040265E-16));
#680=DIRECTION('center_axis',(-2.19404889844095E-16,1.,0.));
#681=DIRECTION('ref_axis',(1.,0.,-7.58620297088054E-16));
#682=DIRECTION('center_axis',(-2.19404889844095E-16,1.,0.));
#683=DIRECTION('ref_axis',(1.,0.,-7.58620297088054E-16));
#684=DIRECTION('center_axis',(0.,1.,0.));
#685=DIRECTION('ref_axis',(-1.,0.,7.58620297088054E-16));
#686=DIRECTION('',(0.,-1.,0.));
#687=DIRECTION('center_axis',(-2.19404889844095E-16,1.,0.));
#688=DIRECTION('ref_axis',(-1.,-2.19404889844094E-16,7.58620297088054E-16));
#689=DIRECTION('center_axis',(-2.19404889844095E-16,1.,0.));
#690=DIRECTION('ref_axis',(0.,0.,1.));
#691=CARTESIAN_POINT('',(0.,0.,0.));
#692=CARTESIAN_POINT('Origin',(19.6875,22.84,-5.625));
#693=CARTESIAN_POINT('',(19.6875,22.34,-5.4375));
#694=CARTESIAN_POINT('',(19.875,22.34,-5.625));
#695=CARTESIAN_POINT('Origin',(19.6875,22.34,-5.625));
#696=CARTESIAN_POINT('',(19.6875,22.84,-5.4375));
#697=CARTESIAN_POINT('',(19.6875,22.84,-5.4375));
#698=CARTESIAN_POINT('',(19.875,22.84,-5.625));
#699=CARTESIAN_POINT('Origin',(19.6875,22.84,-5.625));
#700=CARTESIAN_POINT('',(19.875,22.84,-5.625));
#701=CARTESIAN_POINT('Origin',(19.875,22.84,-6.1875));
#702=CARTESIAN_POINT('',(19.875,22.84,-6.));
#703=CARTESIAN_POINT('',(19.875,22.84,-6.));
#704=CARTESIAN_POINT('',(19.875,22.34,-6.));
#705=CARTESIAN_POINT('',(19.875,22.84,-6.));
#706=CARTESIAN_POINT('',(19.875,22.34,-5.4375));
#707=CARTESIAN_POINT('Origin',(18.3125,22.84,-5.625));
#708=CARTESIAN_POINT('',(18.125,22.34,-5.625));
#709=CARTESIAN_POINT('',(18.3125,22.34,-5.4375));
#710=CARTESIAN_POINT('Origin',(18.3125,22.34,-5.625));
#711=CARTESIAN_POINT('',(18.125,22.84,-5.625));
#712=CARTESIAN_POINT('',(18.125,22.84,-5.625));
#713=CARTESIAN_POINT('',(18.3125,22.84,-5.4375));
#714=CARTESIAN_POINT('Origin',(18.3125,22.84,-5.625));
#715=CARTESIAN_POINT('',(18.3125,22.84,-5.4375));
#716=CARTESIAN_POINT('Origin',(19.875,22.84,-5.4375));
#717=CARTESIAN_POINT('',(18.3160592130893,22.84,-5.4375));
#718=CARTESIAN_POINT('',(19.4375,22.84,-5.4375));
#719=CARTESIAN_POINT('',(18.3504809471617,22.81,-5.4375));
#720=CARTESIAN_POINT('Ctrl Pts',(18.3504809471617,22.81,-5.4375));
#721=CARTESIAN_POINT('Ctrl Pts',(18.3336075481067,22.8246127922298,-5.4375));
#722=CARTESIAN_POINT('Ctrl Pts',(18.3160592130893,22.84,-5.4375));
#723=CARTESIAN_POINT('',(18.3504809471617,22.34,-5.4375));
#724=CARTESIAN_POINT('',(18.3504809471617,18.,-5.4375));
#725=CARTESIAN_POINT('',(18.125,22.34,-5.4375));
#726=CARTESIAN_POINT('Origin',(19.6875,22.84,-6.));
#727=CARTESIAN_POINT('',(19.6875,22.34,-6.1875));
#728=CARTESIAN_POINT('Origin',(19.6875,22.34,-6.));
#729=CARTESIAN_POINT('',(19.6875,22.84,-6.1875));
#730=CARTESIAN_POINT('Origin',(19.6875,22.84,-6.));
#731=CARTESIAN_POINT('',(19.6875,22.84,-6.1875));
#732=CARTESIAN_POINT('Origin',(18.125,22.84,-6.1875));
#733=CARTESIAN_POINT('',(19.6839407869107,22.84,-6.1875));
#734=CARTESIAN_POINT('',(18.5625,22.84,-6.1875));
#735=CARTESIAN_POINT('',(19.6495190528383,22.81,-6.1875));
#736=CARTESIAN_POINT('Ctrl Pts',(19.6495190528383,22.81,-6.1875));
#737=CARTESIAN_POINT('Ctrl Pts',(19.6663924518933,22.8246127922298,-6.1875));
#738=CARTESIAN_POINT('Ctrl Pts',(19.6839407869107,22.84,-6.1875));
#739=CARTESIAN_POINT('',(19.6495190528383,22.34,-6.1875));
#740=CARTESIAN_POINT('',(19.6495190528383,18.,-6.1875));
#741=CARTESIAN_POINT('',(19.875,22.34,-6.1875));
#742=CARTESIAN_POINT('Origin',(18.3125,22.84,-6.));
#743=CARTESIAN_POINT('',(18.3125,22.34,-6.1875));
#744=CARTESIAN_POINT('',(18.125,22.34,-6.));
#745=CARTESIAN_POINT('Origin',(18.3125,22.34,-6.));
#746=CARTESIAN_POINT('',(18.3125,22.84,-6.1875));
#747=CARTESIAN_POINT('',(18.3125,22.84,-6.1875));
#748=CARTESIAN_POINT('',(18.125,22.84,-6.));
#749=CARTESIAN_POINT('Origin',(18.3125,22.84,-6.));
#750=CARTESIAN_POINT('',(18.125,22.84,-6.));
#751=CARTESIAN_POINT('Origin',(18.125,22.84,-5.4375));
#752=CARTESIAN_POINT('',(18.125,22.34,-6.1875));
#753=CARTESIAN_POINT('',(18.125,22.84,-5.625));
#754=CARTESIAN_POINT('Origin',(18.125,22.84,-6.1875));
#755=CARTESIAN_POINT('',(18.3504809471617,22.34,-6.1875));
#756=CARTESIAN_POINT('',(19.875,22.34,-6.1875));
#757=CARTESIAN_POINT('',(18.3504809471617,22.81,-6.1875));
#758=CARTESIAN_POINT('',(18.3504809471617,18.,-6.1875));
#759=CARTESIAN_POINT('',(18.3160592130893,22.84,-6.1875));
#760=CARTESIAN_POINT('Ctrl Pts',(18.3160592130893,22.84,-6.1875));
#761=CARTESIAN_POINT('Ctrl Pts',(18.3336075481067,22.8246127922298,-6.1875));
#762=CARTESIAN_POINT('Ctrl Pts',(18.3504809471617,22.81,-6.1875));
#763=CARTESIAN_POINT('',(18.5625,22.84,-6.1875));
#764=CARTESIAN_POINT('Origin',(19.875,22.84,-5.4375));
#765=CARTESIAN_POINT('',(19.6495190528383,22.34,-5.4375));
#766=CARTESIAN_POINT('',(18.125,22.34,-5.4375));
#767=CARTESIAN_POINT('',(19.6495190528383,22.81,-5.4375));
#768=CARTESIAN_POINT('',(19.6495190528383,18.,-5.4375));
#769=CARTESIAN_POINT('',(19.6839407869107,22.84,-5.4375));
#770=CARTESIAN_POINT('Ctrl Pts',(19.6839407869107,22.84,-5.4375));
#771=CARTESIAN_POINT('Ctrl Pts',(19.6663924518933,22.8246127922298,-5.4375));
#772=CARTESIAN_POINT('Ctrl Pts',(19.6495190528383,22.81,-5.4375));
#773=CARTESIAN_POINT('',(19.4375,22.84,-5.4375));
#774=CARTESIAN_POINT('Origin',(19.,22.34,-5.8125));
#775=CARTESIAN_POINT('',(18.25,22.34,-5.8125));
#776=CARTESIAN_POINT('Origin',(19.,22.34,-5.8125));
#777=CARTESIAN_POINT('Origin',(19.,22.34,-5.8125));
#778=CARTESIAN_POINT('Origin',(19.,22.34,-5.8125));
#779=CARTESIAN_POINT('Origin',(19.,22.34,-5.8125));
#780=CARTESIAN_POINT('Origin',(19.,22.84,-5.8125));
#781=CARTESIAN_POINT('',(20.0236,22.84,-5.8125));
#782=CARTESIAN_POINT('Origin',(19.,22.84,-5.8125));
#783=CARTESIAN_POINT('Origin',(19.,22.84,-5.8125));
#784=CARTESIAN_POINT('Origin',(19.,22.84,-5.8125));
#785=CARTESIAN_POINT('Origin',(19.,22.825,-5.8125));
#786=CARTESIAN_POINT('Origin',(19.,22.81,-5.8125));
#787=CARTESIAN_POINT('Origin',(19.,22.825,-5.8125));
#788=CARTESIAN_POINT('Origin',(19.,22.81,-5.8125));
#789=CARTESIAN_POINT('Origin',(19.,17.8375,-5.8125));
#790=CARTESIAN_POINT('',(19.84,17.8225,-5.8125));
#791=CARTESIAN_POINT('Origin',(19.,17.8225,-5.8125));
#792=CARTESIAN_POINT('',(19.87,17.8525,-5.8125));
#793=CARTESIAN_POINT('',(19.855,17.8375,-5.8125));
#794=CARTESIAN_POINT('',(18.13,17.8525,-5.8125));
#795=CARTESIAN_POINT('Origin',(19.,17.8525,-5.8125));
#796=CARTESIAN_POINT('Origin',(19.,17.8525,-5.8125));
#797=CARTESIAN_POINT('Origin',(19.,17.8225,-5.8125));
#798=CARTESIAN_POINT('',(19.78,17.8225,-5.8125));
#799=CARTESIAN_POINT('Origin',(19.,17.8225,-5.8125));
#800=CARTESIAN_POINT('Origin',(19.,18.,-5.8125));
#801=CARTESIAN_POINT('',(18.13,18.,-5.8125));
#802=CARTESIAN_POINT('',(18.13,18.,-5.8125));
#803=CARTESIAN_POINT('Origin',(19.,18.,-5.8125));
#804=CARTESIAN_POINT('Origin',(19.,17.8375,-5.8125));
#805=CARTESIAN_POINT('',(19.75,17.8525,-5.8125));
#806=CARTESIAN_POINT('',(19.765,17.8375,-5.8125));
#807=CARTESIAN_POINT('',(18.25,17.8525,-5.8125));
#808=CARTESIAN_POINT('Origin',(19.,17.8525,-5.8125));
#809=CARTESIAN_POINT('Origin',(19.,17.8525,-5.8125));
#810=CARTESIAN_POINT('Origin',(19.,18.,-5.8125));
#811=CARTESIAN_POINT('',(18.25,18.,-5.8125));
#812=CARTESIAN_POINT('Origin',(19.,23.735,-5.8125));
#813=CARTESIAN_POINT('',(17.9464,23.75,-5.8125));
#814=CARTESIAN_POINT('Origin',(19.,23.75,-5.8125));
#815=CARTESIAN_POINT('',(17.9764,23.72,-5.8125));
#816=CARTESIAN_POINT('',(17.9614,23.735,-5.8125));
#817=CARTESIAN_POINT('',(20.0236,23.72,-5.8125));
#818=CARTESIAN_POINT('Origin',(19.,23.72,-5.8125));
#819=CARTESIAN_POINT('Origin',(19.,23.72,-5.8125));
#820=CARTESIAN_POINT('Origin',(19.,23.75,-5.8125));
#821=CARTESIAN_POINT('',(17.8425,23.75,-5.8125));
#822=CARTESIAN_POINT('Origin',(19.,23.75,-5.8125));
#823=CARTESIAN_POINT('Origin',(19.,23.75,-5.8125));
#824=CARTESIAN_POINT('',(20.0236,23.75,-5.8125));
#825=CARTESIAN_POINT('Origin',(19.,23.735,-5.8125));
#826=CARTESIAN_POINT('',(17.8125,23.72,-5.8125));
#827=CARTESIAN_POINT('',(17.8275,23.735,-5.8125));
#828=CARTESIAN_POINT('',(20.1875,23.72,-5.8125));
#829=CARTESIAN_POINT('Origin',(19.,23.72,-5.8125));
#830=CARTESIAN_POINT('Origin',(19.,23.72,-5.8125));
#831=CARTESIAN_POINT('Origin',(19.,18.,-5.8125));
#832=CARTESIAN_POINT('',(20.1875,18.,-5.8125));
#833=CARTESIAN_POINT('',(20.1875,18.,-5.8125));
#834=CARTESIAN_POINT('Origin',(19.,18.,-5.8125));
#835=CARTESIAN_POINT('Origin',(19.,18.,-5.8125));
#836=UNCERTAINTY_MEASURE_WITH_UNIT(LENGTH_MEASURE(0.000393700787401575),
#842,'DISTANCE_ACCURACY_VALUE',
'Maximum model space distance between geometric entities at asserted c
onnectivities');
#837=UNCERTAINTY_MEASURE_WITH_UNIT(LENGTH_MEASURE(0.000393700787401575),
#842,'DISTANCE_ACCURACY_VALUE',
'Maximum model space distance between geometric entities at asserted c
onnectivities');
#838=(
GEOMETRIC_REPRESENTATION_CONTEXT(3)
GLOBAL_UNCERTAINTY_ASSIGNED_CONTEXT((#836))
GLOBAL_UNIT_ASSIGNED_CONTEXT((#842,#846,#847))
REPRESENTATION_CONTEXT('','3D')
);
#839=(
GEOMETRIC_REPRESENTATION_CONTEXT(3)
GLOBAL_UNCERTAINTY_ASSIGNED_CONTEXT((#837))
GLOBAL_UNIT_ASSIGNED_CONTEXT((#842,#846,#847))
REPRESENTATION_CONTEXT('','3D')
);
#840=DIMENSIONAL_EXPONENTS(1.,0.,0.,0.,0.,0.,0.);
#841=DIMENSIONAL_EXPONENTS(0.,1.,0.,0.,0.,0.,0.);
#842=(
CONVERSION_BASED_UNIT('inch',#845)
LENGTH_UNIT()
NAMED_UNIT(#840)
);
#843=(
LENGTH_UNIT()
NAMED_UNIT(*)
SI_UNIT(.MILLI.,.METRE.)
);
#844=(
LENGTH_UNIT()
NAMED_UNIT(*)
SI_UNIT(.CENTI.,.METRE.)
);
#845=LENGTH_MEASURE_WITH_UNIT(LENGTH_MEASURE(25.4),#843);
#846=(
NAMED_UNIT(*)
PLANE_ANGLE_UNIT()
SI_UNIT($,.RADIAN.)
);
#847=(
NAMED_UNIT(*)
SI_UNIT($,.STERADIAN.)
SOLID_ANGLE_UNIT()
);
#848=SHAPE_DEFINITION_REPRESENTATION(#849,#850);
#849=PRODUCT_DEFINITION_SHAPE('',$,#852);
#850=SHAPE_REPRESENTATION('',(#488),#838);
#851=PRODUCT_DEFINITION_CONTEXT('part definition',#856,'design');
#852=PRODUCT_DEFINITION('BV-222-116','BV-222-116',#853,#851);
#853=PRODUCT_DEFINITION_FORMATION('',$,#858);
#854=PRODUCT_RELATED_PRODUCT_CATEGORY('BV-222-116','BV-222-116',(#858));
#855=APPLICATION_PROTOCOL_DEFINITION('international standard',
'automotive_design',2009,#856);
#856=APPLICATION_CONTEXT(
'Core Data for Automotive Mechanical Design Process');
#857=PRODUCT_CONTEXT('part definition',#856,'mechanical');
#858=PRODUCT('BV-222-116','BV-222-116',
'Base Vehicle Wheel Extention Bushing',(#857));
#859=PRESENTATION_STYLE_ASSIGNMENT((#860));
#860=SURFACE_STYLE_USAGE(.BOTH.,#863);
#861=SURFACE_STYLE_RENDERING_WITH_PROPERTIES($,#867,(#862));
#862=SURFACE_STYLE_TRANSPARENT(0.);
#863=SURFACE_SIDE_STYLE('',(#864,#861));
#864=SURFACE_STYLE_FILL_AREA(#865);
#865=FILL_AREA_STYLE('',(#866));
#866=FILL_AREA_STYLE_COLOUR('',#867);
#867=COLOUR_RGB('',0.749019607843137,0.749019607843137,0.749019607843137);
ENDSEC;
END-ISO-10303-21;
