ISO-10303-21;
HEADER;
/* Generated by software containing ST-Developer
 * from STEP Tools, Inc. (www.steptools.com) 
 */

FILE_DESCRIPTION(
/* description */ ('Wheel Stud M12 X 1.5 X 42mm long'),
/* implementation_level */ '2;1');

FILE_NAME(
/* name */ 'M12-1.50.stp',
/* time_stamp */ '2025-12-15T14:41:46-06:00',
/* author */ ('josh Hofer'),
/* organization */ (''),
/* preprocessor_version */ 'ST-DEVELOPER v20',
/* originating_system */ 'Autodesk Inventor 2025',
/* authorisation */ '');

FILE_SCHEMA (('AUTOMOTIVE_DESIGN { 1 0 10303 214 3 1 1 }'));
ENDSEC;

DATA;
#10=MECHANICAL_DESIGN_GEOMETRIC_PRESENTATION_REPRESENTATION('',(#13),#139);
#11=SHAPE_REPRESENTATION_RELATIONSHIP('SRR','None',#150,#12);
#12=ADVANCED_BREP_SHAPE_REPRESENTATION('',(#14),#138);
#13=STYLED_ITEM('',(#159),#14);
#14=MANIFOLD_SOLID_BREP('Solid1',#67);
#15=FACE_BOUND('',#27,.T.);
#16=PLANE('',#95);
#17=PLANE('',#96);
#18=PLANE('',#97);
#19=FACE_OUTER_BOUND('',#24,.T.);
#20=FACE_OUTER_BOUND('',#25,.T.);
#21=FACE_OUTER_BOUND('',#26,.T.);
#22=FACE_OUTER_BOUND('',#28,.T.);
#23=FACE_OUTER_BOUND('',#29,.T.);
#24=EDGE_LOOP('',(#48,#49,#50,#51));
#25=EDGE_LOOP('',(#52,#53,#54,#55));
#26=EDGE_LOOP('',(#56));
#27=EDGE_LOOP('',(#57));
#28=EDGE_LOOP('',(#58));
#29=EDGE_LOOP('',(#59));
#30=LINE('',#125,#32);
#31=LINE('',#131,#33);
#32=VECTOR('',#104,0.236220472440945);
#33=VECTOR('',#111,0.354330708661418);
#34=CIRCLE('',#90,0.236220472440945);
#35=CIRCLE('',#91,0.236220472440945);
#36=CIRCLE('',#93,0.354330708661418);
#37=CIRCLE('',#94,0.354330708661418);
#38=VERTEX_POINT('',#122);
#39=VERTEX_POINT('',#124);
#40=VERTEX_POINT('',#128);
#41=VERTEX_POINT('',#130);
#42=EDGE_CURVE('',#38,#38,#34,.T.);
#43=EDGE_CURVE('',#38,#39,#30,.T.);
#44=EDGE_CURVE('',#39,#39,#35,.T.);
#45=EDGE_CURVE('',#40,#40,#36,.T.);
#46=EDGE_CURVE('',#40,#41,#31,.T.);
#47=EDGE_CURVE('',#41,#41,#37,.T.);
#48=ORIENTED_EDGE('',*,*,#42,.T.);
#49=ORIENTED_EDGE('',*,*,#43,.T.);
#50=ORIENTED_EDGE('',*,*,#44,.F.);
#51=ORIENTED_EDGE('',*,*,#43,.F.);
#52=ORIENTED_EDGE('',*,*,#45,.T.);
#53=ORIENTED_EDGE('',*,*,#46,.T.);
#54=ORIENTED_EDGE('',*,*,#47,.F.);
#55=ORIENTED_EDGE('',*,*,#46,.F.);
#56=ORIENTED_EDGE('',*,*,#47,.T.);
#57=ORIENTED_EDGE('',*,*,#42,.F.);
#58=ORIENTED_EDGE('',*,*,#45,.F.);
#59=ORIENTED_EDGE('',*,*,#44,.T.);
#60=CYLINDRICAL_SURFACE('',#89,0.236220472440945);
#61=CYLINDRICAL_SURFACE('',#92,0.354330708661418);
#62=ADVANCED_FACE('',(#19),#60,.T.);
#63=ADVANCED_FACE('',(#20),#61,.T.);
#64=ADVANCED_FACE('',(#21,#15),#16,.T.);
#65=ADVANCED_FACE('',(#22),#17,.F.);
#66=ADVANCED_FACE('',(#23),#18,.T.);
#67=CLOSED_SHELL('',(#62,#63,#64,#65,#66));
#68=DERIVED_UNIT_ELEMENT(#70,1.);
#69=DERIVED_UNIT_ELEMENT(#144,-3.);
#70=(
CONVERSION_BASED_UNIT('gram',#72)
MASS_UNIT()
NAMED_UNIT(#141)
);
#71=(
MASS_UNIT()
NAMED_UNIT(*)
SI_UNIT(.KILO.,.GRAM.)
);
#72=MASS_MEASURE_WITH_UNIT(MASS_MEASURE(0.001),#71);
#73=DERIVED_UNIT((#68,#69));
#74=MEASURE_REPRESENTATION_ITEM('density measure',
POSITIVE_RATIO_MEASURE(1.),#73);
#75=PROPERTY_DEFINITION_REPRESENTATION(#80,#77);
#76=PROPERTY_DEFINITION_REPRESENTATION(#81,#78);
#77=REPRESENTATION('material name',(#79),#138);
#78=REPRESENTATION('density',(#74),#138);
#79=DESCRIPTIVE_REPRESENTATION_ITEM('Generic','Generic');
#80=PROPERTY_DEFINITION('material property','material name',#152);
#81=PROPERTY_DEFINITION('material property','density of part',#152);
#82=DATE_TIME_ROLE('creation_date');
#83=APPLIED_DATE_AND_TIME_ASSIGNMENT(#84,#82,(#152));
#84=DATE_AND_TIME(#85,#86);
#85=CALENDAR_DATE(2022,22,4);
#86=LOCAL_TIME(17,13,34.,#87);
#87=COORDINATED_UNIVERSAL_TIME_OFFSET(0,0,.BEHIND.);
#88=AXIS2_PLACEMENT_3D('',#120,#98,#99);
#89=AXIS2_PLACEMENT_3D('',#121,#100,#101);
#90=AXIS2_PLACEMENT_3D('',#123,#102,#103);
#91=AXIS2_PLACEMENT_3D('',#126,#105,#106);
#92=AXIS2_PLACEMENT_3D('',#127,#107,#108);
#93=AXIS2_PLACEMENT_3D('',#129,#109,#110);
#94=AXIS2_PLACEMENT_3D('',#132,#112,#113);
#95=AXIS2_PLACEMENT_3D('',#133,#114,#115);
#96=AXIS2_PLACEMENT_3D('',#134,#116,#117);
#97=AXIS2_PLACEMENT_3D('',#135,#118,#119);
#98=DIRECTION('axis',(0.,0.,1.));
#99=DIRECTION('refdir',(1.,0.,0.));
#100=DIRECTION('center_axis',(-2.71526927544196E-16,-4.26025298493296E-18,
-1.));
#101=DIRECTION('ref_axis',(-1.,-2.55351295663785E-15,2.71526927544196E-16));
#102=DIRECTION('center_axis',(2.71526927544196E-16,4.26025298493301E-18,
1.));
#103=DIRECTION('ref_axis',(1.,2.55351295663785E-15,-2.71526927544196E-16));
#104=DIRECTION('',(2.71526927544196E-16,4.26025298493296E-18,1.));
#105=DIRECTION('center_axis',(2.71526927544196E-16,4.26025298493301E-18,
1.));
#106=DIRECTION('ref_axis',(1.,2.55351295663785E-15,-2.71526927544196E-16));
#107=DIRECTION('center_axis',(-2.71526927544196E-16,-4.26025298493301E-18,
-1.));
#108=DIRECTION('ref_axis',(-1.,-2.55351295663785E-15,2.71526927544196E-16));
#109=DIRECTION('center_axis',(2.71526927544196E-16,4.26025298493301E-18,
1.));
#110=DIRECTION('ref_axis',(1.,2.55351295663785E-15,-2.71526927544196E-16));
#111=DIRECTION('',(2.71526927544196E-16,4.26025298493301E-18,1.));
#112=DIRECTION('center_axis',(2.71526927544196E-16,4.26025298493301E-18,
1.));
#113=DIRECTION('ref_axis',(1.,2.55351295663785E-15,-2.71526927544196E-16));
#114=DIRECTION('center_axis',(-2.71526927544195E-16,4.26025298493162E-18,
1.));
#115=DIRECTION('ref_axis',(1.,2.55351295663785E-15,2.71526927544195E-16));
#116=DIRECTION('center_axis',(-2.71526927544195E-16,4.26025298493162E-18,
1.));
#117=DIRECTION('ref_axis',(1.,2.55351295663785E-15,2.71526927544195E-16));
#118=DIRECTION('center_axis',(-2.71526927544195E-16,4.26025298493162E-18,
1.));
#119=DIRECTION('ref_axis',(1.,2.55351295663785E-15,2.71526927544195E-16));
#120=CARTESIAN_POINT('',(0.,0.,0.));
#121=CARTESIAN_POINT('Origin',(2.73184799366426E-16,-5.46369598732853E-16,
1.90354330708661));
#122=CARTESIAN_POINT('',(0.236220472440945,2.08492609116972E-17,0.250000000000001));
#123=CARTESIAN_POINT('Origin',(-2.73184799366426E-16,-6.82961998416066E-16,
0.250000000000001));
#124=CARTESIAN_POINT('',(0.236220472440946,2.78937737214289E-17,1.90354330708661));
#125=CARTESIAN_POINT('',(0.236220472440946,2.78937737214289E-17,1.90354330708661));
#126=CARTESIAN_POINT('Origin',(2.73184799366426E-16,-5.46369598732853E-16,
1.90354330708661));
#127=CARTESIAN_POINT('Origin',(-2.73184799366426E-16,-6.82961998416066E-16,
0.250000000000001));
#128=CARTESIAN_POINT('',(0.354330708661418,1.77367997019123E-16,-8.74191357972564E-17));
#129=CARTESIAN_POINT('Origin',(0.,0.,0.));
#130=CARTESIAN_POINT('',(0.354330708661418,1.78433060265356E-16,0.250000000000001));
#131=CARTESIAN_POINT('',(0.354330708661418,1.78433060265356E-16,0.250000000000001));
#132=CARTESIAN_POINT('Origin',(-2.73184799366426E-16,-6.82961998416066E-16,
0.250000000000001));
#133=CARTESIAN_POINT('Origin',(-2.73184799366426E-16,-6.82961998416066E-16,
0.250000000000001));
#134=CARTESIAN_POINT('Origin',(0.,0.,0.));
#135=CARTESIAN_POINT('Origin',(2.73184799366426E-16,-5.46369598732853E-16,
1.90354330708661));
#136=UNCERTAINTY_MEASURE_WITH_UNIT(LENGTH_MEASURE(0.000393700787401575),
#142,'DISTANCE_ACCURACY_VALUE',
'Maximum model space distance between geometric entities at asserted c
onnectivities');
#137=UNCERTAINTY_MEASURE_WITH_UNIT(LENGTH_MEASURE(0.000393700787401575),
#142,'DISTANCE_ACCURACY_VALUE',
'Maximum model space distance between geometric entities at asserted c
onnectivities');
#138=(
GEOMETRIC_REPRESENTATION_CONTEXT(3)
GLOBAL_UNCERTAINTY_ASSIGNED_CONTEXT((#136))
GLOBAL_UNIT_ASSIGNED_CONTEXT((#142,#146,#147))
REPRESENTATION_CONTEXT('','3D')
);
#139=(
GEOMETRIC_REPRESENTATION_CONTEXT(3)
GLOBAL_UNCERTAINTY_ASSIGNED_CONTEXT((#137))
GLOBAL_UNIT_ASSIGNED_CONTEXT((#142,#146,#147))
REPRESENTATION_CONTEXT('','3D')
);
#140=DIMENSIONAL_EXPONENTS(1.,0.,0.,0.,0.,0.,0.);
#141=DIMENSIONAL_EXPONENTS(0.,1.,0.,0.,0.,0.,0.);
#142=(
CONVERSION_BASED_UNIT('inch',#145)
LENGTH_UNIT()
NAMED_UNIT(#140)
);
#143=(
LENGTH_UNIT()
NAMED_UNIT(*)
SI_UNIT(.MILLI.,.METRE.)
);
#144=(
LENGTH_UNIT()
NAMED_UNIT(*)
SI_UNIT(.CENTI.,.METRE.)
);
#145=LENGTH_MEASURE_WITH_UNIT(LENGTH_MEASURE(25.4),#143);
#146=(
NAMED_UNIT(*)
PLANE_ANGLE_UNIT()
SI_UNIT($,.RADIAN.)
);
#147=(
NAMED_UNIT(*)
SI_UNIT($,.STERADIAN.)
SOLID_ANGLE_UNIT()
);
#148=SHAPE_DEFINITION_REPRESENTATION(#149,#150);
#149=PRODUCT_DEFINITION_SHAPE('',$,#152);
#150=SHAPE_REPRESENTATION('',(#88),#138);
#151=PRODUCT_DEFINITION_CONTEXT('part definition',#156,'design');
#152=PRODUCT_DEFINITION('M12-1.50','M12-1.50',#153,#151);
#153=PRODUCT_DEFINITION_FORMATION('ANY',$,#158);
#154=PRODUCT_RELATED_PRODUCT_CATEGORY('M12-1.50','M12-1.50',(#158));
#155=APPLICATION_PROTOCOL_DEFINITION('international standard',
'automotive_design',2009,#156);
#156=APPLICATION_CONTEXT(
'Core Data for Automotive Mechanical Design Process');
#157=PRODUCT_CONTEXT('part definition',#156,'mechanical');
#158=PRODUCT('M12-1.50','M12-1.50','Wheel Stud M12 X 1.5 X 42mm long',(#157));
#159=PRESENTATION_STYLE_ASSIGNMENT((#160));
#160=SURFACE_STYLE_USAGE(.BOTH.,#163);
#161=SURFACE_STYLE_RENDERING_WITH_PROPERTIES($,#167,(#162));
#162=SURFACE_STYLE_TRANSPARENT(0.);
#163=SURFACE_SIDE_STYLE('',(#164,#161));
#164=SURFACE_STYLE_FILL_AREA(#165);
#165=FILL_AREA_STYLE('',(#166));
#166=FILL_AREA_STYLE_COLOUR('',#167);
#167=COLOUR_RGB('',0.749019607843137,0.749019607843137,0.749019607843137);
ENDSEC;
END-ISO-10303-21;
