ISO-10303-21;
HEADER;
/* Generated by software containing ST-Developer
 * from STEP Tools, Inc. (www.steptools.com) 
 */

FILE_DESCRIPTION(
/* description */ ('Robot Arm Counter weight shaft'),
/* implementation_level */ '2;1');

FILE_NAME(
/* name */ 'CRA-1023.stp',
/* time_stamp */ '2025-12-22T15:24:19-06:00',
/* author */ ('josh'),
/* organization */ (''),
/* preprocessor_version */ 'ST-DEVELOPER v20',
/* originating_system */ 'Autodesk Inventor 2025',
/* authorisation */ '');

FILE_SCHEMA (('AUTOMOTIVE_DESIGN { 1 0 10303 214 3 1 1 }'));
ENDSEC;

DATA;
#10=MECHANICAL_DESIGN_GEOMETRIC_PRESENTATION_REPRESENTATION('',(#13),#432);
#11=SHAPE_REPRESENTATION_RELATIONSHIP('SRR','None',#443,#12);
#12=ADVANCED_BREP_SHAPE_REPRESENTATION('',(#14),#431);
#13=STYLED_ITEM('',(#452),#14);
#14=MANIFOLD_SOLID_BREP('CRA-1023',#230);
#15=CYLINDRICAL_SURFACE('',#258,0.2085);
#16=CYLINDRICAL_SURFACE('',#263,0.5);
#17=CYLINDRICAL_SURFACE('',#271,0.2085);
#18=CYLINDRICAL_SURFACE('',#276,0.5);
#19=CYLINDRICAL_SURFACE('',#282,0.625);
#20=FACE_BOUND('',#45,.T.);
#21=FACE_BOUND('',#51,.T.);
#22=FACE_BOUND('',#58,.T.);
#23=FACE_BOUND('',#61,.T.);
#24=PLANE('',#256);
#25=PLANE('',#269);
#26=PLANE('',#280);
#27=PLANE('',#284);
#28=FACE_OUTER_BOUND('',#43,.T.);
#29=FACE_OUTER_BOUND('',#44,.T.);
#30=FACE_OUTER_BOUND('',#46,.T.);
#31=FACE_OUTER_BOUND('',#47,.T.);
#32=FACE_OUTER_BOUND('',#48,.T.);
#33=FACE_OUTER_BOUND('',#49,.T.);
#34=FACE_OUTER_BOUND('',#50,.T.);
#35=FACE_OUTER_BOUND('',#52,.T.);
#36=FACE_OUTER_BOUND('',#53,.T.);
#37=FACE_OUTER_BOUND('',#54,.T.);
#38=FACE_OUTER_BOUND('',#55,.T.);
#39=FACE_OUTER_BOUND('',#56,.T.);
#40=FACE_OUTER_BOUND('',#57,.T.);
#41=FACE_OUTER_BOUND('',#59,.T.);
#42=FACE_OUTER_BOUND('',#60,.T.);
#43=EDGE_LOOP('',(#151,#152,#153,#154,#155));
#44=EDGE_LOOP('',(#156));
#45=EDGE_LOOP('',(#157));
#46=EDGE_LOOP('',(#158,#159,#160,#161,#162));
#47=EDGE_LOOP('',(#163,#164,#165,#166,#167));
#48=EDGE_LOOP('',(#168,#169,#170,#171,#172));
#49=EDGE_LOOP('',(#173,#174,#175,#176,#177));
#50=EDGE_LOOP('',(#178));
#51=EDGE_LOOP('',(#179));
#52=EDGE_LOOP('',(#180,#181,#182,#183,#184));
#53=EDGE_LOOP('',(#185,#186,#187,#188,#189));
#54=EDGE_LOOP('',(#190,#191,#192,#193,#194));
#55=EDGE_LOOP('',(#195,#196,#197));
#56=EDGE_LOOP('',(#198,#199,#200));
#57=EDGE_LOOP('',(#201));
#58=EDGE_LOOP('',(#202));
#59=EDGE_LOOP('',(#203,#204,#205,#206));
#60=EDGE_LOOP('',(#207));
#61=EDGE_LOOP('',(#208));
#62=LINE('',#369,#73);
#63=LINE('',#378,#74);
#64=LINE('',#385,#75);
#65=LINE('',#388,#76);
#66=LINE('',#394,#77);
#67=LINE('',#403,#78);
#68=LINE('',#407,#79);
#69=LINE('',#413,#80);
#70=LINE('',#417,#81);
#71=LINE('',#420,#82);
#72=LINE('',#427,#83);
#73=VECTOR('',#291,0.2235);
#74=VECTOR('',#302,0.2085);
#75=VECTOR('',#311,0.485);
#76=VECTOR('',#314,0.5);
#77=VECTOR('',#321,0.2235);
#78=VECTOR('',#332,0.2085);
#79=VECTOR('',#337,0.485);
#80=VECTOR('',#344,0.5);
#81=VECTOR('',#349,0.10425);
#82=VECTOR('',#352,0.10425);
#83=VECTOR('',#361,0.625);
#84=CIRCLE('',#253,0.2385);
#85=CIRCLE('',#254,0.2085);
#86=CIRCLE('',#255,0.2085);
#87=CIRCLE('',#257,0.47);
#88=CIRCLE('',#259,0.2085);
#89=CIRCLE('',#261,0.5);
#90=CIRCLE('',#262,0.5);
#91=CIRCLE('',#264,0.5);
#92=CIRCLE('',#266,0.2385);
#93=CIRCLE('',#267,0.2085);
#94=CIRCLE('',#268,0.2085);
#95=CIRCLE('',#270,0.47);
#96=CIRCLE('',#272,0.2085);
#97=CIRCLE('',#274,0.5);
#98=CIRCLE('',#275,0.5);
#99=CIRCLE('',#277,0.5);
#100=CIRCLE('',#281,0.625);
#101=CIRCLE('',#283,0.625);
#102=VERTEX_POINT('',#366);
#103=VERTEX_POINT('',#368);
#104=VERTEX_POINT('',#370);
#105=VERTEX_POINT('',#374);
#106=VERTEX_POINT('',#377);
#107=VERTEX_POINT('',#381);
#108=VERTEX_POINT('',#382);
#109=VERTEX_POINT('',#387);
#110=VERTEX_POINT('',#391);
#111=VERTEX_POINT('',#393);
#112=VERTEX_POINT('',#395);
#113=VERTEX_POINT('',#399);
#114=VERTEX_POINT('',#402);
#115=VERTEX_POINT('',#406);
#116=VERTEX_POINT('',#408);
#117=VERTEX_POINT('',#412);
#118=VERTEX_POINT('',#416);
#119=VERTEX_POINT('',#419);
#120=VERTEX_POINT('',#422);
#121=VERTEX_POINT('',#425);
#122=EDGE_CURVE('',#102,#102,#84,.T.);
#123=EDGE_CURVE('',#102,#103,#62,.T.);
#124=EDGE_CURVE('',#103,#104,#85,.T.);
#125=EDGE_CURVE('',#104,#103,#86,.T.);
#126=EDGE_CURVE('',#105,#105,#87,.T.);
#127=EDGE_CURVE('',#104,#106,#63,.T.);
#128=EDGE_CURVE('',#106,#106,#88,.T.);
#129=EDGE_CURVE('',#107,#108,#89,.T.);
#130=EDGE_CURVE('',#108,#107,#90,.T.);
#131=EDGE_CURVE('',#107,#105,#64,.T.);
#132=EDGE_CURVE('',#108,#109,#65,.T.);
#133=EDGE_CURVE('',#109,#109,#91,.T.);
#134=EDGE_CURVE('',#110,#110,#92,.T.);
#135=EDGE_CURVE('',#110,#111,#66,.T.);
#136=EDGE_CURVE('',#111,#112,#93,.T.);
#137=EDGE_CURVE('',#112,#111,#94,.T.);
#138=EDGE_CURVE('',#113,#113,#95,.T.);
#139=EDGE_CURVE('',#112,#114,#67,.T.);
#140=EDGE_CURVE('',#114,#114,#96,.T.);
#141=EDGE_CURVE('',#113,#115,#68,.T.);
#142=EDGE_CURVE('',#115,#116,#97,.T.);
#143=EDGE_CURVE('',#116,#115,#98,.T.);
#144=EDGE_CURVE('',#116,#117,#69,.T.);
#145=EDGE_CURVE('',#117,#117,#99,.T.);
#146=EDGE_CURVE('',#106,#118,#70,.T.);
#147=EDGE_CURVE('',#114,#119,#71,.T.);
#148=EDGE_CURVE('',#120,#120,#100,.T.);
#149=EDGE_CURVE('',#121,#121,#101,.T.);
#150=EDGE_CURVE('',#121,#120,#72,.T.);
#151=ORIENTED_EDGE('',*,*,#122,.T.);
#152=ORIENTED_EDGE('',*,*,#123,.T.);
#153=ORIENTED_EDGE('',*,*,#124,.T.);
#154=ORIENTED_EDGE('',*,*,#125,.T.);
#155=ORIENTED_EDGE('',*,*,#123,.F.);
#156=ORIENTED_EDGE('',*,*,#126,.F.);
#157=ORIENTED_EDGE('',*,*,#122,.F.);
#158=ORIENTED_EDGE('',*,*,#124,.F.);
#159=ORIENTED_EDGE('',*,*,#125,.F.);
#160=ORIENTED_EDGE('',*,*,#127,.T.);
#161=ORIENTED_EDGE('',*,*,#128,.T.);
#162=ORIENTED_EDGE('',*,*,#127,.F.);
#163=ORIENTED_EDGE('',*,*,#129,.T.);
#164=ORIENTED_EDGE('',*,*,#130,.T.);
#165=ORIENTED_EDGE('',*,*,#131,.T.);
#166=ORIENTED_EDGE('',*,*,#126,.T.);
#167=ORIENTED_EDGE('',*,*,#131,.F.);
#168=ORIENTED_EDGE('',*,*,#129,.F.);
#169=ORIENTED_EDGE('',*,*,#130,.F.);
#170=ORIENTED_EDGE('',*,*,#132,.T.);
#171=ORIENTED_EDGE('',*,*,#133,.F.);
#172=ORIENTED_EDGE('',*,*,#132,.F.);
#173=ORIENTED_EDGE('',*,*,#134,.T.);
#174=ORIENTED_EDGE('',*,*,#135,.T.);
#175=ORIENTED_EDGE('',*,*,#136,.T.);
#176=ORIENTED_EDGE('',*,*,#137,.T.);
#177=ORIENTED_EDGE('',*,*,#135,.F.);
#178=ORIENTED_EDGE('',*,*,#138,.F.);
#179=ORIENTED_EDGE('',*,*,#134,.F.);
#180=ORIENTED_EDGE('',*,*,#136,.F.);
#181=ORIENTED_EDGE('',*,*,#137,.F.);
#182=ORIENTED_EDGE('',*,*,#139,.T.);
#183=ORIENTED_EDGE('',*,*,#140,.F.);
#184=ORIENTED_EDGE('',*,*,#139,.F.);
#185=ORIENTED_EDGE('',*,*,#138,.T.);
#186=ORIENTED_EDGE('',*,*,#141,.T.);
#187=ORIENTED_EDGE('',*,*,#142,.T.);
#188=ORIENTED_EDGE('',*,*,#143,.T.);
#189=ORIENTED_EDGE('',*,*,#141,.F.);
#190=ORIENTED_EDGE('',*,*,#142,.F.);
#191=ORIENTED_EDGE('',*,*,#143,.F.);
#192=ORIENTED_EDGE('',*,*,#144,.T.);
#193=ORIENTED_EDGE('',*,*,#145,.F.);
#194=ORIENTED_EDGE('',*,*,#144,.F.);
#195=ORIENTED_EDGE('',*,*,#128,.F.);
#196=ORIENTED_EDGE('',*,*,#146,.T.);
#197=ORIENTED_EDGE('',*,*,#146,.F.);
#198=ORIENTED_EDGE('',*,*,#140,.T.);
#199=ORIENTED_EDGE('',*,*,#147,.T.);
#200=ORIENTED_EDGE('',*,*,#147,.F.);
#201=ORIENTED_EDGE('',*,*,#148,.T.);
#202=ORIENTED_EDGE('',*,*,#133,.T.);
#203=ORIENTED_EDGE('',*,*,#149,.F.);
#204=ORIENTED_EDGE('',*,*,#150,.T.);
#205=ORIENTED_EDGE('',*,*,#148,.F.);
#206=ORIENTED_EDGE('',*,*,#150,.F.);
#207=ORIENTED_EDGE('',*,*,#149,.T.);
#208=ORIENTED_EDGE('',*,*,#145,.T.);
#209=CONICAL_SURFACE('',#252,0.2235,0.785398163397448);
#210=CONICAL_SURFACE('',#260,0.485,0.785398163397448);
#211=CONICAL_SURFACE('',#265,0.2235,0.785398163397448);
#212=CONICAL_SURFACE('',#273,0.485,0.785398163397448);
#213=CONICAL_SURFACE('',#278,0.10425,1.02974425867665);
#214=CONICAL_SURFACE('',#279,0.10425,1.02974425867665);
#215=ADVANCED_FACE('',(#28),#209,.F.);
#216=ADVANCED_FACE('',(#29,#20),#24,.F.);
#217=ADVANCED_FACE('',(#30),#15,.F.);
#218=ADVANCED_FACE('',(#31),#210,.T.);
#219=ADVANCED_FACE('',(#32),#16,.T.);
#220=ADVANCED_FACE('',(#33),#211,.F.);
#221=ADVANCED_FACE('',(#34,#21),#25,.T.);
#222=ADVANCED_FACE('',(#35),#17,.F.);
#223=ADVANCED_FACE('',(#36),#212,.T.);
#224=ADVANCED_FACE('',(#37),#18,.T.);
#225=ADVANCED_FACE('',(#38),#213,.F.);
#226=ADVANCED_FACE('',(#39),#214,.F.);
#227=ADVANCED_FACE('',(#40,#22),#26,.F.);
#228=ADVANCED_FACE('',(#41),#19,.T.);
#229=ADVANCED_FACE('',(#42,#23),#27,.T.);
#230=CLOSED_SHELL('',(#215,#216,#217,#218,#219,#220,#221,#222,#223,#224,
#225,#226,#227,#228,#229));
#231=DERIVED_UNIT_ELEMENT(#233,1.);
#232=DERIVED_UNIT_ELEMENT(#437,-3.);
#233=(
CONVERSION_BASED_UNIT('gram',#235)
MASS_UNIT()
NAMED_UNIT(#434)
);
#234=(
MASS_UNIT()
NAMED_UNIT(*)
SI_UNIT(.KILO.,.GRAM.)
);
#235=MASS_MEASURE_WITH_UNIT(MASS_MEASURE(0.001),#234);
#236=DERIVED_UNIT((#231,#232));
#237=MEASURE_REPRESENTATION_ITEM('density measure',
POSITIVE_RATIO_MEASURE(1.),#236);
#238=PROPERTY_DEFINITION_REPRESENTATION(#243,#240);
#239=PROPERTY_DEFINITION_REPRESENTATION(#244,#241);
#240=REPRESENTATION('material name',(#242),#431);
#241=REPRESENTATION('density',(#237),#431);
#242=DESCRIPTIVE_REPRESENTATION_ITEM('Generic','Generic');
#243=PROPERTY_DEFINITION('material property','material name',#445);
#244=PROPERTY_DEFINITION('material property','density of part',#445);
#245=DATE_TIME_ROLE('creation_date');
#246=APPLIED_DATE_AND_TIME_ASSIGNMENT(#247,#245,(#445));
#247=DATE_AND_TIME(#248,#249);
#248=CALENDAR_DATE(2025,20,12);
#249=LOCAL_TIME(0,0,0.,#250);
#250=COORDINATED_UNIVERSAL_TIME_OFFSET(0,0,.BEHIND.);
#251=AXIS2_PLACEMENT_3D('',#364,#285,#286);
#252=AXIS2_PLACEMENT_3D('',#365,#287,#288);
#253=AXIS2_PLACEMENT_3D('',#367,#289,#290);
#254=AXIS2_PLACEMENT_3D('',#371,#292,#293);
#255=AXIS2_PLACEMENT_3D('',#372,#294,#295);
#256=AXIS2_PLACEMENT_3D('',#373,#296,#297);
#257=AXIS2_PLACEMENT_3D('',#375,#298,#299);
#258=AXIS2_PLACEMENT_3D('',#376,#300,#301);
#259=AXIS2_PLACEMENT_3D('',#379,#303,#304);
#260=AXIS2_PLACEMENT_3D('',#380,#305,#306);
#261=AXIS2_PLACEMENT_3D('',#383,#307,#308);
#262=AXIS2_PLACEMENT_3D('',#384,#309,#310);
#263=AXIS2_PLACEMENT_3D('',#386,#312,#313);
#264=AXIS2_PLACEMENT_3D('',#389,#315,#316);
#265=AXIS2_PLACEMENT_3D('',#390,#317,#318);
#266=AXIS2_PLACEMENT_3D('',#392,#319,#320);
#267=AXIS2_PLACEMENT_3D('',#396,#322,#323);
#268=AXIS2_PLACEMENT_3D('',#397,#324,#325);
#269=AXIS2_PLACEMENT_3D('',#398,#326,#327);
#270=AXIS2_PLACEMENT_3D('',#400,#328,#329);
#271=AXIS2_PLACEMENT_3D('',#401,#330,#331);
#272=AXIS2_PLACEMENT_3D('',#404,#333,#334);
#273=AXIS2_PLACEMENT_3D('',#405,#335,#336);
#274=AXIS2_PLACEMENT_3D('',#409,#338,#339);
#275=AXIS2_PLACEMENT_3D('',#410,#340,#341);
#276=AXIS2_PLACEMENT_3D('',#411,#342,#343);
#277=AXIS2_PLACEMENT_3D('',#414,#345,#346);
#278=AXIS2_PLACEMENT_3D('',#415,#347,#348);
#279=AXIS2_PLACEMENT_3D('',#418,#350,#351);
#280=AXIS2_PLACEMENT_3D('',#421,#353,#354);
#281=AXIS2_PLACEMENT_3D('',#423,#355,#356);
#282=AXIS2_PLACEMENT_3D('',#424,#357,#358);
#283=AXIS2_PLACEMENT_3D('',#426,#359,#360);
#284=AXIS2_PLACEMENT_3D('',#428,#362,#363);
#285=DIRECTION('axis',(0.,0.,1.));
#286=DIRECTION('refdir',(1.,0.,0.));
#287=DIRECTION('center_axis',(-1.,0.,0.));
#288=DIRECTION('ref_axis',(0.,0.,1.));
#289=DIRECTION('center_axis',(-1.,0.,0.));
#290=DIRECTION('ref_axis',(0.,0.,1.));
#291=DIRECTION('',(0.707106781186547,8.65956056235493E-17,0.707106781186547));
#292=DIRECTION('center_axis',(1.,0.,0.));
#293=DIRECTION('ref_axis',(0.,0.,1.));
#294=DIRECTION('center_axis',(1.,0.,0.));
#295=DIRECTION('ref_axis',(0.,0.,1.));
#296=DIRECTION('center_axis',(1.,0.,0.));
#297=DIRECTION('ref_axis',(0.,0.,-1.));
#298=DIRECTION('center_axis',(1.,0.,0.));
#299=DIRECTION('ref_axis',(0.,0.,1.));
#300=DIRECTION('center_axis',(1.,0.,0.));
#301=DIRECTION('ref_axis',(0.,0.,-1.));
#302=DIRECTION('',(1.,0.,0.));
#303=DIRECTION('center_axis',(1.,0.,0.));
#304=DIRECTION('ref_axis',(0.,0.,-1.));
#305=DIRECTION('center_axis',(1.,0.,0.));
#306=DIRECTION('ref_axis',(0.,0.,1.));
#307=DIRECTION('center_axis',(-1.,0.,0.));
#308=DIRECTION('ref_axis',(0.,0.,1.));
#309=DIRECTION('center_axis',(-1.,0.,0.));
#310=DIRECTION('ref_axis',(0.,0.,1.));
#311=DIRECTION('',(-0.707106781186547,-8.65956056235493E-17,0.707106781186547));
#312=DIRECTION('center_axis',(1.,0.,0.));
#313=DIRECTION('ref_axis',(0.,0.,-1.));
#314=DIRECTION('',(1.,0.,0.));
#315=DIRECTION('center_axis',(1.,0.,0.));
#316=DIRECTION('ref_axis',(0.,0.,-1.));
#317=DIRECTION('center_axis',(1.,0.,0.));
#318=DIRECTION('ref_axis',(0.,0.,1.));
#319=DIRECTION('center_axis',(1.,0.,0.));
#320=DIRECTION('ref_axis',(0.,0.,1.));
#321=DIRECTION('',(-0.707106781186547,-8.65956056235493E-17,0.707106781186547));
#322=DIRECTION('center_axis',(-1.,0.,0.));
#323=DIRECTION('ref_axis',(0.,0.,1.));
#324=DIRECTION('center_axis',(-1.,0.,0.));
#325=DIRECTION('ref_axis',(0.,0.,1.));
#326=DIRECTION('center_axis',(1.,0.,0.));
#327=DIRECTION('ref_axis',(0.,0.,-1.));
#328=DIRECTION('center_axis',(-1.,0.,0.));
#329=DIRECTION('ref_axis',(0.,0.,1.));
#330=DIRECTION('center_axis',(1.,0.,0.));
#331=DIRECTION('ref_axis',(0.,0.,-1.));
#332=DIRECTION('',(-1.,0.,0.));
#333=DIRECTION('center_axis',(1.,0.,0.));
#334=DIRECTION('ref_axis',(0.,0.,-1.));
#335=DIRECTION('center_axis',(-1.,0.,0.));
#336=DIRECTION('ref_axis',(0.,0.,1.));
#337=DIRECTION('',(-0.707106781186547,8.65956056235493E-17,-0.707106781186547));
#338=DIRECTION('center_axis',(1.,0.,0.));
#339=DIRECTION('ref_axis',(0.,0.,1.));
#340=DIRECTION('center_axis',(1.,0.,0.));
#341=DIRECTION('ref_axis',(0.,0.,1.));
#342=DIRECTION('center_axis',(1.,0.,0.));
#343=DIRECTION('ref_axis',(0.,0.,-1.));
#344=DIRECTION('',(-1.,0.,0.));
#345=DIRECTION('center_axis',(-1.,0.,0.));
#346=DIRECTION('ref_axis',(0.,0.,-1.));
#347=DIRECTION('center_axis',(-1.,0.,0.));
#348=DIRECTION('ref_axis',(0.,0.,-1.));
#349=DIRECTION('',(0.515038074910054,1.04972719113862E-16,-0.857167300702112));
#350=DIRECTION('center_axis',(1.,0.,0.));
#351=DIRECTION('ref_axis',(0.,0.,-1.));
#352=DIRECTION('',(-0.515038074910054,1.04972719113862E-16,-0.857167300702112));
#353=DIRECTION('center_axis',(1.,0.,0.));
#354=DIRECTION('ref_axis',(0.,0.,-1.));
#355=DIRECTION('center_axis',(-1.,0.,0.));
#356=DIRECTION('ref_axis',(0.,1.,0.));
#357=DIRECTION('center_axis',(1.,0.,0.));
#358=DIRECTION('ref_axis',(0.,1.,0.));
#359=DIRECTION('center_axis',(1.,0.,0.));
#360=DIRECTION('ref_axis',(0.,1.,0.));
#361=DIRECTION('',(-1.,0.,0.));
#362=DIRECTION('center_axis',(1.,0.,0.));
#363=DIRECTION('ref_axis',(0.,0.,-1.));
#364=CARTESIAN_POINT('',(0.,0.,0.));
#365=CARTESIAN_POINT('Origin',(-6.735,-24.75,41.9468503937008));
#366=CARTESIAN_POINT('',(-6.75,-24.75,41.7083503937008));
#367=CARTESIAN_POINT('Origin',(-6.75,-24.75,41.9468503937008));
#368=CARTESIAN_POINT('',(-6.72,-24.75,41.7383503937008));
#369=CARTESIAN_POINT('',(-6.735,-24.75,41.7233503937008));
#370=CARTESIAN_POINT('',(-6.72,-24.75,42.1553503937008));
#371=CARTESIAN_POINT('Origin',(-6.72,-24.75,41.9468503937008));
#372=CARTESIAN_POINT('Origin',(-6.72,-24.75,41.9468503937008));
#373=CARTESIAN_POINT('Origin',(-6.75,-24.75,41.9468503937008));
#374=CARTESIAN_POINT('',(-6.75,-24.75,41.4768503937008));
#375=CARTESIAN_POINT('Origin',(-6.75,-24.75,41.9468503937008));
#376=CARTESIAN_POINT('Origin',(-6.0575,-24.75,41.9468503937008));
#377=CARTESIAN_POINT('',(-5.365,-24.75,42.1553503937008));
#378=CARTESIAN_POINT('',(-6.0575,-24.75,42.1553503937008));
#379=CARTESIAN_POINT('Origin',(-5.365,-24.75,41.9468503937008));
#380=CARTESIAN_POINT('Origin',(-6.735,-24.75,41.9468503937008));
#381=CARTESIAN_POINT('',(-6.72,-24.75,41.4468503937008));
#382=CARTESIAN_POINT('',(-6.72,-24.75,42.4468503937008));
#383=CARTESIAN_POINT('Origin',(-6.72,-24.75,41.9468503937008));
#384=CARTESIAN_POINT('Origin',(-6.72,-24.75,41.9468503937008));
#385=CARTESIAN_POINT('',(-6.735,-24.75,41.4618503937008));
#386=CARTESIAN_POINT('Origin',(-3.5,-24.75,41.9468503937008));
#387=CARTESIAN_POINT('',(-3.5,-24.75,42.4468503937008));
#388=CARTESIAN_POINT('',(-3.5,-24.75,42.4468503937008));
#389=CARTESIAN_POINT('Origin',(-3.5,-24.75,41.9468503937008));
#390=CARTESIAN_POINT('Origin',(6.735,-24.75,41.9468503937008));
#391=CARTESIAN_POINT('',(6.75,-24.75,41.7083503937008));
#392=CARTESIAN_POINT('Origin',(6.75,-24.75,41.9468503937008));
#393=CARTESIAN_POINT('',(6.72,-24.75,41.7383503937008));
#394=CARTESIAN_POINT('',(6.735,-24.75,41.7233503937008));
#395=CARTESIAN_POINT('',(6.72,-24.75,42.1553503937008));
#396=CARTESIAN_POINT('Origin',(6.72,-24.75,41.9468503937008));
#397=CARTESIAN_POINT('Origin',(6.72,-24.75,41.9468503937008));
#398=CARTESIAN_POINT('Origin',(6.75,-24.75,41.9468503937008));
#399=CARTESIAN_POINT('',(6.75,-24.75,41.4768503937008));
#400=CARTESIAN_POINT('Origin',(6.75,-24.75,41.9468503937008));
#401=CARTESIAN_POINT('Origin',(6.0575,-24.75,41.9468503937008));
#402=CARTESIAN_POINT('',(5.365,-24.75,42.1553503937008));
#403=CARTESIAN_POINT('',(6.0575,-24.75,42.1553503937008));
#404=CARTESIAN_POINT('Origin',(5.365,-24.75,41.9468503937008));
#405=CARTESIAN_POINT('Origin',(6.735,-24.75,41.9468503937008));
#406=CARTESIAN_POINT('',(6.72,-24.75,41.4468503937008));
#407=CARTESIAN_POINT('',(6.735,-24.75,41.4618503937008));
#408=CARTESIAN_POINT('',(6.72,-24.75,42.4468503937008));
#409=CARTESIAN_POINT('Origin',(6.72,-24.75,41.9468503937008));
#410=CARTESIAN_POINT('Origin',(6.72,-24.75,41.9468503937008));
#411=CARTESIAN_POINT('Origin',(3.5,-24.75,41.9468503937008));
#412=CARTESIAN_POINT('',(3.5,-24.75,42.4468503937008));
#413=CARTESIAN_POINT('',(3.5,-24.75,42.4468503937008));
#414=CARTESIAN_POINT('Origin',(3.5,-24.75,41.9468503937008));
#415=CARTESIAN_POINT('Origin',(-5.30236028046638,-24.75,41.9468503937008));
#416=CARTESIAN_POINT('',(-5.23972056093275,-24.75,41.9468503937008));
#417=CARTESIAN_POINT('',(-5.30236028046638,-24.75,42.0511003937008));
#418=CARTESIAN_POINT('Origin',(5.30236028046638,-24.75,41.9468503937008));
#419=CARTESIAN_POINT('',(5.23972056093275,-24.75,41.9468503937008));
#420=CARTESIAN_POINT('',(5.30236028046638,-24.75,42.0511003937008));
#421=CARTESIAN_POINT('Origin',(-3.5,-24.75,41.9468503937008));
#422=CARTESIAN_POINT('',(-3.5,-25.375,41.9468503937008));
#423=CARTESIAN_POINT('Origin',(-3.5,-24.75,41.9468503937008));
#424=CARTESIAN_POINT('Origin',(0.,-24.75,41.9468503937008));
#425=CARTESIAN_POINT('',(3.5,-25.375,41.9468503937008));
#426=CARTESIAN_POINT('Origin',(3.5,-24.75,41.9468503937008));
#427=CARTESIAN_POINT('',(0.,-25.375,41.9468503937008));
#428=CARTESIAN_POINT('Origin',(3.5,-24.75,41.9468503937008));
#429=UNCERTAINTY_MEASURE_WITH_UNIT(LENGTH_MEASURE(0.000393700787401575),
#435,'DISTANCE_ACCURACY_VALUE',
'Maximum model space distance between geometric entities at asserted c
onnectivities');
#430=UNCERTAINTY_MEASURE_WITH_UNIT(LENGTH_MEASURE(0.000393700787401575),
#435,'DISTANCE_ACCURACY_VALUE',
'Maximum model space distance between geometric entities at asserted c
onnectivities');
#431=(
GEOMETRIC_REPRESENTATION_CONTEXT(3)
GLOBAL_UNCERTAINTY_ASSIGNED_CONTEXT((#429))
GLOBAL_UNIT_ASSIGNED_CONTEXT((#435,#439,#440))
REPRESENTATION_CONTEXT('','3D')
);
#432=(
GEOMETRIC_REPRESENTATION_CONTEXT(3)
GLOBAL_UNCERTAINTY_ASSIGNED_CONTEXT((#430))
GLOBAL_UNIT_ASSIGNED_CONTEXT((#435,#439,#440))
REPRESENTATION_CONTEXT('','3D')
);
#433=DIMENSIONAL_EXPONENTS(1.,0.,0.,0.,0.,0.,0.);
#434=DIMENSIONAL_EXPONENTS(0.,1.,0.,0.,0.,0.,0.);
#435=(
CONVERSION_BASED_UNIT('inch',#438)
LENGTH_UNIT()
NAMED_UNIT(#433)
);
#436=(
LENGTH_UNIT()
NAMED_UNIT(*)
SI_UNIT(.MILLI.,.METRE.)
);
#437=(
LENGTH_UNIT()
NAMED_UNIT(*)
SI_UNIT(.CENTI.,.METRE.)
);
#438=LENGTH_MEASURE_WITH_UNIT(LENGTH_MEASURE(25.4),#436);
#439=(
NAMED_UNIT(*)
PLANE_ANGLE_UNIT()
SI_UNIT($,.RADIAN.)
);
#440=(
NAMED_UNIT(*)
SI_UNIT($,.STERADIAN.)
SOLID_ANGLE_UNIT()
);
#441=SHAPE_DEFINITION_REPRESENTATION(#442,#443);
#442=PRODUCT_DEFINITION_SHAPE('',$,#445);
#443=SHAPE_REPRESENTATION('',(#251),#431);
#444=PRODUCT_DEFINITION_CONTEXT('part definition',#449,'design');
#445=PRODUCT_DEFINITION('CRA-1023','CRA-1023',#446,#444);
#446=PRODUCT_DEFINITION_FORMATION('',$,#451);
#447=PRODUCT_RELATED_PRODUCT_CATEGORY('CRA-1023','CRA-1023',(#451));
#448=APPLICATION_PROTOCOL_DEFINITION('international standard',
'automotive_design',2009,#449);
#449=APPLICATION_CONTEXT(
'Core Data for Automotive Mechanical Design Process');
#450=PRODUCT_CONTEXT('part definition',#449,'mechanical');
#451=PRODUCT('CRA-1023','CRA-1023','Robot Arm Counter weight shaft',(#450));
#452=PRESENTATION_STYLE_ASSIGNMENT((#453));
#453=SURFACE_STYLE_USAGE(.BOTH.,#456);
#454=SURFACE_STYLE_RENDERING_WITH_PROPERTIES($,#460,(#455));
#455=SURFACE_STYLE_TRANSPARENT(0.);
#456=SURFACE_SIDE_STYLE('',(#457,#454));
#457=SURFACE_STYLE_FILL_AREA(#458);
#458=FILL_AREA_STYLE('',(#459));
#459=FILL_AREA_STYLE_COLOUR('',#460);
#460=COLOUR_RGB('',0.749019607843137,0.749019607843137,0.749019607843137);
ENDSEC;
END-ISO-10303-21;
