ISO-10303-21;
HEADER;
/* Generated by software containing ST-Developer
 * from STEP Tools, Inc. (www.steptools.com) 
 */

FILE_DESCRIPTION(
/* description */ ('Robot Arm Cage Pivot pin'),
/* implementation_level */ '2;1');

FILE_NAME(
/* name */ 'CRA-1026.stp',
/* time_stamp */ '2025-12-22T15:23:39-06:00',
/* author */ ('josh'),
/* organization */ (''),
/* preprocessor_version */ 'ST-DEVELOPER v20',
/* originating_system */ 'Autodesk Inventor 2025',
/* authorisation */ '');

FILE_SCHEMA (('AUTOMOTIVE_DESIGN { 1 0 10303 214 3 1 1 }'));
ENDSEC;

DATA;
#10=MECHANICAL_DESIGN_GEOMETRIC_PRESENTATION_REPRESENTATION('',(#13),#183);
#11=SHAPE_REPRESENTATION_RELATIONSHIP('SRR','None',#194,#12);
#12=ADVANCED_BREP_SHAPE_REPRESENTATION('',(#14),#182);
#13=STYLED_ITEM('',(#203),#14);
#14=MANIFOLD_SOLID_BREP('CRA-1026',#92);
#15=FACE_BOUND('',#32,.T.);
#16=PLANE('',#124);
#17=PLANE('',#125);
#18=CYLINDRICAL_SURFACE('',#116,0.1535);
#19=CYLINDRICAL_SURFACE('',#122,0.5);
#20=FACE_OUTER_BOUND('',#26,.T.);
#21=FACE_OUTER_BOUND('',#27,.T.);
#22=FACE_OUTER_BOUND('',#28,.T.);
#23=FACE_OUTER_BOUND('',#29,.T.);
#24=FACE_OUTER_BOUND('',#30,.T.);
#25=FACE_OUTER_BOUND('',#31,.T.);
#26=EDGE_LOOP('',(#64,#65,#66));
#27=EDGE_LOOP('',(#67,#68,#69,#70));
#28=EDGE_LOOP('',(#71,#72,#73,#74,#75));
#29=EDGE_LOOP('',(#76,#77,#78,#79,#80));
#30=EDGE_LOOP('',(#81));
#31=EDGE_LOOP('',(#82));
#32=EDGE_LOOP('',(#83));
#33=LINE('',#161,#37);
#34=LINE('',#165,#38);
#35=LINE('',#170,#39);
#36=LINE('',#176,#40);
#37=VECTOR('',#132,0.07675);
#38=VECTOR('',#137,0.1535);
#39=VECTOR('',#142,0.437500000000001);
#40=VECTOR('',#149,0.5);
#41=CIRCLE('',#115,0.1535);
#42=CIRCLE('',#117,0.1535);
#43=CIRCLE('',#119,0.375000000000002);
#44=CIRCLE('',#120,0.5);
#45=CIRCLE('',#121,0.5);
#46=CIRCLE('',#123,0.5);
#47=VERTEX_POINT('',#158);
#48=VERTEX_POINT('',#160);
#49=VERTEX_POINT('',#163);
#50=VERTEX_POINT('',#167);
#51=VERTEX_POINT('',#169);
#52=VERTEX_POINT('',#171);
#53=VERTEX_POINT('',#175);
#54=EDGE_CURVE('',#47,#47,#41,.T.);
#55=EDGE_CURVE('',#47,#48,#33,.T.);
#56=EDGE_CURVE('',#49,#49,#42,.T.);
#57=EDGE_CURVE('',#49,#47,#34,.T.);
#58=EDGE_CURVE('',#50,#50,#43,.T.);
#59=EDGE_CURVE('',#50,#51,#35,.T.);
#60=EDGE_CURVE('',#51,#52,#44,.T.);
#61=EDGE_CURVE('',#52,#51,#45,.T.);
#62=EDGE_CURVE('',#52,#53,#36,.T.);
#63=EDGE_CURVE('',#53,#53,#46,.T.);
#64=ORIENTED_EDGE('',*,*,#54,.T.);
#65=ORIENTED_EDGE('',*,*,#55,.T.);
#66=ORIENTED_EDGE('',*,*,#55,.F.);
#67=ORIENTED_EDGE('',*,*,#56,.F.);
#68=ORIENTED_EDGE('',*,*,#57,.T.);
#69=ORIENTED_EDGE('',*,*,#54,.F.);
#70=ORIENTED_EDGE('',*,*,#57,.F.);
#71=ORIENTED_EDGE('',*,*,#58,.T.);
#72=ORIENTED_EDGE('',*,*,#59,.T.);
#73=ORIENTED_EDGE('',*,*,#60,.T.);
#74=ORIENTED_EDGE('',*,*,#61,.T.);
#75=ORIENTED_EDGE('',*,*,#59,.F.);
#76=ORIENTED_EDGE('',*,*,#60,.F.);
#77=ORIENTED_EDGE('',*,*,#61,.F.);
#78=ORIENTED_EDGE('',*,*,#62,.T.);
#79=ORIENTED_EDGE('',*,*,#63,.T.);
#80=ORIENTED_EDGE('',*,*,#62,.F.);
#81=ORIENTED_EDGE('',*,*,#58,.F.);
#82=ORIENTED_EDGE('',*,*,#63,.F.);
#83=ORIENTED_EDGE('',*,*,#56,.T.);
#84=CONICAL_SURFACE('',#114,0.07675,1.02974425867665);
#85=CONICAL_SURFACE('',#118,0.437500000000001,0.78539816339744);
#86=ADVANCED_FACE('',(#20),#84,.F.);
#87=ADVANCED_FACE('',(#21),#18,.F.);
#88=ADVANCED_FACE('',(#22),#85,.T.);
#89=ADVANCED_FACE('',(#23),#19,.T.);
#90=ADVANCED_FACE('',(#24),#16,.T.);
#91=ADVANCED_FACE('',(#25,#15),#17,.F.);
#92=CLOSED_SHELL('',(#86,#87,#88,#89,#90,#91));
#93=DERIVED_UNIT_ELEMENT(#95,1.);
#94=DERIVED_UNIT_ELEMENT(#188,-3.);
#95=(
CONVERSION_BASED_UNIT('gram',#97)
MASS_UNIT()
NAMED_UNIT(#185)
);
#96=(
MASS_UNIT()
NAMED_UNIT(*)
SI_UNIT(.KILO.,.GRAM.)
);
#97=MASS_MEASURE_WITH_UNIT(MASS_MEASURE(0.001),#96);
#98=DERIVED_UNIT((#93,#94));
#99=MEASURE_REPRESENTATION_ITEM('density measure',
POSITIVE_RATIO_MEASURE(1.),#98);
#100=PROPERTY_DEFINITION_REPRESENTATION(#105,#102);
#101=PROPERTY_DEFINITION_REPRESENTATION(#106,#103);
#102=REPRESENTATION('material name',(#104),#182);
#103=REPRESENTATION('density',(#99),#182);
#104=DESCRIPTIVE_REPRESENTATION_ITEM('Generic','Generic');
#105=PROPERTY_DEFINITION('material property','material name',#196);
#106=PROPERTY_DEFINITION('material property','density of part',#196);
#107=DATE_TIME_ROLE('creation_date');
#108=APPLIED_DATE_AND_TIME_ASSIGNMENT(#109,#107,(#196));
#109=DATE_AND_TIME(#110,#111);
#110=CALENDAR_DATE(2025,20,12);
#111=LOCAL_TIME(0,0,0.,#112);
#112=COORDINATED_UNIVERSAL_TIME_OFFSET(0,0,.BEHIND.);
#113=AXIS2_PLACEMENT_3D('',#156,#126,#127);
#114=AXIS2_PLACEMENT_3D('',#157,#128,#129);
#115=AXIS2_PLACEMENT_3D('',#159,#130,#131);
#116=AXIS2_PLACEMENT_3D('',#162,#133,#134);
#117=AXIS2_PLACEMENT_3D('',#164,#135,#136);
#118=AXIS2_PLACEMENT_3D('',#166,#138,#139);
#119=AXIS2_PLACEMENT_3D('',#168,#140,#141);
#120=AXIS2_PLACEMENT_3D('',#172,#143,#144);
#121=AXIS2_PLACEMENT_3D('',#173,#145,#146);
#122=AXIS2_PLACEMENT_3D('',#174,#147,#148);
#123=AXIS2_PLACEMENT_3D('',#177,#150,#151);
#124=AXIS2_PLACEMENT_3D('',#178,#152,#153);
#125=AXIS2_PLACEMENT_3D('',#179,#154,#155);
#126=DIRECTION('axis',(0.,0.,1.));
#127=DIRECTION('refdir',(1.,0.,0.));
#128=DIRECTION('center_axis',(-1.,0.,0.));
#129=DIRECTION('ref_axis',(0.,0.,1.));
#130=DIRECTION('center_axis',(-1.,0.,0.));
#131=DIRECTION('ref_axis',(0.,0.,1.));
#132=DIRECTION('',(0.515038074910054,1.04972719113862E-16,0.857167300702112));
#133=DIRECTION('center_axis',(-1.,0.,0.));
#134=DIRECTION('ref_axis',(0.,0.,1.));
#135=DIRECTION('center_axis',(1.,0.,0.));
#136=DIRECTION('ref_axis',(0.,0.,1.));
#137=DIRECTION('',(1.,0.,0.));
#138=DIRECTION('center_axis',(-1.,0.,0.));
#139=DIRECTION('ref_axis',(0.,2.03448170582706E-15,1.));
#140=DIRECTION('center_axis',(-1.,0.,0.));
#141=DIRECTION('ref_axis',(0.,2.03448170582706E-15,1.));
#142=DIRECTION('',(-0.707106781186554,-1.35200020476673E-15,-0.707106781186541));
#143=DIRECTION('center_axis',(1.,0.,0.));
#144=DIRECTION('ref_axis',(0.,2.03448170582706E-15,1.));
#145=DIRECTION('center_axis',(1.,0.,0.));
#146=DIRECTION('ref_axis',(0.,2.03448170582706E-15,1.));
#147=DIRECTION('center_axis',(1.,0.,0.));
#148=DIRECTION('ref_axis',(0.,-2.03448170582706E-15,-1.));
#149=DIRECTION('',(-1.,0.,0.));
#150=DIRECTION('center_axis',(1.,0.,0.));
#151=DIRECTION('ref_axis',(0.,-2.03448170582706E-15,-1.));
#152=DIRECTION('center_axis',(1.,0.,0.));
#153=DIRECTION('ref_axis',(0.,0.,-1.));
#154=DIRECTION('center_axis',(1.,0.,0.));
#155=DIRECTION('ref_axis',(0.,0.,-1.));
#156=CARTESIAN_POINT('',(0.,0.,0.));
#157=CARTESIAN_POINT('Origin',(-1.76588394748964,71.5575784929704,35.1017461822877));
#158=CARTESIAN_POINT('',(-1.812,71.5575784929704,34.9482461822877));
#159=CARTESIAN_POINT('Origin',(-1.812,71.5575784929704,35.1017461822877));
#160=CARTESIAN_POINT('',(-1.71976789497927,71.5575784929704,35.1017461822877));
#161=CARTESIAN_POINT('',(-1.76588394748964,71.5575784929704,35.0249961822877));
#162=CARTESIAN_POINT('Origin',(-2.3435,71.5575784929704,35.1017461822877));
#163=CARTESIAN_POINT('',(-2.875,71.5575784929704,34.9482461822877));
#164=CARTESIAN_POINT('Origin',(-2.875,71.5575784929704,35.1017461822877));
#165=CARTESIAN_POINT('',(-2.3435,71.5575784929704,34.9482461822877));
#166=CARTESIAN_POINT('Origin',(3.0625,71.5575784929704,35.1017461822877));
#167=CARTESIAN_POINT('',(3.125,71.5575784929704,34.7267461822877));
#168=CARTESIAN_POINT('Origin',(3.125,71.5575784929704,35.1017461822877));
#169=CARTESIAN_POINT('',(3.,71.5575784929704,34.6017461822877));
#170=CARTESIAN_POINT('',(3.0625,71.5575784929704,34.6642461822877));
#171=CARTESIAN_POINT('',(3.,71.5575784929704,35.6017461822877));
#172=CARTESIAN_POINT('Origin',(3.,71.5575784929704,35.1017461822877));
#173=CARTESIAN_POINT('Origin',(3.,71.5575784929704,35.1017461822877));
#174=CARTESIAN_POINT('Origin',(-2.875,71.5575784929704,35.1017461822877));
#175=CARTESIAN_POINT('',(-2.875,71.5575784929704,35.6017461822877));
#176=CARTESIAN_POINT('',(-2.875,71.5575784929704,35.6017461822877));
#177=CARTESIAN_POINT('Origin',(-2.875,71.5575784929704,35.1017461822877));
#178=CARTESIAN_POINT('Origin',(3.125,71.5575784929704,35.1017461822877));
#179=CARTESIAN_POINT('Origin',(-2.875,71.5575784929704,35.1017461822877));
#180=UNCERTAINTY_MEASURE_WITH_UNIT(LENGTH_MEASURE(0.000393700787401575),
#186,'DISTANCE_ACCURACY_VALUE',
'Maximum model space distance between geometric entities at asserted c
onnectivities');
#181=UNCERTAINTY_MEASURE_WITH_UNIT(LENGTH_MEASURE(0.000393700787401575),
#186,'DISTANCE_ACCURACY_VALUE',
'Maximum model space distance between geometric entities at asserted c
onnectivities');
#182=(
GEOMETRIC_REPRESENTATION_CONTEXT(3)
GLOBAL_UNCERTAINTY_ASSIGNED_CONTEXT((#180))
GLOBAL_UNIT_ASSIGNED_CONTEXT((#186,#190,#191))
REPRESENTATION_CONTEXT('','3D')
);
#183=(
GEOMETRIC_REPRESENTATION_CONTEXT(3)
GLOBAL_UNCERTAINTY_ASSIGNED_CONTEXT((#181))
GLOBAL_UNIT_ASSIGNED_CONTEXT((#186,#190,#191))
REPRESENTATION_CONTEXT('','3D')
);
#184=DIMENSIONAL_EXPONENTS(1.,0.,0.,0.,0.,0.,0.);
#185=DIMENSIONAL_EXPONENTS(0.,1.,0.,0.,0.,0.,0.);
#186=(
CONVERSION_BASED_UNIT('inch',#189)
LENGTH_UNIT()
NAMED_UNIT(#184)
);
#187=(
LENGTH_UNIT()
NAMED_UNIT(*)
SI_UNIT(.MILLI.,.METRE.)
);
#188=(
LENGTH_UNIT()
NAMED_UNIT(*)
SI_UNIT(.CENTI.,.METRE.)
);
#189=LENGTH_MEASURE_WITH_UNIT(LENGTH_MEASURE(25.4),#187);
#190=(
NAMED_UNIT(*)
PLANE_ANGLE_UNIT()
SI_UNIT($,.RADIAN.)
);
#191=(
NAMED_UNIT(*)
SI_UNIT($,.STERADIAN.)
SOLID_ANGLE_UNIT()
);
#192=SHAPE_DEFINITION_REPRESENTATION(#193,#194);
#193=PRODUCT_DEFINITION_SHAPE('',$,#196);
#194=SHAPE_REPRESENTATION('',(#113),#182);
#195=PRODUCT_DEFINITION_CONTEXT('part definition',#200,'design');
#196=PRODUCT_DEFINITION('CRA-1026','CRA-1026',#197,#195);
#197=PRODUCT_DEFINITION_FORMATION('',$,#202);
#198=PRODUCT_RELATED_PRODUCT_CATEGORY('CRA-1026','CRA-1026',(#202));
#199=APPLICATION_PROTOCOL_DEFINITION('international standard',
'automotive_design',2009,#200);
#200=APPLICATION_CONTEXT(
'Core Data for Automotive Mechanical Design Process');
#201=PRODUCT_CONTEXT('part definition',#200,'mechanical');
#202=PRODUCT('CRA-1026','CRA-1026','Robot Arm Cage Pivot pin',(#201));
#203=PRESENTATION_STYLE_ASSIGNMENT((#204));
#204=SURFACE_STYLE_USAGE(.BOTH.,#207);
#205=SURFACE_STYLE_RENDERING_WITH_PROPERTIES($,#211,(#206));
#206=SURFACE_STYLE_TRANSPARENT(0.);
#207=SURFACE_SIDE_STYLE('',(#208,#205));
#208=SURFACE_STYLE_FILL_AREA(#209);
#209=FILL_AREA_STYLE('',(#210));
#210=FILL_AREA_STYLE_COLOUR('',#211);
#211=COLOUR_RGB('',0.749019607843137,0.749019607843137,0.749019607843137);
ENDSEC;
END-ISO-10303-21;
