ISO-10303-21;
HEADER;
/* Generated by software containing ST-Developer
 * from STEP Tools, Inc. (www.steptools.com) 
 */

FILE_DESCRIPTION(
/* description */ ('Robot Arm Tube 11'),
/* implementation_level */ '2;1');

FILE_NAME(
/* name */ 'CRA-1012.stp',
/* time_stamp */ '2025-12-22T15:25:06-06:00',
/* author */ ('josh'),
/* organization */ (''),
/* preprocessor_version */ 'ST-DEVELOPER v20',
/* originating_system */ 'Autodesk Inventor 2025',
/* authorisation */ '');

FILE_SCHEMA (('AUTOMOTIVE_DESIGN { 1 0 10303 214 3 1 1 }'));
ENDSEC;

DATA;
#10=MECHANICAL_DESIGN_GEOMETRIC_PRESENTATION_REPRESENTATION('',(#13),#1265);
#11=SHAPE_REPRESENTATION_RELATIONSHIP('SRR','None',#1276,#12);
#12=ADVANCED_BREP_SHAPE_REPRESENTATION('',(#14),#1264);
#13=STYLED_ITEM('',(#1285),#14);
#14=MANIFOLD_SOLID_BREP('CRA-1012',#737);
#15=ELLIPSE('',#772,0.119025674167854,0.02);
#16=ELLIPSE('',#775,0.119025674167854,0.02);
#17=ELLIPSE('',#778,0.0760817519538811,0.075);
#18=ELLIPSE('',#779,0.0760817519538811,0.075);
#19=ELLIPSE('',#780,0.0760817519538811,0.075);
#20=ELLIPSE('',#781,0.0760817519538811,0.075);
#21=ELLIPSE('',#782,0.152163503907762,0.15);
#22=ELLIPSE('',#783,0.152163503907762,0.15);
#23=ELLIPSE('',#784,0.152163503907762,0.15);
#24=ELLIPSE('',#785,0.152163503907762,0.15);
#25=CYLINDRICAL_SURFACE('',#771,0.02);
#26=CYLINDRICAL_SURFACE('',#774,0.02);
#27=CYLINDRICAL_SURFACE('',#799,0.02);
#28=CYLINDRICAL_SURFACE('',#800,0.02);
#29=CYLINDRICAL_SURFACE('',#810,0.02);
#30=CYLINDRICAL_SURFACE('',#811,0.02);
#31=CYLINDRICAL_SURFACE('',#812,0.0200000393700787);
#32=CYLINDRICAL_SURFACE('',#813,0.0200000393700787);
#33=CYLINDRICAL_SURFACE('',#815,0.075);
#34=CYLINDRICAL_SURFACE('',#817,0.075);
#35=CYLINDRICAL_SURFACE('',#818,0.075);
#36=CYLINDRICAL_SURFACE('',#819,0.075);
#37=CYLINDRICAL_SURFACE('',#822,0.15);
#38=CYLINDRICAL_SURFACE('',#824,0.15);
#39=CYLINDRICAL_SURFACE('',#825,0.15);
#40=CYLINDRICAL_SURFACE('',#826,0.15);
#41=CIRCLE('',#761,0.02);
#42=CIRCLE('',#762,0.02);
#43=CIRCLE('',#763,0.0200000393700787);
#44=CIRCLE('',#764,0.02);
#45=CIRCLE('',#765,0.02);
#46=CIRCLE('',#766,0.0200000393700787);
#47=CIRCLE('',#767,0.02);
#48=CIRCLE('',#768,0.02);
#49=CIRCLE('',#773,0.02);
#50=CIRCLE('',#776,0.02);
#51=CIRCLE('',#789,0.02);
#52=CIRCLE('',#790,0.0200000393700787);
#53=CIRCLE('',#791,0.02);
#54=CIRCLE('',#792,0.02);
#55=CIRCLE('',#793,0.0200000393700787);
#56=CIRCLE('',#794,0.02);
#57=CIRCLE('',#802,0.075);
#58=CIRCLE('',#803,0.075);
#59=CIRCLE('',#804,0.075);
#60=CIRCLE('',#805,0.075);
#61=CIRCLE('',#806,0.15);
#62=CIRCLE('',#807,0.15);
#63=CIRCLE('',#808,0.15);
#64=CIRCLE('',#809,0.15);
#65=FACE_OUTER_BOUND('',#101,.T.);
#66=FACE_OUTER_BOUND('',#102,.T.);
#67=FACE_OUTER_BOUND('',#103,.T.);
#68=FACE_OUTER_BOUND('',#104,.T.);
#69=FACE_OUTER_BOUND('',#105,.T.);
#70=FACE_OUTER_BOUND('',#106,.T.);
#71=FACE_OUTER_BOUND('',#107,.T.);
#72=FACE_OUTER_BOUND('',#108,.T.);
#73=FACE_OUTER_BOUND('',#109,.T.);
#74=FACE_OUTER_BOUND('',#110,.T.);
#75=FACE_OUTER_BOUND('',#111,.T.);
#76=FACE_OUTER_BOUND('',#112,.T.);
#77=FACE_OUTER_BOUND('',#113,.T.);
#78=FACE_OUTER_BOUND('',#114,.T.);
#79=FACE_OUTER_BOUND('',#115,.T.);
#80=FACE_OUTER_BOUND('',#116,.T.);
#81=FACE_OUTER_BOUND('',#117,.T.);
#82=FACE_OUTER_BOUND('',#118,.T.);
#83=FACE_OUTER_BOUND('',#119,.T.);
#84=FACE_OUTER_BOUND('',#120,.T.);
#85=FACE_OUTER_BOUND('',#121,.T.);
#86=FACE_OUTER_BOUND('',#122,.T.);
#87=FACE_OUTER_BOUND('',#123,.T.);
#88=FACE_OUTER_BOUND('',#124,.T.);
#89=FACE_OUTER_BOUND('',#125,.T.);
#90=FACE_OUTER_BOUND('',#126,.T.);
#91=FACE_OUTER_BOUND('',#127,.T.);
#92=FACE_OUTER_BOUND('',#128,.T.);
#93=FACE_OUTER_BOUND('',#129,.T.);
#94=FACE_OUTER_BOUND('',#130,.T.);
#95=FACE_OUTER_BOUND('',#131,.T.);
#96=FACE_OUTER_BOUND('',#132,.T.);
#97=FACE_OUTER_BOUND('',#133,.T.);
#98=FACE_OUTER_BOUND('',#134,.T.);
#99=FACE_OUTER_BOUND('',#135,.T.);
#100=FACE_OUTER_BOUND('',#136,.T.);
#101=EDGE_LOOP('',(#465,#466,#467,#468));
#102=EDGE_LOOP('',(#469,#470,#471,#472,#473,#474,#475,#476,#477,#478,#479,
#480,#481,#482,#483,#484,#485,#486,#487,#488,#489,#490,#491,#492));
#103=EDGE_LOOP('',(#493,#494,#495,#496));
#104=EDGE_LOOP('',(#497,#498,#499,#500));
#105=EDGE_LOOP('',(#501,#502,#503,#504));
#106=EDGE_LOOP('',(#505,#506,#507,#508));
#107=EDGE_LOOP('',(#509,#510,#511,#512,#513,#514,#515,#516,#517,#518,#519,
#520,#521,#522,#523,#524,#525,#526,#527,#528));
#108=EDGE_LOOP('',(#529,#530,#531,#532));
#109=EDGE_LOOP('',(#533,#534,#535,#536));
#110=EDGE_LOOP('',(#537,#538,#539,#540,#541,#542,#543,#544,#545,#546,#547,
#548,#549,#550,#551,#552,#553,#554,#555,#556,#557,#558,#559,#560));
#111=EDGE_LOOP('',(#561,#562,#563,#564));
#112=EDGE_LOOP('',(#565,#566,#567,#568));
#113=EDGE_LOOP('',(#569,#570,#571,#572));
#114=EDGE_LOOP('',(#573,#574,#575,#576));
#115=EDGE_LOOP('',(#577,#578,#579,#580));
#116=EDGE_LOOP('',(#581,#582,#583,#584));
#117=EDGE_LOOP('',(#585,#586,#587,#588,#589,#590,#591,#592,#593,#594,#595,
#596,#597,#598,#599,#600,#601,#602,#603,#604));
#118=EDGE_LOOP('',(#605,#606,#607,#608));
#119=EDGE_LOOP('',(#609,#610,#611,#612));
#120=EDGE_LOOP('',(#613,#614,#615,#616));
#121=EDGE_LOOP('',(#617,#618,#619,#620));
#122=EDGE_LOOP('',(#621,#622,#623,#624));
#123=EDGE_LOOP('',(#625,#626,#627,#628));
#124=EDGE_LOOP('',(#629,#630,#631,#632));
#125=EDGE_LOOP('',(#633,#634,#635,#636));
#126=EDGE_LOOP('',(#637,#638,#639,#640));
#127=EDGE_LOOP('',(#641,#642,#643,#644));
#128=EDGE_LOOP('',(#645,#646,#647,#648));
#129=EDGE_LOOP('',(#649,#650,#651,#652));
#130=EDGE_LOOP('',(#653,#654,#655,#656));
#131=EDGE_LOOP('',(#657,#658,#659,#660));
#132=EDGE_LOOP('',(#661,#662,#663,#664));
#133=EDGE_LOOP('',(#665,#666,#667,#668));
#134=EDGE_LOOP('',(#669,#670,#671,#672));
#135=EDGE_LOOP('',(#673,#674,#675,#676));
#136=EDGE_LOOP('',(#677,#678,#679,#680));
#137=LINE('',#1049,#211);
#138=LINE('',#1051,#212);
#139=LINE('',#1053,#213);
#140=LINE('',#1054,#214);
#141=LINE('',#1057,#215);
#142=LINE('',#1059,#216);
#143=LINE('',#1061,#217);
#144=LINE('',#1065,#218);
#145=LINE('',#1067,#219);
#146=LINE('',#1069,#220);
#147=LINE('',#1077,#221);
#148=LINE('',#1079,#222);
#149=LINE('',#1081,#223);
#150=LINE('',#1083,#224);
#151=LINE('',#1085,#225);
#152=LINE('',#1093,#226);
#153=LINE('',#1095,#227);
#154=LINE('',#1097,#228);
#155=LINE('',#1100,#229);
#156=LINE('',#1103,#230);
#157=LINE('',#1104,#231);
#158=LINE('',#1107,#232);
#159=LINE('',#1108,#233);
#160=LINE('',#1114,#234);
#161=LINE('',#1119,#235);
#162=LINE('',#1125,#236);
#163=LINE('',#1129,#237);
#164=LINE('',#1133,#238);
#165=LINE('',#1136,#239);
#166=LINE('',#1140,#240);
#167=LINE('',#1144,#241);
#168=LINE('',#1148,#242);
#169=LINE('',#1151,#243);
#170=LINE('',#1153,#244);
#171=LINE('',#1155,#245);
#172=LINE('',#1158,#246);
#173=LINE('',#1160,#247);
#174=LINE('',#1168,#248);
#175=LINE('',#1170,#249);
#176=LINE('',#1172,#250);
#177=LINE('',#1174,#251);
#178=LINE('',#1176,#252);
#179=LINE('',#1184,#253);
#180=LINE('',#1185,#254);
#181=LINE('',#1187,#255);
#182=LINE('',#1188,#256);
#183=LINE('',#1190,#257);
#184=LINE('',#1192,#258);
#185=LINE('',#1193,#259);
#186=LINE('',#1195,#260);
#187=LINE('',#1197,#261);
#188=LINE('',#1199,#262);
#189=LINE('',#1200,#263);
#190=LINE('',#1205,#264);
#191=LINE('',#1209,#265);
#192=LINE('',#1213,#266);
#193=LINE('',#1218,#267);
#194=LINE('',#1222,#268);
#195=LINE('',#1226,#269);
#196=LINE('',#1228,#270);
#197=LINE('',#1230,#271);
#198=LINE('',#1232,#272);
#199=LINE('',#1237,#273);
#200=LINE('',#1238,#274);
#201=LINE('',#1240,#275);
#202=LINE('',#1242,#276);
#203=LINE('',#1244,#277);
#204=LINE('',#1246,#278);
#205=LINE('',#1250,#279);
#206=LINE('',#1251,#280);
#207=LINE('',#1253,#281);
#208=LINE('',#1255,#282);
#209=LINE('',#1257,#283);
#210=LINE('',#1259,#284);
#211=VECTOR('',#833,0.393700787401575);
#212=VECTOR('',#834,0.393700787401575);
#213=VECTOR('',#835,0.393700787401575);
#214=VECTOR('',#836,0.393700787401575);
#215=VECTOR('',#839,0.393700787401575);
#216=VECTOR('',#840,0.393700787401575);
#217=VECTOR('',#841,0.393700787401575);
#218=VECTOR('',#844,0.393700787401575);
#219=VECTOR('',#845,0.393700787401575);
#220=VECTOR('',#846,0.393700787401575);
#221=VECTOR('',#853,0.393700787401575);
#222=VECTOR('',#854,0.393700787401575);
#223=VECTOR('',#855,0.393700787401575);
#224=VECTOR('',#856,0.393700787401575);
#225=VECTOR('',#857,0.393700787401575);
#226=VECTOR('',#864,0.393700787401575);
#227=VECTOR('',#865,0.393700787401575);
#228=VECTOR('',#866,0.393700787401575);
#229=VECTOR('',#869,0.393700787401575);
#230=VECTOR('',#872,0.393700787401575);
#231=VECTOR('',#873,0.393700787401575);
#232=VECTOR('',#876,0.393700787401575);
#233=VECTOR('',#877,0.393700787401575);
#234=VECTOR('',#884,0.393700787401575);
#235=VECTOR('',#889,0.393700787401575);
#236=VECTOR('',#896,0.393700787401575);
#237=VECTOR('',#899,0.393700787401575);
#238=VECTOR('',#902,0.393700787401575);
#239=VECTOR('',#905,0.393700787401575);
#240=VECTOR('',#908,0.393700787401575);
#241=VECTOR('',#911,0.393700787401575);
#242=VECTOR('',#914,0.393700787401575);
#243=VECTOR('',#917,0.393700787401575);
#244=VECTOR('',#920,0.393700787401575);
#245=VECTOR('',#923,0.393700787401575);
#246=VECTOR('',#926,0.393700787401575);
#247=VECTOR('',#927,0.393700787401575);
#248=VECTOR('',#934,0.393700787401575);
#249=VECTOR('',#935,0.393700787401575);
#250=VECTOR('',#936,0.393700787401575);
#251=VECTOR('',#937,0.393700787401575);
#252=VECTOR('',#938,0.393700787401575);
#253=VECTOR('',#945,0.393700787401575);
#254=VECTOR('',#946,0.393700787401575);
#255=VECTOR('',#949,0.393700787401575);
#256=VECTOR('',#950,0.393700787401575);
#257=VECTOR('',#953,0.393700787401575);
#258=VECTOR('',#956,0.393700787401575);
#259=VECTOR('',#957,0.393700787401575);
#260=VECTOR('',#960,0.393700787401575);
#261=VECTOR('',#963,0.393700787401575);
#262=VECTOR('',#966,0.393700787401575);
#263=VECTOR('',#967,0.393700787401575);
#264=VECTOR('',#972,0.393700787401575);
#265=VECTOR('',#975,0.393700787401575);
#266=VECTOR('',#978,0.393700787401575);
#267=VECTOR('',#983,0.393700787401575);
#268=VECTOR('',#986,0.393700787401575);
#269=VECTOR('',#989,0.393700787401575);
#270=VECTOR('',#992,0.393700787401575);
#271=VECTOR('',#995,0.393700787401575);
#272=VECTOR('',#998,0.393700787401575);
#273=VECTOR('',#1007,0.393700787401575);
#274=VECTOR('',#1008,0.393700787401575);
#275=VECTOR('',#1011,0.393700787401575);
#276=VECTOR('',#1014,0.393700787401575);
#277=VECTOR('',#1017,0.393700787401575);
#278=VECTOR('',#1020,0.393700787401575);
#279=VECTOR('',#1027,0.393700787401575);
#280=VECTOR('',#1028,0.393700787401575);
#281=VECTOR('',#1031,0.393700787401575);
#282=VECTOR('',#1034,0.393700787401575);
#283=VECTOR('',#1037,0.393700787401575);
#284=VECTOR('',#1040,0.393700787401575);
#285=VERTEX_POINT('',#1047);
#286=VERTEX_POINT('',#1048);
#287=VERTEX_POINT('',#1050);
#288=VERTEX_POINT('',#1052);
#289=VERTEX_POINT('',#1056);
#290=VERTEX_POINT('',#1058);
#291=VERTEX_POINT('',#1060);
#292=VERTEX_POINT('',#1062);
#293=VERTEX_POINT('',#1064);
#294=VERTEX_POINT('',#1066);
#295=VERTEX_POINT('',#1068);
#296=VERTEX_POINT('',#1070);
#297=VERTEX_POINT('',#1072);
#298=VERTEX_POINT('',#1074);
#299=VERTEX_POINT('',#1076);
#300=VERTEX_POINT('',#1078);
#301=VERTEX_POINT('',#1080);
#302=VERTEX_POINT('',#1082);
#303=VERTEX_POINT('',#1084);
#304=VERTEX_POINT('',#1086);
#305=VERTEX_POINT('',#1088);
#306=VERTEX_POINT('',#1090);
#307=VERTEX_POINT('',#1092);
#308=VERTEX_POINT('',#1094);
#309=VERTEX_POINT('',#1096);
#310=VERTEX_POINT('',#1098);
#311=VERTEX_POINT('',#1102);
#312=VERTEX_POINT('',#1106);
#313=VERTEX_POINT('',#1110);
#314=VERTEX_POINT('',#1112);
#315=VERTEX_POINT('',#1116);
#316=VERTEX_POINT('',#1118);
#317=VERTEX_POINT('',#1122);
#318=VERTEX_POINT('',#1124);
#319=VERTEX_POINT('',#1126);
#320=VERTEX_POINT('',#1128);
#321=VERTEX_POINT('',#1130);
#322=VERTEX_POINT('',#1132);
#323=VERTEX_POINT('',#1135);
#324=VERTEX_POINT('',#1137);
#325=VERTEX_POINT('',#1139);
#326=VERTEX_POINT('',#1141);
#327=VERTEX_POINT('',#1143);
#328=VERTEX_POINT('',#1145);
#329=VERTEX_POINT('',#1147);
#330=VERTEX_POINT('',#1149);
#331=VERTEX_POINT('',#1157);
#332=VERTEX_POINT('',#1159);
#333=VERTEX_POINT('',#1161);
#334=VERTEX_POINT('',#1163);
#335=VERTEX_POINT('',#1165);
#336=VERTEX_POINT('',#1167);
#337=VERTEX_POINT('',#1169);
#338=VERTEX_POINT('',#1171);
#339=VERTEX_POINT('',#1173);
#340=VERTEX_POINT('',#1175);
#341=VERTEX_POINT('',#1177);
#342=VERTEX_POINT('',#1179);
#343=VERTEX_POINT('',#1181);
#344=VERTEX_POINT('',#1183);
#345=VERTEX_POINT('',#1202);
#346=VERTEX_POINT('',#1204);
#347=VERTEX_POINT('',#1206);
#348=VERTEX_POINT('',#1208);
#349=VERTEX_POINT('',#1210);
#350=VERTEX_POINT('',#1212);
#351=VERTEX_POINT('',#1215);
#352=VERTEX_POINT('',#1217);
#353=VERTEX_POINT('',#1219);
#354=VERTEX_POINT('',#1221);
#355=VERTEX_POINT('',#1223);
#356=VERTEX_POINT('',#1225);
#357=EDGE_CURVE('',#285,#286,#137,.T.);
#358=EDGE_CURVE('',#286,#287,#138,.T.);
#359=EDGE_CURVE('',#287,#288,#139,.T.);
#360=EDGE_CURVE('',#288,#285,#140,.T.);
#361=EDGE_CURVE('',#285,#289,#141,.T.);
#362=EDGE_CURVE('',#290,#289,#142,.T.);
#363=EDGE_CURVE('',#291,#290,#143,.T.);
#364=EDGE_CURVE('',#291,#292,#41,.T.);
#365=EDGE_CURVE('',#293,#292,#144,.T.);
#366=EDGE_CURVE('',#293,#294,#145,.T.);
#367=EDGE_CURVE('',#295,#294,#146,.T.);
#368=EDGE_CURVE('',#296,#295,#42,.T.);
#369=EDGE_CURVE('',#296,#297,#43,.T.);
#370=EDGE_CURVE('',#298,#297,#44,.T.);
#371=EDGE_CURVE('',#298,#299,#147,.T.);
#372=EDGE_CURVE('',#300,#299,#148,.T.);
#373=EDGE_CURVE('',#301,#300,#149,.T.);
#374=EDGE_CURVE('',#302,#301,#150,.T.);
#375=EDGE_CURVE('',#303,#302,#151,.T.);
#376=EDGE_CURVE('',#304,#303,#45,.T.);
#377=EDGE_CURVE('',#304,#305,#46,.T.);
#378=EDGE_CURVE('',#306,#305,#47,.T.);
#379=EDGE_CURVE('',#307,#306,#152,.T.);
#380=EDGE_CURVE('',#307,#308,#153,.T.);
#381=EDGE_CURVE('',#309,#308,#154,.T.);
#382=EDGE_CURVE('',#309,#310,#48,.T.);
#383=EDGE_CURVE('',#286,#310,#155,.T.);
#384=EDGE_CURVE('',#311,#288,#156,.T.);
#385=EDGE_CURVE('',#289,#311,#157,.T.);
#386=EDGE_CURVE('',#311,#312,#158,.T.);
#387=EDGE_CURVE('',#312,#290,#159,.T.);
#388=EDGE_CURVE('',#313,#309,#15,.T.);
#389=EDGE_CURVE('',#314,#313,#49,.T.);
#390=EDGE_CURVE('',#310,#314,#160,.T.);
#391=EDGE_CURVE('',#292,#315,#16,.T.);
#392=EDGE_CURVE('',#316,#291,#161,.T.);
#393=EDGE_CURVE('',#315,#316,#50,.T.);
#394=EDGE_CURVE('',#308,#317,#17,.T.);
#395=EDGE_CURVE('',#317,#318,#162,.T.);
#396=EDGE_CURVE('',#318,#319,#18,.T.);
#397=EDGE_CURVE('',#319,#320,#163,.T.);
#398=EDGE_CURVE('',#320,#321,#19,.T.);
#399=EDGE_CURVE('',#321,#322,#164,.T.);
#400=EDGE_CURVE('',#322,#293,#20,.T.);
#401=EDGE_CURVE('',#315,#323,#165,.T.);
#402=EDGE_CURVE('',#324,#323,#21,.T.);
#403=EDGE_CURVE('',#325,#324,#166,.T.);
#404=EDGE_CURVE('',#326,#325,#22,.T.);
#405=EDGE_CURVE('',#327,#326,#167,.T.);
#406=EDGE_CURVE('',#328,#327,#23,.T.);
#407=EDGE_CURVE('',#329,#328,#168,.T.);
#408=EDGE_CURVE('',#330,#329,#24,.T.);
#409=EDGE_CURVE('',#330,#313,#169,.T.);
#410=EDGE_CURVE('',#287,#314,#170,.T.);
#411=EDGE_CURVE('',#316,#312,#171,.T.);
#412=EDGE_CURVE('',#331,#330,#172,.T.);
#413=EDGE_CURVE('',#331,#332,#173,.T.);
#414=EDGE_CURVE('',#333,#332,#51,.T.);
#415=EDGE_CURVE('',#333,#334,#52,.T.);
#416=EDGE_CURVE('',#335,#334,#53,.T.);
#417=EDGE_CURVE('',#335,#336,#174,.T.);
#418=EDGE_CURVE('',#337,#336,#175,.T.);
#419=EDGE_CURVE('',#338,#337,#176,.T.);
#420=EDGE_CURVE('',#339,#338,#177,.T.);
#421=EDGE_CURVE('',#340,#339,#178,.T.);
#422=EDGE_CURVE('',#341,#340,#54,.T.);
#423=EDGE_CURVE('',#341,#342,#55,.T.);
#424=EDGE_CURVE('',#343,#342,#56,.T.);
#425=EDGE_CURVE('',#343,#344,#179,.T.);
#426=EDGE_CURVE('',#323,#344,#180,.T.);
#427=EDGE_CURVE('',#338,#300,#181,.T.);
#428=EDGE_CURVE('',#299,#339,#182,.T.);
#429=EDGE_CURVE('',#340,#298,#183,.T.);
#430=EDGE_CURVE('',#301,#337,#184,.T.);
#431=EDGE_CURVE('',#336,#302,#185,.T.);
#432=EDGE_CURVE('',#303,#335,#186,.T.);
#433=EDGE_CURVE('',#334,#304,#187,.T.);
#434=EDGE_CURVE('',#332,#306,#188,.T.);
#435=EDGE_CURVE('',#305,#333,#189,.T.);
#436=EDGE_CURVE('',#294,#345,#57,.T.);
#437=EDGE_CURVE('',#345,#346,#190,.T.);
#438=EDGE_CURVE('',#346,#347,#58,.T.);
#439=EDGE_CURVE('',#347,#348,#191,.T.);
#440=EDGE_CURVE('',#348,#349,#59,.T.);
#441=EDGE_CURVE('',#349,#350,#192,.T.);
#442=EDGE_CURVE('',#350,#307,#60,.T.);
#443=EDGE_CURVE('',#351,#331,#61,.T.);
#444=EDGE_CURVE('',#352,#351,#193,.T.);
#445=EDGE_CURVE('',#353,#352,#62,.T.);
#446=EDGE_CURVE('',#354,#353,#194,.T.);
#447=EDGE_CURVE('',#355,#354,#63,.T.);
#448=EDGE_CURVE('',#356,#355,#195,.T.);
#449=EDGE_CURVE('',#344,#356,#64,.T.);
#450=EDGE_CURVE('',#295,#343,#196,.T.);
#451=EDGE_CURVE('',#342,#296,#197,.T.);
#452=EDGE_CURVE('',#297,#341,#198,.T.);
#453=EDGE_CURVE('',#319,#348,#199,.T.);
#454=EDGE_CURVE('',#349,#318,#200,.T.);
#455=EDGE_CURVE('',#347,#320,#201,.T.);
#456=EDGE_CURVE('',#321,#346,#202,.T.);
#457=EDGE_CURVE('',#317,#350,#203,.T.);
#458=EDGE_CURVE('',#345,#322,#204,.T.);
#459=EDGE_CURVE('',#352,#328,#205,.T.);
#460=EDGE_CURVE('',#327,#353,#206,.T.);
#461=EDGE_CURVE('',#354,#326,#207,.T.);
#462=EDGE_CURVE('',#325,#355,#208,.T.);
#463=EDGE_CURVE('',#329,#351,#209,.T.);
#464=EDGE_CURVE('',#356,#324,#210,.T.);
#465=ORIENTED_EDGE('',*,*,#357,.T.);
#466=ORIENTED_EDGE('',*,*,#358,.T.);
#467=ORIENTED_EDGE('',*,*,#359,.T.);
#468=ORIENTED_EDGE('',*,*,#360,.T.);
#469=ORIENTED_EDGE('',*,*,#357,.F.);
#470=ORIENTED_EDGE('',*,*,#361,.T.);
#471=ORIENTED_EDGE('',*,*,#362,.F.);
#472=ORIENTED_EDGE('',*,*,#363,.F.);
#473=ORIENTED_EDGE('',*,*,#364,.T.);
#474=ORIENTED_EDGE('',*,*,#365,.F.);
#475=ORIENTED_EDGE('',*,*,#366,.T.);
#476=ORIENTED_EDGE('',*,*,#367,.F.);
#477=ORIENTED_EDGE('',*,*,#368,.F.);
#478=ORIENTED_EDGE('',*,*,#369,.T.);
#479=ORIENTED_EDGE('',*,*,#370,.F.);
#480=ORIENTED_EDGE('',*,*,#371,.T.);
#481=ORIENTED_EDGE('',*,*,#372,.F.);
#482=ORIENTED_EDGE('',*,*,#373,.F.);
#483=ORIENTED_EDGE('',*,*,#374,.F.);
#484=ORIENTED_EDGE('',*,*,#375,.F.);
#485=ORIENTED_EDGE('',*,*,#376,.F.);
#486=ORIENTED_EDGE('',*,*,#377,.T.);
#487=ORIENTED_EDGE('',*,*,#378,.F.);
#488=ORIENTED_EDGE('',*,*,#379,.F.);
#489=ORIENTED_EDGE('',*,*,#380,.T.);
#490=ORIENTED_EDGE('',*,*,#381,.F.);
#491=ORIENTED_EDGE('',*,*,#382,.T.);
#492=ORIENTED_EDGE('',*,*,#383,.F.);
#493=ORIENTED_EDGE('',*,*,#360,.F.);
#494=ORIENTED_EDGE('',*,*,#384,.F.);
#495=ORIENTED_EDGE('',*,*,#385,.F.);
#496=ORIENTED_EDGE('',*,*,#361,.F.);
#497=ORIENTED_EDGE('',*,*,#386,.T.);
#498=ORIENTED_EDGE('',*,*,#387,.T.);
#499=ORIENTED_EDGE('',*,*,#362,.T.);
#500=ORIENTED_EDGE('',*,*,#385,.T.);
#501=ORIENTED_EDGE('',*,*,#388,.F.);
#502=ORIENTED_EDGE('',*,*,#389,.F.);
#503=ORIENTED_EDGE('',*,*,#390,.F.);
#504=ORIENTED_EDGE('',*,*,#382,.F.);
#505=ORIENTED_EDGE('',*,*,#391,.F.);
#506=ORIENTED_EDGE('',*,*,#364,.F.);
#507=ORIENTED_EDGE('',*,*,#392,.F.);
#508=ORIENTED_EDGE('',*,*,#393,.F.);
#509=ORIENTED_EDGE('',*,*,#388,.T.);
#510=ORIENTED_EDGE('',*,*,#381,.T.);
#511=ORIENTED_EDGE('',*,*,#394,.T.);
#512=ORIENTED_EDGE('',*,*,#395,.T.);
#513=ORIENTED_EDGE('',*,*,#396,.T.);
#514=ORIENTED_EDGE('',*,*,#397,.T.);
#515=ORIENTED_EDGE('',*,*,#398,.T.);
#516=ORIENTED_EDGE('',*,*,#399,.T.);
#517=ORIENTED_EDGE('',*,*,#400,.T.);
#518=ORIENTED_EDGE('',*,*,#365,.T.);
#519=ORIENTED_EDGE('',*,*,#391,.T.);
#520=ORIENTED_EDGE('',*,*,#401,.T.);
#521=ORIENTED_EDGE('',*,*,#402,.F.);
#522=ORIENTED_EDGE('',*,*,#403,.F.);
#523=ORIENTED_EDGE('',*,*,#404,.F.);
#524=ORIENTED_EDGE('',*,*,#405,.F.);
#525=ORIENTED_EDGE('',*,*,#406,.F.);
#526=ORIENTED_EDGE('',*,*,#407,.F.);
#527=ORIENTED_EDGE('',*,*,#408,.F.);
#528=ORIENTED_EDGE('',*,*,#409,.T.);
#529=ORIENTED_EDGE('',*,*,#358,.F.);
#530=ORIENTED_EDGE('',*,*,#383,.T.);
#531=ORIENTED_EDGE('',*,*,#390,.T.);
#532=ORIENTED_EDGE('',*,*,#410,.F.);
#533=ORIENTED_EDGE('',*,*,#387,.F.);
#534=ORIENTED_EDGE('',*,*,#411,.F.);
#535=ORIENTED_EDGE('',*,*,#392,.T.);
#536=ORIENTED_EDGE('',*,*,#363,.T.);
#537=ORIENTED_EDGE('',*,*,#359,.F.);
#538=ORIENTED_EDGE('',*,*,#410,.T.);
#539=ORIENTED_EDGE('',*,*,#389,.T.);
#540=ORIENTED_EDGE('',*,*,#409,.F.);
#541=ORIENTED_EDGE('',*,*,#412,.F.);
#542=ORIENTED_EDGE('',*,*,#413,.T.);
#543=ORIENTED_EDGE('',*,*,#414,.F.);
#544=ORIENTED_EDGE('',*,*,#415,.T.);
#545=ORIENTED_EDGE('',*,*,#416,.F.);
#546=ORIENTED_EDGE('',*,*,#417,.T.);
#547=ORIENTED_EDGE('',*,*,#418,.F.);
#548=ORIENTED_EDGE('',*,*,#419,.F.);
#549=ORIENTED_EDGE('',*,*,#420,.F.);
#550=ORIENTED_EDGE('',*,*,#421,.F.);
#551=ORIENTED_EDGE('',*,*,#422,.F.);
#552=ORIENTED_EDGE('',*,*,#423,.T.);
#553=ORIENTED_EDGE('',*,*,#424,.F.);
#554=ORIENTED_EDGE('',*,*,#425,.T.);
#555=ORIENTED_EDGE('',*,*,#426,.F.);
#556=ORIENTED_EDGE('',*,*,#401,.F.);
#557=ORIENTED_EDGE('',*,*,#393,.T.);
#558=ORIENTED_EDGE('',*,*,#411,.T.);
#559=ORIENTED_EDGE('',*,*,#386,.F.);
#560=ORIENTED_EDGE('',*,*,#384,.T.);
#561=ORIENTED_EDGE('',*,*,#420,.T.);
#562=ORIENTED_EDGE('',*,*,#427,.T.);
#563=ORIENTED_EDGE('',*,*,#372,.T.);
#564=ORIENTED_EDGE('',*,*,#428,.T.);
#565=ORIENTED_EDGE('',*,*,#428,.F.);
#566=ORIENTED_EDGE('',*,*,#371,.F.);
#567=ORIENTED_EDGE('',*,*,#429,.F.);
#568=ORIENTED_EDGE('',*,*,#421,.T.);
#569=ORIENTED_EDGE('',*,*,#374,.T.);
#570=ORIENTED_EDGE('',*,*,#430,.T.);
#571=ORIENTED_EDGE('',*,*,#418,.T.);
#572=ORIENTED_EDGE('',*,*,#431,.T.);
#573=ORIENTED_EDGE('',*,*,#431,.F.);
#574=ORIENTED_EDGE('',*,*,#417,.F.);
#575=ORIENTED_EDGE('',*,*,#432,.F.);
#576=ORIENTED_EDGE('',*,*,#375,.T.);
#577=ORIENTED_EDGE('',*,*,#376,.T.);
#578=ORIENTED_EDGE('',*,*,#432,.T.);
#579=ORIENTED_EDGE('',*,*,#416,.T.);
#580=ORIENTED_EDGE('',*,*,#433,.T.);
#581=ORIENTED_EDGE('',*,*,#414,.T.);
#582=ORIENTED_EDGE('',*,*,#434,.T.);
#583=ORIENTED_EDGE('',*,*,#378,.T.);
#584=ORIENTED_EDGE('',*,*,#435,.T.);
#585=ORIENTED_EDGE('',*,*,#436,.T.);
#586=ORIENTED_EDGE('',*,*,#437,.T.);
#587=ORIENTED_EDGE('',*,*,#438,.T.);
#588=ORIENTED_EDGE('',*,*,#439,.T.);
#589=ORIENTED_EDGE('',*,*,#440,.T.);
#590=ORIENTED_EDGE('',*,*,#441,.T.);
#591=ORIENTED_EDGE('',*,*,#442,.T.);
#592=ORIENTED_EDGE('',*,*,#379,.T.);
#593=ORIENTED_EDGE('',*,*,#434,.F.);
#594=ORIENTED_EDGE('',*,*,#413,.F.);
#595=ORIENTED_EDGE('',*,*,#443,.F.);
#596=ORIENTED_EDGE('',*,*,#444,.F.);
#597=ORIENTED_EDGE('',*,*,#445,.F.);
#598=ORIENTED_EDGE('',*,*,#446,.F.);
#599=ORIENTED_EDGE('',*,*,#447,.F.);
#600=ORIENTED_EDGE('',*,*,#448,.F.);
#601=ORIENTED_EDGE('',*,*,#449,.F.);
#602=ORIENTED_EDGE('',*,*,#425,.F.);
#603=ORIENTED_EDGE('',*,*,#450,.F.);
#604=ORIENTED_EDGE('',*,*,#367,.T.);
#605=ORIENTED_EDGE('',*,*,#424,.T.);
#606=ORIENTED_EDGE('',*,*,#451,.T.);
#607=ORIENTED_EDGE('',*,*,#368,.T.);
#608=ORIENTED_EDGE('',*,*,#450,.T.);
#609=ORIENTED_EDGE('',*,*,#422,.T.);
#610=ORIENTED_EDGE('',*,*,#429,.T.);
#611=ORIENTED_EDGE('',*,*,#370,.T.);
#612=ORIENTED_EDGE('',*,*,#452,.T.);
#613=ORIENTED_EDGE('',*,*,#451,.F.);
#614=ORIENTED_EDGE('',*,*,#423,.F.);
#615=ORIENTED_EDGE('',*,*,#452,.F.);
#616=ORIENTED_EDGE('',*,*,#369,.F.);
#617=ORIENTED_EDGE('',*,*,#433,.F.);
#618=ORIENTED_EDGE('',*,*,#415,.F.);
#619=ORIENTED_EDGE('',*,*,#435,.F.);
#620=ORIENTED_EDGE('',*,*,#377,.F.);
#621=ORIENTED_EDGE('',*,*,#427,.F.);
#622=ORIENTED_EDGE('',*,*,#419,.T.);
#623=ORIENTED_EDGE('',*,*,#430,.F.);
#624=ORIENTED_EDGE('',*,*,#373,.T.);
#625=ORIENTED_EDGE('',*,*,#440,.F.);
#626=ORIENTED_EDGE('',*,*,#453,.F.);
#627=ORIENTED_EDGE('',*,*,#396,.F.);
#628=ORIENTED_EDGE('',*,*,#454,.F.);
#629=ORIENTED_EDGE('',*,*,#453,.T.);
#630=ORIENTED_EDGE('',*,*,#439,.F.);
#631=ORIENTED_EDGE('',*,*,#455,.T.);
#632=ORIENTED_EDGE('',*,*,#397,.F.);
#633=ORIENTED_EDGE('',*,*,#398,.F.);
#634=ORIENTED_EDGE('',*,*,#455,.F.);
#635=ORIENTED_EDGE('',*,*,#438,.F.);
#636=ORIENTED_EDGE('',*,*,#456,.F.);
#637=ORIENTED_EDGE('',*,*,#394,.F.);
#638=ORIENTED_EDGE('',*,*,#380,.F.);
#639=ORIENTED_EDGE('',*,*,#442,.F.);
#640=ORIENTED_EDGE('',*,*,#457,.F.);
#641=ORIENTED_EDGE('',*,*,#436,.F.);
#642=ORIENTED_EDGE('',*,*,#366,.F.);
#643=ORIENTED_EDGE('',*,*,#400,.F.);
#644=ORIENTED_EDGE('',*,*,#458,.F.);
#645=ORIENTED_EDGE('',*,*,#456,.T.);
#646=ORIENTED_EDGE('',*,*,#437,.F.);
#647=ORIENTED_EDGE('',*,*,#458,.T.);
#648=ORIENTED_EDGE('',*,*,#399,.F.);
#649=ORIENTED_EDGE('',*,*,#454,.T.);
#650=ORIENTED_EDGE('',*,*,#395,.F.);
#651=ORIENTED_EDGE('',*,*,#457,.T.);
#652=ORIENTED_EDGE('',*,*,#441,.F.);
#653=ORIENTED_EDGE('',*,*,#445,.T.);
#654=ORIENTED_EDGE('',*,*,#459,.T.);
#655=ORIENTED_EDGE('',*,*,#406,.T.);
#656=ORIENTED_EDGE('',*,*,#460,.T.);
#657=ORIENTED_EDGE('',*,*,#460,.F.);
#658=ORIENTED_EDGE('',*,*,#405,.T.);
#659=ORIENTED_EDGE('',*,*,#461,.F.);
#660=ORIENTED_EDGE('',*,*,#446,.T.);
#661=ORIENTED_EDGE('',*,*,#404,.T.);
#662=ORIENTED_EDGE('',*,*,#462,.T.);
#663=ORIENTED_EDGE('',*,*,#447,.T.);
#664=ORIENTED_EDGE('',*,*,#461,.T.);
#665=ORIENTED_EDGE('',*,*,#408,.T.);
#666=ORIENTED_EDGE('',*,*,#463,.T.);
#667=ORIENTED_EDGE('',*,*,#443,.T.);
#668=ORIENTED_EDGE('',*,*,#412,.T.);
#669=ORIENTED_EDGE('',*,*,#449,.T.);
#670=ORIENTED_EDGE('',*,*,#464,.T.);
#671=ORIENTED_EDGE('',*,*,#402,.T.);
#672=ORIENTED_EDGE('',*,*,#426,.T.);
#673=ORIENTED_EDGE('',*,*,#462,.F.);
#674=ORIENTED_EDGE('',*,*,#403,.T.);
#675=ORIENTED_EDGE('',*,*,#464,.F.);
#676=ORIENTED_EDGE('',*,*,#448,.T.);
#677=ORIENTED_EDGE('',*,*,#459,.F.);
#678=ORIENTED_EDGE('',*,*,#444,.T.);
#679=ORIENTED_EDGE('',*,*,#463,.F.);
#680=ORIENTED_EDGE('',*,*,#407,.T.);
#681=PLANE('',#759);
#682=PLANE('',#760);
#683=PLANE('',#769);
#684=PLANE('',#770);
#685=PLANE('',#777);
#686=PLANE('',#786);
#687=PLANE('',#787);
#688=PLANE('',#788);
#689=PLANE('',#795);
#690=PLANE('',#796);
#691=PLANE('',#797);
#692=PLANE('',#798);
#693=PLANE('',#801);
#694=PLANE('',#814);
#695=PLANE('',#816);
#696=PLANE('',#820);
#697=PLANE('',#821);
#698=PLANE('',#823);
#699=PLANE('',#827);
#700=PLANE('',#828);
#701=ADVANCED_FACE('',(#65),#681,.T.);
#702=ADVANCED_FACE('',(#66),#682,.F.);
#703=ADVANCED_FACE('',(#67),#683,.F.);
#704=ADVANCED_FACE('',(#68),#684,.T.);
#705=ADVANCED_FACE('',(#69),#25,.F.);
#706=ADVANCED_FACE('',(#70),#26,.F.);
#707=ADVANCED_FACE('',(#71),#685,.T.);
#708=ADVANCED_FACE('',(#72),#686,.T.);
#709=ADVANCED_FACE('',(#73),#687,.T.);
#710=ADVANCED_FACE('',(#74),#688,.T.);
#711=ADVANCED_FACE('',(#75),#689,.T.);
#712=ADVANCED_FACE('',(#76),#690,.T.);
#713=ADVANCED_FACE('',(#77),#691,.T.);
#714=ADVANCED_FACE('',(#78),#692,.T.);
#715=ADVANCED_FACE('',(#79),#27,.T.);
#716=ADVANCED_FACE('',(#80),#28,.T.);
#717=ADVANCED_FACE('',(#81),#693,.T.);
#718=ADVANCED_FACE('',(#82),#29,.T.);
#719=ADVANCED_FACE('',(#83),#30,.T.);
#720=ADVANCED_FACE('',(#84),#31,.F.);
#721=ADVANCED_FACE('',(#85),#32,.F.);
#722=ADVANCED_FACE('',(#86),#694,.T.);
#723=ADVANCED_FACE('',(#87),#33,.F.);
#724=ADVANCED_FACE('',(#88),#695,.F.);
#725=ADVANCED_FACE('',(#89),#34,.F.);
#726=ADVANCED_FACE('',(#90),#35,.F.);
#727=ADVANCED_FACE('',(#91),#36,.F.);
#728=ADVANCED_FACE('',(#92),#696,.F.);
#729=ADVANCED_FACE('',(#93),#697,.F.);
#730=ADVANCED_FACE('',(#94),#37,.T.);
#731=ADVANCED_FACE('',(#95),#698,.T.);
#732=ADVANCED_FACE('',(#96),#38,.T.);
#733=ADVANCED_FACE('',(#97),#39,.T.);
#734=ADVANCED_FACE('',(#98),#40,.T.);
#735=ADVANCED_FACE('',(#99),#699,.T.);
#736=ADVANCED_FACE('',(#100),#700,.T.);
#737=CLOSED_SHELL('',(#701,#702,#703,#704,#705,#706,#707,#708,#709,#710,
#711,#712,#713,#714,#715,#716,#717,#718,#719,#720,#721,#722,#723,#724,#725,
#726,#727,#728,#729,#730,#731,#732,#733,#734,#735,#736));
#738=DERIVED_UNIT_ELEMENT(#740,1.);
#739=DERIVED_UNIT_ELEMENT(#1270,-3.);
#740=(
CONVERSION_BASED_UNIT('gram',#742)
MASS_UNIT()
NAMED_UNIT(#1267)
);
#741=(
MASS_UNIT()
NAMED_UNIT(*)
SI_UNIT(.KILO.,.GRAM.)
);
#742=MASS_MEASURE_WITH_UNIT(MASS_MEASURE(0.001),#741);
#743=DERIVED_UNIT((#738,#739));
#744=MEASURE_REPRESENTATION_ITEM('density measure',
POSITIVE_RATIO_MEASURE(1.),#743);
#745=PROPERTY_DEFINITION_REPRESENTATION(#750,#747);
#746=PROPERTY_DEFINITION_REPRESENTATION(#751,#748);
#747=REPRESENTATION('material name',(#749),#1264);
#748=REPRESENTATION('density',(#744),#1264);
#749=DESCRIPTIVE_REPRESENTATION_ITEM('Generic','Generic');
#750=PROPERTY_DEFINITION('material property','material name',#1278);
#751=PROPERTY_DEFINITION('material property','density of part',#1278);
#752=DATE_TIME_ROLE('creation_date');
#753=APPLIED_DATE_AND_TIME_ASSIGNMENT(#754,#752,(#1278));
#754=DATE_AND_TIME(#755,#756);
#755=CALENDAR_DATE(2025,20,12);
#756=LOCAL_TIME(0,0,0.,#757);
#757=COORDINATED_UNIVERSAL_TIME_OFFSET(0,0,.BEHIND.);
#758=AXIS2_PLACEMENT_3D('',#1045,#829,#830);
#759=AXIS2_PLACEMENT_3D('',#1046,#831,#832);
#760=AXIS2_PLACEMENT_3D('',#1055,#837,#838);
#761=AXIS2_PLACEMENT_3D('',#1063,#842,#843);
#762=AXIS2_PLACEMENT_3D('',#1071,#847,#848);
#763=AXIS2_PLACEMENT_3D('',#1073,#849,#850);
#764=AXIS2_PLACEMENT_3D('',#1075,#851,#852);
#765=AXIS2_PLACEMENT_3D('',#1087,#858,#859);
#766=AXIS2_PLACEMENT_3D('',#1089,#860,#861);
#767=AXIS2_PLACEMENT_3D('',#1091,#862,#863);
#768=AXIS2_PLACEMENT_3D('',#1099,#867,#868);
#769=AXIS2_PLACEMENT_3D('',#1101,#870,#871);
#770=AXIS2_PLACEMENT_3D('',#1105,#874,#875);
#771=AXIS2_PLACEMENT_3D('',#1109,#878,#879);
#772=AXIS2_PLACEMENT_3D('',#1111,#880,#881);
#773=AXIS2_PLACEMENT_3D('',#1113,#882,#883);
#774=AXIS2_PLACEMENT_3D('',#1115,#885,#886);
#775=AXIS2_PLACEMENT_3D('',#1117,#887,#888);
#776=AXIS2_PLACEMENT_3D('',#1120,#890,#891);
#777=AXIS2_PLACEMENT_3D('',#1121,#892,#893);
#778=AXIS2_PLACEMENT_3D('',#1123,#894,#895);
#779=AXIS2_PLACEMENT_3D('',#1127,#897,#898);
#780=AXIS2_PLACEMENT_3D('',#1131,#900,#901);
#781=AXIS2_PLACEMENT_3D('',#1134,#903,#904);
#782=AXIS2_PLACEMENT_3D('',#1138,#906,#907);
#783=AXIS2_PLACEMENT_3D('',#1142,#909,#910);
#784=AXIS2_PLACEMENT_3D('',#1146,#912,#913);
#785=AXIS2_PLACEMENT_3D('',#1150,#915,#916);
#786=AXIS2_PLACEMENT_3D('',#1152,#918,#919);
#787=AXIS2_PLACEMENT_3D('',#1154,#921,#922);
#788=AXIS2_PLACEMENT_3D('',#1156,#924,#925);
#789=AXIS2_PLACEMENT_3D('',#1162,#928,#929);
#790=AXIS2_PLACEMENT_3D('',#1164,#930,#931);
#791=AXIS2_PLACEMENT_3D('',#1166,#932,#933);
#792=AXIS2_PLACEMENT_3D('',#1178,#939,#940);
#793=AXIS2_PLACEMENT_3D('',#1180,#941,#942);
#794=AXIS2_PLACEMENT_3D('',#1182,#943,#944);
#795=AXIS2_PLACEMENT_3D('',#1186,#947,#948);
#796=AXIS2_PLACEMENT_3D('',#1189,#951,#952);
#797=AXIS2_PLACEMENT_3D('',#1191,#954,#955);
#798=AXIS2_PLACEMENT_3D('',#1194,#958,#959);
#799=AXIS2_PLACEMENT_3D('',#1196,#961,#962);
#800=AXIS2_PLACEMENT_3D('',#1198,#964,#965);
#801=AXIS2_PLACEMENT_3D('',#1201,#968,#969);
#802=AXIS2_PLACEMENT_3D('',#1203,#970,#971);
#803=AXIS2_PLACEMENT_3D('',#1207,#973,#974);
#804=AXIS2_PLACEMENT_3D('',#1211,#976,#977);
#805=AXIS2_PLACEMENT_3D('',#1214,#979,#980);
#806=AXIS2_PLACEMENT_3D('',#1216,#981,#982);
#807=AXIS2_PLACEMENT_3D('',#1220,#984,#985);
#808=AXIS2_PLACEMENT_3D('',#1224,#987,#988);
#809=AXIS2_PLACEMENT_3D('',#1227,#990,#991);
#810=AXIS2_PLACEMENT_3D('',#1229,#993,#994);
#811=AXIS2_PLACEMENT_3D('',#1231,#996,#997);
#812=AXIS2_PLACEMENT_3D('',#1233,#999,#1000);
#813=AXIS2_PLACEMENT_3D('',#1234,#1001,#1002);
#814=AXIS2_PLACEMENT_3D('',#1235,#1003,#1004);
#815=AXIS2_PLACEMENT_3D('',#1236,#1005,#1006);
#816=AXIS2_PLACEMENT_3D('',#1239,#1009,#1010);
#817=AXIS2_PLACEMENT_3D('',#1241,#1012,#1013);
#818=AXIS2_PLACEMENT_3D('',#1243,#1015,#1016);
#819=AXIS2_PLACEMENT_3D('',#1245,#1018,#1019);
#820=AXIS2_PLACEMENT_3D('',#1247,#1021,#1022);
#821=AXIS2_PLACEMENT_3D('',#1248,#1023,#1024);
#822=AXIS2_PLACEMENT_3D('',#1249,#1025,#1026);
#823=AXIS2_PLACEMENT_3D('',#1252,#1029,#1030);
#824=AXIS2_PLACEMENT_3D('',#1254,#1032,#1033);
#825=AXIS2_PLACEMENT_3D('',#1256,#1035,#1036);
#826=AXIS2_PLACEMENT_3D('',#1258,#1038,#1039);
#827=AXIS2_PLACEMENT_3D('',#1260,#1041,#1042);
#828=AXIS2_PLACEMENT_3D('',#1261,#1043,#1044);
#829=DIRECTION('axis',(0.,0.,1.));
#830=DIRECTION('refdir',(1.,0.,0.));
#831=DIRECTION('center_axis',(-0.707106781186679,-7.21171076823123E-15,
-0.707106781186416));
#832=DIRECTION('ref_axis',(-0.707106781186416,0.,0.707106781186679));
#833=DIRECTION('',(-0.707106781186416,4.58910421964615E-15,0.707106781186679));
#834=DIRECTION('',(0.,1.,-1.01988991763466E-14));
#835=DIRECTION('',(0.707106781186416,-4.58910421964615E-15,-0.707106781186679));
#836=DIRECTION('',(0.,-1.,1.01988991763466E-14));
#837=DIRECTION('center_axis',(0.,1.,-6.48997342656598E-15));
#838=DIRECTION('ref_axis',(0.,6.48997342656598E-15,1.));
#839=DIRECTION('',(1.,0.,0.));
#840=DIRECTION('',(-0.707106781186547,-4.5891042196453E-15,-0.707106781186549));
#841=DIRECTION('',(0.,-6.48997342656598E-15,-1.));
#842=DIRECTION('center_axis',(0.,1.,-6.48997342656598E-15));
#843=DIRECTION('ref_axis',(-1.,0.,0.));
#844=DIRECTION('',(-1.,0.,0.));
#845=DIRECTION('',(0.,6.48997342656598E-15,1.));
#846=DIRECTION('',(1.,0.,0.));
#847=DIRECTION('center_axis',(0.,1.,-6.48997342656598E-15));
#848=DIRECTION('ref_axis',(-0.500000246062637,0.,0.866025261720062));
#849=DIRECTION('center_axis',(0.,1.,-6.48997342656598E-15));
#850=DIRECTION('ref_axis',(-1.,0.,0.));
#851=DIRECTION('center_axis',(0.,1.,-6.48997342656598E-15));
#852=DIRECTION('ref_axis',(0.86602526172011,0.,-0.500000246062555));
#853=DIRECTION('',(0.,0.,1.));
#854=DIRECTION('',(0.707106781186481,-4.58910421964573E-15,-0.707106781186614));
#855=DIRECTION('',(1.,0.,0.));
#856=DIRECTION('',(0.707106781186481,4.58910421964573E-15,0.707106781186614));
#857=DIRECTION('',(0.,0.,1.));
#858=DIRECTION('center_axis',(0.,1.,-6.48997342656598E-15));
#859=DIRECTION('ref_axis',(-0.86602526172011,0.,-0.500000246062555));
#860=DIRECTION('center_axis',(0.,1.,-6.48997342656598E-15));
#861=DIRECTION('ref_axis',(-1.,0.,0.));
#862=DIRECTION('center_axis',(0.,1.,-6.48997342656598E-15));
#863=DIRECTION('ref_axis',(0.500000246062637,0.,0.866025261720062));
#864=DIRECTION('',(1.,0.,0.));
#865=DIRECTION('',(0.,-6.48997342656598E-15,-1.));
#866=DIRECTION('',(-1.,0.,0.));
#867=DIRECTION('center_axis',(0.,1.,-6.48997342656598E-15));
#868=DIRECTION('ref_axis',(-1.,0.,0.));
#869=DIRECTION('',(0.,6.48997342656598E-15,1.));
#870=DIRECTION('center_axis',(0.,1.01988991763466E-14,1.));
#871=DIRECTION('ref_axis',(0.,1.,-1.01988991763466E-14));
#872=DIRECTION('',(-1.,0.,0.));
#873=DIRECTION('',(0.,1.,-1.01988991763466E-14));
#874=DIRECTION('center_axis',(0.707106781186549,-7.21171076823257E-15,-0.707106781186547));
#875=DIRECTION('ref_axis',(-0.707106781186547,0.,-0.707106781186549));
#876=DIRECTION('',(0.707106781186547,4.5891042196453E-15,0.707106781186549));
#877=DIRECTION('',(0.,-1.,1.01988991763466E-14));
#878=DIRECTION('center_axis',(0.,1.,-6.48997342656598E-15));
#879=DIRECTION('ref_axis',(0.707106781186535,4.58910421964538E-15,0.70710678118656));
#880=DIRECTION('center_axis',(0.,0.168030974324044,0.985781716034393));
#881=DIRECTION('ref_axis',(0.,-0.985781716034393,0.168030974324044));
#882=DIRECTION('center_axis',(0.,-1.,6.48997342656598E-15));
#883=DIRECTION('ref_axis',(-1.,0.,0.));
#884=DIRECTION('',(0.,1.,-6.48997342656598E-15));
#885=DIRECTION('center_axis',(0.,1.,-6.48997342656598E-15));
#886=DIRECTION('ref_axis',(-0.707106781186534,4.58910421964538E-15,0.707106781186561));
#887=DIRECTION('center_axis',(0.,0.168030974324044,0.985781716034393));
#888=DIRECTION('ref_axis',(0.,-0.985781716034393,0.168030974324044));
#889=DIRECTION('',(0.,-1.,6.48997342656598E-15));
#890=DIRECTION('center_axis',(0.,-1.,6.48997342656598E-15));
#891=DIRECTION('ref_axis',(-1.,0.,0.));
#892=DIRECTION('center_axis',(0.,-0.168030974324044,-0.985781716034393));
#893=DIRECTION('ref_axis',(0.,0.985781716034393,-0.168030974324044));
#894=DIRECTION('center_axis',(0.,0.168030974324044,0.985781716034393));
#895=DIRECTION('ref_axis',(0.,0.985781716034393,-0.168030974324044));
#896=DIRECTION('',(0.,-0.985781716034393,0.168030974324044));
#897=DIRECTION('center_axis',(0.,0.168030974324044,0.985781716034393));
#898=DIRECTION('ref_axis',(0.,-0.985781716034393,0.168030974324044));
#899=DIRECTION('',(1.,0.,0.));
#900=DIRECTION('center_axis',(0.,0.168030974324044,0.985781716034393));
#901=DIRECTION('ref_axis',(0.,-0.985781716034393,0.168030974324044));
#902=DIRECTION('',(0.,0.985781716034393,-0.168030974324044));
#903=DIRECTION('center_axis',(0.,0.168030974324044,0.985781716034393));
#904=DIRECTION('ref_axis',(0.,0.985781716034393,-0.168030974324044));
#905=DIRECTION('',(1.,0.,0.));
#906=DIRECTION('center_axis',(0.,0.168030974324044,0.985781716034393));
#907=DIRECTION('ref_axis',(0.,0.985781716034393,-0.168030974324044));
#908=DIRECTION('',(0.,0.985781716034393,-0.168030974324044));
#909=DIRECTION('center_axis',(0.,0.168030974324044,0.985781716034393));
#910=DIRECTION('ref_axis',(0.,-0.985781716034393,0.168030974324044));
#911=DIRECTION('',(1.,0.,0.));
#912=DIRECTION('center_axis',(0.,0.168030974324044,0.985781716034393));
#913=DIRECTION('ref_axis',(0.,-0.985781716034393,0.168030974324044));
#914=DIRECTION('',(0.,-0.985781716034393,0.168030974324044));
#915=DIRECTION('center_axis',(0.,0.168030974324044,0.985781716034393));
#916=DIRECTION('ref_axis',(0.,0.985781716034393,-0.168030974324044));
#917=DIRECTION('',(1.,0.,0.));
#918=DIRECTION('center_axis',(-1.,0.,0.));
#919=DIRECTION('ref_axis',(0.,0.985781716034393,-0.168030974324044));
#920=DIRECTION('',(0.,6.48997342656598E-15,1.));
#921=DIRECTION('center_axis',(1.,0.,0.));
#922=DIRECTION('ref_axis',(0.,-0.985781716034393,0.168030974324044));
#923=DIRECTION('',(0.,-6.48997342656598E-15,-1.));
#924=DIRECTION('center_axis',(0.,1.,-6.48997342656598E-15));
#925=DIRECTION('ref_axis',(0.,6.48997342656598E-15,1.));
#926=DIRECTION('',(0.,-6.48997342656598E-15,-1.));
#927=DIRECTION('',(1.,0.,0.));
#928=DIRECTION('center_axis',(0.,-1.,6.48997342656598E-15));
#929=DIRECTION('ref_axis',(0.500000246062637,0.,0.866025261720062));
#930=DIRECTION('center_axis',(0.,-1.,6.48997342656598E-15));
#931=DIRECTION('ref_axis',(-1.,0.,0.));
#932=DIRECTION('center_axis',(0.,-1.,6.48997342656598E-15));
#933=DIRECTION('ref_axis',(-0.86602526172011,0.,-0.500000246062555));
#934=DIRECTION('',(0.,0.,1.));
#935=DIRECTION('',(-0.707106781186481,-4.58910421964573E-15,-0.707106781186614));
#936=DIRECTION('',(-1.,0.,0.));
#937=DIRECTION('',(-0.707106781186481,4.58910421964573E-15,0.707106781186614));
#938=DIRECTION('',(0.,0.,1.));
#939=DIRECTION('center_axis',(0.,-1.,6.48997342656598E-15));
#940=DIRECTION('ref_axis',(0.86602526172011,0.,-0.500000246062555));
#941=DIRECTION('center_axis',(0.,-1.,6.48997342656598E-15));
#942=DIRECTION('ref_axis',(-1.,0.,0.));
#943=DIRECTION('center_axis',(0.,-1.,6.48997342656598E-15));
#944=DIRECTION('ref_axis',(-0.500000246062637,0.,0.866025261720062));
#945=DIRECTION('',(1.,0.,0.));
#946=DIRECTION('',(0.,6.48997342656598E-15,1.));
#947=DIRECTION('center_axis',(0.707106781186614,0.,0.707106781186481));
#948=DIRECTION('ref_axis',(0.707106781186481,0.,-0.707106781186614));
#949=DIRECTION('',(0.,-1.,0.));
#950=DIRECTION('',(0.,1.,0.));
#951=DIRECTION('center_axis',(1.,0.,0.));
#952=DIRECTION('ref_axis',(0.,1.,4.41696686133506E-16));
#953=DIRECTION('',(0.,-1.,0.));
#954=DIRECTION('center_axis',(-0.707106781186614,0.,0.707106781186481));
#955=DIRECTION('ref_axis',(0.707106781186481,0.,0.707106781186614));
#956=DIRECTION('',(0.,1.,0.));
#957=DIRECTION('',(0.,-1.,0.));
#958=DIRECTION('center_axis',(-1.,0.,0.));
#959=DIRECTION('ref_axis',(0.,-1.,-4.41696686133506E-16));
#960=DIRECTION('',(0.,1.,0.));
#961=DIRECTION('center_axis',(0.,-1.,0.));
#962=DIRECTION('ref_axis',(-0.86602526172011,0.,-0.500000246062555));
#963=DIRECTION('',(0.,-1.,0.));
#964=DIRECTION('center_axis',(0.,1.,0.));
#965=DIRECTION('ref_axis',(0.500000246062637,0.,0.866025261720062));
#966=DIRECTION('',(0.,-1.,-4.41696686133506E-16));
#967=DIRECTION('',(0.,1.,0.));
#968=DIRECTION('center_axis',(0.,-4.41696686133506E-16,1.));
#969=DIRECTION('ref_axis',(0.,-1.,-4.41696686133506E-16));
#970=DIRECTION('center_axis',(0.,4.41696686133506E-16,-1.));
#971=DIRECTION('ref_axis',(0.707106781186548,0.707106781186548,0.));
#972=DIRECTION('',(0.,-1.,-4.41696686133506E-16));
#973=DIRECTION('center_axis',(0.,4.41696686133506E-16,-1.));
#974=DIRECTION('ref_axis',(0.707106781186548,-0.707106781186548,0.));
#975=DIRECTION('',(-1.,0.,0.));
#976=DIRECTION('center_axis',(0.,4.41696686133506E-16,-1.));
#977=DIRECTION('ref_axis',(-0.707106781186548,-0.707106781186548,0.));
#978=DIRECTION('',(0.,1.,4.41696686133506E-16));
#979=DIRECTION('center_axis',(0.,4.41696686133506E-16,-1.));
#980=DIRECTION('ref_axis',(-0.707106781186548,0.707106781186548,0.));
#981=DIRECTION('center_axis',(0.,4.41696686133506E-16,-1.));
#982=DIRECTION('ref_axis',(-0.707106781186547,0.707106781186547,0.));
#983=DIRECTION('',(0.,1.,4.41696686133506E-16));
#984=DIRECTION('center_axis',(0.,4.41696686133506E-16,-1.));
#985=DIRECTION('ref_axis',(-0.707106781186547,-0.707106781186547,0.));
#986=DIRECTION('',(-1.,0.,0.));
#987=DIRECTION('center_axis',(0.,4.41696686133506E-16,-1.));
#988=DIRECTION('ref_axis',(0.707106781186547,-0.707106781186547,0.));
#989=DIRECTION('',(0.,-1.,-4.41696686133506E-16));
#990=DIRECTION('center_axis',(0.,4.41696686133506E-16,-1.));
#991=DIRECTION('ref_axis',(0.707106781186547,0.707106781186547,0.));
#992=DIRECTION('',(0.,1.,4.41696686133506E-16));
#993=DIRECTION('center_axis',(0.,-1.,0.));
#994=DIRECTION('ref_axis',(-0.500000246062637,0.,0.866025261720062));
#995=DIRECTION('',(0.,-1.,0.));
#996=DIRECTION('center_axis',(0.,1.,0.));
#997=DIRECTION('ref_axis',(0.86602526172011,0.,-0.500000246062555));
#998=DIRECTION('',(0.,1.,0.));
#999=DIRECTION('center_axis',(0.,-1.,0.));
#1000=DIRECTION('ref_axis',(-1.,0.,0.));
#1001=DIRECTION('center_axis',(0.,-1.,0.));
#1002=DIRECTION('ref_axis',(0.707106781186472,0.,-0.707106781186623));
#1003=DIRECTION('center_axis',(0.,0.,1.));
#1004=DIRECTION('ref_axis',(1.,0.,0.));
#1005=DIRECTION('center_axis',(0.,0.,1.));
#1006=DIRECTION('ref_axis',(-0.707106781186548,-0.707106781186548,0.));
#1007=DIRECTION('',(0.,0.,1.));
#1008=DIRECTION('',(0.,0.,-1.));
#1009=DIRECTION('center_axis',(0.,-1.,0.));
#1010=DIRECTION('ref_axis',(0.,0.,-1.));
#1011=DIRECTION('',(0.,0.,-1.));
#1012=DIRECTION('center_axis',(0.,0.,-1.));
#1013=DIRECTION('ref_axis',(0.707106781186548,-0.707106781186548,0.));
#1014=DIRECTION('',(0.,0.,1.));
#1015=DIRECTION('center_axis',(0.,-6.48997342656598E-15,-1.));
#1016=DIRECTION('ref_axis',(-0.707106781186548,0.707106781186548,0.));
#1017=DIRECTION('',(0.,6.48997342656598E-15,1.));
#1018=DIRECTION('center_axis',(0.,6.48997342656598E-15,1.));
#1019=DIRECTION('ref_axis',(0.707106781186548,0.707106781186548,0.));
#1020=DIRECTION('',(0.,-6.48997342656598E-15,-1.));
#1021=DIRECTION('center_axis',(1.,0.,0.));
#1022=DIRECTION('ref_axis',(0.,0.,-1.));
#1023=DIRECTION('center_axis',(-1.,0.,0.));
#1024=DIRECTION('ref_axis',(0.,0.,1.));
#1025=DIRECTION('center_axis',(0.,0.,1.));
#1026=DIRECTION('ref_axis',(-0.707106781186547,-0.707106781186547,0.));
#1027=DIRECTION('',(0.,0.,-1.));
#1028=DIRECTION('',(0.,0.,1.));
#1029=DIRECTION('center_axis',(0.,-1.,0.));
#1030=DIRECTION('ref_axis',(0.,0.,-1.));
#1031=DIRECTION('',(0.,0.,-1.));
#1032=DIRECTION('center_axis',(0.,0.,-1.));
#1033=DIRECTION('ref_axis',(0.707106781186547,-0.707106781186547,0.));
#1034=DIRECTION('',(0.,0.,1.));
#1035=DIRECTION('center_axis',(0.,-6.48997342656598E-15,-1.));
#1036=DIRECTION('ref_axis',(-0.707106781186547,0.707106781186547,0.));
#1037=DIRECTION('',(0.,6.48997342656598E-15,1.));
#1038=DIRECTION('center_axis',(0.,6.48997342656598E-15,1.));
#1039=DIRECTION('ref_axis',(0.707106781186547,0.707106781186547,0.));
#1040=DIRECTION('',(0.,-6.48997342656598E-15,-1.));
#1041=DIRECTION('center_axis',(1.,0.,0.));
#1042=DIRECTION('ref_axis',(0.,0.,-1.));
#1043=DIRECTION('center_axis',(-1.,0.,0.));
#1044=DIRECTION('ref_axis',(0.,0.,1.));
#1045=CARTESIAN_POINT('',(0.,0.,0.));
#1046=CARTESIAN_POINT('Origin',(-0.3675,-2.325,37.0460108093687));
#1047=CARTESIAN_POINT('',(-0.36,-2.32499999999999,37.0385108093687));
#1048=CARTESIAN_POINT('',(-0.375,-2.32499999999999,37.0535108093687));
#1049=CARTESIAN_POINT('',(-0.289624337670654,-2.32499999999999,36.9681351470393));
#1050=CARTESIAN_POINT('',(-0.375,-2.24999999999999,37.0535108093687));
#1051=CARTESIAN_POINT('',(-0.375,-2.325,37.0535108093687));
#1052=CARTESIAN_POINT('',(-0.36,-2.24999999999999,37.0385108093687));
#1053=CARTESIAN_POINT('',(-0.289624337670654,-2.24999999999999,36.9681351470393));
#1054=CARTESIAN_POINT('',(-0.36,-2.325,37.0385108093687));
#1055=CARTESIAN_POINT('Origin',(0.,-2.32499999999999,37.1020081600511));
#1056=CARTESIAN_POINT('',(0.36,-2.32499999999999,37.0385108093687));
#1057=CARTESIAN_POINT('',(0.,-2.32499999999999,37.0385108093687));
#1058=CARTESIAN_POINT('',(0.375,-2.32499999999999,37.0535108093687));
#1059=CARTESIAN_POINT('',(0.28962433767062,-2.32499999999999,36.9681351470393));
#1060=CARTESIAN_POINT('',(0.375,-2.32499999999999,37.0820081600511));
#1061=CARTESIAN_POINT('',(0.375,-2.32499999999999,37.1084002055057));
#1062=CARTESIAN_POINT('',(0.39038073534094,-2.32499999999999,37.1147922509602));
#1063=CARTESIAN_POINT('Origin',(0.375,-2.32499999999999,37.1020081600511));
#1064=CARTESIAN_POINT('',(0.6,-2.32499999999999,37.1147922509602));
#1065=CARTESIAN_POINT('',(0.,-2.32499999999999,37.1147922509602));
#1066=CARTESIAN_POINT('',(0.6,-2.32499999999997,41.1968503937008));
#1067=CARTESIAN_POINT('',(0.6,-2.32499999999999,38.1257187184635));
#1068=CARTESIAN_POINT('',(0.409641061612022,-2.32499999999997,41.1968503937008));
#1069=CARTESIAN_POINT('',(0.,-2.32499999999997,41.1968503937008));
#1070=CARTESIAN_POINT('',(0.392320547853763,-2.32499999999999,41.1868503838583));
#1071=CARTESIAN_POINT('Origin',(0.409641061612022,-2.32499999999999,41.1768503937008));
#1072=CARTESIAN_POINT('',(0.36499999015749,-2.32499999999999,41.2141709415545));
#1073=CARTESIAN_POINT('Origin',(0.375,-2.32499999999999,41.1968503937008));
#1074=CARTESIAN_POINT('',(0.375,-2.32499999999997,41.2314914553128));
#1075=CARTESIAN_POINT('Origin',(0.355,-2.32499999999999,41.2314914553128));
#1076=CARTESIAN_POINT('',(0.375,-2.32499999999997,41.2520472440945));
#1077=CARTESIAN_POINT('',(0.375,-2.32499999999997,41.1968503937008));
#1078=CARTESIAN_POINT('',(0.355,-2.32499999999997,41.2720472440945));
#1079=CARTESIAN_POINT('',(1.31375977101085,-2.32499999999997,40.3132874730834));
#1080=CARTESIAN_POINT('',(-0.355,-2.32499999999997,41.2720472440945));
#1081=CARTESIAN_POINT('',(-0.375,-2.32499999999997,41.2720472440945));
#1082=CARTESIAN_POINT('',(-0.375,-2.32499999999997,41.2520472440945));
#1083=CARTESIAN_POINT('',(-1.31375977101085,-2.32499999999997,40.3132874730834));
#1084=CARTESIAN_POINT('',(-0.375,-2.32499999999997,41.2314914553128));
#1085=CARTESIAN_POINT('',(-0.375,-2.32499999999997,41.1968503937008));
#1086=CARTESIAN_POINT('',(-0.36499999015749,-2.32499999999999,41.2141709415545));
#1087=CARTESIAN_POINT('Origin',(-0.355,-2.32499999999999,41.2314914553128));
#1088=CARTESIAN_POINT('',(-0.392320547853763,-2.32499999999999,41.1868503838583));
#1089=CARTESIAN_POINT('Origin',(-0.375,-2.32499999999999,41.1968503937008));
#1090=CARTESIAN_POINT('',(-0.409641061612022,-2.32499999999997,41.1968503937008));
#1091=CARTESIAN_POINT('Origin',(-0.409641061612022,-2.32499999999999,41.1768503937008));
#1092=CARTESIAN_POINT('',(-0.6,-2.32499999999997,41.1968503937008));
#1093=CARTESIAN_POINT('',(0.,-2.32499999999997,41.1968503937008));
#1094=CARTESIAN_POINT('',(-0.6,-2.32499999999999,37.1147922509602));
#1095=CARTESIAN_POINT('',(-0.6,-2.32499999999999,38.1257187184635));
#1096=CARTESIAN_POINT('',(-0.39038073534094,-2.32499999999999,37.1147922509602));
#1097=CARTESIAN_POINT('',(0.,-2.32499999999999,37.1147922509602));
#1098=CARTESIAN_POINT('',(-0.375,-2.32499999999999,37.0820081600511));
#1099=CARTESIAN_POINT('Origin',(-0.375,-2.32499999999999,37.1020081600511));
#1100=CARTESIAN_POINT('',(-0.375,-2.32499999999999,37.1147922509602));
#1101=CARTESIAN_POINT('Origin',(-0.375,-2.32499999999999,37.0385108093687));
#1102=CARTESIAN_POINT('',(0.36,-2.24999999999999,37.0385108093687));
#1103=CARTESIAN_POINT('',(-0.1875,-2.24999999999999,37.0385108093687));
#1104=CARTESIAN_POINT('',(0.36,-2.2875,37.0385108093687));
#1105=CARTESIAN_POINT('Origin',(0.3675,-2.2875,37.0460108093687));
#1106=CARTESIAN_POINT('',(0.375,-2.24999999999999,37.0535108093687));
#1107=CARTESIAN_POINT('',(0.28962433767062,-2.24999999999999,36.9681351470393));
#1108=CARTESIAN_POINT('',(0.375,-2.2875,37.0535108093687));
#1109=CARTESIAN_POINT('Origin',(-0.375,-2.99999999999999,37.1020081600511));
#1110=CARTESIAN_POINT('',(-0.395,-2.24999999999999,37.1020081600511));
#1111=CARTESIAN_POINT('Origin',(-0.375,-2.24999999999998,37.1020081600511));
#1112=CARTESIAN_POINT('',(-0.375,-2.24999999999999,37.0820081600511));
#1113=CARTESIAN_POINT('Origin',(-0.375,-2.24999999999999,37.1020081600511));
#1114=CARTESIAN_POINT('',(-0.375,-2.99999999999999,37.0820081600511));
#1115=CARTESIAN_POINT('Origin',(0.375,-2.99999999999999,37.1020081600511));
#1116=CARTESIAN_POINT('',(0.395,-2.24999999999999,37.1020081600511));
#1117=CARTESIAN_POINT('Origin',(0.375,-2.24999999999998,37.1020081600511));
#1118=CARTESIAN_POINT('',(0.375,-2.24999999999999,37.0820081600511));
#1119=CARTESIAN_POINT('',(0.375,-2.99999999999999,37.0820081600511));
#1120=CARTESIAN_POINT('Origin',(0.375,-2.24999999999999,37.1020081600511));
#1121=CARTESIAN_POINT('Origin',(0.,-3.74999999999999,37.3576899782329));
#1122=CARTESIAN_POINT('',(-0.675,-2.39999999999999,37.1275763418693));
#1123=CARTESIAN_POINT('Origin',(-0.6,-2.39999999999999,37.1275763418693));
#1124=CARTESIAN_POINT('',(-0.675,-3.59999999999999,37.3321217964148));
#1125=CARTESIAN_POINT('',(-0.675,-3.53398142014108,37.3208686293934));
#1126=CARTESIAN_POINT('',(-0.6,-3.67499999999999,37.3449058873239));
#1127=CARTESIAN_POINT('Origin',(-0.6,-3.59999999999999,37.3321217964148));
#1128=CARTESIAN_POINT('',(0.6,-3.67499999999999,37.3449058873239));
#1129=CARTESIAN_POINT('',(0.,-3.67499999999999,37.3449058873239));
#1130=CARTESIAN_POINT('',(0.675,-3.59999999999999,37.3321217964148));
#1131=CARTESIAN_POINT('Origin',(0.6,-3.59999999999999,37.3321217964148));
#1132=CARTESIAN_POINT('',(0.675,-2.39999999999999,37.1275763418693));
#1133=CARTESIAN_POINT('',(0.675,-3.53398142014108,37.3208686293934));
#1134=CARTESIAN_POINT('Origin',(0.6,-2.39999999999999,37.1275763418693));
#1135=CARTESIAN_POINT('',(0.6,-2.24999999999999,37.1020081600511));
#1136=CARTESIAN_POINT('',(0.,-2.24999999999999,37.1020081600511));
#1137=CARTESIAN_POINT('',(0.75,-2.39999999999999,37.1275763418693));
#1138=CARTESIAN_POINT('Origin',(0.6,-2.39999999999999,37.1275763418693));
#1139=CARTESIAN_POINT('',(0.75,-3.59999999999999,37.3321217964148));
#1140=CARTESIAN_POINT('',(0.75,-22.,40.4684854327784));
#1141=CARTESIAN_POINT('',(0.6,-3.74999999999999,37.357689978233));
#1142=CARTESIAN_POINT('Origin',(0.6,-3.59999999999999,37.3321217964148));
#1143=CARTESIAN_POINT('',(-0.6,-3.74999999999999,37.357689978233));
#1144=CARTESIAN_POINT('',(0.,-3.74999999999999,37.357689978233));
#1145=CARTESIAN_POINT('',(-0.75,-3.59999999999999,37.3321217964148));
#1146=CARTESIAN_POINT('Origin',(-0.6,-3.59999999999999,37.3321217964148));
#1147=CARTESIAN_POINT('',(-0.75,-2.39999999999999,37.1275763418693));
#1148=CARTESIAN_POINT('',(-0.75,-22.,40.4684854327784));
#1149=CARTESIAN_POINT('',(-0.6,-2.24999999999999,37.1020081600511));
#1150=CARTESIAN_POINT('Origin',(-0.6,-2.39999999999999,37.1275763418693));
#1151=CARTESIAN_POINT('',(0.,-2.24999999999999,37.1020081600511));
#1152=CARTESIAN_POINT('Origin',(-0.375,-2.325,37.1147922509602));
#1153=CARTESIAN_POINT('',(-0.375,-2.24999999999999,37.1084002055057));
#1154=CARTESIAN_POINT('Origin',(0.375,-2.25,37.1020081600511));
#1155=CARTESIAN_POINT('',(0.375,-2.24999999999999,37.1020081600511));
#1156=CARTESIAN_POINT('Origin',(0.,-2.24999999999999,37.1020081600511));
#1157=CARTESIAN_POINT('',(-0.6,-2.24999999999997,41.1968503937007));
#1158=CARTESIAN_POINT('',(-0.6,-2.24999999999999,38.1257187184635));
#1159=CARTESIAN_POINT('',(-0.409641061612022,-2.24999999999997,41.1968503937007));
#1160=CARTESIAN_POINT('',(0.,-2.24999999999997,41.1968503937007));
#1161=CARTESIAN_POINT('',(-0.392320547853763,-2.24999999999999,41.1868503838583));
#1162=CARTESIAN_POINT('Origin',(-0.409641061612022,-2.24999999999999,41.1768503937008));
#1163=CARTESIAN_POINT('',(-0.36499999015749,-2.24999999999999,41.2141709415545));
#1164=CARTESIAN_POINT('Origin',(-0.375,-2.24999999999999,41.1968503937008));
#1165=CARTESIAN_POINT('',(-0.375,-2.24999999999997,41.2314914553128));
#1166=CARTESIAN_POINT('Origin',(-0.355,-2.24999999999999,41.2314914553128));
#1167=CARTESIAN_POINT('',(-0.375,-2.24999999999997,41.2520472440945));
#1168=CARTESIAN_POINT('',(-0.375,-2.24999999999997,41.1968503937008));
#1169=CARTESIAN_POINT('',(-0.355,-2.24999999999997,41.2720472440945));
#1170=CARTESIAN_POINT('',(-1.31375977101085,-2.24999999999997,40.3132874730834));
#1171=CARTESIAN_POINT('',(0.355,-2.24999999999997,41.2720472440945));
#1172=CARTESIAN_POINT('',(0.375,-2.24999999999997,41.2720472440945));
#1173=CARTESIAN_POINT('',(0.375,-2.24999999999997,41.2520472440945));
#1174=CARTESIAN_POINT('',(1.31375977101085,-2.24999999999997,40.3132874730834));
#1175=CARTESIAN_POINT('',(0.375,-2.24999999999997,41.2314914553128));
#1176=CARTESIAN_POINT('',(0.375,-2.24999999999997,41.1968503937008));
#1177=CARTESIAN_POINT('',(0.36499999015749,-2.24999999999999,41.2141709415545));
#1178=CARTESIAN_POINT('Origin',(0.355,-2.24999999999999,41.2314914553128));
#1179=CARTESIAN_POINT('',(0.392320547853763,-2.24999999999999,41.1868503838583));
#1180=CARTESIAN_POINT('Origin',(0.375,-2.24999999999999,41.1968503937008));
#1181=CARTESIAN_POINT('',(0.409641061612022,-2.24999999999997,41.1968503937007));
#1182=CARTESIAN_POINT('Origin',(0.409641061612022,-2.24999999999999,41.1768503937008));
#1183=CARTESIAN_POINT('',(0.6,-2.24999999999997,41.1968503937007));
#1184=CARTESIAN_POINT('',(0.,-2.24999999999997,41.1968503937007));
#1185=CARTESIAN_POINT('',(0.6,-2.24999999999999,38.1257187184635));
#1186=CARTESIAN_POINT('Origin',(0.365,-2.30624999999997,41.2620472440945));
#1187=CARTESIAN_POINT('',(0.355,-2.30624999999997,41.2720472440945));
#1188=CARTESIAN_POINT('',(0.375,-2.30624999999997,41.2520472440945));
#1189=CARTESIAN_POINT('Origin',(0.375,-2.32499999999997,41.1968503937008));
#1190=CARTESIAN_POINT('',(0.375,-2.24999999999997,41.2314914553128));
#1191=CARTESIAN_POINT('Origin',(-0.365,-2.26874999999997,41.2620472440945));
#1192=CARTESIAN_POINT('',(-0.355,-2.26874999999997,41.2720472440945));
#1193=CARTESIAN_POINT('',(-0.375,-2.26874999999997,41.2520472440945));
#1194=CARTESIAN_POINT('Origin',(-0.375,-2.24999999999997,41.1968503937008));
#1195=CARTESIAN_POINT('',(-0.375,-2.24999999999997,41.2314914553128));
#1196=CARTESIAN_POINT('Origin',(-0.355,-2.24999999999997,41.2314914553128));
#1197=CARTESIAN_POINT('',(-0.36499999015749,-2.24999999999997,41.2141709415545));
#1198=CARTESIAN_POINT('Origin',(-0.409641061612022,-2.24999999999997,41.1768503937008));
#1199=CARTESIAN_POINT('',(-0.409641061612022,-2.24999999999997,41.1968503937008));
#1200=CARTESIAN_POINT('',(-0.392320547853761,-2.24999999999997,41.1868503838583));
#1201=CARTESIAN_POINT('Origin',(0.,-2.24999999999997,41.1968503937008));
#1202=CARTESIAN_POINT('',(0.675,-2.39999999999997,41.1968503937008));
#1203=CARTESIAN_POINT('Origin',(0.6,-2.39999999999997,41.1968503937008));
#1204=CARTESIAN_POINT('',(0.675,-3.59999999999999,41.1968503937008));
#1205=CARTESIAN_POINT('',(0.675,-2.62499999999997,41.1968503937008));
#1206=CARTESIAN_POINT('',(0.6,-3.67499999999999,41.1968503937008));
#1207=CARTESIAN_POINT('Origin',(0.6,-3.59999999999999,41.1968503937008));
#1208=CARTESIAN_POINT('',(-0.6,-3.67499999999999,41.1968503937008));
#1209=CARTESIAN_POINT('',(0.,-3.67499999999999,41.1968503937008));
#1210=CARTESIAN_POINT('',(-0.675,-3.59999999999999,41.1968503937008));
#1211=CARTESIAN_POINT('Origin',(-0.6,-3.59999999999999,41.1968503937008));
#1212=CARTESIAN_POINT('',(-0.675,-2.39999999999997,41.1968503937008));
#1213=CARTESIAN_POINT('',(-0.675,-2.62499999999997,41.1968503937008));
#1214=CARTESIAN_POINT('Origin',(-0.6,-2.39999999999997,41.1968503937008));
#1215=CARTESIAN_POINT('',(-0.75,-2.39999999999997,41.1968503937008));
#1216=CARTESIAN_POINT('Origin',(-0.6,-2.39999999999997,41.1968503937008));
#1217=CARTESIAN_POINT('',(-0.75,-3.59999999999999,41.1968503937008));
#1218=CARTESIAN_POINT('',(-0.75,54.,41.1968503937008));
#1219=CARTESIAN_POINT('',(-0.6,-3.74999999999999,41.1968503937008));
#1220=CARTESIAN_POINT('Origin',(-0.6,-3.59999999999999,41.1968503937008));
#1221=CARTESIAN_POINT('',(0.6,-3.74999999999999,41.1968503937008));
#1222=CARTESIAN_POINT('',(0.,-3.74999999999999,41.1968503937008));
#1223=CARTESIAN_POINT('',(0.75,-3.59999999999999,41.1968503937008));
#1224=CARTESIAN_POINT('Origin',(0.6,-3.59999999999999,41.1968503937008));
#1225=CARTESIAN_POINT('',(0.75,-2.39999999999997,41.1968503937008));
#1226=CARTESIAN_POINT('',(0.75,54.,41.1968503937008));
#1227=CARTESIAN_POINT('Origin',(0.6,-2.39999999999997,41.1968503937008));
#1228=CARTESIAN_POINT('',(0.409641061612022,-2.24999999999997,41.1968503937008));
#1229=CARTESIAN_POINT('Origin',(0.409641061612022,-2.24999999999997,41.1768503937008));
#1230=CARTESIAN_POINT('',(0.392320547853761,-2.24999999999997,41.1868503838583));
#1231=CARTESIAN_POINT('Origin',(0.355,-2.24999999999997,41.2314914553128));
#1232=CARTESIAN_POINT('',(0.36499999015749,-2.24999999999997,41.2141709415545));
#1233=CARTESIAN_POINT('Origin',(0.375,-2.24999999999997,41.1968503937008));
#1234=CARTESIAN_POINT('Origin',(-0.375,-2.24999999999997,41.1968503937008));
#1235=CARTESIAN_POINT('Origin',(0.,-2.28749999999997,41.2720472440945));
#1236=CARTESIAN_POINT('Origin',(-0.6,-3.59999999999999,40.1731398352884));
#1237=CARTESIAN_POINT('',(-0.6,-3.67499999999999,40.1731398352884));
#1238=CARTESIAN_POINT('',(-0.675,-3.59999999999999,40.1731398352884));
#1239=CARTESIAN_POINT('Origin',(0.,-3.67499999999999,41.1968503937008));
#1240=CARTESIAN_POINT('',(0.6,-3.67499999999999,40.1731398352884));
#1241=CARTESIAN_POINT('Origin',(0.6,-3.59999999999999,40.1731398352884));
#1242=CARTESIAN_POINT('',(0.675,-3.59999999999999,40.1731398352884));
#1243=CARTESIAN_POINT('Origin',(-0.6,-2.39999999999999,38.1257187184635));
#1244=CARTESIAN_POINT('',(-0.675,-2.39999999999999,38.1257187184635));
#1245=CARTESIAN_POINT('Origin',(0.6,-2.39999999999999,38.1257187184635));
#1246=CARTESIAN_POINT('',(0.675,-2.39999999999999,38.1257187184635));
#1247=CARTESIAN_POINT('Origin',(0.675,-2.99999999999998,39.1494292768759));
#1248=CARTESIAN_POINT('Origin',(-0.675,-2.99999999999998,39.1494292768759));
#1249=CARTESIAN_POINT('Origin',(-0.6,-3.59999999999999,40.1731398352884));
#1250=CARTESIAN_POINT('',(-0.75,-3.59999999999999,40.1731398352884));
#1251=CARTESIAN_POINT('',(-0.6,-3.74999999999999,40.1731398352884));
#1252=CARTESIAN_POINT('Origin',(0.,-3.74999999999999,41.1968503937008));
#1253=CARTESIAN_POINT('',(0.6,-3.74999999999999,40.1731398352884));
#1254=CARTESIAN_POINT('Origin',(0.6,-3.59999999999999,40.1731398352884));
#1255=CARTESIAN_POINT('',(0.75,-3.59999999999999,40.1731398352884));
#1256=CARTESIAN_POINT('Origin',(-0.6,-2.39999999999999,38.1257187184635));
#1257=CARTESIAN_POINT('',(-0.75,-2.39999999999999,38.1257187184635));
#1258=CARTESIAN_POINT('Origin',(0.6,-2.39999999999999,38.1257187184635));
#1259=CARTESIAN_POINT('',(0.75,-2.39999999999999,38.1257187184635));
#1260=CARTESIAN_POINT('Origin',(0.75,-2.99999999999998,39.1494292768759));
#1261=CARTESIAN_POINT('Origin',(-0.75,-2.99999999999998,39.1494292768759));
#1262=UNCERTAINTY_MEASURE_WITH_UNIT(LENGTH_MEASURE(0.000393700787401575),
#1268,'DISTANCE_ACCURACY_VALUE',
'Maximum model space distance between geometric entities at asserted c
onnectivities');
#1263=UNCERTAINTY_MEASURE_WITH_UNIT(LENGTH_MEASURE(0.000393700787401575),
#1268,'DISTANCE_ACCURACY_VALUE',
'Maximum model space distance between geometric entities at asserted c
onnectivities');
#1264=(
GEOMETRIC_REPRESENTATION_CONTEXT(3)
GLOBAL_UNCERTAINTY_ASSIGNED_CONTEXT((#1262))
GLOBAL_UNIT_ASSIGNED_CONTEXT((#1268,#1272,#1273))
REPRESENTATION_CONTEXT('','3D')
);
#1265=(
GEOMETRIC_REPRESENTATION_CONTEXT(3)
GLOBAL_UNCERTAINTY_ASSIGNED_CONTEXT((#1263))
GLOBAL_UNIT_ASSIGNED_CONTEXT((#1268,#1272,#1273))
REPRESENTATION_CONTEXT('','3D')
);
#1266=DIMENSIONAL_EXPONENTS(1.,0.,0.,0.,0.,0.,0.);
#1267=DIMENSIONAL_EXPONENTS(0.,1.,0.,0.,0.,0.,0.);
#1268=(
CONVERSION_BASED_UNIT('inch',#1271)
LENGTH_UNIT()
NAMED_UNIT(#1266)
);
#1269=(
LENGTH_UNIT()
NAMED_UNIT(*)
SI_UNIT(.MILLI.,.METRE.)
);
#1270=(
LENGTH_UNIT()
NAMED_UNIT(*)
SI_UNIT(.CENTI.,.METRE.)
);
#1271=LENGTH_MEASURE_WITH_UNIT(LENGTH_MEASURE(25.4),#1269);
#1272=(
NAMED_UNIT(*)
PLANE_ANGLE_UNIT()
SI_UNIT($,.RADIAN.)
);
#1273=(
NAMED_UNIT(*)
SI_UNIT($,.STERADIAN.)
SOLID_ANGLE_UNIT()
);
#1274=SHAPE_DEFINITION_REPRESENTATION(#1275,#1276);
#1275=PRODUCT_DEFINITION_SHAPE('',$,#1278);
#1276=SHAPE_REPRESENTATION('',(#758),#1264);
#1277=PRODUCT_DEFINITION_CONTEXT('part definition',#1282,'design');
#1278=PRODUCT_DEFINITION('CRA-1012','CRA-1012',#1279,#1277);
#1279=PRODUCT_DEFINITION_FORMATION('',$,#1284);
#1280=PRODUCT_RELATED_PRODUCT_CATEGORY('CRA-1012','CRA-1012',(#1284));
#1281=APPLICATION_PROTOCOL_DEFINITION('international standard',
'automotive_design',2009,#1282);
#1282=APPLICATION_CONTEXT(
'Core Data for Automotive Mechanical Design Process');
#1283=PRODUCT_CONTEXT('part definition',#1282,'mechanical');
#1284=PRODUCT('CRA-1012','CRA-1012','Robot Arm Tube 11',(#1283));
#1285=PRESENTATION_STYLE_ASSIGNMENT((#1286));
#1286=SURFACE_STYLE_USAGE(.BOTH.,#1289);
#1287=SURFACE_STYLE_RENDERING_WITH_PROPERTIES($,#1293,(#1288));
#1288=SURFACE_STYLE_TRANSPARENT(0.);
#1289=SURFACE_SIDE_STYLE('',(#1290,#1287));
#1290=SURFACE_STYLE_FILL_AREA(#1291);
#1291=FILL_AREA_STYLE('',(#1292));
#1292=FILL_AREA_STYLE_COLOUR('',#1293);
#1293=COLOUR_RGB('',0.749019607843137,0.749019607843137,0.749019607843137);
ENDSEC;
END-ISO-10303-21;
