ISO-10303-21;
HEADER;
/* Generated by software containing ST-Developer
 * from STEP Tools, Inc. (www.steptools.com) 
 */

FILE_DESCRIPTION(
/* description */ ('Robot Arm Tube 3'),
/* implementation_level */ '2;1');

FILE_NAME(
/* name */ 'CRA-1004.stp',
/* time_stamp */ '2025-12-22T15:25:45-06:00',
/* author */ ('josh'),
/* organization */ (''),
/* preprocessor_version */ 'ST-DEVELOPER v20',
/* originating_system */ 'Autodesk Inventor 2025',
/* authorisation */ '');

FILE_SCHEMA (('AUTOMOTIVE_DESIGN { 1 0 10303 214 3 1 1 }'));
ENDSEC;

DATA;
#10=MECHANICAL_DESIGN_GEOMETRIC_PRESENTATION_REPRESENTATION('',(#13),#1303);
#11=SHAPE_REPRESENTATION_RELATIONSHIP('SRR','None',#1314,#12);
#12=ADVANCED_BREP_SHAPE_REPRESENTATION('',(#14),#1302);
#13=STYLED_ITEM('',(#1323),#14);
#14=MANIFOLD_SOLID_BREP('CRA-1004',#747);
#15=ELLIPSE('',#820,0.0752680227327393,0.075);
#16=ELLIPSE('',#821,0.0760817519538811,0.075);
#17=ELLIPSE('',#824,0.0760817519538811,0.075);
#18=ELLIPSE('',#825,0.0752680227327393,0.075);
#19=ELLIPSE('',#827,0.0760817519538812,0.075);
#20=ELLIPSE('',#828,0.0752680227327393,0.075);
#21=ELLIPSE('',#830,0.0752680227327393,0.075);
#22=ELLIPSE('',#831,0.0760817519538812,0.075);
#23=ELLIPSE('',#835,0.150536045465479,0.15);
#24=ELLIPSE('',#836,0.152163503907762,0.15);
#25=ELLIPSE('',#838,0.150536045465479,0.15);
#26=ELLIPSE('',#839,0.150536045465479,0.15);
#27=ELLIPSE('',#840,0.150536045465479,0.15);
#28=ELLIPSE('',#843,0.152163503907762,0.15);
#29=ELLIPSE('',#845,0.152163503907762,0.15);
#30=ELLIPSE('',#847,0.152163503907762,0.15);
#31=FACE_BOUND('',#93,.T.);
#32=FACE_BOUND('',#108,.T.);
#33=FACE_BOUND('',#117,.T.);
#34=FACE_BOUND('',#125,.T.);
#35=FACE_BOUND('',#127,.T.);
#36=FACE_BOUND('',#133,.T.);
#37=PLANE('',#772);
#38=PLANE('',#800);
#39=PLANE('',#803);
#40=PLANE('',#808);
#41=PLANE('',#809);
#42=PLANE('',#810);
#43=PLANE('',#814);
#44=PLANE('',#818);
#45=PLANE('',#822);
#46=PLANE('',#832);
#47=PLANE('',#833);
#48=PLANE('',#837);
#49=PLANE('',#841);
#50=PLANE('',#848);
#51=PLANE('',#849);
#52=PLANE('',#850);
#53=FACE_OUTER_BOUND('',#91,.T.);
#54=FACE_OUTER_BOUND('',#92,.T.);
#55=FACE_OUTER_BOUND('',#94,.T.);
#56=FACE_OUTER_BOUND('',#95,.T.);
#57=FACE_OUTER_BOUND('',#96,.T.);
#58=FACE_OUTER_BOUND('',#97,.T.);
#59=FACE_OUTER_BOUND('',#98,.T.);
#60=FACE_OUTER_BOUND('',#99,.T.);
#61=FACE_OUTER_BOUND('',#100,.T.);
#62=FACE_OUTER_BOUND('',#101,.T.);
#63=FACE_OUTER_BOUND('',#102,.T.);
#64=FACE_OUTER_BOUND('',#103,.T.);
#65=FACE_OUTER_BOUND('',#104,.T.);
#66=FACE_OUTER_BOUND('',#105,.T.);
#67=FACE_OUTER_BOUND('',#106,.T.);
#68=FACE_OUTER_BOUND('',#107,.T.);
#69=FACE_OUTER_BOUND('',#109,.T.);
#70=FACE_OUTER_BOUND('',#110,.T.);
#71=FACE_OUTER_BOUND('',#111,.T.);
#72=FACE_OUTER_BOUND('',#112,.T.);
#73=FACE_OUTER_BOUND('',#113,.T.);
#74=FACE_OUTER_BOUND('',#114,.T.);
#75=FACE_OUTER_BOUND('',#115,.T.);
#76=FACE_OUTER_BOUND('',#116,.T.);
#77=FACE_OUTER_BOUND('',#118,.T.);
#78=FACE_OUTER_BOUND('',#119,.T.);
#79=FACE_OUTER_BOUND('',#120,.T.);
#80=FACE_OUTER_BOUND('',#121,.T.);
#81=FACE_OUTER_BOUND('',#122,.T.);
#82=FACE_OUTER_BOUND('',#123,.T.);
#83=FACE_OUTER_BOUND('',#124,.T.);
#84=FACE_OUTER_BOUND('',#126,.T.);
#85=FACE_OUTER_BOUND('',#128,.T.);
#86=FACE_OUTER_BOUND('',#129,.T.);
#87=FACE_OUTER_BOUND('',#130,.T.);
#88=FACE_OUTER_BOUND('',#131,.T.);
#89=FACE_OUTER_BOUND('',#132,.T.);
#90=FACE_OUTER_BOUND('',#134,.T.);
#91=EDGE_LOOP('',(#471,#472,#473,#474));
#92=EDGE_LOOP('',(#475,#476,#477,#478));
#93=EDGE_LOOP('',(#479,#480,#481,#482,#483,#484,#485,#486,#487,#488,#489,
#490,#491,#492,#493,#494));
#94=EDGE_LOOP('',(#495,#496,#497,#498));
#95=EDGE_LOOP('',(#499,#500,#501,#502));
#96=EDGE_LOOP('',(#503,#504,#505,#506));
#97=EDGE_LOOP('',(#507,#508,#509,#510));
#98=EDGE_LOOP('',(#511,#512,#513,#514));
#99=EDGE_LOOP('',(#515,#516,#517,#518));
#100=EDGE_LOOP('',(#519,#520,#521,#522));
#101=EDGE_LOOP('',(#523,#524,#525,#526));
#102=EDGE_LOOP('',(#527,#528,#529,#530));
#103=EDGE_LOOP('',(#531,#532,#533,#534));
#104=EDGE_LOOP('',(#535,#536,#537,#538));
#105=EDGE_LOOP('',(#539,#540,#541,#542));
#106=EDGE_LOOP('',(#543,#544,#545,#546));
#107=EDGE_LOOP('',(#547,#548,#549,#550));
#108=EDGE_LOOP('',(#551,#552,#553,#554,#555,#556,#557,#558,#559,#560,#561,
#562,#563,#564,#565,#566));
#109=EDGE_LOOP('',(#567,#568,#569,#570));
#110=EDGE_LOOP('',(#571,#572,#573,#574));
#111=EDGE_LOOP('',(#575,#576,#577,#578));
#112=EDGE_LOOP('',(#579,#580,#581,#582));
#113=EDGE_LOOP('',(#583,#584,#585,#586));
#114=EDGE_LOOP('',(#587,#588,#589,#590));
#115=EDGE_LOOP('',(#591,#592,#593,#594));
#116=EDGE_LOOP('',(#595,#596,#597,#598));
#117=EDGE_LOOP('',(#599,#600,#601,#602));
#118=EDGE_LOOP('',(#603,#604,#605,#606));
#119=EDGE_LOOP('',(#607,#608,#609,#610));
#120=EDGE_LOOP('',(#611,#612,#613,#614));
#121=EDGE_LOOP('',(#615,#616,#617,#618));
#122=EDGE_LOOP('',(#619,#620,#621,#622));
#123=EDGE_LOOP('',(#623,#624,#625,#626));
#124=EDGE_LOOP('',(#627,#628,#629,#630,#631,#632,#633,#634));
#125=EDGE_LOOP('',(#635,#636,#637,#638,#639,#640,#641,#642));
#126=EDGE_LOOP('',(#643,#644,#645,#646));
#127=EDGE_LOOP('',(#647,#648,#649,#650));
#128=EDGE_LOOP('',(#651,#652,#653,#654));
#129=EDGE_LOOP('',(#655,#656,#657,#658));
#130=EDGE_LOOP('',(#659,#660,#661,#662));
#131=EDGE_LOOP('',(#663,#664,#665,#666));
#132=EDGE_LOOP('',(#667,#668,#669,#670,#671,#672,#673,#674));
#133=EDGE_LOOP('',(#675,#676,#677,#678,#679,#680,#681,#682));
#134=EDGE_LOOP('',(#683,#684,#685,#686));
#135=LINE('',#1087,#199);
#136=LINE('',#1090,#200);
#137=LINE('',#1094,#201);
#138=LINE('',#1096,#202);
#139=LINE('',#1098,#203);
#140=LINE('',#1099,#204);
#141=LINE('',#1105,#205);
#142=LINE('',#1113,#206);
#143=LINE('',#1121,#207);
#144=LINE('',#1128,#208);
#145=LINE('',#1132,#209);
#146=LINE('',#1136,#210);
#147=LINE('',#1139,#211);
#148=LINE('',#1142,#212);
#149=LINE('',#1146,#213);
#150=LINE('',#1150,#214);
#151=LINE('',#1155,#215);
#152=LINE('',#1156,#216);
#153=LINE('',#1159,#217);
#154=LINE('',#1163,#218);
#155=LINE('',#1167,#219);
#156=LINE('',#1168,#220);
#157=LINE('',#1171,#221);
#158=LINE('',#1174,#222);
#159=LINE('',#1176,#223);
#160=LINE('',#1180,#224);
#161=LINE('',#1186,#225);
#162=LINE('',#1188,#226);
#163=LINE('',#1190,#227);
#164=LINE('',#1191,#228);
#165=LINE('',#1192,#229);
#166=LINE('',#1193,#230);
#167=LINE('',#1201,#231);
#168=LINE('',#1204,#232);
#169=LINE('',#1207,#233);
#170=LINE('',#1209,#234);
#171=LINE('',#1210,#235);
#172=LINE('',#1216,#236);
#173=LINE('',#1218,#237);
#174=LINE('',#1219,#238);
#175=LINE('',#1225,#239);
#176=LINE('',#1228,#240);
#177=LINE('',#1231,#241);
#178=LINE('',#1233,#242);
#179=LINE('',#1234,#243);
#180=LINE('',#1240,#244);
#181=LINE('',#1246,#245);
#182=LINE('',#1252,#246);
#183=LINE('',#1254,#247);
#184=LINE('',#1255,#248);
#185=LINE('',#1257,#249);
#186=LINE('',#1258,#250);
#187=LINE('',#1264,#251);
#188=LINE('',#1267,#252);
#189=LINE('',#1270,#253);
#190=LINE('',#1274,#254);
#191=LINE('',#1278,#255);
#192=LINE('',#1281,#256);
#193=LINE('',#1282,#257);
#194=LINE('',#1286,#258);
#195=LINE('',#1290,#259);
#196=LINE('',#1293,#260);
#197=LINE('',#1296,#261);
#198=LINE('',#1298,#262);
#199=VECTOR('',#857,0.393700787401575);
#200=VECTOR('',#860,0.393700787401575);
#201=VECTOR('',#863,0.393700787401575);
#202=VECTOR('',#864,0.393700787401575);
#203=VECTOR('',#865,0.393700787401575);
#204=VECTOR('',#866,0.393700787401575);
#205=VECTOR('',#871,0.393700787401575);
#206=VECTOR('',#878,0.393700787401575);
#207=VECTOR('',#885,0.393700787401575);
#208=VECTOR('',#892,0.393700787401575);
#209=VECTOR('',#897,0.393700787401575);
#210=VECTOR('',#902,0.393700787401575);
#211=VECTOR('',#905,0.393700787401575);
#212=VECTOR('',#908,0.393700787401575);
#213=VECTOR('',#913,0.393700787401575);
#214=VECTOR('',#918,0.393700787401575);
#215=VECTOR('',#923,0.393700787401575);
#216=VECTOR('',#924,0.393700787401575);
#217=VECTOR('',#927,0.393700787401575);
#218=VECTOR('',#932,0.393700787401575);
#219=VECTOR('',#937,0.393700787401575);
#220=VECTOR('',#938,0.393700787401575);
#221=VECTOR('',#941,0.393700787401575);
#222=VECTOR('',#944,0.393700787401575);
#223=VECTOR('',#947,0.393700787401575);
#224=VECTOR('',#952,0.393700787401575);
#225=VECTOR('',#959,0.393700787401575);
#226=VECTOR('',#960,0.393700787401575);
#227=VECTOR('',#961,0.393700787401575);
#228=VECTOR('',#962,0.393700787401575);
#229=VECTOR('',#963,0.393700787401575);
#230=VECTOR('',#964,0.393700787401575);
#231=VECTOR('',#973,0.393700787401575);
#232=VECTOR('',#976,0.393700787401575);
#233=VECTOR('',#979,0.393700787401575);
#234=VECTOR('',#980,0.393700787401575);
#235=VECTOR('',#981,0.393700787401575);
#236=VECTOR('',#988,0.393700787401575);
#237=VECTOR('',#991,0.393700787401575);
#238=VECTOR('',#992,0.393700787401575);
#239=VECTOR('',#997,0.393700787401575);
#240=VECTOR('',#1000,0.393700787401575);
#241=VECTOR('',#1003,0.393700787401575);
#242=VECTOR('',#1004,0.393700787401575);
#243=VECTOR('',#1005,0.393700787401575);
#244=VECTOR('',#1012,0.393700787401575);
#245=VECTOR('',#1019,0.393700787401575);
#246=VECTOR('',#1026,0.393700787401575);
#247=VECTOR('',#1029,0.393700787401575);
#248=VECTOR('',#1030,0.393700787401575);
#249=VECTOR('',#1033,0.393700787401575);
#250=VECTOR('',#1034,0.393700787401575);
#251=VECTOR('',#1039,0.393700787401575);
#252=VECTOR('',#1042,0.393700787401575);
#253=VECTOR('',#1045,0.393700787401575);
#254=VECTOR('',#1048,0.393700787401575);
#255=VECTOR('',#1053,0.393700787401575);
#256=VECTOR('',#1056,0.393700787401575);
#257=VECTOR('',#1057,0.393700787401575);
#258=VECTOR('',#1062,0.393700787401575);
#259=VECTOR('',#1067,0.393700787401575);
#260=VECTOR('',#1070,0.393700787401575);
#261=VECTOR('',#1075,0.393700787401575);
#262=VECTOR('',#1078,0.393700787401575);
#263=CIRCLE('',#770,0.02);
#264=CIRCLE('',#771,0.02);
#265=CIRCLE('',#773,0.0200000393700787);
#266=CIRCLE('',#774,0.02);
#267=CIRCLE('',#775,0.02);
#268=CIRCLE('',#776,0.0200000393700787);
#269=CIRCLE('',#777,0.02);
#270=CIRCLE('',#778,0.02);
#271=CIRCLE('',#779,0.0200000393700787);
#272=CIRCLE('',#780,0.02);
#273=CIRCLE('',#781,0.02);
#274=CIRCLE('',#782,0.0200000393700787);
#275=CIRCLE('',#783,0.02);
#276=CIRCLE('',#785,0.0200000393700787);
#277=CIRCLE('',#787,0.02);
#278=CIRCLE('',#789,0.02);
#279=CIRCLE('',#791,0.0200000393700787);
#280=CIRCLE('',#793,0.02);
#281=CIRCLE('',#795,0.02);
#282=CIRCLE('',#797,0.0200000393700787);
#283=CIRCLE('',#799,0.02);
#284=CIRCLE('',#802,0.02);
#285=CIRCLE('',#805,0.02);
#286=CIRCLE('',#807,0.0200000393700787);
#287=CIRCLE('',#812,0.390625);
#288=CIRCLE('',#813,0.390625);
#289=CIRCLE('',#816,0.390625);
#290=CIRCLE('',#817,0.390625);
#291=VERTEX_POINT('',#1083);
#292=VERTEX_POINT('',#1084);
#293=VERTEX_POINT('',#1086);
#294=VERTEX_POINT('',#1088);
#295=VERTEX_POINT('',#1092);
#296=VERTEX_POINT('',#1093);
#297=VERTEX_POINT('',#1095);
#298=VERTEX_POINT('',#1097);
#299=VERTEX_POINT('',#1100);
#300=VERTEX_POINT('',#1102);
#301=VERTEX_POINT('',#1104);
#302=VERTEX_POINT('',#1106);
#303=VERTEX_POINT('',#1108);
#304=VERTEX_POINT('',#1110);
#305=VERTEX_POINT('',#1112);
#306=VERTEX_POINT('',#1114);
#307=VERTEX_POINT('',#1116);
#308=VERTEX_POINT('',#1118);
#309=VERTEX_POINT('',#1120);
#310=VERTEX_POINT('',#1122);
#311=VERTEX_POINT('',#1124);
#312=VERTEX_POINT('',#1126);
#313=VERTEX_POINT('',#1130);
#314=VERTEX_POINT('',#1134);
#315=VERTEX_POINT('',#1138);
#316=VERTEX_POINT('',#1140);
#317=VERTEX_POINT('',#1144);
#318=VERTEX_POINT('',#1148);
#319=VERTEX_POINT('',#1152);
#320=VERTEX_POINT('',#1153);
#321=VERTEX_POINT('',#1158);
#322=VERTEX_POINT('',#1162);
#323=VERTEX_POINT('',#1166);
#324=VERTEX_POINT('',#1170);
#325=VERTEX_POINT('',#1172);
#326=VERTEX_POINT('',#1178);
#327=VERTEX_POINT('',#1184);
#328=VERTEX_POINT('',#1185);
#329=VERTEX_POINT('',#1187);
#330=VERTEX_POINT('',#1189);
#331=VERTEX_POINT('',#1197);
#332=VERTEX_POINT('',#1198);
#333=VERTEX_POINT('',#1200);
#334=VERTEX_POINT('',#1202);
#335=VERTEX_POINT('',#1206);
#336=VERTEX_POINT('',#1208);
#337=VERTEX_POINT('',#1212);
#338=VERTEX_POINT('',#1214);
#339=VERTEX_POINT('',#1221);
#340=VERTEX_POINT('',#1222);
#341=VERTEX_POINT('',#1224);
#342=VERTEX_POINT('',#1226);
#343=VERTEX_POINT('',#1230);
#344=VERTEX_POINT('',#1232);
#345=VERTEX_POINT('',#1236);
#346=VERTEX_POINT('',#1238);
#347=VERTEX_POINT('',#1242);
#348=VERTEX_POINT('',#1244);
#349=VERTEX_POINT('',#1248);
#350=VERTEX_POINT('',#1250);
#351=VERTEX_POINT('',#1260);
#352=VERTEX_POINT('',#1261);
#353=VERTEX_POINT('',#1263);
#354=VERTEX_POINT('',#1265);
#355=VERTEX_POINT('',#1269);
#356=VERTEX_POINT('',#1271);
#357=VERTEX_POINT('',#1273);
#358=VERTEX_POINT('',#1276);
#359=VERTEX_POINT('',#1280);
#360=VERTEX_POINT('',#1284);
#361=VERTEX_POINT('',#1288);
#362=VERTEX_POINT('',#1292);
#363=EDGE_CURVE('',#291,#292,#263,.T.);
#364=EDGE_CURVE('',#292,#293,#135,.T.);
#365=EDGE_CURVE('',#293,#294,#264,.T.);
#366=EDGE_CURVE('',#294,#291,#136,.T.);
#367=EDGE_CURVE('',#295,#296,#137,.T.);
#368=EDGE_CURVE('',#297,#296,#138,.T.);
#369=EDGE_CURVE('',#297,#298,#139,.T.);
#370=EDGE_CURVE('',#295,#298,#140,.T.);
#371=EDGE_CURVE('',#291,#299,#265,.T.);
#372=EDGE_CURVE('',#300,#299,#266,.T.);
#373=EDGE_CURVE('',#300,#301,#141,.T.);
#374=EDGE_CURVE('',#302,#301,#267,.T.);
#375=EDGE_CURVE('',#302,#303,#268,.T.);
#376=EDGE_CURVE('',#304,#303,#269,.T.);
#377=EDGE_CURVE('',#304,#305,#142,.T.);
#378=EDGE_CURVE('',#306,#305,#270,.T.);
#379=EDGE_CURVE('',#306,#307,#271,.T.);
#380=EDGE_CURVE('',#308,#307,#272,.T.);
#381=EDGE_CURVE('',#308,#309,#143,.T.);
#382=EDGE_CURVE('',#310,#309,#273,.T.);
#383=EDGE_CURVE('',#310,#311,#274,.T.);
#384=EDGE_CURVE('',#312,#311,#275,.T.);
#385=EDGE_CURVE('',#312,#292,#144,.T.);
#386=EDGE_CURVE('',#313,#294,#276,.T.);
#387=EDGE_CURVE('',#299,#313,#145,.T.);
#388=EDGE_CURVE('',#313,#314,#277,.T.);
#389=EDGE_CURVE('',#314,#300,#146,.T.);
#390=EDGE_CURVE('',#309,#315,#147,.T.);
#391=EDGE_CURVE('',#315,#316,#278,.T.);
#392=EDGE_CURVE('',#316,#310,#148,.T.);
#393=EDGE_CURVE('',#317,#316,#279,.T.);
#394=EDGE_CURVE('',#311,#317,#149,.T.);
#395=EDGE_CURVE('',#317,#318,#280,.T.);
#396=EDGE_CURVE('',#318,#312,#150,.T.);
#397=EDGE_CURVE('',#319,#320,#281,.T.);
#398=EDGE_CURVE('',#320,#308,#151,.T.);
#399=EDGE_CURVE('',#307,#319,#152,.T.);
#400=EDGE_CURVE('',#321,#306,#153,.T.);
#401=EDGE_CURVE('',#319,#321,#282,.T.);
#402=EDGE_CURVE('',#305,#322,#154,.T.);
#403=EDGE_CURVE('',#322,#321,#283,.T.);
#404=EDGE_CURVE('',#323,#304,#155,.T.);
#405=EDGE_CURVE('',#322,#323,#156,.T.);
#406=EDGE_CURVE('',#301,#324,#157,.T.);
#407=EDGE_CURVE('',#324,#325,#284,.T.);
#408=EDGE_CURVE('',#325,#302,#158,.T.);
#409=EDGE_CURVE('',#324,#314,#159,.T.);
#410=EDGE_CURVE('',#326,#323,#285,.T.);
#411=EDGE_CURVE('',#303,#326,#160,.T.);
#412=EDGE_CURVE('',#326,#325,#286,.T.);
#413=EDGE_CURVE('',#327,#328,#161,.T.);
#414=EDGE_CURVE('',#329,#327,#162,.T.);
#415=EDGE_CURVE('',#330,#329,#163,.T.);
#416=EDGE_CURVE('',#328,#330,#164,.T.);
#417=EDGE_CURVE('',#293,#318,#165,.T.);
#418=EDGE_CURVE('',#315,#320,#166,.T.);
#419=EDGE_CURVE('',#331,#332,#287,.T.);
#420=EDGE_CURVE('',#333,#331,#167,.T.);
#421=EDGE_CURVE('',#334,#333,#288,.T.);
#422=EDGE_CURVE('',#334,#332,#168,.T.);
#423=EDGE_CURVE('',#332,#335,#169,.T.);
#424=EDGE_CURVE('',#336,#334,#170,.T.);
#425=EDGE_CURVE('',#336,#335,#171,.T.);
#426=EDGE_CURVE('',#335,#337,#289,.T.);
#427=EDGE_CURVE('',#338,#336,#290,.T.);
#428=EDGE_CURVE('',#338,#337,#172,.T.);
#429=EDGE_CURVE('',#337,#331,#173,.T.);
#430=EDGE_CURVE('',#333,#338,#174,.T.);
#431=EDGE_CURVE('',#339,#340,#15,.T.);
#432=EDGE_CURVE('',#341,#339,#175,.T.);
#433=EDGE_CURVE('',#342,#341,#16,.T.);
#434=EDGE_CURVE('',#340,#342,#176,.T.);
#435=EDGE_CURVE('',#343,#339,#177,.T.);
#436=EDGE_CURVE('',#343,#344,#178,.T.);
#437=EDGE_CURVE('',#341,#344,#179,.T.);
#438=EDGE_CURVE('',#344,#345,#17,.T.);
#439=EDGE_CURVE('',#346,#343,#18,.T.);
#440=EDGE_CURVE('',#345,#346,#180,.T.);
#441=EDGE_CURVE('',#296,#347,#19,.T.);
#442=EDGE_CURVE('',#348,#295,#20,.T.);
#443=EDGE_CURVE('',#347,#348,#181,.T.);
#444=EDGE_CURVE('',#298,#349,#21,.T.);
#445=EDGE_CURVE('',#350,#297,#22,.T.);
#446=EDGE_CURVE('',#349,#350,#182,.T.);
#447=EDGE_CURVE('',#349,#346,#183,.T.);
#448=EDGE_CURVE('',#345,#350,#184,.T.);
#449=EDGE_CURVE('',#347,#342,#185,.T.);
#450=EDGE_CURVE('',#340,#348,#186,.T.);
#451=EDGE_CURVE('',#351,#352,#23,.T.);
#452=EDGE_CURVE('',#352,#353,#187,.T.);
#453=EDGE_CURVE('',#353,#354,#24,.T.);
#454=EDGE_CURVE('',#354,#351,#188,.T.);
#455=EDGE_CURVE('',#355,#351,#189,.T.);
#456=EDGE_CURVE('',#356,#355,#25,.T.);
#457=EDGE_CURVE('',#357,#356,#190,.T.);
#458=EDGE_CURVE('',#329,#357,#26,.T.);
#459=EDGE_CURVE('',#358,#327,#27,.T.);
#460=EDGE_CURVE('',#352,#358,#191,.T.);
#461=EDGE_CURVE('',#359,#354,#192,.T.);
#462=EDGE_CURVE('',#355,#359,#193,.T.);
#463=EDGE_CURVE('',#359,#360,#28,.T.);
#464=EDGE_CURVE('',#360,#356,#194,.T.);
#465=EDGE_CURVE('',#328,#361,#29,.T.);
#466=EDGE_CURVE('',#361,#358,#195,.T.);
#467=EDGE_CURVE('',#357,#362,#196,.T.);
#468=EDGE_CURVE('',#362,#330,#30,.T.);
#469=EDGE_CURVE('',#360,#362,#197,.T.);
#470=EDGE_CURVE('',#361,#353,#198,.T.);
#471=ORIENTED_EDGE('',*,*,#363,.T.);
#472=ORIENTED_EDGE('',*,*,#364,.T.);
#473=ORIENTED_EDGE('',*,*,#365,.T.);
#474=ORIENTED_EDGE('',*,*,#366,.T.);
#475=ORIENTED_EDGE('',*,*,#367,.T.);
#476=ORIENTED_EDGE('',*,*,#368,.F.);
#477=ORIENTED_EDGE('',*,*,#369,.T.);
#478=ORIENTED_EDGE('',*,*,#370,.F.);
#479=ORIENTED_EDGE('',*,*,#363,.F.);
#480=ORIENTED_EDGE('',*,*,#371,.T.);
#481=ORIENTED_EDGE('',*,*,#372,.F.);
#482=ORIENTED_EDGE('',*,*,#373,.T.);
#483=ORIENTED_EDGE('',*,*,#374,.F.);
#484=ORIENTED_EDGE('',*,*,#375,.T.);
#485=ORIENTED_EDGE('',*,*,#376,.F.);
#486=ORIENTED_EDGE('',*,*,#377,.T.);
#487=ORIENTED_EDGE('',*,*,#378,.F.);
#488=ORIENTED_EDGE('',*,*,#379,.T.);
#489=ORIENTED_EDGE('',*,*,#380,.F.);
#490=ORIENTED_EDGE('',*,*,#381,.T.);
#491=ORIENTED_EDGE('',*,*,#382,.F.);
#492=ORIENTED_EDGE('',*,*,#383,.T.);
#493=ORIENTED_EDGE('',*,*,#384,.F.);
#494=ORIENTED_EDGE('',*,*,#385,.T.);
#495=ORIENTED_EDGE('',*,*,#366,.F.);
#496=ORIENTED_EDGE('',*,*,#386,.F.);
#497=ORIENTED_EDGE('',*,*,#387,.F.);
#498=ORIENTED_EDGE('',*,*,#371,.F.);
#499=ORIENTED_EDGE('',*,*,#388,.T.);
#500=ORIENTED_EDGE('',*,*,#389,.T.);
#501=ORIENTED_EDGE('',*,*,#372,.T.);
#502=ORIENTED_EDGE('',*,*,#387,.T.);
#503=ORIENTED_EDGE('',*,*,#382,.T.);
#504=ORIENTED_EDGE('',*,*,#390,.T.);
#505=ORIENTED_EDGE('',*,*,#391,.T.);
#506=ORIENTED_EDGE('',*,*,#392,.T.);
#507=ORIENTED_EDGE('',*,*,#392,.F.);
#508=ORIENTED_EDGE('',*,*,#393,.F.);
#509=ORIENTED_EDGE('',*,*,#394,.F.);
#510=ORIENTED_EDGE('',*,*,#383,.F.);
#511=ORIENTED_EDGE('',*,*,#395,.T.);
#512=ORIENTED_EDGE('',*,*,#396,.T.);
#513=ORIENTED_EDGE('',*,*,#384,.T.);
#514=ORIENTED_EDGE('',*,*,#394,.T.);
#515=ORIENTED_EDGE('',*,*,#397,.T.);
#516=ORIENTED_EDGE('',*,*,#398,.T.);
#517=ORIENTED_EDGE('',*,*,#380,.T.);
#518=ORIENTED_EDGE('',*,*,#399,.T.);
#519=ORIENTED_EDGE('',*,*,#399,.F.);
#520=ORIENTED_EDGE('',*,*,#379,.F.);
#521=ORIENTED_EDGE('',*,*,#400,.F.);
#522=ORIENTED_EDGE('',*,*,#401,.F.);
#523=ORIENTED_EDGE('',*,*,#378,.T.);
#524=ORIENTED_EDGE('',*,*,#402,.T.);
#525=ORIENTED_EDGE('',*,*,#403,.T.);
#526=ORIENTED_EDGE('',*,*,#400,.T.);
#527=ORIENTED_EDGE('',*,*,#402,.F.);
#528=ORIENTED_EDGE('',*,*,#377,.F.);
#529=ORIENTED_EDGE('',*,*,#404,.F.);
#530=ORIENTED_EDGE('',*,*,#405,.F.);
#531=ORIENTED_EDGE('',*,*,#374,.T.);
#532=ORIENTED_EDGE('',*,*,#406,.T.);
#533=ORIENTED_EDGE('',*,*,#407,.T.);
#534=ORIENTED_EDGE('',*,*,#408,.T.);
#535=ORIENTED_EDGE('',*,*,#389,.F.);
#536=ORIENTED_EDGE('',*,*,#409,.F.);
#537=ORIENTED_EDGE('',*,*,#406,.F.);
#538=ORIENTED_EDGE('',*,*,#373,.F.);
#539=ORIENTED_EDGE('',*,*,#410,.T.);
#540=ORIENTED_EDGE('',*,*,#404,.T.);
#541=ORIENTED_EDGE('',*,*,#376,.T.);
#542=ORIENTED_EDGE('',*,*,#411,.T.);
#543=ORIENTED_EDGE('',*,*,#408,.F.);
#544=ORIENTED_EDGE('',*,*,#412,.F.);
#545=ORIENTED_EDGE('',*,*,#411,.F.);
#546=ORIENTED_EDGE('',*,*,#375,.F.);
#547=ORIENTED_EDGE('',*,*,#413,.F.);
#548=ORIENTED_EDGE('',*,*,#414,.F.);
#549=ORIENTED_EDGE('',*,*,#415,.F.);
#550=ORIENTED_EDGE('',*,*,#416,.F.);
#551=ORIENTED_EDGE('',*,*,#365,.F.);
#552=ORIENTED_EDGE('',*,*,#417,.T.);
#553=ORIENTED_EDGE('',*,*,#395,.F.);
#554=ORIENTED_EDGE('',*,*,#393,.T.);
#555=ORIENTED_EDGE('',*,*,#391,.F.);
#556=ORIENTED_EDGE('',*,*,#418,.T.);
#557=ORIENTED_EDGE('',*,*,#397,.F.);
#558=ORIENTED_EDGE('',*,*,#401,.T.);
#559=ORIENTED_EDGE('',*,*,#403,.F.);
#560=ORIENTED_EDGE('',*,*,#405,.T.);
#561=ORIENTED_EDGE('',*,*,#410,.F.);
#562=ORIENTED_EDGE('',*,*,#412,.T.);
#563=ORIENTED_EDGE('',*,*,#407,.F.);
#564=ORIENTED_EDGE('',*,*,#409,.T.);
#565=ORIENTED_EDGE('',*,*,#388,.F.);
#566=ORIENTED_EDGE('',*,*,#386,.T.);
#567=ORIENTED_EDGE('',*,*,#364,.F.);
#568=ORIENTED_EDGE('',*,*,#385,.F.);
#569=ORIENTED_EDGE('',*,*,#396,.F.);
#570=ORIENTED_EDGE('',*,*,#417,.F.);
#571=ORIENTED_EDGE('',*,*,#390,.F.);
#572=ORIENTED_EDGE('',*,*,#381,.F.);
#573=ORIENTED_EDGE('',*,*,#398,.F.);
#574=ORIENTED_EDGE('',*,*,#418,.F.);
#575=ORIENTED_EDGE('',*,*,#419,.F.);
#576=ORIENTED_EDGE('',*,*,#420,.F.);
#577=ORIENTED_EDGE('',*,*,#421,.F.);
#578=ORIENTED_EDGE('',*,*,#422,.T.);
#579=ORIENTED_EDGE('',*,*,#423,.F.);
#580=ORIENTED_EDGE('',*,*,#422,.F.);
#581=ORIENTED_EDGE('',*,*,#424,.F.);
#582=ORIENTED_EDGE('',*,*,#425,.T.);
#583=ORIENTED_EDGE('',*,*,#426,.F.);
#584=ORIENTED_EDGE('',*,*,#425,.F.);
#585=ORIENTED_EDGE('',*,*,#427,.F.);
#586=ORIENTED_EDGE('',*,*,#428,.T.);
#587=ORIENTED_EDGE('',*,*,#429,.F.);
#588=ORIENTED_EDGE('',*,*,#428,.F.);
#589=ORIENTED_EDGE('',*,*,#430,.F.);
#590=ORIENTED_EDGE('',*,*,#420,.T.);
#591=ORIENTED_EDGE('',*,*,#431,.F.);
#592=ORIENTED_EDGE('',*,*,#432,.F.);
#593=ORIENTED_EDGE('',*,*,#433,.F.);
#594=ORIENTED_EDGE('',*,*,#434,.F.);
#595=ORIENTED_EDGE('',*,*,#432,.T.);
#596=ORIENTED_EDGE('',*,*,#435,.F.);
#597=ORIENTED_EDGE('',*,*,#436,.T.);
#598=ORIENTED_EDGE('',*,*,#437,.F.);
#599=ORIENTED_EDGE('',*,*,#423,.T.);
#600=ORIENTED_EDGE('',*,*,#426,.T.);
#601=ORIENTED_EDGE('',*,*,#429,.T.);
#602=ORIENTED_EDGE('',*,*,#419,.T.);
#603=ORIENTED_EDGE('',*,*,#438,.F.);
#604=ORIENTED_EDGE('',*,*,#436,.F.);
#605=ORIENTED_EDGE('',*,*,#439,.F.);
#606=ORIENTED_EDGE('',*,*,#440,.F.);
#607=ORIENTED_EDGE('',*,*,#441,.F.);
#608=ORIENTED_EDGE('',*,*,#367,.F.);
#609=ORIENTED_EDGE('',*,*,#442,.F.);
#610=ORIENTED_EDGE('',*,*,#443,.F.);
#611=ORIENTED_EDGE('',*,*,#444,.F.);
#612=ORIENTED_EDGE('',*,*,#369,.F.);
#613=ORIENTED_EDGE('',*,*,#445,.F.);
#614=ORIENTED_EDGE('',*,*,#446,.F.);
#615=ORIENTED_EDGE('',*,*,#440,.T.);
#616=ORIENTED_EDGE('',*,*,#447,.F.);
#617=ORIENTED_EDGE('',*,*,#446,.T.);
#618=ORIENTED_EDGE('',*,*,#448,.F.);
#619=ORIENTED_EDGE('',*,*,#434,.T.);
#620=ORIENTED_EDGE('',*,*,#449,.F.);
#621=ORIENTED_EDGE('',*,*,#443,.T.);
#622=ORIENTED_EDGE('',*,*,#450,.F.);
#623=ORIENTED_EDGE('',*,*,#451,.T.);
#624=ORIENTED_EDGE('',*,*,#452,.T.);
#625=ORIENTED_EDGE('',*,*,#453,.T.);
#626=ORIENTED_EDGE('',*,*,#454,.T.);
#627=ORIENTED_EDGE('',*,*,#451,.F.);
#628=ORIENTED_EDGE('',*,*,#455,.F.);
#629=ORIENTED_EDGE('',*,*,#456,.F.);
#630=ORIENTED_EDGE('',*,*,#457,.F.);
#631=ORIENTED_EDGE('',*,*,#458,.F.);
#632=ORIENTED_EDGE('',*,*,#414,.T.);
#633=ORIENTED_EDGE('',*,*,#459,.F.);
#634=ORIENTED_EDGE('',*,*,#460,.F.);
#635=ORIENTED_EDGE('',*,*,#442,.T.);
#636=ORIENTED_EDGE('',*,*,#370,.T.);
#637=ORIENTED_EDGE('',*,*,#444,.T.);
#638=ORIENTED_EDGE('',*,*,#447,.T.);
#639=ORIENTED_EDGE('',*,*,#439,.T.);
#640=ORIENTED_EDGE('',*,*,#435,.T.);
#641=ORIENTED_EDGE('',*,*,#431,.T.);
#642=ORIENTED_EDGE('',*,*,#450,.T.);
#643=ORIENTED_EDGE('',*,*,#454,.F.);
#644=ORIENTED_EDGE('',*,*,#461,.F.);
#645=ORIENTED_EDGE('',*,*,#462,.F.);
#646=ORIENTED_EDGE('',*,*,#455,.T.);
#647=ORIENTED_EDGE('',*,*,#424,.T.);
#648=ORIENTED_EDGE('',*,*,#421,.T.);
#649=ORIENTED_EDGE('',*,*,#430,.T.);
#650=ORIENTED_EDGE('',*,*,#427,.T.);
#651=ORIENTED_EDGE('',*,*,#463,.T.);
#652=ORIENTED_EDGE('',*,*,#464,.T.);
#653=ORIENTED_EDGE('',*,*,#456,.T.);
#654=ORIENTED_EDGE('',*,*,#462,.T.);
#655=ORIENTED_EDGE('',*,*,#465,.T.);
#656=ORIENTED_EDGE('',*,*,#466,.T.);
#657=ORIENTED_EDGE('',*,*,#459,.T.);
#658=ORIENTED_EDGE('',*,*,#413,.T.);
#659=ORIENTED_EDGE('',*,*,#458,.T.);
#660=ORIENTED_EDGE('',*,*,#467,.T.);
#661=ORIENTED_EDGE('',*,*,#468,.T.);
#662=ORIENTED_EDGE('',*,*,#415,.T.);
#663=ORIENTED_EDGE('',*,*,#464,.F.);
#664=ORIENTED_EDGE('',*,*,#469,.T.);
#665=ORIENTED_EDGE('',*,*,#467,.F.);
#666=ORIENTED_EDGE('',*,*,#457,.T.);
#667=ORIENTED_EDGE('',*,*,#453,.F.);
#668=ORIENTED_EDGE('',*,*,#470,.F.);
#669=ORIENTED_EDGE('',*,*,#465,.F.);
#670=ORIENTED_EDGE('',*,*,#416,.T.);
#671=ORIENTED_EDGE('',*,*,#468,.F.);
#672=ORIENTED_EDGE('',*,*,#469,.F.);
#673=ORIENTED_EDGE('',*,*,#463,.F.);
#674=ORIENTED_EDGE('',*,*,#461,.T.);
#675=ORIENTED_EDGE('',*,*,#441,.T.);
#676=ORIENTED_EDGE('',*,*,#449,.T.);
#677=ORIENTED_EDGE('',*,*,#433,.T.);
#678=ORIENTED_EDGE('',*,*,#437,.T.);
#679=ORIENTED_EDGE('',*,*,#438,.T.);
#680=ORIENTED_EDGE('',*,*,#448,.T.);
#681=ORIENTED_EDGE('',*,*,#445,.T.);
#682=ORIENTED_EDGE('',*,*,#368,.T.);
#683=ORIENTED_EDGE('',*,*,#452,.F.);
#684=ORIENTED_EDGE('',*,*,#460,.T.);
#685=ORIENTED_EDGE('',*,*,#466,.F.);
#686=ORIENTED_EDGE('',*,*,#470,.T.);
#687=CYLINDRICAL_SURFACE('',#769,0.02);
#688=CYLINDRICAL_SURFACE('',#784,0.0200000393700787);
#689=CYLINDRICAL_SURFACE('',#786,0.02);
#690=CYLINDRICAL_SURFACE('',#788,0.02);
#691=CYLINDRICAL_SURFACE('',#790,0.0200000393700787);
#692=CYLINDRICAL_SURFACE('',#792,0.02);
#693=CYLINDRICAL_SURFACE('',#794,0.02);
#694=CYLINDRICAL_SURFACE('',#796,0.0200000393700787);
#695=CYLINDRICAL_SURFACE('',#798,0.02);
#696=CYLINDRICAL_SURFACE('',#801,0.02);
#697=CYLINDRICAL_SURFACE('',#804,0.02);
#698=CYLINDRICAL_SURFACE('',#806,0.0200000393700787);
#699=CYLINDRICAL_SURFACE('',#811,0.390625);
#700=CYLINDRICAL_SURFACE('',#815,0.390625);
#701=CYLINDRICAL_SURFACE('',#819,0.075);
#702=CYLINDRICAL_SURFACE('',#823,0.075);
#703=CYLINDRICAL_SURFACE('',#826,0.075);
#704=CYLINDRICAL_SURFACE('',#829,0.075);
#705=CYLINDRICAL_SURFACE('',#834,0.15);
#706=CYLINDRICAL_SURFACE('',#842,0.15);
#707=CYLINDRICAL_SURFACE('',#844,0.15);
#708=CYLINDRICAL_SURFACE('',#846,0.15);
#709=ADVANCED_FACE('',(#53),#687,.T.);
#710=ADVANCED_FACE('',(#54,#31),#37,.F.);
#711=ADVANCED_FACE('',(#55),#688,.F.);
#712=ADVANCED_FACE('',(#56),#689,.T.);
#713=ADVANCED_FACE('',(#57),#690,.T.);
#714=ADVANCED_FACE('',(#58),#691,.F.);
#715=ADVANCED_FACE('',(#59),#692,.T.);
#716=ADVANCED_FACE('',(#60),#693,.T.);
#717=ADVANCED_FACE('',(#61),#694,.F.);
#718=ADVANCED_FACE('',(#62),#695,.T.);
#719=ADVANCED_FACE('',(#63),#38,.F.);
#720=ADVANCED_FACE('',(#64),#696,.T.);
#721=ADVANCED_FACE('',(#65),#39,.F.);
#722=ADVANCED_FACE('',(#66),#697,.T.);
#723=ADVANCED_FACE('',(#67),#698,.F.);
#724=ADVANCED_FACE('',(#68,#32),#40,.T.);
#725=ADVANCED_FACE('',(#69),#41,.F.);
#726=ADVANCED_FACE('',(#70),#42,.F.);
#727=ADVANCED_FACE('',(#71),#699,.F.);
#728=ADVANCED_FACE('',(#72),#43,.F.);
#729=ADVANCED_FACE('',(#73),#700,.F.);
#730=ADVANCED_FACE('',(#74),#44,.F.);
#731=ADVANCED_FACE('',(#75),#701,.F.);
#732=ADVANCED_FACE('',(#76,#33),#45,.F.);
#733=ADVANCED_FACE('',(#77),#702,.F.);
#734=ADVANCED_FACE('',(#78),#703,.F.);
#735=ADVANCED_FACE('',(#79),#704,.F.);
#736=ADVANCED_FACE('',(#80),#46,.F.);
#737=ADVANCED_FACE('',(#81),#47,.F.);
#738=ADVANCED_FACE('',(#82),#705,.T.);
#739=ADVANCED_FACE('',(#83,#34),#48,.T.);
#740=ADVANCED_FACE('',(#84,#35),#49,.T.);
#741=ADVANCED_FACE('',(#85),#706,.T.);
#742=ADVANCED_FACE('',(#86),#707,.T.);
#743=ADVANCED_FACE('',(#87),#708,.T.);
#744=ADVANCED_FACE('',(#88),#50,.T.);
#745=ADVANCED_FACE('',(#89,#36),#51,.T.);
#746=ADVANCED_FACE('',(#90),#52,.T.);
#747=CLOSED_SHELL('',(#709,#710,#711,#712,#713,#714,#715,#716,#717,#718,
#719,#720,#721,#722,#723,#724,#725,#726,#727,#728,#729,#730,#731,#732,#733,
#734,#735,#736,#737,#738,#739,#740,#741,#742,#743,#744,#745,#746));
#748=DERIVED_UNIT_ELEMENT(#750,1.);
#749=DERIVED_UNIT_ELEMENT(#1308,-3.);
#750=(
CONVERSION_BASED_UNIT('gram',#752)
MASS_UNIT()
NAMED_UNIT(#1305)
);
#751=(
MASS_UNIT()
NAMED_UNIT(*)
SI_UNIT(.KILO.,.GRAM.)
);
#752=MASS_MEASURE_WITH_UNIT(MASS_MEASURE(0.001),#751);
#753=DERIVED_UNIT((#748,#749));
#754=MEASURE_REPRESENTATION_ITEM('density measure',
POSITIVE_RATIO_MEASURE(1.),#753);
#755=PROPERTY_DEFINITION_REPRESENTATION(#760,#757);
#756=PROPERTY_DEFINITION_REPRESENTATION(#761,#758);
#757=REPRESENTATION('material name',(#759),#1302);
#758=REPRESENTATION('density',(#754),#1302);
#759=DESCRIPTIVE_REPRESENTATION_ITEM('Generic','Generic');
#760=PROPERTY_DEFINITION('material property','material name',#1316);
#761=PROPERTY_DEFINITION('material property','density of part',#1316);
#762=DATE_TIME_ROLE('creation_date');
#763=APPLIED_DATE_AND_TIME_ASSIGNMENT(#764,#762,(#1316));
#764=DATE_AND_TIME(#765,#766);
#765=CALENDAR_DATE(2025,20,12);
#766=LOCAL_TIME(0,0,0.,#767);
#767=COORDINATED_UNIVERSAL_TIME_OFFSET(0,0,.BEHIND.);
#768=AXIS2_PLACEMENT_3D('',#1081,#851,#852);
#769=AXIS2_PLACEMENT_3D('',#1082,#853,#854);
#770=AXIS2_PLACEMENT_3D('',#1085,#855,#856);
#771=AXIS2_PLACEMENT_3D('',#1089,#858,#859);
#772=AXIS2_PLACEMENT_3D('',#1091,#861,#862);
#773=AXIS2_PLACEMENT_3D('',#1101,#867,#868);
#774=AXIS2_PLACEMENT_3D('',#1103,#869,#870);
#775=AXIS2_PLACEMENT_3D('',#1107,#872,#873);
#776=AXIS2_PLACEMENT_3D('',#1109,#874,#875);
#777=AXIS2_PLACEMENT_3D('',#1111,#876,#877);
#778=AXIS2_PLACEMENT_3D('',#1115,#879,#880);
#779=AXIS2_PLACEMENT_3D('',#1117,#881,#882);
#780=AXIS2_PLACEMENT_3D('',#1119,#883,#884);
#781=AXIS2_PLACEMENT_3D('',#1123,#886,#887);
#782=AXIS2_PLACEMENT_3D('',#1125,#888,#889);
#783=AXIS2_PLACEMENT_3D('',#1127,#890,#891);
#784=AXIS2_PLACEMENT_3D('',#1129,#893,#894);
#785=AXIS2_PLACEMENT_3D('',#1131,#895,#896);
#786=AXIS2_PLACEMENT_3D('',#1133,#898,#899);
#787=AXIS2_PLACEMENT_3D('',#1135,#900,#901);
#788=AXIS2_PLACEMENT_3D('',#1137,#903,#904);
#789=AXIS2_PLACEMENT_3D('',#1141,#906,#907);
#790=AXIS2_PLACEMENT_3D('',#1143,#909,#910);
#791=AXIS2_PLACEMENT_3D('',#1145,#911,#912);
#792=AXIS2_PLACEMENT_3D('',#1147,#914,#915);
#793=AXIS2_PLACEMENT_3D('',#1149,#916,#917);
#794=AXIS2_PLACEMENT_3D('',#1151,#919,#920);
#795=AXIS2_PLACEMENT_3D('',#1154,#921,#922);
#796=AXIS2_PLACEMENT_3D('',#1157,#925,#926);
#797=AXIS2_PLACEMENT_3D('',#1160,#928,#929);
#798=AXIS2_PLACEMENT_3D('',#1161,#930,#931);
#799=AXIS2_PLACEMENT_3D('',#1164,#933,#934);
#800=AXIS2_PLACEMENT_3D('',#1165,#935,#936);
#801=AXIS2_PLACEMENT_3D('',#1169,#939,#940);
#802=AXIS2_PLACEMENT_3D('',#1173,#942,#943);
#803=AXIS2_PLACEMENT_3D('',#1175,#945,#946);
#804=AXIS2_PLACEMENT_3D('',#1177,#948,#949);
#805=AXIS2_PLACEMENT_3D('',#1179,#950,#951);
#806=AXIS2_PLACEMENT_3D('',#1181,#953,#954);
#807=AXIS2_PLACEMENT_3D('',#1182,#955,#956);
#808=AXIS2_PLACEMENT_3D('',#1183,#957,#958);
#809=AXIS2_PLACEMENT_3D('',#1194,#965,#966);
#810=AXIS2_PLACEMENT_3D('',#1195,#967,#968);
#811=AXIS2_PLACEMENT_3D('',#1196,#969,#970);
#812=AXIS2_PLACEMENT_3D('',#1199,#971,#972);
#813=AXIS2_PLACEMENT_3D('',#1203,#974,#975);
#814=AXIS2_PLACEMENT_3D('',#1205,#977,#978);
#815=AXIS2_PLACEMENT_3D('',#1211,#982,#983);
#816=AXIS2_PLACEMENT_3D('',#1213,#984,#985);
#817=AXIS2_PLACEMENT_3D('',#1215,#986,#987);
#818=AXIS2_PLACEMENT_3D('',#1217,#989,#990);
#819=AXIS2_PLACEMENT_3D('',#1220,#993,#994);
#820=AXIS2_PLACEMENT_3D('',#1223,#995,#996);
#821=AXIS2_PLACEMENT_3D('',#1227,#998,#999);
#822=AXIS2_PLACEMENT_3D('',#1229,#1001,#1002);
#823=AXIS2_PLACEMENT_3D('',#1235,#1006,#1007);
#824=AXIS2_PLACEMENT_3D('',#1237,#1008,#1009);
#825=AXIS2_PLACEMENT_3D('',#1239,#1010,#1011);
#826=AXIS2_PLACEMENT_3D('',#1241,#1013,#1014);
#827=AXIS2_PLACEMENT_3D('',#1243,#1015,#1016);
#828=AXIS2_PLACEMENT_3D('',#1245,#1017,#1018);
#829=AXIS2_PLACEMENT_3D('',#1247,#1020,#1021);
#830=AXIS2_PLACEMENT_3D('',#1249,#1022,#1023);
#831=AXIS2_PLACEMENT_3D('',#1251,#1024,#1025);
#832=AXIS2_PLACEMENT_3D('',#1253,#1027,#1028);
#833=AXIS2_PLACEMENT_3D('',#1256,#1031,#1032);
#834=AXIS2_PLACEMENT_3D('',#1259,#1035,#1036);
#835=AXIS2_PLACEMENT_3D('',#1262,#1037,#1038);
#836=AXIS2_PLACEMENT_3D('',#1266,#1040,#1041);
#837=AXIS2_PLACEMENT_3D('',#1268,#1043,#1044);
#838=AXIS2_PLACEMENT_3D('',#1272,#1046,#1047);
#839=AXIS2_PLACEMENT_3D('',#1275,#1049,#1050);
#840=AXIS2_PLACEMENT_3D('',#1277,#1051,#1052);
#841=AXIS2_PLACEMENT_3D('',#1279,#1054,#1055);
#842=AXIS2_PLACEMENT_3D('',#1283,#1058,#1059);
#843=AXIS2_PLACEMENT_3D('',#1285,#1060,#1061);
#844=AXIS2_PLACEMENT_3D('',#1287,#1063,#1064);
#845=AXIS2_PLACEMENT_3D('',#1289,#1065,#1066);
#846=AXIS2_PLACEMENT_3D('',#1291,#1068,#1069);
#847=AXIS2_PLACEMENT_3D('',#1294,#1071,#1072);
#848=AXIS2_PLACEMENT_3D('',#1295,#1073,#1074);
#849=AXIS2_PLACEMENT_3D('',#1297,#1076,#1077);
#850=AXIS2_PLACEMENT_3D('',#1299,#1079,#1080);
#851=DIRECTION('axis',(0.,0.,1.));
#852=DIRECTION('refdir',(1.,0.,0.));
#853=DIRECTION('center_axis',(0.,-0.168030974324044,-0.985781716034393));
#854=DIRECTION('ref_axis',(0.866025261720033,-0.492891100581261,0.0840155285083784));
#855=DIRECTION('center_axis',(0.,0.168030974324044,0.985781716034393));
#856=DIRECTION('ref_axis',(0.866025261720033,-0.492891100581261,0.0840155285083784));
#857=DIRECTION('',(0.,0.168030974324044,0.985781716034393));
#858=DIRECTION('center_axis',(0.,-0.168030974324044,-0.985781716034393));
#859=DIRECTION('ref_axis',(0.866025261720033,-0.492891100581261,0.0840155285083784));
#860=DIRECTION('',(0.,-0.168030974324044,-0.985781716034393));
#861=DIRECTION('center_axis',(0.,0.168030974324044,0.985781716034393));
#862=DIRECTION('ref_axis',(0.,-0.985781716034393,0.168030974324044));
#863=DIRECTION('',(0.,-0.985781716034393,0.168030974324044));
#864=DIRECTION('',(1.,0.,0.));
#865=DIRECTION('',(0.,0.985781716034393,-0.168030974324044));
#866=DIRECTION('',(-1.,0.,0.));
#867=DIRECTION('center_axis',(0.,0.168030974324044,0.985781716034393));
#868=DIRECTION('ref_axis',(1.,0.,0.));
#869=DIRECTION('center_axis',(0.,0.168030974324044,0.985781716034393));
#870=DIRECTION('ref_axis',(-0.500000246062651,0.853711868627541,-0.145519068515988));
#871=DIRECTION('',(1.,0.,0.));
#872=DIRECTION('center_axis',(0.,0.168030974324044,0.985781716034393));
#873=DIRECTION('ref_axis',(0.500000246062649,0.853711868627542,-0.145519068515988));
#874=DIRECTION('center_axis',(0.,0.168030974324044,0.985781716034393));
#875=DIRECTION('ref_axis',(1.,0.,0.));
#876=DIRECTION('center_axis',(0.,0.168030974324044,0.985781716034393));
#877=DIRECTION('ref_axis',(-0.866025261720033,-0.492891100581261,0.0840155285083784));
#878=DIRECTION('',(0.,0.985781716034393,-0.168030974324044));
#879=DIRECTION('center_axis',(0.,0.168030974324044,0.985781716034393));
#880=DIRECTION('ref_axis',(-0.866025261720033,0.492891100581261,-0.0840155285083784));
#881=DIRECTION('center_axis',(0.,0.168030974324044,0.985781716034393));
#882=DIRECTION('ref_axis',(1.,0.,0.));
#883=DIRECTION('center_axis',(0.,0.168030974324044,0.985781716034393));
#884=DIRECTION('ref_axis',(0.500000246062689,-0.853711868627463,0.145519068516315));
#885=DIRECTION('',(-1.,0.,0.));
#886=DIRECTION('center_axis',(0.,0.168030974324044,0.985781716034393));
#887=DIRECTION('ref_axis',(-0.500000246062689,-0.853711868627463,0.145519068516315));
#888=DIRECTION('center_axis',(0.,0.168030974324044,0.985781716034393));
#889=DIRECTION('ref_axis',(1.,0.,0.));
#890=DIRECTION('center_axis',(0.,0.168030974324044,0.985781716034393));
#891=DIRECTION('ref_axis',(0.866025261720033,0.492891100581261,-0.0840155285083784));
#892=DIRECTION('',(0.,-0.985781716034393,0.168030974324044));
#893=DIRECTION('center_axis',(0.,0.168030974324044,0.985781716034393));
#894=DIRECTION('ref_axis',(-0.707106781186593,-0.697052936177586,0.118815841393906));
#895=DIRECTION('center_axis',(0.,-0.168030974324044,-0.985781716034393));
#896=DIRECTION('ref_axis',(1.,0.,0.));
#897=DIRECTION('',(0.,0.168030974324044,0.985781716034393));
#898=DIRECTION('center_axis',(0.,0.168030974324044,0.985781716034393));
#899=DIRECTION('ref_axis',(-0.500000246062651,0.853711868627541,-0.145519068515988));
#900=DIRECTION('center_axis',(0.,-0.168030974324044,-0.985781716034393));
#901=DIRECTION('ref_axis',(-0.500000246062651,0.853711868627541,-0.145519068515988));
#902=DIRECTION('',(0.,-0.168030974324044,-0.985781716034393));
#903=DIRECTION('center_axis',(0.,-0.168030974324044,-0.985781716034393));
#904=DIRECTION('ref_axis',(-0.500000246062689,-0.853711868627463,0.145519068516315));
#905=DIRECTION('',(0.,0.168030974324044,0.985781716034393));
#906=DIRECTION('center_axis',(0.,-0.168030974324044,-0.985781716034393));
#907=DIRECTION('ref_axis',(-0.500000246062689,-0.853711868627463,0.145519068516315));
#908=DIRECTION('',(0.,-0.168030974324044,-0.985781716034393));
#909=DIRECTION('center_axis',(0.,0.168030974324044,0.985781716034393));
#910=DIRECTION('ref_axis',(-0.707106781186549,0.69705293617763,-0.118815841393914));
#911=DIRECTION('center_axis',(0.,-0.168030974324044,-0.985781716034393));
#912=DIRECTION('ref_axis',(1.,0.,0.));
#913=DIRECTION('',(0.,0.168030974324044,0.985781716034393));
#914=DIRECTION('center_axis',(0.,0.168030974324044,0.985781716034393));
#915=DIRECTION('ref_axis',(0.866025261720033,0.492891100581261,-0.0840155285083784));
#916=DIRECTION('center_axis',(0.,-0.168030974324044,-0.985781716034393));
#917=DIRECTION('ref_axis',(0.866025261720033,0.492891100581261,-0.0840155285083784));
#918=DIRECTION('',(0.,-0.168030974324044,-0.985781716034393));
#919=DIRECTION('center_axis',(0.,0.168030974324044,0.985781716034393));
#920=DIRECTION('ref_axis',(0.500000246062689,-0.853711868627463,0.145519068516315));
#921=DIRECTION('center_axis',(0.,-0.168030974324044,-0.985781716034393));
#922=DIRECTION('ref_axis',(0.500000246062689,-0.853711868627463,0.145519068516315));
#923=DIRECTION('',(0.,-0.168030974324044,-0.985781716034393));
#924=DIRECTION('',(0.,0.168030974324044,0.985781716034393));
#925=DIRECTION('center_axis',(0.,0.168030974324044,0.985781716034393));
#926=DIRECTION('ref_axis',(1.,0.,0.));
#927=DIRECTION('',(0.,-0.168030974324044,-0.985781716034393));
#928=DIRECTION('center_axis',(0.,-0.168030974324044,-0.985781716034393));
#929=DIRECTION('ref_axis',(1.,0.,0.));
#930=DIRECTION('center_axis',(0.,-0.168030974324044,-0.985781716034393));
#931=DIRECTION('ref_axis',(-0.866025261720033,0.492891100581261,-0.0840155285083784));
#932=DIRECTION('',(0.,0.168030974324044,0.985781716034393));
#933=DIRECTION('center_axis',(0.,-0.168030974324044,-0.985781716034393));
#934=DIRECTION('ref_axis',(-0.866025261720033,0.492891100581261,-0.0840155285083784));
#935=DIRECTION('center_axis',(1.,0.,0.));
#936=DIRECTION('ref_axis',(0.,0.985781716034393,-0.168030974324044));
#937=DIRECTION('',(0.,-0.168030974324044,-0.985781716034393));
#938=DIRECTION('',(0.,-0.985781716034393,0.168030974324044));
#939=DIRECTION('center_axis',(0.,-0.168030974324044,-0.985781716034393));
#940=DIRECTION('ref_axis',(0.500000246062649,0.853711868627542,-0.145519068515988));
#941=DIRECTION('',(0.,0.168030974324044,0.985781716034393));
#942=DIRECTION('center_axis',(0.,-0.168030974324044,-0.985781716034393));
#943=DIRECTION('ref_axis',(0.500000246062649,0.853711868627542,-0.145519068515988));
#944=DIRECTION('',(0.,-0.168030974324044,-0.985781716034393));
#945=DIRECTION('center_axis',(0.,-0.985781716034393,0.168030974324044));
#946=DIRECTION('ref_axis',(1.,0.,0.));
#947=DIRECTION('',(-1.,0.,0.));
#948=DIRECTION('center_axis',(0.,0.168030974324044,0.985781716034393));
#949=DIRECTION('ref_axis',(-0.866025261720033,-0.492891100581261,0.0840155285083784));
#950=DIRECTION('center_axis',(0.,-0.168030974324044,-0.985781716034393));
#951=DIRECTION('ref_axis',(-0.866025261720033,-0.492891100581261,0.0840155285083784));
#952=DIRECTION('',(0.,0.168030974324044,0.985781716034393));
#953=DIRECTION('center_axis',(0.,0.168030974324044,0.985781716034393));
#954=DIRECTION('ref_axis',(1.,0.,0.));
#955=DIRECTION('center_axis',(0.,-0.168030974324044,-0.985781716034393));
#956=DIRECTION('ref_axis',(1.,0.,0.));
#957=DIRECTION('center_axis',(0.,0.168030974324044,0.985781716034393));
#958=DIRECTION('ref_axis',(0.,-0.985781716034393,0.168030974324044));
#959=DIRECTION('',(0.,-0.985781716034393,0.168030974324044));
#960=DIRECTION('',(1.,0.,0.));
#961=DIRECTION('',(0.,0.985781716034393,-0.168030974324044));
#962=DIRECTION('',(-1.,0.,0.));
#963=DIRECTION('',(0.,0.985781716034393,-0.168030974324044));
#964=DIRECTION('',(1.,0.,0.));
#965=DIRECTION('center_axis',(-1.,0.,0.));
#966=DIRECTION('ref_axis',(0.,-0.985781716034393,0.168030974324044));
#967=DIRECTION('center_axis',(0.,0.985781716034393,-0.168030974324044));
#968=DIRECTION('ref_axis',(-1.,0.,0.));
#969=DIRECTION('center_axis',(0.,0.168030974324043,0.985781716034393));
#970=DIRECTION('ref_axis',(1.,0.,0.));
#971=DIRECTION('center_axis',(0.,-0.168030974324044,-0.985781716034393));
#972=DIRECTION('ref_axis',(1.,0.,0.));
#973=DIRECTION('',(0.,0.168030974324044,0.985781716034393));
#974=DIRECTION('center_axis',(0.,0.168030974324044,0.985781716034393));
#975=DIRECTION('ref_axis',(1.,0.,0.));
#976=DIRECTION('',(0.,0.168030974324044,0.985781716034393));
#977=DIRECTION('center_axis',(-1.,1.72352371400926E-16,-2.93782451251577E-17));
#978=DIRECTION('ref_axis',(-1.74838271594513E-16,-0.985781716034393,0.168030974324044));
#979=DIRECTION('',(1.74838271594513E-16,0.985781716034393,-0.168030974324044));
#980=DIRECTION('',(-1.74838271594513E-16,-0.985781716034393,0.168030974324044));
#981=DIRECTION('',(0.,0.168030974324044,0.985781716034393));
#982=DIRECTION('center_axis',(0.,0.168030974324043,0.985781716034393));
#983=DIRECTION('ref_axis',(-1.,0.,0.));
#984=DIRECTION('center_axis',(0.,-0.168030974324044,-0.985781716034393));
#985=DIRECTION('ref_axis',(-1.,0.,0.));
#986=DIRECTION('center_axis',(0.,0.168030974324044,0.985781716034393));
#987=DIRECTION('ref_axis',(-1.,0.,0.));
#988=DIRECTION('',(0.,0.168030974324044,0.985781716034393));
#989=DIRECTION('center_axis',(1.,-1.72352371400926E-16,2.93782451251577E-17));
#990=DIRECTION('ref_axis',(1.74838271594513E-16,0.985781716034393,-0.168030974324044));
#991=DIRECTION('',(-1.74838271594513E-16,-0.985781716034393,0.168030974324044));
#992=DIRECTION('',(1.74838271594513E-16,0.985781716034393,-0.168030974324044));
#993=DIRECTION('center_axis',(0.,0.985781716034393,-0.168030974324044));
#994=DIRECTION('ref_axis',(0.70710678118656,-0.118815841393906,-0.697052936177619));
#995=DIRECTION('center_axis',(0.,-0.996439088964898,0.0843157279681788));
#996=DIRECTION('ref_axis',(-8.4930147931119E-15,-0.0843157279681787,-0.996439088964898));
#997=DIRECTION('',(0.,0.985781716034393,-0.168030974324044));
#998=DIRECTION('center_axis',(0.,1.,-7.45976625469921E-16));
#999=DIRECTION('ref_axis',(5.09875765394407E-15,-7.49002114968693E-16,-1.));
#1000=DIRECTION('',(0.,-0.985781716034393,0.168030974324044));
#1001=DIRECTION('center_axis',(0.,-0.168030974324044,-0.985781716034393));
#1002=DIRECTION('ref_axis',(0.,0.985781716034393,-0.168030974324044));
#1003=DIRECTION('',(1.,0.,0.));
#1004=DIRECTION('',(0.,-0.985781716034393,0.168030974324044));
#1005=DIRECTION('',(-1.,0.,0.));
#1006=DIRECTION('center_axis',(0.,-0.985781716034393,0.168030974324044));
#1007=DIRECTION('ref_axis',(-0.70710678118656,-0.118815841393906,-0.697052936177619));
#1008=DIRECTION('center_axis',(0.,1.,-7.45976625469921E-16));
#1009=DIRECTION('ref_axis',(-5.09875765394407E-15,-7.49002114968693E-16,
-1.));
#1010=DIRECTION('center_axis',(0.,-0.996439088964898,0.0843157279681788));
#1011=DIRECTION('ref_axis',(8.4930147931119E-15,-0.0843157279681787,-0.996439088964898));
#1012=DIRECTION('',(0.,0.985781716034393,-0.168030974324044));
#1013=DIRECTION('center_axis',(0.,-0.985781716034393,0.168030974324044));
#1014=DIRECTION('ref_axis',(0.707106781186534,0.118815841393908,0.697052936177646));
#1015=DIRECTION('center_axis',(0.,1.,-7.45976625469921E-16));
#1016=DIRECTION('ref_axis',(-6.10414648711613E-15,7.61697066069858E-16,
1.));
#1017=DIRECTION('center_axis',(0.,-0.996439088964898,0.0843157279681788));
#1018=DIRECTION('ref_axis',(-5.95236934218099E-15,0.0843157279681788,0.996439088964898));
#1019=DIRECTION('',(0.,0.985781716034393,-0.168030974324044));
#1020=DIRECTION('center_axis',(0.,0.985781716034393,-0.168030974324044));
#1021=DIRECTION('ref_axis',(-0.707106781186534,0.118815841393908,0.697052936177646));
#1022=DIRECTION('center_axis',(0.,-0.996439088964898,0.0843157279681788));
#1023=DIRECTION('ref_axis',(5.95236934218099E-15,0.0843157279681788,0.996439088964898));
#1024=DIRECTION('center_axis',(0.,1.,-7.45976625469921E-16));
#1025=DIRECTION('ref_axis',(6.10414648711613E-15,7.61697066069858E-16,1.));
#1026=DIRECTION('',(0.,-0.985781716034393,0.168030974324044));
#1027=DIRECTION('center_axis',(-1.,0.,0.));
#1028=DIRECTION('ref_axis',(0.,0.,1.));
#1029=DIRECTION('',(0.,-0.0843157279681788,-0.996439088964898));
#1030=DIRECTION('',(0.,7.45976625469921E-16,1.));
#1031=DIRECTION('center_axis',(1.,0.,0.));
#1032=DIRECTION('ref_axis',(0.,0.,-1.));
#1033=DIRECTION('',(0.,-7.45976625469921E-16,-1.));
#1034=DIRECTION('',(0.,0.0843157279681788,0.996439088964898));
#1035=DIRECTION('center_axis',(0.,0.985781716034393,-0.168030974324044));
#1036=DIRECTION('ref_axis',(0.70710678118656,-0.118815841393906,-0.697052936177619));
#1037=DIRECTION('center_axis',(0.,-0.996439088964898,0.0843157279681788));
#1038=DIRECTION('ref_axis',(-8.4930147931119E-15,-0.0843157279681787,-0.996439088964898));
#1039=DIRECTION('',(0.,-0.985781716034393,0.168030974324044));
#1040=DIRECTION('center_axis',(0.,1.,-7.45976625469921E-16));
#1041=DIRECTION('ref_axis',(5.09875765394407E-15,-7.49002114968693E-16,
-1.));
#1042=DIRECTION('',(0.,0.985781716034393,-0.168030974324044));
#1043=DIRECTION('center_axis',(0.,0.996439088964898,-0.0843157279681788));
#1044=DIRECTION('ref_axis',(0.,0.0843157279681788,0.996439088964898));
#1045=DIRECTION('',(1.,0.,0.));
#1046=DIRECTION('center_axis',(0.,-0.996439088964898,0.0843157279681788));
#1047=DIRECTION('ref_axis',(8.4930147931119E-15,-0.0843157279681787,-0.996439088964898));
#1048=DIRECTION('',(0.,-0.0843157279681788,-0.996439088964898));
#1049=DIRECTION('center_axis',(0.,-0.996439088964898,0.0843157279681788));
#1050=DIRECTION('ref_axis',(5.95236934218099E-15,0.0843157279681788,0.996439088964898));
#1051=DIRECTION('center_axis',(0.,-0.996439088964898,0.0843157279681788));
#1052=DIRECTION('ref_axis',(-5.95236934218099E-15,0.0843157279681788,0.996439088964898));
#1053=DIRECTION('',(0.,0.0843157279681788,0.996439088964898));
#1054=DIRECTION('center_axis',(0.,-0.168030974324044,-0.985781716034393));
#1055=DIRECTION('ref_axis',(0.,0.985781716034393,-0.168030974324044));
#1056=DIRECTION('',(1.,0.,0.));
#1057=DIRECTION('',(0.,-0.985781716034393,0.168030974324044));
#1058=DIRECTION('center_axis',(0.,-0.985781716034393,0.168030974324044));
#1059=DIRECTION('ref_axis',(-0.70710678118656,-0.118815841393906,-0.697052936177619));
#1060=DIRECTION('center_axis',(0.,1.,-7.45976625469921E-16));
#1061=DIRECTION('ref_axis',(-5.09875765394407E-15,-7.49002114968693E-16,
-1.));
#1062=DIRECTION('',(0.,0.985781716034393,-0.168030974324044));
#1063=DIRECTION('center_axis',(0.,-0.985781716034393,0.168030974324044));
#1064=DIRECTION('ref_axis',(0.707106781186534,0.118815841393908,0.697052936177646));
#1065=DIRECTION('center_axis',(0.,1.,-7.45976625469921E-16));
#1066=DIRECTION('ref_axis',(-6.10414648711613E-15,7.61697066069858E-16,
1.));
#1067=DIRECTION('',(0.,0.985781716034393,-0.168030974324044));
#1068=DIRECTION('center_axis',(0.,0.985781716034393,-0.168030974324044));
#1069=DIRECTION('ref_axis',(-0.707106781186534,0.118815841393908,0.697052936177646));
#1070=DIRECTION('',(0.,-0.985781716034393,0.168030974324044));
#1071=DIRECTION('center_axis',(0.,1.,-7.45976625469921E-16));
#1072=DIRECTION('ref_axis',(6.10414648711613E-15,7.61697066069858E-16,1.));
#1073=DIRECTION('center_axis',(-1.,0.,0.));
#1074=DIRECTION('ref_axis',(0.,0.,1.));
#1075=DIRECTION('',(0.,7.45976625469921E-16,1.));
#1076=DIRECTION('center_axis',(0.,-1.,7.45976625469921E-16));
#1077=DIRECTION('ref_axis',(0.,-7.45976625469921E-16,-1.));
#1078=DIRECTION('',(0.,-7.45976625469921E-16,-1.));
#1079=DIRECTION('center_axis',(1.,0.,0.));
#1080=DIRECTION('ref_axis',(0.,0.,-1.));
#1081=CARTESIAN_POINT('',(0.,0.,0.));
#1082=CARTESIAN_POINT('Origin',(-0.405000000000577,-2.31331161507459,37.0367181606668));
#1083=CARTESIAN_POINT('',(-0.395000009843087,-2.3303858608498,37.0396285434694));
#1084=CARTESIAN_POINT('',(-0.385000000000577,-2.31331161507458,37.0367181606668));
#1085=CARTESIAN_POINT('Origin',(-0.405000000000577,-2.31331161507458,37.0367181606668));
#1086=CARTESIAN_POINT('',(-0.385000000000577,-2.30070929200028,37.1106517893694));
#1087=CARTESIAN_POINT('',(-0.385000000000577,-2.31331161507459,37.0367181606668));
#1088=CARTESIAN_POINT('',(-0.395000009843087,-2.3177835377755,37.113562172172));
#1089=CARTESIAN_POINT('Origin',(-0.405000000000577,-2.30070929200028,37.1106517893694));
#1090=CARTESIAN_POINT('',(-0.395000009843087,-2.3303858608498,37.0396285434694));
#1091=CARTESIAN_POINT('Origin',(0.,0.114323239514429,36.6229167649982));
#1092=CARTESIAN_POINT('',(0.6,0.120579284459297,36.6218503937008));
#1093=CARTESIAN_POINT('',(0.6,-22.,40.3924036808245));
#1094=CARTESIAN_POINT('',(0.6,-5.35529245280172,37.555237621643));
#1095=CARTESIAN_POINT('',(-0.6,-22.,40.3924036808245));
#1096=CARTESIAN_POINT('',(0.,-22.,40.3924036808245));
#1097=CARTESIAN_POINT('',(-0.6,0.120579284459297,36.6218503937008));
#1098=CARTESIAN_POINT('',(-0.6,-5.35529245280172,37.555237621643));
#1099=CARTESIAN_POINT('',(0.,0.120579284459296,36.6218503937008));
#1100=CARTESIAN_POINT('',(-0.367679452146817,-2.35731796709865,37.0442192433982));
#1101=CARTESIAN_POINT('Origin',(-0.385000000000577,-2.34746014023573,37.0425389320011));
#1102=CARTESIAN_POINT('',(-0.350358938388557,-2.34746014023574,37.0425389320011));
#1103=CARTESIAN_POINT('Origin',(-0.350358938388557,-2.36717577455643,37.0458995514875));
#1104=CARTESIAN_POINT('',(0.350358938386632,-2.34746014023574,37.0425389320011));
#1105=CARTESIAN_POINT('',(-0.192500000000288,-2.34746014023574,37.0425389320011));
#1106=CARTESIAN_POINT('',(0.367679452144892,-2.35731796709865,37.0442192433982));
#1107=CARTESIAN_POINT('Origin',(0.350358938386632,-2.36717577455643,37.0458995514875));
#1108=CARTESIAN_POINT('',(0.395000009841162,-2.3303858608498,37.0396285434694));
#1109=CARTESIAN_POINT('Origin',(0.384999999998652,-2.34746014023573,37.0425389320011));
#1110=CARTESIAN_POINT('',(0.384999999998652,-2.31331161507458,37.0367181606668));
#1111=CARTESIAN_POINT('Origin',(0.404999999998652,-2.31331161507458,37.0367181606668));
#1112=CARTESIAN_POINT('',(0.384999999998652,-2.28689303107648,37.0322149929398));
#1113=CARTESIAN_POINT('',(0.384999999998652,-1.11656845036065,36.8327278484996));
#1114=CARTESIAN_POINT('',(0.395000009841162,-2.26981878530126,37.0293046101372));
#1115=CARTESIAN_POINT('Origin',(0.404999999998652,-2.28689303107648,37.0322149929398));
#1116=CARTESIAN_POINT('',(0.367679452144891,-2.24288667905242,37.0247139102085));
#1117=CARTESIAN_POINT('Origin',(0.384999999998652,-2.25274450591533,37.0263942216055));
#1118=CARTESIAN_POINT('',(0.35035893838663,-2.25274450591533,37.0263942216055));
#1119=CARTESIAN_POINT('Origin',(0.35035893838663,-2.23302887159464,37.0230336021191));
#1120=CARTESIAN_POINT('',(-0.350358938388555,-2.25274450591533,37.0263942216055));
#1121=CARTESIAN_POINT('',(0.192499999999326,-2.25274450591533,37.0263942216055));
#1122=CARTESIAN_POINT('',(-0.367679452146816,-2.24288667905242,37.0247139102085));
#1123=CARTESIAN_POINT('Origin',(-0.350358938388555,-2.23302887159464,37.0230336021191));
#1124=CARTESIAN_POINT('',(-0.395000009843087,-2.26981878530126,37.0293046101372));
#1125=CARTESIAN_POINT('Origin',(-0.385000000000577,-2.25274450591533,37.0263942216055));
#1126=CARTESIAN_POINT('',(-0.385000000000577,-2.28689303107648,37.0322149929398));
#1127=CARTESIAN_POINT('Origin',(-0.405000000000577,-2.28689303107648,37.0322149929398));
#1128=CARTESIAN_POINT('',(-0.385000000000577,-1.06921063320045,36.8246554933019));
#1129=CARTESIAN_POINT('Origin',(-0.385000000000577,-2.34746014023574,37.0425389320011));
#1130=CARTESIAN_POINT('',(-0.367679452146817,-2.34471564402434,37.1181528721007));
#1131=CARTESIAN_POINT('Origin',(-0.385000000000577,-2.33485781716143,37.1164725607036));
#1132=CARTESIAN_POINT('',(-0.367679452146817,-2.35731796709865,37.0442192433981));
#1133=CARTESIAN_POINT('Origin',(-0.350358938388557,-2.36717577455643,37.0458995514875));
#1134=CARTESIAN_POINT('',(-0.350358938388557,-2.33485781716143,37.1164725607036));
#1135=CARTESIAN_POINT('Origin',(-0.350358938388557,-2.35457345148212,37.1198331801901));
#1136=CARTESIAN_POINT('',(-0.350358938388557,-2.34746014023574,37.0425389320011));
#1137=CARTESIAN_POINT('Origin',(-0.350358938388555,-2.23302887159464,37.0230336021191));
#1138=CARTESIAN_POINT('',(-0.350358938388555,-2.24014218284102,37.1003278503081));
#1139=CARTESIAN_POINT('',(-0.350358938388555,-2.25274450591533,37.0263942216055));
#1140=CARTESIAN_POINT('',(-0.367679452146816,-2.23028435597811,37.098647538911));
#1141=CARTESIAN_POINT('Origin',(-0.350358938388555,-2.22042654852034,37.0969672308216));
#1142=CARTESIAN_POINT('',(-0.367679452146816,-2.24288667905242,37.0247139102084));
#1143=CARTESIAN_POINT('Origin',(-0.385000000000577,-2.25274450591533,37.0263942216055));
#1144=CARTESIAN_POINT('',(-0.395000009843087,-2.25721646222696,37.1032382388398));
#1145=CARTESIAN_POINT('Origin',(-0.385000000000577,-2.24014218284102,37.1003278503081));
#1146=CARTESIAN_POINT('',(-0.395000009843087,-2.26981878530126,37.0293046101372));
#1147=CARTESIAN_POINT('Origin',(-0.405000000000577,-2.28689303107648,37.0322149929398));
#1148=CARTESIAN_POINT('',(-0.385000000000577,-2.27429070800217,37.1061486216424));
#1149=CARTESIAN_POINT('Origin',(-0.405000000000577,-2.27429070800217,37.1061486216424));
#1150=CARTESIAN_POINT('',(-0.385000000000577,-2.28689303107648,37.0322149929398));
#1151=CARTESIAN_POINT('Origin',(0.35035893838663,-2.23302887159464,37.0230336021191));
#1152=CARTESIAN_POINT('',(0.367679452144891,-2.23028435597811,37.098647538911));
#1153=CARTESIAN_POINT('',(0.35035893838663,-2.24014218284102,37.1003278503081));
#1154=CARTESIAN_POINT('Origin',(0.35035893838663,-2.22042654852034,37.0969672308216));
#1155=CARTESIAN_POINT('',(0.35035893838663,-2.25274450591533,37.0263942216055));
#1156=CARTESIAN_POINT('',(0.367679452144891,-2.24288667905242,37.0247139102084));
#1157=CARTESIAN_POINT('Origin',(0.384999999998652,-2.25274450591533,37.0263942216055));
#1158=CARTESIAN_POINT('',(0.395000009841162,-2.25721646222696,37.1032382388398));
#1159=CARTESIAN_POINT('',(0.395000009841162,-2.26981878530126,37.0293046101372));
#1160=CARTESIAN_POINT('Origin',(0.384999999998652,-2.24014218284102,37.1003278503081));
#1161=CARTESIAN_POINT('Origin',(0.404999999998652,-2.28689303107648,37.0322149929398));
#1162=CARTESIAN_POINT('',(0.384999999998652,-2.27429070800217,37.1061486216424));
#1163=CARTESIAN_POINT('',(0.384999999998652,-2.28689303107648,37.0322149929398));
#1164=CARTESIAN_POINT('Origin',(0.404999999998652,-2.27429070800217,37.1061486216424));
#1165=CARTESIAN_POINT('Origin',(0.384999999998652,-2.34746014023574,37.0425389320011));
#1166=CARTESIAN_POINT('',(0.384999999998652,-2.30070929200028,37.1106517893694));
#1167=CARTESIAN_POINT('',(0.384999999998652,-2.31331161507459,37.0367181606668));
#1168=CARTESIAN_POINT('',(0.384999999998652,-1.10396612728635,36.9066614772022));
#1169=CARTESIAN_POINT('Origin',(0.350358938386632,-2.36717577455643,37.0458995514875));
#1170=CARTESIAN_POINT('',(0.350358938386632,-2.33485781716143,37.1164725607036));
#1171=CARTESIAN_POINT('',(0.350358938386632,-2.34746014023574,37.0425389320011));
#1172=CARTESIAN_POINT('',(0.367679452144892,-2.34471564402434,37.1181528721007));
#1173=CARTESIAN_POINT('Origin',(0.350358938386632,-2.35457345148212,37.1198331801901));
#1174=CARTESIAN_POINT('',(0.367679452144893,-2.35731796709865,37.0442192433981));
#1175=CARTESIAN_POINT('Origin',(-0.385000000000577,-2.34746014023574,37.0425389320011));
#1176=CARTESIAN_POINT('',(-0.192500000000288,-2.33485781716143,37.1164725607036));
#1177=CARTESIAN_POINT('Origin',(0.404999999998652,-2.31331161507459,37.0367181606668));
#1178=CARTESIAN_POINT('',(0.395000009841162,-2.3177835377755,37.113562172172));
#1179=CARTESIAN_POINT('Origin',(0.404999999998652,-2.30070929200028,37.1106517893694));
#1180=CARTESIAN_POINT('',(0.395000009841162,-2.3303858608498,37.0396285434694));
#1181=CARTESIAN_POINT('Origin',(0.384999999998652,-2.34746014023574,37.0425389320011));
#1182=CARTESIAN_POINT('Origin',(0.384999999998652,-2.33485781716143,37.1164725607036));
#1183=CARTESIAN_POINT('Origin',(0.,0.126925562588732,36.6968503937008));
#1184=CARTESIAN_POINT('',(0.6,0.126925562588732,36.6968503937008));
#1185=CARTESIAN_POINT('',(0.6,-22.,40.4684854327784));
#1186=CARTESIAN_POINT('',(0.6,-5.34269012972742,37.6291712503456));
#1187=CARTESIAN_POINT('',(-0.6,0.126925562588732,36.6968503937008));
#1188=CARTESIAN_POINT('',(0.,0.126925562588732,36.6968503937008));
#1189=CARTESIAN_POINT('',(-0.6,-22.,40.4684854327784));
#1190=CARTESIAN_POINT('',(-0.6,-5.34269012972742,37.6291712503456));
#1191=CARTESIAN_POINT('',(0.,-22.,40.4684854327784));
#1192=CARTESIAN_POINT('',(-0.385000000000577,-1.05660831012615,36.8985891220044));
#1193=CARTESIAN_POINT('',(0.192499999999326,-2.24014218284102,37.1003278503081));
#1194=CARTESIAN_POINT('Origin',(-0.385000000000577,-2.25274450591533,37.0263942216055));
#1195=CARTESIAN_POINT('Origin',(0.384999999998652,-2.25274450591533,37.0263942216055));
#1196=CARTESIAN_POINT('Origin',(-1.74838271594513E-16,-10.8435988763783,
37.0451911112653));
#1197=CARTESIAN_POINT('',(0.390625,-10.830996553304,37.1191247399678));
#1198=CARTESIAN_POINT('',(-0.390625,-10.830996553304,37.1191247399678));
#1199=CARTESIAN_POINT('Origin',(-1.74838271594513E-16,-10.830996553304,
37.1191247399678));
#1200=CARTESIAN_POINT('',(0.390625,-10.8435988763783,37.0451911112653));
#1201=CARTESIAN_POINT('',(0.390625,-10.8435988763783,37.0451911112653));
#1202=CARTESIAN_POINT('',(-0.390625,-10.8435988763783,37.0451911112653));
#1203=CARTESIAN_POINT('Origin',(-1.74838271594513E-16,-10.8435988763783,
37.0451911112653));
#1204=CARTESIAN_POINT('',(-0.390625,-10.8435988763783,37.0451911112653));
#1205=CARTESIAN_POINT('Origin',(-0.390625,-8.87203544430954,36.7091291626172));
#1206=CARTESIAN_POINT('',(-0.390625,-8.85943312123523,36.7830627913198));
#1207=CARTESIAN_POINT('',(-0.390625000000001,-15.4234153990805,37.9019234068615));
#1208=CARTESIAN_POINT('',(-0.390625,-8.87203544430954,36.7091291626172));
#1209=CARTESIAN_POINT('',(-0.390625000000001,-15.4360177221548,37.827989778159));
#1210=CARTESIAN_POINT('',(-0.390625,-8.87203544430954,36.7091291626172));
#1211=CARTESIAN_POINT('Origin',(1.74838271594513E-16,-8.87203544430954,
36.7091291626172));
#1212=CARTESIAN_POINT('',(0.390625,-8.85943312123523,36.7830627913198));
#1213=CARTESIAN_POINT('Origin',(1.74838271594513E-16,-8.85943312123523,
36.7830627913198));
#1214=CARTESIAN_POINT('',(0.390625,-8.87203544430954,36.7091291626172));
#1215=CARTESIAN_POINT('Origin',(1.74838271594513E-16,-8.87203544430954,
36.7091291626172));
#1216=CARTESIAN_POINT('',(0.390625,-8.87203544430954,36.7091291626172));
#1217=CARTESIAN_POINT('Origin',(0.390625,-10.8435988763783,37.0451911112653));
#1218=CARTESIAN_POINT('',(0.390624999999999,-16.4091971151149,38.0699543811856));
#1219=CARTESIAN_POINT('',(0.390624999999999,-16.4217994381892,37.996020752483));
#1220=CARTESIAN_POINT('Origin',(0.6,-16.5069714956162,38.1627022207249));
#1221=CARTESIAN_POINT('',(0.6,0.00634627812944226,35.2718503937008));
#1222=CARTESIAN_POINT('',(0.675,0.0126925562588777,35.3468503937008));
#1223=CARTESIAN_POINT('Origin',(0.6,0.01269255625888,35.3468503937008));
#1224=CARTESIAN_POINT('',(0.6,-22.,39.0229321456547));
#1225=CARTESIAN_POINT('',(0.6,-16.5195738186905,38.0887685920224));
#1226=CARTESIAN_POINT('',(0.675,-22.,39.0990138976085));
#1227=CARTESIAN_POINT('Origin',(0.6,-22.,39.0990138976085));
#1228=CARTESIAN_POINT('',(0.675,-16.5069714956162,38.1627022207249));
#1229=CARTESIAN_POINT('Origin',(0.,-21.9873976769257,39.0207840224034));
#1230=CARTESIAN_POINT('',(-0.6,0.00634627812944226,35.2718503937008));
#1231=CARTESIAN_POINT('',(0.,0.00634627812944138,35.2718503937008));
#1232=CARTESIAN_POINT('',(-0.6,-22.,39.0229321456547));
#1233=CARTESIAN_POINT('',(-0.6,-16.5195738186905,38.0887685920224));
#1234=CARTESIAN_POINT('',(0.,-22.,39.0229321456547));
#1235=CARTESIAN_POINT('Origin',(-0.6,-16.5069714956162,38.1627022207249));
#1236=CARTESIAN_POINT('',(-0.675,-22.,39.0990138976085));
#1237=CARTESIAN_POINT('Origin',(-0.6,-22.,39.0990138976085));
#1238=CARTESIAN_POINT('',(-0.675,0.0126925562588777,35.3468503937008));
#1239=CARTESIAN_POINT('Origin',(-0.6,0.01269255625888,35.3468503937008));
#1240=CARTESIAN_POINT('',(-0.675,-16.5069714956162,38.1627022207249));
#1241=CARTESIAN_POINT('Origin',(0.6,-5.36789477587603,37.4813039929404));
#1242=CARTESIAN_POINT('',(0.675,-22.,40.3163219288706));
#1243=CARTESIAN_POINT('Origin',(0.6,-22.,40.3163219288706));
#1244=CARTESIAN_POINT('',(0.675,0.11423300632986,36.5468503937008));
#1245=CARTESIAN_POINT('Origin',(0.6,0.11423300632986,36.5468503937008));
#1246=CARTESIAN_POINT('',(0.675,-5.36789477587603,37.4813039929404));
#1247=CARTESIAN_POINT('Origin',(-0.6,-5.36789477587603,37.4813039929404));
#1248=CARTESIAN_POINT('',(-0.675,0.11423300632986,36.5468503937008));
#1249=CARTESIAN_POINT('Origin',(-0.6,0.11423300632986,36.5468503937008));
#1250=CARTESIAN_POINT('',(-0.675,-22.,40.3163219288706));
#1251=CARTESIAN_POINT('Origin',(-0.6,-22.,40.3163219288706));
#1252=CARTESIAN_POINT('',(-0.675,-5.36789477587603,37.4813039929404));
#1253=CARTESIAN_POINT('Origin',(-0.675,-10.9365372187056,37.8326679132396));
#1254=CARTESIAN_POINT('',(-0.675,0.0718500485431327,36.045970701829));
#1255=CARTESIAN_POINT('',(-0.675,-22.,39.150576673009));
#1256=CARTESIAN_POINT('Origin',(0.675,-10.9365372187056,37.8326679132396));
#1257=CARTESIAN_POINT('',(0.675,-22.,39.150576673009));
#1258=CARTESIAN_POINT('',(0.675,0.0718500485431327,36.045970701829));
#1259=CARTESIAN_POINT('Origin',(0.6,-16.5069714956162,38.1627022207249));
#1260=CARTESIAN_POINT('',(0.6,5.59482469102441E-15,35.1968503937008));
#1261=CARTESIAN_POINT('',(0.75,0.0126925562588783,35.3468503937008));
#1262=CARTESIAN_POINT('Origin',(0.6,0.01269255625888,35.3468503937008));
#1263=CARTESIAN_POINT('',(0.75,-22.,39.0990138976085));
#1264=CARTESIAN_POINT('',(0.75,-16.5069714956162,38.1627022207249));
#1265=CARTESIAN_POINT('',(0.6,-22.,38.9468503937008));
#1266=CARTESIAN_POINT('Origin',(0.6,-22.,39.0990138976085));
#1267=CARTESIAN_POINT('',(0.6,-16.5321761417648,38.0148349633198));
#1268=CARTESIAN_POINT('Origin',(0.,5.59482469102441E-15,35.1968503937008));
#1269=CARTESIAN_POINT('',(-0.6,5.59482469102441E-15,35.1968503937008));
#1270=CARTESIAN_POINT('',(0.,5.59482469102441E-15,35.1968503937008));
#1271=CARTESIAN_POINT('',(-0.75,0.0126925562588783,35.3468503937008));
#1272=CARTESIAN_POINT('Origin',(-0.6,0.01269255625888,35.3468503937008));
#1273=CARTESIAN_POINT('',(-0.75,0.11423300632986,36.5468503937008));
#1274=CARTESIAN_POINT('',(-0.75,5.59482469102441E-15,35.1968503937008));
#1275=CARTESIAN_POINT('Origin',(-0.6,0.11423300632986,36.5468503937008));
#1276=CARTESIAN_POINT('',(0.75,0.11423300632986,36.5468503937008));
#1277=CARTESIAN_POINT('Origin',(0.6,0.11423300632986,36.5468503937008));
#1278=CARTESIAN_POINT('',(0.75,5.59482469102441E-15,35.1968503937008));
#1279=CARTESIAN_POINT('Origin',(0.,-22.,38.9468503937008));
#1280=CARTESIAN_POINT('',(-0.6,-22.,38.9468503937008));
#1281=CARTESIAN_POINT('',(0.,-22.,38.9468503937008));
#1282=CARTESIAN_POINT('',(-0.6,-16.5321761417648,38.0148349633198));
#1283=CARTESIAN_POINT('Origin',(-0.6,-16.5069714956162,38.1627022207249));
#1284=CARTESIAN_POINT('',(-0.75,-22.,39.0990138976085));
#1285=CARTESIAN_POINT('Origin',(-0.6,-22.,39.0990138976085));
#1286=CARTESIAN_POINT('',(-0.75,-16.5069714956162,38.1627022207249));
#1287=CARTESIAN_POINT('Origin',(0.6,-5.36789477587603,37.4813039929404));
#1288=CARTESIAN_POINT('',(0.75,-22.,40.3163219288706));
#1289=CARTESIAN_POINT('Origin',(0.6,-22.,40.3163219288706));
#1290=CARTESIAN_POINT('',(0.75,-5.36789477587603,37.4813039929404));
#1291=CARTESIAN_POINT('Origin',(-0.6,-5.36789477587603,37.4813039929404));
#1292=CARTESIAN_POINT('',(-0.75,-22.,40.3163219288706));
#1293=CARTESIAN_POINT('',(-0.75,-5.36789477587603,37.4813039929404));
#1294=CARTESIAN_POINT('Origin',(-0.6,-22.,40.3163219288706));
#1295=CARTESIAN_POINT('Origin',(-0.75,-10.9365372187056,37.8326679132396));
#1296=CARTESIAN_POINT('',(-0.75,-22.,42.6968503937008));
#1297=CARTESIAN_POINT('Origin',(0.,-22.,40.4684854327784));
#1298=CARTESIAN_POINT('',(0.75,-22.,42.6968503937008));
#1299=CARTESIAN_POINT('Origin',(0.75,-10.9365372187056,37.8326679132396));
#1300=UNCERTAINTY_MEASURE_WITH_UNIT(LENGTH_MEASURE(0.000393700787401575),
#1306,'DISTANCE_ACCURACY_VALUE',
'Maximum model space distance between geometric entities at asserted c
onnectivities');
#1301=UNCERTAINTY_MEASURE_WITH_UNIT(LENGTH_MEASURE(0.000393700787401575),
#1306,'DISTANCE_ACCURACY_VALUE',
'Maximum model space distance between geometric entities at asserted c
onnectivities');
#1302=(
GEOMETRIC_REPRESENTATION_CONTEXT(3)
GLOBAL_UNCERTAINTY_ASSIGNED_CONTEXT((#1300))
GLOBAL_UNIT_ASSIGNED_CONTEXT((#1306,#1310,#1311))
REPRESENTATION_CONTEXT('','3D')
);
#1303=(
GEOMETRIC_REPRESENTATION_CONTEXT(3)
GLOBAL_UNCERTAINTY_ASSIGNED_CONTEXT((#1301))
GLOBAL_UNIT_ASSIGNED_CONTEXT((#1306,#1310,#1311))
REPRESENTATION_CONTEXT('','3D')
);
#1304=DIMENSIONAL_EXPONENTS(1.,0.,0.,0.,0.,0.,0.);
#1305=DIMENSIONAL_EXPONENTS(0.,1.,0.,0.,0.,0.,0.);
#1306=(
CONVERSION_BASED_UNIT('inch',#1309)
LENGTH_UNIT()
NAMED_UNIT(#1304)
);
#1307=(
LENGTH_UNIT()
NAMED_UNIT(*)
SI_UNIT(.MILLI.,.METRE.)
);
#1308=(
LENGTH_UNIT()
NAMED_UNIT(*)
SI_UNIT(.CENTI.,.METRE.)
);
#1309=LENGTH_MEASURE_WITH_UNIT(LENGTH_MEASURE(25.4),#1307);
#1310=(
NAMED_UNIT(*)
PLANE_ANGLE_UNIT()
SI_UNIT($,.RADIAN.)
);
#1311=(
NAMED_UNIT(*)
SI_UNIT($,.STERADIAN.)
SOLID_ANGLE_UNIT()
);
#1312=SHAPE_DEFINITION_REPRESENTATION(#1313,#1314);
#1313=PRODUCT_DEFINITION_SHAPE('',$,#1316);
#1314=SHAPE_REPRESENTATION('',(#768),#1302);
#1315=PRODUCT_DEFINITION_CONTEXT('part definition',#1320,'design');
#1316=PRODUCT_DEFINITION('CRA-1004','CRA-1004',#1317,#1315);
#1317=PRODUCT_DEFINITION_FORMATION('',$,#1322);
#1318=PRODUCT_RELATED_PRODUCT_CATEGORY('CRA-1004','CRA-1004',(#1322));
#1319=APPLICATION_PROTOCOL_DEFINITION('international standard',
'automotive_design',2009,#1320);
#1320=APPLICATION_CONTEXT(
'Core Data for Automotive Mechanical Design Process');
#1321=PRODUCT_CONTEXT('part definition',#1320,'mechanical');
#1322=PRODUCT('CRA-1004','CRA-1004','Robot Arm Tube 3',(#1321));
#1323=PRESENTATION_STYLE_ASSIGNMENT((#1324));
#1324=SURFACE_STYLE_USAGE(.BOTH.,#1327);
#1325=SURFACE_STYLE_RENDERING_WITH_PROPERTIES($,#1331,(#1326));
#1326=SURFACE_STYLE_TRANSPARENT(0.);
#1327=SURFACE_SIDE_STYLE('',(#1328,#1325));
#1328=SURFACE_STYLE_FILL_AREA(#1329);
#1329=FILL_AREA_STYLE('',(#1330));
#1330=FILL_AREA_STYLE_COLOUR('',#1331);
#1331=COLOUR_RGB('',0.749019607843137,0.749019607843137,0.749019607843137);
ENDSEC;
END-ISO-10303-21;
