ISO-10303-21;
HEADER;
/* Generated by software containing ST-Developer
 * from STEP Tools, Inc. (www.steptools.com) 
 */

FILE_DESCRIPTION(
/* description */ ('Robot Arm Tube 4'),
/* implementation_level */ '2;1');

FILE_NAME(
/* name */ 'CRA-1005.stp',
/* time_stamp */ '2025-12-22T15:25:40-06:00',
/* author */ ('josh'),
/* organization */ (''),
/* preprocessor_version */ 'ST-DEVELOPER v20',
/* originating_system */ 'Autodesk Inventor 2025',
/* authorisation */ '');

FILE_SCHEMA (('AUTOMOTIVE_DESIGN { 1 0 10303 214 3 1 1 }'));
ENDSEC;

DATA;
#10=MECHANICAL_DESIGN_GEOMETRIC_PRESENTATION_REPRESENTATION('',(#13),#607);
#11=SHAPE_REPRESENTATION_RELATIONSHIP('SRR','None',#618,#12);
#12=ADVANCED_BREP_SHAPE_REPRESENTATION('',(#14),#606);
#13=STYLED_ITEM('',(#627),#14);
#14=MANIFOLD_SOLID_BREP('CRA-1005',#347);
#15=FACE_BOUND('',#56,.T.);
#16=FACE_BOUND('',#64,.T.);
#17=PLANE('',#372);
#18=PLANE('',#376);
#19=PLANE('',#380);
#20=PLANE('',#384);
#21=PLANE('',#388);
#22=PLANE('',#389);
#23=PLANE('',#395);
#24=PLANE('',#398);
#25=PLANE('',#401);
#26=PLANE('',#402);
#27=FACE_OUTER_BOUND('',#45,.T.);
#28=FACE_OUTER_BOUND('',#46,.T.);
#29=FACE_OUTER_BOUND('',#47,.T.);
#30=FACE_OUTER_BOUND('',#48,.T.);
#31=FACE_OUTER_BOUND('',#49,.T.);
#32=FACE_OUTER_BOUND('',#50,.T.);
#33=FACE_OUTER_BOUND('',#51,.T.);
#34=FACE_OUTER_BOUND('',#52,.T.);
#35=FACE_OUTER_BOUND('',#53,.T.);
#36=FACE_OUTER_BOUND('',#54,.T.);
#37=FACE_OUTER_BOUND('',#55,.T.);
#38=FACE_OUTER_BOUND('',#57,.T.);
#39=FACE_OUTER_BOUND('',#58,.T.);
#40=FACE_OUTER_BOUND('',#59,.T.);
#41=FACE_OUTER_BOUND('',#60,.T.);
#42=FACE_OUTER_BOUND('',#61,.T.);
#43=FACE_OUTER_BOUND('',#62,.T.);
#44=FACE_OUTER_BOUND('',#63,.T.);
#45=EDGE_LOOP('',(#225,#226,#227,#228));
#46=EDGE_LOOP('',(#229,#230,#231,#232));
#47=EDGE_LOOP('',(#233,#234,#235,#236));
#48=EDGE_LOOP('',(#237,#238,#239,#240));
#49=EDGE_LOOP('',(#241,#242,#243,#244));
#50=EDGE_LOOP('',(#245,#246,#247,#248));
#51=EDGE_LOOP('',(#249,#250,#251,#252));
#52=EDGE_LOOP('',(#253,#254,#255,#256));
#53=EDGE_LOOP('',(#257,#258,#259,#260));
#54=EDGE_LOOP('',(#261,#262,#263,#264));
#55=EDGE_LOOP('',(#265,#266,#267,#268,#269,#270,#271,#272));
#56=EDGE_LOOP('',(#273,#274,#275,#276,#277,#278,#279,#280));
#57=EDGE_LOOP('',(#281,#282,#283,#284));
#58=EDGE_LOOP('',(#285,#286,#287,#288));
#59=EDGE_LOOP('',(#289,#290,#291,#292));
#60=EDGE_LOOP('',(#293,#294,#295,#296));
#61=EDGE_LOOP('',(#297,#298,#299,#300));
#62=EDGE_LOOP('',(#301,#302,#303,#304));
#63=EDGE_LOOP('',(#305,#306,#307,#308,#309,#310,#311,#312));
#64=EDGE_LOOP('',(#313,#314,#315,#316,#317,#318,#319,#320));
#65=LINE('',#511,#97);
#66=LINE('',#514,#98);
#67=LINE('',#517,#99);
#68=LINE('',#519,#100);
#69=LINE('',#520,#101);
#70=LINE('',#526,#102);
#71=LINE('',#529,#103);
#72=LINE('',#531,#104);
#73=LINE('',#532,#105);
#74=LINE('',#537,#106);
#75=LINE('',#541,#107);
#76=LINE('',#543,#108);
#77=LINE('',#544,#109);
#78=LINE('',#550,#110);
#79=LINE('',#552,#111);
#80=LINE('',#553,#112);
#81=LINE('',#559,#113);
#82=LINE('',#562,#114);
#83=LINE('',#565,#115);
#84=LINE('',#567,#116);
#85=LINE('',#568,#117);
#86=LINE('',#571,#118);
#87=LINE('',#575,#119);
#88=LINE('',#579,#120);
#89=LINE('',#583,#121);
#90=LINE('',#587,#122);
#91=LINE('',#588,#123);
#92=LINE('',#592,#124);
#93=LINE('',#595,#125);
#94=LINE('',#596,#126);
#95=LINE('',#599,#127);
#96=LINE('',#602,#128);
#97=VECTOR('',#409,0.393700787401575);
#98=VECTOR('',#412,0.393700787401575);
#99=VECTOR('',#415,0.393700787401575);
#100=VECTOR('',#416,0.393700787401575);
#101=VECTOR('',#417,0.393700787401575);
#102=VECTOR('',#424,0.393700787401575);
#103=VECTOR('',#427,0.393700787401575);
#104=VECTOR('',#428,0.393700787401575);
#105=VECTOR('',#429,0.393700787401575);
#106=VECTOR('',#434,0.393700787401575);
#107=VECTOR('',#439,0.393700787401575);
#108=VECTOR('',#440,0.393700787401575);
#109=VECTOR('',#441,0.393700787401575);
#110=VECTOR('',#448,0.393700787401575);
#111=VECTOR('',#451,0.393700787401575);
#112=VECTOR('',#452,0.393700787401575);
#113=VECTOR('',#457,0.393700787401575);
#114=VECTOR('',#460,0.393700787401575);
#115=VECTOR('',#463,0.393700787401575);
#116=VECTOR('',#464,0.393700787401575);
#117=VECTOR('',#465,0.393700787401575);
#118=VECTOR('',#468,0.393700787401575);
#119=VECTOR('',#471,0.393700787401575);
#120=VECTOR('',#474,0.393700787401575);
#121=VECTOR('',#479,0.393700787401575);
#122=VECTOR('',#484,0.393700787401575);
#123=VECTOR('',#485,0.393700787401575);
#124=VECTOR('',#490,0.393700787401575);
#125=VECTOR('',#493,0.393700787401575);
#126=VECTOR('',#494,0.393700787401575);
#127=VECTOR('',#497,0.393700787401575);
#128=VECTOR('',#502,0.393700787401575);
#129=ELLIPSE('',#370,0.0756611561153958,0.075);
#130=ELLIPSE('',#371,0.0751643835339832,0.075);
#131=ELLIPSE('',#374,0.0751643835339832,0.075);
#132=ELLIPSE('',#375,0.0756611561153958,0.075);
#133=ELLIPSE('',#378,0.0756611561153958,0.075);
#134=ELLIPSE('',#379,0.0751643835339832,0.075);
#135=ELLIPSE('',#382,0.0751643835339832,0.075);
#136=ELLIPSE('',#383,0.0756611561153958,0.075);
#137=ELLIPSE('',#386,0.151322312230792,0.15);
#138=ELLIPSE('',#387,0.150328767067966,0.15);
#139=ELLIPSE('',#390,0.150328767067966,0.15);
#140=ELLIPSE('',#391,0.150328767067966,0.15);
#141=ELLIPSE('',#392,0.150328767067966,0.15);
#142=ELLIPSE('',#394,0.151322312230792,0.15);
#143=ELLIPSE('',#397,0.151322312230792,0.15);
#144=ELLIPSE('',#400,0.151322312230792,0.15);
#145=VERTEX_POINT('',#507);
#146=VERTEX_POINT('',#508);
#147=VERTEX_POINT('',#510);
#148=VERTEX_POINT('',#512);
#149=VERTEX_POINT('',#516);
#150=VERTEX_POINT('',#518);
#151=VERTEX_POINT('',#522);
#152=VERTEX_POINT('',#524);
#153=VERTEX_POINT('',#528);
#154=VERTEX_POINT('',#530);
#155=VERTEX_POINT('',#534);
#156=VERTEX_POINT('',#536);
#157=VERTEX_POINT('',#540);
#158=VERTEX_POINT('',#542);
#159=VERTEX_POINT('',#546);
#160=VERTEX_POINT('',#548);
#161=VERTEX_POINT('',#555);
#162=VERTEX_POINT('',#556);
#163=VERTEX_POINT('',#558);
#164=VERTEX_POINT('',#560);
#165=VERTEX_POINT('',#564);
#166=VERTEX_POINT('',#566);
#167=VERTEX_POINT('',#570);
#168=VERTEX_POINT('',#572);
#169=VERTEX_POINT('',#574);
#170=VERTEX_POINT('',#576);
#171=VERTEX_POINT('',#578);
#172=VERTEX_POINT('',#582);
#173=VERTEX_POINT('',#586);
#174=VERTEX_POINT('',#590);
#175=VERTEX_POINT('',#594);
#176=VERTEX_POINT('',#598);
#177=EDGE_CURVE('',#145,#146,#129,.T.);
#178=EDGE_CURVE('',#147,#145,#65,.T.);
#179=EDGE_CURVE('',#148,#147,#130,.T.);
#180=EDGE_CURVE('',#146,#148,#66,.T.);
#181=EDGE_CURVE('',#149,#145,#67,.T.);
#182=EDGE_CURVE('',#149,#150,#68,.T.);
#183=EDGE_CURVE('',#147,#150,#69,.T.);
#184=EDGE_CURVE('',#150,#151,#131,.T.);
#185=EDGE_CURVE('',#152,#149,#132,.T.);
#186=EDGE_CURVE('',#151,#152,#70,.T.);
#187=EDGE_CURVE('',#153,#152,#71,.T.);
#188=EDGE_CURVE('',#153,#154,#72,.T.);
#189=EDGE_CURVE('',#151,#154,#73,.T.);
#190=EDGE_CURVE('',#155,#153,#133,.T.);
#191=EDGE_CURVE('',#156,#155,#74,.T.);
#192=EDGE_CURVE('',#154,#156,#134,.T.);
#193=EDGE_CURVE('',#157,#155,#75,.T.);
#194=EDGE_CURVE('',#157,#158,#76,.T.);
#195=EDGE_CURVE('',#156,#158,#77,.T.);
#196=EDGE_CURVE('',#158,#159,#135,.T.);
#197=EDGE_CURVE('',#160,#157,#136,.T.);
#198=EDGE_CURVE('',#159,#160,#78,.T.);
#199=EDGE_CURVE('',#159,#148,#79,.T.);
#200=EDGE_CURVE('',#146,#160,#80,.T.);
#201=EDGE_CURVE('',#161,#162,#137,.T.);
#202=EDGE_CURVE('',#162,#163,#81,.T.);
#203=EDGE_CURVE('',#163,#164,#138,.T.);
#204=EDGE_CURVE('',#164,#161,#82,.T.);
#205=EDGE_CURVE('',#164,#165,#83,.T.);
#206=EDGE_CURVE('',#166,#165,#84,.T.);
#207=EDGE_CURVE('',#166,#161,#85,.T.);
#208=EDGE_CURVE('',#167,#163,#86,.T.);
#209=EDGE_CURVE('',#168,#167,#139,.T.);
#210=EDGE_CURVE('',#169,#168,#87,.T.);
#211=EDGE_CURVE('',#170,#169,#140,.T.);
#212=EDGE_CURVE('',#171,#170,#88,.T.);
#213=EDGE_CURVE('',#165,#171,#141,.T.);
#214=EDGE_CURVE('',#171,#172,#89,.T.);
#215=EDGE_CURVE('',#172,#166,#142,.T.);
#216=EDGE_CURVE('',#173,#170,#90,.T.);
#217=EDGE_CURVE('',#173,#172,#91,.T.);
#218=EDGE_CURVE('',#174,#173,#143,.T.);
#219=EDGE_CURVE('',#169,#174,#92,.T.);
#220=EDGE_CURVE('',#175,#168,#93,.T.);
#221=EDGE_CURVE('',#174,#175,#94,.T.);
#222=EDGE_CURVE('',#167,#176,#95,.T.);
#223=EDGE_CURVE('',#176,#175,#144,.T.);
#224=EDGE_CURVE('',#162,#176,#96,.T.);
#225=ORIENTED_EDGE('',*,*,#177,.F.);
#226=ORIENTED_EDGE('',*,*,#178,.F.);
#227=ORIENTED_EDGE('',*,*,#179,.F.);
#228=ORIENTED_EDGE('',*,*,#180,.F.);
#229=ORIENTED_EDGE('',*,*,#178,.T.);
#230=ORIENTED_EDGE('',*,*,#181,.F.);
#231=ORIENTED_EDGE('',*,*,#182,.T.);
#232=ORIENTED_EDGE('',*,*,#183,.F.);
#233=ORIENTED_EDGE('',*,*,#184,.F.);
#234=ORIENTED_EDGE('',*,*,#182,.F.);
#235=ORIENTED_EDGE('',*,*,#185,.F.);
#236=ORIENTED_EDGE('',*,*,#186,.F.);
#237=ORIENTED_EDGE('',*,*,#186,.T.);
#238=ORIENTED_EDGE('',*,*,#187,.F.);
#239=ORIENTED_EDGE('',*,*,#188,.T.);
#240=ORIENTED_EDGE('',*,*,#189,.F.);
#241=ORIENTED_EDGE('',*,*,#190,.F.);
#242=ORIENTED_EDGE('',*,*,#191,.F.);
#243=ORIENTED_EDGE('',*,*,#192,.F.);
#244=ORIENTED_EDGE('',*,*,#188,.F.);
#245=ORIENTED_EDGE('',*,*,#191,.T.);
#246=ORIENTED_EDGE('',*,*,#193,.F.);
#247=ORIENTED_EDGE('',*,*,#194,.T.);
#248=ORIENTED_EDGE('',*,*,#195,.F.);
#249=ORIENTED_EDGE('',*,*,#196,.F.);
#250=ORIENTED_EDGE('',*,*,#194,.F.);
#251=ORIENTED_EDGE('',*,*,#197,.F.);
#252=ORIENTED_EDGE('',*,*,#198,.F.);
#253=ORIENTED_EDGE('',*,*,#180,.T.);
#254=ORIENTED_EDGE('',*,*,#199,.F.);
#255=ORIENTED_EDGE('',*,*,#198,.T.);
#256=ORIENTED_EDGE('',*,*,#200,.F.);
#257=ORIENTED_EDGE('',*,*,#201,.T.);
#258=ORIENTED_EDGE('',*,*,#202,.T.);
#259=ORIENTED_EDGE('',*,*,#203,.T.);
#260=ORIENTED_EDGE('',*,*,#204,.T.);
#261=ORIENTED_EDGE('',*,*,#204,.F.);
#262=ORIENTED_EDGE('',*,*,#205,.T.);
#263=ORIENTED_EDGE('',*,*,#206,.F.);
#264=ORIENTED_EDGE('',*,*,#207,.T.);
#265=ORIENTED_EDGE('',*,*,#203,.F.);
#266=ORIENTED_EDGE('',*,*,#208,.F.);
#267=ORIENTED_EDGE('',*,*,#209,.F.);
#268=ORIENTED_EDGE('',*,*,#210,.F.);
#269=ORIENTED_EDGE('',*,*,#211,.F.);
#270=ORIENTED_EDGE('',*,*,#212,.F.);
#271=ORIENTED_EDGE('',*,*,#213,.F.);
#272=ORIENTED_EDGE('',*,*,#205,.F.);
#273=ORIENTED_EDGE('',*,*,#179,.T.);
#274=ORIENTED_EDGE('',*,*,#183,.T.);
#275=ORIENTED_EDGE('',*,*,#184,.T.);
#276=ORIENTED_EDGE('',*,*,#189,.T.);
#277=ORIENTED_EDGE('',*,*,#192,.T.);
#278=ORIENTED_EDGE('',*,*,#195,.T.);
#279=ORIENTED_EDGE('',*,*,#196,.T.);
#280=ORIENTED_EDGE('',*,*,#199,.T.);
#281=ORIENTED_EDGE('',*,*,#213,.T.);
#282=ORIENTED_EDGE('',*,*,#214,.T.);
#283=ORIENTED_EDGE('',*,*,#215,.T.);
#284=ORIENTED_EDGE('',*,*,#206,.T.);
#285=ORIENTED_EDGE('',*,*,#214,.F.);
#286=ORIENTED_EDGE('',*,*,#212,.T.);
#287=ORIENTED_EDGE('',*,*,#216,.F.);
#288=ORIENTED_EDGE('',*,*,#217,.T.);
#289=ORIENTED_EDGE('',*,*,#218,.T.);
#290=ORIENTED_EDGE('',*,*,#216,.T.);
#291=ORIENTED_EDGE('',*,*,#211,.T.);
#292=ORIENTED_EDGE('',*,*,#219,.T.);
#293=ORIENTED_EDGE('',*,*,#219,.F.);
#294=ORIENTED_EDGE('',*,*,#210,.T.);
#295=ORIENTED_EDGE('',*,*,#220,.F.);
#296=ORIENTED_EDGE('',*,*,#221,.F.);
#297=ORIENTED_EDGE('',*,*,#209,.T.);
#298=ORIENTED_EDGE('',*,*,#222,.T.);
#299=ORIENTED_EDGE('',*,*,#223,.T.);
#300=ORIENTED_EDGE('',*,*,#220,.T.);
#301=ORIENTED_EDGE('',*,*,#202,.F.);
#302=ORIENTED_EDGE('',*,*,#224,.T.);
#303=ORIENTED_EDGE('',*,*,#222,.F.);
#304=ORIENTED_EDGE('',*,*,#208,.T.);
#305=ORIENTED_EDGE('',*,*,#201,.F.);
#306=ORIENTED_EDGE('',*,*,#207,.F.);
#307=ORIENTED_EDGE('',*,*,#215,.F.);
#308=ORIENTED_EDGE('',*,*,#217,.F.);
#309=ORIENTED_EDGE('',*,*,#218,.F.);
#310=ORIENTED_EDGE('',*,*,#221,.T.);
#311=ORIENTED_EDGE('',*,*,#223,.F.);
#312=ORIENTED_EDGE('',*,*,#224,.F.);
#313=ORIENTED_EDGE('',*,*,#177,.T.);
#314=ORIENTED_EDGE('',*,*,#200,.T.);
#315=ORIENTED_EDGE('',*,*,#197,.T.);
#316=ORIENTED_EDGE('',*,*,#193,.T.);
#317=ORIENTED_EDGE('',*,*,#190,.T.);
#318=ORIENTED_EDGE('',*,*,#187,.T.);
#319=ORIENTED_EDGE('',*,*,#185,.T.);
#320=ORIENTED_EDGE('',*,*,#181,.T.);
#321=CYLINDRICAL_SURFACE('',#369,0.075);
#322=CYLINDRICAL_SURFACE('',#373,0.075);
#323=CYLINDRICAL_SURFACE('',#377,0.075);
#324=CYLINDRICAL_SURFACE('',#381,0.075);
#325=CYLINDRICAL_SURFACE('',#385,0.15);
#326=CYLINDRICAL_SURFACE('',#393,0.15);
#327=CYLINDRICAL_SURFACE('',#396,0.15);
#328=CYLINDRICAL_SURFACE('',#399,0.15);
#329=ADVANCED_FACE('',(#27),#321,.F.);
#330=ADVANCED_FACE('',(#28),#17,.F.);
#331=ADVANCED_FACE('',(#29),#322,.F.);
#332=ADVANCED_FACE('',(#30),#18,.F.);
#333=ADVANCED_FACE('',(#31),#323,.F.);
#334=ADVANCED_FACE('',(#32),#19,.F.);
#335=ADVANCED_FACE('',(#33),#324,.F.);
#336=ADVANCED_FACE('',(#34),#20,.F.);
#337=ADVANCED_FACE('',(#35),#325,.T.);
#338=ADVANCED_FACE('',(#36),#21,.T.);
#339=ADVANCED_FACE('',(#37,#15),#22,.T.);
#340=ADVANCED_FACE('',(#38),#326,.T.);
#341=ADVANCED_FACE('',(#39),#23,.T.);
#342=ADVANCED_FACE('',(#40),#327,.T.);
#343=ADVANCED_FACE('',(#41),#24,.T.);
#344=ADVANCED_FACE('',(#42),#328,.T.);
#345=ADVANCED_FACE('',(#43),#25,.T.);
#346=ADVANCED_FACE('',(#44,#16),#26,.T.);
#347=CLOSED_SHELL('',(#329,#330,#331,#332,#333,#334,#335,#336,#337,#338,
#339,#340,#341,#342,#343,#344,#345,#346));
#348=DERIVED_UNIT_ELEMENT(#350,1.);
#349=DERIVED_UNIT_ELEMENT(#612,-3.);
#350=(
CONVERSION_BASED_UNIT('gram',#352)
MASS_UNIT()
NAMED_UNIT(#609)
);
#351=(
MASS_UNIT()
NAMED_UNIT(*)
SI_UNIT(.KILO.,.GRAM.)
);
#352=MASS_MEASURE_WITH_UNIT(MASS_MEASURE(0.001),#351);
#353=DERIVED_UNIT((#348,#349));
#354=MEASURE_REPRESENTATION_ITEM('density measure',
POSITIVE_RATIO_MEASURE(1.),#353);
#355=PROPERTY_DEFINITION_REPRESENTATION(#360,#357);
#356=PROPERTY_DEFINITION_REPRESENTATION(#361,#358);
#357=REPRESENTATION('material name',(#359),#606);
#358=REPRESENTATION('density',(#354),#606);
#359=DESCRIPTIVE_REPRESENTATION_ITEM('Generic','Generic');
#360=PROPERTY_DEFINITION('material property','material name',#620);
#361=PROPERTY_DEFINITION('material property','density of part',#620);
#362=DATE_TIME_ROLE('creation_date');
#363=APPLIED_DATE_AND_TIME_ASSIGNMENT(#364,#362,(#620));
#364=DATE_AND_TIME(#365,#366);
#365=CALENDAR_DATE(2025,20,12);
#366=LOCAL_TIME(0,0,0.,#367);
#367=COORDINATED_UNIVERSAL_TIME_OFFSET(0,0,.BEHIND.);
#368=AXIS2_PLACEMENT_3D('',#505,#403,#404);
#369=AXIS2_PLACEMENT_3D('',#506,#405,#406);
#370=AXIS2_PLACEMENT_3D('',#509,#407,#408);
#371=AXIS2_PLACEMENT_3D('',#513,#410,#411);
#372=AXIS2_PLACEMENT_3D('',#515,#413,#414);
#373=AXIS2_PLACEMENT_3D('',#521,#418,#419);
#374=AXIS2_PLACEMENT_3D('',#523,#420,#421);
#375=AXIS2_PLACEMENT_3D('',#525,#422,#423);
#376=AXIS2_PLACEMENT_3D('',#527,#425,#426);
#377=AXIS2_PLACEMENT_3D('',#533,#430,#431);
#378=AXIS2_PLACEMENT_3D('',#535,#432,#433);
#379=AXIS2_PLACEMENT_3D('',#538,#435,#436);
#380=AXIS2_PLACEMENT_3D('',#539,#437,#438);
#381=AXIS2_PLACEMENT_3D('',#545,#442,#443);
#382=AXIS2_PLACEMENT_3D('',#547,#444,#445);
#383=AXIS2_PLACEMENT_3D('',#549,#446,#447);
#384=AXIS2_PLACEMENT_3D('',#551,#449,#450);
#385=AXIS2_PLACEMENT_3D('',#554,#453,#454);
#386=AXIS2_PLACEMENT_3D('',#557,#455,#456);
#387=AXIS2_PLACEMENT_3D('',#561,#458,#459);
#388=AXIS2_PLACEMENT_3D('',#563,#461,#462);
#389=AXIS2_PLACEMENT_3D('',#569,#466,#467);
#390=AXIS2_PLACEMENT_3D('',#573,#469,#470);
#391=AXIS2_PLACEMENT_3D('',#577,#472,#473);
#392=AXIS2_PLACEMENT_3D('',#580,#475,#476);
#393=AXIS2_PLACEMENT_3D('',#581,#477,#478);
#394=AXIS2_PLACEMENT_3D('',#584,#480,#481);
#395=AXIS2_PLACEMENT_3D('',#585,#482,#483);
#396=AXIS2_PLACEMENT_3D('',#589,#486,#487);
#397=AXIS2_PLACEMENT_3D('',#591,#488,#489);
#398=AXIS2_PLACEMENT_3D('',#593,#491,#492);
#399=AXIS2_PLACEMENT_3D('',#597,#495,#496);
#400=AXIS2_PLACEMENT_3D('',#600,#498,#499);
#401=AXIS2_PLACEMENT_3D('',#601,#500,#501);
#402=AXIS2_PLACEMENT_3D('',#603,#503,#504);
#403=DIRECTION('axis',(0.,0.,1.));
#404=DIRECTION('refdir',(1.,0.,0.));
#405=DIRECTION('center_axis',(0.,0.991261617594272,-0.131910596558378));
#406=DIRECTION('ref_axis',(0.70710678118653,-0.0932748773367746,-0.700927811730876));
#407=DIRECTION('center_axis',(0.,-1.,0.));
#408=DIRECTION('ref_axis',(-3.75506013822688E-15,0.,-1.));
#409=DIRECTION('',(0.,0.991261617594272,-0.131910596558378));
#410=DIRECTION('center_axis',(0.,0.997813012942371,-0.0660998578127646));
#411=DIRECTION('ref_axis',(-2.52961058708169E-14,-0.0660998578127645,-0.997813012942371));
#412=DIRECTION('',(0.,-0.991261617594272,0.131910596558378));
#413=DIRECTION('center_axis',(0.,-0.131910596558378,-0.991261617594272));
#414=DIRECTION('ref_axis',(0.,0.991261617594272,-0.131910596558378));
#415=DIRECTION('',(1.,0.,0.));
#416=DIRECTION('',(0.,-0.991261617594272,0.131910596558378));
#417=DIRECTION('',(-1.,0.,0.));
#418=DIRECTION('center_axis',(0.,-0.991261617594272,0.131910596558378));
#419=DIRECTION('ref_axis',(-0.70710678118653,-0.0932748773367746,-0.700927811730876));
#420=DIRECTION('center_axis',(0.,0.997813012942371,-0.0660998578127646));
#421=DIRECTION('ref_axis',(2.52961058708169E-14,-0.0660998578127645,-0.997813012942371));
#422=DIRECTION('center_axis',(0.,-1.,0.));
#423=DIRECTION('ref_axis',(3.75506013822688E-15,0.,-1.));
#424=DIRECTION('',(0.,0.991261617594272,-0.131910596558378));
#425=DIRECTION('center_axis',(-1.,0.,0.));
#426=DIRECTION('ref_axis',(0.,0.,1.));
#427=DIRECTION('',(0.,0.,-1.));
#428=DIRECTION('',(0.,-0.991261617594272,0.131910596558381));
#429=DIRECTION('',(0.,0.0660998578127646,0.997813012942371));
#430=DIRECTION('center_axis',(0.,0.991261617594272,-0.131910596558381));
#431=DIRECTION('ref_axis',(-0.707106781186556,0.093274877336778,0.70092781173085));
#432=DIRECTION('center_axis',(0.,-1.,0.));
#433=DIRECTION('ref_axis',(9.74871382039669E-15,0.,1.));
#434=DIRECTION('',(0.,0.991261617594272,-0.131910596558381));
#435=DIRECTION('center_axis',(0.,0.997813012942371,-0.0660998578127646));
#436=DIRECTION('ref_axis',(3.17655122573189E-14,0.0660998578127645,0.997813012942371));
#437=DIRECTION('center_axis',(0.,0.131910596558381,0.991261617594272));
#438=DIRECTION('ref_axis',(0.,-0.991261617594272,0.131910596558381));
#439=DIRECTION('',(-1.,0.,0.));
#440=DIRECTION('',(0.,-0.991261617594272,0.131910596558381));
#441=DIRECTION('',(1.,0.,0.));
#442=DIRECTION('center_axis',(0.,-0.991261617594272,0.131910596558381));
#443=DIRECTION('ref_axis',(0.707106781186556,0.093274877336778,0.70092781173085));
#444=DIRECTION('center_axis',(0.,0.997813012942371,-0.0660998578127646));
#445=DIRECTION('ref_axis',(-3.17655122573189E-14,0.0660998578127645,0.997813012942371));
#446=DIRECTION('center_axis',(0.,-1.,0.));
#447=DIRECTION('ref_axis',(-9.74871382039669E-15,0.,1.));
#448=DIRECTION('',(0.,0.991261617594272,-0.131910596558381));
#449=DIRECTION('center_axis',(1.,0.,0.));
#450=DIRECTION('ref_axis',(0.,0.,-1.));
#451=DIRECTION('',(0.,-0.0660998578127646,-0.997813012942371));
#452=DIRECTION('',(0.,0.,1.));
#453=DIRECTION('center_axis',(0.,0.991261617594272,-0.131910596558378));
#454=DIRECTION('ref_axis',(0.70710678118653,-0.0932748773367746,-0.700927811730876));
#455=DIRECTION('center_axis',(0.,-1.,0.));
#456=DIRECTION('ref_axis',(-3.75506013822688E-15,0.,-1.));
#457=DIRECTION('',(0.,-0.991261617594272,0.131910596558378));
#458=DIRECTION('center_axis',(0.,0.997813012942371,-0.0660998578127646));
#459=DIRECTION('ref_axis',(-2.52961058708169E-14,-0.0660998578127645,-0.997813012942371));
#460=DIRECTION('',(0.,0.991261617594272,-0.131910596558378));
#461=DIRECTION('center_axis',(0.,-0.131910596558378,-0.991261617594272));
#462=DIRECTION('ref_axis',(0.,0.991261617594272,-0.131910596558378));
#463=DIRECTION('',(-1.,0.,0.));
#464=DIRECTION('',(0.,-0.991261617594272,0.131910596558378));
#465=DIRECTION('',(1.,0.,0.));
#466=DIRECTION('center_axis',(0.,-0.997813012942371,0.0660998578127646));
#467=DIRECTION('ref_axis',(0.,-0.0660998578127646,-0.997813012942371));
#468=DIRECTION('',(0.,-0.0660998578127646,-0.997813012942371));
#469=DIRECTION('center_axis',(0.,0.997813012942371,-0.0660998578127646));
#470=DIRECTION('ref_axis',(-3.17655122573189E-14,0.0660998578127645,0.997813012942371));
#471=DIRECTION('',(1.,0.,0.));
#472=DIRECTION('center_axis',(0.,0.997813012942371,-0.0660998578127646));
#473=DIRECTION('ref_axis',(3.17655122573189E-14,0.0660998578127645,0.997813012942371));
#474=DIRECTION('',(0.,0.0660998578127646,0.997813012942371));
#475=DIRECTION('center_axis',(0.,0.997813012942371,-0.0660998578127646));
#476=DIRECTION('ref_axis',(2.52961058708169E-14,-0.0660998578127645,-0.997813012942371));
#477=DIRECTION('center_axis',(0.,-0.991261617594272,0.131910596558378));
#478=DIRECTION('ref_axis',(-0.70710678118653,-0.0932748773367746,-0.700927811730876));
#479=DIRECTION('',(0.,0.991261617594272,-0.131910596558378));
#480=DIRECTION('center_axis',(0.,-1.,0.));
#481=DIRECTION('ref_axis',(3.75506013822688E-15,0.,-1.));
#482=DIRECTION('center_axis',(-1.,0.,0.));
#483=DIRECTION('ref_axis',(0.,0.,1.));
#484=DIRECTION('',(0.,-0.991261617594272,0.131910596558381));
#485=DIRECTION('',(0.,0.,-1.));
#486=DIRECTION('center_axis',(0.,0.991261617594272,-0.131910596558381));
#487=DIRECTION('ref_axis',(-0.707106781186556,0.093274877336778,0.70092781173085));
#488=DIRECTION('center_axis',(0.,-1.,0.));
#489=DIRECTION('ref_axis',(9.74871382039669E-15,0.,1.));
#490=DIRECTION('',(0.,0.991261617594272,-0.131910596558381));
#491=DIRECTION('center_axis',(0.,0.131910596558381,0.991261617594272));
#492=DIRECTION('ref_axis',(0.,-0.991261617594272,0.131910596558381));
#493=DIRECTION('',(0.,-0.991261617594272,0.131910596558381));
#494=DIRECTION('',(1.,0.,0.));
#495=DIRECTION('center_axis',(0.,-0.991261617594272,0.131910596558381));
#496=DIRECTION('ref_axis',(0.707106781186556,0.093274877336778,0.70092781173085));
#497=DIRECTION('',(0.,0.991261617594272,-0.131910596558381));
#498=DIRECTION('center_axis',(0.,-1.,0.));
#499=DIRECTION('ref_axis',(-9.74871382039669E-15,0.,1.));
#500=DIRECTION('center_axis',(1.,0.,0.));
#501=DIRECTION('ref_axis',(0.,0.,-1.));
#502=DIRECTION('',(0.,0.,1.));
#503=DIRECTION('center_axis',(0.,1.,0.));
#504=DIRECTION('ref_axis',(0.,0.,1.));
#505=CARTESIAN_POINT('',(0.,0.,0.));
#506=CARTESIAN_POINT('Origin',(0.6,57.2832523727379,40.9112590078196));
#507=CARTESIAN_POINT('',(0.6,67.25,39.5092884275083));
#508=CARTESIAN_POINT('',(0.675,67.25,39.5849495836237));
#509=CARTESIAN_POINT('Origin',(0.6,67.25,39.5849495836237));
#510=CARTESIAN_POINT('',(0.6,54.0049683550642,41.2718503937008));
#511=CARTESIAN_POINT('',(0.6,57.273359077996,40.8369143865));
#512=CARTESIAN_POINT('',(0.675,54.0099367101284,41.3468503937008));
#513=CARTESIAN_POINT('Origin',(0.6,54.0099367101284,41.3468503937008));
#514=CARTESIAN_POINT('',(0.675,57.2832523727379,40.9112590078196));
#515=CARTESIAN_POINT('Origin',(0.,54.0098932947419,41.2711950150204));
#516=CARTESIAN_POINT('',(-0.6,67.25,39.5092884275083));
#517=CARTESIAN_POINT('',(0.,67.25,39.5092884275083));
#518=CARTESIAN_POINT('',(-0.6,54.0049683550642,41.2718503937008));
#519=CARTESIAN_POINT('',(-0.6,57.273359077996,40.8369143865));
#520=CARTESIAN_POINT('',(0.,54.0049683550642,41.2718503937008));
#521=CARTESIAN_POINT('Origin',(-0.6,57.2832523727379,40.9112590078196));
#522=CARTESIAN_POINT('',(-0.675,54.0099367101284,41.3468503937008));
#523=CARTESIAN_POINT('Origin',(-0.6,54.0099367101284,41.3468503937008));
#524=CARTESIAN_POINT('',(-0.675,67.25,39.5849495836237));
#525=CARTESIAN_POINT('Origin',(-0.6,67.25,39.5849495836237));
#526=CARTESIAN_POINT('',(-0.675,57.2832523727379,40.9112590078196));
#527=CARTESIAN_POINT('Origin',(-0.675,60.625,41.0652388325469));
#528=CARTESIAN_POINT('',(-0.675,67.25,40.79552808147));
#529=CARTESIAN_POINT('',(-0.675,67.25,40.2494330519699));
#530=CARTESIAN_POINT('',(-0.675,54.0894303911552,42.5468503937008));
#531=CARTESIAN_POINT('',(-0.675,63.9676121411892,41.2323267357371));
#532=CARTESIAN_POINT('',(-0.675,54.0598162566148,42.0998090567113));
#533=CARTESIAN_POINT('Origin',(-0.6,63.9676121411892,41.2323267357371));
#534=CARTESIAN_POINT('',(-0.6,67.25,40.8711892375854));
#535=CARTESIAN_POINT('Origin',(-0.6,67.25,40.79552808147));
#536=CARTESIAN_POINT('',(-0.6,54.0943987462194,42.6218503937008));
#537=CARTESIAN_POINT('',(-0.6,63.9775054359311,41.3066713570566));
#538=CARTESIAN_POINT('Origin',(-0.6,54.0894303911552,42.5468503937008));
#539=CARTESIAN_POINT('Origin',(0.,67.2401067052581,40.8725057723813));
#540=CARTESIAN_POINT('',(0.6,67.25,40.8711892375854));
#541=CARTESIAN_POINT('',(0.,67.25,40.8711892375854));
#542=CARTESIAN_POINT('',(0.6,54.0943987462194,42.6218503937008));
#543=CARTESIAN_POINT('',(0.6,63.9775054359311,41.3066713570566));
#544=CARTESIAN_POINT('',(0.,54.0943987462194,42.6218503937008));
#545=CARTESIAN_POINT('Origin',(0.6,63.9676121411892,41.2323267357371));
#546=CARTESIAN_POINT('',(0.675,54.0894303911552,42.5468503937008));
#547=CARTESIAN_POINT('Origin',(0.6,54.0894303911552,42.5468503937008));
#548=CARTESIAN_POINT('',(0.675,67.25,40.79552808147));
#549=CARTESIAN_POINT('Origin',(0.6,67.25,40.79552808147));
#550=CARTESIAN_POINT('',(0.675,63.9676121411892,41.2323267357371));
#551=CARTESIAN_POINT('Origin',(0.675,60.625,41.0652388325469));
#552=CARTESIAN_POINT('',(0.675,54.0598162566148,42.0998090567113));
#553=CARTESIAN_POINT('',(0.675,67.25,40.2494330519699));
#554=CARTESIAN_POINT('Origin',(0.6,57.2832523727379,40.9112590078196));
#555=CARTESIAN_POINT('',(0.6,67.25,39.4336272713929));
#556=CARTESIAN_POINT('',(0.75,67.25,39.5849495836237));
#557=CARTESIAN_POINT('Origin',(0.6,67.25,39.5849495836237));
#558=CARTESIAN_POINT('',(0.75,54.0099367101284,41.3468503937008));
#559=CARTESIAN_POINT('',(0.75,57.2832523727379,40.9112590078196));
#560=CARTESIAN_POINT('',(0.6,54.,41.1968503937008));
#561=CARTESIAN_POINT('Origin',(0.6,54.0099367101284,41.3468503937008));
#562=CARTESIAN_POINT('',(0.6,57.2634657832541,40.7625697651805));
#563=CARTESIAN_POINT('Origin',(0.,54.,41.1968503937008));
#564=CARTESIAN_POINT('',(-0.6,54.,41.1968503937008));
#565=CARTESIAN_POINT('',(0.,54.,41.1968503937008));
#566=CARTESIAN_POINT('',(-0.6,67.25,39.4336272713929));
#567=CARTESIAN_POINT('',(-0.6,57.2634657832541,40.7625697651805));
#568=CARTESIAN_POINT('',(0.,67.25,39.4336272713929));
#569=CARTESIAN_POINT('Origin',(0.,54.0993671012836,42.6968503937008));
#570=CARTESIAN_POINT('',(0.75,54.0894303911552,42.5468503937008));
#571=CARTESIAN_POINT('',(0.75,54.0993671012836,42.6968503937008));
#572=CARTESIAN_POINT('',(0.6,54.0993671012836,42.6968503937008));
#573=CARTESIAN_POINT('Origin',(0.6,54.0894303911552,42.5468503937008));
#574=CARTESIAN_POINT('',(-0.6,54.0993671012836,42.6968503937008));
#575=CARTESIAN_POINT('',(0.,54.0993671012836,42.6968503937008));
#576=CARTESIAN_POINT('',(-0.75,54.0894303911552,42.5468503937008));
#577=CARTESIAN_POINT('Origin',(-0.6,54.0894303911552,42.5468503937008));
#578=CARTESIAN_POINT('',(-0.75,54.0099367101284,41.3468503937008));
#579=CARTESIAN_POINT('',(-0.75,54.0993671012836,42.6968503937008));
#580=CARTESIAN_POINT('Origin',(-0.6,54.0099367101284,41.3468503937008));
#581=CARTESIAN_POINT('Origin',(-0.6,57.2832523727379,40.9112590078196));
#582=CARTESIAN_POINT('',(-0.75,67.25,39.5849495836237));
#583=CARTESIAN_POINT('',(-0.75,57.2832523727379,40.9112590078196));
#584=CARTESIAN_POINT('Origin',(-0.6,67.25,39.5849495836237));
#585=CARTESIAN_POINT('Origin',(-0.75,60.625,41.0652388325469));
#586=CARTESIAN_POINT('',(-0.75,67.25,40.79552808147));
#587=CARTESIAN_POINT('',(-0.75,63.9676121411892,41.2323267357371));
#588=CARTESIAN_POINT('',(-0.75,67.25,36.9468503937008));
#589=CARTESIAN_POINT('Origin',(-0.6,63.9676121411892,41.2323267357371));
#590=CARTESIAN_POINT('',(-0.6,67.25,40.9468503937008));
#591=CARTESIAN_POINT('Origin',(-0.6,67.25,40.79552808147));
#592=CARTESIAN_POINT('',(-0.6,63.9873987306729,41.3810159783762));
#593=CARTESIAN_POINT('Origin',(0.,67.25,40.9468503937008));
#594=CARTESIAN_POINT('',(0.6,67.25,40.9468503937008));
#595=CARTESIAN_POINT('',(0.6,63.9873987306729,41.3810159783762));
#596=CARTESIAN_POINT('',(0.,67.25,40.9468503937008));
#597=CARTESIAN_POINT('Origin',(0.6,63.9676121411892,41.2323267357371));
#598=CARTESIAN_POINT('',(0.75,67.25,40.79552808147));
#599=CARTESIAN_POINT('',(0.75,63.9676121411892,41.2323267357371));
#600=CARTESIAN_POINT('Origin',(0.6,67.25,40.79552808147));
#601=CARTESIAN_POINT('Origin',(0.75,60.625,41.0652388325469));
#602=CARTESIAN_POINT('',(0.75,67.25,36.9468503937008));
#603=CARTESIAN_POINT('Origin',(0.,67.25,39.4336272713929));
#604=UNCERTAINTY_MEASURE_WITH_UNIT(LENGTH_MEASURE(0.000393700787401575),
#610,'DISTANCE_ACCURACY_VALUE',
'Maximum model space distance between geometric entities at asserted c
onnectivities');
#605=UNCERTAINTY_MEASURE_WITH_UNIT(LENGTH_MEASURE(0.000393700787401575),
#610,'DISTANCE_ACCURACY_VALUE',
'Maximum model space distance between geometric entities at asserted c
onnectivities');
#606=(
GEOMETRIC_REPRESENTATION_CONTEXT(3)
GLOBAL_UNCERTAINTY_ASSIGNED_CONTEXT((#604))
GLOBAL_UNIT_ASSIGNED_CONTEXT((#610,#614,#615))
REPRESENTATION_CONTEXT('','3D')
);
#607=(
GEOMETRIC_REPRESENTATION_CONTEXT(3)
GLOBAL_UNCERTAINTY_ASSIGNED_CONTEXT((#605))
GLOBAL_UNIT_ASSIGNED_CONTEXT((#610,#614,#615))
REPRESENTATION_CONTEXT('','3D')
);
#608=DIMENSIONAL_EXPONENTS(1.,0.,0.,0.,0.,0.,0.);
#609=DIMENSIONAL_EXPONENTS(0.,1.,0.,0.,0.,0.,0.);
#610=(
CONVERSION_BASED_UNIT('inch',#613)
LENGTH_UNIT()
NAMED_UNIT(#608)
);
#611=(
LENGTH_UNIT()
NAMED_UNIT(*)
SI_UNIT(.MILLI.,.METRE.)
);
#612=(
LENGTH_UNIT()
NAMED_UNIT(*)
SI_UNIT(.CENTI.,.METRE.)
);
#613=LENGTH_MEASURE_WITH_UNIT(LENGTH_MEASURE(25.4),#611);
#614=(
NAMED_UNIT(*)
PLANE_ANGLE_UNIT()
SI_UNIT($,.RADIAN.)
);
#615=(
NAMED_UNIT(*)
SI_UNIT($,.STERADIAN.)
SOLID_ANGLE_UNIT()
);
#616=SHAPE_DEFINITION_REPRESENTATION(#617,#618);
#617=PRODUCT_DEFINITION_SHAPE('',$,#620);
#618=SHAPE_REPRESENTATION('',(#368),#606);
#619=PRODUCT_DEFINITION_CONTEXT('part definition',#624,'design');
#620=PRODUCT_DEFINITION('CRA-1005','CRA-1005',#621,#619);
#621=PRODUCT_DEFINITION_FORMATION('',$,#626);
#622=PRODUCT_RELATED_PRODUCT_CATEGORY('CRA-1005','CRA-1005',(#626));
#623=APPLICATION_PROTOCOL_DEFINITION('international standard',
'automotive_design',2009,#624);
#624=APPLICATION_CONTEXT(
'Core Data for Automotive Mechanical Design Process');
#625=PRODUCT_CONTEXT('part definition',#624,'mechanical');
#626=PRODUCT('CRA-1005','CRA-1005','Robot Arm Tube 4',(#625));
#627=PRESENTATION_STYLE_ASSIGNMENT((#628));
#628=SURFACE_STYLE_USAGE(.BOTH.,#631);
#629=SURFACE_STYLE_RENDERING_WITH_PROPERTIES($,#635,(#630));
#630=SURFACE_STYLE_TRANSPARENT(0.);
#631=SURFACE_SIDE_STYLE('',(#632,#629));
#632=SURFACE_STYLE_FILL_AREA(#633);
#633=FILL_AREA_STYLE('',(#634));
#634=FILL_AREA_STYLE_COLOUR('',#635);
#635=COLOUR_RGB('',0.749019607843137,0.749019607843137,0.749019607843137);
ENDSEC;
END-ISO-10303-21;
