ISO-10303-21;
HEADER;
/* Generated by software containing ST-Developer
 * from STEP Tools, Inc. (www.steptools.com) 
 */

FILE_DESCRIPTION(
/* description */ ('Robot Arm Pivot Bushing'),
/* implementation_level */ '2;1');

FILE_NAME(
/* name */ 'CRA-1020.stp',
/* time_stamp */ '2025-12-22T15:24:03-06:00',
/* author */ ('josh'),
/* organization */ (''),
/* preprocessor_version */ 'ST-DEVELOPER v20',
/* originating_system */ 'Autodesk Inventor 2025',
/* authorisation */ '');

FILE_SCHEMA (('AUTOMOTIVE_DESIGN { 1 0 10303 214 3 1 1 }'));
ENDSEC;

DATA;
#10=MECHANICAL_DESIGN_GEOMETRIC_PRESENTATION_REPRESENTATION('',(#13),#178);
#11=SHAPE_REPRESENTATION_RELATIONSHIP('SRR','None',#189,#12);
#12=ADVANCED_BREP_SHAPE_REPRESENTATION('',(#14),#177);
#13=STYLED_ITEM('',(#198),#14);
#14=MANIFOLD_SOLID_BREP('CRA-1020',#90);
#15=LINE('',#162,#18);
#16=LINE('',#169,#19);
#17=LINE('',#173,#20);
#18=VECTOR('',#136,0.875);
#19=VECTOR('',#145,0.500999999999999);
#20=VECTOR('',#150,0.6825);
#21=CYLINDRICAL_SURFACE('',#115,0.875);
#22=CYLINDRICAL_SURFACE('',#119,0.500999999999999);
#23=CYLINDRICAL_SURFACE('',#121,0.6825);
#24=FACE_BOUND('',#34,.T.);
#25=FACE_BOUND('',#37,.T.);
#26=FACE_BOUND('',#41,.T.);
#27=FACE_OUTER_BOUND('',#33,.T.);
#28=FACE_OUTER_BOUND('',#35,.T.);
#29=FACE_OUTER_BOUND('',#36,.T.);
#30=FACE_OUTER_BOUND('',#38,.T.);
#31=FACE_OUTER_BOUND('',#39,.T.);
#32=FACE_OUTER_BOUND('',#40,.T.);
#33=EDGE_LOOP('',(#63));
#34=EDGE_LOOP('',(#64));
#35=EDGE_LOOP('',(#65,#66,#67,#68));
#36=EDGE_LOOP('',(#69));
#37=EDGE_LOOP('',(#70));
#38=EDGE_LOOP('',(#71,#72,#73,#74));
#39=EDGE_LOOP('',(#75,#76,#77,#78));
#40=EDGE_LOOP('',(#79));
#41=EDGE_LOOP('',(#80));
#42=CIRCLE('',#113,0.875);
#43=CIRCLE('',#114,0.6825);
#44=CIRCLE('',#116,0.875);
#45=CIRCLE('',#118,0.500999999999999);
#46=CIRCLE('',#120,0.500999999999999);
#47=CIRCLE('',#122,0.6825);
#48=VERTEX_POINT('',#155);
#49=VERTEX_POINT('',#157);
#50=VERTEX_POINT('',#160);
#51=VERTEX_POINT('',#164);
#52=VERTEX_POINT('',#167);
#53=VERTEX_POINT('',#171);
#54=EDGE_CURVE('',#48,#48,#42,.T.);
#55=EDGE_CURVE('',#49,#49,#43,.T.);
#56=EDGE_CURVE('',#50,#50,#44,.T.);
#57=EDGE_CURVE('',#50,#48,#15,.T.);
#58=EDGE_CURVE('',#51,#51,#45,.T.);
#59=EDGE_CURVE('',#52,#52,#46,.T.);
#60=EDGE_CURVE('',#52,#51,#16,.T.);
#61=EDGE_CURVE('',#53,#53,#47,.T.);
#62=EDGE_CURVE('',#53,#49,#17,.T.);
#63=ORIENTED_EDGE('',*,*,#54,.F.);
#64=ORIENTED_EDGE('',*,*,#55,.T.);
#65=ORIENTED_EDGE('',*,*,#56,.F.);
#66=ORIENTED_EDGE('',*,*,#57,.T.);
#67=ORIENTED_EDGE('',*,*,#54,.T.);
#68=ORIENTED_EDGE('',*,*,#57,.F.);
#69=ORIENTED_EDGE('',*,*,#56,.T.);
#70=ORIENTED_EDGE('',*,*,#58,.T.);
#71=ORIENTED_EDGE('',*,*,#59,.F.);
#72=ORIENTED_EDGE('',*,*,#60,.T.);
#73=ORIENTED_EDGE('',*,*,#58,.F.);
#74=ORIENTED_EDGE('',*,*,#60,.F.);
#75=ORIENTED_EDGE('',*,*,#61,.F.);
#76=ORIENTED_EDGE('',*,*,#62,.T.);
#77=ORIENTED_EDGE('',*,*,#55,.F.);
#78=ORIENTED_EDGE('',*,*,#62,.F.);
#79=ORIENTED_EDGE('',*,*,#61,.T.);
#80=ORIENTED_EDGE('',*,*,#59,.T.);
#81=PLANE('',#112);
#82=PLANE('',#117);
#83=PLANE('',#123);
#84=ADVANCED_FACE('',(#27,#24),#81,.F.);
#85=ADVANCED_FACE('',(#28),#21,.T.);
#86=ADVANCED_FACE('',(#29,#25),#82,.T.);
#87=ADVANCED_FACE('',(#30),#22,.F.);
#88=ADVANCED_FACE('',(#31),#23,.T.);
#89=ADVANCED_FACE('',(#32,#26),#83,.F.);
#90=CLOSED_SHELL('',(#84,#85,#86,#87,#88,#89));
#91=DERIVED_UNIT_ELEMENT(#93,1.);
#92=DERIVED_UNIT_ELEMENT(#183,-3.);
#93=(
CONVERSION_BASED_UNIT('gram',#95)
MASS_UNIT()
NAMED_UNIT(#180)
);
#94=(
MASS_UNIT()
NAMED_UNIT(*)
SI_UNIT(.KILO.,.GRAM.)
);
#95=MASS_MEASURE_WITH_UNIT(MASS_MEASURE(0.001),#94);
#96=DERIVED_UNIT((#91,#92));
#97=MEASURE_REPRESENTATION_ITEM('density measure',
POSITIVE_RATIO_MEASURE(1.),#96);
#98=PROPERTY_DEFINITION_REPRESENTATION(#103,#100);
#99=PROPERTY_DEFINITION_REPRESENTATION(#104,#101);
#100=REPRESENTATION('material name',(#102),#177);
#101=REPRESENTATION('density',(#97),#177);
#102=DESCRIPTIVE_REPRESENTATION_ITEM('Generic','Generic');
#103=PROPERTY_DEFINITION('material property','material name',#191);
#104=PROPERTY_DEFINITION('material property','density of part',#191);
#105=DATE_TIME_ROLE('creation_date');
#106=APPLIED_DATE_AND_TIME_ASSIGNMENT(#107,#105,(#191));
#107=DATE_AND_TIME(#108,#109);
#108=CALENDAR_DATE(2025,20,12);
#109=LOCAL_TIME(0,0,0.,#110);
#110=COORDINATED_UNIVERSAL_TIME_OFFSET(0,0,.BEHIND.);
#111=AXIS2_PLACEMENT_3D('',#153,#124,#125);
#112=AXIS2_PLACEMENT_3D('',#154,#126,#127);
#113=AXIS2_PLACEMENT_3D('',#156,#128,#129);
#114=AXIS2_PLACEMENT_3D('',#158,#130,#131);
#115=AXIS2_PLACEMENT_3D('',#159,#132,#133);
#116=AXIS2_PLACEMENT_3D('',#161,#134,#135);
#117=AXIS2_PLACEMENT_3D('',#163,#137,#138);
#118=AXIS2_PLACEMENT_3D('',#165,#139,#140);
#119=AXIS2_PLACEMENT_3D('',#166,#141,#142);
#120=AXIS2_PLACEMENT_3D('',#168,#143,#144);
#121=AXIS2_PLACEMENT_3D('',#170,#146,#147);
#122=AXIS2_PLACEMENT_3D('',#172,#148,#149);
#123=AXIS2_PLACEMENT_3D('',#174,#151,#152);
#124=DIRECTION('axis',(0.,0.,1.));
#125=DIRECTION('refdir',(1.,0.,0.));
#126=DIRECTION('center_axis',(1.,0.,0.));
#127=DIRECTION('ref_axis',(0.,0.,-1.));
#128=DIRECTION('center_axis',(1.,0.,0.));
#129=DIRECTION('ref_axis',(0.,0.,-1.));
#130=DIRECTION('center_axis',(1.,0.,0.));
#131=DIRECTION('ref_axis',(0.,0.,-1.));
#132=DIRECTION('center_axis',(1.,0.,0.));
#133=DIRECTION('ref_axis',(0.,0.,-1.));
#134=DIRECTION('center_axis',(1.,0.,0.));
#135=DIRECTION('ref_axis',(0.,0.,-1.));
#136=DIRECTION('',(-1.,0.,0.));
#137=DIRECTION('center_axis',(1.,0.,0.));
#138=DIRECTION('ref_axis',(0.,0.,-1.));
#139=DIRECTION('center_axis',(-1.,0.,0.));
#140=DIRECTION('ref_axis',(0.,0.,1.));
#141=DIRECTION('center_axis',(-1.,0.,0.));
#142=DIRECTION('ref_axis',(0.,0.,1.));
#143=DIRECTION('center_axis',(1.,0.,0.));
#144=DIRECTION('ref_axis',(0.,0.,1.));
#145=DIRECTION('',(1.,0.,0.));
#146=DIRECTION('center_axis',(-1.,0.,0.));
#147=DIRECTION('ref_axis',(0.,0.,-1.));
#148=DIRECTION('center_axis',(-1.,0.,0.));
#149=DIRECTION('ref_axis',(0.,0.,-1.));
#150=DIRECTION('',(1.,0.,0.));
#151=DIRECTION('center_axis',(1.,0.,0.));
#152=DIRECTION('ref_axis',(0.,0.,-1.));
#153=CARTESIAN_POINT('',(0.,0.,0.));
#154=CARTESIAN_POINT('Origin',(2.,5.59482469102441E-15,38.1968503937008));
#155=CARTESIAN_POINT('',(2.,5.48766809609902E-15,39.0718503937008));
#156=CARTESIAN_POINT('Origin',(2.,5.59482469102441E-15,38.1968503937008));
#157=CARTESIAN_POINT('',(2.,5.67840683506622E-15,38.8793503937008));
#158=CARTESIAN_POINT('Origin',(2.,5.59482469102441E-15,38.1968503937008));
#159=CARTESIAN_POINT('Origin',(2.,5.59482469102441E-15,38.1968503937008));
#160=CARTESIAN_POINT('',(2.75,5.48766809609902E-15,39.0718503937008));
#161=CARTESIAN_POINT('Origin',(2.75,5.59482469102441E-15,38.1968503937008));
#162=CARTESIAN_POINT('',(2.,5.48766809609902E-15,39.0718503937008));
#163=CARTESIAN_POINT('Origin',(2.75,5.59482469102441E-15,38.1968503937008));
#164=CARTESIAN_POINT('',(2.75,5.65617949566169E-15,37.6958503937008));
#165=CARTESIAN_POINT('Origin',(2.75,5.59482469102441E-15,38.1968503937008));
#166=CARTESIAN_POINT('Origin',(2.,5.59482469102441E-15,38.1968503937008));
#167=CARTESIAN_POINT('',(1.25,5.65617949566169E-15,37.6958503937008));
#168=CARTESIAN_POINT('Origin',(1.25,5.59482469102441E-15,38.1968503937008));
#169=CARTESIAN_POINT('',(2.,5.53346988638713E-15,37.6958503937008));
#170=CARTESIAN_POINT('Origin',(2.,5.59482469102441E-15,38.1968503937008));
#171=CARTESIAN_POINT('',(1.25,5.67840683506622E-15,38.8793503937008));
#172=CARTESIAN_POINT('Origin',(1.25,5.59482469102441E-15,38.1968503937008));
#173=CARTESIAN_POINT('',(2.,5.67840683506622E-15,38.8793503937008));
#174=CARTESIAN_POINT('Origin',(1.25,5.59482469102441E-15,38.1968503937008));
#175=UNCERTAINTY_MEASURE_WITH_UNIT(LENGTH_MEASURE(0.000393700787401575),
#181,'DISTANCE_ACCURACY_VALUE',
'Maximum model space distance between geometric entities at asserted c
onnectivities');
#176=UNCERTAINTY_MEASURE_WITH_UNIT(LENGTH_MEASURE(0.000393700787401575),
#181,'DISTANCE_ACCURACY_VALUE',
'Maximum model space distance between geometric entities at asserted c
onnectivities');
#177=(
GEOMETRIC_REPRESENTATION_CONTEXT(3)
GLOBAL_UNCERTAINTY_ASSIGNED_CONTEXT((#175))
GLOBAL_UNIT_ASSIGNED_CONTEXT((#181,#185,#186))
REPRESENTATION_CONTEXT('','3D')
);
#178=(
GEOMETRIC_REPRESENTATION_CONTEXT(3)
GLOBAL_UNCERTAINTY_ASSIGNED_CONTEXT((#176))
GLOBAL_UNIT_ASSIGNED_CONTEXT((#181,#185,#186))
REPRESENTATION_CONTEXT('','3D')
);
#179=DIMENSIONAL_EXPONENTS(1.,0.,0.,0.,0.,0.,0.);
#180=DIMENSIONAL_EXPONENTS(0.,1.,0.,0.,0.,0.,0.);
#181=(
CONVERSION_BASED_UNIT('inch',#184)
LENGTH_UNIT()
NAMED_UNIT(#179)
);
#182=(
LENGTH_UNIT()
NAMED_UNIT(*)
SI_UNIT(.MILLI.,.METRE.)
);
#183=(
LENGTH_UNIT()
NAMED_UNIT(*)
SI_UNIT(.CENTI.,.METRE.)
);
#184=LENGTH_MEASURE_WITH_UNIT(LENGTH_MEASURE(25.4),#182);
#185=(
NAMED_UNIT(*)
PLANE_ANGLE_UNIT()
SI_UNIT($,.RADIAN.)
);
#186=(
NAMED_UNIT(*)
SI_UNIT($,.STERADIAN.)
SOLID_ANGLE_UNIT()
);
#187=SHAPE_DEFINITION_REPRESENTATION(#188,#189);
#188=PRODUCT_DEFINITION_SHAPE('',$,#191);
#189=SHAPE_REPRESENTATION('',(#111),#177);
#190=PRODUCT_DEFINITION_CONTEXT('part definition',#195,'design');
#191=PRODUCT_DEFINITION('CRA-1020','CRA-1020',#192,#190);
#192=PRODUCT_DEFINITION_FORMATION('',$,#197);
#193=PRODUCT_RELATED_PRODUCT_CATEGORY('CRA-1020','CRA-1020',(#197));
#194=APPLICATION_PROTOCOL_DEFINITION('international standard',
'automotive_design',2009,#195);
#195=APPLICATION_CONTEXT(
'Core Data for Automotive Mechanical Design Process');
#196=PRODUCT_CONTEXT('part definition',#195,'mechanical');
#197=PRODUCT('CRA-1020','CRA-1020','Robot Arm Pivot Bushing',(#196));
#198=PRESENTATION_STYLE_ASSIGNMENT((#199));
#199=SURFACE_STYLE_USAGE(.BOTH.,#202);
#200=SURFACE_STYLE_RENDERING_WITH_PROPERTIES($,#206,(#201));
#201=SURFACE_STYLE_TRANSPARENT(0.);
#202=SURFACE_SIDE_STYLE('',(#203,#200));
#203=SURFACE_STYLE_FILL_AREA(#204);
#204=FILL_AREA_STYLE('',(#205));
#205=FILL_AREA_STYLE_COLOUR('',#206);
#206=COLOUR_RGB('',0.749019607843137,0.749019607843137,0.749019607843137);
ENDSEC;
END-ISO-10303-21;
