ISO-10303-21;
HEADER;
/* Generated by software containing ST-Developer
 * from STEP Tools, Inc. (www.steptools.com) 
 */

FILE_DESCRIPTION(
/* description */ ('Robot Arm Tube 10'),
/* implementation_level */ '2;1');

FILE_NAME(
/* name */ 'CRA-1011.stp',
/* time_stamp */ '2025-12-22T15:25:11-06:00',
/* author */ ('josh'),
/* organization */ (''),
/* preprocessor_version */ 'ST-DEVELOPER v20',
/* originating_system */ 'Autodesk Inventor 2025',
/* authorisation */ '');

FILE_SCHEMA (('AUTOMOTIVE_DESIGN { 1 0 10303 214 3 1 1 }'));
ENDSEC;

DATA;
#10=MECHANICAL_DESIGN_GEOMETRIC_PRESENTATION_REPRESENTATION('',(#13),#1403);
#11=SHAPE_REPRESENTATION_RELATIONSHIP('SRR','None',#1414,#12);
#12=ADVANCED_BREP_SHAPE_REPRESENTATION('',(#14),#1402);
#13=STYLED_ITEM('',(#1423),#14);
#14=MANIFOLD_SOLID_BREP('CRA-1011',#815);
#15=CYLINDRICAL_SURFACE('',#854,0.02);
#16=CYLINDRICAL_SURFACE('',#856,0.02);
#17=CYLINDRICAL_SURFACE('',#867,0.02);
#18=CYLINDRICAL_SURFACE('',#869,0.02);
#19=CYLINDRICAL_SURFACE('',#871,0.0200000393700787);
#20=CYLINDRICAL_SURFACE('',#873,0.0200000393700787);
#21=CYLINDRICAL_SURFACE('',#887,0.02);
#22=CYLINDRICAL_SURFACE('',#888,0.02);
#23=CYLINDRICAL_SURFACE('',#898,0.02);
#24=CYLINDRICAL_SURFACE('',#899,0.02);
#25=CYLINDRICAL_SURFACE('',#900,0.0200000393700787);
#26=CYLINDRICAL_SURFACE('',#901,0.0200000393700787);
#27=CYLINDRICAL_SURFACE('',#903,0.075);
#28=CYLINDRICAL_SURFACE('',#905,0.075);
#29=CYLINDRICAL_SURFACE('',#906,0.075);
#30=CYLINDRICAL_SURFACE('',#908,0.075);
#31=CYLINDRICAL_SURFACE('',#910,0.15);
#32=CYLINDRICAL_SURFACE('',#912,0.15);
#33=CYLINDRICAL_SURFACE('',#913,0.15);
#34=CYLINDRICAL_SURFACE('',#915,0.15);
#35=CIRCLE('',#840,0.02);
#36=CIRCLE('',#841,0.0200000393700787);
#37=CIRCLE('',#842,0.02);
#38=CIRCLE('',#843,0.02);
#39=CIRCLE('',#844,0.0200000393700787);
#40=CIRCLE('',#845,0.02);
#41=CIRCLE('',#846,0.02);
#42=CIRCLE('',#847,0.0200000393700787);
#43=CIRCLE('',#848,0.02);
#44=CIRCLE('',#849,0.02);
#45=CIRCLE('',#850,0.0200000393700787);
#46=CIRCLE('',#851,0.02);
#47=CIRCLE('',#855,0.02);
#48=CIRCLE('',#857,0.02);
#49=CIRCLE('',#859,0.15);
#50=CIRCLE('',#860,0.15);
#51=CIRCLE('',#861,0.15);
#52=CIRCLE('',#862,0.15);
#53=CIRCLE('',#863,0.075);
#54=CIRCLE('',#864,0.075);
#55=CIRCLE('',#865,0.075);
#56=CIRCLE('',#866,0.075);
#57=CIRCLE('',#868,0.02);
#58=CIRCLE('',#870,0.02);
#59=CIRCLE('',#872,0.0200000393700787);
#60=CIRCLE('',#874,0.0200000393700787);
#61=CIRCLE('',#876,0.02);
#62=CIRCLE('',#877,0.0200000393700787);
#63=CIRCLE('',#878,0.02);
#64=CIRCLE('',#879,0.02);
#65=CIRCLE('',#880,0.0200000393700787);
#66=CIRCLE('',#881,0.02);
#67=CIRCLE('',#890,0.15);
#68=CIRCLE('',#891,0.15);
#69=CIRCLE('',#892,0.15);
#70=CIRCLE('',#893,0.15);
#71=CIRCLE('',#894,0.075);
#72=CIRCLE('',#895,0.075);
#73=CIRCLE('',#896,0.075);
#74=CIRCLE('',#897,0.075);
#75=FACE_OUTER_BOUND('',#115,.T.);
#76=FACE_OUTER_BOUND('',#116,.T.);
#77=FACE_OUTER_BOUND('',#117,.T.);
#78=FACE_OUTER_BOUND('',#118,.T.);
#79=FACE_OUTER_BOUND('',#119,.T.);
#80=FACE_OUTER_BOUND('',#120,.T.);
#81=FACE_OUTER_BOUND('',#121,.T.);
#82=FACE_OUTER_BOUND('',#122,.T.);
#83=FACE_OUTER_BOUND('',#123,.T.);
#84=FACE_OUTER_BOUND('',#124,.T.);
#85=FACE_OUTER_BOUND('',#125,.T.);
#86=FACE_OUTER_BOUND('',#126,.T.);
#87=FACE_OUTER_BOUND('',#127,.T.);
#88=FACE_OUTER_BOUND('',#128,.T.);
#89=FACE_OUTER_BOUND('',#129,.T.);
#90=FACE_OUTER_BOUND('',#130,.T.);
#91=FACE_OUTER_BOUND('',#131,.T.);
#92=FACE_OUTER_BOUND('',#132,.T.);
#93=FACE_OUTER_BOUND('',#133,.T.);
#94=FACE_OUTER_BOUND('',#134,.T.);
#95=FACE_OUTER_BOUND('',#135,.T.);
#96=FACE_OUTER_BOUND('',#136,.T.);
#97=FACE_OUTER_BOUND('',#137,.T.);
#98=FACE_OUTER_BOUND('',#138,.T.);
#99=FACE_OUTER_BOUND('',#139,.T.);
#100=FACE_OUTER_BOUND('',#140,.T.);
#101=FACE_OUTER_BOUND('',#141,.T.);
#102=FACE_OUTER_BOUND('',#142,.T.);
#103=FACE_OUTER_BOUND('',#143,.T.);
#104=FACE_OUTER_BOUND('',#144,.T.);
#105=FACE_OUTER_BOUND('',#145,.T.);
#106=FACE_OUTER_BOUND('',#146,.T.);
#107=FACE_OUTER_BOUND('',#147,.T.);
#108=FACE_OUTER_BOUND('',#148,.T.);
#109=FACE_OUTER_BOUND('',#149,.T.);
#110=FACE_OUTER_BOUND('',#150,.T.);
#111=FACE_OUTER_BOUND('',#151,.T.);
#112=FACE_OUTER_BOUND('',#152,.T.);
#113=FACE_OUTER_BOUND('',#153,.T.);
#114=FACE_OUTER_BOUND('',#154,.T.);
#115=EDGE_LOOP('',(#515,#516,#517,#518));
#116=EDGE_LOOP('',(#519,#520,#521,#522));
#117=EDGE_LOOP('',(#523,#524,#525,#526,#527,#528,#529,#530,#531,#532,#533,
#534,#535,#536,#537,#538,#539,#540,#541,#542,#543,#544,#545,#546,#547,#548,
#549,#550));
#118=EDGE_LOOP('',(#551,#552,#553,#554));
#119=EDGE_LOOP('',(#555,#556,#557,#558));
#120=EDGE_LOOP('',(#559,#560,#561,#562));
#121=EDGE_LOOP('',(#563,#564,#565,#566));
#122=EDGE_LOOP('',(#567,#568,#569,#570,#571,#572,#573,#574,#575,#576,#577,
#578,#579,#580,#581,#582,#583,#584,#585,#586));
#123=EDGE_LOOP('',(#587,#588,#589,#590));
#124=EDGE_LOOP('',(#591,#592,#593,#594));
#125=EDGE_LOOP('',(#595,#596,#597,#598));
#126=EDGE_LOOP('',(#599,#600,#601,#602));
#127=EDGE_LOOP('',(#603,#604,#605,#606,#607,#608,#609,#610,#611,#612,#613,
#614,#615,#616,#617,#618,#619,#620,#621,#622,#623,#624,#625,#626,#627,#628,
#629,#630));
#128=EDGE_LOOP('',(#631,#632,#633,#634));
#129=EDGE_LOOP('',(#635,#636,#637,#638));
#130=EDGE_LOOP('',(#639,#640,#641,#642));
#131=EDGE_LOOP('',(#643,#644,#645,#646));
#132=EDGE_LOOP('',(#647,#648,#649,#650));
#133=EDGE_LOOP('',(#651,#652,#653,#654));
#134=EDGE_LOOP('',(#655,#656,#657,#658));
#135=EDGE_LOOP('',(#659,#660,#661,#662,#663,#664,#665,#666,#667,#668,#669,
#670,#671,#672,#673,#674,#675,#676,#677,#678));
#136=EDGE_LOOP('',(#679,#680,#681,#682));
#137=EDGE_LOOP('',(#683,#684,#685,#686));
#138=EDGE_LOOP('',(#687,#688,#689,#690));
#139=EDGE_LOOP('',(#691,#692,#693,#694));
#140=EDGE_LOOP('',(#695,#696,#697,#698));
#141=EDGE_LOOP('',(#699,#700,#701,#702));
#142=EDGE_LOOP('',(#703,#704,#705,#706));
#143=EDGE_LOOP('',(#707,#708,#709,#710));
#144=EDGE_LOOP('',(#711,#712,#713,#714));
#145=EDGE_LOOP('',(#715,#716,#717,#718));
#146=EDGE_LOOP('',(#719,#720,#721,#722));
#147=EDGE_LOOP('',(#723,#724,#725,#726));
#148=EDGE_LOOP('',(#727,#728,#729,#730));
#149=EDGE_LOOP('',(#731,#732,#733,#734));
#150=EDGE_LOOP('',(#735,#736,#737,#738));
#151=EDGE_LOOP('',(#739,#740,#741,#742));
#152=EDGE_LOOP('',(#743,#744,#745,#746));
#153=EDGE_LOOP('',(#747,#748,#749,#750));
#154=EDGE_LOOP('',(#751,#752,#753,#754));
#155=LINE('',#1163,#235);
#156=LINE('',#1165,#236);
#157=LINE('',#1167,#237);
#158=LINE('',#1168,#238);
#159=LINE('',#1171,#239);
#160=LINE('',#1173,#240);
#161=LINE('',#1174,#241);
#162=LINE('',#1177,#242);
#163=LINE('',#1179,#243);
#164=LINE('',#1181,#244);
#165=LINE('',#1189,#245);
#166=LINE('',#1191,#246);
#167=LINE('',#1193,#247);
#168=LINE('',#1201,#248);
#169=LINE('',#1203,#249);
#170=LINE('',#1205,#250);
#171=LINE('',#1207,#251);
#172=LINE('',#1209,#252);
#173=LINE('',#1217,#253);
#174=LINE('',#1219,#254);
#175=LINE('',#1221,#255);
#176=LINE('',#1229,#256);
#177=LINE('',#1231,#257);
#178=LINE('',#1232,#258);
#179=LINE('',#1235,#259);
#180=LINE('',#1236,#260);
#181=LINE('',#1240,#261);
#182=LINE('',#1245,#262);
#183=LINE('',#1246,#263);
#184=LINE('',#1249,#264);
#185=LINE('',#1253,#265);
#186=LINE('',#1257,#266);
#187=LINE('',#1261,#267);
#188=LINE('',#1265,#268);
#189=LINE('',#1266,#269);
#190=LINE('',#1270,#270);
#191=LINE('',#1274,#271);
#192=LINE('',#1278,#272);
#193=LINE('',#1283,#273);
#194=LINE('',#1287,#274);
#195=LINE('',#1294,#275);
#196=LINE('',#1296,#276);
#197=LINE('',#1304,#277);
#198=LINE('',#1306,#278);
#199=LINE('',#1308,#279);
#200=LINE('',#1310,#280);
#201=LINE('',#1312,#281);
#202=LINE('',#1320,#282);
#203=LINE('',#1321,#283);
#204=LINE('',#1322,#284);
#205=LINE('',#1325,#285);
#206=LINE('',#1326,#286);
#207=LINE('',#1328,#287);
#208=LINE('',#1330,#288);
#209=LINE('',#1331,#289);
#210=LINE('',#1333,#290);
#211=LINE('',#1335,#291);
#212=LINE('',#1337,#292);
#213=LINE('',#1338,#293);
#214=LINE('',#1343,#294);
#215=LINE('',#1347,#295);
#216=LINE('',#1351,#296);
#217=LINE('',#1353,#297);
#218=LINE('',#1357,#298);
#219=LINE('',#1361,#299);
#220=LINE('',#1365,#300);
#221=LINE('',#1368,#301);
#222=LINE('',#1370,#302);
#223=LINE('',#1375,#303);
#224=LINE('',#1377,#304);
#225=LINE('',#1379,#305);
#226=LINE('',#1381,#306);
#227=LINE('',#1382,#307);
#228=LINE('',#1384,#308);
#229=LINE('',#1388,#309);
#230=LINE('',#1390,#310);
#231=LINE('',#1392,#311);
#232=LINE('',#1394,#312);
#233=LINE('',#1395,#313);
#234=LINE('',#1397,#314);
#235=VECTOR('',#921,0.393700787401575);
#236=VECTOR('',#922,0.393700787401575);
#237=VECTOR('',#923,0.393700787401575);
#238=VECTOR('',#924,0.393700787401575);
#239=VECTOR('',#927,0.393700787401575);
#240=VECTOR('',#928,0.393700787401575);
#241=VECTOR('',#929,0.393700787401575);
#242=VECTOR('',#932,0.393700787401575);
#243=VECTOR('',#933,0.393700787401575);
#244=VECTOR('',#934,0.393700787401575);
#245=VECTOR('',#941,0.393700787401575);
#246=VECTOR('',#942,0.393700787401575);
#247=VECTOR('',#943,0.393700787401575);
#248=VECTOR('',#950,0.393700787401575);
#249=VECTOR('',#951,0.393700787401575);
#250=VECTOR('',#952,0.393700787401575);
#251=VECTOR('',#953,0.393700787401575);
#252=VECTOR('',#954,0.393700787401575);
#253=VECTOR('',#961,0.393700787401575);
#254=VECTOR('',#962,0.393700787401575);
#255=VECTOR('',#963,0.393700787401575);
#256=VECTOR('',#972,0.393700787401575);
#257=VECTOR('',#973,0.393700787401575);
#258=VECTOR('',#974,0.393700787401575);
#259=VECTOR('',#977,0.393700787401575);
#260=VECTOR('',#978,0.393700787401575);
#261=VECTOR('',#983,0.393700787401575);
#262=VECTOR('',#988,0.393700787401575);
#263=VECTOR('',#989,0.393700787401575);
#264=VECTOR('',#992,0.393700787401575);
#265=VECTOR('',#995,0.393700787401575);
#266=VECTOR('',#998,0.393700787401575);
#267=VECTOR('',#1001,0.393700787401575);
#268=VECTOR('',#1004,0.393700787401575);
#269=VECTOR('',#1005,0.393700787401575);
#270=VECTOR('',#1008,0.393700787401575);
#271=VECTOR('',#1011,0.393700787401575);
#272=VECTOR('',#1014,0.393700787401575);
#273=VECTOR('',#1021,0.393700787401575);
#274=VECTOR('',#1026,0.393700787401575);
#275=VECTOR('',#1037,0.393700787401575);
#276=VECTOR('',#1038,0.393700787401575);
#277=VECTOR('',#1045,0.393700787401575);
#278=VECTOR('',#1046,0.393700787401575);
#279=VECTOR('',#1047,0.393700787401575);
#280=VECTOR('',#1048,0.393700787401575);
#281=VECTOR('',#1049,0.393700787401575);
#282=VECTOR('',#1056,0.393700787401575);
#283=VECTOR('',#1057,0.393700787401575);
#284=VECTOR('',#1058,0.393700787401575);
#285=VECTOR('',#1063,0.393700787401575);
#286=VECTOR('',#1064,0.393700787401575);
#287=VECTOR('',#1067,0.393700787401575);
#288=VECTOR('',#1070,0.393700787401575);
#289=VECTOR('',#1071,0.393700787401575);
#290=VECTOR('',#1074,0.393700787401575);
#291=VECTOR('',#1077,0.393700787401575);
#292=VECTOR('',#1080,0.393700787401575);
#293=VECTOR('',#1081,0.393700787401575);
#294=VECTOR('',#1086,0.393700787401575);
#295=VECTOR('',#1089,0.393700787401575);
#296=VECTOR('',#1092,0.393700787401575);
#297=VECTOR('',#1095,0.393700787401575);
#298=VECTOR('',#1098,0.393700787401575);
#299=VECTOR('',#1101,0.393700787401575);
#300=VECTOR('',#1104,0.393700787401575);
#301=VECTOR('',#1109,0.393700787401575);
#302=VECTOR('',#1112,0.393700787401575);
#303=VECTOR('',#1121,0.393700787401575);
#304=VECTOR('',#1124,0.393700787401575);
#305=VECTOR('',#1127,0.393700787401575);
#306=VECTOR('',#1130,0.393700787401575);
#307=VECTOR('',#1131,0.393700787401575);
#308=VECTOR('',#1134,0.393700787401575);
#309=VECTOR('',#1141,0.393700787401575);
#310=VECTOR('',#1144,0.393700787401575);
#311=VECTOR('',#1147,0.393700787401575);
#312=VECTOR('',#1150,0.393700787401575);
#313=VECTOR('',#1151,0.393700787401575);
#314=VECTOR('',#1154,0.393700787401575);
#315=VERTEX_POINT('',#1161);
#316=VERTEX_POINT('',#1162);
#317=VERTEX_POINT('',#1164);
#318=VERTEX_POINT('',#1166);
#319=VERTEX_POINT('',#1170);
#320=VERTEX_POINT('',#1172);
#321=VERTEX_POINT('',#1176);
#322=VERTEX_POINT('',#1178);
#323=VERTEX_POINT('',#1180);
#324=VERTEX_POINT('',#1182);
#325=VERTEX_POINT('',#1184);
#326=VERTEX_POINT('',#1186);
#327=VERTEX_POINT('',#1188);
#328=VERTEX_POINT('',#1190);
#329=VERTEX_POINT('',#1192);
#330=VERTEX_POINT('',#1194);
#331=VERTEX_POINT('',#1196);
#332=VERTEX_POINT('',#1198);
#333=VERTEX_POINT('',#1200);
#334=VERTEX_POINT('',#1202);
#335=VERTEX_POINT('',#1204);
#336=VERTEX_POINT('',#1206);
#337=VERTEX_POINT('',#1208);
#338=VERTEX_POINT('',#1210);
#339=VERTEX_POINT('',#1212);
#340=VERTEX_POINT('',#1214);
#341=VERTEX_POINT('',#1216);
#342=VERTEX_POINT('',#1218);
#343=VERTEX_POINT('',#1220);
#344=VERTEX_POINT('',#1222);
#345=VERTEX_POINT('',#1224);
#346=VERTEX_POINT('',#1228);
#347=VERTEX_POINT('',#1230);
#348=VERTEX_POINT('',#1234);
#349=VERTEX_POINT('',#1238);
#350=VERTEX_POINT('',#1242);
#351=VERTEX_POINT('',#1243);
#352=VERTEX_POINT('',#1248);
#353=VERTEX_POINT('',#1250);
#354=VERTEX_POINT('',#1252);
#355=VERTEX_POINT('',#1254);
#356=VERTEX_POINT('',#1256);
#357=VERTEX_POINT('',#1258);
#358=VERTEX_POINT('',#1260);
#359=VERTEX_POINT('',#1262);
#360=VERTEX_POINT('',#1264);
#361=VERTEX_POINT('',#1267);
#362=VERTEX_POINT('',#1269);
#363=VERTEX_POINT('',#1271);
#364=VERTEX_POINT('',#1273);
#365=VERTEX_POINT('',#1275);
#366=VERTEX_POINT('',#1277);
#367=VERTEX_POINT('',#1281);
#368=VERTEX_POINT('',#1285);
#369=VERTEX_POINT('',#1293);
#370=VERTEX_POINT('',#1295);
#371=VERTEX_POINT('',#1297);
#372=VERTEX_POINT('',#1299);
#373=VERTEX_POINT('',#1301);
#374=VERTEX_POINT('',#1303);
#375=VERTEX_POINT('',#1305);
#376=VERTEX_POINT('',#1307);
#377=VERTEX_POINT('',#1309);
#378=VERTEX_POINT('',#1311);
#379=VERTEX_POINT('',#1313);
#380=VERTEX_POINT('',#1315);
#381=VERTEX_POINT('',#1317);
#382=VERTEX_POINT('',#1319);
#383=VERTEX_POINT('',#1340);
#384=VERTEX_POINT('',#1342);
#385=VERTEX_POINT('',#1344);
#386=VERTEX_POINT('',#1346);
#387=VERTEX_POINT('',#1348);
#388=VERTEX_POINT('',#1350);
#389=VERTEX_POINT('',#1354);
#390=VERTEX_POINT('',#1356);
#391=VERTEX_POINT('',#1358);
#392=VERTEX_POINT('',#1360);
#393=VERTEX_POINT('',#1362);
#394=VERTEX_POINT('',#1364);
#395=EDGE_CURVE('',#315,#316,#155,.T.);
#396=EDGE_CURVE('',#316,#317,#156,.T.);
#397=EDGE_CURVE('',#317,#318,#157,.T.);
#398=EDGE_CURVE('',#318,#315,#158,.T.);
#399=EDGE_CURVE('',#319,#318,#159,.T.);
#400=EDGE_CURVE('',#320,#319,#160,.T.);
#401=EDGE_CURVE('',#320,#315,#161,.T.);
#402=EDGE_CURVE('',#321,#317,#162,.T.);
#403=EDGE_CURVE('',#322,#321,#163,.T.);
#404=EDGE_CURVE('',#323,#322,#164,.T.);
#405=EDGE_CURVE('',#324,#323,#35,.T.);
#406=EDGE_CURVE('',#324,#325,#36,.T.);
#407=EDGE_CURVE('',#326,#325,#37,.T.);
#408=EDGE_CURVE('',#327,#326,#165,.T.);
#409=EDGE_CURVE('',#327,#328,#166,.T.);
#410=EDGE_CURVE('',#329,#328,#167,.T.);
#411=EDGE_CURVE('',#330,#329,#38,.T.);
#412=EDGE_CURVE('',#330,#331,#39,.T.);
#413=EDGE_CURVE('',#332,#331,#40,.T.);
#414=EDGE_CURVE('',#332,#333,#168,.T.);
#415=EDGE_CURVE('',#334,#333,#169,.T.);
#416=EDGE_CURVE('',#335,#334,#170,.T.);
#417=EDGE_CURVE('',#336,#335,#171,.T.);
#418=EDGE_CURVE('',#337,#336,#172,.T.);
#419=EDGE_CURVE('',#338,#337,#41,.T.);
#420=EDGE_CURVE('',#338,#339,#42,.T.);
#421=EDGE_CURVE('',#340,#339,#43,.T.);
#422=EDGE_CURVE('',#341,#340,#173,.T.);
#423=EDGE_CURVE('',#341,#342,#174,.T.);
#424=EDGE_CURVE('',#343,#342,#175,.T.);
#425=EDGE_CURVE('',#344,#343,#44,.T.);
#426=EDGE_CURVE('',#344,#345,#45,.T.);
#427=EDGE_CURVE('',#319,#345,#46,.T.);
#428=EDGE_CURVE('',#321,#346,#176,.T.);
#429=EDGE_CURVE('',#346,#347,#177,.T.);
#430=EDGE_CURVE('',#347,#322,#178,.T.);
#431=EDGE_CURVE('',#348,#347,#179,.T.);
#432=EDGE_CURVE('',#323,#348,#180,.T.);
#433=EDGE_CURVE('',#348,#349,#47,.T.);
#434=EDGE_CURVE('',#349,#324,#181,.T.);
#435=EDGE_CURVE('',#350,#351,#48,.T.);
#436=EDGE_CURVE('',#351,#326,#182,.T.);
#437=EDGE_CURVE('',#325,#350,#183,.T.);
#438=EDGE_CURVE('',#352,#351,#184,.T.);
#439=EDGE_CURVE('',#353,#352,#49,.T.);
#440=EDGE_CURVE('',#354,#353,#185,.T.);
#441=EDGE_CURVE('',#355,#354,#50,.T.);
#442=EDGE_CURVE('',#356,#355,#186,.T.);
#443=EDGE_CURVE('',#357,#356,#51,.T.);
#444=EDGE_CURVE('',#358,#357,#187,.T.);
#445=EDGE_CURVE('',#359,#358,#52,.T.);
#446=EDGE_CURVE('',#360,#359,#188,.T.);
#447=EDGE_CURVE('',#343,#360,#189,.T.);
#448=EDGE_CURVE('',#342,#361,#53,.T.);
#449=EDGE_CURVE('',#361,#362,#190,.T.);
#450=EDGE_CURVE('',#362,#363,#54,.T.);
#451=EDGE_CURVE('',#363,#364,#191,.T.);
#452=EDGE_CURVE('',#364,#365,#55,.T.);
#453=EDGE_CURVE('',#365,#366,#192,.T.);
#454=EDGE_CURVE('',#366,#327,#56,.T.);
#455=EDGE_CURVE('',#360,#367,#57,.T.);
#456=EDGE_CURVE('',#367,#344,#193,.T.);
#457=EDGE_CURVE('',#368,#320,#58,.T.);
#458=EDGE_CURVE('',#345,#368,#194,.T.);
#459=EDGE_CURVE('',#368,#367,#59,.T.);
#460=EDGE_CURVE('',#350,#349,#60,.T.);
#461=EDGE_CURVE('',#369,#359,#195,.T.);
#462=EDGE_CURVE('',#370,#369,#196,.T.);
#463=EDGE_CURVE('',#371,#370,#61,.T.);
#464=EDGE_CURVE('',#371,#372,#62,.T.);
#465=EDGE_CURVE('',#373,#372,#63,.T.);
#466=EDGE_CURVE('',#373,#374,#197,.T.);
#467=EDGE_CURVE('',#375,#374,#198,.T.);
#468=EDGE_CURVE('',#376,#375,#199,.T.);
#469=EDGE_CURVE('',#377,#376,#200,.T.);
#470=EDGE_CURVE('',#378,#377,#201,.T.);
#471=EDGE_CURVE('',#379,#378,#64,.T.);
#472=EDGE_CURVE('',#379,#380,#65,.T.);
#473=EDGE_CURVE('',#381,#380,#66,.T.);
#474=EDGE_CURVE('',#382,#381,#202,.T.);
#475=EDGE_CURVE('',#352,#382,#203,.T.);
#476=EDGE_CURVE('',#316,#346,#204,.T.);
#477=EDGE_CURVE('',#376,#334,#205,.T.);
#478=EDGE_CURVE('',#333,#377,#206,.T.);
#479=EDGE_CURVE('',#378,#332,#207,.T.);
#480=EDGE_CURVE('',#335,#375,#208,.T.);
#481=EDGE_CURVE('',#374,#336,#209,.T.);
#482=EDGE_CURVE('',#337,#373,#210,.T.);
#483=EDGE_CURVE('',#372,#338,#211,.T.);
#484=EDGE_CURVE('',#370,#340,#212,.T.);
#485=EDGE_CURVE('',#339,#371,#213,.T.);
#486=EDGE_CURVE('',#383,#369,#67,.T.);
#487=EDGE_CURVE('',#384,#383,#214,.T.);
#488=EDGE_CURVE('',#385,#384,#68,.T.);
#489=EDGE_CURVE('',#386,#385,#215,.T.);
#490=EDGE_CURVE('',#387,#386,#69,.T.);
#491=EDGE_CURVE('',#388,#387,#216,.T.);
#492=EDGE_CURVE('',#382,#388,#70,.T.);
#493=EDGE_CURVE('',#329,#381,#217,.T.);
#494=EDGE_CURVE('',#328,#389,#71,.T.);
#495=EDGE_CURVE('',#389,#390,#218,.T.);
#496=EDGE_CURVE('',#390,#391,#72,.T.);
#497=EDGE_CURVE('',#391,#392,#219,.T.);
#498=EDGE_CURVE('',#392,#393,#73,.T.);
#499=EDGE_CURVE('',#393,#394,#220,.T.);
#500=EDGE_CURVE('',#394,#341,#74,.T.);
#501=EDGE_CURVE('',#380,#330,#221,.T.);
#502=EDGE_CURVE('',#331,#379,#222,.T.);
#503=EDGE_CURVE('',#389,#366,#223,.T.);
#504=EDGE_CURVE('',#365,#390,#224,.T.);
#505=EDGE_CURVE('',#391,#364,#225,.T.);
#506=EDGE_CURVE('',#363,#392,#226,.T.);
#507=EDGE_CURVE('',#393,#362,#227,.T.);
#508=EDGE_CURVE('',#361,#394,#228,.T.);
#509=EDGE_CURVE('',#388,#353,#229,.T.);
#510=EDGE_CURVE('',#354,#387,#230,.T.);
#511=EDGE_CURVE('',#386,#355,#231,.T.);
#512=EDGE_CURVE('',#384,#357,#232,.T.);
#513=EDGE_CURVE('',#356,#385,#233,.T.);
#514=EDGE_CURVE('',#358,#383,#234,.T.);
#515=ORIENTED_EDGE('',*,*,#395,.T.);
#516=ORIENTED_EDGE('',*,*,#396,.T.);
#517=ORIENTED_EDGE('',*,*,#397,.T.);
#518=ORIENTED_EDGE('',*,*,#398,.T.);
#519=ORIENTED_EDGE('',*,*,#398,.F.);
#520=ORIENTED_EDGE('',*,*,#399,.F.);
#521=ORIENTED_EDGE('',*,*,#400,.F.);
#522=ORIENTED_EDGE('',*,*,#401,.T.);
#523=ORIENTED_EDGE('',*,*,#397,.F.);
#524=ORIENTED_EDGE('',*,*,#402,.F.);
#525=ORIENTED_EDGE('',*,*,#403,.F.);
#526=ORIENTED_EDGE('',*,*,#404,.F.);
#527=ORIENTED_EDGE('',*,*,#405,.F.);
#528=ORIENTED_EDGE('',*,*,#406,.T.);
#529=ORIENTED_EDGE('',*,*,#407,.F.);
#530=ORIENTED_EDGE('',*,*,#408,.F.);
#531=ORIENTED_EDGE('',*,*,#409,.T.);
#532=ORIENTED_EDGE('',*,*,#410,.F.);
#533=ORIENTED_EDGE('',*,*,#411,.F.);
#534=ORIENTED_EDGE('',*,*,#412,.T.);
#535=ORIENTED_EDGE('',*,*,#413,.F.);
#536=ORIENTED_EDGE('',*,*,#414,.T.);
#537=ORIENTED_EDGE('',*,*,#415,.F.);
#538=ORIENTED_EDGE('',*,*,#416,.F.);
#539=ORIENTED_EDGE('',*,*,#417,.F.);
#540=ORIENTED_EDGE('',*,*,#418,.F.);
#541=ORIENTED_EDGE('',*,*,#419,.F.);
#542=ORIENTED_EDGE('',*,*,#420,.T.);
#543=ORIENTED_EDGE('',*,*,#421,.F.);
#544=ORIENTED_EDGE('',*,*,#422,.F.);
#545=ORIENTED_EDGE('',*,*,#423,.T.);
#546=ORIENTED_EDGE('',*,*,#424,.F.);
#547=ORIENTED_EDGE('',*,*,#425,.F.);
#548=ORIENTED_EDGE('',*,*,#426,.T.);
#549=ORIENTED_EDGE('',*,*,#427,.F.);
#550=ORIENTED_EDGE('',*,*,#399,.T.);
#551=ORIENTED_EDGE('',*,*,#403,.T.);
#552=ORIENTED_EDGE('',*,*,#428,.T.);
#553=ORIENTED_EDGE('',*,*,#429,.T.);
#554=ORIENTED_EDGE('',*,*,#430,.T.);
#555=ORIENTED_EDGE('',*,*,#430,.F.);
#556=ORIENTED_EDGE('',*,*,#431,.F.);
#557=ORIENTED_EDGE('',*,*,#432,.F.);
#558=ORIENTED_EDGE('',*,*,#404,.T.);
#559=ORIENTED_EDGE('',*,*,#405,.T.);
#560=ORIENTED_EDGE('',*,*,#432,.T.);
#561=ORIENTED_EDGE('',*,*,#433,.T.);
#562=ORIENTED_EDGE('',*,*,#434,.T.);
#563=ORIENTED_EDGE('',*,*,#435,.T.);
#564=ORIENTED_EDGE('',*,*,#436,.T.);
#565=ORIENTED_EDGE('',*,*,#407,.T.);
#566=ORIENTED_EDGE('',*,*,#437,.T.);
#567=ORIENTED_EDGE('',*,*,#436,.F.);
#568=ORIENTED_EDGE('',*,*,#438,.F.);
#569=ORIENTED_EDGE('',*,*,#439,.F.);
#570=ORIENTED_EDGE('',*,*,#440,.F.);
#571=ORIENTED_EDGE('',*,*,#441,.F.);
#572=ORIENTED_EDGE('',*,*,#442,.F.);
#573=ORIENTED_EDGE('',*,*,#443,.F.);
#574=ORIENTED_EDGE('',*,*,#444,.F.);
#575=ORIENTED_EDGE('',*,*,#445,.F.);
#576=ORIENTED_EDGE('',*,*,#446,.F.);
#577=ORIENTED_EDGE('',*,*,#447,.F.);
#578=ORIENTED_EDGE('',*,*,#424,.T.);
#579=ORIENTED_EDGE('',*,*,#448,.T.);
#580=ORIENTED_EDGE('',*,*,#449,.T.);
#581=ORIENTED_EDGE('',*,*,#450,.T.);
#582=ORIENTED_EDGE('',*,*,#451,.T.);
#583=ORIENTED_EDGE('',*,*,#452,.T.);
#584=ORIENTED_EDGE('',*,*,#453,.T.);
#585=ORIENTED_EDGE('',*,*,#454,.T.);
#586=ORIENTED_EDGE('',*,*,#408,.T.);
#587=ORIENTED_EDGE('',*,*,#455,.T.);
#588=ORIENTED_EDGE('',*,*,#456,.T.);
#589=ORIENTED_EDGE('',*,*,#425,.T.);
#590=ORIENTED_EDGE('',*,*,#447,.T.);
#591=ORIENTED_EDGE('',*,*,#457,.T.);
#592=ORIENTED_EDGE('',*,*,#400,.T.);
#593=ORIENTED_EDGE('',*,*,#427,.T.);
#594=ORIENTED_EDGE('',*,*,#458,.T.);
#595=ORIENTED_EDGE('',*,*,#456,.F.);
#596=ORIENTED_EDGE('',*,*,#459,.F.);
#597=ORIENTED_EDGE('',*,*,#458,.F.);
#598=ORIENTED_EDGE('',*,*,#426,.F.);
#599=ORIENTED_EDGE('',*,*,#434,.F.);
#600=ORIENTED_EDGE('',*,*,#460,.F.);
#601=ORIENTED_EDGE('',*,*,#437,.F.);
#602=ORIENTED_EDGE('',*,*,#406,.F.);
#603=ORIENTED_EDGE('',*,*,#395,.F.);
#604=ORIENTED_EDGE('',*,*,#401,.F.);
#605=ORIENTED_EDGE('',*,*,#457,.F.);
#606=ORIENTED_EDGE('',*,*,#459,.T.);
#607=ORIENTED_EDGE('',*,*,#455,.F.);
#608=ORIENTED_EDGE('',*,*,#446,.T.);
#609=ORIENTED_EDGE('',*,*,#461,.F.);
#610=ORIENTED_EDGE('',*,*,#462,.F.);
#611=ORIENTED_EDGE('',*,*,#463,.F.);
#612=ORIENTED_EDGE('',*,*,#464,.T.);
#613=ORIENTED_EDGE('',*,*,#465,.F.);
#614=ORIENTED_EDGE('',*,*,#466,.T.);
#615=ORIENTED_EDGE('',*,*,#467,.F.);
#616=ORIENTED_EDGE('',*,*,#468,.F.);
#617=ORIENTED_EDGE('',*,*,#469,.F.);
#618=ORIENTED_EDGE('',*,*,#470,.F.);
#619=ORIENTED_EDGE('',*,*,#471,.F.);
#620=ORIENTED_EDGE('',*,*,#472,.T.);
#621=ORIENTED_EDGE('',*,*,#473,.F.);
#622=ORIENTED_EDGE('',*,*,#474,.F.);
#623=ORIENTED_EDGE('',*,*,#475,.F.);
#624=ORIENTED_EDGE('',*,*,#438,.T.);
#625=ORIENTED_EDGE('',*,*,#435,.F.);
#626=ORIENTED_EDGE('',*,*,#460,.T.);
#627=ORIENTED_EDGE('',*,*,#433,.F.);
#628=ORIENTED_EDGE('',*,*,#431,.T.);
#629=ORIENTED_EDGE('',*,*,#429,.F.);
#630=ORIENTED_EDGE('',*,*,#476,.F.);
#631=ORIENTED_EDGE('',*,*,#396,.F.);
#632=ORIENTED_EDGE('',*,*,#476,.T.);
#633=ORIENTED_EDGE('',*,*,#428,.F.);
#634=ORIENTED_EDGE('',*,*,#402,.T.);
#635=ORIENTED_EDGE('',*,*,#469,.T.);
#636=ORIENTED_EDGE('',*,*,#477,.T.);
#637=ORIENTED_EDGE('',*,*,#415,.T.);
#638=ORIENTED_EDGE('',*,*,#478,.T.);
#639=ORIENTED_EDGE('',*,*,#478,.F.);
#640=ORIENTED_EDGE('',*,*,#414,.F.);
#641=ORIENTED_EDGE('',*,*,#479,.F.);
#642=ORIENTED_EDGE('',*,*,#470,.T.);
#643=ORIENTED_EDGE('',*,*,#417,.T.);
#644=ORIENTED_EDGE('',*,*,#480,.T.);
#645=ORIENTED_EDGE('',*,*,#467,.T.);
#646=ORIENTED_EDGE('',*,*,#481,.T.);
#647=ORIENTED_EDGE('',*,*,#481,.F.);
#648=ORIENTED_EDGE('',*,*,#466,.F.);
#649=ORIENTED_EDGE('',*,*,#482,.F.);
#650=ORIENTED_EDGE('',*,*,#418,.T.);
#651=ORIENTED_EDGE('',*,*,#419,.T.);
#652=ORIENTED_EDGE('',*,*,#482,.T.);
#653=ORIENTED_EDGE('',*,*,#465,.T.);
#654=ORIENTED_EDGE('',*,*,#483,.T.);
#655=ORIENTED_EDGE('',*,*,#463,.T.);
#656=ORIENTED_EDGE('',*,*,#484,.T.);
#657=ORIENTED_EDGE('',*,*,#421,.T.);
#658=ORIENTED_EDGE('',*,*,#485,.T.);
#659=ORIENTED_EDGE('',*,*,#484,.F.);
#660=ORIENTED_EDGE('',*,*,#462,.T.);
#661=ORIENTED_EDGE('',*,*,#486,.F.);
#662=ORIENTED_EDGE('',*,*,#487,.F.);
#663=ORIENTED_EDGE('',*,*,#488,.F.);
#664=ORIENTED_EDGE('',*,*,#489,.F.);
#665=ORIENTED_EDGE('',*,*,#490,.F.);
#666=ORIENTED_EDGE('',*,*,#491,.F.);
#667=ORIENTED_EDGE('',*,*,#492,.F.);
#668=ORIENTED_EDGE('',*,*,#474,.T.);
#669=ORIENTED_EDGE('',*,*,#493,.F.);
#670=ORIENTED_EDGE('',*,*,#410,.T.);
#671=ORIENTED_EDGE('',*,*,#494,.T.);
#672=ORIENTED_EDGE('',*,*,#495,.T.);
#673=ORIENTED_EDGE('',*,*,#496,.T.);
#674=ORIENTED_EDGE('',*,*,#497,.T.);
#675=ORIENTED_EDGE('',*,*,#498,.T.);
#676=ORIENTED_EDGE('',*,*,#499,.T.);
#677=ORIENTED_EDGE('',*,*,#500,.T.);
#678=ORIENTED_EDGE('',*,*,#422,.T.);
#679=ORIENTED_EDGE('',*,*,#473,.T.);
#680=ORIENTED_EDGE('',*,*,#501,.T.);
#681=ORIENTED_EDGE('',*,*,#411,.T.);
#682=ORIENTED_EDGE('',*,*,#493,.T.);
#683=ORIENTED_EDGE('',*,*,#471,.T.);
#684=ORIENTED_EDGE('',*,*,#479,.T.);
#685=ORIENTED_EDGE('',*,*,#413,.T.);
#686=ORIENTED_EDGE('',*,*,#502,.T.);
#687=ORIENTED_EDGE('',*,*,#501,.F.);
#688=ORIENTED_EDGE('',*,*,#472,.F.);
#689=ORIENTED_EDGE('',*,*,#502,.F.);
#690=ORIENTED_EDGE('',*,*,#412,.F.);
#691=ORIENTED_EDGE('',*,*,#483,.F.);
#692=ORIENTED_EDGE('',*,*,#464,.F.);
#693=ORIENTED_EDGE('',*,*,#485,.F.);
#694=ORIENTED_EDGE('',*,*,#420,.F.);
#695=ORIENTED_EDGE('',*,*,#477,.F.);
#696=ORIENTED_EDGE('',*,*,#468,.T.);
#697=ORIENTED_EDGE('',*,*,#480,.F.);
#698=ORIENTED_EDGE('',*,*,#416,.T.);
#699=ORIENTED_EDGE('',*,*,#494,.F.);
#700=ORIENTED_EDGE('',*,*,#409,.F.);
#701=ORIENTED_EDGE('',*,*,#454,.F.);
#702=ORIENTED_EDGE('',*,*,#503,.F.);
#703=ORIENTED_EDGE('',*,*,#503,.T.);
#704=ORIENTED_EDGE('',*,*,#453,.F.);
#705=ORIENTED_EDGE('',*,*,#504,.T.);
#706=ORIENTED_EDGE('',*,*,#495,.F.);
#707=ORIENTED_EDGE('',*,*,#452,.F.);
#708=ORIENTED_EDGE('',*,*,#505,.F.);
#709=ORIENTED_EDGE('',*,*,#496,.F.);
#710=ORIENTED_EDGE('',*,*,#504,.F.);
#711=ORIENTED_EDGE('',*,*,#498,.F.);
#712=ORIENTED_EDGE('',*,*,#506,.F.);
#713=ORIENTED_EDGE('',*,*,#450,.F.);
#714=ORIENTED_EDGE('',*,*,#507,.F.);
#715=ORIENTED_EDGE('',*,*,#507,.T.);
#716=ORIENTED_EDGE('',*,*,#449,.F.);
#717=ORIENTED_EDGE('',*,*,#508,.T.);
#718=ORIENTED_EDGE('',*,*,#499,.F.);
#719=ORIENTED_EDGE('',*,*,#448,.F.);
#720=ORIENTED_EDGE('',*,*,#423,.F.);
#721=ORIENTED_EDGE('',*,*,#500,.F.);
#722=ORIENTED_EDGE('',*,*,#508,.F.);
#723=ORIENTED_EDGE('',*,*,#505,.T.);
#724=ORIENTED_EDGE('',*,*,#451,.F.);
#725=ORIENTED_EDGE('',*,*,#506,.T.);
#726=ORIENTED_EDGE('',*,*,#497,.F.);
#727=ORIENTED_EDGE('',*,*,#492,.T.);
#728=ORIENTED_EDGE('',*,*,#509,.T.);
#729=ORIENTED_EDGE('',*,*,#439,.T.);
#730=ORIENTED_EDGE('',*,*,#475,.T.);
#731=ORIENTED_EDGE('',*,*,#509,.F.);
#732=ORIENTED_EDGE('',*,*,#491,.T.);
#733=ORIENTED_EDGE('',*,*,#510,.F.);
#734=ORIENTED_EDGE('',*,*,#440,.T.);
#735=ORIENTED_EDGE('',*,*,#441,.T.);
#736=ORIENTED_EDGE('',*,*,#510,.T.);
#737=ORIENTED_EDGE('',*,*,#490,.T.);
#738=ORIENTED_EDGE('',*,*,#511,.T.);
#739=ORIENTED_EDGE('',*,*,#488,.T.);
#740=ORIENTED_EDGE('',*,*,#512,.T.);
#741=ORIENTED_EDGE('',*,*,#443,.T.);
#742=ORIENTED_EDGE('',*,*,#513,.T.);
#743=ORIENTED_EDGE('',*,*,#512,.F.);
#744=ORIENTED_EDGE('',*,*,#487,.T.);
#745=ORIENTED_EDGE('',*,*,#514,.F.);
#746=ORIENTED_EDGE('',*,*,#444,.T.);
#747=ORIENTED_EDGE('',*,*,#445,.T.);
#748=ORIENTED_EDGE('',*,*,#514,.T.);
#749=ORIENTED_EDGE('',*,*,#486,.T.);
#750=ORIENTED_EDGE('',*,*,#461,.T.);
#751=ORIENTED_EDGE('',*,*,#511,.F.);
#752=ORIENTED_EDGE('',*,*,#489,.T.);
#753=ORIENTED_EDGE('',*,*,#513,.F.);
#754=ORIENTED_EDGE('',*,*,#442,.T.);
#755=PLANE('',#837);
#756=PLANE('',#838);
#757=PLANE('',#839);
#758=PLANE('',#852);
#759=PLANE('',#853);
#760=PLANE('',#858);
#761=PLANE('',#875);
#762=PLANE('',#882);
#763=PLANE('',#883);
#764=PLANE('',#884);
#765=PLANE('',#885);
#766=PLANE('',#886);
#767=PLANE('',#889);
#768=PLANE('',#902);
#769=PLANE('',#904);
#770=PLANE('',#907);
#771=PLANE('',#909);
#772=PLANE('',#911);
#773=PLANE('',#914);
#774=PLANE('',#916);
#775=ADVANCED_FACE('',(#75),#755,.T.);
#776=ADVANCED_FACE('',(#76),#756,.T.);
#777=ADVANCED_FACE('',(#77),#757,.F.);
#778=ADVANCED_FACE('',(#78),#758,.T.);
#779=ADVANCED_FACE('',(#79),#759,.T.);
#780=ADVANCED_FACE('',(#80),#15,.T.);
#781=ADVANCED_FACE('',(#81),#16,.T.);
#782=ADVANCED_FACE('',(#82),#760,.T.);
#783=ADVANCED_FACE('',(#83),#17,.T.);
#784=ADVANCED_FACE('',(#84),#18,.T.);
#785=ADVANCED_FACE('',(#85),#19,.F.);
#786=ADVANCED_FACE('',(#86),#20,.F.);
#787=ADVANCED_FACE('',(#87),#761,.T.);
#788=ADVANCED_FACE('',(#88),#762,.T.);
#789=ADVANCED_FACE('',(#89),#763,.T.);
#790=ADVANCED_FACE('',(#90),#764,.T.);
#791=ADVANCED_FACE('',(#91),#765,.T.);
#792=ADVANCED_FACE('',(#92),#766,.T.);
#793=ADVANCED_FACE('',(#93),#21,.T.);
#794=ADVANCED_FACE('',(#94),#22,.T.);
#795=ADVANCED_FACE('',(#95),#767,.T.);
#796=ADVANCED_FACE('',(#96),#23,.T.);
#797=ADVANCED_FACE('',(#97),#24,.T.);
#798=ADVANCED_FACE('',(#98),#25,.F.);
#799=ADVANCED_FACE('',(#99),#26,.F.);
#800=ADVANCED_FACE('',(#100),#768,.T.);
#801=ADVANCED_FACE('',(#101),#27,.F.);
#802=ADVANCED_FACE('',(#102),#769,.F.);
#803=ADVANCED_FACE('',(#103),#28,.F.);
#804=ADVANCED_FACE('',(#104),#29,.F.);
#805=ADVANCED_FACE('',(#105),#770,.F.);
#806=ADVANCED_FACE('',(#106),#30,.F.);
#807=ADVANCED_FACE('',(#107),#771,.F.);
#808=ADVANCED_FACE('',(#108),#31,.T.);
#809=ADVANCED_FACE('',(#109),#772,.T.);
#810=ADVANCED_FACE('',(#110),#32,.T.);
#811=ADVANCED_FACE('',(#111),#33,.T.);
#812=ADVANCED_FACE('',(#112),#773,.T.);
#813=ADVANCED_FACE('',(#113),#34,.T.);
#814=ADVANCED_FACE('',(#114),#774,.T.);
#815=CLOSED_SHELL('',(#775,#776,#777,#778,#779,#780,#781,#782,#783,#784,
#785,#786,#787,#788,#789,#790,#791,#792,#793,#794,#795,#796,#797,#798,#799,
#800,#801,#802,#803,#804,#805,#806,#807,#808,#809,#810,#811,#812,#813,#814));
#816=DERIVED_UNIT_ELEMENT(#818,1.);
#817=DERIVED_UNIT_ELEMENT(#1408,-3.);
#818=(
CONVERSION_BASED_UNIT('gram',#820)
MASS_UNIT()
NAMED_UNIT(#1405)
);
#819=(
MASS_UNIT()
NAMED_UNIT(*)
SI_UNIT(.KILO.,.GRAM.)
);
#820=MASS_MEASURE_WITH_UNIT(MASS_MEASURE(0.001),#819);
#821=DERIVED_UNIT((#816,#817));
#822=MEASURE_REPRESENTATION_ITEM('density measure',
POSITIVE_RATIO_MEASURE(1.),#821);
#823=PROPERTY_DEFINITION_REPRESENTATION(#828,#825);
#824=PROPERTY_DEFINITION_REPRESENTATION(#829,#826);
#825=REPRESENTATION('material name',(#827),#1402);
#826=REPRESENTATION('density',(#822),#1402);
#827=DESCRIPTIVE_REPRESENTATION_ITEM('Generic','Generic');
#828=PROPERTY_DEFINITION('material property','material name',#1416);
#829=PROPERTY_DEFINITION('material property','density of part',#1416);
#830=DATE_TIME_ROLE('creation_date');
#831=APPLIED_DATE_AND_TIME_ASSIGNMENT(#832,#830,(#1416));
#832=DATE_AND_TIME(#833,#834);
#833=CALENDAR_DATE(2025,20,12);
#834=LOCAL_TIME(0,0,0.,#835);
#835=COORDINATED_UNIVERSAL_TIME_OFFSET(0,0,.BEHIND.);
#836=AXIS2_PLACEMENT_3D('',#1159,#917,#918);
#837=AXIS2_PLACEMENT_3D('',#1160,#919,#920);
#838=AXIS2_PLACEMENT_3D('',#1169,#925,#926);
#839=AXIS2_PLACEMENT_3D('',#1175,#930,#931);
#840=AXIS2_PLACEMENT_3D('',#1183,#935,#936);
#841=AXIS2_PLACEMENT_3D('',#1185,#937,#938);
#842=AXIS2_PLACEMENT_3D('',#1187,#939,#940);
#843=AXIS2_PLACEMENT_3D('',#1195,#944,#945);
#844=AXIS2_PLACEMENT_3D('',#1197,#946,#947);
#845=AXIS2_PLACEMENT_3D('',#1199,#948,#949);
#846=AXIS2_PLACEMENT_3D('',#1211,#955,#956);
#847=AXIS2_PLACEMENT_3D('',#1213,#957,#958);
#848=AXIS2_PLACEMENT_3D('',#1215,#959,#960);
#849=AXIS2_PLACEMENT_3D('',#1223,#964,#965);
#850=AXIS2_PLACEMENT_3D('',#1225,#966,#967);
#851=AXIS2_PLACEMENT_3D('',#1226,#968,#969);
#852=AXIS2_PLACEMENT_3D('',#1227,#970,#971);
#853=AXIS2_PLACEMENT_3D('',#1233,#975,#976);
#854=AXIS2_PLACEMENT_3D('',#1237,#979,#980);
#855=AXIS2_PLACEMENT_3D('',#1239,#981,#982);
#856=AXIS2_PLACEMENT_3D('',#1241,#984,#985);
#857=AXIS2_PLACEMENT_3D('',#1244,#986,#987);
#858=AXIS2_PLACEMENT_3D('',#1247,#990,#991);
#859=AXIS2_PLACEMENT_3D('',#1251,#993,#994);
#860=AXIS2_PLACEMENT_3D('',#1255,#996,#997);
#861=AXIS2_PLACEMENT_3D('',#1259,#999,#1000);
#862=AXIS2_PLACEMENT_3D('',#1263,#1002,#1003);
#863=AXIS2_PLACEMENT_3D('',#1268,#1006,#1007);
#864=AXIS2_PLACEMENT_3D('',#1272,#1009,#1010);
#865=AXIS2_PLACEMENT_3D('',#1276,#1012,#1013);
#866=AXIS2_PLACEMENT_3D('',#1279,#1015,#1016);
#867=AXIS2_PLACEMENT_3D('',#1280,#1017,#1018);
#868=AXIS2_PLACEMENT_3D('',#1282,#1019,#1020);
#869=AXIS2_PLACEMENT_3D('',#1284,#1022,#1023);
#870=AXIS2_PLACEMENT_3D('',#1286,#1024,#1025);
#871=AXIS2_PLACEMENT_3D('',#1288,#1027,#1028);
#872=AXIS2_PLACEMENT_3D('',#1289,#1029,#1030);
#873=AXIS2_PLACEMENT_3D('',#1290,#1031,#1032);
#874=AXIS2_PLACEMENT_3D('',#1291,#1033,#1034);
#875=AXIS2_PLACEMENT_3D('',#1292,#1035,#1036);
#876=AXIS2_PLACEMENT_3D('',#1298,#1039,#1040);
#877=AXIS2_PLACEMENT_3D('',#1300,#1041,#1042);
#878=AXIS2_PLACEMENT_3D('',#1302,#1043,#1044);
#879=AXIS2_PLACEMENT_3D('',#1314,#1050,#1051);
#880=AXIS2_PLACEMENT_3D('',#1316,#1052,#1053);
#881=AXIS2_PLACEMENT_3D('',#1318,#1054,#1055);
#882=AXIS2_PLACEMENT_3D('',#1323,#1059,#1060);
#883=AXIS2_PLACEMENT_3D('',#1324,#1061,#1062);
#884=AXIS2_PLACEMENT_3D('',#1327,#1065,#1066);
#885=AXIS2_PLACEMENT_3D('',#1329,#1068,#1069);
#886=AXIS2_PLACEMENT_3D('',#1332,#1072,#1073);
#887=AXIS2_PLACEMENT_3D('',#1334,#1075,#1076);
#888=AXIS2_PLACEMENT_3D('',#1336,#1078,#1079);
#889=AXIS2_PLACEMENT_3D('',#1339,#1082,#1083);
#890=AXIS2_PLACEMENT_3D('',#1341,#1084,#1085);
#891=AXIS2_PLACEMENT_3D('',#1345,#1087,#1088);
#892=AXIS2_PLACEMENT_3D('',#1349,#1090,#1091);
#893=AXIS2_PLACEMENT_3D('',#1352,#1093,#1094);
#894=AXIS2_PLACEMENT_3D('',#1355,#1096,#1097);
#895=AXIS2_PLACEMENT_3D('',#1359,#1099,#1100);
#896=AXIS2_PLACEMENT_3D('',#1363,#1102,#1103);
#897=AXIS2_PLACEMENT_3D('',#1366,#1105,#1106);
#898=AXIS2_PLACEMENT_3D('',#1367,#1107,#1108);
#899=AXIS2_PLACEMENT_3D('',#1369,#1110,#1111);
#900=AXIS2_PLACEMENT_3D('',#1371,#1113,#1114);
#901=AXIS2_PLACEMENT_3D('',#1372,#1115,#1116);
#902=AXIS2_PLACEMENT_3D('',#1373,#1117,#1118);
#903=AXIS2_PLACEMENT_3D('',#1374,#1119,#1120);
#904=AXIS2_PLACEMENT_3D('',#1376,#1122,#1123);
#905=AXIS2_PLACEMENT_3D('',#1378,#1125,#1126);
#906=AXIS2_PLACEMENT_3D('',#1380,#1128,#1129);
#907=AXIS2_PLACEMENT_3D('',#1383,#1132,#1133);
#908=AXIS2_PLACEMENT_3D('',#1385,#1135,#1136);
#909=AXIS2_PLACEMENT_3D('',#1386,#1137,#1138);
#910=AXIS2_PLACEMENT_3D('',#1387,#1139,#1140);
#911=AXIS2_PLACEMENT_3D('',#1389,#1142,#1143);
#912=AXIS2_PLACEMENT_3D('',#1391,#1145,#1146);
#913=AXIS2_PLACEMENT_3D('',#1393,#1148,#1149);
#914=AXIS2_PLACEMENT_3D('',#1396,#1152,#1153);
#915=AXIS2_PLACEMENT_3D('',#1398,#1155,#1156);
#916=AXIS2_PLACEMENT_3D('',#1399,#1157,#1158);
#917=DIRECTION('axis',(0.,0.,1.));
#918=DIRECTION('refdir',(1.,0.,0.));
#919=DIRECTION('center_axis',(0.707106781186515,0.,0.70710678118658));
#920=DIRECTION('ref_axis',(0.70710678118658,0.,-0.707106781186515));
#921=DIRECTION('',(-0.70710678118658,-4.39570942063679E-16,0.707106781186515));
#922=DIRECTION('',(0.,-1.,0.));
#923=DIRECTION('',(0.70710678118658,4.39570942063679E-16,-0.707106781186515));
#924=DIRECTION('',(0.,1.,0.));
#925=DIRECTION('center_axis',(1.,0.,0.));
#926=DIRECTION('ref_axis',(0.,1.,4.41696686133506E-16));
#927=DIRECTION('',(0.,0.,1.));
#928=DIRECTION('',(0.,-1.,0.));
#929=DIRECTION('',(0.,0.,1.));
#930=DIRECTION('center_axis',(0.,1.,6.21647187891601E-16));
#931=DIRECTION('ref_axis',(0.,-6.21647187891601E-16,1.));
#932=DIRECTION('',(1.,0.,0.));
#933=DIRECTION('',(0.70710678118658,-4.39570942063679E-16,0.707106781186515));
#934=DIRECTION('',(0.,0.,1.));
#935=DIRECTION('center_axis',(0.,1.,6.21647187891601E-16));
#936=DIRECTION('ref_axis',(-0.86602526171997,0.,-0.500000246062797));
#937=DIRECTION('center_axis',(0.,1.,6.21647187891601E-16));
#938=DIRECTION('ref_axis',(-1.,0.,0.));
#939=DIRECTION('center_axis',(0.,1.,6.21647187891601E-16));
#940=DIRECTION('ref_axis',(0.500000246062807,0.,0.866025261719964));
#941=DIRECTION('',(1.,0.,0.));
#942=DIRECTION('',(0.,6.21647187891601E-16,-1.));
#943=DIRECTION('',(-1.,0.,0.));
#944=DIRECTION('center_axis',(0.,1.,6.21647187891601E-16));
#945=DIRECTION('ref_axis',(0.500000246062637,0.,-0.866025261720062));
#946=DIRECTION('center_axis',(0.,1.,6.21647187891601E-16));
#947=DIRECTION('ref_axis',(-1.,0.,0.));
#948=DIRECTION('center_axis',(0.,1.,6.21647187891601E-16));
#949=DIRECTION('ref_axis',(-0.86602526172011,0.,0.500000246062555));
#950=DIRECTION('',(0.,0.,-1.));
#951=DIRECTION('',(-0.707106781186679,-4.39570942063617E-16,0.707106781186416));
#952=DIRECTION('',(-1.,0.,0.));
#953=DIRECTION('',(-0.707106781186679,4.39570942063617E-16,-0.707106781186416));
#954=DIRECTION('',(0.,0.,-1.));
#955=DIRECTION('center_axis',(0.,1.,6.21647187891601E-16));
#956=DIRECTION('ref_axis',(0.866025261720109,0.,0.500000246062556));
#957=DIRECTION('center_axis',(0.,1.,6.21647187891601E-16));
#958=DIRECTION('ref_axis',(-1.,0.,0.));
#959=DIRECTION('center_axis',(0.,1.,6.21647187891601E-16));
#960=DIRECTION('ref_axis',(-0.500000246062637,0.,-0.866025261720062));
#961=DIRECTION('',(-1.,0.,0.));
#962=DIRECTION('',(0.,-6.21647187891601E-16,1.));
#963=DIRECTION('',(1.,0.,0.));
#964=DIRECTION('center_axis',(0.,1.,6.21647187891601E-16));
#965=DIRECTION('ref_axis',(-0.500000246062807,0.,0.866025261719964));
#966=DIRECTION('center_axis',(0.,1.,6.21647187891601E-16));
#967=DIRECTION('ref_axis',(-1.,0.,0.));
#968=DIRECTION('center_axis',(0.,1.,6.21647187891601E-16));
#969=DIRECTION('ref_axis',(0.86602526171997,0.,-0.500000246062797));
#970=DIRECTION('center_axis',(-0.707106781186515,0.,0.70710678118658));
#971=DIRECTION('ref_axis',(0.70710678118658,0.,0.707106781186515));
#972=DIRECTION('',(0.,1.,0.));
#973=DIRECTION('',(-0.70710678118658,4.39570942063679E-16,-0.707106781186515));
#974=DIRECTION('',(0.,-1.,0.));
#975=DIRECTION('center_axis',(-1.,0.,0.));
#976=DIRECTION('ref_axis',(0.,-1.,-4.41696686133506E-16));
#977=DIRECTION('',(0.,0.,1.));
#978=DIRECTION('',(0.,1.,0.));
#979=DIRECTION('center_axis',(0.,-1.,0.));
#980=DIRECTION('ref_axis',(-0.86602526171997,0.,-0.500000246062797));
#981=DIRECTION('center_axis',(0.,-1.,-6.21647187891601E-16));
#982=DIRECTION('ref_axis',(-0.86602526171997,0.,-0.500000246062797));
#983=DIRECTION('',(0.,-1.,0.));
#984=DIRECTION('center_axis',(0.,1.,0.));
#985=DIRECTION('ref_axis',(0.500000246062807,0.,0.866025261719964));
#986=DIRECTION('center_axis',(0.,-1.,-6.21647187891601E-16));
#987=DIRECTION('ref_axis',(0.500000246062807,0.,0.866025261719964));
#988=DIRECTION('',(0.,-1.,-4.41696686133506E-16));
#989=DIRECTION('',(0.,1.,0.));
#990=DIRECTION('center_axis',(0.,-4.41696686133506E-16,1.));
#991=DIRECTION('ref_axis',(0.,-1.,-4.41696686133506E-16));
#992=DIRECTION('',(1.,0.,0.));
#993=DIRECTION('center_axis',(0.,4.41696686133506E-16,-1.));
#994=DIRECTION('ref_axis',(-0.707106781186547,0.707106781186547,0.));
#995=DIRECTION('',(0.,1.,4.41696686133506E-16));
#996=DIRECTION('center_axis',(0.,4.41696686133506E-16,-1.));
#997=DIRECTION('ref_axis',(-0.707106781186547,-0.707106781186547,0.));
#998=DIRECTION('',(-1.,0.,0.));
#999=DIRECTION('center_axis',(0.,4.41696686133506E-16,-1.));
#1000=DIRECTION('ref_axis',(0.707106781186547,-0.707106781186547,0.));
#1001=DIRECTION('',(0.,-1.,-4.41696686133506E-16));
#1002=DIRECTION('center_axis',(0.,4.41696686133506E-16,-1.));
#1003=DIRECTION('ref_axis',(0.707106781186547,0.707106781186547,0.));
#1004=DIRECTION('',(1.,0.,0.));
#1005=DIRECTION('',(0.,1.,4.41696686133506E-16));
#1006=DIRECTION('center_axis',(0.,4.41696686133506E-16,-1.));
#1007=DIRECTION('ref_axis',(0.707106781186548,0.707106781186548,0.));
#1008=DIRECTION('',(0.,-1.,-4.41696686133506E-16));
#1009=DIRECTION('center_axis',(0.,4.41696686133506E-16,-1.));
#1010=DIRECTION('ref_axis',(0.707106781186548,-0.707106781186548,0.));
#1011=DIRECTION('',(-1.,0.,0.));
#1012=DIRECTION('center_axis',(0.,4.41696686133506E-16,-1.));
#1013=DIRECTION('ref_axis',(-0.707106781186548,-0.707106781186548,0.));
#1014=DIRECTION('',(0.,1.,4.41696686133506E-16));
#1015=DIRECTION('center_axis',(0.,4.41696686133506E-16,-1.));
#1016=DIRECTION('ref_axis',(-0.707106781186548,0.707106781186548,0.));
#1017=DIRECTION('center_axis',(0.,-1.,0.));
#1018=DIRECTION('ref_axis',(-0.500000246062807,0.,0.866025261719964));
#1019=DIRECTION('center_axis',(0.,-1.,-6.21647187891601E-16));
#1020=DIRECTION('ref_axis',(-0.500000246062807,0.,0.866025261719964));
#1021=DIRECTION('',(0.,-1.,0.));
#1022=DIRECTION('center_axis',(0.,1.,0.));
#1023=DIRECTION('ref_axis',(0.86602526171997,0.,-0.500000246062797));
#1024=DIRECTION('center_axis',(0.,-1.,-6.21647187891601E-16));
#1025=DIRECTION('ref_axis',(0.86602526171997,0.,-0.500000246062797));
#1026=DIRECTION('',(0.,1.,0.));
#1027=DIRECTION('center_axis',(0.,-1.,0.));
#1028=DIRECTION('ref_axis',(-1.,0.,0.));
#1029=DIRECTION('center_axis',(0.,-1.,-6.21647187891601E-16));
#1030=DIRECTION('ref_axis',(-1.,0.,0.));
#1031=DIRECTION('center_axis',(0.,-1.,0.));
#1032=DIRECTION('ref_axis',(0.70710678118647,0.,-0.707106781186625));
#1033=DIRECTION('center_axis',(0.,-1.,-6.21647187891601E-16));
#1034=DIRECTION('ref_axis',(-1.,0.,0.));
#1035=DIRECTION('center_axis',(0.,1.,6.21647187891601E-16));
#1036=DIRECTION('ref_axis',(0.,-6.21647187891601E-16,1.));
#1037=DIRECTION('',(0.,-6.21647187891601E-16,1.));
#1038=DIRECTION('',(1.,0.,0.));
#1039=DIRECTION('center_axis',(0.,-1.,-6.21647187891601E-16));
#1040=DIRECTION('ref_axis',(-0.500000246062637,0.,-0.866025261720062));
#1041=DIRECTION('center_axis',(0.,-1.,-6.21647187891601E-16));
#1042=DIRECTION('ref_axis',(-1.,0.,0.));
#1043=DIRECTION('center_axis',(0.,-1.,-6.21647187891601E-16));
#1044=DIRECTION('ref_axis',(0.866025261720109,0.,0.500000246062556));
#1045=DIRECTION('',(0.,0.,-1.));
#1046=DIRECTION('',(0.707106781186679,-4.39570942063617E-16,0.707106781186416));
#1047=DIRECTION('',(1.,0.,0.));
#1048=DIRECTION('',(0.707106781186679,4.39570942063617E-16,-0.707106781186416));
#1049=DIRECTION('',(0.,0.,-1.));
#1050=DIRECTION('center_axis',(0.,-1.,-6.21647187891601E-16));
#1051=DIRECTION('ref_axis',(-0.86602526172011,0.,0.500000246062555));
#1052=DIRECTION('center_axis',(0.,-1.,-6.21647187891601E-16));
#1053=DIRECTION('ref_axis',(-1.,0.,0.));
#1054=DIRECTION('center_axis',(0.,-1.,-6.21647187891601E-16));
#1055=DIRECTION('ref_axis',(0.500000246062637,0.,-0.866025261720062));
#1056=DIRECTION('',(1.,0.,0.));
#1057=DIRECTION('',(0.,6.21647187891601E-16,-1.));
#1058=DIRECTION('',(-1.,0.,0.));
#1059=DIRECTION('center_axis',(0.,0.,1.));
#1060=DIRECTION('ref_axis',(1.,0.,0.));
#1061=DIRECTION('center_axis',(-0.707106781186416,0.,-0.707106781186679));
#1062=DIRECTION('ref_axis',(-0.707106781186679,0.,0.707106781186416));
#1063=DIRECTION('',(0.,-1.,0.));
#1064=DIRECTION('',(0.,1.,0.));
#1065=DIRECTION('center_axis',(-1.,0.,0.));
#1066=DIRECTION('ref_axis',(0.,1.,4.14431458594401E-16));
#1067=DIRECTION('',(0.,-1.,0.));
#1068=DIRECTION('center_axis',(0.707106781186416,0.,-0.707106781186679));
#1069=DIRECTION('ref_axis',(-0.707106781186679,0.,-0.707106781186416));
#1070=DIRECTION('',(0.,1.,0.));
#1071=DIRECTION('',(0.,-1.,0.));
#1072=DIRECTION('center_axis',(1.,0.,0.));
#1073=DIRECTION('ref_axis',(0.,-1.,-4.14431458594401E-16));
#1074=DIRECTION('',(0.,1.,0.));
#1075=DIRECTION('center_axis',(0.,-1.,0.));
#1076=DIRECTION('ref_axis',(0.866025261720109,0.,0.500000246062556));
#1077=DIRECTION('',(0.,-1.,0.));
#1078=DIRECTION('center_axis',(0.,1.,0.));
#1079=DIRECTION('ref_axis',(-0.500000246062637,0.,-0.866025261720062));
#1080=DIRECTION('',(0.,-1.,-4.14431458594401E-16));
#1081=DIRECTION('',(0.,1.,0.));
#1082=DIRECTION('center_axis',(0.,4.14431458594401E-16,-1.));
#1083=DIRECTION('ref_axis',(0.,1.,4.14431458594401E-16));
#1084=DIRECTION('center_axis',(0.,-4.14431458594401E-16,1.));
#1085=DIRECTION('ref_axis',(0.707106781186547,0.707106781186547,0.));
#1086=DIRECTION('',(0.,1.,4.14431458594401E-16));
#1087=DIRECTION('center_axis',(0.,-4.14431458594401E-16,1.));
#1088=DIRECTION('ref_axis',(0.707106781186547,-0.707106781186547,0.));
#1089=DIRECTION('',(1.,0.,0.));
#1090=DIRECTION('center_axis',(0.,-4.14431458594401E-16,1.));
#1091=DIRECTION('ref_axis',(-0.707106781186547,-0.707106781186547,0.));
#1092=DIRECTION('',(0.,-1.,-4.14431458594401E-16));
#1093=DIRECTION('center_axis',(0.,-4.14431458594401E-16,1.));
#1094=DIRECTION('ref_axis',(-0.707106781186547,0.707106781186547,0.));
#1095=DIRECTION('',(0.,1.,4.14431458594401E-16));
#1096=DIRECTION('center_axis',(0.,-4.14431458594401E-16,1.));
#1097=DIRECTION('ref_axis',(-0.707106781186548,0.707106781186548,0.));
#1098=DIRECTION('',(0.,-1.,-4.14431458594401E-16));
#1099=DIRECTION('center_axis',(0.,-4.14431458594401E-16,1.));
#1100=DIRECTION('ref_axis',(-0.707106781186548,-0.707106781186548,0.));
#1101=DIRECTION('',(1.,0.,0.));
#1102=DIRECTION('center_axis',(0.,-4.14431458594401E-16,1.));
#1103=DIRECTION('ref_axis',(0.707106781186548,-0.707106781186548,0.));
#1104=DIRECTION('',(0.,1.,4.14431458594401E-16));
#1105=DIRECTION('center_axis',(0.,-4.14431458594401E-16,1.));
#1106=DIRECTION('ref_axis',(0.707106781186548,0.707106781186548,0.));
#1107=DIRECTION('center_axis',(0.,-1.,0.));
#1108=DIRECTION('ref_axis',(0.500000246062637,0.,-0.866025261720062));
#1109=DIRECTION('',(0.,-1.,0.));
#1110=DIRECTION('center_axis',(0.,1.,0.));
#1111=DIRECTION('ref_axis',(-0.86602526172011,0.,0.500000246062555));
#1112=DIRECTION('',(0.,1.,0.));
#1113=DIRECTION('center_axis',(0.,-1.,0.));
#1114=DIRECTION('ref_axis',(0.707106781186471,0.,0.707106781186624));
#1115=DIRECTION('center_axis',(0.,-1.,0.));
#1116=DIRECTION('ref_axis',(-1.,0.,0.));
#1117=DIRECTION('center_axis',(0.,0.,-1.));
#1118=DIRECTION('ref_axis',(-1.,0.,0.));
#1119=DIRECTION('center_axis',(0.,6.21647187891601E-16,-1.));
#1120=DIRECTION('ref_axis',(-0.707106781186548,0.707106781186548,0.));
#1121=DIRECTION('',(0.,-6.21647187891601E-16,1.));
#1122=DIRECTION('center_axis',(-1.,0.,0.));
#1123=DIRECTION('ref_axis',(0.,0.,1.));
#1124=DIRECTION('',(0.,1.554117969729E-16,-1.));
#1125=DIRECTION('center_axis',(0.,-1.554117969729E-16,1.));
#1126=DIRECTION('ref_axis',(-0.707106781186548,-0.707106781186548,0.));
#1127=DIRECTION('',(0.,-1.554117969729E-16,1.));
#1128=DIRECTION('center_axis',(0.,1.554117969729E-16,-1.));
#1129=DIRECTION('ref_axis',(0.707106781186548,-0.707106781186548,0.));
#1130=DIRECTION('',(0.,1.554117969729E-16,-1.));
#1131=DIRECTION('',(0.,-1.554117969729E-16,1.));
#1132=DIRECTION('center_axis',(1.,0.,0.));
#1133=DIRECTION('ref_axis',(0.,0.,-1.));
#1134=DIRECTION('',(0.,6.21647187891601E-16,-1.));
#1135=DIRECTION('center_axis',(0.,-6.21647187891601E-16,1.));
#1136=DIRECTION('ref_axis',(0.707106781186548,0.707106781186548,0.));
#1137=DIRECTION('center_axis',(0.,-1.,-1.554117969729E-16));
#1138=DIRECTION('ref_axis',(0.,1.554117969729E-16,-1.));
#1139=DIRECTION('center_axis',(0.,6.21647187891601E-16,-1.));
#1140=DIRECTION('ref_axis',(-0.707106781186547,0.707106781186547,0.));
#1141=DIRECTION('',(0.,-6.21647187891601E-16,1.));
#1142=DIRECTION('center_axis',(-1.,0.,0.));
#1143=DIRECTION('ref_axis',(0.,0.,1.));
#1144=DIRECTION('',(0.,1.554117969729E-16,-1.));
#1145=DIRECTION('center_axis',(0.,-1.554117969729E-16,1.));
#1146=DIRECTION('ref_axis',(-0.707106781186547,-0.707106781186547,0.));
#1147=DIRECTION('',(0.,-1.554117969729E-16,1.));
#1148=DIRECTION('center_axis',(0.,1.554117969729E-16,-1.));
#1149=DIRECTION('ref_axis',(0.707106781186547,-0.707106781186547,0.));
#1150=DIRECTION('',(0.,-1.554117969729E-16,1.));
#1151=DIRECTION('',(0.,1.554117969729E-16,-1.));
#1152=DIRECTION('center_axis',(1.,0.,0.));
#1153=DIRECTION('ref_axis',(0.,0.,-1.));
#1154=DIRECTION('',(0.,6.21647187891601E-16,-1.));
#1155=DIRECTION('center_axis',(0.,-6.21647187891601E-16,1.));
#1156=DIRECTION('ref_axis',(0.707106781186547,0.707106781186547,0.));
#1157=DIRECTION('center_axis',(0.,-1.,-1.554117969729E-16));
#1158=DIRECTION('ref_axis',(0.,1.554117969729E-16,-1.));
#1159=CARTESIAN_POINT('',(0.,0.,0.));
#1160=CARTESIAN_POINT('Origin',(0.365,3.69375000000001,41.2616535433071));
#1161=CARTESIAN_POINT('',(0.375,3.75000000000001,41.2516535433071));
#1162=CARTESIAN_POINT('',(0.355,3.75000000000001,41.2716535433071));
#1163=CARTESIAN_POINT('',(1.41495078740156,3.75000000000001,40.2117027559056));
#1164=CARTESIAN_POINT('',(0.355,3.67500000000001,41.2716535433071));
#1165=CARTESIAN_POINT('',(0.355,3.69375000000001,41.2716535433071));
#1166=CARTESIAN_POINT('',(0.375,3.67500000000001,41.2516535433071));
#1167=CARTESIAN_POINT('',(1.41495078740156,3.67500000000001,40.2117027559056));
#1168=CARTESIAN_POINT('',(0.375,3.69375000000001,41.2516535433071));
#1169=CARTESIAN_POINT('Origin',(0.375,3.67500000000001,41.1968503937008));
#1170=CARTESIAN_POINT('',(0.375,3.67500000000001,41.2314914553128));
#1171=CARTESIAN_POINT('',(0.375,3.67500000000001,41.1968503937008));
#1172=CARTESIAN_POINT('',(0.375,3.75000000000001,41.2314914553128));
#1173=CARTESIAN_POINT('',(0.375,3.75000000000001,41.2314914553128));
#1174=CARTESIAN_POINT('',(0.375,3.75000000000001,41.1968503937008));
#1175=CARTESIAN_POINT('Origin',(0.,3.67500000000001,36.6968503937008));
#1176=CARTESIAN_POINT('',(-0.355,3.67500000000001,41.2716535433071));
#1177=CARTESIAN_POINT('',(-0.375,3.67500000000001,41.2716535433071));
#1178=CARTESIAN_POINT('',(-0.375,3.67500000000001,41.2516535433071));
#1179=CARTESIAN_POINT('',(-1.41495078740156,3.67500000000001,40.2117027559056));
#1180=CARTESIAN_POINT('',(-0.375,3.67500000000001,41.2314914553128));
#1181=CARTESIAN_POINT('',(-0.375,3.67500000000001,41.1968503937008));
#1182=CARTESIAN_POINT('',(-0.364999990157489,3.67500000000001,41.2141709415545));
#1183=CARTESIAN_POINT('Origin',(-0.355,3.67500000000001,41.2314914553128));
#1184=CARTESIAN_POINT('',(-0.392320547853761,3.67500000000001,41.1868503838583));
#1185=CARTESIAN_POINT('Origin',(-0.375,3.67500000000001,41.1968503937008));
#1186=CARTESIAN_POINT('',(-0.409641061612025,3.67500000000001,41.1968503937008));
#1187=CARTESIAN_POINT('Origin',(-0.409641061612025,3.67500000000001,41.1768503937008));
#1188=CARTESIAN_POINT('',(-0.6,3.67500000000001,41.1968503937008));
#1189=CARTESIAN_POINT('',(0.,3.67500000000001,41.1968503937008));
#1190=CARTESIAN_POINT('',(-0.6,3.67500000000001,36.6968503937008));
#1191=CARTESIAN_POINT('',(-0.6,3.67500000000001,37.8218503937008));
#1192=CARTESIAN_POINT('',(-0.409641061612022,3.67500000000001,36.6968503937008));
#1193=CARTESIAN_POINT('',(0.,3.67500000000001,36.6968503937008));
#1194=CARTESIAN_POINT('',(-0.392320547853763,3.67500000000001,36.7068504035433));
#1195=CARTESIAN_POINT('Origin',(-0.409641061612022,3.67500000000001,36.7168503937008));
#1196=CARTESIAN_POINT('',(-0.36499999015749,3.67500000000001,36.679529845847));
#1197=CARTESIAN_POINT('Origin',(-0.375,3.67500000000001,36.6968503937008));
#1198=CARTESIAN_POINT('',(-0.375,3.67500000000001,36.6622093320888));
#1199=CARTESIAN_POINT('Origin',(-0.355,3.67500000000001,36.6622093320888));
#1200=CARTESIAN_POINT('',(-0.375,3.67500000000001,36.6420472440945));
#1201=CARTESIAN_POINT('',(-0.375,3.67500000000001,36.6968503937008));
#1202=CARTESIAN_POINT('',(-0.355,3.67500000000001,36.6220472440945));
#1203=CARTESIAN_POINT('',(-0.289950787401542,3.67500000000001,36.556998031496));
#1204=CARTESIAN_POINT('',(0.355,3.67500000000001,36.6220472440945));
#1205=CARTESIAN_POINT('',(-0.375,3.67500000000001,36.6220472440945));
#1206=CARTESIAN_POINT('',(0.375,3.67500000000001,36.6420472440945));
#1207=CARTESIAN_POINT('',(0.289950787401542,3.67500000000001,36.556998031496));
#1208=CARTESIAN_POINT('',(0.375,3.67500000000001,36.6622093320888));
#1209=CARTESIAN_POINT('',(0.375,3.67500000000001,36.6968503937008));
#1210=CARTESIAN_POINT('',(0.36499999015749,3.67500000000001,36.679529845847));
#1211=CARTESIAN_POINT('Origin',(0.355,3.67500000000001,36.6622093320888));
#1212=CARTESIAN_POINT('',(0.392320547853763,3.67500000000001,36.7068504035433));
#1213=CARTESIAN_POINT('Origin',(0.375,3.67500000000001,36.6968503937008));
#1214=CARTESIAN_POINT('',(0.409641061612022,3.67500000000001,36.6968503937008));
#1215=CARTESIAN_POINT('Origin',(0.409641061612022,3.67500000000001,36.7168503937008));
#1216=CARTESIAN_POINT('',(0.6,3.67500000000001,36.6968503937008));
#1217=CARTESIAN_POINT('',(0.,3.67500000000001,36.6968503937008));
#1218=CARTESIAN_POINT('',(0.6,3.67500000000001,41.1968503937008));
#1219=CARTESIAN_POINT('',(0.6,3.67500000000001,37.8218503937008));
#1220=CARTESIAN_POINT('',(0.409641061612025,3.67500000000001,41.1968503937008));
#1221=CARTESIAN_POINT('',(0.,3.67500000000001,41.1968503937008));
#1222=CARTESIAN_POINT('',(0.392320547853761,3.67500000000001,41.1868503838583));
#1223=CARTESIAN_POINT('Origin',(0.409641061612025,3.67500000000001,41.1768503937008));
#1224=CARTESIAN_POINT('',(0.364999990157489,3.67500000000001,41.2141709415545));
#1225=CARTESIAN_POINT('Origin',(0.375,3.67500000000001,41.1968503937008));
#1226=CARTESIAN_POINT('Origin',(0.355,3.67500000000001,41.2314914553128));
#1227=CARTESIAN_POINT('Origin',(-0.365,3.73125000000001,41.2616535433071));
#1228=CARTESIAN_POINT('',(-0.355,3.75000000000001,41.2716535433071));
#1229=CARTESIAN_POINT('',(-0.355,3.73125000000001,41.2716535433071));
#1230=CARTESIAN_POINT('',(-0.375,3.75000000000001,41.2516535433071));
#1231=CARTESIAN_POINT('',(-1.41495078740156,3.75000000000001,40.2117027559056));
#1232=CARTESIAN_POINT('',(-0.375,3.73125000000001,41.2516535433071));
#1233=CARTESIAN_POINT('Origin',(-0.375,3.75000000000001,41.1968503937008));
#1234=CARTESIAN_POINT('',(-0.375,3.75000000000001,41.2314914553128));
#1235=CARTESIAN_POINT('',(-0.375,3.75000000000001,41.1968503937008));
#1236=CARTESIAN_POINT('',(-0.375,3.75000000000001,41.2314914553128));
#1237=CARTESIAN_POINT('Origin',(-0.355,3.75000000000001,41.2314914553128));
#1238=CARTESIAN_POINT('',(-0.364999990157489,3.75000000000001,41.2141709415545));
#1239=CARTESIAN_POINT('Origin',(-0.355,3.75000000000001,41.2314914553128));
#1240=CARTESIAN_POINT('',(-0.36499999015749,3.75000000000001,41.2141709415545));
#1241=CARTESIAN_POINT('Origin',(-0.409641061612025,3.75000000000001,41.1768503937008));
#1242=CARTESIAN_POINT('',(-0.392320547853761,3.75000000000001,41.1868503838583));
#1243=CARTESIAN_POINT('',(-0.409641061612025,3.75000000000001,41.1968503937008));
#1244=CARTESIAN_POINT('Origin',(-0.409641061612025,3.75000000000001,41.1768503937008));
#1245=CARTESIAN_POINT('',(-0.409641061612025,3.75000000000001,41.1968503937008));
#1246=CARTESIAN_POINT('',(-0.392320547853762,3.75000000000001,41.1868503838583));
#1247=CARTESIAN_POINT('Origin',(0.,3.75000000000001,41.1968503937008));
#1248=CARTESIAN_POINT('',(-0.6,3.75000000000001,41.1968503937008));
#1249=CARTESIAN_POINT('',(0.,3.75000000000001,41.1968503937008));
#1250=CARTESIAN_POINT('',(-0.75,3.60000000000001,41.1968503937008));
#1251=CARTESIAN_POINT('Origin',(-0.6,3.60000000000001,41.1968503937008));
#1252=CARTESIAN_POINT('',(-0.75,2.40000000000001,41.1968503937008));
#1253=CARTESIAN_POINT('',(-0.75,54.,41.1968503937008));
#1254=CARTESIAN_POINT('',(-0.6,2.25000000000001,41.1968503937008));
#1255=CARTESIAN_POINT('Origin',(-0.6,2.40000000000001,41.1968503937008));
#1256=CARTESIAN_POINT('',(0.6,2.25000000000001,41.1968503937008));
#1257=CARTESIAN_POINT('',(0.,2.25000000000001,41.1968503937008));
#1258=CARTESIAN_POINT('',(0.75,2.40000000000001,41.1968503937008));
#1259=CARTESIAN_POINT('Origin',(0.6,2.40000000000001,41.1968503937008));
#1260=CARTESIAN_POINT('',(0.75,3.60000000000001,41.1968503937008));
#1261=CARTESIAN_POINT('',(0.75,54.,41.1968503937008));
#1262=CARTESIAN_POINT('',(0.6,3.75000000000001,41.1968503937008));
#1263=CARTESIAN_POINT('Origin',(0.6,3.60000000000001,41.1968503937008));
#1264=CARTESIAN_POINT('',(0.409641061612025,3.75000000000001,41.1968503937008));
#1265=CARTESIAN_POINT('',(0.,3.75000000000001,41.1968503937008));
#1266=CARTESIAN_POINT('',(0.409641061612025,3.75000000000001,41.1968503937008));
#1267=CARTESIAN_POINT('',(0.675,3.60000000000001,41.1968503937008));
#1268=CARTESIAN_POINT('Origin',(0.6,3.60000000000001,41.1968503937008));
#1269=CARTESIAN_POINT('',(0.675,2.40000000000001,41.1968503937008));
#1270=CARTESIAN_POINT('',(0.675,3.37500000000001,41.1968503937008));
#1271=CARTESIAN_POINT('',(0.6,2.32500000000001,41.1968503937008));
#1272=CARTESIAN_POINT('Origin',(0.6,2.40000000000001,41.1968503937008));
#1273=CARTESIAN_POINT('',(-0.6,2.32500000000001,41.1968503937008));
#1274=CARTESIAN_POINT('',(0.,2.32500000000001,41.1968503937008));
#1275=CARTESIAN_POINT('',(-0.675,2.40000000000001,41.1968503937008));
#1276=CARTESIAN_POINT('Origin',(-0.6,2.40000000000001,41.1968503937008));
#1277=CARTESIAN_POINT('',(-0.675,3.60000000000001,41.1968503937008));
#1278=CARTESIAN_POINT('',(-0.675,3.37500000000001,41.1968503937008));
#1279=CARTESIAN_POINT('Origin',(-0.6,3.60000000000001,41.1968503937008));
#1280=CARTESIAN_POINT('Origin',(0.409641061612025,3.75000000000001,41.1768503937008));
#1281=CARTESIAN_POINT('',(0.392320547853761,3.75000000000001,41.1868503838583));
#1282=CARTESIAN_POINT('Origin',(0.409641061612025,3.75000000000001,41.1768503937008));
#1283=CARTESIAN_POINT('',(0.392320547853762,3.75000000000001,41.1868503838583));
#1284=CARTESIAN_POINT('Origin',(0.355,3.75000000000001,41.2314914553128));
#1285=CARTESIAN_POINT('',(0.364999990157489,3.75000000000001,41.2141709415545));
#1286=CARTESIAN_POINT('Origin',(0.355,3.75000000000001,41.2314914553128));
#1287=CARTESIAN_POINT('',(0.36499999015749,3.75000000000001,41.2141709415545));
#1288=CARTESIAN_POINT('Origin',(0.375,3.75000000000001,41.1968503937008));
#1289=CARTESIAN_POINT('Origin',(0.375,3.75000000000001,41.1968503937008));
#1290=CARTESIAN_POINT('Origin',(-0.375,3.75000000000001,41.1968503937008));
#1291=CARTESIAN_POINT('Origin',(-0.375,3.75000000000001,41.1968503937008));
#1292=CARTESIAN_POINT('Origin',(0.,3.75000000000001,36.6968503937008));
#1293=CARTESIAN_POINT('',(0.6,3.75000000000001,36.6968503937008));
#1294=CARTESIAN_POINT('',(0.6,3.75000000000001,37.8218503937008));
#1295=CARTESIAN_POINT('',(0.409641061612022,3.75000000000001,36.6968503937008));
#1296=CARTESIAN_POINT('',(0.,3.75000000000001,36.6968503937008));
#1297=CARTESIAN_POINT('',(0.392320547853763,3.75000000000001,36.7068504035433));
#1298=CARTESIAN_POINT('Origin',(0.409641061612022,3.75000000000001,36.7168503937008));
#1299=CARTESIAN_POINT('',(0.36499999015749,3.75000000000001,36.679529845847));
#1300=CARTESIAN_POINT('Origin',(0.375,3.75000000000001,36.6968503937008));
#1301=CARTESIAN_POINT('',(0.375,3.75000000000001,36.6622093320888));
#1302=CARTESIAN_POINT('Origin',(0.355,3.75000000000001,36.6622093320888));
#1303=CARTESIAN_POINT('',(0.375,3.75000000000001,36.6420472440945));
#1304=CARTESIAN_POINT('',(0.375,3.75000000000001,36.6968503937008));
#1305=CARTESIAN_POINT('',(0.355,3.75000000000001,36.6220472440945));
#1306=CARTESIAN_POINT('',(0.289950787401542,3.75000000000001,36.556998031496));
#1307=CARTESIAN_POINT('',(-0.355,3.75000000000001,36.6220472440945));
#1308=CARTESIAN_POINT('',(0.375,3.75000000000001,36.6220472440945));
#1309=CARTESIAN_POINT('',(-0.375,3.75000000000001,36.6420472440945));
#1310=CARTESIAN_POINT('',(-0.289950787401542,3.75000000000001,36.556998031496));
#1311=CARTESIAN_POINT('',(-0.375,3.75000000000001,36.6622093320888));
#1312=CARTESIAN_POINT('',(-0.375,3.75000000000001,36.6968503937008));
#1313=CARTESIAN_POINT('',(-0.36499999015749,3.75000000000001,36.679529845847));
#1314=CARTESIAN_POINT('Origin',(-0.355,3.75000000000001,36.6622093320888));
#1315=CARTESIAN_POINT('',(-0.392320547853763,3.75000000000001,36.7068504035433));
#1316=CARTESIAN_POINT('Origin',(-0.375,3.75000000000001,36.6968503937008));
#1317=CARTESIAN_POINT('',(-0.409641061612022,3.75000000000001,36.6968503937008));
#1318=CARTESIAN_POINT('Origin',(-0.409641061612022,3.75000000000001,36.7168503937008));
#1319=CARTESIAN_POINT('',(-0.6,3.75000000000001,36.6968503937008));
#1320=CARTESIAN_POINT('',(0.,3.75000000000001,36.6968503937008));
#1321=CARTESIAN_POINT('',(-0.6,3.75000000000001,37.8218503937008));
#1322=CARTESIAN_POINT('',(0.375,3.75000000000001,41.2716535433071));
#1323=CARTESIAN_POINT('Origin',(0.,3.71250000000001,41.2716535433071));
#1324=CARTESIAN_POINT('Origin',(-0.365,3.69375000000001,36.6320472440945));
#1325=CARTESIAN_POINT('',(-0.355,3.69375000000001,36.6220472440945));
#1326=CARTESIAN_POINT('',(-0.375,3.69375000000001,36.6420472440945));
#1327=CARTESIAN_POINT('Origin',(-0.375,3.67500000000001,36.6968503937008));
#1328=CARTESIAN_POINT('',(-0.375,3.75000000000001,36.6622093320888));
#1329=CARTESIAN_POINT('Origin',(0.365,3.73125000000001,36.6320472440945));
#1330=CARTESIAN_POINT('',(0.355,3.73125000000001,36.6220472440945));
#1331=CARTESIAN_POINT('',(0.375,3.73125000000001,36.6420472440945));
#1332=CARTESIAN_POINT('Origin',(0.375,3.75000000000001,36.6968503937008));
#1333=CARTESIAN_POINT('',(0.375,3.75000000000001,36.6622093320888));
#1334=CARTESIAN_POINT('Origin',(0.355,3.75000000000001,36.6622093320888));
#1335=CARTESIAN_POINT('',(0.36499999015749,3.75000000000001,36.679529845847));
#1336=CARTESIAN_POINT('Origin',(0.409641061612022,3.75000000000001,36.7168503937008));
#1337=CARTESIAN_POINT('',(0.409641061612022,3.75000000000001,36.6968503937008));
#1338=CARTESIAN_POINT('',(0.392320547853761,3.75000000000001,36.7068504035433));
#1339=CARTESIAN_POINT('Origin',(0.,2.25000000000001,36.6968503937008));
#1340=CARTESIAN_POINT('',(0.75,3.60000000000001,36.6968503937008));
#1341=CARTESIAN_POINT('Origin',(0.6,3.60000000000001,36.6968503937008));
#1342=CARTESIAN_POINT('',(0.75,2.40000000000001,36.6968503937008));
#1343=CARTESIAN_POINT('',(0.75,1.11896493820488E-14,36.6968503937008));
#1344=CARTESIAN_POINT('',(0.6,2.25000000000001,36.6968503937008));
#1345=CARTESIAN_POINT('Origin',(0.6,2.40000000000001,36.6968503937008));
#1346=CARTESIAN_POINT('',(-0.6,2.25000000000001,36.6968503937008));
#1347=CARTESIAN_POINT('',(0.,2.25000000000001,36.6968503937008));
#1348=CARTESIAN_POINT('',(-0.75,2.40000000000001,36.6968503937008));
#1349=CARTESIAN_POINT('Origin',(-0.6,2.40000000000001,36.6968503937008));
#1350=CARTESIAN_POINT('',(-0.75,3.60000000000001,36.6968503937008));
#1351=CARTESIAN_POINT('',(-0.75,1.11896493820488E-14,36.6968503937008));
#1352=CARTESIAN_POINT('Origin',(-0.6,3.60000000000001,36.6968503937008));
#1353=CARTESIAN_POINT('',(-0.409641061612022,3.75000000000001,36.6968503937008));
#1354=CARTESIAN_POINT('',(-0.675,3.60000000000001,36.6968503937008));
#1355=CARTESIAN_POINT('Origin',(-0.6,3.60000000000001,36.6968503937008));
#1356=CARTESIAN_POINT('',(-0.675,2.40000000000001,36.6968503937008));
#1357=CARTESIAN_POINT('',(-0.675,2.62500000000001,36.6968503937008));
#1358=CARTESIAN_POINT('',(-0.6,2.32500000000001,36.6968503937008));
#1359=CARTESIAN_POINT('Origin',(-0.6,2.40000000000001,36.6968503937008));
#1360=CARTESIAN_POINT('',(0.6,2.32500000000001,36.6968503937008));
#1361=CARTESIAN_POINT('',(0.,2.32500000000001,36.6968503937008));
#1362=CARTESIAN_POINT('',(0.675,2.40000000000001,36.6968503937008));
#1363=CARTESIAN_POINT('Origin',(0.6,2.40000000000001,36.6968503937008));
#1364=CARTESIAN_POINT('',(0.675,3.60000000000001,36.6968503937008));
#1365=CARTESIAN_POINT('',(0.675,2.62500000000001,36.6968503937008));
#1366=CARTESIAN_POINT('Origin',(0.6,3.60000000000001,36.6968503937008));
#1367=CARTESIAN_POINT('Origin',(-0.409641061612022,3.75000000000001,36.7168503937008));
#1368=CARTESIAN_POINT('',(-0.392320547853761,3.75000000000001,36.7068504035433));
#1369=CARTESIAN_POINT('Origin',(-0.355,3.75000000000001,36.6622093320888));
#1370=CARTESIAN_POINT('',(-0.36499999015749,3.75000000000001,36.679529845847));
#1371=CARTESIAN_POINT('Origin',(-0.375,3.75000000000001,36.6968503937008));
#1372=CARTESIAN_POINT('Origin',(0.375,3.75000000000001,36.6968503937008));
#1373=CARTESIAN_POINT('Origin',(0.,3.71250000000001,36.6220472440945));
#1374=CARTESIAN_POINT('Origin',(-0.6,3.60000000000001,37.8218503937008));
#1375=CARTESIAN_POINT('',(-0.675,3.60000000000001,37.8218503937008));
#1376=CARTESIAN_POINT('Origin',(-0.675,3.00000000000001,38.9468503937008));
#1377=CARTESIAN_POINT('',(-0.675,2.40000000000001,40.0718503937008));
#1378=CARTESIAN_POINT('Origin',(-0.6,2.40000000000001,40.0718503937008));
#1379=CARTESIAN_POINT('',(-0.6,2.32500000000001,40.0718503937008));
#1380=CARTESIAN_POINT('Origin',(0.6,2.40000000000001,40.0718503937008));
#1381=CARTESIAN_POINT('',(0.6,2.32500000000001,40.0718503937008));
#1382=CARTESIAN_POINT('',(0.675,2.40000000000001,40.0718503937008));
#1383=CARTESIAN_POINT('Origin',(0.675,3.00000000000001,38.9468503937008));
#1384=CARTESIAN_POINT('',(0.675,3.60000000000001,37.8218503937008));
#1385=CARTESIAN_POINT('Origin',(0.6,3.60000000000001,37.8218503937008));
#1386=CARTESIAN_POINT('Origin',(0.,2.32500000000001,41.1968503937008));
#1387=CARTESIAN_POINT('Origin',(-0.6,3.60000000000001,37.8218503937008));
#1388=CARTESIAN_POINT('',(-0.75,3.60000000000001,37.8218503937008));
#1389=CARTESIAN_POINT('Origin',(-0.75,3.00000000000001,38.9468503937008));
#1390=CARTESIAN_POINT('',(-0.75,2.40000000000001,40.0718503937008));
#1391=CARTESIAN_POINT('Origin',(-0.6,2.40000000000001,40.0718503937008));
#1392=CARTESIAN_POINT('',(-0.6,2.25000000000001,40.0718503937008));
#1393=CARTESIAN_POINT('Origin',(0.6,2.40000000000001,40.0718503937008));
#1394=CARTESIAN_POINT('',(0.75,2.40000000000001,40.0718503937008));
#1395=CARTESIAN_POINT('',(0.6,2.25000000000001,40.0718503937008));
#1396=CARTESIAN_POINT('Origin',(0.75,3.00000000000001,38.9468503937008));
#1397=CARTESIAN_POINT('',(0.75,3.60000000000001,37.8218503937008));
#1398=CARTESIAN_POINT('Origin',(0.6,3.60000000000001,37.8218503937008));
#1399=CARTESIAN_POINT('Origin',(0.,2.25000000000001,41.1968503937008));
#1400=UNCERTAINTY_MEASURE_WITH_UNIT(LENGTH_MEASURE(0.000393700787401575),
#1406,'DISTANCE_ACCURACY_VALUE',
'Maximum model space distance between geometric entities at asserted c
onnectivities');
#1401=UNCERTAINTY_MEASURE_WITH_UNIT(LENGTH_MEASURE(0.000393700787401575),
#1406,'DISTANCE_ACCURACY_VALUE',
'Maximum model space distance between geometric entities at asserted c
onnectivities');
#1402=(
GEOMETRIC_REPRESENTATION_CONTEXT(3)
GLOBAL_UNCERTAINTY_ASSIGNED_CONTEXT((#1400))
GLOBAL_UNIT_ASSIGNED_CONTEXT((#1406,#1410,#1411))
REPRESENTATION_CONTEXT('','3D')
);
#1403=(
GEOMETRIC_REPRESENTATION_CONTEXT(3)
GLOBAL_UNCERTAINTY_ASSIGNED_CONTEXT((#1401))
GLOBAL_UNIT_ASSIGNED_CONTEXT((#1406,#1410,#1411))
REPRESENTATION_CONTEXT('','3D')
);
#1404=DIMENSIONAL_EXPONENTS(1.,0.,0.,0.,0.,0.,0.);
#1405=DIMENSIONAL_EXPONENTS(0.,1.,0.,0.,0.,0.,0.);
#1406=(
CONVERSION_BASED_UNIT('inch',#1409)
LENGTH_UNIT()
NAMED_UNIT(#1404)
);
#1407=(
LENGTH_UNIT()
NAMED_UNIT(*)
SI_UNIT(.MILLI.,.METRE.)
);
#1408=(
LENGTH_UNIT()
NAMED_UNIT(*)
SI_UNIT(.CENTI.,.METRE.)
);
#1409=LENGTH_MEASURE_WITH_UNIT(LENGTH_MEASURE(25.4),#1407);
#1410=(
NAMED_UNIT(*)
PLANE_ANGLE_UNIT()
SI_UNIT($,.RADIAN.)
);
#1411=(
NAMED_UNIT(*)
SI_UNIT($,.STERADIAN.)
SOLID_ANGLE_UNIT()
);
#1412=SHAPE_DEFINITION_REPRESENTATION(#1413,#1414);
#1413=PRODUCT_DEFINITION_SHAPE('',$,#1416);
#1414=SHAPE_REPRESENTATION('',(#836),#1402);
#1415=PRODUCT_DEFINITION_CONTEXT('part definition',#1420,'design');
#1416=PRODUCT_DEFINITION('CRA-1011','CRA-1011',#1417,#1415);
#1417=PRODUCT_DEFINITION_FORMATION('',$,#1422);
#1418=PRODUCT_RELATED_PRODUCT_CATEGORY('CRA-1011','CRA-1011',(#1422));
#1419=APPLICATION_PROTOCOL_DEFINITION('international standard',
'automotive_design',2009,#1420);
#1420=APPLICATION_CONTEXT(
'Core Data for Automotive Mechanical Design Process');
#1421=PRODUCT_CONTEXT('part definition',#1420,'mechanical');
#1422=PRODUCT('CRA-1011','CRA-1011','Robot Arm Tube 10',(#1421));
#1423=PRESENTATION_STYLE_ASSIGNMENT((#1424));
#1424=SURFACE_STYLE_USAGE(.BOTH.,#1427);
#1425=SURFACE_STYLE_RENDERING_WITH_PROPERTIES($,#1431,(#1426));
#1426=SURFACE_STYLE_TRANSPARENT(0.);
#1427=SURFACE_SIDE_STYLE('',(#1428,#1425));
#1428=SURFACE_STYLE_FILL_AREA(#1429);
#1429=FILL_AREA_STYLE('',(#1430));
#1430=FILL_AREA_STYLE_COLOUR('',#1431);
#1431=COLOUR_RGB('',0.749019607843137,0.749019607843137,0.749019607843137);
ENDSEC;
END-ISO-10303-21;
