ISO-10303-21;
HEADER;
/* Generated by software containing ST-Developer
 * from STEP Tools, Inc. (www.steptools.com) 
 */

FILE_DESCRIPTION(
/* description */ ('Robot Arm Tube 5'),
/* implementation_level */ '2;1');

FILE_NAME(
/* name */ 'CRA-1006.stp',
/* time_stamp */ '2025-12-22T15:25:36-06:00',
/* author */ ('josh'),
/* organization */ (''),
/* preprocessor_version */ 'ST-DEVELOPER v20',
/* originating_system */ 'Autodesk Inventor 2025',
/* authorisation */ '');

FILE_SCHEMA (('AUTOMOTIVE_DESIGN { 1 0 10303 214 3 1 1 }'));
ENDSEC;

DATA;
#10=MECHANICAL_DESIGN_GEOMETRIC_PRESENTATION_REPRESENTATION('',(#13),#719);
#11=SHAPE_REPRESENTATION_RELATIONSHIP('SRR','None',#730,#12);
#12=ADVANCED_BREP_SHAPE_REPRESENTATION('',(#14),#718);
#13=STYLED_ITEM('',(#739),#14);
#14=MANIFOLD_SOLID_BREP('CRA-1006',#419);
#15=PLANE('',#444);
#16=PLANE('',#448);
#17=PLANE('',#452);
#18=PLANE('',#456);
#19=PLANE('',#457);
#20=PLANE('',#460);
#21=PLANE('',#465);
#22=PLANE('',#466);
#23=PLANE('',#469);
#24=PLANE('',#472);
#25=PLANE('',#475);
#26=PLANE('',#476);
#27=FACE_OUTER_BOUND('',#47,.T.);
#28=FACE_OUTER_BOUND('',#48,.T.);
#29=FACE_OUTER_BOUND('',#49,.T.);
#30=FACE_OUTER_BOUND('',#50,.T.);
#31=FACE_OUTER_BOUND('',#51,.T.);
#32=FACE_OUTER_BOUND('',#52,.T.);
#33=FACE_OUTER_BOUND('',#53,.T.);
#34=FACE_OUTER_BOUND('',#54,.T.);
#35=FACE_OUTER_BOUND('',#55,.T.);
#36=FACE_OUTER_BOUND('',#56,.T.);
#37=FACE_OUTER_BOUND('',#57,.T.);
#38=FACE_OUTER_BOUND('',#58,.T.);
#39=FACE_OUTER_BOUND('',#59,.T.);
#40=FACE_OUTER_BOUND('',#60,.T.);
#41=FACE_OUTER_BOUND('',#61,.T.);
#42=FACE_OUTER_BOUND('',#62,.T.);
#43=FACE_OUTER_BOUND('',#63,.T.);
#44=FACE_OUTER_BOUND('',#64,.T.);
#45=FACE_OUTER_BOUND('',#65,.T.);
#46=FACE_OUTER_BOUND('',#66,.T.);
#47=EDGE_LOOP('',(#271,#272,#273,#274));
#48=EDGE_LOOP('',(#275,#276,#277,#278,#279,#280));
#49=EDGE_LOOP('',(#281,#282,#283,#284));
#50=EDGE_LOOP('',(#285,#286,#287,#288,#289,#290));
#51=EDGE_LOOP('',(#291,#292,#293,#294));
#52=EDGE_LOOP('',(#295,#296,#297,#298));
#53=EDGE_LOOP('',(#299,#300,#301,#302));
#54=EDGE_LOOP('',(#303,#304,#305,#306));
#55=EDGE_LOOP('',(#307,#308,#309,#310,#311,#312,#313,#314,#315,#316,#317,
#318));
#56=EDGE_LOOP('',(#319,#320,#321,#322,#323,#324,#325,#326,#327,#328,#329,
#330));
#57=EDGE_LOOP('',(#331,#332,#333,#334));
#58=EDGE_LOOP('',(#335,#336,#337,#338,#339,#340));
#59=EDGE_LOOP('',(#341,#342,#343,#344,#345,#346,#347,#348,#349,#350,#351,
#352));
#60=EDGE_LOOP('',(#353,#354,#355,#356));
#61=EDGE_LOOP('',(#357,#358,#359,#360,#361,#362));
#62=EDGE_LOOP('',(#363,#364,#365,#366));
#63=EDGE_LOOP('',(#367,#368,#369,#370));
#64=EDGE_LOOP('',(#371,#372,#373,#374));
#65=EDGE_LOOP('',(#375,#376,#377,#378,#379,#380,#381,#382,#383,#384,#385,
#386));
#66=EDGE_LOOP('',(#387,#388,#389,#390));
#67=LINE('',#601,#111);
#68=LINE('',#604,#112);
#69=LINE('',#607,#113);
#70=LINE('',#609,#114);
#71=LINE('',#611,#115);
#72=LINE('',#613,#116);
#73=LINE('',#614,#117);
#74=LINE('',#620,#118);
#75=LINE('',#623,#119);
#76=LINE('',#626,#120);
#77=LINE('',#628,#121);
#78=LINE('',#630,#122);
#79=LINE('',#632,#123);
#80=LINE('',#633,#124);
#81=LINE('',#638,#125);
#82=LINE('',#642,#126);
#83=LINE('',#644,#127);
#84=LINE('',#645,#128);
#85=LINE('',#650,#129);
#86=LINE('',#651,#130);
#87=LINE('',#654,#131);
#88=LINE('',#656,#132);
#89=LINE('',#660,#133);
#90=LINE('',#664,#134);
#91=LINE('',#665,#135);
#92=LINE('',#668,#136);
#93=LINE('',#670,#137);
#94=LINE('',#674,#138);
#95=LINE('',#678,#139);
#96=LINE('',#679,#140);
#97=LINE('',#684,#141);
#98=LINE('',#685,#142);
#99=LINE('',#687,#143);
#100=LINE('',#689,#144);
#101=LINE('',#690,#145);
#102=LINE('',#693,#146);
#103=LINE('',#696,#147);
#104=LINE('',#698,#148);
#105=LINE('',#699,#149);
#106=LINE('',#702,#150);
#107=LINE('',#703,#151);
#108=LINE('',#707,#152);
#109=LINE('',#710,#153);
#110=LINE('',#711,#154);
#111=VECTOR('',#483,0.393700787401575);
#112=VECTOR('',#486,0.393700787401575);
#113=VECTOR('',#489,0.393700787401575);
#114=VECTOR('',#490,0.393700787401575);
#115=VECTOR('',#491,0.393700787401575);
#116=VECTOR('',#492,0.393700787401575);
#117=VECTOR('',#493,0.393700787401575);
#118=VECTOR('',#498,0.393700787401575);
#119=VECTOR('',#501,0.393700787401575);
#120=VECTOR('',#504,0.393700787401575);
#121=VECTOR('',#505,0.393700787401575);
#122=VECTOR('',#506,0.393700787401575);
#123=VECTOR('',#507,0.393700787401575);
#124=VECTOR('',#508,0.393700787401575);
#125=VECTOR('',#513,0.393700787401575);
#126=VECTOR('',#518,0.393700787401575);
#127=VECTOR('',#519,0.393700787401575);
#128=VECTOR('',#520,0.393700787401575);
#129=VECTOR('',#529,0.393700787401575);
#130=VECTOR('',#530,0.393700787401575);
#131=VECTOR('',#533,0.393700787401575);
#132=VECTOR('',#534,0.393700787401575);
#133=VECTOR('',#537,0.393700787401575);
#134=VECTOR('',#540,0.393700787401575);
#135=VECTOR('',#541,0.393700787401575);
#136=VECTOR('',#544,0.393700787401575);
#137=VECTOR('',#545,0.393700787401575);
#138=VECTOR('',#548,0.393700787401575);
#139=VECTOR('',#551,0.393700787401575);
#140=VECTOR('',#552,0.393700787401575);
#141=VECTOR('',#557,0.393700787401575);
#142=VECTOR('',#558,0.393700787401575);
#143=VECTOR('',#561,0.393700787401575);
#144=VECTOR('',#562,0.393700787401575);
#145=VECTOR('',#563,0.393700787401575);
#146=VECTOR('',#566,0.393700787401575);
#147=VECTOR('',#569,0.393700787401575);
#148=VECTOR('',#572,0.393700787401575);
#149=VECTOR('',#573,0.393700787401575);
#150=VECTOR('',#576,0.393700787401575);
#151=VECTOR('',#577,0.393700787401575);
#152=VECTOR('',#582,0.393700787401575);
#153=VECTOR('',#585,0.393700787401575);
#154=VECTOR('',#586,0.393700787401575);
#155=ELLIPSE('',#442,0.275676076914041,0.075);
#156=ELLIPSE('',#443,0.0779398332636555,0.075);
#157=ELLIPSE('',#446,0.0779398332636555,0.075);
#158=ELLIPSE('',#447,0.275676076914041,0.075);
#159=ELLIPSE('',#450,0.275676076914041,0.075);
#160=ELLIPSE('',#451,0.0779398332636554,0.075);
#161=ELLIPSE('',#454,0.0779398332636554,0.075);
#162=ELLIPSE('',#455,0.275676076914041,0.075);
#163=ELLIPSE('',#458,0.155879666527311,0.15);
#164=ELLIPSE('',#459,0.155879666527311,0.15);
#165=ELLIPSE('',#461,0.155879666527311,0.15);
#166=ELLIPSE('',#462,0.155879666527311,0.15);
#167=ELLIPSE('',#464,0.551352153828082,0.15);
#168=ELLIPSE('',#467,0.551352153828082,0.15);
#169=ELLIPSE('',#471,0.551352153828082,0.15);
#170=ELLIPSE('',#474,0.551352153828082,0.15);
#171=VERTEX_POINT('',#597);
#172=VERTEX_POINT('',#598);
#173=VERTEX_POINT('',#600);
#174=VERTEX_POINT('',#602);
#175=VERTEX_POINT('',#606);
#176=VERTEX_POINT('',#608);
#177=VERTEX_POINT('',#610);
#178=VERTEX_POINT('',#612);
#179=VERTEX_POINT('',#616);
#180=VERTEX_POINT('',#617);
#181=VERTEX_POINT('',#619);
#182=VERTEX_POINT('',#621);
#183=VERTEX_POINT('',#625);
#184=VERTEX_POINT('',#627);
#185=VERTEX_POINT('',#629);
#186=VERTEX_POINT('',#631);
#187=VERTEX_POINT('',#635);
#188=VERTEX_POINT('',#637);
#189=VERTEX_POINT('',#641);
#190=VERTEX_POINT('',#643);
#191=VERTEX_POINT('',#653);
#192=VERTEX_POINT('',#655);
#193=VERTEX_POINT('',#657);
#194=VERTEX_POINT('',#659);
#195=VERTEX_POINT('',#661);
#196=VERTEX_POINT('',#663);
#197=VERTEX_POINT('',#667);
#198=VERTEX_POINT('',#669);
#199=VERTEX_POINT('',#671);
#200=VERTEX_POINT('',#673);
#201=VERTEX_POINT('',#675);
#202=VERTEX_POINT('',#677);
#203=VERTEX_POINT('',#681);
#204=VERTEX_POINT('',#682);
#205=VERTEX_POINT('',#688);
#206=VERTEX_POINT('',#692);
#207=VERTEX_POINT('',#694);
#208=VERTEX_POINT('',#701);
#209=VERTEX_POINT('',#705);
#210=VERTEX_POINT('',#709);
#211=EDGE_CURVE('',#171,#172,#155,.T.);
#212=EDGE_CURVE('',#173,#171,#67,.T.);
#213=EDGE_CURVE('',#174,#173,#156,.T.);
#214=EDGE_CURVE('',#172,#174,#68,.T.);
#215=EDGE_CURVE('',#175,#174,#69,.T.);
#216=EDGE_CURVE('',#176,#175,#70,.T.);
#217=EDGE_CURVE('',#176,#177,#71,.T.);
#218=EDGE_CURVE('',#178,#177,#72,.T.);
#219=EDGE_CURVE('',#172,#178,#73,.T.);
#220=EDGE_CURVE('',#179,#180,#157,.T.);
#221=EDGE_CURVE('',#181,#179,#74,.T.);
#222=EDGE_CURVE('',#182,#181,#158,.T.);
#223=EDGE_CURVE('',#180,#182,#75,.T.);
#224=EDGE_CURVE('',#183,#182,#76,.T.);
#225=EDGE_CURVE('',#184,#183,#77,.T.);
#226=EDGE_CURVE('',#184,#185,#78,.T.);
#227=EDGE_CURVE('',#186,#185,#79,.T.);
#228=EDGE_CURVE('',#180,#186,#80,.T.);
#229=EDGE_CURVE('',#187,#176,#159,.T.);
#230=EDGE_CURVE('',#188,#187,#81,.T.);
#231=EDGE_CURVE('',#177,#188,#160,.T.);
#232=EDGE_CURVE('',#189,#187,#82,.T.);
#233=EDGE_CURVE('',#189,#190,#83,.T.);
#234=EDGE_CURVE('',#188,#190,#84,.T.);
#235=EDGE_CURVE('',#190,#184,#161,.T.);
#236=EDGE_CURVE('',#185,#189,#162,.T.);
#237=EDGE_CURVE('',#181,#171,#85,.T.);
#238=EDGE_CURVE('',#173,#179,#86,.T.);
#239=EDGE_CURVE('',#191,#183,#87,.T.);
#240=EDGE_CURVE('',#192,#191,#88,.T.);
#241=EDGE_CURVE('',#193,#192,#163,.T.);
#242=EDGE_CURVE('',#194,#193,#89,.T.);
#243=EDGE_CURVE('',#195,#194,#164,.T.);
#244=EDGE_CURVE('',#196,#195,#90,.T.);
#245=EDGE_CURVE('',#178,#196,#91,.T.);
#246=EDGE_CURVE('',#186,#197,#92,.T.);
#247=EDGE_CURVE('',#198,#197,#93,.T.);
#248=EDGE_CURVE('',#199,#198,#165,.T.);
#249=EDGE_CURVE('',#200,#199,#94,.T.);
#250=EDGE_CURVE('',#201,#200,#166,.T.);
#251=EDGE_CURVE('',#202,#201,#95,.T.);
#252=EDGE_CURVE('',#202,#175,#96,.T.);
#253=EDGE_CURVE('',#203,#204,#167,.T.);
#254=EDGE_CURVE('',#204,#201,#97,.T.);
#255=EDGE_CURVE('',#200,#203,#98,.T.);
#256=EDGE_CURVE('',#204,#196,#99,.T.);
#257=EDGE_CURVE('',#205,#195,#100,.T.);
#258=EDGE_CURVE('',#205,#202,#101,.T.);
#259=EDGE_CURVE('',#203,#206,#102,.T.);
#260=EDGE_CURVE('',#207,#206,#168,.T.);
#261=EDGE_CURVE('',#191,#207,#103,.T.);
#262=EDGE_CURVE('',#198,#207,#104,.T.);
#263=EDGE_CURVE('',#206,#199,#105,.T.);
#264=EDGE_CURVE('',#197,#208,#106,.T.);
#265=EDGE_CURVE('',#192,#208,#107,.T.);
#266=EDGE_CURVE('',#209,#205,#169,.T.);
#267=EDGE_CURVE('',#194,#209,#108,.T.);
#268=EDGE_CURVE('',#210,#193,#109,.T.);
#269=EDGE_CURVE('',#209,#210,#110,.T.);
#270=EDGE_CURVE('',#208,#210,#170,.T.);
#271=ORIENTED_EDGE('',*,*,#211,.F.);
#272=ORIENTED_EDGE('',*,*,#212,.F.);
#273=ORIENTED_EDGE('',*,*,#213,.F.);
#274=ORIENTED_EDGE('',*,*,#214,.F.);
#275=ORIENTED_EDGE('',*,*,#214,.T.);
#276=ORIENTED_EDGE('',*,*,#215,.F.);
#277=ORIENTED_EDGE('',*,*,#216,.F.);
#278=ORIENTED_EDGE('',*,*,#217,.T.);
#279=ORIENTED_EDGE('',*,*,#218,.F.);
#280=ORIENTED_EDGE('',*,*,#219,.F.);
#281=ORIENTED_EDGE('',*,*,#220,.F.);
#282=ORIENTED_EDGE('',*,*,#221,.F.);
#283=ORIENTED_EDGE('',*,*,#222,.F.);
#284=ORIENTED_EDGE('',*,*,#223,.F.);
#285=ORIENTED_EDGE('',*,*,#223,.T.);
#286=ORIENTED_EDGE('',*,*,#224,.F.);
#287=ORIENTED_EDGE('',*,*,#225,.F.);
#288=ORIENTED_EDGE('',*,*,#226,.T.);
#289=ORIENTED_EDGE('',*,*,#227,.F.);
#290=ORIENTED_EDGE('',*,*,#228,.F.);
#291=ORIENTED_EDGE('',*,*,#229,.F.);
#292=ORIENTED_EDGE('',*,*,#230,.F.);
#293=ORIENTED_EDGE('',*,*,#231,.F.);
#294=ORIENTED_EDGE('',*,*,#217,.F.);
#295=ORIENTED_EDGE('',*,*,#230,.T.);
#296=ORIENTED_EDGE('',*,*,#232,.F.);
#297=ORIENTED_EDGE('',*,*,#233,.T.);
#298=ORIENTED_EDGE('',*,*,#234,.F.);
#299=ORIENTED_EDGE('',*,*,#235,.F.);
#300=ORIENTED_EDGE('',*,*,#233,.F.);
#301=ORIENTED_EDGE('',*,*,#236,.F.);
#302=ORIENTED_EDGE('',*,*,#226,.F.);
#303=ORIENTED_EDGE('',*,*,#212,.T.);
#304=ORIENTED_EDGE('',*,*,#237,.F.);
#305=ORIENTED_EDGE('',*,*,#221,.T.);
#306=ORIENTED_EDGE('',*,*,#238,.F.);
#307=ORIENTED_EDGE('',*,*,#218,.T.);
#308=ORIENTED_EDGE('',*,*,#231,.T.);
#309=ORIENTED_EDGE('',*,*,#234,.T.);
#310=ORIENTED_EDGE('',*,*,#235,.T.);
#311=ORIENTED_EDGE('',*,*,#225,.T.);
#312=ORIENTED_EDGE('',*,*,#239,.F.);
#313=ORIENTED_EDGE('',*,*,#240,.F.);
#314=ORIENTED_EDGE('',*,*,#241,.F.);
#315=ORIENTED_EDGE('',*,*,#242,.F.);
#316=ORIENTED_EDGE('',*,*,#243,.F.);
#317=ORIENTED_EDGE('',*,*,#244,.F.);
#318=ORIENTED_EDGE('',*,*,#245,.F.);
#319=ORIENTED_EDGE('',*,*,#215,.T.);
#320=ORIENTED_EDGE('',*,*,#213,.T.);
#321=ORIENTED_EDGE('',*,*,#238,.T.);
#322=ORIENTED_EDGE('',*,*,#220,.T.);
#323=ORIENTED_EDGE('',*,*,#228,.T.);
#324=ORIENTED_EDGE('',*,*,#246,.T.);
#325=ORIENTED_EDGE('',*,*,#247,.F.);
#326=ORIENTED_EDGE('',*,*,#248,.F.);
#327=ORIENTED_EDGE('',*,*,#249,.F.);
#328=ORIENTED_EDGE('',*,*,#250,.F.);
#329=ORIENTED_EDGE('',*,*,#251,.F.);
#330=ORIENTED_EDGE('',*,*,#252,.T.);
#331=ORIENTED_EDGE('',*,*,#253,.T.);
#332=ORIENTED_EDGE('',*,*,#254,.T.);
#333=ORIENTED_EDGE('',*,*,#250,.T.);
#334=ORIENTED_EDGE('',*,*,#255,.T.);
#335=ORIENTED_EDGE('',*,*,#254,.F.);
#336=ORIENTED_EDGE('',*,*,#256,.T.);
#337=ORIENTED_EDGE('',*,*,#244,.T.);
#338=ORIENTED_EDGE('',*,*,#257,.F.);
#339=ORIENTED_EDGE('',*,*,#258,.T.);
#340=ORIENTED_EDGE('',*,*,#251,.T.);
#341=ORIENTED_EDGE('',*,*,#219,.T.);
#342=ORIENTED_EDGE('',*,*,#245,.T.);
#343=ORIENTED_EDGE('',*,*,#256,.F.);
#344=ORIENTED_EDGE('',*,*,#253,.F.);
#345=ORIENTED_EDGE('',*,*,#259,.T.);
#346=ORIENTED_EDGE('',*,*,#260,.F.);
#347=ORIENTED_EDGE('',*,*,#261,.F.);
#348=ORIENTED_EDGE('',*,*,#239,.T.);
#349=ORIENTED_EDGE('',*,*,#224,.T.);
#350=ORIENTED_EDGE('',*,*,#222,.T.);
#351=ORIENTED_EDGE('',*,*,#237,.T.);
#352=ORIENTED_EDGE('',*,*,#211,.T.);
#353=ORIENTED_EDGE('',*,*,#248,.T.);
#354=ORIENTED_EDGE('',*,*,#262,.T.);
#355=ORIENTED_EDGE('',*,*,#260,.T.);
#356=ORIENTED_EDGE('',*,*,#263,.T.);
#357=ORIENTED_EDGE('',*,*,#262,.F.);
#358=ORIENTED_EDGE('',*,*,#247,.T.);
#359=ORIENTED_EDGE('',*,*,#264,.T.);
#360=ORIENTED_EDGE('',*,*,#265,.F.);
#361=ORIENTED_EDGE('',*,*,#240,.T.);
#362=ORIENTED_EDGE('',*,*,#261,.T.);
#363=ORIENTED_EDGE('',*,*,#266,.T.);
#364=ORIENTED_EDGE('',*,*,#257,.T.);
#365=ORIENTED_EDGE('',*,*,#243,.T.);
#366=ORIENTED_EDGE('',*,*,#267,.T.);
#367=ORIENTED_EDGE('',*,*,#267,.F.);
#368=ORIENTED_EDGE('',*,*,#242,.T.);
#369=ORIENTED_EDGE('',*,*,#268,.F.);
#370=ORIENTED_EDGE('',*,*,#269,.F.);
#371=ORIENTED_EDGE('',*,*,#241,.T.);
#372=ORIENTED_EDGE('',*,*,#265,.T.);
#373=ORIENTED_EDGE('',*,*,#270,.T.);
#374=ORIENTED_EDGE('',*,*,#268,.T.);
#375=ORIENTED_EDGE('',*,*,#216,.T.);
#376=ORIENTED_EDGE('',*,*,#252,.F.);
#377=ORIENTED_EDGE('',*,*,#258,.F.);
#378=ORIENTED_EDGE('',*,*,#266,.F.);
#379=ORIENTED_EDGE('',*,*,#269,.T.);
#380=ORIENTED_EDGE('',*,*,#270,.F.);
#381=ORIENTED_EDGE('',*,*,#264,.F.);
#382=ORIENTED_EDGE('',*,*,#246,.F.);
#383=ORIENTED_EDGE('',*,*,#227,.T.);
#384=ORIENTED_EDGE('',*,*,#236,.T.);
#385=ORIENTED_EDGE('',*,*,#232,.T.);
#386=ORIENTED_EDGE('',*,*,#229,.T.);
#387=ORIENTED_EDGE('',*,*,#255,.F.);
#388=ORIENTED_EDGE('',*,*,#249,.T.);
#389=ORIENTED_EDGE('',*,*,#263,.F.);
#390=ORIENTED_EDGE('',*,*,#259,.F.);
#391=CYLINDRICAL_SURFACE('',#441,0.075);
#392=CYLINDRICAL_SURFACE('',#445,0.075);
#393=CYLINDRICAL_SURFACE('',#449,0.075);
#394=CYLINDRICAL_SURFACE('',#453,0.075);
#395=CYLINDRICAL_SURFACE('',#463,0.15);
#396=CYLINDRICAL_SURFACE('',#468,0.15);
#397=CYLINDRICAL_SURFACE('',#470,0.15);
#398=CYLINDRICAL_SURFACE('',#473,0.15);
#399=ADVANCED_FACE('',(#27),#391,.F.);
#400=ADVANCED_FACE('',(#28),#15,.F.);
#401=ADVANCED_FACE('',(#29),#392,.F.);
#402=ADVANCED_FACE('',(#30),#16,.F.);
#403=ADVANCED_FACE('',(#31),#393,.F.);
#404=ADVANCED_FACE('',(#32),#17,.F.);
#405=ADVANCED_FACE('',(#33),#394,.F.);
#406=ADVANCED_FACE('',(#34),#18,.F.);
#407=ADVANCED_FACE('',(#35),#19,.T.);
#408=ADVANCED_FACE('',(#36),#20,.T.);
#409=ADVANCED_FACE('',(#37),#395,.T.);
#410=ADVANCED_FACE('',(#38),#21,.T.);
#411=ADVANCED_FACE('',(#39),#22,.T.);
#412=ADVANCED_FACE('',(#40),#396,.T.);
#413=ADVANCED_FACE('',(#41),#23,.T.);
#414=ADVANCED_FACE('',(#42),#397,.T.);
#415=ADVANCED_FACE('',(#43),#24,.T.);
#416=ADVANCED_FACE('',(#44),#398,.T.);
#417=ADVANCED_FACE('',(#45),#25,.T.);
#418=ADVANCED_FACE('',(#46),#26,.T.);
#419=CLOSED_SHELL('',(#399,#400,#401,#402,#403,#404,#405,#406,#407,#408,
#409,#410,#411,#412,#413,#414,#415,#416,#417,#418));
#420=DERIVED_UNIT_ELEMENT(#422,1.);
#421=DERIVED_UNIT_ELEMENT(#724,-3.);
#422=(
CONVERSION_BASED_UNIT('gram',#424)
MASS_UNIT()
NAMED_UNIT(#721)
);
#423=(
MASS_UNIT()
NAMED_UNIT(*)
SI_UNIT(.KILO.,.GRAM.)
);
#424=MASS_MEASURE_WITH_UNIT(MASS_MEASURE(0.001),#423);
#425=DERIVED_UNIT((#420,#421));
#426=MEASURE_REPRESENTATION_ITEM('density measure',
POSITIVE_RATIO_MEASURE(1.),#425);
#427=PROPERTY_DEFINITION_REPRESENTATION(#432,#429);
#428=PROPERTY_DEFINITION_REPRESENTATION(#433,#430);
#429=REPRESENTATION('material name',(#431),#718);
#430=REPRESENTATION('density',(#426),#718);
#431=DESCRIPTIVE_REPRESENTATION_ITEM('Generic','Generic');
#432=PROPERTY_DEFINITION('material property','material name',#732);
#433=PROPERTY_DEFINITION('material property','density of part',#732);
#434=DATE_TIME_ROLE('creation_date');
#435=APPLIED_DATE_AND_TIME_ASSIGNMENT(#436,#434,(#732));
#436=DATE_AND_TIME(#437,#438);
#437=CALENDAR_DATE(2025,20,12);
#438=LOCAL_TIME(0,0,0.,#439);
#439=COORDINATED_UNIVERSAL_TIME_OFFSET(0,0,.BEHIND.);
#440=AXIS2_PLACEMENT_3D('',#595,#477,#478);
#441=AXIS2_PLACEMENT_3D('',#596,#479,#480);
#442=AXIS2_PLACEMENT_3D('',#599,#481,#482);
#443=AXIS2_PLACEMENT_3D('',#603,#484,#485);
#444=AXIS2_PLACEMENT_3D('',#605,#487,#488);
#445=AXIS2_PLACEMENT_3D('',#615,#494,#495);
#446=AXIS2_PLACEMENT_3D('',#618,#496,#497);
#447=AXIS2_PLACEMENT_3D('',#622,#499,#500);
#448=AXIS2_PLACEMENT_3D('',#624,#502,#503);
#449=AXIS2_PLACEMENT_3D('',#634,#509,#510);
#450=AXIS2_PLACEMENT_3D('',#636,#511,#512);
#451=AXIS2_PLACEMENT_3D('',#639,#514,#515);
#452=AXIS2_PLACEMENT_3D('',#640,#516,#517);
#453=AXIS2_PLACEMENT_3D('',#646,#521,#522);
#454=AXIS2_PLACEMENT_3D('',#647,#523,#524);
#455=AXIS2_PLACEMENT_3D('',#648,#525,#526);
#456=AXIS2_PLACEMENT_3D('',#649,#527,#528);
#457=AXIS2_PLACEMENT_3D('',#652,#531,#532);
#458=AXIS2_PLACEMENT_3D('',#658,#535,#536);
#459=AXIS2_PLACEMENT_3D('',#662,#538,#539);
#460=AXIS2_PLACEMENT_3D('',#666,#542,#543);
#461=AXIS2_PLACEMENT_3D('',#672,#546,#547);
#462=AXIS2_PLACEMENT_3D('',#676,#549,#550);
#463=AXIS2_PLACEMENT_3D('',#680,#553,#554);
#464=AXIS2_PLACEMENT_3D('',#683,#555,#556);
#465=AXIS2_PLACEMENT_3D('',#686,#559,#560);
#466=AXIS2_PLACEMENT_3D('',#691,#564,#565);
#467=AXIS2_PLACEMENT_3D('',#695,#567,#568);
#468=AXIS2_PLACEMENT_3D('',#697,#570,#571);
#469=AXIS2_PLACEMENT_3D('',#700,#574,#575);
#470=AXIS2_PLACEMENT_3D('',#704,#578,#579);
#471=AXIS2_PLACEMENT_3D('',#706,#580,#581);
#472=AXIS2_PLACEMENT_3D('',#708,#583,#584);
#473=AXIS2_PLACEMENT_3D('',#712,#587,#588);
#474=AXIS2_PLACEMENT_3D('',#713,#589,#590);
#475=AXIS2_PLACEMENT_3D('',#714,#591,#592);
#476=AXIS2_PLACEMENT_3D('',#715,#593,#594);
#477=DIRECTION('axis',(0.,0.,1.));
#478=DIRECTION('refdir',(1.,0.,0.));
#479=DIRECTION('center_axis',(0.,0.962280734503106,0.272058427555852));
#480=DIRECTION('ref_axis',(-0.70710678118655,-0.192374359003665,0.680435232772323));
#481=DIRECTION('center_axis',(0.,4.41696686133506E-16,-1.));
#482=DIRECTION('ref_axis',(3.96385210388218E-17,-1.,-4.7648733938686E-16));
#483=DIRECTION('',(0.,0.962280734503106,0.272058427555852));
#484=DIRECTION('center_axis',(0.,1.,0.));
#485=DIRECTION('ref_axis',(1.75253646259605E-15,0.,1.));
#486=DIRECTION('',(0.,-0.962280734503106,-0.272058427555852));
#487=DIRECTION('center_axis',(-1.,0.,0.));
#488=DIRECTION('ref_axis',(0.,0.,1.));
#489=DIRECTION('',(0.,0.,1.));
#490=DIRECTION('',(0.,-1.,-4.14431458594401E-16));
#491=DIRECTION('',(0.,0.962280734503106,0.272058427555852));
#492=DIRECTION('',(0.,4.97317750313282E-15,-1.));
#493=DIRECTION('',(0.,1.,4.41696686133506E-16));
#494=DIRECTION('center_axis',(0.,-0.962280734503106,-0.272058427555852));
#495=DIRECTION('ref_axis',(0.70710678118655,-0.192374359003665,0.680435232772323));
#496=DIRECTION('center_axis',(0.,1.,0.));
#497=DIRECTION('ref_axis',(-1.75253646259605E-15,0.,1.));
#498=DIRECTION('',(0.,-0.962280734503106,-0.272058427555852));
#499=DIRECTION('center_axis',(0.,4.41696686133506E-16,-1.));
#500=DIRECTION('ref_axis',(-3.96385210388218E-17,-1.,-4.7648733938686E-16));
#501=DIRECTION('',(0.,0.962280734503106,0.272058427555852));
#502=DIRECTION('center_axis',(1.,0.,0.));
#503=DIRECTION('ref_axis',(0.,0.,-1.));
#504=DIRECTION('',(0.,-1.,-4.41696686133506E-16));
#505=DIRECTION('',(0.,-4.97317750313282E-15,1.));
#506=DIRECTION('',(0.,-0.962280734503106,-0.272058427555852));
#507=DIRECTION('',(0.,1.,4.14431458594401E-16));
#508=DIRECTION('',(0.,0.,-1.));
#509=DIRECTION('center_axis',(0.,-0.962280734503106,-0.272058427555852));
#510=DIRECTION('ref_axis',(-0.70710678118655,0.192374359003665,-0.680435232772323));
#511=DIRECTION('center_axis',(0.,-4.14431458594401E-16,1.));
#512=DIRECTION('ref_axis',(3.96385210388218E-17,1.,4.20430005341348E-16));
#513=DIRECTION('',(0.,-0.962280734503106,-0.272058427555852));
#514=DIRECTION('center_axis',(0.,-1.,-4.97317750313282E-15));
#515=DIRECTION('ref_axis',(3.08446417416906E-15,4.98170627625299E-15,-1.));
#516=DIRECTION('center_axis',(0.,0.272058427555852,-0.962280734503106));
#517=DIRECTION('ref_axis',(0.,0.962280734503106,0.272058427555852));
#518=DIRECTION('',(-1.,0.,0.));
#519=DIRECTION('',(0.,0.962280734503106,0.272058427555852));
#520=DIRECTION('',(1.,0.,0.));
#521=DIRECTION('center_axis',(0.,0.962280734503106,0.272058427555852));
#522=DIRECTION('ref_axis',(0.70710678118655,0.192374359003665,-0.680435232772323));
#523=DIRECTION('center_axis',(0.,-1.,-4.97317750313282E-15));
#524=DIRECTION('ref_axis',(-3.08446417416906E-15,4.98170627625299E-15,-1.));
#525=DIRECTION('center_axis',(0.,-4.14431458594401E-16,1.));
#526=DIRECTION('ref_axis',(-3.96385210388218E-17,1.,4.20430005341348E-16));
#527=DIRECTION('center_axis',(0.,-0.272058427555852,0.962280734503106));
#528=DIRECTION('ref_axis',(0.,-0.962280734503106,-0.272058427555852));
#529=DIRECTION('',(-1.,0.,0.));
#530=DIRECTION('',(1.,0.,0.));
#531=DIRECTION('center_axis',(0.,1.,4.97317750313282E-15));
#532=DIRECTION('ref_axis',(0.,-4.97317750313282E-15,1.));
#533=DIRECTION('',(-1.,0.,0.));
#534=DIRECTION('',(0.,-4.97317750313282E-15,1.));
#535=DIRECTION('center_axis',(0.,-1.,-4.97317750313282E-15));
#536=DIRECTION('ref_axis',(-7.01014585038423E-16,4.98170627625299E-15,-1.));
#537=DIRECTION('',(1.,0.,0.));
#538=DIRECTION('center_axis',(0.,-1.,-4.97317750313282E-15));
#539=DIRECTION('ref_axis',(7.01014585038423E-16,4.98170627625299E-15,-1.));
#540=DIRECTION('',(0.,4.97317750313282E-15,-1.));
#541=DIRECTION('',(-1.,0.,0.));
#542=DIRECTION('center_axis',(0.,-1.,0.));
#543=DIRECTION('ref_axis',(0.,0.,-1.));
#544=DIRECTION('',(1.,0.,0.));
#545=DIRECTION('',(0.,0.,-1.));
#546=DIRECTION('center_axis',(0.,1.,0.));
#547=DIRECTION('ref_axis',(-1.8226379210999E-15,0.,1.));
#548=DIRECTION('',(1.,0.,0.));
#549=DIRECTION('center_axis',(0.,1.,0.));
#550=DIRECTION('ref_axis',(1.8226379210999E-15,0.,1.));
#551=DIRECTION('',(0.,0.,1.));
#552=DIRECTION('',(1.,0.,0.));
#553=DIRECTION('center_axis',(0.,0.962280734503106,0.272058427555852));
#554=DIRECTION('ref_axis',(-0.70710678118655,-0.192374359003665,0.680435232772323));
#555=DIRECTION('center_axis',(0.,4.41696686133506E-16,-1.));
#556=DIRECTION('ref_axis',(3.96385210388218E-17,-1.,-4.48458672364104E-16));
#557=DIRECTION('',(0.,-0.962280734503106,-0.272058427555852));
#558=DIRECTION('',(0.,0.962280734503106,0.272058427555852));
#559=DIRECTION('center_axis',(-1.,0.,0.));
#560=DIRECTION('ref_axis',(0.,0.,1.));
#561=DIRECTION('',(0.,1.,4.41696686133506E-16));
#562=DIRECTION('',(0.,0.962280734503106,0.272058427555852));
#563=DIRECTION('',(0.,-1.,-4.14431458594401E-16));
#564=DIRECTION('center_axis',(0.,-4.41696686133506E-16,1.));
#565=DIRECTION('ref_axis',(0.,-1.,-4.41696686133506E-16));
#566=DIRECTION('',(1.,0.,0.));
#567=DIRECTION('center_axis',(0.,4.41696686133506E-16,-1.));
#568=DIRECTION('ref_axis',(-3.96385210388218E-17,-1.,-4.48458672364104E-16));
#569=DIRECTION('',(0.,-1.,-4.41696686133506E-16));
#570=DIRECTION('center_axis',(0.,-0.962280734503106,-0.272058427555852));
#571=DIRECTION('ref_axis',(0.70710678118655,-0.192374359003665,0.680435232772323));
#572=DIRECTION('',(0.,0.962280734503106,0.272058427555852));
#573=DIRECTION('',(0.,-0.962280734503106,-0.272058427555852));
#574=DIRECTION('center_axis',(1.,0.,0.));
#575=DIRECTION('ref_axis',(0.,0.,-1.));
#576=DIRECTION('',(0.,1.,4.14431458594401E-16));
#577=DIRECTION('',(0.,-0.962280734503106,-0.272058427555852));
#578=DIRECTION('center_axis',(0.,-0.962280734503106,-0.272058427555852));
#579=DIRECTION('ref_axis',(-0.70710678118655,0.192374359003665,-0.680435232772323));
#580=DIRECTION('center_axis',(0.,-4.14431458594401E-16,1.));
#581=DIRECTION('ref_axis',(3.96385210388218E-17,1.,4.48458672364104E-16));
#582=DIRECTION('',(0.,-0.962280734503106,-0.272058427555852));
#583=DIRECTION('center_axis',(0.,0.272058427555852,-0.962280734503106));
#584=DIRECTION('ref_axis',(0.,0.962280734503106,0.272058427555852));
#585=DIRECTION('',(0.,0.962280734503106,0.272058427555852));
#586=DIRECTION('',(1.,0.,0.));
#587=DIRECTION('center_axis',(0.,0.962280734503106,0.272058427555852));
#588=DIRECTION('ref_axis',(0.70710678118655,0.192374359003665,-0.680435232772323));
#589=DIRECTION('center_axis',(0.,-4.14431458594401E-16,1.));
#590=DIRECTION('ref_axis',(-3.96385210388218E-17,1.,4.48458672364104E-16));
#591=DIRECTION('center_axis',(0.,4.14431458594401E-16,-1.));
#592=DIRECTION('ref_axis',(0.,1.,4.14431458594401E-16));
#593=DIRECTION('center_axis',(0.,-0.272058427555852,0.962280734503106));
#594=DIRECTION('ref_axis',(0.,-0.962280734503106,-0.272058427555852));
#595=CARTESIAN_POINT('',(0.,0.,0.));
#596=CARTESIAN_POINT('Origin',(-0.35,49.0747072341976,40.1680784671511));
#597=CARTESIAN_POINT('',(-0.35,52.4378355641538,41.1968503937008));
#598=CARTESIAN_POINT('',(-0.425,52.7135116410678,41.1968503937008));
#599=CARTESIAN_POINT('Origin',(-0.35,52.7135116410678,41.1968503937008));
#600=CARTESIAN_POINT('',(-0.35,38.0833333333333,37.1385094488615));
#601=CARTESIAN_POINT('',(-0.35,49.0543028521309,40.2402495222388));
#602=CARTESIAN_POINT('',(-0.425,38.0833333333333,37.0605696155978));
#603=CARTESIAN_POINT('Origin',(-0.35,38.0833333333333,37.0605696155978));
#604=CARTESIAN_POINT('',(-0.425,49.0747072341976,40.1680784671511));
#605=CARTESIAN_POINT('Origin',(-0.425,46.0416666666667,38.9468503937008));
#606=CARTESIAN_POINT('',(-0.425,38.0833333333333,36.6968503937008));
#607=CARTESIAN_POINT('',(-0.425,38.0833333333333,38.081649837913));
#608=CARTESIAN_POINT('',(-0.425,39.3698216922655,36.6968503937008));
#609=CARTESIAN_POINT('',(-0.425,42.0625,36.6968503937008));
#610=CARTESIAN_POINT('',(-0.425,54.,40.8331311718037));
#611=CARTESIAN_POINT('',(-0.425,43.0086260991357,37.7256223202505));
#612=CARTESIAN_POINT('',(-0.425,54.,41.1968503937008));
#613=CARTESIAN_POINT('',(-0.425,54.,39.8120509494886));
#614=CARTESIAN_POINT('',(-0.425,50.0208333333333,41.1968503937008));
#615=CARTESIAN_POINT('Origin',(0.35,49.0747072341976,40.1680784671511));
#616=CARTESIAN_POINT('',(0.35,38.0833333333333,37.1385094488615));
#617=CARTESIAN_POINT('',(0.425,38.0833333333333,37.0605696155978));
#618=CARTESIAN_POINT('Origin',(0.35,38.0833333333333,37.0605696155978));
#619=CARTESIAN_POINT('',(0.35,52.4378355641538,41.1968503937008));
#620=CARTESIAN_POINT('',(0.35,49.0543028521309,40.2402495222388));
#621=CARTESIAN_POINT('',(0.425,52.7135116410678,41.1968503937008));
#622=CARTESIAN_POINT('Origin',(0.35,52.7135116410678,41.1968503937008));
#623=CARTESIAN_POINT('',(0.425,49.0747072341976,40.1680784671511));
#624=CARTESIAN_POINT('Origin',(0.425,46.0416666666667,38.9468503937008));
#625=CARTESIAN_POINT('',(0.425,54.,41.1968503937008));
#626=CARTESIAN_POINT('',(0.425,50.0208333333333,41.1968503937008));
#627=CARTESIAN_POINT('',(0.425,54.,40.8331311718037));
#628=CARTESIAN_POINT('',(0.425,54.,39.8120509494886));
#629=CARTESIAN_POINT('',(0.425,39.3698216922655,36.6968503937008));
#630=CARTESIAN_POINT('',(0.425,43.0086260991357,37.7256223202505));
#631=CARTESIAN_POINT('',(0.425,38.0833333333333,36.6968503937008));
#632=CARTESIAN_POINT('',(0.425,42.0625,36.6968503937008));
#633=CARTESIAN_POINT('',(0.425,38.0833333333333,38.081649837913));
#634=CARTESIAN_POINT('Origin',(-0.35,43.0086260991357,37.7256223202505));
#635=CARTESIAN_POINT('',(-0.35,39.6454977691796,36.6968503937008));
#636=CARTESIAN_POINT('Origin',(-0.35,39.3698216922655,36.6968503937008));
#637=CARTESIAN_POINT('',(-0.35,54.,40.7551913385401));
#638=CARTESIAN_POINT('',(-0.35,43.0290304812024,37.6534512651627));
#639=CARTESIAN_POINT('Origin',(-0.35,54.,40.8331311718037));
#640=CARTESIAN_POINT('Origin',(0.,39.9007694640269,36.7690214487885));
#641=CARTESIAN_POINT('',(0.35,39.6454977691796,36.6968503937008));
#642=CARTESIAN_POINT('',(0.,39.6454977691796,36.6968503937008));
#643=CARTESIAN_POINT('',(0.35,54.,40.7551913385401));
#644=CARTESIAN_POINT('',(0.35,43.0290304812024,37.6534512651627));
#645=CARTESIAN_POINT('',(0.,54.,40.7551913385401));
#646=CARTESIAN_POINT('Origin',(0.35,43.0086260991357,37.7256223202505));
#647=CARTESIAN_POINT('Origin',(0.35,54.,40.8331311718037));
#648=CARTESIAN_POINT('Origin',(0.35,39.3698216922655,36.6968503937008));
#649=CARTESIAN_POINT('Origin',(0.,52.1825638693064,41.1246793386131));
#650=CARTESIAN_POINT('',(0.,52.4378355641538,41.1968503937008));
#651=CARTESIAN_POINT('',(0.,38.0833333333333,37.1385094488615));
#652=CARTESIAN_POINT('Origin',(0.,54.,40.6772515052764));
#653=CARTESIAN_POINT('',(0.5,54.,41.1968503937008));
#654=CARTESIAN_POINT('',(0.,54.,41.1968503937008));
#655=CARTESIAN_POINT('',(0.5,54.,40.8331311718037));
#656=CARTESIAN_POINT('',(0.5,54.,36.6968503937008));
#657=CARTESIAN_POINT('',(0.35,54.,40.6772515052764));
#658=CARTESIAN_POINT('Origin',(0.35,54.,40.8331311718037));
#659=CARTESIAN_POINT('',(-0.35,54.,40.6772515052764));
#660=CARTESIAN_POINT('',(0.,54.,40.6772515052764));
#661=CARTESIAN_POINT('',(-0.5,54.,40.8331311718037));
#662=CARTESIAN_POINT('Origin',(-0.35,54.,40.8331311718037));
#663=CARTESIAN_POINT('',(-0.5,54.,41.1968503937008));
#664=CARTESIAN_POINT('',(-0.5,54.,36.6968503937008));
#665=CARTESIAN_POINT('',(0.,54.,41.1968503937008));
#666=CARTESIAN_POINT('Origin',(0.,38.0833333333333,37.2164492821252));
#667=CARTESIAN_POINT('',(0.5,38.0833333333333,36.6968503937008));
#668=CARTESIAN_POINT('',(0.,38.0833333333333,36.6968503937008));
#669=CARTESIAN_POINT('',(0.5,38.0833333333333,37.0605696155978));
#670=CARTESIAN_POINT('',(0.5,38.0833333333333,41.1968503937008));
#671=CARTESIAN_POINT('',(0.35,38.0833333333333,37.2164492821252));
#672=CARTESIAN_POINT('Origin',(0.35,38.0833333333333,37.0605696155978));
#673=CARTESIAN_POINT('',(-0.35,38.0833333333333,37.2164492821252));
#674=CARTESIAN_POINT('',(0.,38.0833333333333,37.2164492821252));
#675=CARTESIAN_POINT('',(-0.5,38.0833333333333,37.0605696155978));
#676=CARTESIAN_POINT('Origin',(-0.35,38.0833333333333,37.0605696155978));
#677=CARTESIAN_POINT('',(-0.5,38.0833333333333,36.6968503937008));
#678=CARTESIAN_POINT('',(-0.5,38.0833333333333,41.1968503937008));
#679=CARTESIAN_POINT('',(0.,38.0833333333333,36.6968503937008));
#680=CARTESIAN_POINT('Origin',(-0.35,49.0747072341976,40.1680784671511));
#681=CARTESIAN_POINT('',(-0.35,52.1621594872397,41.1968503937008));
#682=CARTESIAN_POINT('',(-0.5,52.7135116410678,41.1968503937008));
#683=CARTESIAN_POINT('Origin',(-0.35,52.7135116410678,41.1968503937008));
#684=CARTESIAN_POINT('',(-0.5,49.0747072341976,40.1680784671511));
#685=CARTESIAN_POINT('',(-0.35,49.0338984700642,40.3124205773266));
#686=CARTESIAN_POINT('Origin',(-0.5,46.0416666666667,38.9468503937008));
#687=CARTESIAN_POINT('',(-0.5,54.,41.1968503937008));
#688=CARTESIAN_POINT('',(-0.5,39.3698216922655,36.6968503937008));
#689=CARTESIAN_POINT('',(-0.5,43.0086260991357,37.7256223202505));
#690=CARTESIAN_POINT('',(-0.5,1.11896493820488E-14,36.6968503937008));
#691=CARTESIAN_POINT('Origin',(0.,54.,41.1968503937008));
#692=CARTESIAN_POINT('',(0.35,52.1621594872397,41.1968503937008));
#693=CARTESIAN_POINT('',(0.,52.1621594872397,41.1968503937008));
#694=CARTESIAN_POINT('',(0.5,52.7135116410678,41.1968503937008));
#695=CARTESIAN_POINT('Origin',(0.35,52.7135116410678,41.1968503937008));
#696=CARTESIAN_POINT('',(0.5,54.,41.1968503937008));
#697=CARTESIAN_POINT('Origin',(0.35,49.0747072341976,40.1680784671511));
#698=CARTESIAN_POINT('',(0.5,49.0747072341976,40.1680784671511));
#699=CARTESIAN_POINT('',(0.35,49.0338984700642,40.3124205773266));
#700=CARTESIAN_POINT('Origin',(0.5,46.0416666666667,38.9468503937008));
#701=CARTESIAN_POINT('',(0.5,39.3698216922655,36.6968503937008));
#702=CARTESIAN_POINT('',(0.5,1.11896493820488E-14,36.6968503937008));
#703=CARTESIAN_POINT('',(0.5,43.0086260991357,37.7256223202505));
#704=CARTESIAN_POINT('Origin',(-0.35,43.0086260991357,37.7256223202505));
#705=CARTESIAN_POINT('',(-0.35,39.9211738460936,36.6968503937008));
#706=CARTESIAN_POINT('Origin',(-0.35,39.3698216922655,36.6968503937008));
#707=CARTESIAN_POINT('',(-0.35,43.0494348632691,37.581280210075));
#708=CARTESIAN_POINT('Origin',(0.,39.9211738460936,36.6968503937008));
#709=CARTESIAN_POINT('',(0.35,39.9211738460936,36.6968503937008));
#710=CARTESIAN_POINT('',(0.35,43.0494348632691,37.581280210075));
#711=CARTESIAN_POINT('',(0.,39.9211738460936,36.6968503937008));
#712=CARTESIAN_POINT('Origin',(0.35,43.0086260991357,37.7256223202505));
#713=CARTESIAN_POINT('Origin',(0.35,39.3698216922655,36.6968503937008));
#714=CARTESIAN_POINT('Origin',(0.,38.0833333333333,36.6968503937008));
#715=CARTESIAN_POINT('Origin',(0.,52.1621594872397,41.1968503937008));
#716=UNCERTAINTY_MEASURE_WITH_UNIT(LENGTH_MEASURE(0.000393700787401575),
#722,'DISTANCE_ACCURACY_VALUE',
'Maximum model space distance between geometric entities at asserted c
onnectivities');
#717=UNCERTAINTY_MEASURE_WITH_UNIT(LENGTH_MEASURE(0.000393700787401575),
#722,'DISTANCE_ACCURACY_VALUE',
'Maximum model space distance between geometric entities at asserted c
onnectivities');
#718=(
GEOMETRIC_REPRESENTATION_CONTEXT(3)
GLOBAL_UNCERTAINTY_ASSIGNED_CONTEXT((#716))
GLOBAL_UNIT_ASSIGNED_CONTEXT((#722,#726,#727))
REPRESENTATION_CONTEXT('','3D')
);
#719=(
GEOMETRIC_REPRESENTATION_CONTEXT(3)
GLOBAL_UNCERTAINTY_ASSIGNED_CONTEXT((#717))
GLOBAL_UNIT_ASSIGNED_CONTEXT((#722,#726,#727))
REPRESENTATION_CONTEXT('','3D')
);
#720=DIMENSIONAL_EXPONENTS(1.,0.,0.,0.,0.,0.,0.);
#721=DIMENSIONAL_EXPONENTS(0.,1.,0.,0.,0.,0.,0.);
#722=(
CONVERSION_BASED_UNIT('inch',#725)
LENGTH_UNIT()
NAMED_UNIT(#720)
);
#723=(
LENGTH_UNIT()
NAMED_UNIT(*)
SI_UNIT(.MILLI.,.METRE.)
);
#724=(
LENGTH_UNIT()
NAMED_UNIT(*)
SI_UNIT(.CENTI.,.METRE.)
);
#725=LENGTH_MEASURE_WITH_UNIT(LENGTH_MEASURE(25.4),#723);
#726=(
NAMED_UNIT(*)
PLANE_ANGLE_UNIT()
SI_UNIT($,.RADIAN.)
);
#727=(
NAMED_UNIT(*)
SI_UNIT($,.STERADIAN.)
SOLID_ANGLE_UNIT()
);
#728=SHAPE_DEFINITION_REPRESENTATION(#729,#730);
#729=PRODUCT_DEFINITION_SHAPE('',$,#732);
#730=SHAPE_REPRESENTATION('',(#440),#718);
#731=PRODUCT_DEFINITION_CONTEXT('part definition',#736,'design');
#732=PRODUCT_DEFINITION('CRA-1006','CRA-1006',#733,#731);
#733=PRODUCT_DEFINITION_FORMATION('',$,#738);
#734=PRODUCT_RELATED_PRODUCT_CATEGORY('CRA-1006','CRA-1006',(#738));
#735=APPLICATION_PROTOCOL_DEFINITION('international standard',
'automotive_design',2009,#736);
#736=APPLICATION_CONTEXT(
'Core Data for Automotive Mechanical Design Process');
#737=PRODUCT_CONTEXT('part definition',#736,'mechanical');
#738=PRODUCT('CRA-1006','CRA-1006','Robot Arm Tube 5',(#737));
#739=PRESENTATION_STYLE_ASSIGNMENT((#740));
#740=SURFACE_STYLE_USAGE(.BOTH.,#743);
#741=SURFACE_STYLE_RENDERING_WITH_PROPERTIES($,#747,(#742));
#742=SURFACE_STYLE_TRANSPARENT(0.);
#743=SURFACE_SIDE_STYLE('',(#744,#741));
#744=SURFACE_STYLE_FILL_AREA(#745);
#745=FILL_AREA_STYLE('',(#746));
#746=FILL_AREA_STYLE_COLOUR('',#747);
#747=COLOUR_RGB('',0.749019607843137,0.749019607843137,0.749019607843137);
ENDSEC;
END-ISO-10303-21;
