ISO-10303-21;
HEADER;
/* Generated by software containing ST-Developer
 * from STEP Tools, Inc. (www.steptools.com) 
 */

FILE_DESCRIPTION(
/* description */ ('Robot Arm Pivot Shaft'),
/* implementation_level */ '2;1');

FILE_NAME(
/* name */ 'CRA-1021.stp',
/* time_stamp */ '2025-12-22T15:24:24-06:00',
/* author */ ('josh'),
/* organization */ (''),
/* preprocessor_version */ 'ST-DEVELOPER v20',
/* originating_system */ 'Autodesk Inventor 2025',
/* authorisation */ '');

FILE_SCHEMA (('AUTOMOTIVE_DESIGN { 1 0 10303 214 3 1 1 }'));
ENDSEC;

DATA;
#10=MECHANICAL_DESIGN_GEOMETRIC_PRESENTATION_REPRESENTATION('',(#13),#164);
#11=SHAPE_REPRESENTATION_RELATIONSHIP('SRR','None',#175,#12);
#12=ADVANCED_BREP_SHAPE_REPRESENTATION('',(#14),#163);
#13=STYLED_ITEM('',(#184),#14);
#14=MANIFOLD_SOLID_BREP('CRA-1021',#80);
#15=PLANE('',#109);
#16=PLANE('',#112);
#17=CYLINDRICAL_SURFACE('',#106,0.5);
#18=FACE_OUTER_BOUND('',#23,.T.);
#19=FACE_OUTER_BOUND('',#24,.T.);
#20=FACE_OUTER_BOUND('',#25,.T.);
#21=FACE_OUTER_BOUND('',#26,.T.);
#22=FACE_OUTER_BOUND('',#27,.T.);
#23=EDGE_LOOP('',(#55,#56,#57,#58,#59));
#24=EDGE_LOOP('',(#60,#61,#62,#63,#64,#65));
#25=EDGE_LOOP('',(#66));
#26=EDGE_LOOP('',(#67,#68,#69,#70,#71));
#27=EDGE_LOOP('',(#72));
#28=LINE('',#145,#31);
#29=LINE('',#154,#32);
#30=LINE('',#159,#33);
#31=VECTOR('',#119,0.47);
#32=VECTOR('',#130,0.5);
#33=VECTOR('',#137,0.47);
#34=CIRCLE('',#103,0.44);
#35=CIRCLE('',#104,0.5);
#36=CIRCLE('',#105,0.5);
#37=CIRCLE('',#107,0.5);
#38=CIRCLE('',#108,0.5);
#39=CIRCLE('',#111,0.44);
#40=VERTEX_POINT('',#142);
#41=VERTEX_POINT('',#144);
#42=VERTEX_POINT('',#146);
#43=VERTEX_POINT('',#150);
#44=VERTEX_POINT('',#151);
#45=VERTEX_POINT('',#157);
#46=EDGE_CURVE('',#40,#40,#34,.T.);
#47=EDGE_CURVE('',#40,#41,#28,.T.);
#48=EDGE_CURVE('',#41,#42,#35,.T.);
#49=EDGE_CURVE('',#42,#41,#36,.T.);
#50=EDGE_CURVE('',#43,#44,#37,.T.);
#51=EDGE_CURVE('',#44,#43,#38,.T.);
#52=EDGE_CURVE('',#44,#42,#29,.T.);
#53=EDGE_CURVE('',#45,#45,#39,.T.);
#54=EDGE_CURVE('',#45,#43,#30,.T.);
#55=ORIENTED_EDGE('',*,*,#46,.T.);
#56=ORIENTED_EDGE('',*,*,#47,.T.);
#57=ORIENTED_EDGE('',*,*,#48,.T.);
#58=ORIENTED_EDGE('',*,*,#49,.T.);
#59=ORIENTED_EDGE('',*,*,#47,.F.);
#60=ORIENTED_EDGE('',*,*,#50,.F.);
#61=ORIENTED_EDGE('',*,*,#51,.F.);
#62=ORIENTED_EDGE('',*,*,#52,.T.);
#63=ORIENTED_EDGE('',*,*,#48,.F.);
#64=ORIENTED_EDGE('',*,*,#49,.F.);
#65=ORIENTED_EDGE('',*,*,#52,.F.);
#66=ORIENTED_EDGE('',*,*,#46,.F.);
#67=ORIENTED_EDGE('',*,*,#53,.T.);
#68=ORIENTED_EDGE('',*,*,#54,.T.);
#69=ORIENTED_EDGE('',*,*,#50,.T.);
#70=ORIENTED_EDGE('',*,*,#51,.T.);
#71=ORIENTED_EDGE('',*,*,#54,.F.);
#72=ORIENTED_EDGE('',*,*,#53,.F.);
#73=CONICAL_SURFACE('',#102,0.47,0.785398163397448);
#74=CONICAL_SURFACE('',#110,0.47,0.785398163397448);
#75=ADVANCED_FACE('',(#18),#73,.T.);
#76=ADVANCED_FACE('',(#19),#17,.T.);
#77=ADVANCED_FACE('',(#20),#15,.F.);
#78=ADVANCED_FACE('',(#21),#74,.T.);
#79=ADVANCED_FACE('',(#22),#16,.T.);
#80=CLOSED_SHELL('',(#75,#76,#77,#78,#79));
#81=DERIVED_UNIT_ELEMENT(#83,1.);
#82=DERIVED_UNIT_ELEMENT(#169,-3.);
#83=(
CONVERSION_BASED_UNIT('gram',#85)
MASS_UNIT()
NAMED_UNIT(#166)
);
#84=(
MASS_UNIT()
NAMED_UNIT(*)
SI_UNIT(.KILO.,.GRAM.)
);
#85=MASS_MEASURE_WITH_UNIT(MASS_MEASURE(0.001),#84);
#86=DERIVED_UNIT((#81,#82));
#87=MEASURE_REPRESENTATION_ITEM('density measure',
POSITIVE_RATIO_MEASURE(1.),#86);
#88=PROPERTY_DEFINITION_REPRESENTATION(#93,#90);
#89=PROPERTY_DEFINITION_REPRESENTATION(#94,#91);
#90=REPRESENTATION('material name',(#92),#163);
#91=REPRESENTATION('density',(#87),#163);
#92=DESCRIPTIVE_REPRESENTATION_ITEM('Generic','Generic');
#93=PROPERTY_DEFINITION('material property','material name',#177);
#94=PROPERTY_DEFINITION('material property','density of part',#177);
#95=DATE_TIME_ROLE('creation_date');
#96=APPLIED_DATE_AND_TIME_ASSIGNMENT(#97,#95,(#177));
#97=DATE_AND_TIME(#98,#99);
#98=CALENDAR_DATE(2025,20,12);
#99=LOCAL_TIME(0,0,0.,#100);
#100=COORDINATED_UNIVERSAL_TIME_OFFSET(0,0,.BEHIND.);
#101=AXIS2_PLACEMENT_3D('',#140,#113,#114);
#102=AXIS2_PLACEMENT_3D('',#141,#115,#116);
#103=AXIS2_PLACEMENT_3D('',#143,#117,#118);
#104=AXIS2_PLACEMENT_3D('',#147,#120,#121);
#105=AXIS2_PLACEMENT_3D('',#148,#122,#123);
#106=AXIS2_PLACEMENT_3D('',#149,#124,#125);
#107=AXIS2_PLACEMENT_3D('',#152,#126,#127);
#108=AXIS2_PLACEMENT_3D('',#153,#128,#129);
#109=AXIS2_PLACEMENT_3D('',#155,#131,#132);
#110=AXIS2_PLACEMENT_3D('',#156,#133,#134);
#111=AXIS2_PLACEMENT_3D('',#158,#135,#136);
#112=AXIS2_PLACEMENT_3D('',#160,#138,#139);
#113=DIRECTION('axis',(0.,0.,1.));
#114=DIRECTION('refdir',(1.,0.,0.));
#115=DIRECTION('center_axis',(1.,0.,0.));
#116=DIRECTION('ref_axis',(0.,-1.,0.));
#117=DIRECTION('center_axis',(1.,0.,0.));
#118=DIRECTION('ref_axis',(0.,-1.,0.));
#119=DIRECTION('',(0.707106781186547,0.707106781186547,-8.65956056235493E-17));
#120=DIRECTION('center_axis',(-1.,0.,0.));
#121=DIRECTION('ref_axis',(0.,-1.,0.));
#122=DIRECTION('center_axis',(-1.,0.,0.));
#123=DIRECTION('ref_axis',(0.,-1.,0.));
#124=DIRECTION('center_axis',(1.,0.,0.));
#125=DIRECTION('ref_axis',(0.,1.,0.));
#126=DIRECTION('center_axis',(1.,0.,0.));
#127=DIRECTION('ref_axis',(0.,-1.,0.));
#128=DIRECTION('center_axis',(1.,0.,0.));
#129=DIRECTION('ref_axis',(0.,-1.,0.));
#130=DIRECTION('',(-1.,0.,0.));
#131=DIRECTION('center_axis',(1.,0.,0.));
#132=DIRECTION('ref_axis',(0.,0.,-1.));
#133=DIRECTION('center_axis',(-1.,0.,0.));
#134=DIRECTION('ref_axis',(0.,-1.,0.));
#135=DIRECTION('center_axis',(-1.,0.,0.));
#136=DIRECTION('ref_axis',(0.,-1.,0.));
#137=DIRECTION('',(-0.707106781186547,0.707106781186547,8.65956056235493E-17));
#138=DIRECTION('center_axis',(1.,0.,0.));
#139=DIRECTION('ref_axis',(0.,0.,-1.));
#140=CARTESIAN_POINT('',(0.,0.,0.));
#141=CARTESIAN_POINT('Origin',(-6.22,5.59482469102441E-15,38.1968503937008));
#142=CARTESIAN_POINT('',(-6.25,0.440000000000006,38.1968503937008));
#143=CARTESIAN_POINT('Origin',(-6.25,5.59482469102441E-15,38.1968503937008));
#144=CARTESIAN_POINT('',(-6.19,0.500000000000006,38.1968503937008));
#145=CARTESIAN_POINT('',(-6.22,0.470000000000006,38.1968503937008));
#146=CARTESIAN_POINT('',(-6.19,-0.499999999999994,38.1968503937008));
#147=CARTESIAN_POINT('Origin',(-6.19,5.59482469102441E-15,38.1968503937008));
#148=CARTESIAN_POINT('Origin',(-6.19,5.59482469102441E-15,38.1968503937008));
#149=CARTESIAN_POINT('Origin',(0.,5.59482469102441E-15,38.1968503937008));
#150=CARTESIAN_POINT('',(6.19,0.500000000000006,38.1968503937008));
#151=CARTESIAN_POINT('',(6.19,-0.499999999999994,38.1968503937008));
#152=CARTESIAN_POINT('Origin',(6.19,5.59482469102441E-15,38.1968503937008));
#153=CARTESIAN_POINT('Origin',(6.19,5.59482469102441E-15,38.1968503937008));
#154=CARTESIAN_POINT('',(0.,-0.499999999999994,38.1968503937008));
#155=CARTESIAN_POINT('Origin',(-6.25,5.59482469102441E-15,38.1968503937008));
#156=CARTESIAN_POINT('Origin',(6.22,5.59482469102441E-15,38.1968503937008));
#157=CARTESIAN_POINT('',(6.25,0.440000000000006,38.1968503937008));
#158=CARTESIAN_POINT('Origin',(6.25,5.59482469102441E-15,38.1968503937008));
#159=CARTESIAN_POINT('',(6.22,0.470000000000006,38.1968503937008));
#160=CARTESIAN_POINT('Origin',(6.25,5.59482469102441E-15,38.1968503937008));
#161=UNCERTAINTY_MEASURE_WITH_UNIT(LENGTH_MEASURE(0.000393700787401575),
#167,'DISTANCE_ACCURACY_VALUE',
'Maximum model space distance between geometric entities at asserted c
onnectivities');
#162=UNCERTAINTY_MEASURE_WITH_UNIT(LENGTH_MEASURE(0.000393700787401575),
#167,'DISTANCE_ACCURACY_VALUE',
'Maximum model space distance between geometric entities at asserted c
onnectivities');
#163=(
GEOMETRIC_REPRESENTATION_CONTEXT(3)
GLOBAL_UNCERTAINTY_ASSIGNED_CONTEXT((#161))
GLOBAL_UNIT_ASSIGNED_CONTEXT((#167,#171,#172))
REPRESENTATION_CONTEXT('','3D')
);
#164=(
GEOMETRIC_REPRESENTATION_CONTEXT(3)
GLOBAL_UNCERTAINTY_ASSIGNED_CONTEXT((#162))
GLOBAL_UNIT_ASSIGNED_CONTEXT((#167,#171,#172))
REPRESENTATION_CONTEXT('','3D')
);
#165=DIMENSIONAL_EXPONENTS(1.,0.,0.,0.,0.,0.,0.);
#166=DIMENSIONAL_EXPONENTS(0.,1.,0.,0.,0.,0.,0.);
#167=(
CONVERSION_BASED_UNIT('inch',#170)
LENGTH_UNIT()
NAMED_UNIT(#165)
);
#168=(
LENGTH_UNIT()
NAMED_UNIT(*)
SI_UNIT(.MILLI.,.METRE.)
);
#169=(
LENGTH_UNIT()
NAMED_UNIT(*)
SI_UNIT(.CENTI.,.METRE.)
);
#170=LENGTH_MEASURE_WITH_UNIT(LENGTH_MEASURE(25.4),#168);
#171=(
NAMED_UNIT(*)
PLANE_ANGLE_UNIT()
SI_UNIT($,.RADIAN.)
);
#172=(
NAMED_UNIT(*)
SI_UNIT($,.STERADIAN.)
SOLID_ANGLE_UNIT()
);
#173=SHAPE_DEFINITION_REPRESENTATION(#174,#175);
#174=PRODUCT_DEFINITION_SHAPE('',$,#177);
#175=SHAPE_REPRESENTATION('',(#101),#163);
#176=PRODUCT_DEFINITION_CONTEXT('part definition',#181,'design');
#177=PRODUCT_DEFINITION('CRA-1021','CRA-1021',#178,#176);
#178=PRODUCT_DEFINITION_FORMATION('',$,#183);
#179=PRODUCT_RELATED_PRODUCT_CATEGORY('CRA-1021','CRA-1021',(#183));
#180=APPLICATION_PROTOCOL_DEFINITION('international standard',
'automotive_design',2009,#181);
#181=APPLICATION_CONTEXT(
'Core Data for Automotive Mechanical Design Process');
#182=PRODUCT_CONTEXT('part definition',#181,'mechanical');
#183=PRODUCT('CRA-1021','CRA-1021','Robot Arm Pivot Shaft',(#182));
#184=PRESENTATION_STYLE_ASSIGNMENT((#185));
#185=SURFACE_STYLE_USAGE(.BOTH.,#188);
#186=SURFACE_STYLE_RENDERING_WITH_PROPERTIES($,#192,(#187));
#187=SURFACE_STYLE_TRANSPARENT(0.);
#188=SURFACE_SIDE_STYLE('',(#189,#186));
#189=SURFACE_STYLE_FILL_AREA(#190);
#190=FILL_AREA_STYLE('',(#191));
#191=FILL_AREA_STYLE_COLOUR('',#192);
#192=COLOUR_RGB('',0.749019607843137,0.749019607843137,0.749019607843137);
ENDSEC;
END-ISO-10303-21;
