ISO-10303-21;
HEADER;
/* Generated by software containing ST-Developer
 * from STEP Tools, Inc. (www.steptools.com) 
 */

FILE_DESCRIPTION(
/* description */ ('Hex Flange Nut'),
/* implementation_level */ '2;1');

FILE_NAME(
/* name */ 'IFI - I0.375 - 16, HFNI(1).stp',
/* time_stamp */ '2026-02-07T11:05:12-06:00',
/* author */ ('josh'),
/* organization */ (''),
/* preprocessor_version */ 'ST-DEVELOPER v20',
/* originating_system */ 'Autodesk Inventor 2025',
/* authorisation */ '');

FILE_SCHEMA (('AUTOMOTIVE_DESIGN { 1 0 10303 214 3 1 1 }'));
ENDSEC;

DATA;
#10=MECHANICAL_DESIGN_GEOMETRIC_PRESENTATION_REPRESENTATION('',(#13),#621);
#11=SHAPE_REPRESENTATION_RELATIONSHIP('SRR','None',#632,#12);
#12=ADVANCED_BREP_SHAPE_REPRESENTATION('',(#14),#620);
#13=STYLED_ITEM('',(#641),#14);
#14=MANIFOLD_SOLID_BREP('Solid1',#333);
#15=TOROIDAL_SURFACE('',#384,0.335,0.04);
#16=(
BOUNDED_CURVE()
B_SPLINE_CURVE(2,(#504,#505,#506),.UNSPECIFIED.,.F.,.F.)
B_SPLINE_CURVE_WITH_KNOTS((3,3),(0.418044454678641,0.836088909357283),
 .UNSPECIFIED.)
CURVE()
GEOMETRIC_REPRESENTATION_ITEM()
RATIONAL_B_SPLINE_CURVE((1.,1.03795484930203,1.))
REPRESENTATION_ITEM('')
);
#17=(
BOUNDED_CURVE()
B_SPLINE_CURVE(2,(#507,#508,#509),.UNSPECIFIED.,.F.,.F.)
B_SPLINE_CURVE_WITH_KNOTS((3,3),(0.,0.418044454678641),.UNSPECIFIED.)
CURVE()
GEOMETRIC_REPRESENTATION_ITEM()
RATIONAL_B_SPLINE_CURVE((1.,1.03795484930204,1.))
REPRESENTATION_ITEM('')
);
#18=(
BOUNDED_CURVE()
B_SPLINE_CURVE(2,(#512,#513,#514),.UNSPECIFIED.,.F.,.F.)
B_SPLINE_CURVE_WITH_KNOTS((3,3),(0.,0.418044454678641),.UNSPECIFIED.)
CURVE()
GEOMETRIC_REPRESENTATION_ITEM()
RATIONAL_B_SPLINE_CURVE((1.,1.03795484930206,1.))
REPRESENTATION_ITEM('')
);
#19=(
BOUNDED_CURVE()
B_SPLINE_CURVE(2,(#515,#516,#517),.UNSPECIFIED.,.F.,.F.)
B_SPLINE_CURVE_WITH_KNOTS((3,3),(0.418044454678641,0.836088909357283),
 .UNSPECIFIED.)
CURVE()
GEOMETRIC_REPRESENTATION_ITEM()
RATIONAL_B_SPLINE_CURVE((1.,1.03795484930206,1.))
REPRESENTATION_ITEM('')
);
#20=(
BOUNDED_CURVE()
B_SPLINE_CURVE(2,(#520,#521,#522),.UNSPECIFIED.,.F.,.F.)
B_SPLINE_CURVE_WITH_KNOTS((3,3),(0.418044454678642,0.836088909357285),
 .UNSPECIFIED.)
CURVE()
GEOMETRIC_REPRESENTATION_ITEM()
RATIONAL_B_SPLINE_CURVE((1.,1.03795484930201,1.))
REPRESENTATION_ITEM('')
);
#21=(
BOUNDED_CURVE()
B_SPLINE_CURVE(2,(#523,#524,#525),.UNSPECIFIED.,.F.,.F.)
B_SPLINE_CURVE_WITH_KNOTS((3,3),(0.,0.418044454678641),.UNSPECIFIED.)
CURVE()
GEOMETRIC_REPRESENTATION_ITEM()
RATIONAL_B_SPLINE_CURVE((1.,1.03795484930202,1.))
REPRESENTATION_ITEM('')
);
#22=(
BOUNDED_CURVE()
B_SPLINE_CURVE(2,(#528,#529,#530),.UNSPECIFIED.,.F.,.F.)
B_SPLINE_CURVE_WITH_KNOTS((3,3),(0.,0.418044454678641),.UNSPECIFIED.)
CURVE()
GEOMETRIC_REPRESENTATION_ITEM()
RATIONAL_B_SPLINE_CURVE((1.,1.03795484930203,1.))
REPRESENTATION_ITEM('')
);
#23=(
BOUNDED_CURVE()
B_SPLINE_CURVE(2,(#531,#532,#533),.UNSPECIFIED.,.F.,.F.)
B_SPLINE_CURVE_WITH_KNOTS((3,3),(0.418044454678641,0.836088909357282),
 .UNSPECIFIED.)
CURVE()
GEOMETRIC_REPRESENTATION_ITEM()
RATIONAL_B_SPLINE_CURVE((1.,1.03795484930206,1.))
REPRESENTATION_ITEM('')
);
#24=(
BOUNDED_CURVE()
B_SPLINE_CURVE(2,(#536,#537,#538),.UNSPECIFIED.,.F.,.F.)
B_SPLINE_CURVE_WITH_KNOTS((3,3),(0.418044454678643,0.836088909357285),
 .UNSPECIFIED.)
CURVE()
GEOMETRIC_REPRESENTATION_ITEM()
RATIONAL_B_SPLINE_CURVE((1.,1.03795484930202,1.))
REPRESENTATION_ITEM('')
);
#25=(
BOUNDED_CURVE()
B_SPLINE_CURVE(2,(#539,#540,#541),.UNSPECIFIED.,.F.,.F.)
B_SPLINE_CURVE_WITH_KNOTS((3,3),(0.,0.418044454678642),.UNSPECIFIED.)
CURVE()
GEOMETRIC_REPRESENTATION_ITEM()
RATIONAL_B_SPLINE_CURVE((1.,1.03795484930201,1.))
REPRESENTATION_ITEM('')
);
#26=(
BOUNDED_CURVE()
B_SPLINE_CURVE(2,(#544,#545,#546),.UNSPECIFIED.,.F.,.F.)
B_SPLINE_CURVE_WITH_KNOTS((3,3),(0.,0.418044454678643),.UNSPECIFIED.)
CURVE()
GEOMETRIC_REPRESENTATION_ITEM()
RATIONAL_B_SPLINE_CURVE((1.,1.03795484930202,1.))
REPRESENTATION_ITEM('')
);
#27=(
BOUNDED_CURVE()
B_SPLINE_CURVE(2,(#547,#548,#549),.UNSPECIFIED.,.F.,.F.)
B_SPLINE_CURVE_WITH_KNOTS((3,3),(0.418044454678641,0.836088909357283),
 .UNSPECIFIED.)
CURVE()
GEOMETRIC_REPRESENTATION_ITEM()
RATIONAL_B_SPLINE_CURVE((1.,1.03795484930203,1.))
REPRESENTATION_ITEM('')
);
#28=(
BOUNDED_CURVE()
B_SPLINE_CURVE(2,(#554,#555,#556),.UNSPECIFIED.,.F.,.F.)
B_SPLINE_CURVE_WITH_KNOTS((3,3),(0.563720043663857,1.00056407739434),
 .UNSPECIFIED.)
CURVE()
GEOMETRIC_REPRESENTATION_ITEM()
RATIONAL_B_SPLINE_CURVE((1.,1.04944137204829,1.02225545847314))
REPRESENTATION_ITEM('')
);
#29=(
BOUNDED_CURVE()
B_SPLINE_CURVE(2,(#558,#559,#560),.UNSPECIFIED.,.F.,.F.)
B_SPLINE_CURVE_WITH_KNOTS((3,3),(0.12687600993337,0.563720043663857),
 .UNSPECIFIED.)
CURVE()
GEOMETRIC_REPRESENTATION_ITEM()
RATIONAL_B_SPLINE_CURVE((1.02225545847314,1.04944137204829,1.))
REPRESENTATION_ITEM('')
);
#30=(
BOUNDED_CURVE()
B_SPLINE_CURVE(2,(#566,#567,#568),.UNSPECIFIED.,.F.,.F.)
B_SPLINE_CURVE_WITH_KNOTS((3,3),(0.563720043663857,1.00056407739434),
 .UNSPECIFIED.)
CURVE()
GEOMETRIC_REPRESENTATION_ITEM()
RATIONAL_B_SPLINE_CURVE((1.,1.04944137204829,1.02225545847314))
REPRESENTATION_ITEM('')
);
#31=(
BOUNDED_CURVE()
B_SPLINE_CURVE(2,(#569,#570,#571),.UNSPECIFIED.,.F.,.F.)
B_SPLINE_CURVE_WITH_KNOTS((3,3),(0.126876009933371,0.563720043663857),
 .UNSPECIFIED.)
CURVE()
GEOMETRIC_REPRESENTATION_ITEM()
RATIONAL_B_SPLINE_CURVE((1.02225545847314,1.0494413720483,1.))
REPRESENTATION_ITEM('')
);
#32=(
BOUNDED_CURVE()
B_SPLINE_CURVE(2,(#576,#577,#578),.UNSPECIFIED.,.F.,.F.)
B_SPLINE_CURVE_WITH_KNOTS((3,3),(0.563720043663857,1.00056407739434),
 .UNSPECIFIED.)
CURVE()
GEOMETRIC_REPRESENTATION_ITEM()
RATIONAL_B_SPLINE_CURVE((1.,1.04944137204829,1.02225545847314))
REPRESENTATION_ITEM('')
);
#33=(
BOUNDED_CURVE()
B_SPLINE_CURVE(2,(#579,#580,#581),.UNSPECIFIED.,.F.,.F.)
B_SPLINE_CURVE_WITH_KNOTS((3,3),(0.126876009933371,0.563720043663857),
 .UNSPECIFIED.)
CURVE()
GEOMETRIC_REPRESENTATION_ITEM()
RATIONAL_B_SPLINE_CURVE((1.02225545847314,1.04944137204829,1.))
REPRESENTATION_ITEM('')
);
#34=(
BOUNDED_CURVE()
B_SPLINE_CURVE(2,(#584,#585,#586),.UNSPECIFIED.,.F.,.F.)
B_SPLINE_CURVE_WITH_KNOTS((3,3),(0.563720043663857,1.00056407739434),
 .UNSPECIFIED.)
CURVE()
GEOMETRIC_REPRESENTATION_ITEM()
RATIONAL_B_SPLINE_CURVE((1.,1.04944137204829,1.02225545847314))
REPRESENTATION_ITEM('')
);
#35=(
BOUNDED_CURVE()
B_SPLINE_CURVE(2,(#588,#589,#590),.UNSPECIFIED.,.F.,.F.)
B_SPLINE_CURVE_WITH_KNOTS((3,3),(0.12687600993337,0.563720043663857),
 .UNSPECIFIED.)
CURVE()
GEOMETRIC_REPRESENTATION_ITEM()
RATIONAL_B_SPLINE_CURVE((1.02225545847314,1.0494413720483,1.))
REPRESENTATION_ITEM('')
);
#36=(
BOUNDED_CURVE()
B_SPLINE_CURVE(2,(#594,#595,#596),.UNSPECIFIED.,.F.,.F.)
B_SPLINE_CURVE_WITH_KNOTS((3,3),(0.563720043663857,1.00056407739434),
 .UNSPECIFIED.)
CURVE()
GEOMETRIC_REPRESENTATION_ITEM()
RATIONAL_B_SPLINE_CURVE((1.,1.04944137204829,1.02225545847314))
REPRESENTATION_ITEM('')
);
#37=(
BOUNDED_CURVE()
B_SPLINE_CURVE(2,(#598,#599,#600),.UNSPECIFIED.,.F.,.F.)
B_SPLINE_CURVE_WITH_KNOTS((3,3),(0.12687600993337,0.563720043663857),
 .UNSPECIFIED.)
CURVE()
GEOMETRIC_REPRESENTATION_ITEM()
RATIONAL_B_SPLINE_CURVE((1.02225545847314,1.04944137204829,1.))
REPRESENTATION_ITEM('')
);
#38=(
BOUNDED_CURVE()
B_SPLINE_CURVE(2,(#604,#605,#606),.UNSPECIFIED.,.F.,.F.)
B_SPLINE_CURVE_WITH_KNOTS((3,3),(0.563720043663858,1.00056407739435),
 .UNSPECIFIED.)
CURVE()
GEOMETRIC_REPRESENTATION_ITEM()
RATIONAL_B_SPLINE_CURVE((1.,1.04944137204829,1.02225545847314))
REPRESENTATION_ITEM('')
);
#39=(
BOUNDED_CURVE()
B_SPLINE_CURVE(2,(#607,#608,#609),.UNSPECIFIED.,.F.,.F.)
B_SPLINE_CURVE_WITH_KNOTS((3,3),(0.12687600993337,0.563720043663858),
 .UNSPECIFIED.)
CURVE()
GEOMETRIC_REPRESENTATION_ITEM()
RATIONAL_B_SPLINE_CURVE((1.02225545847314,1.04944137204829,1.))
REPRESENTATION_ITEM('')
);
#40=FACE_BOUND('',#73,.T.);
#41=FACE_BOUND('',#76,.T.);
#42=PLANE('',#361);
#43=PLANE('',#370);
#44=PLANE('',#378);
#45=PLANE('',#379);
#46=PLANE('',#380);
#47=PLANE('',#381);
#48=PLANE('',#382);
#49=PLANE('',#383);
#50=CYLINDRICAL_SURFACE('',#358,0.1535);
#51=FACE_OUTER_BOUND('',#70,.T.);
#52=FACE_OUTER_BOUND('',#71,.T.);
#53=FACE_OUTER_BOUND('',#72,.T.);
#54=FACE_OUTER_BOUND('',#74,.T.);
#55=FACE_OUTER_BOUND('',#75,.T.);
#56=FACE_OUTER_BOUND('',#77,.T.);
#57=FACE_OUTER_BOUND('',#78,.T.);
#58=FACE_OUTER_BOUND('',#79,.T.);
#59=FACE_OUTER_BOUND('',#80,.T.);
#60=FACE_OUTER_BOUND('',#81,.T.);
#61=FACE_OUTER_BOUND('',#82,.T.);
#62=FACE_OUTER_BOUND('',#83,.T.);
#63=FACE_OUTER_BOUND('',#84,.T.);
#64=FACE_OUTER_BOUND('',#85,.T.);
#65=FACE_OUTER_BOUND('',#86,.T.);
#66=FACE_OUTER_BOUND('',#87,.T.);
#67=FACE_OUTER_BOUND('',#88,.T.);
#68=FACE_OUTER_BOUND('',#89,.T.);
#69=FACE_OUTER_BOUND('',#90,.T.);
#70=EDGE_LOOP('',(#207,#208,#209,#210));
#71=EDGE_LOOP('',(#211,#212,#213,#214,#215));
#72=EDGE_LOOP('',(#216,#217,#218,#219,#220,#221));
#73=EDGE_LOOP('',(#222));
#74=EDGE_LOOP('',(#223,#224,#225,#226,#227));
#75=EDGE_LOOP('',(#228));
#76=EDGE_LOOP('',(#229));
#77=EDGE_LOOP('',(#230,#231,#232));
#78=EDGE_LOOP('',(#233,#234,#235));
#79=EDGE_LOOP('',(#236,#237,#238));
#80=EDGE_LOOP('',(#239,#240,#241));
#81=EDGE_LOOP('',(#242,#243,#244));
#82=EDGE_LOOP('',(#245,#246,#247));
#83=EDGE_LOOP('',(#248,#249,#250,#251,#252,#253));
#84=EDGE_LOOP('',(#254,#255,#256,#257,#258,#259));
#85=EDGE_LOOP('',(#260,#261,#262,#263,#264,#265));
#86=EDGE_LOOP('',(#266,#267,#268,#269,#270,#271));
#87=EDGE_LOOP('',(#272,#273,#274,#275,#276,#277));
#88=EDGE_LOOP('',(#278,#279,#280,#281,#282,#283));
#89=EDGE_LOOP('',(#284,#285,#286,#287,#288));
#90=EDGE_LOOP('',(#289,#290,#291,#292,#293,#294,#295,#296,#297,#298,#299,
#300,#301,#302,#303,#304));
#91=LINE('',#474,#101);
#92=LINE('',#481,#102);
#93=LINE('',#498,#103);
#94=LINE('',#552,#104);
#95=LINE('',#561,#105);
#96=LINE('',#564,#106);
#97=LINE('',#574,#107);
#98=LINE('',#591,#108);
#99=LINE('',#601,#109);
#100=LINE('',#617,#110);
#101=VECTOR('',#395,0.170414558667665);
#102=VECTOR('',#404,0.1535);
#103=VECTOR('',#423,0.170414558667665);
#104=VECTOR('',#442,0.393700787401575);
#105=VECTOR('',#443,0.393700787401575);
#106=VECTOR('',#446,0.393700787401575);
#107=VECTOR('',#449,0.393700787401575);
#108=VECTOR('',#452,0.393700787401575);
#109=VECTOR('',#455,0.393700787401575);
#110=VECTOR('',#468,0.318);
#111=CIRCLE('',#356,0.18732911733533);
#112=CIRCLE('',#357,0.1535);
#113=CIRCLE('',#359,0.1535);
#114=CIRCLE('',#360,0.1535);
#115=CIRCLE('',#362,0.281);
#116=CIRCLE('',#363,0.281);
#117=CIRCLE('',#364,0.281);
#118=CIRCLE('',#365,0.281);
#119=CIRCLE('',#366,0.281);
#120=CIRCLE('',#367,0.281);
#121=CIRCLE('',#369,0.18732911733533);
#122=CIRCLE('',#371,0.335);
#123=CIRCLE('',#385,0.355);
#124=CIRCLE('',#386,0.355);
#125=CIRCLE('',#387,0.04);
#126=VERTEX_POINT('',#471);
#127=VERTEX_POINT('',#473);
#128=VERTEX_POINT('',#477);
#129=VERTEX_POINT('',#478);
#130=VERTEX_POINT('',#483);
#131=VERTEX_POINT('',#484);
#132=VERTEX_POINT('',#486);
#133=VERTEX_POINT('',#488);
#134=VERTEX_POINT('',#490);
#135=VERTEX_POINT('',#492);
#136=VERTEX_POINT('',#496);
#137=VERTEX_POINT('',#500);
#138=VERTEX_POINT('',#503);
#139=VERTEX_POINT('',#511);
#140=VERTEX_POINT('',#519);
#141=VERTEX_POINT('',#527);
#142=VERTEX_POINT('',#535);
#143=VERTEX_POINT('',#543);
#144=VERTEX_POINT('',#551);
#145=VERTEX_POINT('',#553);
#146=VERTEX_POINT('',#557);
#147=VERTEX_POINT('',#563);
#148=VERTEX_POINT('',#565);
#149=VERTEX_POINT('',#573);
#150=VERTEX_POINT('',#575);
#151=VERTEX_POINT('',#583);
#152=VERTEX_POINT('',#587);
#153=VERTEX_POINT('',#593);
#154=VERTEX_POINT('',#597);
#155=VERTEX_POINT('',#603);
#156=VERTEX_POINT('',#611);
#157=VERTEX_POINT('',#612);
#158=EDGE_CURVE('',#126,#126,#111,.T.);
#159=EDGE_CURVE('',#126,#127,#91,.T.);
#160=EDGE_CURVE('',#127,#127,#112,.T.);
#161=EDGE_CURVE('',#128,#129,#113,.T.);
#162=EDGE_CURVE('',#129,#128,#114,.T.);
#163=EDGE_CURVE('',#129,#127,#92,.T.);
#164=EDGE_CURVE('',#130,#131,#115,.T.);
#165=EDGE_CURVE('',#131,#132,#116,.T.);
#166=EDGE_CURVE('',#132,#133,#117,.T.);
#167=EDGE_CURVE('',#133,#134,#118,.T.);
#168=EDGE_CURVE('',#134,#135,#119,.T.);
#169=EDGE_CURVE('',#135,#130,#120,.T.);
#170=EDGE_CURVE('',#136,#136,#121,.T.);
#171=EDGE_CURVE('',#136,#128,#93,.T.);
#172=EDGE_CURVE('',#137,#137,#122,.T.);
#173=EDGE_CURVE('',#131,#138,#16,.T.);
#174=EDGE_CURVE('',#138,#130,#17,.T.);
#175=EDGE_CURVE('',#139,#135,#18,.T.);
#176=EDGE_CURVE('',#130,#139,#19,.T.);
#177=EDGE_CURVE('',#132,#140,#20,.T.);
#178=EDGE_CURVE('',#140,#131,#21,.T.);
#179=EDGE_CURVE('',#141,#134,#22,.T.);
#180=EDGE_CURVE('',#135,#141,#23,.T.);
#181=EDGE_CURVE('',#133,#142,#24,.T.);
#182=EDGE_CURVE('',#142,#132,#25,.T.);
#183=EDGE_CURVE('',#143,#133,#26,.T.);
#184=EDGE_CURVE('',#134,#143,#27,.T.);
#185=EDGE_CURVE('',#144,#142,#94,.T.);
#186=EDGE_CURVE('',#145,#144,#28,.T.);
#187=EDGE_CURVE('',#146,#145,#29,.T.);
#188=EDGE_CURVE('',#146,#143,#95,.T.);
#189=EDGE_CURVE('',#147,#140,#96,.T.);
#190=EDGE_CURVE('',#148,#147,#30,.T.);
#191=EDGE_CURVE('',#144,#148,#31,.T.);
#192=EDGE_CURVE('',#149,#138,#97,.T.);
#193=EDGE_CURVE('',#150,#149,#32,.T.);
#194=EDGE_CURVE('',#147,#150,#33,.T.);
#195=EDGE_CURVE('',#151,#146,#34,.T.);
#196=EDGE_CURVE('',#152,#151,#35,.T.);
#197=EDGE_CURVE('',#152,#141,#98,.T.);
#198=EDGE_CURVE('',#153,#152,#36,.T.);
#199=EDGE_CURVE('',#154,#153,#37,.T.);
#200=EDGE_CURVE('',#154,#139,#99,.T.);
#201=EDGE_CURVE('',#155,#154,#38,.T.);
#202=EDGE_CURVE('',#149,#155,#39,.T.);
#203=EDGE_CURVE('',#156,#157,#123,.T.);
#204=EDGE_CURVE('',#157,#156,#124,.T.);
#205=EDGE_CURVE('',#157,#137,#125,.T.);
#206=EDGE_CURVE('',#154,#156,#100,.T.);
#207=ORIENTED_EDGE('',*,*,#158,.T.);
#208=ORIENTED_EDGE('',*,*,#159,.T.);
#209=ORIENTED_EDGE('',*,*,#160,.T.);
#210=ORIENTED_EDGE('',*,*,#159,.F.);
#211=ORIENTED_EDGE('',*,*,#161,.F.);
#212=ORIENTED_EDGE('',*,*,#162,.F.);
#213=ORIENTED_EDGE('',*,*,#163,.T.);
#214=ORIENTED_EDGE('',*,*,#160,.F.);
#215=ORIENTED_EDGE('',*,*,#163,.F.);
#216=ORIENTED_EDGE('',*,*,#164,.T.);
#217=ORIENTED_EDGE('',*,*,#165,.T.);
#218=ORIENTED_EDGE('',*,*,#166,.T.);
#219=ORIENTED_EDGE('',*,*,#167,.T.);
#220=ORIENTED_EDGE('',*,*,#168,.T.);
#221=ORIENTED_EDGE('',*,*,#169,.T.);
#222=ORIENTED_EDGE('',*,*,#158,.F.);
#223=ORIENTED_EDGE('',*,*,#170,.T.);
#224=ORIENTED_EDGE('',*,*,#171,.T.);
#225=ORIENTED_EDGE('',*,*,#161,.T.);
#226=ORIENTED_EDGE('',*,*,#162,.T.);
#227=ORIENTED_EDGE('',*,*,#171,.F.);
#228=ORIENTED_EDGE('',*,*,#172,.F.);
#229=ORIENTED_EDGE('',*,*,#170,.F.);
#230=ORIENTED_EDGE('',*,*,#173,.F.);
#231=ORIENTED_EDGE('',*,*,#164,.F.);
#232=ORIENTED_EDGE('',*,*,#174,.F.);
#233=ORIENTED_EDGE('',*,*,#175,.F.);
#234=ORIENTED_EDGE('',*,*,#176,.F.);
#235=ORIENTED_EDGE('',*,*,#169,.F.);
#236=ORIENTED_EDGE('',*,*,#177,.F.);
#237=ORIENTED_EDGE('',*,*,#165,.F.);
#238=ORIENTED_EDGE('',*,*,#178,.F.);
#239=ORIENTED_EDGE('',*,*,#179,.F.);
#240=ORIENTED_EDGE('',*,*,#180,.F.);
#241=ORIENTED_EDGE('',*,*,#168,.F.);
#242=ORIENTED_EDGE('',*,*,#181,.F.);
#243=ORIENTED_EDGE('',*,*,#166,.F.);
#244=ORIENTED_EDGE('',*,*,#182,.F.);
#245=ORIENTED_EDGE('',*,*,#183,.F.);
#246=ORIENTED_EDGE('',*,*,#184,.F.);
#247=ORIENTED_EDGE('',*,*,#167,.F.);
#248=ORIENTED_EDGE('',*,*,#183,.T.);
#249=ORIENTED_EDGE('',*,*,#181,.T.);
#250=ORIENTED_EDGE('',*,*,#185,.F.);
#251=ORIENTED_EDGE('',*,*,#186,.F.);
#252=ORIENTED_EDGE('',*,*,#187,.F.);
#253=ORIENTED_EDGE('',*,*,#188,.T.);
#254=ORIENTED_EDGE('',*,*,#182,.T.);
#255=ORIENTED_EDGE('',*,*,#177,.T.);
#256=ORIENTED_EDGE('',*,*,#189,.F.);
#257=ORIENTED_EDGE('',*,*,#190,.F.);
#258=ORIENTED_EDGE('',*,*,#191,.F.);
#259=ORIENTED_EDGE('',*,*,#185,.T.);
#260=ORIENTED_EDGE('',*,*,#178,.T.);
#261=ORIENTED_EDGE('',*,*,#173,.T.);
#262=ORIENTED_EDGE('',*,*,#192,.F.);
#263=ORIENTED_EDGE('',*,*,#193,.F.);
#264=ORIENTED_EDGE('',*,*,#194,.F.);
#265=ORIENTED_EDGE('',*,*,#189,.T.);
#266=ORIENTED_EDGE('',*,*,#184,.T.);
#267=ORIENTED_EDGE('',*,*,#188,.F.);
#268=ORIENTED_EDGE('',*,*,#195,.F.);
#269=ORIENTED_EDGE('',*,*,#196,.F.);
#270=ORIENTED_EDGE('',*,*,#197,.T.);
#271=ORIENTED_EDGE('',*,*,#179,.T.);
#272=ORIENTED_EDGE('',*,*,#180,.T.);
#273=ORIENTED_EDGE('',*,*,#197,.F.);
#274=ORIENTED_EDGE('',*,*,#198,.F.);
#275=ORIENTED_EDGE('',*,*,#199,.F.);
#276=ORIENTED_EDGE('',*,*,#200,.T.);
#277=ORIENTED_EDGE('',*,*,#175,.T.);
#278=ORIENTED_EDGE('',*,*,#176,.T.);
#279=ORIENTED_EDGE('',*,*,#200,.F.);
#280=ORIENTED_EDGE('',*,*,#201,.F.);
#281=ORIENTED_EDGE('',*,*,#202,.F.);
#282=ORIENTED_EDGE('',*,*,#192,.T.);
#283=ORIENTED_EDGE('',*,*,#174,.T.);
#284=ORIENTED_EDGE('',*,*,#203,.F.);
#285=ORIENTED_EDGE('',*,*,#204,.F.);
#286=ORIENTED_EDGE('',*,*,#205,.T.);
#287=ORIENTED_EDGE('',*,*,#172,.T.);
#288=ORIENTED_EDGE('',*,*,#205,.F.);
#289=ORIENTED_EDGE('',*,*,#201,.T.);
#290=ORIENTED_EDGE('',*,*,#206,.T.);
#291=ORIENTED_EDGE('',*,*,#203,.T.);
#292=ORIENTED_EDGE('',*,*,#204,.T.);
#293=ORIENTED_EDGE('',*,*,#206,.F.);
#294=ORIENTED_EDGE('',*,*,#199,.T.);
#295=ORIENTED_EDGE('',*,*,#198,.T.);
#296=ORIENTED_EDGE('',*,*,#196,.T.);
#297=ORIENTED_EDGE('',*,*,#195,.T.);
#298=ORIENTED_EDGE('',*,*,#187,.T.);
#299=ORIENTED_EDGE('',*,*,#186,.T.);
#300=ORIENTED_EDGE('',*,*,#191,.T.);
#301=ORIENTED_EDGE('',*,*,#190,.T.);
#302=ORIENTED_EDGE('',*,*,#194,.T.);
#303=ORIENTED_EDGE('',*,*,#193,.T.);
#304=ORIENTED_EDGE('',*,*,#202,.T.);
#305=CONICAL_SURFACE('',#355,0.170414558667665,0.785398163397447);
#306=CONICAL_SURFACE('',#368,0.170414558667665,1.0471975511966);
#307=CONICAL_SURFACE('',#372,0.302735425642285,1.0471975511966);
#308=CONICAL_SURFACE('',#373,0.302735425642285,1.0471975511966);
#309=CONICAL_SURFACE('',#374,0.302735425642285,1.0471975511966);
#310=CONICAL_SURFACE('',#375,0.302735425642285,1.0471975511966);
#311=CONICAL_SURFACE('',#376,0.302735425642285,1.0471975511966);
#312=CONICAL_SURFACE('',#377,0.302735425642285,1.0471975511966);
#313=CONICAL_SURFACE('',#388,0.318,1.0471975511966);
#314=ADVANCED_FACE('',(#51),#305,.F.);
#315=ADVANCED_FACE('',(#52),#50,.F.);
#316=ADVANCED_FACE('',(#53,#40),#42,.T.);
#317=ADVANCED_FACE('',(#54),#306,.F.);
#318=ADVANCED_FACE('',(#55,#41),#43,.T.);
#319=ADVANCED_FACE('',(#56),#307,.T.);
#320=ADVANCED_FACE('',(#57),#308,.T.);
#321=ADVANCED_FACE('',(#58),#309,.T.);
#322=ADVANCED_FACE('',(#59),#310,.T.);
#323=ADVANCED_FACE('',(#60),#311,.T.);
#324=ADVANCED_FACE('',(#61),#312,.T.);
#325=ADVANCED_FACE('',(#62),#44,.T.);
#326=ADVANCED_FACE('',(#63),#45,.T.);
#327=ADVANCED_FACE('',(#64),#46,.T.);
#328=ADVANCED_FACE('',(#65),#47,.T.);
#329=ADVANCED_FACE('',(#66),#48,.T.);
#330=ADVANCED_FACE('',(#67),#49,.T.);
#331=ADVANCED_FACE('',(#68),#15,.T.);
#332=ADVANCED_FACE('',(#69),#313,.T.);
#333=CLOSED_SHELL('',(#314,#315,#316,#317,#318,#319,#320,#321,#322,#323,
#324,#325,#326,#327,#328,#329,#330,#331,#332));
#334=DERIVED_UNIT_ELEMENT(#336,1.);
#335=DERIVED_UNIT_ELEMENT(#626,-3.);
#336=(
CONVERSION_BASED_UNIT('gram',#338)
MASS_UNIT()
NAMED_UNIT(#623)
);
#337=(
MASS_UNIT()
NAMED_UNIT(*)
SI_UNIT(.KILO.,.GRAM.)
);
#338=MASS_MEASURE_WITH_UNIT(MASS_MEASURE(0.001),#337);
#339=DERIVED_UNIT((#334,#335));
#340=MEASURE_REPRESENTATION_ITEM('density measure',
POSITIVE_RATIO_MEASURE(7.85),#339);
#341=PROPERTY_DEFINITION_REPRESENTATION(#346,#343);
#342=PROPERTY_DEFINITION_REPRESENTATION(#347,#344);
#343=REPRESENTATION('material name',(#345),#620);
#344=REPRESENTATION('density',(#340),#620);
#345=DESCRIPTIVE_REPRESENTATION_ITEM('Steel, Mild','Steel, Mild');
#346=PROPERTY_DEFINITION('material property','material name',#634);
#347=PROPERTY_DEFINITION('material property','density of part',#634);
#348=DATE_TIME_ROLE('creation_date');
#349=APPLIED_DATE_AND_TIME_ASSIGNMENT(#350,#348,(#634));
#350=DATE_AND_TIME(#351,#352);
#351=CALENDAR_DATE(2024,20,1);
#352=LOCAL_TIME(0,0,0.,#353);
#353=COORDINATED_UNIVERSAL_TIME_OFFSET(0,0,.BEHIND.);
#354=AXIS2_PLACEMENT_3D('',#469,#389,#390);
#355=AXIS2_PLACEMENT_3D('',#470,#391,#392);
#356=AXIS2_PLACEMENT_3D('',#472,#393,#394);
#357=AXIS2_PLACEMENT_3D('',#475,#396,#397);
#358=AXIS2_PLACEMENT_3D('',#476,#398,#399);
#359=AXIS2_PLACEMENT_3D('',#479,#400,#401);
#360=AXIS2_PLACEMENT_3D('',#480,#402,#403);
#361=AXIS2_PLACEMENT_3D('',#482,#405,#406);
#362=AXIS2_PLACEMENT_3D('',#485,#407,#408);
#363=AXIS2_PLACEMENT_3D('',#487,#409,#410);
#364=AXIS2_PLACEMENT_3D('',#489,#411,#412);
#365=AXIS2_PLACEMENT_3D('',#491,#413,#414);
#366=AXIS2_PLACEMENT_3D('',#493,#415,#416);
#367=AXIS2_PLACEMENT_3D('',#494,#417,#418);
#368=AXIS2_PLACEMENT_3D('',#495,#419,#420);
#369=AXIS2_PLACEMENT_3D('',#497,#421,#422);
#370=AXIS2_PLACEMENT_3D('',#499,#424,#425);
#371=AXIS2_PLACEMENT_3D('',#501,#426,#427);
#372=AXIS2_PLACEMENT_3D('',#502,#428,#429);
#373=AXIS2_PLACEMENT_3D('',#510,#430,#431);
#374=AXIS2_PLACEMENT_3D('',#518,#432,#433);
#375=AXIS2_PLACEMENT_3D('',#526,#434,#435);
#376=AXIS2_PLACEMENT_3D('',#534,#436,#437);
#377=AXIS2_PLACEMENT_3D('',#542,#438,#439);
#378=AXIS2_PLACEMENT_3D('',#550,#440,#441);
#379=AXIS2_PLACEMENT_3D('',#562,#444,#445);
#380=AXIS2_PLACEMENT_3D('',#572,#447,#448);
#381=AXIS2_PLACEMENT_3D('',#582,#450,#451);
#382=AXIS2_PLACEMENT_3D('',#592,#453,#454);
#383=AXIS2_PLACEMENT_3D('',#602,#456,#457);
#384=AXIS2_PLACEMENT_3D('',#610,#458,#459);
#385=AXIS2_PLACEMENT_3D('',#613,#460,#461);
#386=AXIS2_PLACEMENT_3D('',#614,#462,#463);
#387=AXIS2_PLACEMENT_3D('',#615,#464,#465);
#388=AXIS2_PLACEMENT_3D('',#616,#466,#467);
#389=DIRECTION('axis',(0.,0.,1.));
#390=DIRECTION('refdir',(1.,0.,0.));
#391=DIRECTION('center_axis',(1.,0.,0.));
#392=DIRECTION('ref_axis',(0.,0.,1.));
#393=DIRECTION('center_axis',(1.,0.,0.));
#394=DIRECTION('ref_axis',(0.,0.,1.));
#395=DIRECTION('',(-0.707106781186548,-8.65956056235493E-17,0.707106781186547));
#396=DIRECTION('center_axis',(-1.,0.,0.));
#397=DIRECTION('ref_axis',(0.,0.,1.));
#398=DIRECTION('center_axis',(-1.,0.,0.));
#399=DIRECTION('ref_axis',(0.,0.,1.));
#400=DIRECTION('center_axis',(1.,0.,0.));
#401=DIRECTION('ref_axis',(0.,0.,-1.));
#402=DIRECTION('center_axis',(1.,0.,0.));
#403=DIRECTION('ref_axis',(0.,0.,-1.));
#404=DIRECTION('',(1.,0.,0.));
#405=DIRECTION('center_axis',(1.,0.,0.));
#406=DIRECTION('ref_axis',(0.,0.,-1.));
#407=DIRECTION('center_axis',(1.,0.,0.));
#408=DIRECTION('ref_axis',(1.34710306721184E-16,1.,0.));
#409=DIRECTION('center_axis',(1.,0.,0.));
#410=DIRECTION('ref_axis',(1.34710306721184E-16,1.,0.));
#411=DIRECTION('center_axis',(1.,0.,0.));
#412=DIRECTION('ref_axis',(1.34710306721184E-16,1.,0.));
#413=DIRECTION('center_axis',(1.,0.,0.));
#414=DIRECTION('ref_axis',(1.34710306721184E-16,1.,0.));
#415=DIRECTION('center_axis',(1.,0.,0.));
#416=DIRECTION('ref_axis',(1.34710306721184E-16,1.,0.));
#417=DIRECTION('center_axis',(1.,0.,0.));
#418=DIRECTION('ref_axis',(1.34710306721184E-16,1.,0.));
#419=DIRECTION('center_axis',(-1.,0.,0.));
#420=DIRECTION('ref_axis',(0.,0.,-1.));
#421=DIRECTION('center_axis',(-1.,0.,0.));
#422=DIRECTION('ref_axis',(0.,0.,-1.));
#423=DIRECTION('',(0.500000000000001,-1.06057523872491E-16,-0.866025403784438));
#424=DIRECTION('center_axis',(-1.,0.,0.));
#425=DIRECTION('ref_axis',(0.,0.,1.));
#426=DIRECTION('center_axis',(1.,0.,0.));
#427=DIRECTION('ref_axis',(0.,1.,0.));
#428=DIRECTION('center_axis',(-1.,0.,0.));
#429=DIRECTION('ref_axis',(1.34710306721184E-16,1.,0.));
#430=DIRECTION('center_axis',(-1.,0.,0.));
#431=DIRECTION('ref_axis',(1.34710306721184E-16,-1.,1.01064309961486E-15));
#432=DIRECTION('center_axis',(-1.,0.,0.));
#433=DIRECTION('ref_axis',(1.34710306721184E-16,1.,0.));
#434=DIRECTION('center_axis',(-1.,0.,0.));
#435=DIRECTION('ref_axis',(1.34710306721184E-16,1.,0.));
#436=DIRECTION('center_axis',(-1.,0.,0.));
#437=DIRECTION('ref_axis',(1.34710306721184E-16,1.,0.));
#438=DIRECTION('center_axis',(-1.,0.,0.));
#439=DIRECTION('ref_axis',(1.34710306721184E-16,1.,0.));
#440=DIRECTION('center_axis',(0.,0.866025403784439,0.5));
#441=DIRECTION('ref_axis',(0.,-0.5,0.866025403784439));
#442=DIRECTION('',(1.,0.,0.));
#443=DIRECTION('',(1.,0.,0.));
#444=DIRECTION('center_axis',(0.,0.866025403784439,-0.5));
#445=DIRECTION('ref_axis',(0.,0.5,0.866025403784439));
#446=DIRECTION('',(1.,0.,0.));
#447=DIRECTION('center_axis',(0.,4.04130920163553E-16,-1.));
#448=DIRECTION('ref_axis',(-1.,0.,0.));
#449=DIRECTION('',(1.,0.,0.));
#450=DIRECTION('center_axis',(0.,9.42972147048292E-16,1.));
#451=DIRECTION('ref_axis',(1.,0.,0.));
#452=DIRECTION('',(1.,0.,0.));
#453=DIRECTION('center_axis',(0.,-0.866025403784438,0.500000000000001));
#454=DIRECTION('ref_axis',(1.,0.,0.));
#455=DIRECTION('',(1.,0.,0.));
#456=DIRECTION('center_axis',(0.,-0.866025403784439,-0.499999999999999));
#457=DIRECTION('ref_axis',(0.,0.499999999999999,-0.866025403784439));
#458=DIRECTION('center_axis',(1.,0.,0.));
#459=DIRECTION('ref_axis',(0.,0.,-1.));
#460=DIRECTION('center_axis',(1.,0.,0.));
#461=DIRECTION('ref_axis',(0.,1.,0.));
#462=DIRECTION('center_axis',(1.,0.,0.));
#463=DIRECTION('ref_axis',(0.,1.,0.));
#464=DIRECTION('center_axis',(0.,-1.,-1.22464679914735E-16));
#465=DIRECTION('ref_axis',(0.,-1.22464679914735E-16,1.));
#466=DIRECTION('center_axis',(-1.,0.,0.));
#467=DIRECTION('ref_axis',(0.,1.,0.));
#468=DIRECTION('',(-0.5,-0.866025403784439,-1.06057523872491E-16));
#469=CARTESIAN_POINT('',(0.,0.,0.));
#470=CARTESIAN_POINT('Origin',(0.330085441332335,0.,0.));
#471=CARTESIAN_POINT('',(0.347,2.2941200393181E-17,-0.18732911733533));
#472=CARTESIAN_POINT('Origin',(0.347,0.,0.));
#473=CARTESIAN_POINT('',(0.31317088266467,-1.87983283669119E-17,-0.1535));
#474=CARTESIAN_POINT('',(0.330085441332335,2.08697643800465E-17,-0.170414558667665));
#475=CARTESIAN_POINT('Origin',(0.31317088266467,0.,0.));
#476=CARTESIAN_POINT('Origin',(1.11597894245366,0.,0.));
#477=CARTESIAN_POINT('',(0.0195312500000001,-1.87983283669119E-17,0.1535));
#478=CARTESIAN_POINT('',(0.0195312500000001,-1.87983283669119E-17,-0.1535));
#479=CARTESIAN_POINT('Origin',(0.0195312500000001,0.,0.));
#480=CARTESIAN_POINT('Origin',(0.0195312500000001,0.,0.));
#481=CARTESIAN_POINT('',(1.11597894245366,-1.87983283669119E-17,-0.1535));
#482=CARTESIAN_POINT('Origin',(0.347,-5.46369598732853E-17,3.00503279303069E-17));
#483=CARTESIAN_POINT('',(0.347,-0.243353138463427,-0.1405));
#484=CARTESIAN_POINT('',(0.347,1.09273919746571E-16,-0.281));
#485=CARTESIAN_POINT('Origin',(0.347,0.,0.));
#486=CARTESIAN_POINT('',(0.347,0.243353138463427,-0.1405));
#487=CARTESIAN_POINT('Origin',(0.347,0.,0.));
#488=CARTESIAN_POINT('',(0.347,0.243353138463427,0.1405));
#489=CARTESIAN_POINT('Origin',(0.347,0.,0.));
#490=CARTESIAN_POINT('',(0.347,2.62257407391769E-16,0.281));
#491=CARTESIAN_POINT('Origin',(0.347,0.,0.));
#492=CARTESIAN_POINT('',(0.347,-0.243353138463427,0.1405));
#493=CARTESIAN_POINT('Origin',(0.347,0.,0.));
#494=CARTESIAN_POINT('Origin',(0.347,0.,0.));
#495=CARTESIAN_POINT('Origin',(0.00976562500000003,0.,0.));
#496=CARTESIAN_POINT('',(0.,2.2941200393181E-17,0.18732911733533));
#497=CARTESIAN_POINT('Origin',(0.,0.,0.));
#498=CARTESIAN_POINT('',(0.00976562500000003,2.08697643800465E-17,0.170414558667665));
#499=CARTESIAN_POINT('Origin',(0.,0.1675,0.));
#500=CARTESIAN_POINT('',(0.,-4.10256677714363E-17,0.335));
#501=CARTESIAN_POINT('Origin',(0.,0.,0.));
#502=CARTESIAN_POINT('Origin',(0.334451046154476,0.,0.));
#503=CARTESIAN_POINT('',(0.321902092308952,-0.162235425642285,-0.281));
#504=CARTESIAN_POINT('Ctrl Pts',(0.347,1.09273919746571E-16,-0.281));
#505=CARTESIAN_POINT('Ctrl Pts',(0.347,-0.0752937230731451,-0.281));
#506=CARTESIAN_POINT('Ctrl Pts',(0.321902092308951,-0.162235425642285,-0.281));
#507=CARTESIAN_POINT('Ctrl Pts',(0.321902092308952,-0.162235425642285,-0.281));
#508=CARTESIAN_POINT('Ctrl Pts',(0.347,-0.205706276926855,-0.205706276926854));
#509=CARTESIAN_POINT('Ctrl Pts',(0.347,-0.243353138463427,-0.1405));
#510=CARTESIAN_POINT('Origin',(0.334451046154476,0.,0.));
#511=CARTESIAN_POINT('',(0.321902092308952,-0.32447085128457,9.39755709820506E-16));
#512=CARTESIAN_POINT('Ctrl Pts',(0.321902092308951,-0.32447085128457,8.19836039396553E-16));
#513=CARTESIAN_POINT('Ctrl Pts',(0.347,-0.281,0.0752937230731458));
#514=CARTESIAN_POINT('Ctrl Pts',(0.347,-0.243353138463427,0.1405));
#515=CARTESIAN_POINT('Ctrl Pts',(0.347,-0.243353138463427,-0.1405));
#516=CARTESIAN_POINT('Ctrl Pts',(0.347,-0.281,-0.0752937230731452));
#517=CARTESIAN_POINT('Ctrl Pts',(0.321902092308952,-0.324470851284569,9.3695547359606E-17));
#518=CARTESIAN_POINT('Origin',(0.334451046154476,0.,0.));
#519=CARTESIAN_POINT('',(0.321902092308952,0.162235425642285,-0.281));
#520=CARTESIAN_POINT('Ctrl Pts',(0.347,0.243353138463427,-0.1405));
#521=CARTESIAN_POINT('Ctrl Pts',(0.347,0.205706276926855,-0.205706276926854));
#522=CARTESIAN_POINT('Ctrl Pts',(0.321902092308951,0.162235425642285,-0.281));
#523=CARTESIAN_POINT('Ctrl Pts',(0.321902092308951,0.162235425642285,-0.281));
#524=CARTESIAN_POINT('Ctrl Pts',(0.347,0.0752937230731456,-0.281));
#525=CARTESIAN_POINT('Ctrl Pts',(0.347,1.09273919746571E-16,-0.281));
#526=CARTESIAN_POINT('Origin',(0.334451046154476,0.,0.));
#527=CARTESIAN_POINT('',(0.321902092308952,-0.162235425642284,0.281));
#528=CARTESIAN_POINT('Ctrl Pts',(0.321902092308951,-0.162235425642284,0.281));
#529=CARTESIAN_POINT('Ctrl Pts',(0.347,-0.0752937230731449,0.281));
#530=CARTESIAN_POINT('Ctrl Pts',(0.347,2.62257407391769E-16,0.281));
#531=CARTESIAN_POINT('Ctrl Pts',(0.347,-0.243353138463427,0.1405));
#532=CARTESIAN_POINT('Ctrl Pts',(0.347,-0.205706276926854,0.205706276926855));
#533=CARTESIAN_POINT('Ctrl Pts',(0.321902092308951,-0.162235425642285,0.281));
#534=CARTESIAN_POINT('Origin',(0.334451046154476,0.,0.));
#535=CARTESIAN_POINT('',(0.321902092308952,0.32447085128457,0.));
#536=CARTESIAN_POINT('Ctrl Pts',(0.347,0.243353138463427,0.1405));
#537=CARTESIAN_POINT('Ctrl Pts',(0.347,0.281,0.0752937230731452));
#538=CARTESIAN_POINT('Ctrl Pts',(0.321902092308951,0.32447085128457,-3.0451052891872E-16));
#539=CARTESIAN_POINT('Ctrl Pts',(0.321902092308951,0.32447085128457,2.81086642078818E-16));
#540=CARTESIAN_POINT('Ctrl Pts',(0.347,0.281,-0.0752937230731451));
#541=CARTESIAN_POINT('Ctrl Pts',(0.347,0.243353138463427,-0.1405));
#542=CARTESIAN_POINT('Origin',(0.334451046154476,0.,0.));
#543=CARTESIAN_POINT('',(0.321902092308952,0.162235425642285,0.281));
#544=CARTESIAN_POINT('Ctrl Pts',(0.321902092308951,0.162235425642285,0.281));
#545=CARTESIAN_POINT('Ctrl Pts',(0.347,0.205706276926855,0.205706276926855));
#546=CARTESIAN_POINT('Ctrl Pts',(0.347,0.243353138463427,0.1405));
#547=CARTESIAN_POINT('Ctrl Pts',(0.347,2.62257407391769E-16,0.281));
#548=CARTESIAN_POINT('Ctrl Pts',(0.347,0.0752937230731454,0.281));
#549=CARTESIAN_POINT('Ctrl Pts',(0.321902092308951,0.162235425642285,0.281));
#550=CARTESIAN_POINT('Origin',(0.,0.162235425642285,0.281));
#551=CARTESIAN_POINT('',(0.0922670283803614,0.32447085128457,2.94334046208737E-17));
#552=CARTESIAN_POINT('',(0.,0.32447085128457,2.94334046208737E-17));
#553=CARTESIAN_POINT('',(0.11736493607141,0.243353138463427,0.1405));
#554=CARTESIAN_POINT('Ctrl Pts',(0.11736493607141,0.243353138463427,0.1405));
#555=CARTESIAN_POINT('Ctrl Pts',(0.11736493607141,0.281,0.0752937230731456));
#556=CARTESIAN_POINT('Ctrl Pts',(0.0922670283803614,0.324470851284569,2.94334046208737E-17));
#557=CARTESIAN_POINT('',(0.0922670283803613,0.162235425642285,0.281));
#558=CARTESIAN_POINT('Ctrl Pts',(0.0922670283803613,0.162235425642285,0.281));
#559=CARTESIAN_POINT('Ctrl Pts',(0.11736493607141,0.205706276926855,0.205706276926854));
#560=CARTESIAN_POINT('Ctrl Pts',(0.11736493607141,0.243353138463427,0.1405));
#561=CARTESIAN_POINT('',(0.,0.162235425642285,0.281));
#562=CARTESIAN_POINT('Origin',(0.,0.32447085128457,2.94334046208737E-17));
#563=CARTESIAN_POINT('',(0.0922670283803613,0.162235425642285,-0.281));
#564=CARTESIAN_POINT('',(0.,0.162235425642285,-0.281));
#565=CARTESIAN_POINT('',(0.11736493607141,0.243353138463427,-0.1405));
#566=CARTESIAN_POINT('Ctrl Pts',(0.11736493607141,0.243353138463427,-0.1405));
#567=CARTESIAN_POINT('Ctrl Pts',(0.11736493607141,0.205706276926855,-0.205706276926854));
#568=CARTESIAN_POINT('Ctrl Pts',(0.0922670283803613,0.162235425642285,-0.281));
#569=CARTESIAN_POINT('Ctrl Pts',(0.0922670283803614,0.32447085128457,2.94334046208737E-17));
#570=CARTESIAN_POINT('Ctrl Pts',(0.11736493607141,0.281,-0.0752937230731453));
#571=CARTESIAN_POINT('Ctrl Pts',(0.11736493607141,0.243353138463427,-0.1405));
#572=CARTESIAN_POINT('Origin',(0.,0.162235425642285,-0.281));
#573=CARTESIAN_POINT('',(0.0922670283803613,-0.162235425642285,-0.281));
#574=CARTESIAN_POINT('',(0.,-0.162235425642285,-0.281));
#575=CARTESIAN_POINT('',(0.11736493607141,1.09273919746571E-16,-0.281));
#576=CARTESIAN_POINT('Ctrl Pts',(0.11736493607141,1.09273919746571E-16,
-0.281));
#577=CARTESIAN_POINT('Ctrl Pts',(0.11736493607141,-0.0752937230731453,-0.281));
#578=CARTESIAN_POINT('Ctrl Pts',(0.0922670283803613,-0.162235425642285,
-0.281));
#579=CARTESIAN_POINT('Ctrl Pts',(0.0922670283803613,0.162235425642285,-0.281));
#580=CARTESIAN_POINT('Ctrl Pts',(0.11736493607141,0.0752937230731455,-0.281));
#581=CARTESIAN_POINT('Ctrl Pts',(0.11736493607141,1.09273919746571E-16,
-0.281));
#582=CARTESIAN_POINT('Origin',(0.,-0.162235425642285,0.281));
#583=CARTESIAN_POINT('',(0.11736493607141,2.62257407391769E-16,0.281));
#584=CARTESIAN_POINT('Ctrl Pts',(0.11736493607141,2.62257407391769E-16,
0.281));
#585=CARTESIAN_POINT('Ctrl Pts',(0.11736493607141,0.0752937230731455,0.281));
#586=CARTESIAN_POINT('Ctrl Pts',(0.0922670283803613,0.162235425642285,0.281));
#587=CARTESIAN_POINT('',(0.0922670283803612,-0.162235425642285,0.281));
#588=CARTESIAN_POINT('Ctrl Pts',(0.0922670283803612,-0.162235425642285,
0.281));
#589=CARTESIAN_POINT('Ctrl Pts',(0.11736493607141,-0.0752937230731455,0.281));
#590=CARTESIAN_POINT('Ctrl Pts',(0.11736493607141,2.62257407391769E-16,
0.281));
#591=CARTESIAN_POINT('',(0.,-0.162235425642285,0.281));
#592=CARTESIAN_POINT('Origin',(0.,-0.32447085128457,5.71573153985264E-16));
#593=CARTESIAN_POINT('',(0.11736493607141,-0.243353138463427,0.1405));
#594=CARTESIAN_POINT('Ctrl Pts',(0.11736493607141,-0.243353138463427,0.1405));
#595=CARTESIAN_POINT('Ctrl Pts',(0.11736493607141,-0.205706276926855,0.205706276926855));
#596=CARTESIAN_POINT('Ctrl Pts',(0.0922670283803612,-0.162235425642285,
0.281));
#597=CARTESIAN_POINT('',(0.0922670283803613,-0.32447085128457,5.71573153985264E-16));
#598=CARTESIAN_POINT('Ctrl Pts',(0.0922670283803613,-0.32447085128457,5.71573153985264E-16));
#599=CARTESIAN_POINT('Ctrl Pts',(0.11736493607141,-0.281,0.0752937230731462));
#600=CARTESIAN_POINT('Ctrl Pts',(0.11736493607141,-0.243353138463427,0.1405));
#601=CARTESIAN_POINT('',(0.,-0.32447085128457,5.71573153985264E-16));
#602=CARTESIAN_POINT('Origin',(0.,-0.162235425642285,-0.281));
#603=CARTESIAN_POINT('',(0.11736493607141,-0.243353138463427,-0.1405));
#604=CARTESIAN_POINT('Ctrl Pts',(0.11736493607141,-0.243353138463427,-0.1405));
#605=CARTESIAN_POINT('Ctrl Pts',(0.11736493607141,-0.281,-0.0752937230731451));
#606=CARTESIAN_POINT('Ctrl Pts',(0.0922670283803613,-0.32447085128457,5.71573153985264E-16));
#607=CARTESIAN_POINT('Ctrl Pts',(0.0922670283803613,-0.162235425642285,
-0.281));
#608=CARTESIAN_POINT('Ctrl Pts',(0.11736493607141,-0.205706276926855,-0.205706276926854));
#609=CARTESIAN_POINT('Ctrl Pts',(0.11736493607141,-0.243353138463427,-0.1405));
#610=CARTESIAN_POINT('Origin',(0.04,0.,0.));
#611=CARTESIAN_POINT('',(0.0746410161513775,-0.355,-4.3474961369731E-17));
#612=CARTESIAN_POINT('',(0.0746410161513775,-4.3474961369731E-17,0.355));
#613=CARTESIAN_POINT('Origin',(0.0746410161513775,0.,0.));
#614=CARTESIAN_POINT('Origin',(0.0746410161513775,0.,0.));
#615=CARTESIAN_POINT('Origin',(0.04,-4.10256677714363E-17,0.335));
#616=CARTESIAN_POINT('Origin',(0.0960029761113936,0.,0.));
#617=CARTESIAN_POINT('',(0.0960029761113936,-0.318,-3.89437682128858E-17));
#618=UNCERTAINTY_MEASURE_WITH_UNIT(LENGTH_MEASURE(0.000393700787401575),
#624,'DISTANCE_ACCURACY_VALUE',
'Maximum model space distance between geometric entities at asserted c
onnectivities');
#619=UNCERTAINTY_MEASURE_WITH_UNIT(LENGTH_MEASURE(0.000393700787401575),
#624,'DISTANCE_ACCURACY_VALUE',
'Maximum model space distance between geometric entities at asserted c
onnectivities');
#620=(
GEOMETRIC_REPRESENTATION_CONTEXT(3)
GLOBAL_UNCERTAINTY_ASSIGNED_CONTEXT((#618))
GLOBAL_UNIT_ASSIGNED_CONTEXT((#624,#628,#629))
REPRESENTATION_CONTEXT('','3D')
);
#621=(
GEOMETRIC_REPRESENTATION_CONTEXT(3)
GLOBAL_UNCERTAINTY_ASSIGNED_CONTEXT((#619))
GLOBAL_UNIT_ASSIGNED_CONTEXT((#624,#628,#629))
REPRESENTATION_CONTEXT('','3D')
);
#622=DIMENSIONAL_EXPONENTS(1.,0.,0.,0.,0.,0.,0.);
#623=DIMENSIONAL_EXPONENTS(0.,1.,0.,0.,0.,0.,0.);
#624=(
CONVERSION_BASED_UNIT('inch',#627)
LENGTH_UNIT()
NAMED_UNIT(#622)
);
#625=(
LENGTH_UNIT()
NAMED_UNIT(*)
SI_UNIT(.MILLI.,.METRE.)
);
#626=(
LENGTH_UNIT()
NAMED_UNIT(*)
SI_UNIT(.CENTI.,.METRE.)
);
#627=LENGTH_MEASURE_WITH_UNIT(LENGTH_MEASURE(25.4),#625);
#628=(
NAMED_UNIT(*)
PLANE_ANGLE_UNIT()
SI_UNIT($,.RADIAN.)
);
#629=(
NAMED_UNIT(*)
SI_UNIT($,.STERADIAN.)
SOLID_ANGLE_UNIT()
);
#630=SHAPE_DEFINITION_REPRESENTATION(#631,#632);
#631=PRODUCT_DEFINITION_SHAPE('',$,#634);
#632=SHAPE_REPRESENTATION('',(#354),#620);
#633=PRODUCT_DEFINITION_CONTEXT('part definition',#638,'design');
#634=PRODUCT_DEFINITION('IFI - I0.375 - 16, HFNI(1)',
'IFI - I0.375 - 16(1)',#635,#633);
#635=PRODUCT_DEFINITION_FORMATION('',$,#640);
#636=PRODUCT_RELATED_PRODUCT_CATEGORY('IFI - I0.375 - 16(1)',
'IFI - I0.375 - 16(1)',(#640));
#637=APPLICATION_PROTOCOL_DEFINITION('international standard',
'automotive_design',2009,#638);
#638=APPLICATION_CONTEXT(
'Core Data for Automotive Mechanical Design Process');
#639=PRODUCT_CONTEXT('part definition',#638,'mechanical');
#640=PRODUCT('IFI - I0.375 - 16, HFNI(1)','IFI - I0.375 - 16(1)',
'Hex Flange Nut',(#639));
#641=PRESENTATION_STYLE_ASSIGNMENT((#642));
#642=SURFACE_STYLE_USAGE(.BOTH.,#645);
#643=SURFACE_STYLE_RENDERING_WITH_PROPERTIES($,#649,(#644));
#644=SURFACE_STYLE_TRANSPARENT(0.);
#645=SURFACE_SIDE_STYLE('',(#646,#643));
#646=SURFACE_STYLE_FILL_AREA(#647);
#647=FILL_AREA_STYLE('',(#648));
#648=FILL_AREA_STYLE_COLOUR('',#649);
#649=COLOUR_RGB('',0.745098039215686,0.737254901960784,0.729411764705882);
ENDSEC;
END-ISO-10303-21;
