ISO-10303-21;
HEADER;
/* Generated by software containing ST-Developer
 * from STEP Tools, Inc. (www.steptools.com) 
 */

FILE_DESCRIPTION(
/* description */ ('IDLER SHAFT',
'CAx-IF Rec.Pracs.---Representation and Presentation of Product Manufa
cturing Information (PMI)---4.0---2014-10-13'),
/* implementation_level */ '2;1');

FILE_NAME(
/* name */ 'OM_CAGE_BT-002.stp',
/* time_stamp */ '2026-01-05T16:30:00-06:00',
/* author */ ('marcus'),
/* organization */ (''),
/* preprocessor_version */ 'ST-DEVELOPER v20',
/* originating_system */ 'Autodesk Inventor 2025',
/* authorisation */ '');

FILE_SCHEMA (('AP242_MANAGED_MODEL_BASED_3D_ENGINEERING_MIM_LF { 1 0 10303 442 1 1 4 }'));
ENDSEC;

DATA;
#10=MECHANICAL_DESIGN_AND_DRAUGHTING_RELATIONSHIP('Isometric','',#51,#50);
#11=MECHANICAL_DESIGN_AND_DRAUGHTING_RELATIONSHIP('Front','',#52,#50);
#12=MECHANICAL_DESIGN_AND_DRAUGHTING_RELATIONSHIP('Top','',#53,#50);
#13=MECHANICAL_DESIGN_AND_DRAUGHTING_RELATIONSHIP('Right','',#54,#50);
#14=ADVANCED_BREP_SHAPE_REPRESENTATION('Isometric',(#66),#301);
#15=MECHANICAL_DESIGN_GEOMETRIC_PRESENTATION_REPRESENTATION('',(#64,#65),
#302);
#16=CAMERA_MODEL_D3('Isometric',#187,#20);
#17=CAMERA_MODEL_D3('Front',#189,#21);
#18=CAMERA_MODEL_D3('Top',#191,#22);
#19=CAMERA_MODEL_D3('Right',#193,#23);
#20=VIEW_VOLUME(.PARALLEL.,#285,0.424856115107914,0.,.F.,0.,.F.,.F.,#24);
#21=VIEW_VOLUME(.PARALLEL.,#288,2.77199092178618,0.,.F.,0.,.F.,.F.,#25);
#22=VIEW_VOLUME(.PARALLEL.,#291,2.77199092178618,0.,.F.,0.,.F.,.F.,#26);
#23=VIEW_VOLUME(.PARALLEL.,#294,2.77199092178618,0.,.F.,0.,.F.,.F.,#27);
#24=PLANAR_BOX('view window',1.4477356997042,0.78740157480315,#188);
#25=PLANAR_BOX('view window',1.6505558756375,0.78740157480315,#190);
#26=PLANAR_BOX('view window',1.6505558756375,0.78740157480315,#192);
#27=PLANAR_BOX('view window',1.6505558756375,0.78740157480315,#194);
#28=PRODUCT_DEFINITION_CONTEXT_ASSOCIATION(#316,#315,#29);
#29=PRODUCT_DEFINITION_CONTEXT_ROLE('additional context','');
#30=ROLE_ASSOCIATION(#31,#32);
#31=OBJECT_ROLE('mandatory','');
#32=APPLIED_DOCUMENT_REFERENCE(#34,'',(#315));
#33=DOCUMENT_PRODUCT_EQUIVALENCE('equivalence','',#34,#318);
#34=DOCUMENT('','','',#35);
#35=DOCUMENT_TYPE('configuration controlled document version');
#36=GENERAL_PROPERTY_ASSOCIATION('','',#37,#164);
#37=GENERAL_PROPERTY('','semantic text','');
#38=DRAUGHTING_MODEL_ITEM_ASSOCIATION('','',#312,#50,#55);
#39=DRAUGHTING_MODEL_ITEM_ASSOCIATION(
'PMI representation to presentation link','',#164,#50,#55);
#40=MAPPED_ITEM('',#45,#186);
#41=MAPPED_ITEM('',#46,#195);
#42=MAPPED_ITEM('',#47,#196);
#43=MAPPED_ITEM('',#48,#197);
#44=MAPPED_ITEM('',#49,#198);
#45=REPRESENTATION_MAP(#186,#313);
#46=REPRESENTATION_MAP(#195,#14);
#47=REPRESENTATION_MAP(#196,#14);
#48=REPRESENTATION_MAP(#197,#14);
#49=REPRESENTATION_MAP(#198,#14);
#50=DRAUGHTING_MODEL('',(#40,#186,#62),#301);
#51=DRAUGHTING_MODEL('Isometric',(#41,#55,#16),#301);
#52=DRAUGHTING_MODEL('Front',(#42,#55,#17),#301);
#53=DRAUGHTING_MODEL('Top',(#43,#55,#18),#301);
#54=DRAUGHTING_MODEL('Right',(#44,#55,#19),#301);
#55=DRAUGHTING_CALLOUT('General Note 1',(#56));
#56=TESSELLATED_ANNOTATION_OCCURRENCE('general note 1',(#332),#57);
#57=TESSELLATED_GEOMETRIC_SET('general note',(#58,#59));
#58=COMPLEX_TRIANGULATED_SURFACE_SET('surface set',#60,636,(),(),(),((1,
2,10),(10,2,9),(9,2,3),(9,3,6),(6,3,4),(6,4,5),(7,8,6),(6,8,9),(11,12,14),
(14,12,13),(30,15,58),(58,15,16),(58,16,35),(35,16,17),(35,17,34),(34,17,
32),(34,32,33),(17,18,32),(32,18,31),(31,18,76),(76,18,19),(76,19,75),(75,
19,20),(75,20,74),(74,20,73),(73,20,21),(73,21,72),(72,21,71),(71,21,22),
(71,22,70),(70,22,69),(69,22,23),(69,23,68),(68,23,67),(67,23,66),(66,23,
24),(66,24,65),(65,24,64),(64,24,25),(64,25,63),(63,25,62),(62,25,26),(62,
26,61),(61,26,27),(61,27,60),(60,27,28),(60,28,59),(59,28,29),(59,29,30),
(59,30,58),(58,35,57),(57,35,36),(57,36,56),(56,36,37),(56,37,55),(55,37,
38),(55,38,39),(55,39,54),(54,39,40),(54,40,53),(53,40,41),(53,41,52),(52,
41,42),(52,42,51),(51,42,43),(51,43,50),(50,43,44),(50,44,49),(49,44,45),
(49,45,48),(48,45,46),(48,46,47),(78,102,77),(77,102,103),(77,103,109),
(109,103,104),(109,104,108),(108,104,105),(108,105,106),(79,100,78),(78,
100,101),(78,101,102),(100,79,99),(99,79,80),(99,80,98),(98,80,81),(98,
81,82),(82,83,98),(98,83,84),(98,84,97),(97,84,85),(97,85,96),(96,85,86),
(96,86,95),(95,86,92),(95,92,93),(92,86,89),(89,86,87),(89,87,88),(90,91,
89),(89,91,92),(93,94,95),(106,107,108),(110,111,113),(113,111,112),(115,
154,114),(114,154,137),(114,137,138),(116,151,115),(115,151,152),(115,152,
153),(151,116,150),(150,116,117),(150,117,149),(149,117,118),(149,118,148),
(148,118,147),(147,118,119),(147,119,146),(146,119,120),(146,120,145),(145,
120,121),(145,121,144),(144,121,122),(144,122,123),(144,123,143),(143,123,
124),(143,124,142),(142,124,125),(142,125,141),(141,125,140),(140,125,126),
(140,126,139),(139,126,127),(139,127,138),(138,127,114),(129,161,128),(128,
161,162),(128,162,172),(172,162,163),(172,163,171),(171,163,170),(170,163,
164),(170,164,169),(169,164,165),(169,165,168),(168,165,167),(167,165,166),
(161,129,160),(160,129,130),(160,130,159),(159,130,131),(159,131,158),(158,
131,132),(158,132,157),(157,132,133),(157,133,156),(156,133,134),(156,134,
155),(155,134,135),(155,135,154),(154,135,136),(154,136,137),(153,154,115),
(174,175,173),(173,175,202),(202,175,176),(202,176,201),(201,176,200),(200,
176,177),(200,177,199),(199,177,178),(199,178,198),(198,178,197),(197,178,
179),(197,179,196),(196,179,180),(196,180,195),(195,180,181),(195,181,194),
(194,181,182),(194,182,193),(193,182,183),(193,183,192),(192,183,184),(192,
184,191),(191,184,190),(190,184,185),(190,185,188),(188,185,187),(187,185,
186),(188,189,190),(204,242,203),(203,242,243),(203,243,244),(205,239,204),
(204,239,240),(204,240,242),(242,240,241),(239,205,265),(265,205,206),(265,
206,264),(264,206,207),(264,207,263),(263,207,208),(263,208,262),(262,208,
209),(262,209,261),(261,209,210),(261,210,260),(260,210,211),(260,211,259),
(259,211,212),(259,212,213),(259,213,258),(258,213,214),(258,214,257),(257,
214,256),(256,214,215),(256,215,255),(255,215,216),(255,216,254),(254,216,
217),(254,217,253),(253,217,252),(252,217,218),(252,218,251),(251,218,219),
(251,219,250),(250,219,220),(250,220,249),(249,220,221),(249,221,248),(248,
221,222),(248,222,247),(247,222,223),(247,223,246),(246,223,224),(246,224,
245),(245,224,225),(245,225,244),(244,225,203),(227,229,226),(226,229,230),
(226,230,275),(275,230,274),(274,230,231),(274,231,273),(273,231,272),(272,
231,232),(272,232,271),(271,232,233),(271,233,270),(270,233,234),(270,234,
269),(269,234,235),(269,235,268),(268,235,267),(267,235,236),(267,236,237),
(227,228,229),(267,237,266),(266,237,238),(266,238,239),(265,266,239),(277,
301,276),(276,301,302),(276,302,308),(308,302,303),(308,303,307),(307,303,
304),(307,304,305),(278,299,277),(277,299,300),(277,300,301),(299,278,298),
(298,278,279),(298,279,297),(297,279,280),(297,280,281),(281,282,297),(297,
282,283),(297,283,296),(296,283,284),(296,284,295),(295,284,285),(295,285,
294),(294,285,291),(294,291,292),(291,285,288),(288,285,286),(288,286,287),
(289,290,288),(288,290,291),(292,293,294),(305,306,307),(310,311,309),(309,
311,338),(338,311,312),(338,312,337),(337,312,336),(336,312,335),(335,312,
313),(335,313,334),(334,313,314),(334,314,333),(333,314,332),(332,314,315),
(332,315,316),(332,316,331),(331,316,317),(331,317,330),(330,317,318),(330,
318,329),(329,318,319),(329,319,328),(328,319,320),(328,320,327),(327,320,
326),(326,320,321),(326,321,324),(324,321,323),(323,321,322),(324,325,326),
(340,376,339),(339,376,377),(339,377,370),(370,377,378),(370,378,369),(369,
378,379),(369,379,368),(368,379,367),(367,379,380),(367,380,366),(366,380,
381),(366,381,365),(365,381,382),(365,382,364),(364,382,383),(364,383,363),
(363,383,384),(363,384,385),(376,340,375),(375,340,341),(375,341,374),(374,
341,373),(373,341,342),(373,342,372),(372,342,343),(372,343,371),(371,343,
344),(371,344,345),(371,345,402),(402,345,346),(402,346,401),(401,346,400),
(400,346,347),(400,347,399),(399,347,348),(399,348,398),(398,348,349),(398,
349,397),(397,349,350),(397,350,396),(396,350,351),(396,351,395),(395,351,
352),(395,352,353),(395,353,394),(394,353,354),(394,354,393),(393,354,355),
(393,355,392),(392,355,356),(392,356,391),(391,356,357),(391,357,390),(390,
357,389),(389,357,358),(389,358,388),(388,358,359),(388,359,387),(387,359,
360),(387,360,361),(387,361,386),(386,361,362),(386,362,385),(385,362,363),
(403,404,406),(406,404,405),(408,444,407),(407,444,445),(407,445,438),(438,
445,446),(438,446,437),(437,446,447),(437,447,436),(436,447,435),(435,447,
448),(435,448,434),(434,448,449),(434,449,433),(433,449,450),(433,450,432),
(432,450,451),(432,451,431),(431,451,452),(431,452,453),(444,408,443),(443,
408,409),(443,409,442),(442,409,441),(441,409,410),(441,410,440),(440,410,
411),(440,411,439),(439,411,412),(439,412,413),(439,413,470),(470,413,414),
(470,414,469),(469,414,468),(468,414,415),(468,415,467),(467,415,416),(467,
416,466),(466,416,417),(466,417,465),(465,417,418),(465,418,464),(464,418,
419),(464,419,463),(463,419,420),(463,420,421),(463,421,462),(462,421,422),
(462,422,461),(461,422,423),(461,423,460),(460,423,424),(460,424,459),(459,
424,425),(459,425,458),(458,425,457),(457,425,426),(457,426,456),(456,426,
427),(456,427,455),(455,427,428),(455,428,429),(455,429,454),(454,429,430),
(454,430,453),(453,430,431),(472,508,471),(471,508,509),(471,509,502),(502,
509,510),(502,510,501),(501,510,511),(501,511,500),(500,511,499),(499,511,
512),(499,512,498),(498,512,513),(498,513,497),(497,513,514),(497,514,496),
(496,514,515),(496,515,495),(495,515,516),(495,516,517),(508,472,507),(507,
472,473),(507,473,506),(506,473,505),(505,473,474),(505,474,504),(504,474,
475),(504,475,503),(503,475,476),(503,476,477),(503,477,534),(534,477,478),
(534,478,533),(533,478,532),(532,478,479),(532,479,531),(531,479,480),(531,
480,530),(530,480,481),(530,481,529),(529,481,482),(529,482,528),(528,482,
483),(528,483,527),(527,483,484),(527,484,485),(527,485,526),(526,485,486),
(526,486,525),(525,486,487),(525,487,524),(524,487,488),(524,488,523),(523,
488,489),(523,489,522),(522,489,521),(521,489,490),(521,490,520),(520,490,
491),(520,491,519),(519,491,492),(519,492,493),(519,493,518),(518,493,494),
(518,494,517),(517,494,495),(536,572,535),(535,572,573),(535,573,566),(566,
573,574),(566,574,565),(565,574,575),(565,575,564),(564,575,563),(563,575,
576),(563,576,562),(562,576,577),(562,577,561),(561,577,578),(561,578,560),
(560,578,579),(560,579,559),(559,579,580),(559,580,581),(572,536,571),(571,
536,537),(571,537,570),(570,537,569),(569,537,538),(569,538,568),(568,538,
539),(568,539,567),(567,539,540),(567,540,541),(567,541,598),(598,541,542),
(598,542,597),(597,542,596),(596,542,543),(596,543,595),(595,543,544),(595,
544,594),(594,544,545),(594,545,593),(593,545,546),(593,546,592),(592,546,
547),(592,547,591),(591,547,548),(591,548,549),(591,549,590),(590,549,550),
(590,550,589),(589,550,551),(589,551,588),(588,551,552),(588,552,587),(587,
552,553),(587,553,586),(586,553,585),(585,553,554),(585,554,584),(584,554,
555),(584,555,583),(583,555,556),(583,556,557),(583,557,582),(582,557,558),
(582,558,581),(581,558,559),(599,600,602),(602,600,601),(603,604,606),(606,
604,605),(608,609,607),(607,609,636),(636,609,610),(636,610,635),(635,610,
634),(634,610,611),(634,611,633),(633,611,612),(633,612,632),(632,612,631),
(631,612,613),(631,613,630),(630,613,614),(630,614,629),(629,614,615),(629,
615,628),(628,615,616),(628,616,627),(627,616,617),(627,617,626),(626,617,
618),(626,618,625),(625,618,624),(624,618,619),(624,619,622),(622,619,621),
(621,619,620),(622,623,624)));
#59=COMPLEX_TRIANGULATED_SURFACE_SET('surface set',#61,543,(),(),(),((1,
2,10),(10,2,9),(9,2,3),(9,3,6),(6,3,4),(6,4,5),(7,8,6),(6,8,9),(11,12,14),
(14,12,13),(30,15,58),(58,15,16),(58,16,35),(35,16,17),(35,17,34),(34,17,
32),(34,32,33),(17,18,32),(32,18,31),(31,18,76),(76,18,19),(76,19,75),(75,
19,20),(75,20,74),(74,20,73),(73,20,21),(73,21,72),(72,21,71),(71,21,22),
(71,22,70),(70,22,69),(69,22,23),(69,23,68),(68,23,67),(67,23,66),(66,23,
24),(66,24,65),(65,24,64),(64,24,25),(64,25,63),(63,25,62),(62,25,26),(62,
26,61),(61,26,27),(61,27,60),(60,27,28),(60,28,59),(59,28,29),(59,29,30),
(59,30,58),(58,35,57),(57,35,36),(57,36,56),(56,36,37),(56,37,55),(55,37,
38),(55,38,39),(55,39,54),(54,39,40),(54,40,53),(53,40,41),(53,41,52),(52,
41,42),(52,42,51),(51,42,43),(51,43,50),(50,43,44),(50,44,49),(49,44,45),
(49,45,48),(48,45,46),(48,46,47),(78,102,77),(77,102,103),(77,103,109),
(109,103,104),(109,104,108),(108,104,105),(108,105,106),(79,100,78),(78,
100,101),(78,101,102),(100,79,99),(99,79,80),(99,80,98),(98,80,81),(98,
81,82),(82,83,98),(98,83,84),(98,84,97),(97,84,85),(97,85,96),(96,85,86),
(96,86,95),(95,86,92),(95,92,93),(92,86,89),(89,86,87),(89,87,88),(90,91,
89),(89,91,92),(93,94,95),(106,107,108),(122,110,121),(121,110,111),(121,
111,112),(112,113,121),(121,113,120),(120,113,119),(119,113,118),(118,113,
114),(118,114,115),(115,116,118),(118,116,117),(123,124,126),(126,124,125),
(127,128,130),(130,128,129),(132,157,131),(131,157,158),(131,158,154),(154,
158,159),(154,159,153),(153,159,160),(153,160,152),(152,160,161),(152,161,
151),(151,161,162),(151,162,150),(150,162,163),(150,163,149),(149,163,164),
(149,164,148),(148,164,165),(148,165,147),(147,165,166),(147,166,146),(146,
166,167),(146,167,145),(145,167,168),(145,168,144),(144,168,169),(144,169,
170),(157,132,155),(155,132,133),(155,133,182),(182,133,180),(182,180,181),
(133,134,180),(180,134,179),(179,134,135),(179,135,178),(178,135,136),(178,
136,177),(177,136,137),(177,137,176),(176,137,138),(176,138,175),(175,138,
139),(175,139,174),(174,139,140),(174,140,173),(173,140,141),(173,141,172),
(172,141,142),(172,142,171),(171,142,143),(171,143,170),(170,143,144),(155,
156,157),(184,208,183),(183,208,209),(183,209,215),(215,209,210),(215,210,
214),(214,210,211),(214,211,212),(185,206,184),(184,206,207),(184,207,208),
(206,185,205),(205,185,186),(205,186,204),(204,186,187),(204,187,188),(188,
189,204),(204,189,190),(204,190,203),(203,190,191),(203,191,202),(202,191,
192),(202,192,201),(201,192,198),(201,198,199),(198,192,195),(195,192,193),
(195,193,194),(196,197,195),(195,197,198),(199,200,201),(212,213,214),(217,
218,216),(216,218,245),(245,218,219),(245,219,244),(244,219,243),(243,219,
242),(242,219,220),(242,220,241),(241,220,221),(241,221,240),(240,221,239),
(239,221,222),(239,222,223),(239,223,238),(238,223,224),(238,224,237),(237,
224,225),(237,225,236),(236,225,226),(236,226,235),(235,226,227),(235,227,
234),(234,227,233),(233,227,228),(233,228,231),(231,228,230),(230,228,229),
(231,232,233),(247,283,246),(246,283,284),(246,284,277),(277,284,285),(277,
285,276),(276,285,286),(276,286,275),(275,286,274),(274,286,287),(274,287,
273),(273,287,288),(273,288,272),(272,288,289),(272,289,271),(271,289,290),
(271,290,270),(270,290,291),(270,291,292),(283,247,282),(282,247,248),(282,
248,281),(281,248,280),(280,248,249),(280,249,279),(279,249,250),(279,250,
278),(278,250,251),(278,251,252),(278,252,309),(309,252,253),(309,253,308),
(308,253,307),(307,253,254),(307,254,306),(306,254,255),(306,255,305),(305,
255,256),(305,256,304),(304,256,257),(304,257,303),(303,257,258),(303,258,
302),(302,258,259),(302,259,260),(302,260,301),(301,260,261),(301,261,300),
(300,261,262),(300,262,299),(299,262,263),(299,263,298),(298,263,264),(298,
264,297),(297,264,296),(296,264,265),(296,265,295),(295,265,266),(295,266,
294),(294,266,267),(294,267,268),(294,268,293),(293,268,269),(293,269,292),
(292,269,270),(310,311,313),(313,311,312),(315,351,314),(314,351,352),(314,
352,345),(345,352,353),(345,353,344),(344,353,354),(344,354,343),(343,354,
342),(342,354,355),(342,355,341),(341,355,356),(341,356,340),(340,356,357),
(340,357,339),(339,357,358),(339,358,338),(338,358,359),(338,359,360),(351,
315,350),(350,315,316),(350,316,349),(349,316,348),(348,316,317),(348,317,
347),(347,317,318),(347,318,346),(346,318,319),(346,319,320),(346,320,377),
(377,320,321),(377,321,376),(376,321,375),(375,321,322),(375,322,374),(374,
322,323),(374,323,373),(373,323,324),(373,324,372),(372,324,325),(372,325,
371),(371,325,326),(371,326,370),(370,326,327),(370,327,328),(370,328,369),
(369,328,329),(369,329,368),(368,329,330),(368,330,367),(367,330,331),(367,
331,366),(366,331,332),(366,332,365),(365,332,364),(364,332,333),(364,333,
363),(363,333,334),(363,334,362),(362,334,335),(362,335,336),(362,336,361),
(361,336,337),(361,337,360),(360,337,338),(379,415,378),(378,415,416),(378,
416,409),(409,416,417),(409,417,408),(408,417,418),(408,418,407),(407,418,
406),(406,418,419),(406,419,405),(405,419,420),(405,420,404),(404,420,421),
(404,421,403),(403,421,422),(403,422,402),(402,422,423),(402,423,424),(415,
379,414),(414,379,380),(414,380,413),(413,380,412),(412,380,381),(412,381,
411),(411,381,382),(411,382,410),(410,382,383),(410,383,384),(410,384,441),
(441,384,385),(441,385,440),(440,385,439),(439,385,386),(439,386,438),(438,
386,387),(438,387,437),(437,387,388),(437,388,436),(436,388,389),(436,389,
435),(435,389,390),(435,390,434),(434,390,391),(434,391,392),(434,392,433),
(433,392,393),(433,393,432),(432,393,394),(432,394,431),(431,394,395),(431,
395,430),(430,395,396),(430,396,429),(429,396,428),(428,396,397),(428,397,
427),(427,397,398),(427,398,426),(426,398,399),(426,399,400),(426,400,425),
(425,400,401),(425,401,424),(424,401,402),(443,479,442),(442,479,480),(442,
480,473),(473,480,481),(473,481,472),(472,481,482),(472,482,471),(471,482,
470),(470,482,483),(470,483,469),(469,483,484),(469,484,468),(468,484,485),
(468,485,467),(467,485,486),(467,486,466),(466,486,487),(466,487,488),(479,
443,478),(478,443,444),(478,444,477),(477,444,476),(476,444,445),(476,445,
475),(475,445,446),(475,446,474),(474,446,447),(474,447,448),(474,448,505),
(505,448,449),(505,449,504),(504,449,503),(503,449,450),(503,450,502),(502,
450,451),(502,451,501),(501,451,452),(501,452,500),(500,452,453),(500,453,
499),(499,453,454),(499,454,498),(498,454,455),(498,455,456),(498,456,497),
(497,456,457),(497,457,496),(496,457,458),(496,458,495),(495,458,459),(495,
459,494),(494,459,460),(494,460,493),(493,460,492),(492,460,461),(492,461,
491),(491,461,462),(491,462,490),(490,462,463),(490,463,464),(490,464,489),
(489,464,465),(489,465,488),(488,465,466),(506,507,509),(509,507,508),(510,
511,513),(513,511,512),(515,516,514),(514,516,543),(543,516,517),(543,517,
542),(542,517,541),(541,517,518),(541,518,540),(540,518,519),(540,519,539),
(539,519,538),(538,519,520),(538,520,537),(537,520,521),(537,521,536),(536,
521,522),(536,522,535),(535,522,523),(535,523,534),(534,523,524),(534,524,
533),(533,524,525),(533,525,532),(532,525,531),(531,525,526),(531,526,529),
(529,526,528),(528,526,527),(529,530,531)));
#60=COORDINATES_LIST('coordinates',636,((2.22873852645094,-4.05121901823546,
-4.42527243386847),(2.2070062232649,-4.05121901823546,-4.40354013068243),
(2.21461320685534,-4.06643298541634,-4.39593314709199),(2.23543684231235,
-4.06643298541634,-4.416756782549),(2.23862827795661,-4.07281585670486,
-4.41356534690474),(2.2178046424996,-4.07281585670486,-4.39274171144773),
(2.23078897655914,-4.09878452482394,-4.37975737738819),(2.22457974707742,
-4.09878452482394,-4.37354814790646),(2.19760555813891,-4.04483614694693,
-4.40052233684497),(2.22554709080668,-4.04483614694693,-4.42846386951274),
(2.26365245942584,-4.09878452482394,-4.41262086025489),(2.25774611918712,
-4.09878452482394,-4.40671452001617),(2.22956967709496,-4.04243164063961,
-4.43489096210834),(2.23547601733367,-4.04243164063961,-4.44079730234705),
(2.2789957703436,-4.07783799601493,-4.44891069998166),(2.28125733328078,
-4.07758115102301,-4.45142910791075),(2.28687513438061,-4.08881675322268,
-4.44581130681092),(2.28435062811595,-4.09224863949768,-4.43985491427127),
(2.28247233241577,-4.09328148425241,-4.43694377381634),(2.28000365762072,
-4.09362576583732,-4.43413081743638),(2.27691435122494,-4.0931831180853,
-4.43148415879264),(2.27415855076235,-4.09185517482921,-4.43005630158614),
(2.27177958217539,-4.08965286564318,-4.4298796421852),(2.26982077140649,
-4.08658712010135,-4.43098657695813),(2.26884065123268,-4.08386019135736,
-4.43273338552831),(2.26896057146603,-4.08179996663495,-4.43491353048407),
(2.26994604374789,-4.08029715019287,-4.437401819208),(2.27156257971958,
-4.07924244628989,-4.44007305908268),(2.27355861708411,-4.07862492535187,
-4.44268661738523),(2.27623293945175,-4.07817134802572,-4.44581451707902),
(2.28863841151039,-4.09620514533063,-4.44018619183275),(2.2897168236529,
-4.09450013176726,-4.44296961753863),(2.29185902018124,-4.09878452482394,
-4.44082742101029),(2.29776536041996,-4.09878452482394,-4.446733761249),
(2.28392851957873,-4.07111084314149,-4.46057060209023),(2.28193495831716,
-4.06759698506056,-4.46209089890959),(2.27975776632768,-4.06466239440822,
-4.46284829757246),(2.2773656191732,-4.06226335288796,-4.46285519193823),
(2.27472719241661,-4.06035614220329,-4.46212397586632),(2.27190927904545,
-4.05891343841889,-4.46074876627955),(2.26909811265448,-4.05799535419246,
-4.45885568411501),(2.26608360024978,-4.05750352335687,-4.4563330025459),
(2.26265564883747,-4.05733957974501,-4.45306899474545),(2.25694468177866,
-4.05799535419246,-4.44670225323919),(2.25456329996505,-4.05861833991754,
-4.4436978857005),(2.25285902609238,-4.05917574819787,-4.4414362035475),
(2.25633463066388,-4.06612695734086,-4.43796059897601),(2.25667538106226,
-4.06612695734086,-4.43830134937439),(2.26117572977954,-4.06407219740551,
-4.44485645802702),(2.263497443855,-4.06354757784755,-4.44770279166044),
(2.26563435014037,-4.06337270466156,-4.45001457113179),(2.26913514785835,
-4.06363501444054,-4.4532530590708),(2.27244549090704,-4.06472797185296,
-4.45547044470707),(2.27394810739806,-4.0657170983112,-4.45598393473984),
(2.27535363991508,-4.06702318241904,-4.45608338314903),(2.27666648131396,
-4.06871180162123,-4.45570760534572),(2.27789102445052,-4.07084853336251,
-4.45479541674101),(2.27854679889798,-4.07216008225741,-4.45413964229355),
(2.27032470685588,-4.0730563073356,-4.44502132517327),(2.26699450868387,
-4.0738924197561,-4.44085501458076),(2.26444028210492,-4.07522036301219,
-4.43697284474572),(2.26256908725838,-4.07724233422516,-4.43307967868621),
(2.26191405250163,-4.07989822073734,-4.42976875741728),(2.2624034560257,
-4.0831770929746,-4.4269792887041),(2.26396557602162,-4.08706802136281,
-4.4246504803118),(2.26550102348964,-4.08971297830086,-4.42354097084177),
(2.2673968315109,-4.09222678034943,-4.42292297681446),(2.2695117003299,
-4.09447827261901,-4.42278635336388),(2.27170433019114,-4.09633630022012,
-4.42312095562401),(2.27405610436947,-4.09785004623633,-4.42395898378614),
(2.27645324322173,-4.09898125715818,-4.42522491171654),(2.27880763057776,
-4.09968621468919,-4.42687434154156),(2.28103115026741,-4.09992120053286,
-4.42886287538754),(2.28332042949395,-4.09979551043043,-4.43127784471651),
(2.28488770542089,-4.09941844012315,-4.43322219095073),(2.28716538580699,
-4.0979538771905,-4.43696443426948),(2.31705154162124,-4.09957145416088,
-4.46523301311335),(2.31467963987205,-4.09937335562988,-4.46305920989516),
(2.31237230135729,-4.09877906003688,-4.4613461669734),(2.31012952607694,
-4.09778856738188,-4.46009388434806),(2.30795131403102,-4.09640187766487,
-4.45930236201914),(2.30585913201371,-4.09458620216349,-4.45902585550322),
(2.30387444681921,-4.09230875215536,-4.45931862031684),(2.30199725844751,
-4.08956952764049,-4.46018065646001),(2.30022756689861,-4.08636852861886,
-4.46161196393274),(2.28901382384719,-4.06394104251602,-4.47282570698416),
(2.28503840253267,-4.06394104251602,-4.46885028566964),(2.28221857240863,
-4.05830138226794,-4.47167011579368),(2.28619399372315,-4.05830138226794,
-4.4756455371082),(2.28037946028908,-4.0466723153998,-4.48146007054227),
(2.28628580052779,-4.0466723153998,-4.48736641078098),(2.29210033396186,
-4.05830138226794,-4.48155187734691),(2.30296648555488,-4.05830138226794,
-4.49241802893993),(2.30578631567892,-4.06394104251602,-4.48959819881589),
(2.2949201640859,-4.06394104251602,-4.47873204722287),(2.30456004846344,
-4.08322081127109,-4.46909216284533),(2.30594171127048,-4.08593681044096,
-4.46775782648251),(2.30702641893683,-4.08796424644099,-4.46681509814883),
(2.30932764056643,-4.09109010464051,-4.46599046157891),(2.31057801518327,
-4.09219945641412,-4.46613148442214),(2.31200119608486,-4.09299185053812,
-4.46676227119973),(2.31364450971541,-4.09346728701252,-4.46793014835587),
(2.31555528251914,-4.09362576583732,-4.46968244233481),(2.31808669723445,
-4.09312300542761,-4.47271661745983),(2.31901940645477,-4.09266942810146,
-4.4741029040063),(2.31963215249373,-4.09231421694242,-4.4750708612043),
(2.31997290289212,-4.09231421694242,-4.47541161160269),(2.3230331836469,
-4.09843477845197,-4.47235133084792),(2.32007886463512,-4.09926542608541,
-4.4685663642027),(2.35364842575549,-4.09878452482394,-4.50261682658454),
(2.34774208551678,-4.09878452482394,-4.49671048634583),(2.31956564342461,
-4.04243164063961,-4.52488692843799),(2.32547198366333,-4.04243164063961,
-4.5307932686767),(2.35350530103348,-4.07403996900677,-4.52721825767969),
(2.37201940601253,-4.07403996900677,-4.54573236265874),(2.3705553405649,
-4.07147151908759,-4.5468367471303),(2.36906884152281,-4.06927467468863,
-4.54754709248717),(2.36594696320338,-4.06590836585838,-4.547791522998),
(2.36410309882897,-4.06455856345404,-4.54729746102792),(2.36214614847343,
-4.0635694369958,-4.54632963713063),(2.36003971526669,-4.06296284563191,
-4.54482979528777),(2.35774740233863,-4.06276064851061,-4.54273967948101),
(2.35567621710956,-4.06296284563191,-4.54046629713064),(2.35415744468902,
-4.0635694369958,-4.53834093334621),(2.35233880641613,-4.06595208415487,
-4.53413964791425),(2.35211368576343,-4.06951512531936,-4.53035148609706),
(2.35260720523108,-4.07161906833826,-4.5287410625458),(2.3779978569112,
-4.09970260905038,-4.52604817351382),(2.37386180938822,-4.09936242605576,
-4.52225230898545),(2.36985884331283,-4.09834187707191,-4.5192698918939),
(2.36598895868502,-4.09664096209884,-4.51710092223917),(2.36225215550481,
-4.09425968113653,-4.51574540002127),(2.35872645059937,-4.09124994966208,
-4.51522942659028),(2.35548986079589,-4.08766368315258,-4.5155791032963),
(2.35254238609438,-4.08350088160803,-4.51679443013935),(2.34988402649484,
-4.07876154502843,-4.5188754071194),(2.3478200420272,-4.07407275772915,
-4.52150020995105),(2.34656825612844,-4.06988673083958,-4.52443445094185),
(2.34612866879854,-4.06620346435973,-4.52767813009181),(2.34650128003752,
-4.06302295828959,-4.53123124740092),(2.34763461928781,-4.06045997315747,
-4.53492757178333),(2.34947721599185,-4.05862926949166,-4.53860087215318),
(2.35202907014966,-4.05753084729218,-4.54225114851047),(2.35529018176122,
-4.05716470655902,-4.54587840085519),(2.35849828766769,-4.05743794591213,
-4.54881326740855),(2.36161048666233,-4.05825766397144,-4.55110574834388),
(2.36466210368404,-4.05965664945934,-4.55275837987769),(2.36768846367168,
-4.06166769109819,-4.55377369822648),(2.37064604450578,-4.06424160580444,
-4.55415736435434),(2.37341560175614,-4.06732921049452,-4.55383931691461),
(2.37602885221389,-4.07105073048381,-4.55273104738307),(2.37851751267018,
-4.07552639108766,-4.55074404723551),(2.38037554027129,-4.07924244628989,
-4.5488860196344),(2.35610653967504,-4.07924244628989,-4.52461701903814),
(2.35795472535233,-4.08255547344628,-4.52315217755903),(2.35997995951621,
-4.08545590917949,-4.52227697598971),(2.36218224216668,-4.08794375348951,
-4.52199141433016),(2.36456157330375,-4.09001900637634,-4.5222954925804),
(2.36706169715995,-4.09165434390467,-4.52316027890827),(2.36962635796784,
-4.0928224421392,-4.52455684148163),(2.37225555572741,-4.09352330107991,
-4.52648518030049),(2.37494929043867,-4.09375692072681,-4.52894529536485),
(2.37850295634914,-4.0932541603171,-4.53300172168503),(2.381246684882,-4.09196447057045,
-4.53703513996454),(2.38311510885441,-4.09032503445182,-4.54054300005558),
(2.38420016284615,-4.08886047151918,-4.54309261697997),(2.38454091324454,
-4.08886047151918,-4.54343336737835),(2.38825696844677,-4.09629258192363,
-4.53971731217613),(2.38627260688388,-4.09747297592904,-4.53655255660783),
(2.38405522124761,-4.09856593334146,-4.53324221355914),(2.38137685989759,
-4.09941844012315,-4.52971134542744),(2.37990272000834,-4.09963156681857,
-4.52802407884276),(2.42365370204642,-4.09878452482394,-4.57262210287546),
(2.4177473618077,-4.09878452482394,-4.56671576263675),(2.40620573153256,
-4.07570126427365,-4.5782573929119),(2.40337732595874,-4.07049878699054,
-4.5806314646212),(2.40195454772206,-4.06833473131395,-4.5813727420611),
(2.40054505318385,-4.06665157689882,-4.58164640193802),(2.39901700787746,
-4.06531816885567,-4.58145176467478),(2.39740173623999,-4.06437822548099,
-4.58077643641199),(2.39560858588476,-4.06382081720065,-4.5795406943371),
(2.39354690442514,-4.06363501444054,-4.57766481563758),(2.39148723730128,
-4.06397383123839,-4.57526633171587),(2.38970012995336,-4.06499028163194,
-4.57246277397441),(2.38690845173862,-4.06853146364818,-4.56612991374343),
(2.4020349823265,-4.09878452482394,-4.55100338315555),(2.39612864208779,
-4.09878452482394,-4.54509704291684),(2.37588707080979,-4.05830138226794,
-4.56533861419484),(2.3817934110485,-4.05830138226794,-4.57124495443355),
(2.38404490331809,-4.06280436680711,-4.56899346216397),(2.38545833824454,
-4.06037800135153,-4.57283326254599),(2.38715233395049,-4.05860741034342,
-4.57629784926007),(2.38924740297443,-4.05752538250512,-4.5794749461223),
(2.39186405785481,-4.05716470655902,-4.58245227694877),(2.39442196111885,
-4.05741062197682,-4.58476426479502),(2.39694655377978,-4.0581483682302,
-4.58655111120257),(2.39943783583761,-4.05937794531917,-4.58781281617143),
(2.40189580729233,-4.06109935324373,-4.58854937970159),(2.40426557857326,
-4.0632880004621,-4.58873050376415),(2.4064922601097,-4.0659192954325,-4.58832589033019),
(2.40857585190166,-4.06899323815493,-4.58733553939972),(2.41051635394914,
-4.07250982862939,-4.58575945097274),(2.43145763523913,-4.06380988762653,
-4.61540067326559),(2.43638314479434,-4.0655586194864,-4.61857745096093),
(2.44750945125277,-4.08781123240326,-4.6074511445025),(2.4462915959941,
-4.08948345724426,-4.60456106440283),(2.44461998131712,-4.09074035826854,
-4.60163254870158),(2.44261872790804,-4.09152728760548,-4.59884436595555),
(2.44041195645304,-4.09178959738446,-4.59637528472157),(2.43825865838419,
-4.09156963970521,-4.59444194433198),(2.43619065820132,-4.09090976666746,
-4.59303381718685),(2.43420795590443,-4.08980997827122,-4.5921509032862),
(2.4323105514935,-4.08827027451647,-4.59179320263002),(2.43047724615716,
-4.08630978215794,-4.59192038965221),(2.42868684108403,-4.08394762795035,
-4.59249213878667),(2.4269393362741,-4.0811838118937,-4.59350845003339),
(2.42523473172737,-4.07801833398798,-4.59496932339238),(2.42371795200966,
-4.07466295473185,-4.59680792293079),(2.422730654021,-4.07172289929245,
-4.59876068038155),(2.42227283776141,-4.06919816766976,-4.60082759574464),
(2.42234450323087,-4.06708875986379,-4.60300866902007),(2.42291808479401,
-4.06542473220338,-4.60524627824362),(2.42396601681546,-4.06423614101737,
-4.60748280145108),(2.42548829929521,-4.06352298630577,-4.60971823864243),
(2.42748493223327,-4.06328526806857,-4.61195258981769),(2.4385838755355,
-4.10604176204241,-4.58029503914608),(2.43642986714203,-4.10525483270546,
-4.57892796008955),(2.43612697789901,-4.10525483270546,-4.57862507084654),
(2.43966815991525,-4.11233719673794,-4.5750838888303),(2.44529974772414,
-4.11360502733635,-4.57944764604078),(2.45080289895219,-4.11408592859781,
-4.58446989600737),(2.45439022324029,-4.1137853653094,-4.58835778358389),
(2.45716349232019,-4.11288367544415,-4.59203274252903),(2.45912270619188,
-4.11138085900207,-4.59549477284279),(2.46026786485536,-4.10927691598317,
-4.59874387452518),(2.46059130709565,-4.10652812809093,-4.60181610465771),
(2.46008537169777,-4.10309077702887,-4.60474752032189),(2.45875005866172,
-4.09896486279699,-4.60753812151772),(2.4565853679875,-4.09415038539529,
-4.6101879082452),(2.43866086642382,-4.05830138226794,-4.62811240980888),
(2.4330952765835,-4.05830138226794,-4.62254681996855),(2.4336070329668,
-4.06000639583131,-4.62135356278847),(2.42856344195866,-4.05790791759947,
-4.61840845001219),(2.42611245402878,-4.05735050931913,-4.61651487036264),
(2.42347812259408,-4.05716470655902,-4.61406634168805),(2.42082087416479,
-4.05751991771806,-4.61105388209973),(2.41860402449414,-4.05858555119517,
-4.60777139895196),(2.41693676419241,-4.0602960295456,-4.60439366029979),
(2.41592828386988,-4.06258577532462,-4.60109543419825),(2.41560649599297,
-4.06562419693115,-4.59773522471481),(2.41597588446358,-4.06923095639213,
-4.59449785372444),(2.417140567459,-4.07340605370757,-4.59148743940442),
(2.41920466315652,-4.07814948887747,-4.58880809993204),(2.42169994879946,
-4.0826975579099,-4.58675531654256),(2.42435493396541,-4.0866800214814,
-4.585427838137),(2.42716961865435,-4.09009687959198,-4.58482566471536),
(2.43014400286629,-4.09294813224162,-4.58494879627765),(2.43319033650239,
-4.09519552592091,-4.58574773623447),(2.43622086946381,-4.0968008071204,
-4.5871729879964),(2.43923560175056,-4.0977639758401,-4.58922455156345),
(2.44223453336263,-4.09808503207999,-4.59190242693563),(2.44524912272852,
-4.09780086315277,-4.59520118522875),(2.4474021605477,-4.09694835637108,
-4.59820672982961),(2.44898960699082,-4.09549472301256,-4.60124780963125),
(2.45030742222856,-4.09340717435484,-4.60465317352671),(2.45207801323668,
-4.09694835637108,-4.60288258251859),(2.45389917465244,-4.1013857634655,
-4.60026633683993),(2.45426080708796,-4.1032164671313,-4.59879726560965),
(2.45419532446332,-4.1048176497405,-4.59713060037582),(2.45358821499273,
-4.10614012820952,-4.59520101243619),(2.45240068920113,-4.10713471945483,
-4.59301889539929),(2.45061088794028,-4.1077577051799,-4.59060610841337),
(2.44819695206193,-4.10796536708826,-4.58798451062666),(2.44504490574589,
-4.10768119816103,-4.58511663323785),(2.44165240879912,-4.10691612797234,
-4.58248920647977),(2.47845364699074,-4.09957145416088,-4.62663511848285),
(2.47608174524156,-4.09937335562988,-4.62446131526466),(2.47377440672679,
-4.09877906003688,-4.6227482723429),(2.47153163144645,-4.09778856738188,
-4.62149598971756),(2.46935341940053,-4.09640187766487,-4.62070446738865),
(2.46726123738322,-4.09458620216349,-4.62042796087272),(2.46527655218871,
-4.09230875215536,-4.62072072568634),(2.46339936381701,-4.08956952764048,
-4.62158276182952),(2.46162967226811,-4.08636852861886,-4.62301406930224),
(2.45041592921669,-4.06394104251602,-4.63422781235366),(2.44644050790217,
-4.06394104251602,-4.63025239103914),(2.44362067777813,-4.05830138226794,
-4.63307222116318),(2.44759609909265,-4.05830138226794,-4.6370476424777),
(2.44178156565858,-4.0466723153998,-4.64286217591177),(2.44768790589729,
-4.0466723153998,-4.64876851615049),(2.45350243933136,-4.05830138226794,
-4.64295398271642),(2.46436859092438,-4.05830138226794,-4.65382013430944),
(2.46718842104843,-4.06394104251602,-4.6510003041854),(2.45632226945541,
-4.06394104251602,-4.64013415259237),(2.46596215383294,-4.08322081127109,
-4.63049426821484),(2.46734381663998,-4.08593681044096,-4.62915993185202),
(2.46842852430633,-4.08796424644099,-4.62821720351833),(2.47072974593593,
-4.09109010464051,-4.62739256694841),(2.47198012055278,-4.09219945641412,
-4.62753358979165),(2.47340330145436,-4.09299185053812,-4.62816437656923),
(2.47504661508491,-4.09346728701252,-4.62933225372538),(2.47695738788864,
-4.09362576583732,-4.63108454770431),(2.47948880260395,-4.09312300542761,
-4.63411872282933),(2.48042151182428,-4.09266942810146,-4.63550500937581),
(2.48103425786324,-4.09231421694242,-4.63647296657381),(2.48137500826163,
-4.09231421694242,-4.6368137169722),(2.4844352890164,-4.09843477845197,
-4.63375343621742),(2.48148097000462,-4.09926542608541,-4.62996846957221),
(2.5164892550293,-4.09878452482394,-4.66545765585835),(2.51058291479058,
-4.09878452482394,-4.65955131561963),(2.49904128451544,-4.07570126427365,
-4.67109294589478),(2.49621287894162,-4.07049878699054,-4.67346701760408),
(2.49479010070494,-4.06833473131395,-4.67420829504398),(2.49338060616673,
-4.06665157689882,-4.6744819549209),(2.49185256086034,-4.06531816885567,
-4.67428731765766),(2.49023728922287,-4.06437822548099,-4.67361198939487),
(2.48844413886764,-4.06382081720065,-4.67237624731998),(2.48638245740802,
-4.06363501444054,-4.67050036862046),(2.48432279028416,-4.06397383123839,
-4.66810188469876),(2.48253568293624,-4.06499028163194,-4.66529832695729),
(2.47974400472151,-4.06853146364818,-4.65896546672631),(2.49487053530939,
-4.09878452482394,-4.64383893613843),(2.48896419507067,-4.09878452482394,
-4.63793259589972),(2.46078775297851,-4.04243164063961,-4.66610903799188),
(2.46669409321722,-4.04243164063961,-4.6720153782306),(2.47688045630097,
-4.06280436680711,-4.66182901514685),(2.47829389122742,-4.06037800135153,
-4.66566881552887),(2.47998788693337,-4.05860741034342,-4.66913340224295),
(2.48208295595731,-4.05752538250512,-4.67231049910518),(2.48469961083769,
-4.05716470655902,-4.67528782993166),(2.48725751410173,-4.05741062197682,
-4.6775998177779),(2.48978210676266,-4.0581483682302,-4.67938666418545),
(2.49227338882049,-4.05937794531917,-4.68064836915431),(2.49473136027521,
-4.06109935324373,-4.68138493268447),(2.49710113155614,-4.0632880004621,
-4.68156605674703),(2.49932781309258,-4.0659192954325,-4.68116144331307),
(2.50141140488454,-4.06899323815493,-4.6801710923826),(2.50335190693202,
-4.07250982862939,-4.67859500395562),(2.55987133853371,-4.09073489348148,
-4.71688937070523),(2.55975920149396,-4.08824841536822,-4.71926371177872),
(2.55902160916297,-4.08522092333582,-4.72155361148014),(2.55765831279825,
-4.08147207941122,-4.72393915904002),(2.55570717355518,-4.07700188359443,
-4.72645821561374),(2.55320605258913,-4.07181033588544,-4.72914864235668),
(2.55051835823972,-4.06662425296351,-4.7316470309292),(2.54800749884659,
-4.0621704515079,-4.73358997299168),(2.54560975360434,-4.05841614279624,
-4.73494653646109),(2.54326140170755,-4.05532853810616,-4.73568578925438),
(2.54092931464527,-4.05290763743765,-4.73577460286061),(2.53858036390655,
-4.05115344079072,-4.73517984876882),(2.53615922204359,-4.05008780731361,
-4.73382434038298),(2.53361056160863,-4.04973259615457,-4.73163089110705),
(2.53140764704386,-4.05008780731361,-4.72907276538324),(2.53002374279148,
-4.05115344079072,-4.72662322765376),(2.52940205711844,-4.0529294965859,
-4.72422548618553),(2.52948579829167,-4.05541597469915,-4.72182274924551),
(2.53024817834146,-4.05853090332455,-4.7194702006699),(2.53167412358036,
-4.06236718384214,-4.71705986539122),(2.53365365868997,-4.06683737965893,
-4.71456920468403),(2.53607680835187,-4.07185405418194,-4.71197567982293),
(2.53875923409125,-4.07706746103917,-4.70944469870506),(2.54112313276478,
-4.08134092452173,-4.70753513389604),(2.54339431215042,-4.08493675440859,
-4.70621048339482),(2.54579858002608,-4.08811726047873,-4.70543424520034),
(2.54813906044598,-4.09059280901786,-4.70529917708111),(2.55054519527183,
-4.09242351268366,-4.70587460824115),(2.55305591759022,-4.09355472360552,
-4.70725411963769),(2.55571016048775,-4.0939317939128,-4.70953129222793),
(2.55788467918598,-4.09357658275377,-4.71206102208521),(2.55925911814952,
-4.09251094927666,-4.71450109452585),(2.55956672669236,-4.07181033588544,
-4.73550931645991),(2.56272586147911,-4.07858530564567,-4.73189348148643),
(2.5649460286209,-4.08439574048945,-4.72830321378445),(2.56622722811774,
-4.08924164041676,-4.72473851335397),(2.56656945996962,-4.09312300542761,
-4.721199380195),(2.56598248373093,-4.09609721578616,-4.71763819359777),
(2.56447605895606,-4.09822165175655,-4.71400733285251),(2.56205018564501,
-4.09949631333878,-4.71030679795922),(2.55870486379777,-4.09992120053286,
-4.70653658891791),(2.55488322972194,-4.09948811615819,-4.70314803921675),
(2.55114200319123,-4.09818886303417,-4.70070606581005),(2.54748118420565,
-4.09602344116082,-4.69921066869782),(2.54390077276518,-4.09299185053812,
-4.69866184788005),(2.54035907710697,-4.08907223201783,-4.69903977074212),
(2.53681440546814,-4.08424272645171,-4.70032460466942),(2.5332667578487,
-4.07850333383974,-4.70251634966195),(2.52971613424864,-4.07185405418194,
-4.7056150057197),(2.52653923890394,-4.0650435633058,-4.70924860125113),
(2.52430950838478,-4.05921400170731,-4.71284843233047),(2.52302694269118,
-4.05436536938646,-4.71641449895771),(2.52269154182313,-4.05049766634327,
-4.71994680113285),(2.52329044776139,-4.04754258273944,-4.72350079067494),
(2.52481080248672,-4.0454318087367,-4.72713191940301),(2.52725260599912,
-4.04416534433506,-4.73084018731705),(2.5306158582986,-4.04374318953452,
-4.73462559441708),(2.5344229774141,-4.04418037249948,-4.73799553056761),
(2.5381585202192,-4.04549192139439,-4.74041952447781),(2.5418224867139,
-4.04767783621922,-4.74189757614766),(2.54541487689819,-4.050738116974,
-4.74242968557719),(2.54896681903215,-4.05467822844577,-4.74204151623937),
(2.55250944137583,-4.0595036354216,-4.74075873160722),(2.55604274392923,
-4.06521433790149,-4.73858133168073),(2.58906908988582,-4.09878452482394,
-4.73803749071486),(2.58157258112129,-4.09878452482394,-4.73054098195034),
(2.57641382213468,-4.08846700685071,-4.73569974093696),(2.5839103308992,
-4.08846700685071,-4.74319624970148),(2.6143914022757,-4.09073489348148,
-4.77140943444721),(2.61427926523594,-4.08824841536822,-4.77378377552071),
(2.61354167290496,-4.08522092333582,-4.77607367522213),(2.61217837654024,
-4.08147207941122,-4.77845922278201),(2.61022723729717,-4.07700188359443,
-4.78097827935573),(2.60772611633111,-4.07181033588544,-4.78366870609866),
(2.60503842198171,-4.06662425296351,-4.78616709467119),(2.60252756258858,
-4.0621704515079,-4.78811003673367),(2.60012981734632,-4.05841614279624,
-4.78946660020307),(2.59778146544953,-4.05532853810616,-4.79020585299637),
(2.59544937838725,-4.05290763743765,-4.7902946666026),(2.59310042764853,
-4.05115344079072,-4.78969991251081),(2.59067928578558,-4.05008780731361,
-4.78834440412496),(2.58813062535062,-4.04973259615457,-4.78615095484903),
(2.58592771078584,-4.05008780731361,-4.78359282912523),(2.58454380653347,
-4.05115344079072,-4.78114329139574),(2.58392212086043,-4.0529294965859,
-4.77874554992752),(2.58400586203365,-4.05541597469915,-4.77634281298749),
(2.58476824208345,-4.05853090332455,-4.77399026441189),(2.58619418732235,
-4.06236718384214,-4.7715799291332),(2.58817372243195,-4.06683737965893,
-4.76908926842601),(2.59059687209386,-4.07185405418194,-4.76649574356492),
(2.59327929783323,-4.07706746103917,-4.76396476244705),(2.59564319650677,
-4.08134092452173,-4.76205519763803),(2.5979143758924,-4.08493675440859,
-4.7607305471368),(2.60031864376807,-4.08811726047873,-4.75995430894232),
(2.60265912418797,-4.09059280901786,-4.7598192408231),(2.60506525901381,
-4.09242351268366,-4.76039467198314),(2.6075759813322,-4.09355472360552,
-4.76177418337968),(2.61023022422973,-4.0939317939128,-4.76405135596992),
(2.61240474292797,-4.09357658275377,-4.7665810858272),(2.6137791818915,
-4.09251094927666,-4.76902115826783),(2.61408679043434,-4.07181033588544,
-4.79002938020189),(2.6172459252211,-4.07858530564567,-4.78641354522841),
(2.61946609236289,-4.08439574048945,-4.78282327752644),(2.62074729185973,
-4.08924164041676,-4.77925857709596),(2.62108952371161,-4.09312300542761,
-4.77571944393699),(2.62050254747292,-4.09609721578616,-4.77215825733975),
(2.61899612269805,-4.09822165175655,-4.76852739659449),(2.61657024938699,
-4.09949631333878,-4.7648268617012),(2.61322492753976,-4.09992120053286,
-4.76105665265989),(2.60940329346393,-4.09948811615819,-4.75766810295873),
(2.60566206693322,-4.09818886303417,-4.75522612955204),(2.60200124794763,
-4.09602344116082,-4.7537307324398),(2.59842083650717,-4.09299185053812,
-4.75318191162203),(2.59487914084895,-4.08907223201783,-4.75355983448411),
(2.59133446921012,-4.08424272645171,-4.75484466841141),(2.58778682159068,
-4.07850333383974,-4.75703641340393),(2.58423619799063,-4.07185405418194,
-4.76013506946168),(2.58105930264592,-4.0650435633058,-4.76376866499312),
(2.57882957212677,-4.05921400170731,-4.76736849607245),(2.57754700643317,
-4.05436536938646,-4.77093456269969),(2.57721160556511,-4.05049766634327,
-4.77446686487484),(2.57781051150337,-4.04754258273944,-4.77802085441693),
(2.5793308662287,-4.0454318087367,-4.78165198314499),(2.58177266974111,
-4.04416534433506,-4.78536025105904),(2.58513592204059,-4.04374318953452,
-4.78914565815906),(2.58894304115609,-4.04418037249948,-4.7925155943096),
(2.59267858396119,-4.04549192139439,-4.79493958821979),(2.59634255045588,
-4.04767783621922,-4.79641763988965),(2.59993494064018,-4.050738116974,
-4.79694974931917),(2.60348688277413,-4.05467822844577,-4.79656157998136),
(2.60702950511781,-4.0595036354216,-4.7952787953492),(2.61056280767122,
-4.06521433790149,-4.79310139542272),(2.64945083215423,-4.09073489348148,
-4.80646886432574),(2.64933869511447,-4.08824841536822,-4.80884320539924),
(2.64860110278348,-4.08522092333582,-4.81113310510065),(2.64723780641877,
-4.08147207941122,-4.81351865266053),(2.64528666717569,-4.07700188359443,
-4.81603770923425),(2.64278554620964,-4.07181033588544,-4.81872813597719),
(2.64009785186023,-4.06662425296351,-4.82122652454971),(2.63758699246711,
-4.0621704515079,-4.8231694666122),(2.63518924722485,-4.05841614279624,
-4.8245260300816),(2.63284089532806,-4.05532853810616,-4.82526528287489),
(2.63050880826578,-4.05290763743765,-4.82535409648112),(2.62815985752706,
-4.05115344079072,-4.82475934238933),(2.62573871566411,-4.05008780731361,
-4.82340383400349),(2.62319005522914,-4.04973259615457,-4.82121038472756),
(2.62098714066437,-4.05008780731361,-4.81865225900375),(2.619603236412,
-4.05115344079072,-4.81620272127427),(2.61898155073895,-4.0529294965859,
-4.81380497980605),(2.61906529191218,-4.05541597469915,-4.81140224286602),
(2.61982767196197,-4.05853090332455,-4.80904969429042),(2.62125361720088,
-4.06236718384214,-4.80663935901173),(2.62323315231048,-4.06683737965893,
-4.80414869830454),(2.62565630197239,-4.07185405418194,-4.80155517344344),
(2.62833872771176,-4.07706746103917,-4.79902419232558),(2.6307026263853,
-4.08134092452173,-4.79711462751655),(2.63297380577093,-4.08493675440859,
-4.79578997701533),(2.63537807364659,-4.08811726047873,-4.79501373882085),
(2.63771855406649,-4.09059280901786,-4.79487867070162),(2.64012468889234,
-4.09242351268366,-4.79545410186167),(2.64263541121073,-4.09355472360552,
-4.7968336132582),(2.64528965410826,-4.0939317939128,-4.79911078584845),
(2.6474641728065,-4.09357658275377,-4.80164051570572),(2.64883861177003,
-4.09251094927666,-4.80408058814636),(2.64914622031287,-4.07181033588544,
-4.82508881008042),(2.65230535509962,-4.07858530564567,-4.82147297510694),
(2.65452552224142,-4.08439574048945,-4.81788270740496),(2.65580672173826,
-4.08924164041676,-4.81431800697449),(2.65614895359014,-4.09312300542761,
-4.81077887381552),(2.65556197735145,-4.09609721578616,-4.80721768721828),
(2.65405555257657,-4.09822165175655,-4.80358682647302),(2.65162967926552,
-4.09949631333878,-4.79988629157973),(2.64828435741829,-4.09992120053286,
-4.79611608253842),(2.64446272334246,-4.09948811615819,-4.79272753283726),
(2.64072149681175,-4.09818886303417,-4.79028555943056),(2.63706067782616,
-4.09602344116082,-4.78879016231833),(2.63348026638569,-4.09299185053812,
-4.78824134150056),(2.62993857072748,-4.08907223201783,-4.78861926436264),
(2.62639389908865,-4.08424272645171,-4.78990409828994),(2.62284625146921,
-4.07850333383974,-4.79209584328246),(2.61929562786916,-4.07185405418194,
-4.79519449934021),(2.61611873252445,-4.0650435633058,-4.79882809487164),
(2.6138890020053,-4.05921400170731,-4.80242792595098),(2.61260643631169,
-4.05436536938646,-4.80599399257822),(2.61227103544364,-4.05049766634327,
-4.80952629475337),(2.6128699413819,-4.04754258273944,-4.81308028429545),
(2.61439029610723,-4.0454318087367,-4.81671141302352),(2.61683209961964,
-4.04416534433506,-4.82041968093757),(2.62019535191911,-4.04374318953452,
-4.82420508803759),(2.62400247103462,-4.04418037249948,-4.82757502418812),
(2.62773801383972,-4.04549192139439,-4.82999901809832),(2.63140198033441,
-4.04767783621922,-4.83147706976818),(2.63499437051871,-4.050738116974,
-4.8320091791977),(2.63854631265266,-4.05467822844577,-4.83162100985988),
(2.64208893499634,-4.0595036354216,-4.83033822522773),(2.64562223754974,
-4.06521433790149,-4.82816082530124),(2.68451026203275,-4.09073489348148,
-4.84152829420427),(2.684398124993,-4.08824841536822,-4.84390263527776),
(2.68366053266201,-4.08522092333582,-4.84619253497918),(2.68229723629729,
-4.08147207941122,-4.84857808253906),(2.68034609705422,-4.07700188359443,
-4.85109713911278),(2.67784497608817,-4.07181033588544,-4.85378756585572),
(2.67515728173876,-4.06662425296351,-4.85628595442824),(2.67264642234563,
-4.0621704515079,-4.85822889649072),(2.67024867710338,-4.05841614279624,
-4.85958545996013),(2.66790032520659,-4.05532853810616,-4.86032471275342),
(2.66556823814431,-4.05290763743765,-4.86041352635965),(2.66321928740559,
-4.05115344079072,-4.85981877226786),(2.66079814554263,-4.05008780731361,
-4.85846326388202),(2.65824948510767,-4.04973259615457,-4.85626981460609),
(2.6560465705429,-4.05008780731361,-4.85371168888228),(2.65466266629052,
-4.05115344079072,-4.8512621511528),(2.65404098061748,-4.0529294965859,
-4.84886440968457),(2.65412472179071,-4.05541597469915,-4.84646167274455),
(2.6548871018405,-4.05853090332455,-4.84410912416894),(2.6563130470794,
-4.06236718384214,-4.84169878889026),(2.65829258218901,-4.06683737965893,
-4.83920812818307),(2.66071573185091,-4.07185405418194,-4.83661460332197),
(2.66339815759029,-4.07706746103917,-4.8340836222041),(2.66576205626382,
-4.08134092452173,-4.83217405739508),(2.66803323564946,-4.08493675440859,
-4.83084940689386),(2.67043750352512,-4.08811726047873,-4.83007316869938),
(2.67277798394502,-4.09059280901786,-4.82993810058015),(2.67518411877087,
-4.09242351268366,-4.83051353174019),(2.67769484108926,-4.09355472360552,
-4.83189304313673),(2.68034908398679,-4.0939317939128,-4.83417021572697),
(2.68252360268502,-4.09357658275377,-4.83669994558425),(2.68389804164856,
-4.09251094927666,-4.83914001802489),(2.6842056501914,-4.07181033588544,
-4.86014823995895),(2.68736478497815,-4.07858530564567,-4.85653240498547),
(2.68958495211995,-4.08439574048945,-4.85294213728349),(2.69086615161678,
-4.08924164041676,-4.84937743685302),(2.69120838346866,-4.09312300542761,
-4.84583830369404),(2.69062140722997,-4.09609721578616,-4.84227711709681),
(2.6891149824551,-4.09822165175655,-4.83864625635155),(2.68668910914405,
-4.09949631333878,-4.83494572145826),(2.68334378729681,-4.09992120053286,
-4.83117551241695),(2.67952215322098,-4.09948811615819,-4.82778696271579),
(2.67578092669027,-4.09818886303417,-4.82534498930909),(2.67212010770469,
-4.09602344116082,-4.82384959219686),(2.66853969626422,-4.09299185053812,
-4.82330077137909),(2.66499800060601,-4.08907223201783,-4.82367869424116),
(2.66145332896718,-4.08424272645171,-4.82496352816846),(2.65790568134774,
-4.07850333383974,-4.82715527316099),(2.65435505774768,-4.07185405418194,
-4.83025392921874),(2.65117816240298,-4.0650435633058,-4.83388752475017),
(2.64894843188382,-4.05921400170731,-4.83748735582951),(2.64766586619022,
-4.05436536938646,-4.84105342245675),(2.64733046532217,-4.05049766634327,
-4.84458572463189),(2.64792937126043,-4.04754258273944,-4.84813971417398),
(2.64944972598576,-4.0454318087367,-4.85177084290205),(2.65189152949816,
-4.04416534433506,-4.85547911081609),(2.65525478179764,-4.04374318953452,
-4.85926451791612),(2.65906190091314,-4.04418037249948,-4.86263445406665),
(2.66279744371824,-4.04549192139439,-4.86505844797685),(2.66646141021294,
-4.04767783621922,-4.86653649964671),(2.67005380039723,-4.050738116974,
-4.86706860907622),(2.67360574253119,-4.05467822844577,-4.86668043973841),
(2.67714836487487,-4.0595036354216,-4.86539765510626),(2.68068166742827,
-4.06521433790149,-4.86322025517977),(2.7306319498381,-4.09878452482394,
-4.87960035066715),(2.72472560959938,-4.09878452482394,-4.87369401042843),
(2.70448403832138,-4.05830138226794,-4.89393558170643),(2.7103903785601,
-4.05830138226794,-4.89984192194515),(2.70744054243899,-4.05156876460744,
-4.90362470348454),(2.70073911793737,-4.05156876460744,-4.89692327898292),
(2.69719793592113,-4.04448640057496,-4.90046446099916),(2.70389936042275,
-4.04448640057496,-4.90716588550078),(2.76682721437792,-4.09878452482394,
-4.91579561520697),(2.7609208741392,-4.09878452482394,-4.90988927496825),
(2.74937924386406,-4.07570126427365,-4.9214309052434),(2.74655083829024,
-4.07049878699054,-4.9238049769527),(2.74512806005356,-4.06833473131395,
-4.9245462543926),(2.74371856551535,-4.06665157689882,-4.92481991426952),
(2.74219052020896,-4.06531816885567,-4.92462527700628),(2.74057524857149,
-4.06437822548099,-4.92394994874349),(2.73878209821626,-4.06382081720065,
-4.9227142066686),(2.73672041675664,-4.06363501444054,-4.92083832796908),
(2.73466074963278,-4.06397383123839,-4.91843984404737),(2.73287364228486,
-4.06499028163194,-4.91563628630591),(2.73008196407012,-4.06853146364818,
-4.90930342607493),(2.74520849465801,-4.09878452482394,-4.89417689548705),
(2.73930215441929,-4.09878452482394,-4.88827055524834),(2.71906058314129,
-4.05830138226794,-4.90851212652634),(2.72496692338,-4.05830138226794,-4.91441846676506),
(2.72721841564959,-4.06280436680711,-4.91216697449547),(2.72863185057604,
-4.06037800135153,-4.91600677487749),(2.73032584628199,-4.05860741034342,
-4.91947136159157),(2.73242091530593,-4.05752538250512,-4.9226484584538),
(2.73503757018631,-4.05716470655902,-4.92562578928028),(2.73759547345035,
-4.05741062197682,-4.92793777712652),(2.74012006611128,-4.0581483682302,
-4.92972462353407),(2.74261134816911,-4.05937794531917,-4.93098632850293),
(2.74506931962383,-4.06109935324373,-4.93172289203309),(2.74743909090476,
-4.0632880004621,-4.93190401609565),(2.7496657724412,-4.0659192954325,-4.93149940266169),
(2.75174936423316,-4.06899323815493,-4.93050905173122),(2.75368986628064,
-4.07250982862939,-4.92893296330424)));
#61=COORDINATES_LIST('coordinates',543,((2.2731508195643,-4.14004360446218,
-4.38086014075511),(2.25141851637826,-4.14004360446218,-4.35912783756907),
(2.2590254999687,-4.15525757164305,-4.35152085397863),(2.27984913542571,
-4.15525757164305,-4.37234448943564),(2.28304057106997,-4.16164044293158,
-4.36915305379138),(2.26221693561296,-4.16164044293158,-4.34832941833437),
(2.2752012696725,-4.18760911105066,-4.33534508427483),(2.26899204019077,
-4.18760911105066,-4.3291358547931),(2.24201785125227,-4.13366073317365,
-4.35611004373161),(2.26995938392004,-4.13366073317365,-4.38405157639938),
(2.3080647525392,-4.18760911105066,-4.36820856714153),(2.30215841230048,
-4.18760911105066,-4.36230222690281),(2.27398197020832,-4.13125622686633,
-4.39047866899498),(2.27988831044703,-4.13125622686633,-4.39638500923369),
(2.32340806345696,-4.16666258224165,-4.4044984068683),(2.32566962639413,
-4.16640573724973,-4.4070168147974),(2.33128742749397,-4.1776413394494,
-4.40139901369756),(2.32876292122931,-4.18107322572439,-4.39544262115791),
(2.32688462552912,-4.18210607047913,-4.39253148070298),(2.32441595073408,
-4.18245035206404,-4.38971852432303),(2.3213266443383,-4.18200770431201,
-4.38707186567928),(2.31857084387571,-4.18067976105592,-4.38564400847278),
(2.31619187528875,-4.1784774518699,-4.38546734907184),(2.31423306451985,
-4.17541170632806,-4.38657428384477),(2.31325294434604,-4.17268477758408,
-4.38832109241495),(2.31337286457939,-4.17062455286167,-4.39050123737071),
(2.31435833686124,-4.16912173641959,-4.39298952609464),(2.31597487283294,
-4.16806703251661,-4.39566076596932),(2.31797091019747,-4.16744951157859,
-4.39827432427187),(2.32064523256511,-4.16699593425244,-4.40140222396566),
(2.33305070462375,-4.18502973155735,-4.39577389871939),(2.33412911676626,
-4.18332471799398,-4.39855732442527),(2.3362713132946,-4.18760911105066,
-4.39641512789693),(2.34217765353331,-4.18760911105066,-4.40232146813565),
(2.32834081269209,-4.15993542936821,-4.41615830897687),(2.32634725143052,
-4.15642157128728,-4.41767860579623),(2.32417005944104,-4.15348698063494,
-4.4184360044591),(2.32177791228656,-4.15108793911468,-4.41844289882487),
(2.31913948552997,-4.14918072843,-4.41771168275296),(2.31632157215881,-4.14773802464561,
-4.41633647316619),(2.31351040576784,-4.14681994041918,-4.41444339100165),
(2.31049589336314,-4.14632810958359,-4.41192070943254),(2.30706794195082,
-4.14616416597173,-4.40865670163209),(2.30135697489202,-4.14681994041918,
-4.40228996012583),(2.29897559307841,-4.14744292614426,-4.39928559258715),
(2.29727131920574,-4.14800033442459,-4.39702391043414),(2.30074692377723,
-4.15495154356758,-4.39354830586265),(2.30108767417562,-4.15495154356758,
-4.39388905626103),(2.3055880228929,-4.15289678363223,-4.40044416491366),
(2.30790973696836,-4.15237216407427,-4.40329049854708),(2.31004664325372,
-4.15219729088828,-4.40560227801843),(2.31354744097171,-4.15245960066726,
-4.40884076595744),(2.3168577840204,-4.15355255807968,-4.41105815159371),
(2.31836040051141,-4.15454168453792,-4.41157164162648),(2.31976593302844,
-4.15584776864576,-4.41167109003567),(2.32107877442732,-4.15753638784795,
-4.41129531223236),(2.32230331756388,-4.15967311958923,-4.41038312362765),
(2.32295909201133,-4.16098466848413,-4.40972734918019),(2.31473699996924,
-4.16188089356231,-4.40060903205991),(2.31140680179722,-4.16271700598281,
-4.3964427214674),(2.30885257521828,-4.1640449492389,-4.39256055163236),
(2.30698138037174,-4.16606692045188,-4.38866738557285),(2.30632634561499,
-4.16872280696406,-4.38535646430392),(2.30681574913906,-4.17200167920132,
-4.38256699559074),(2.30837786913498,-4.17589260758953,-4.38023818719844),
(2.309913316603,-4.17853756452758,-4.37912867772841),(2.31180912462426,
-4.18105136657615,-4.3785106837011),(2.31392399344326,-4.18330285884573,
-4.37837406025052),(2.3161166233045,-4.18516088644684,-4.37870866251065),
(2.31846839748283,-4.18667463246304,-4.37954669067278),(2.32086553633509,
-4.1878058433849,-4.38081261860319),(2.32321992369112,-4.18851080091591,
-4.38246204842821),(2.32544344338077,-4.18874578675958,-4.38445058227418),
(2.32773272260731,-4.18862009665715,-4.38686555160315),(2.32929999853425,
-4.18824302634986,-4.38880989783738),(2.33157767892035,-4.18677846341722,
-4.39255214115612),(2.3614638347346,-4.1883960403876,-4.42082071999999),
(2.35909193298541,-4.1881979418566,-4.4186469167818),(2.35678459447064,
-4.1876036462636,-4.41693387386004),(2.3545418191903,-4.18661315360859,
-4.4156815912347),(2.35236360714438,-4.18522646389159,-4.41489006890578),
(2.35027142512707,-4.18341078839021,-4.41461356238986),(2.34828673993257,
-4.18113333838208,-4.41490632720348),(2.34640955156086,-4.1783941138672,
-4.41576836334665),(2.34463986001197,-4.17519311484558,-4.41719967081938),
(2.33342611696055,-4.15276562874274,-4.4284134138708),(2.32945069564603,
-4.15276562874274,-4.42443799255628),(2.32663086552198,-4.14712596849466,
-4.42725782268032),(2.3306062868365,-4.14712596849466,-4.43123324399484),
(2.32479175340243,-4.13549690162652,-4.43704777742891),(2.33069809364115,
-4.13549690162652,-4.44295411766762),(2.33651262707522,-4.14712596849466,
-4.43713958423355),(2.34737877866824,-4.14712596849466,-4.44800573582657),
(2.35019860879228,-4.15276562874274,-4.44518590570253),(2.33933245719926,
-4.15276562874274,-4.43431975410951),(2.3489723415768,-4.17204539749781,
-4.42467986973197),(2.35035400438384,-4.17476139666767,-4.42334553336915),
(2.35143871205019,-4.17678883266771,-4.42240280503547),(2.35373993367979,
-4.17991469086723,-4.42157816846555),(2.35499030829663,-4.18102404264084,
-4.42171919130879),(2.35641348919822,-4.18181643676484,-4.42234997808637),
(2.35805680282877,-4.18229187323924,-4.42351785524251),(2.3599675756325,
-4.18245035206404,-4.42527014922145),(2.36249899034781,-4.18194759165433,
-4.42830432434647),(2.36343169956813,-4.18149401432818,-4.42969061089295),
(2.36404444560709,-4.18113880316914,-4.43065856809095),(2.36438519600548,
-4.18113880316914,-4.43099931848933),(2.36744547676026,-4.18725936467869,
-4.42793903773456),(2.36449115774848,-4.18809001231213,-4.42415407108934),
(2.4142794402183,-4.14712596849466,-4.51490639737664),(2.42562363998286,
-4.18760911105066,-4.48576745458518),(2.42017163360866,-4.18760911105066,
-4.48031544821099),(2.39600758064425,-4.15639424735197,-4.48736625894527),
(2.40309625253391,-4.18760911105066,-4.46324006713624),(2.39768210731509,
-4.18760911105066,-4.45782592191742),(2.36846744221288,-4.14712596849466,
-4.46909439937122),(2.37460094938386,-4.14712596849466,-4.47522790654219),
(2.39648318815967,-4.17847198708284,-4.46576412672983),(2.38910177189301,
-4.14712596849466,-4.48972872905134),(2.39398586093656,-4.14712596849466,
-4.4946128180949),(2.41817763019034,-4.17847198708284,-4.48745856876049),
(2.40833523882421,-4.14712596849466,-4.50896219598254),(2.44572791348771,
-4.18760911105066,-4.50587172809004),(2.439821573249,-4.18760911105066,
-4.49996538785133),(2.41958000197099,-4.14712596849466,-4.52020695912933),
(2.42548634220971,-4.14712596849466,-4.52611329936804),(2.4225365060886,
-4.14039335083415,-4.52989608090744),(2.41583508158698,-4.14039335083415,
-4.52319465640582),(2.41229389957074,-4.13331098680168,-4.52673583842205),
(2.41899532407236,-4.13331098680168,-4.53343726292367),(2.46930554054817,
-4.17961959236588,-4.53743887383528),(2.47053061210228,-4.17777249433889,
-4.54051104341639),(2.4588359677894,-4.15438320571312,-4.55220568772927),
(2.45623718186633,-4.15335036095838,-4.55063974656094),(2.45405683042269,
-4.15270005129799,-4.54910970477769),(2.45007905498382,-4.15224100918478,
-4.54559097145204),(2.44805339212511,-4.15248692460257,-4.54331939317553),
(2.44651974219414,-4.15322467085595,-4.54104799699117),(2.44547810519091,
-4.15445424794493,-4.53877678289897),(2.44492848111542,-4.15617565586949,
-4.53650575089892),(2.44489506915539,-4.15836157069432,-4.53428642411406),
(2.44540206849855,-4.16098466848413,-4.5321703256674),(2.44644947914488,
-4.1640449492389,-4.53015745555897),(2.4480373010944,-4.16754241295865,
-4.52824781378875),(2.44984691975642,-4.17091555277272,-4.52668429263668),
(2.45169087542972,-4.17386517158949,-4.52557862949322),(2.45356916811431,
-4.17639126940894,-4.52493082435836),(2.4554817978102,-4.17849384623108,
-4.5247408772321),(2.4574424982908,-4.18014831051413,-4.52504711342966),
(2.45946500332956,-4.18133007071631,-4.52588785826624),(2.46154931292647,
-4.18203912683762,-4.52726311174184),(2.46369542708154,-4.18227547887806,
-4.52917287385647),(2.4658614088106,-4.18196945080258,-4.53164488366101),
(2.46774029304188,-4.18105136657615,-4.53444185211872),(2.48135526069688,
-4.18760911105066,-4.54149907529921),(2.47544892045817,-4.18760911105066,
-4.5355927350605),(2.47339416052282,-4.18349959117996,-4.53764749499585),
(2.47212079572422,-4.1856855060048,-4.5341882153724),(2.47056326199838,
-4.18730308297518,-4.53101310467619),(2.46850532198719,-4.18837418123935,
-4.52788406640082),(2.46556757942875,-4.18874578675958,-4.52457471832216),
(2.46263157429382,-4.18840150517466,-4.52198299477214),(2.45957845450623,
-4.18736866041993,-4.51996271973929),(2.45648540666202,-4.18566911164362,
-4.5185692206714),(2.45342961735723,-4.18332471799398,-4.51785782501624),
(2.45042328427422,-4.18034094425807,-4.51783526566914),(2.44747860509538,
-4.17672325522297,-4.5185082755254),(2.44465383583904,-4.1724935100369,
-4.51991325145513),(2.44200723252355,-4.16767356784814,-4.52208659032841),
(2.43981891100889,-4.16270061162163,-4.52487122504025),(2.4385875786375,
-4.15844900728732,-4.52789149700317),(2.43817740044095,-4.15479852952984,
-4.5311317965641),(2.43845254145081,-4.15162895303382,-4.53457651406998),
(2.43940530197149,-4.14928455938418,-4.53787366824029),(2.44102484347494,
-4.14749757401488,-4.54128019511305),(2.44323730028976,-4.14636636309302,
-4.54462386284972),(2.44596880674452,-4.14598929278574,-4.54773243961177),
(2.44850028811018,-4.14615870118466,-4.55009451257851),(2.45086989276522,
-4.14666692638144,-4.55195589203677),(2.45601613766536,-4.14874354546504,
-4.55502551785331),(2.447272478366,-4.13125622686633,-4.56376917715266),
(2.45317881860472,-4.13125622686633,-4.56967551739138),(2.5009064699858,
-4.1883960403876,-4.56026335525119),(2.49853456823661,-4.1881979418566,
-4.558089552033),(2.49622722972185,-4.1876036462636,-4.55637650911124),
(2.49398445444151,-4.18661315360859,-4.5551242264859),(2.49180624239558,
-4.18522646389159,-4.55433270415699),(2.48971406037828,-4.18341078839021,
-4.55405619764106),(2.48772937518377,-4.18113333838208,-4.55434896245468),
(2.48585218681207,-4.1783941138672,-4.55521099859786),(2.48408249526317,
-4.17519311484558,-4.55664230607058),(2.47286875221175,-4.15276562874274,
-4.567856049122),(2.46889333089723,-4.15276562874274,-4.56388062780748),
(2.46607350077319,-4.14712596849466,-4.56670045793152),(2.47004892208771,
-4.14712596849466,-4.57067587924604),(2.46423438865364,-4.13549690162652,
-4.57649041268011),(2.47014072889235,-4.13549690162652,-4.58239675291883),
(2.47595526232642,-4.14712596849466,-4.57658221948476),(2.48682141391944,
-4.14712596849466,-4.58744837107778),(2.48964124404349,-4.15276562874274,
-4.58462854095374),(2.47877509245046,-4.15276562874274,-4.57376238936072),
(2.488414976828,-4.17204539749781,-4.56412250498318),(2.48979663963504,
-4.17476139666767,-4.56278816862036),(2.49088134730139,-4.17678883266771,
-4.56184544028667),(2.49318256893099,-4.17991469086723,-4.56102080371675),
(2.49443294354783,-4.18102404264084,-4.56116182655999),(2.49585612444942,
-4.18181643676484,-4.56179261333757),(2.49749943807997,-4.18229187323924,
-4.56296049049372),(2.4994102108837,-4.18245035206404,-4.56471278447265),
(2.50194162559901,-4.18194759165433,-4.56774695959767),(2.50287433481933,
-4.18149401432818,-4.56913324614415),(2.5034870808583,-4.18113880316914,
-4.57010120334215),(2.50382783125669,-4.18113880316914,-4.57044195374054),
(2.50688811201146,-4.18725936467869,-4.56738167298576),(2.50393379299968,
-4.18809001231213,-4.56359670634055),(2.53894207802436,-4.18760911105066,
-4.59908589262669),(2.53303573778564,-4.18760911105066,-4.59317955238797),
(2.5214941075105,-4.16452585050037,-4.60472118266312),(2.51866570193668,
-4.15932337321725,-4.60709525437242),(2.5172429237,-4.15715931754066,-4.60783653181233),
(2.51583342916179,-4.15547616312554,-4.60811019168924),(2.5143053838554,
-4.15414275508239,-4.607915554426),(2.51269011221793,-4.15320281170771,
-4.60724022616321),(2.5108969618627,-4.15264540342737,-4.60600448408832),
(2.50883528040308,-4.15245960066726,-4.60412860538881),(2.50677561327922,
-4.15279841746511,-4.6017301214671),(2.5049885059313,-4.15381486785866,
-4.59892656372563),(2.50219682771656,-4.1573560498749,-4.59259370349466),
(2.51732335830444,-4.18760911105066,-4.57746717290677),(2.51141701806573,
-4.18760911105066,-4.57156083266806),(2.48324057597356,-4.13125622686633,
-4.59973727476022),(2.48914691621228,-4.13125622686633,-4.60564361499894),
(2.49933327929603,-4.15162895303382,-4.59545725191519),(2.50074671422248,
-4.14920258757825,-4.59929705229722),(2.50244070992843,-4.14743199657013,
-4.60276163901129),(2.50453577895237,-4.14634996873184,-4.60593873587352),
(2.50715243383275,-4.14598929278574,-4.6089160667),(2.50971033709679,-4.14623520820353,
-4.61122805454624),(2.51223492975772,-4.14697295445692,-4.6130149009538),
(2.51472621181555,-4.14820253154589,-4.61427660592265),(2.51718418327027,
-4.14992393947045,-4.61501316945281),(2.5195539545512,-4.15211258668882,
-4.61519429351537),(2.52178063608764,-4.15474388165922,-4.61478968008141),
(2.5238642278796,-4.15781782438165,-4.61379932915095),(2.52580472992708,
-4.1613344148561,-4.61222324072397),(2.58232416152877,-4.17955947970819,
-4.65051760747357),(2.58221202448902,-4.17707300159494,-4.65289194854707),
(2.58147443215803,-4.17404550956254,-4.65518184824848),(2.58011113579331,
-4.17029666563794,-4.65756739580836),(2.57815999655024,-4.16582646982115,
-4.66008645238208),(2.57565887558418,-4.16063492211216,-4.66277687912502),
(2.57297118123478,-4.15544883919023,-4.66527526769754),(2.57046032184165,
-4.15099503773462,-4.66721820976002),(2.5680625765994,-4.14724072902296,
-4.66857477322943),(2.56571422470261,-4.14415312433288,-4.66931402602272),
(2.56338213764033,-4.14173222366437,-4.66940283962895),(2.5610331869016,
-4.13997802701743,-4.66880808553716),(2.55861204503865,-4.13891239354033,
-4.66745257715132),(2.55606338460369,-4.13855718238129,-4.66525912787539),
(2.55386047003892,-4.13891239354033,-4.66270100215158),(2.55247656578654,
-4.13997802701743,-4.6602514644221),(2.5518548801135,-4.14175408281262,
-4.65785372295387),(2.55193862128673,-4.14424056092587,-4.65545098601385),
(2.55270100133652,-4.14735548955126,-4.65309843743824),(2.55412694657542,
-4.15119177006886,-4.65068810215956),(2.55610648168503,-4.15566196588565,
-4.64819744145237),(2.55852963134693,-4.16067864040865,-4.64560391659127),
(2.56121205708631,-4.16589204726589,-4.6430729354734),(2.56357595575984,
-4.17016551074845,-4.64116337066438),(2.56584713514548,-4.17376134063531,
-4.63983872016316),(2.56825140302114,-4.17694184670545,-4.63906248196868),
(2.57059188344104,-4.17941739524458,-4.63892741384945),(2.57299801826689,
-4.18124809891038,-4.6395028450095),(2.57550874058528,-4.18237930983224,
-4.64088235640603),(2.5781629834828,-4.18275638013952,-4.64315952899628),
(2.58033750218104,-4.18240116898048,-4.64568925885355),(2.58171194114457,
-4.18133553550338,-4.64812933129419),(2.58201954968742,-4.16063492211216,
-4.66913755322825),(2.58517868447417,-4.16740989187239,-4.66552171825477),
(2.58739885161596,-4.17322032671616,-4.66193145055279),(2.5886800511128,
-4.17806622664348,-4.65836675012232),(2.58902228296468,-4.18194759165433,
-4.65482761696334),(2.58843530672599,-4.18492180201288,-4.65126643036611),
(2.58692888195112,-4.18704623798326,-4.64763556962085),(2.58450300864007,
-4.1883208995655,-4.64393503472756),(2.58115768679283,-4.18874578675958,
-4.64016482568625),(2.577336052717,-4.18831270238491,-4.63677627598509),
(2.57359482618629,-4.18701344926089,-4.63433430257839),(2.56993400720071,
-4.18484802738754,-4.63283890546616),(2.56635359576024,-4.18181643676484,
-4.63229008464839),(2.56281190010202,-4.17789681824455,-4.63266800751046),
(2.5592672284632,-4.17306731267842,-4.63395284143776),(2.55571958084376,
-4.16732792006646,-4.63614458643029),(2.5521689572437,-4.16067864040865,
-4.63924324248804),(2.548992061899,-4.15386814953252,-4.64287683801947),
(2.54676233137984,-4.14803858793403,-4.64647666909881),(2.54547976568624,
-4.14318995561318,-4.65004273572605),(2.54514436481819,-4.13932225256998,
-4.65357503790119),(2.54574327075645,-4.13636716896615,-4.65712902744328),
(2.54726362548178,-4.13425639496342,-4.66076015617135),(2.54970542899418,
-4.13298993056178,-4.66446842408539),(2.55306868129366,-4.13256777576123,
-4.66825383118542),(2.55687580040916,-4.1330049587262,-4.67162376733595),
(2.56061134321426,-4.1343165076211,-4.67404776124615),(2.56427530970896,
-4.13650242244594,-4.67552581291601),(2.56786769989325,-4.13956270320072,
-4.67605792234553),(2.57141964202721,-4.14350281467249,-4.67566975300771),
(2.57496226437088,-4.14832822164832,-4.67438696837556),(2.57849556692429,
-4.15403892412821,-4.67220956844907),(2.61152191288088,-4.18760911105066,
-4.67166572748321),(2.60402540411635,-4.18760911105066,-4.66416921871868),
(2.59886664512974,-4.17729159307742,-4.6693279777053),(2.60636315389426,
-4.17729159307742,-4.67682448646982),(2.63684422527076,-4.17955947970819,
-4.70503767121556),(2.636732088231,-4.17707300159494,-4.70741201228905),
(2.63599449590002,-4.17404550956254,-4.70970191199047),(2.6346311995353,
-4.17029666563794,-4.71208745955035),(2.63268006029222,-4.16582646982115,
-4.71460651612407),(2.63017893932617,-4.16063492211216,-4.717296942867),
(2.62749124497676,-4.15544883919023,-4.71979533143953),(2.62498038558364,
-4.15099503773462,-4.72173827350201),(2.62258264034138,-4.14724072902296,
-4.72309483697141),(2.62023428844459,-4.14415312433288,-4.72383408976471),
(2.61790220138231,-4.14173222366437,-4.72392290337094),(2.61555325064359,
-4.13997802701743,-4.72332814927915),(2.61313210878064,-4.13891239354033,
-4.7219726408933),(2.61058344834568,-4.13855718238129,-4.71977919161738),
(2.6083805337809,-4.13891239354033,-4.71722106589357),(2.60699662952853,
-4.13997802701743,-4.71477152816408),(2.60637494385549,-4.14175408281262,
-4.71237378669586),(2.60645868502871,-4.14424056092587,-4.70997104975583),
(2.6072210650785,-4.14735548955126,-4.70761850118023),(2.60864701031741,
-4.15119177006886,-4.70520816590154),(2.61062654542701,-4.15566196588565,
-4.70271750519435),(2.61304969508892,-4.16067864040865,-4.70012398033326),
(2.61573212082829,-4.16589204726589,-4.69759299921539),(2.61809601950183,
-4.17016551074845,-4.69568343440637),(2.62036719888746,-4.17376134063531,
-4.69435878390514),(2.62277146676312,-4.17694184670545,-4.69358254571067),
(2.62511194718303,-4.17941739524458,-4.69344747759144),(2.62751808200887,
-4.18124809891038,-4.69402290875148),(2.63002880432726,-4.18237930983224,
-4.69540242014802),(2.63268304722479,-4.18275638013952,-4.69767959273826),
(2.63485756592303,-4.18240116898048,-4.70020932259554),(2.63623200488656,
-4.18133553550338,-4.70264939503618),(2.6365396134294,-4.16063492211216,
-4.72365761697024),(2.63969874821615,-4.16740989187239,-4.72004178199676),
(2.64191891535795,-4.17322032671616,-4.71645151429478),(2.64320011485479,
-4.17806622664348,-4.7128868138643),(2.64354234670667,-4.18194759165433,
-4.70934768070533),(2.64295537046798,-4.18492180201288,-4.70578649410809),
(2.64144894569311,-4.18704623798326,-4.70215563336283),(2.63902307238205,
-4.1883208995655,-4.69845509846955),(2.63567775053482,-4.18874578675958,
-4.69468488942823),(2.63185611645899,-4.18831270238491,-4.69129633972707),
(2.62811488992828,-4.18701344926089,-4.68885436632038),(2.62445407094269,
-4.18484802738754,-4.68735896920815),(2.62087365950222,-4.18181643676484,
-4.68681014839038),(2.61733196384401,-4.17789681824455,-4.68718807125245),
(2.61378729220518,-4.17306731267842,-4.68847290517975),(2.61023964458574,
-4.16732792006646,-4.69066465017227),(2.60668902098569,-4.16067864040865,
-4.69376330623002),(2.60351212564098,-4.15386814953252,-4.69739690176146),
(2.60128239512183,-4.14803858793403,-4.70099673284079),(2.59999982942823,
-4.14318995561318,-4.70456279946803),(2.59966442856017,-4.13932225256998,
-4.70809510164318),(2.60026333449843,-4.13636716896615,-4.71164909118527),
(2.60178368922376,-4.13425639496342,-4.71528021991333),(2.60422549273617,
-4.13298993056178,-4.71898848782738),(2.60758874503565,-4.13256777576123,
-4.7227738949274),(2.61139586415115,-4.1330049587262,-4.72614383107794),
(2.61513140695625,-4.1343165076211,-4.72856782498813),(2.61879537345094,
-4.13650242244594,-4.73004587665799),(2.62238776363524,-4.13956270320072,
-4.73057798608751),(2.62593970576919,-4.14350281467249,-4.7301898167497),
(2.62948232811287,-4.14832822164832,-4.72890703211754),(2.63301563066627,
-4.15403892412821,-4.72672963219106),(2.67190365514929,-4.17955947970819,
-4.74009710109408),(2.67179151810953,-4.17707300159494,-4.74247144216758),
(2.67105392577854,-4.17404550956254,-4.74476134186899),(2.66969062941383,
-4.17029666563794,-4.74714688942887),(2.66773949017075,-4.16582646982115,
-4.74966594600259),(2.6652383692047,-4.16063492211216,-4.75235637274553),
(2.66255067485529,-4.15544883919023,-4.75485476131805),(2.66003981546216,
-4.15099503773462,-4.75679770338054),(2.65764207021991,-4.14724072902296,
-4.75815426684994),(2.65529371832312,-4.14415312433288,-4.75889351964323),
(2.65296163126084,-4.14173222366437,-4.75898233324946),(2.65061268052212,
-4.13997802701743,-4.75838757915767),(2.64819153865917,-4.13891239354033,
-4.75703207077183),(2.6456428782242,-4.13855718238129,-4.7548386214959),
(2.64343996365943,-4.13891239354033,-4.75228049577209),(2.64205605940706,
-4.13997802701743,-4.74983095804261),(2.64143437373401,-4.14175408281262,
-4.74743321657439),(2.64151811490724,-4.14424056092587,-4.74503047963436),
(2.64228049495703,-4.14735548955126,-4.74267793105876),(2.64370644019593,
-4.15119177006886,-4.74026759578007),(2.64568597530554,-4.15566196588565,
-4.73777693507288),(2.64810912496745,-4.16067864040865,-4.73518341021178),
(2.65079155070682,-4.16589204726589,-4.73265242909392),(2.65315544938036,
-4.17016551074845,-4.73074286428489),(2.65542662876599,-4.17376134063531,
-4.72941821378367),(2.65783089664165,-4.17694184670545,-4.72864197558919),
(2.66017137706155,-4.17941739524458,-4.72850690746996),(2.6625775118874,
-4.18124809891038,-4.72908233863001),(2.66508823420579,-4.18237930983224,
-4.73046185002654),(2.66774247710332,-4.18275638013952,-4.73273902261679),
(2.66991699580156,-4.18240116898048,-4.73526875247406),(2.67129143476509,
-4.18133553550337,-4.7377088249147),(2.67159904330793,-4.16063492211216,
-4.75871704684876),(2.67475817809468,-4.16740989187239,-4.75510121187528),
(2.67697834523648,-4.17322032671616,-4.7515109441733),(2.67825954473331,
-4.17806622664348,-4.74794624374283),(2.67860177658519,-4.18194759165433,
-4.74440711058386),(2.67801480034651,-4.18492180201288,-4.74084592398662),
(2.67650837557163,-4.18704623798326,-4.73721506324136),(2.67408250226058,
-4.1883208995655,-4.73351452834807),(2.67073718041335,-4.18874578675958,
-4.72974431930676),(2.66691554633752,-4.18831270238491,-4.7263557696056),
(2.66317431980681,-4.18701344926089,-4.7239137961989),(2.65951350082122,
-4.18484802738754,-4.72241839908667),(2.65593308938075,-4.18181643676484,
-4.7218695782689),(2.65239139372254,-4.17789681824455,-4.72224750113098),
(2.64884672208371,-4.17306731267842,-4.72353233505828),(2.64529907446427,
-4.16732792006646,-4.7257240800508),(2.64174845086421,-4.16067864040865,
-4.72882273610855),(2.63857155551951,-4.15386814953252,-4.73245633163998),
(2.63634182500036,-4.14803858793403,-4.73605616271932),(2.63505925930675,
-4.14318995561318,-4.73962222934656),(2.6347238584387,-4.13932225256998,
-4.74315453152171),(2.63532276437696,-4.13636716896615,-4.74670852106379),
(2.63684311910229,-4.13425639496342,-4.75033964979186),(2.6392849226147,
-4.13298993056178,-4.75404791770591),(2.64264817491417,-4.13256777576123,
-4.75783332480593),(2.64645529402967,-4.1330049587262,-4.76120326095646),
(2.65019083683477,-4.1343165076211,-4.76362725486666),(2.65385480332947,
-4.13650242244594,-4.76510530653652),(2.65744719351376,-4.13956270320072,
-4.76563741596604),(2.66099913564772,-4.14350281467249,-4.76524924662822),
(2.6645417579914,-4.14832822164832,-4.76396646199607),(2.6680750605448,
-4.15403892412821,-4.76178906206958),(2.70696308502781,-4.17955947970819,
-4.77515653097261),(2.70685094798806,-4.17707300159494,-4.77753087204611),
(2.70611335565707,-4.17404550956254,-4.77982077174752),(2.70475005929235,
-4.17029666563794,-4.7822063193074),(2.70279892004928,-4.16582646982115,
-4.78472537588112),(2.70029779908322,-4.16063492211216,-4.78741580262406),
(2.69761010473382,-4.15544883919023,-4.78991419119658),(2.69509924534069,
-4.15099503773462,-4.79185713325906),(2.69270150009844,-4.14724072902296,
-4.79321369672847),(2.69035314820165,-4.14415312433288,-4.79395294952176),
(2.68802106113937,-4.14173222366437,-4.79404176312799),(2.68567211040064,
-4.13997802701743,-4.7934470090362),(2.68325096853769,-4.13891239354033,
-4.79209150065036),(2.68070230810273,-4.13855718238129,-4.78989805137443),
(2.67849939353796,-4.13891239354033,-4.78733992565062),(2.67711548928558,
-4.13997802701743,-4.78489038792114),(2.67649380361254,-4.14175408281262,
-4.78249264645291),(2.67657754478577,-4.14424056092587,-4.78008990951289),
(2.67733992483556,-4.14735548955126,-4.77773736093729),(2.67876587007446,
-4.15119177006886,-4.7753270256586),(2.68074540518407,-4.15566196588565,
-4.77283636495141),(2.68316855484597,-4.16067864040865,-4.77024284009031),
(2.68585098058535,-4.16589204726589,-4.76771185897244),(2.68821487925888,
-4.17016551074845,-4.76580229416342),(2.69048605864452,-4.17376134063531,
-4.7644776436622),(2.69289032652018,-4.17694184670545,-4.76370140546772),
(2.69523080694008,-4.17941739524458,-4.76356633734849),(2.69763694176593,
-4.18124809891038,-4.76414176850854),(2.70014766408431,-4.18237930983224,
-4.76552127990507),(2.70280190698184,-4.18275638013952,-4.76779845249531),
(2.70497642568008,-4.18240116898048,-4.77032818235259),(2.70635086464361,
-4.18133553550337,-4.77276825479323),(2.70665847318646,-4.16063492211216,
-4.79377647672729),(2.70981760797321,-4.16740989187239,-4.79016064175381),
(2.712037775115,-4.17322032671616,-4.78657037405183),(2.71331897461184,
-4.17806622664348,-4.78300567362136),(2.71366120646372,-4.18194759165433,
-4.77946654046238),(2.71307423022503,-4.18492180201288,-4.77590535386515),
(2.71156780545016,-4.18704623798326,-4.77227449311989),(2.70914193213911,
-4.1883208995655,-4.7685739582266),(2.70579661029187,-4.18874578675958,
-4.76480374918529),(2.70197497621604,-4.18831270238491,-4.76141519948413),
(2.69823374968533,-4.18701344926089,-4.75897322607743),(2.69457293069975,
-4.18484802738754,-4.7574778289652),(2.69099251925928,-4.18181643676484,
-4.75692900814743),(2.68745082360106,-4.17789681824455,-4.7573069310095),
(2.68390615196224,-4.17306731267842,-4.7585917649368),(2.6803585043428,
-4.16732792006646,-4.76078350992933),(2.67680788074274,-4.16067864040865,
-4.76388216598708),(2.67363098539804,-4.15386814953252,-4.76751576151851),
(2.67140125487888,-4.14803858793403,-4.77111559259785),(2.67011868918528,
-4.14318995561318,-4.77468165922509),(2.66978328831723,-4.13932225256998,
-4.77821396140023),(2.67038219425549,-4.13636716896615,-4.78176795094232),
(2.67190254898082,-4.13425639496342,-4.78539907967039),(2.67434435249322,
-4.13298993056178,-4.78910734758443),(2.6777076047927,-4.13256777576123,
-4.79289275468446),(2.6815147239082,-4.1330049587262,-4.79626269083499),
(2.6852502667133,-4.1343165076211,-4.79868668474519),(2.688914233208,-4.13650242244594,
-4.80016473641505),(2.69250662339229,-4.13956270320072,-4.80069684584457),
(2.69605856552625,-4.14350281467249,-4.80030867650675),(2.69960118786993,
-4.14832822164832,-4.7990258918746),(2.70313449042333,-4.15403892412821,
-4.79684849194811),(2.75308477283316,-4.18760911105066,-4.81322858743549),
(2.74717843259444,-4.18760911105066,-4.80732224719677),(2.72693686131644,
-4.14712596849466,-4.82756381847477),(2.73284320155516,-4.14712596849466,
-4.83347015871349),(2.72989336543404,-4.14039335083415,-4.83725294025288),
(2.72319194093243,-4.14039335083415,-4.83055151575126),(2.71965075891619,
-4.13331098680168,-4.8340926977675),(2.72635218341781,-4.13331098680168,
-4.84079412226912),(2.78928003737298,-4.18760911105066,-4.84942385197531),
(2.78337369713426,-4.18760911105066,-4.84351751173659),(2.77183206685911,
-4.16452585050037,-4.85505914201174),(2.7690036612853,-4.15932337321725,
-4.85743321372104),(2.76758088304862,-4.15715931754066,-4.85817449116094),
(2.76617138851041,-4.15547616312554,-4.85844815103786),(2.76464334320402,
-4.15414275508239,-4.85825351377462),(2.76302807156654,-4.15320281170771,
-4.85757818551183),(2.76123492121132,-4.15264540342737,-4.85634244343694),
(2.7591732397517,-4.15245960066726,-4.85446656473742),(2.75711357262784,
-4.15279841746511,-4.85206808081572),(2.75532646527992,-4.15381486785866,
-4.84926452307425),(2.75253478706518,-4.1573560498749,-4.84293166284327),
(2.76766131765306,-4.18760911105066,-4.82780513225539),(2.76175497741435,
-4.18760911105066,-4.82189879201668),(2.74151340613635,-4.14712596849466,
-4.84214036329468),(2.74741974637506,-4.14712596849466,-4.8480467035334),
(2.74967123864464,-4.15162895303382,-4.84579521126381),(2.7510846735711,
-4.14920258757825,-4.84963501164583),(2.75277866927705,-4.14743199657013,
-4.85309959835991),(2.75487373830099,-4.14634996873184,-4.85627669522214),
(2.75749039318137,-4.14598929278574,-4.85925402604862),(2.76004829644541,
-4.14623520820353,-4.86156601389486),(2.76257288910634,-4.14697295445692,
-4.86335286030241),(2.76506417116417,-4.14820253154589,-4.86461456527127),
(2.76752214261889,-4.14992393947045,-4.86535112880143),(2.76989191389982,
-4.15211258668882,-4.86553225286399),(2.77211859543626,-4.15474388165922,
-4.86512763943003),(2.77420218722822,-4.15781782438165,-4.86413728849956),
(2.7761426892757,-4.1613344148561,-4.86256120007258)));
#62=ANNOTATION_PLANE('',(#333),#137,(#55));
#63=COLOUR();
#64=STYLED_ITEM('',(#331),#66);
#65=STYLED_ITEM('',(#334),#40);
#66=MANIFOLD_SOLID_BREP('Brush Idler Shaft',#145);
#67=LINE('',#267,#70);
#68=LINE('',#275,#71);
#69=LINE('',#280,#72);
#70=VECTOR('',#211,0.499999999999999);
#71=VECTOR('',#222,0.75);
#72=VECTOR('',#229,0.625);
#73=CYLINDRICAL_SURFACE('',#175,0.499999999999999);
#74=CYLINDRICAL_SURFACE('',#180,0.75);
#75=CYLINDRICAL_SURFACE('',#184,0.625);
#76=FACE_BOUND('',#86,.T.);
#77=FACE_BOUND('',#92,.T.);
#78=FACE_OUTER_BOUND('',#85,.T.);
#79=FACE_OUTER_BOUND('',#87,.T.);
#80=FACE_OUTER_BOUND('',#88,.T.);
#81=FACE_OUTER_BOUND('',#89,.T.);
#82=FACE_OUTER_BOUND('',#90,.T.);
#83=FACE_OUTER_BOUND('',#91,.T.);
#84=FACE_OUTER_BOUND('',#93,.T.);
#85=EDGE_LOOP('',(#115));
#86=EDGE_LOOP('',(#116));
#87=EDGE_LOOP('',(#117,#118,#119,#120));
#88=EDGE_LOOP('',(#121));
#89=EDGE_LOOP('',(#122));
#90=EDGE_LOOP('',(#123,#124,#125,#126));
#91=EDGE_LOOP('',(#127));
#92=EDGE_LOOP('',(#128));
#93=EDGE_LOOP('',(#129,#130,#131,#132));
#94=CIRCLE('',#173,0.625);
#95=CIRCLE('',#174,0.5);
#96=CIRCLE('',#176,0.499999999999999);
#97=CIRCLE('',#179,0.75);
#98=CIRCLE('',#181,0.75);
#99=CIRCLE('',#183,0.625);
#100=VERTEX_POINT('',#260);
#101=VERTEX_POINT('',#262);
#102=VERTEX_POINT('',#265);
#103=VERTEX_POINT('',#270);
#104=VERTEX_POINT('',#273);
#105=VERTEX_POINT('',#277);
#106=EDGE_CURVE('',#100,#100,#94,.T.);
#107=EDGE_CURVE('',#101,#101,#95,.T.);
#108=EDGE_CURVE('',#102,#102,#96,.T.);
#109=EDGE_CURVE('',#102,#101,#67,.T.);
#110=EDGE_CURVE('',#103,#103,#97,.T.);
#111=EDGE_CURVE('',#104,#104,#98,.T.);
#112=EDGE_CURVE('',#104,#103,#68,.T.);
#113=EDGE_CURVE('',#105,#105,#99,.T.);
#114=EDGE_CURVE('',#100,#105,#69,.T.);
#115=ORIENTED_EDGE('',*,*,#106,.T.);
#116=ORIENTED_EDGE('',*,*,#107,.F.);
#117=ORIENTED_EDGE('',*,*,#108,.F.);
#118=ORIENTED_EDGE('',*,*,#109,.T.);
#119=ORIENTED_EDGE('',*,*,#107,.T.);
#120=ORIENTED_EDGE('',*,*,#109,.F.);
#121=ORIENTED_EDGE('',*,*,#108,.T.);
#122=ORIENTED_EDGE('',*,*,#110,.F.);
#123=ORIENTED_EDGE('',*,*,#111,.F.);
#124=ORIENTED_EDGE('',*,*,#112,.T.);
#125=ORIENTED_EDGE('',*,*,#110,.T.);
#126=ORIENTED_EDGE('',*,*,#112,.F.);
#127=ORIENTED_EDGE('',*,*,#111,.T.);
#128=ORIENTED_EDGE('',*,*,#113,.F.);
#129=ORIENTED_EDGE('',*,*,#106,.F.);
#130=ORIENTED_EDGE('',*,*,#114,.T.);
#131=ORIENTED_EDGE('',*,*,#113,.T.);
#132=ORIENTED_EDGE('',*,*,#114,.F.);
#133=PLANE('',#172);
#134=PLANE('',#177);
#135=PLANE('',#178);
#136=PLANE('',#182);
#137=PLANE('',#185);
#138=ADVANCED_FACE('',(#78,#76),#133,.T.);
#139=ADVANCED_FACE('',(#79),#73,.T.);
#140=ADVANCED_FACE('',(#80),#134,.T.);
#141=ADVANCED_FACE('',(#81),#135,.T.);
#142=ADVANCED_FACE('',(#82),#74,.T.);
#143=ADVANCED_FACE('',(#83,#77),#136,.T.);
#144=ADVANCED_FACE('',(#84),#75,.T.);
#145=CLOSED_SHELL('',(#138,#139,#140,#141,#142,#143,#144));
#146=DERIVED_UNIT_ELEMENT(#148,1.);
#147=DERIVED_UNIT_ELEMENT(#307,-3.);
#148=(
CONVERSION_BASED_UNIT('gram',#150)
MASS_UNIT()
NAMED_UNIT(#304)
);
#149=(
MASS_UNIT()
NAMED_UNIT(*)
SI_UNIT(.KILO.,.GRAM.)
);
#150=MASS_MEASURE_WITH_UNIT(MASS_MEASURE(0.001),#149);
#151=DERIVED_UNIT((#146,#147));
#152=MEASURE_REPRESENTATION_ITEM('density measure',
POSITIVE_RATIO_MEASURE(2.68),#151);
#153=PROPERTY_DEFINITION_REPRESENTATION(#162,#156);
#154=PROPERTY_DEFINITION_REPRESENTATION(#163,#157);
#155=PROPERTY_DEFINITION_REPRESENTATION(#164,#158);
#156=REPRESENTATION('material name',(#159),#301);
#157=REPRESENTATION('density',(#152),#301);
#158=REPRESENTATION('',(#160,#161),#301);
#159=DESCRIPTIVE_REPRESENTATION_ITEM('Aluminum 5052 H32',
'Aluminum 5052 H32');
#160=DESCRIPTIVE_REPRESENTATION_ITEM('','Flat length 0.000 in');
#161=DESCRIPTIVE_REPRESENTATION_ITEM('','Flat width 0.000 in');
#162=PROPERTY_DEFINITION('material property','material name',#316);
#163=PROPERTY_DEFINITION('material property','density of part',#316);
#164=PROPERTY_DEFINITION('semantic text','',#316);
#165=DATE_TIME_ROLE('creation_date');
#166=APPLIED_DATE_AND_TIME_ASSIGNMENT(#167,#165,(#316));
#167=DATE_AND_TIME(#168,#169);
#168=CALENDAR_DATE(2025,30,8);
#169=LOCAL_TIME(0,0,0.,#170);
#170=COORDINATED_UNIVERSAL_TIME_OFFSET(0,0,.BEHIND.);
#171=AXIS2_PLACEMENT_3D('',#258,#199,#200);
#172=AXIS2_PLACEMENT_3D('',#259,#201,#202);
#173=AXIS2_PLACEMENT_3D('',#261,#203,#204);
#174=AXIS2_PLACEMENT_3D('',#263,#205,#206);
#175=AXIS2_PLACEMENT_3D('',#264,#207,#208);
#176=AXIS2_PLACEMENT_3D('',#266,#209,#210);
#177=AXIS2_PLACEMENT_3D('',#268,#212,#213);
#178=AXIS2_PLACEMENT_3D('',#269,#214,#215);
#179=AXIS2_PLACEMENT_3D('',#271,#216,#217);
#180=AXIS2_PLACEMENT_3D('',#272,#218,#219);
#181=AXIS2_PLACEMENT_3D('',#274,#220,#221);
#182=AXIS2_PLACEMENT_3D('',#276,#223,#224);
#183=AXIS2_PLACEMENT_3D('',#278,#225,#226);
#184=AXIS2_PLACEMENT_3D('',#279,#227,#228);
#185=AXIS2_PLACEMENT_3D('',#281,#230,#231);
#186=AXIS2_PLACEMENT_3D('',#282,#232,#233);
#187=AXIS2_PLACEMENT_3D('view reference',#283,#234,#235);
#188=AXIS2_PLACEMENT_3D('view window',#284,#236,#237);
#189=AXIS2_PLACEMENT_3D('view reference',#286,#238,#239);
#190=AXIS2_PLACEMENT_3D('view window',#287,#240,#241);
#191=AXIS2_PLACEMENT_3D('view reference',#289,#242,#243);
#192=AXIS2_PLACEMENT_3D('view window',#290,#244,#245);
#193=AXIS2_PLACEMENT_3D('view reference',#292,#246,#247);
#194=AXIS2_PLACEMENT_3D('view window',#293,#248,#249);
#195=AXIS2_PLACEMENT_3D('',#295,#250,#251);
#196=AXIS2_PLACEMENT_3D('',#296,#252,#253);
#197=AXIS2_PLACEMENT_3D('',#297,#254,#255);
#198=AXIS2_PLACEMENT_3D('',#298,#256,#257);
#199=DIRECTION('axis',(0.,0.,1.));
#200=DIRECTION('refdir',(1.,0.,0.));
#201=DIRECTION('center_axis',(0.,-5.54064945193879E-17,1.));
#202=DIRECTION('ref_axis',(1.,0.,0.));
#203=DIRECTION('center_axis',(0.,-5.54064945193879E-17,1.));
#204=DIRECTION('ref_axis',(1.,0.,0.));
#205=DIRECTION('center_axis',(0.,-5.54064945193879E-17,1.));
#206=DIRECTION('ref_axis',(1.,0.,0.));
#207=DIRECTION('center_axis',(0.,-5.54064945193879E-17,1.));
#208=DIRECTION('ref_axis',(0.,1.,0.));
#209=DIRECTION('center_axis',(0.,-5.54064945193879E-17,1.));
#210=DIRECTION('ref_axis',(1.,0.,0.));
#211=DIRECTION('',(0.,5.54064945193879E-17,-1.));
#212=DIRECTION('center_axis',(0.,-5.54064945193879E-17,1.));
#213=DIRECTION('ref_axis',(1.,0.,0.));
#214=DIRECTION('center_axis',(0.,5.54064945193879E-17,-1.));
#215=DIRECTION('ref_axis',(-1.,0.,0.));
#216=DIRECTION('center_axis',(0.,-5.54064945193879E-17,1.));
#217=DIRECTION('ref_axis',(1.,0.,0.));
#218=DIRECTION('center_axis',(0.,-5.54064945193879E-17,1.));
#219=DIRECTION('ref_axis',(0.,1.,0.));
#220=DIRECTION('center_axis',(0.,-5.54064945193879E-17,1.));
#221=DIRECTION('ref_axis',(1.,0.,0.));
#222=DIRECTION('',(0.,5.54064945193879E-17,-1.));
#223=DIRECTION('center_axis',(0.,-5.54064945193879E-17,1.));
#224=DIRECTION('ref_axis',(1.,0.,0.));
#225=DIRECTION('center_axis',(0.,-5.54064945193879E-17,1.));
#226=DIRECTION('ref_axis',(1.,0.,0.));
#227=DIRECTION('center_axis',(0.,-5.54064945193879E-17,1.));
#228=DIRECTION('ref_axis',(0.,1.,0.));
#229=DIRECTION('',(0.,5.54064945193879E-17,-1.));
#230=DIRECTION('center_axis',(0.227303255586467,0.227303255586467,0.227303255586467));
#231=DIRECTION('ref_axis',(0.707106781186548,2.4980018054066E-16,-0.707106781186547));
#232=DIRECTION('center_axis',(0.,0.,1.));
#233=DIRECTION('ref_axis',(1.,0.,0.));
#234=DIRECTION('center_axis',(-0.577350269189626,-0.577350269189626,-0.577350269189626));
#235=DIRECTION('ref_axis',(-0.707106781186548,0.,0.707106781186548));
#236=DIRECTION('center_axis',(0.,0.,1.));
#237=DIRECTION('ref_axis',(1.,0.,0.));
#238=DIRECTION('center_axis',(4.44089209850062E-16,0.,-1.));
#239=DIRECTION('ref_axis',(-1.,0.,-4.44089209850062E-16));
#240=DIRECTION('center_axis',(0.,0.,1.));
#241=DIRECTION('ref_axis',(1.,0.,0.));
#242=DIRECTION('center_axis',(0.,-1.,0.));
#243=DIRECTION('ref_axis',(-1.,0.,0.));
#244=DIRECTION('center_axis',(0.,0.,1.));
#245=DIRECTION('ref_axis',(1.,0.,0.));
#246=DIRECTION('center_axis',(-1.,0.,0.));
#247=DIRECTION('ref_axis',(0.,0.,1.));
#248=DIRECTION('center_axis',(0.,0.,1.));
#249=DIRECTION('ref_axis',(1.,0.,0.));
#250=DIRECTION('center_axis',(0.,0.,1.));
#251=DIRECTION('ref_axis',(1.,0.,0.));
#252=DIRECTION('center_axis',(0.,0.,1.));
#253=DIRECTION('ref_axis',(1.,0.,0.));
#254=DIRECTION('center_axis',(0.,0.,1.));
#255=DIRECTION('ref_axis',(1.,0.,0.));
#256=DIRECTION('center_axis',(0.,0.,1.));
#257=DIRECTION('ref_axis',(1.,0.,0.));
#258=CARTESIAN_POINT('',(0.,0.,0.));
#259=CARTESIAN_POINT('Origin',(0.,-1.228,-1.345));
#260=CARTESIAN_POINT('',(7.65404249467096E-17,-2.353,-1.345));
#261=CARTESIAN_POINT('Origin',(0.,-1.728,-1.345));
#262=CARTESIAN_POINT('',(6.12323399573676E-17,-2.228,-1.345));
#263=CARTESIAN_POINT('Origin',(0.,-1.728,-1.345));
#264=CARTESIAN_POINT('Origin',(0.,-1.728,0.485000000000005));
#265=CARTESIAN_POINT('',(6.12323399573676E-17,-2.228,0.315000000000006));
#266=CARTESIAN_POINT('Origin',(0.,-1.728,0.315000000000006));
#267=CARTESIAN_POINT('',(6.12323399573676E-17,-2.228,0.485000000000005));
#268=CARTESIAN_POINT('Origin',(0.,-1.728,0.315000000000006));
#269=CARTESIAN_POINT('Origin',(0.,-0.977999999999999,-4.785));
#270=CARTESIAN_POINT('',(9.18485099360515E-17,-2.478,-4.785));
#271=CARTESIAN_POINT('Origin',(0.,-1.728,-4.785));
#272=CARTESIAN_POINT('Origin',(0.,-1.728,-3.285));
#273=CARTESIAN_POINT('',(9.18485099360515E-17,-2.478,-1.785));
#274=CARTESIAN_POINT('Origin',(0.,-1.728,-1.785));
#275=CARTESIAN_POINT('',(9.18485099360515E-17,-2.478,-3.285));
#276=CARTESIAN_POINT('Origin',(0.,-1.103,-1.785));
#277=CARTESIAN_POINT('',(7.65404249467096E-17,-2.353,-1.785));
#278=CARTESIAN_POINT('Origin',(0.,-1.728,-1.785));
#279=CARTESIAN_POINT('Origin',(0.,-1.728,-1.565));
#280=CARTESIAN_POINT('',(7.65404249467096E-17,-2.353,-1.565));
#281=CARTESIAN_POINT('Origin',(2.19167066257912,-4.04243164467144,-4.39699194356067));
#282=CARTESIAN_POINT('Origin',(0.,0.,0.));
#283=CARTESIAN_POINT('Origin',(0.245290792424413,0.245290792424413,0.245290792424413));
#284=CARTESIAN_POINT('Origin',(-0.723867849852102,-0.393700787401575,0.424856115107914));
#285=CARTESIAN_POINT('',(0.,0.,0.));
#286=CARTESIAN_POINT('Origin',(-1.23101125816757E-15,0.,2.77199092178618));
#287=CARTESIAN_POINT('Origin',(-0.825277937818748,-0.393700787401575,2.77199092178618));
#288=CARTESIAN_POINT('',(0.,0.,0.));
#289=CARTESIAN_POINT('Origin',(0.,2.77199092178618,0.));
#290=CARTESIAN_POINT('Origin',(-0.825277937818748,-0.393700787401575,2.77199092178618));
#291=CARTESIAN_POINT('',(0.,0.,0.));
#292=CARTESIAN_POINT('Origin',(2.77199092178618,0.,0.));
#293=CARTESIAN_POINT('Origin',(-0.825277937818748,-0.393700787401575,2.77199092178618));
#294=CARTESIAN_POINT('',(0.,0.,0.));
#295=CARTESIAN_POINT('Origin',(0.,0.,0.));
#296=CARTESIAN_POINT('Origin',(0.,0.,0.));
#297=CARTESIAN_POINT('Origin',(0.,0.,0.));
#298=CARTESIAN_POINT('Origin',(0.,0.,0.));
#299=UNCERTAINTY_MEASURE_WITH_UNIT(LENGTH_MEASURE(0.000393700787401575),
#305,'DISTANCE_ACCURACY_VALUE',
'Maximum model space distance between geometric entities at asserted c
onnectivities');
#300=UNCERTAINTY_MEASURE_WITH_UNIT(LENGTH_MEASURE(0.000393700787401575),
#305,'DISTANCE_ACCURACY_VALUE',
'Maximum model space distance between geometric entities at asserted c
onnectivities');
#301=(
GEOMETRIC_REPRESENTATION_CONTEXT(3)
GLOBAL_UNCERTAINTY_ASSIGNED_CONTEXT((#299))
GLOBAL_UNIT_ASSIGNED_CONTEXT((#305,#309,#310))
REPRESENTATION_CONTEXT('','3D')
);
#302=(
GEOMETRIC_REPRESENTATION_CONTEXT(3)
GLOBAL_UNCERTAINTY_ASSIGNED_CONTEXT((#300))
GLOBAL_UNIT_ASSIGNED_CONTEXT((#305,#309,#310))
REPRESENTATION_CONTEXT('','3D')
);
#303=DIMENSIONAL_EXPONENTS(1.,0.,0.,0.,0.,0.,0.);
#304=DIMENSIONAL_EXPONENTS(0.,1.,0.,0.,0.,0.,0.);
#305=(
CONVERSION_BASED_UNIT('inch',#308)
LENGTH_UNIT()
NAMED_UNIT(#303)
);
#306=(
LENGTH_UNIT()
NAMED_UNIT(*)
SI_UNIT(.MILLI.,.METRE.)
);
#307=(
LENGTH_UNIT()
NAMED_UNIT(*)
SI_UNIT(.CENTI.,.METRE.)
);
#308=LENGTH_MEASURE_WITH_UNIT(LENGTH_MEASURE(25.4),#306);
#309=(
NAMED_UNIT(*)
PLANE_ANGLE_UNIT()
SI_UNIT($,.RADIAN.)
);
#310=(
NAMED_UNIT(*)
SI_UNIT($,.STERADIAN.)
SOLID_ANGLE_UNIT()
);
#311=SHAPE_DEFINITION_REPRESENTATION(#312,#313);
#312=PRODUCT_DEFINITION_SHAPE('',$,#316);
#313=SHAPE_REPRESENTATION('',(#171,#66),#301);
#314=PRODUCT_DEFINITION_CONTEXT('part definition',#322,'design');
#315=PRODUCT_DEFINITION_CONTEXT('',#324,'design');
#316=PRODUCT_DEFINITION('OM_CAGE_BT-002','Brush Idler Shaft_RevA',#317,
#314);
#317=PRODUCT_DEFINITION_FORMATION('',$,#327);
#318=PRODUCT_DEFINITION_FORMATION('ASME Y14.41-2003','',#328);
#319=PRODUCT_RELATED_PRODUCT_CATEGORY('Brush Idler Shaft_RevA',
'Brush Idler Shaft_RevA',(#327));
#320=PRODUCT_RELATED_PRODUCT_CATEGORY('document','',(#328));
#321=APPLICATION_PROTOCOL_DEFINITION('international standard',
'ap242_managed_model_based_3d_engineering',2011,#322);
#322=APPLICATION_CONTEXT('Managed model based 3d engineering');
#323=APPLICATION_CONTEXT('product and manufacturing information');
#324=APPLICATION_CONTEXT('model based 3d annotation presentation');
#325=PRODUCT_CONTEXT('part definition',#322,'mechanical');
#326=PRODUCT_CONTEXT('',#323,'mechanical');
#327=PRODUCT('OM_CAGE_BT-002','Brush Idler Shaft_RevA','IDLER SHAFT',(#325));
#328=PRODUCT('ASME Y14.41','','',(#326));
#329=CURVE_STYLE('',#330,$,#345);
#330=DRAUGHTING_PRE_DEFINED_CURVE_FONT('continuous');
#331=PRESENTATION_STYLE_ASSIGNMENT((#335));
#332=PRESENTATION_STYLE_ASSIGNMENT((#329));
#333=PRESENTATION_STYLE_ASSIGNMENT((#341));
#334=PRESENTATION_STYLE_ASSIGNMENT((NULL_STYLE(.NULL.)));
#335=SURFACE_STYLE_USAGE(.BOTH.,#338);
#336=SURFACE_STYLE_RENDERING_WITH_PROPERTIES($,#344,(#337));
#337=SURFACE_STYLE_TRANSPARENT(0.);
#338=SURFACE_SIDE_STYLE('',(#339,#336));
#339=SURFACE_STYLE_FILL_AREA(#340);
#340=FILL_AREA_STYLE('',(#342));
#341=FILL_AREA_STYLE('Plane',(#343));
#342=FILL_AREA_STYLE_COLOUR('',#344);
#343=FILL_AREA_STYLE_COLOUR('Plane',#63);
#344=COLOUR_RGB('',0.749019607843137,0.749019607843137,0.749019607843137);
#345=COLOUR_RGB('',0.129411764705882,0.129411764705882,0.129411764705882);
ENDSEC;
END-ISO-10303-21;
