ISO-10303-21;
HEADER;
/* Generated by software containing ST-Developer
 * from STEP Tools, Inc. (www.steptools.com) 
 */

FILE_DESCRIPTION(
/* description */ ('1-3/4" OD X 1/8" WALL TUBE',
'CAx-IF Rec.Pracs.---Representation and Presentation of Product Manufa
cturing Information (PMI)---4.0---2014-10-13'),
/* implementation_level */ '2;1');

FILE_NAME(
/* name */ 'OM_CAGE_BT-001.stp',
/* time_stamp */ '2026-01-05T16:29:39-06:00',
/* author */ ('marcus'),
/* organization */ (''),
/* preprocessor_version */ 'ST-DEVELOPER v20',
/* originating_system */ 'Autodesk Inventor 2025',
/* authorisation */ '');

FILE_SCHEMA (('AP242_MANAGED_MODEL_BASED_3D_ENGINEERING_MIM_LF { 1 0 10303 442 1 1 4 }'));
ENDSEC;

DATA;
#10=MECHANICAL_DESIGN_AND_DRAUGHTING_RELATIONSHIP('Isometric','',#51,#50);
#11=MECHANICAL_DESIGN_AND_DRAUGHTING_RELATIONSHIP('Front','',#52,#50);
#12=MECHANICAL_DESIGN_AND_DRAUGHTING_RELATIONSHIP('Top','',#53,#50);
#13=MECHANICAL_DESIGN_AND_DRAUGHTING_RELATIONSHIP('Right','',#54,#50);
#14=ADVANCED_BREP_SHAPE_REPRESENTATION('Isometric',(#66),#250);
#15=MECHANICAL_DESIGN_GEOMETRIC_PRESENTATION_REPRESENTATION('',(#64,#65),
#251);
#16=CAMERA_MODEL_D3('Isometric',#155,#20);
#17=CAMERA_MODEL_D3('Front',#157,#21);
#18=CAMERA_MODEL_D3('Top',#159,#22);
#19=CAMERA_MODEL_D3('Right',#161,#23);
#20=VIEW_VOLUME(.PARALLEL.,#234,0.424856115107914,0.,.F.,0.,.F.,.F.,#24);
#21=VIEW_VOLUME(.PARALLEL.,#237,2.77199092178618,0.,.F.,0.,.F.,.F.,#25);
#22=VIEW_VOLUME(.PARALLEL.,#240,2.77199092178618,0.,.F.,0.,.F.,.F.,#26);
#23=VIEW_VOLUME(.PARALLEL.,#243,2.77199092178618,0.,.F.,0.,.F.,.F.,#27);
#24=PLANAR_BOX('view window',1.4477356997042,0.78740157480315,#156);
#25=PLANAR_BOX('view window',1.6505558756375,0.78740157480315,#158);
#26=PLANAR_BOX('view window',1.6505558756375,0.78740157480315,#160);
#27=PLANAR_BOX('view window',1.6505558756375,0.78740157480315,#162);
#28=PRODUCT_DEFINITION_CONTEXT_ASSOCIATION(#265,#264,#29);
#29=PRODUCT_DEFINITION_CONTEXT_ROLE('additional context','');
#30=ROLE_ASSOCIATION(#31,#32);
#31=OBJECT_ROLE('mandatory','');
#32=APPLIED_DOCUMENT_REFERENCE(#34,'',(#264));
#33=DOCUMENT_PRODUCT_EQUIVALENCE('equivalence','',#34,#267);
#34=DOCUMENT('','','',#35);
#35=DOCUMENT_TYPE('configuration controlled document version');
#36=GENERAL_PROPERTY_ASSOCIATION('','',#37,#137);
#37=GENERAL_PROPERTY('','semantic text','');
#38=DRAUGHTING_MODEL_ITEM_ASSOCIATION('','',#261,#50,#55);
#39=DRAUGHTING_MODEL_ITEM_ASSOCIATION(
'PMI representation to presentation link','',#137,#50,#55);
#40=MAPPED_ITEM('',#45,#154);
#41=MAPPED_ITEM('',#46,#163);
#42=MAPPED_ITEM('',#47,#164);
#43=MAPPED_ITEM('',#48,#165);
#44=MAPPED_ITEM('',#49,#166);
#45=REPRESENTATION_MAP(#154,#262);
#46=REPRESENTATION_MAP(#163,#14);
#47=REPRESENTATION_MAP(#164,#14);
#48=REPRESENTATION_MAP(#165,#14);
#49=REPRESENTATION_MAP(#166,#14);
#50=DRAUGHTING_MODEL('',(#40,#154,#62),#250);
#51=DRAUGHTING_MODEL('Isometric',(#41,#55,#16),#250);
#52=DRAUGHTING_MODEL('Front',(#42,#55,#17),#250);
#53=DRAUGHTING_MODEL('Top',(#43,#55,#18),#250);
#54=DRAUGHTING_MODEL('Right',(#44,#55,#19),#250);
#55=DRAUGHTING_CALLOUT('General Note 1',(#56));
#56=TESSELLATED_ANNOTATION_OCCURRENCE('general note 1',(#281),#57);
#57=TESSELLATED_GEOMETRIC_SET('general note',(#58,#59));
#58=COMPLEX_TRIANGULATED_SURFACE_SET('surface set',#60,636,(),(),(),((1,
2,10),(10,2,9),(9,2,3),(9,3,6),(6,3,4),(6,4,5),(7,8,6),(6,8,9),(11,12,14),
(14,12,13),(30,15,58),(58,15,16),(58,16,35),(35,16,17),(35,17,34),(34,17,
32),(34,32,33),(17,18,32),(32,18,31),(31,18,76),(76,18,19),(76,19,75),(75,
19,20),(75,20,74),(74,20,73),(73,20,21),(73,21,72),(72,21,71),(71,21,22),
(71,22,70),(70,22,69),(69,22,23),(69,23,68),(68,23,67),(67,23,66),(66,23,
24),(66,24,65),(65,24,64),(64,24,25),(64,25,63),(63,25,62),(62,25,26),(62,
26,61),(61,26,27),(61,27,60),(60,27,28),(60,28,59),(59,28,29),(59,29,30),
(59,30,58),(58,35,57),(57,35,36),(57,36,56),(56,36,37),(56,37,55),(55,37,
38),(55,38,39),(55,39,54),(54,39,40),(54,40,53),(53,40,41),(53,41,52),(52,
41,42),(52,42,51),(51,42,43),(51,43,50),(50,43,44),(50,44,49),(49,44,45),
(49,45,48),(48,45,46),(48,46,47),(78,102,77),(77,102,103),(77,103,109),
(109,103,104),(109,104,108),(108,104,105),(108,105,106),(79,100,78),(78,
100,101),(78,101,102),(100,79,99),(99,79,80),(99,80,98),(98,80,81),(98,
81,82),(82,83,98),(98,83,84),(98,84,97),(97,84,85),(97,85,96),(96,85,86),
(96,86,95),(95,86,92),(95,92,93),(92,86,89),(89,86,87),(89,87,88),(90,91,
89),(89,91,92),(93,94,95),(106,107,108),(110,111,113),(113,111,112),(115,
154,114),(114,154,137),(114,137,138),(116,151,115),(115,151,152),(115,152,
153),(151,116,150),(150,116,117),(150,117,149),(149,117,118),(149,118,148),
(148,118,147),(147,118,119),(147,119,146),(146,119,120),(146,120,145),(145,
120,121),(145,121,144),(144,121,122),(144,122,123),(144,123,143),(143,123,
124),(143,124,142),(142,124,125),(142,125,141),(141,125,140),(140,125,126),
(140,126,139),(139,126,127),(139,127,138),(138,127,114),(129,161,128),(128,
161,162),(128,162,172),(172,162,163),(172,163,171),(171,163,170),(170,163,
164),(170,164,169),(169,164,165),(169,165,168),(168,165,167),(167,165,166),
(161,129,160),(160,129,130),(160,130,159),(159,130,131),(159,131,158),(158,
131,132),(158,132,157),(157,132,133),(157,133,156),(156,133,134),(156,134,
155),(155,134,135),(155,135,154),(154,135,136),(154,136,137),(153,154,115),
(174,175,173),(173,175,202),(202,175,176),(202,176,201),(201,176,200),(200,
176,177),(200,177,199),(199,177,178),(199,178,198),(198,178,197),(197,178,
179),(197,179,196),(196,179,180),(196,180,195),(195,180,181),(195,181,194),
(194,181,182),(194,182,193),(193,182,183),(193,183,192),(192,183,184),(192,
184,191),(191,184,190),(190,184,185),(190,185,188),(188,185,187),(187,185,
186),(188,189,190),(204,242,203),(203,242,243),(203,243,244),(205,239,204),
(204,239,240),(204,240,242),(242,240,241),(239,205,265),(265,205,206),(265,
206,264),(264,206,207),(264,207,263),(263,207,208),(263,208,262),(262,208,
209),(262,209,261),(261,209,210),(261,210,260),(260,210,211),(260,211,259),
(259,211,212),(259,212,213),(259,213,258),(258,213,214),(258,214,257),(257,
214,256),(256,214,215),(256,215,255),(255,215,216),(255,216,254),(254,216,
217),(254,217,253),(253,217,252),(252,217,218),(252,218,251),(251,218,219),
(251,219,250),(250,219,220),(250,220,249),(249,220,221),(249,221,248),(248,
221,222),(248,222,247),(247,222,223),(247,223,246),(246,223,224),(246,224,
245),(245,224,225),(245,225,244),(244,225,203),(227,229,226),(226,229,230),
(226,230,275),(275,230,274),(274,230,231),(274,231,273),(273,231,272),(272,
231,232),(272,232,271),(271,232,233),(271,233,270),(270,233,234),(270,234,
269),(269,234,235),(269,235,268),(268,235,267),(267,235,236),(267,236,237),
(227,228,229),(267,237,266),(266,237,238),(266,238,239),(265,266,239),(277,
301,276),(276,301,302),(276,302,308),(308,302,303),(308,303,307),(307,303,
304),(307,304,305),(278,299,277),(277,299,300),(277,300,301),(299,278,298),
(298,278,279),(298,279,297),(297,279,280),(297,280,281),(281,282,297),(297,
282,283),(297,283,296),(296,283,284),(296,284,295),(295,284,285),(295,285,
294),(294,285,291),(294,291,292),(291,285,288),(288,285,286),(288,286,287),
(289,290,288),(288,290,291),(292,293,294),(305,306,307),(310,311,309),(309,
311,338),(338,311,312),(338,312,337),(337,312,336),(336,312,335),(335,312,
313),(335,313,334),(334,313,314),(334,314,333),(333,314,332),(332,314,315),
(332,315,316),(332,316,331),(331,316,317),(331,317,330),(330,317,318),(330,
318,329),(329,318,319),(329,319,328),(328,319,320),(328,320,327),(327,320,
326),(326,320,321),(326,321,324),(324,321,323),(323,321,322),(324,325,326),
(340,376,339),(339,376,377),(339,377,370),(370,377,378),(370,378,369),(369,
378,379),(369,379,368),(368,379,367),(367,379,380),(367,380,366),(366,380,
381),(366,381,365),(365,381,382),(365,382,364),(364,382,383),(364,383,363),
(363,383,384),(363,384,385),(376,340,375),(375,340,341),(375,341,374),(374,
341,373),(373,341,342),(373,342,372),(372,342,343),(372,343,371),(371,343,
344),(371,344,345),(371,345,402),(402,345,346),(402,346,401),(401,346,400),
(400,346,347),(400,347,399),(399,347,348),(399,348,398),(398,348,349),(398,
349,397),(397,349,350),(397,350,396),(396,350,351),(396,351,395),(395,351,
352),(395,352,353),(395,353,394),(394,353,354),(394,354,393),(393,354,355),
(393,355,392),(392,355,356),(392,356,391),(391,356,357),(391,357,390),(390,
357,389),(389,357,358),(389,358,388),(388,358,359),(388,359,387),(387,359,
360),(387,360,361),(387,361,386),(386,361,362),(386,362,385),(385,362,363),
(403,404,406),(406,404,405),(408,444,407),(407,444,445),(407,445,438),(438,
445,446),(438,446,437),(437,446,447),(437,447,436),(436,447,435),(435,447,
448),(435,448,434),(434,448,449),(434,449,433),(433,449,450),(433,450,432),
(432,450,451),(432,451,431),(431,451,452),(431,452,453),(444,408,443),(443,
408,409),(443,409,442),(442,409,441),(441,409,410),(441,410,440),(440,410,
411),(440,411,439),(439,411,412),(439,412,413),(439,413,470),(470,413,414),
(470,414,469),(469,414,468),(468,414,415),(468,415,467),(467,415,416),(467,
416,466),(466,416,417),(466,417,465),(465,417,418),(465,418,464),(464,418,
419),(464,419,463),(463,419,420),(463,420,421),(463,421,462),(462,421,422),
(462,422,461),(461,422,423),(461,423,460),(460,423,424),(460,424,459),(459,
424,425),(459,425,458),(458,425,457),(457,425,426),(457,426,456),(456,426,
427),(456,427,455),(455,427,428),(455,428,429),(455,429,454),(454,429,430),
(454,430,453),(453,430,431),(472,508,471),(471,508,509),(471,509,502),(502,
509,510),(502,510,501),(501,510,511),(501,511,500),(500,511,499),(499,511,
512),(499,512,498),(498,512,513),(498,513,497),(497,513,514),(497,514,496),
(496,514,515),(496,515,495),(495,515,516),(495,516,517),(508,472,507),(507,
472,473),(507,473,506),(506,473,505),(505,473,474),(505,474,504),(504,474,
475),(504,475,503),(503,475,476),(503,476,477),(503,477,534),(534,477,478),
(534,478,533),(533,478,532),(532,478,479),(532,479,531),(531,479,480),(531,
480,530),(530,480,481),(530,481,529),(529,481,482),(529,482,528),(528,482,
483),(528,483,527),(527,483,484),(527,484,485),(527,485,526),(526,485,486),
(526,486,525),(525,486,487),(525,487,524),(524,487,488),(524,488,523),(523,
488,489),(523,489,522),(522,489,521),(521,489,490),(521,490,520),(520,490,
491),(520,491,519),(519,491,492),(519,492,493),(519,493,518),(518,493,494),
(518,494,517),(517,494,495),(536,572,535),(535,572,573),(535,573,566),(566,
573,574),(566,574,565),(565,574,575),(565,575,564),(564,575,563),(563,575,
576),(563,576,562),(562,576,577),(562,577,561),(561,577,578),(561,578,560),
(560,578,579),(560,579,559),(559,579,580),(559,580,581),(572,536,571),(571,
536,537),(571,537,570),(570,537,569),(569,537,538),(569,538,568),(568,538,
539),(568,539,567),(567,539,540),(567,540,541),(567,541,598),(598,541,542),
(598,542,597),(597,542,596),(596,542,543),(596,543,595),(595,543,544),(595,
544,594),(594,544,545),(594,545,593),(593,545,546),(593,546,592),(592,546,
547),(592,547,591),(591,547,548),(591,548,549),(591,549,590),(590,549,550),
(590,550,589),(589,550,551),(589,551,588),(588,551,552),(588,552,587),(587,
552,553),(587,553,586),(586,553,585),(585,553,554),(585,554,584),(584,554,
555),(584,555,583),(583,555,556),(583,556,557),(583,557,582),(582,557,558),
(582,558,581),(581,558,559),(599,600,602),(602,600,601),(603,604,606),(606,
604,605),(608,609,607),(607,609,636),(636,609,610),(636,610,635),(635,610,
634),(634,610,611),(634,611,633),(633,611,612),(633,612,632),(632,612,631),
(631,612,613),(631,613,630),(630,613,614),(630,614,629),(629,614,615),(629,
615,628),(628,615,616),(628,616,627),(627,616,617),(627,617,626),(626,617,
618),(626,618,625),(625,618,624),(624,618,619),(624,619,622),(622,619,621),
(621,619,620),(622,623,624)));
#59=COMPLEX_TRIANGULATED_SURFACE_SET('surface set',#61,543,(),(),(),((1,
2,10),(10,2,9),(9,2,3),(9,3,6),(6,3,4),(6,4,5),(7,8,6),(6,8,9),(11,12,14),
(14,12,13),(30,15,58),(58,15,16),(58,16,35),(35,16,17),(35,17,34),(34,17,
32),(34,32,33),(17,18,32),(32,18,31),(31,18,76),(76,18,19),(76,19,75),(75,
19,20),(75,20,74),(74,20,73),(73,20,21),(73,21,72),(72,21,71),(71,21,22),
(71,22,70),(70,22,69),(69,22,23),(69,23,68),(68,23,67),(67,23,66),(66,23,
24),(66,24,65),(65,24,64),(64,24,25),(64,25,63),(63,25,62),(62,25,26),(62,
26,61),(61,26,27),(61,27,60),(60,27,28),(60,28,59),(59,28,29),(59,29,30),
(59,30,58),(58,35,57),(57,35,36),(57,36,56),(56,36,37),(56,37,55),(55,37,
38),(55,38,39),(55,39,54),(54,39,40),(54,40,53),(53,40,41),(53,41,52),(52,
41,42),(52,42,51),(51,42,43),(51,43,50),(50,43,44),(50,44,49),(49,44,45),
(49,45,48),(48,45,46),(48,46,47),(78,102,77),(77,102,103),(77,103,109),
(109,103,104),(109,104,108),(108,104,105),(108,105,106),(79,100,78),(78,
100,101),(78,101,102),(100,79,99),(99,79,80),(99,80,98),(98,80,81),(98,
81,82),(82,83,98),(98,83,84),(98,84,97),(97,84,85),(97,85,96),(96,85,86),
(96,86,95),(95,86,92),(95,92,93),(92,86,89),(89,86,87),(89,87,88),(90,91,
89),(89,91,92),(93,94,95),(106,107,108),(122,110,121),(121,110,111),(121,
111,112),(112,113,121),(121,113,120),(120,113,119),(119,113,118),(118,113,
114),(118,114,115),(115,116,118),(118,116,117),(123,124,126),(126,124,125),
(127,128,130),(130,128,129),(132,157,131),(131,157,158),(131,158,154),(154,
158,159),(154,159,153),(153,159,160),(153,160,152),(152,160,161),(152,161,
151),(151,161,162),(151,162,150),(150,162,163),(150,163,149),(149,163,164),
(149,164,148),(148,164,165),(148,165,147),(147,165,166),(147,166,146),(146,
166,167),(146,167,145),(145,167,168),(145,168,144),(144,168,169),(144,169,
170),(157,132,155),(155,132,133),(155,133,182),(182,133,180),(182,180,181),
(133,134,180),(180,134,179),(179,134,135),(179,135,178),(178,135,136),(178,
136,177),(177,136,137),(177,137,176),(176,137,138),(176,138,175),(175,138,
139),(175,139,174),(174,139,140),(174,140,173),(173,140,141),(173,141,172),
(172,141,142),(172,142,171),(171,142,143),(171,143,170),(170,143,144),(155,
156,157),(184,208,183),(183,208,209),(183,209,215),(215,209,210),(215,210,
214),(214,210,211),(214,211,212),(185,206,184),(184,206,207),(184,207,208),
(206,185,205),(205,185,186),(205,186,204),(204,186,187),(204,187,188),(188,
189,204),(204,189,190),(204,190,203),(203,190,191),(203,191,202),(202,191,
192),(202,192,201),(201,192,198),(201,198,199),(198,192,195),(195,192,193),
(195,193,194),(196,197,195),(195,197,198),(199,200,201),(212,213,214),(217,
218,216),(216,218,245),(245,218,219),(245,219,244),(244,219,243),(243,219,
242),(242,219,220),(242,220,241),(241,220,221),(241,221,240),(240,221,239),
(239,221,222),(239,222,223),(239,223,238),(238,223,224),(238,224,237),(237,
224,225),(237,225,236),(236,225,226),(236,226,235),(235,226,227),(235,227,
234),(234,227,233),(233,227,228),(233,228,231),(231,228,230),(230,228,229),
(231,232,233),(247,283,246),(246,283,284),(246,284,277),(277,284,285),(277,
285,276),(276,285,286),(276,286,275),(275,286,274),(274,286,287),(274,287,
273),(273,287,288),(273,288,272),(272,288,289),(272,289,271),(271,289,290),
(271,290,270),(270,290,291),(270,291,292),(283,247,282),(282,247,248),(282,
248,281),(281,248,280),(280,248,249),(280,249,279),(279,249,250),(279,250,
278),(278,250,251),(278,251,252),(278,252,309),(309,252,253),(309,253,308),
(308,253,307),(307,253,254),(307,254,306),(306,254,255),(306,255,305),(305,
255,256),(305,256,304),(304,256,257),(304,257,303),(303,257,258),(303,258,
302),(302,258,259),(302,259,260),(302,260,301),(301,260,261),(301,261,300),
(300,261,262),(300,262,299),(299,262,263),(299,263,298),(298,263,264),(298,
264,297),(297,264,296),(296,264,265),(296,265,295),(295,265,266),(295,266,
294),(294,266,267),(294,267,268),(294,268,293),(293,268,269),(293,269,292),
(292,269,270),(310,311,313),(313,311,312),(315,351,314),(314,351,352),(314,
352,345),(345,352,353),(345,353,344),(344,353,354),(344,354,343),(343,354,
342),(342,354,355),(342,355,341),(341,355,356),(341,356,340),(340,356,357),
(340,357,339),(339,357,358),(339,358,338),(338,358,359),(338,359,360),(351,
315,350),(350,315,316),(350,316,349),(349,316,348),(348,316,317),(348,317,
347),(347,317,318),(347,318,346),(346,318,319),(346,319,320),(346,320,377),
(377,320,321),(377,321,376),(376,321,375),(375,321,322),(375,322,374),(374,
322,323),(374,323,373),(373,323,324),(373,324,372),(372,324,325),(372,325,
371),(371,325,326),(371,326,370),(370,326,327),(370,327,328),(370,328,369),
(369,328,329),(369,329,368),(368,329,330),(368,330,367),(367,330,331),(367,
331,366),(366,331,332),(366,332,365),(365,332,364),(364,332,333),(364,333,
363),(363,333,334),(363,334,362),(362,334,335),(362,335,336),(362,336,361),
(361,336,337),(361,337,360),(360,337,338),(379,415,378),(378,415,416),(378,
416,409),(409,416,417),(409,417,408),(408,417,418),(408,418,407),(407,418,
406),(406,418,419),(406,419,405),(405,419,420),(405,420,404),(404,420,421),
(404,421,403),(403,421,422),(403,422,402),(402,422,423),(402,423,424),(415,
379,414),(414,379,380),(414,380,413),(413,380,412),(412,380,381),(412,381,
411),(411,381,382),(411,382,410),(410,382,383),(410,383,384),(410,384,441),
(441,384,385),(441,385,440),(440,385,439),(439,385,386),(439,386,438),(438,
386,387),(438,387,437),(437,387,388),(437,388,436),(436,388,389),(436,389,
435),(435,389,390),(435,390,434),(434,390,391),(434,391,392),(434,392,433),
(433,392,393),(433,393,432),(432,393,394),(432,394,431),(431,394,395),(431,
395,430),(430,395,396),(430,396,429),(429,396,428),(428,396,397),(428,397,
427),(427,397,398),(427,398,426),(426,398,399),(426,399,400),(426,400,425),
(425,400,401),(425,401,424),(424,401,402),(443,479,442),(442,479,480),(442,
480,473),(473,480,481),(473,481,472),(472,481,482),(472,482,471),(471,482,
470),(470,482,483),(470,483,469),(469,483,484),(469,484,468),(468,484,485),
(468,485,467),(467,485,486),(467,486,466),(466,486,487),(466,487,488),(479,
443,478),(478,443,444),(478,444,477),(477,444,476),(476,444,445),(476,445,
475),(475,445,446),(475,446,474),(474,446,447),(474,447,448),(474,448,505),
(505,448,449),(505,449,504),(504,449,503),(503,449,450),(503,450,502),(502,
450,451),(502,451,501),(501,451,452),(501,452,500),(500,452,453),(500,453,
499),(499,453,454),(499,454,498),(498,454,455),(498,455,456),(498,456,497),
(497,456,457),(497,457,496),(496,457,458),(496,458,495),(495,458,459),(495,
459,494),(494,459,460),(494,460,493),(493,460,492),(492,460,461),(492,461,
491),(491,461,462),(491,462,490),(490,462,463),(490,463,464),(490,464,489),
(489,464,465),(489,465,488),(488,465,466),(506,507,509),(509,507,508),(510,
511,513),(513,511,512),(515,516,514),(514,516,543),(543,516,517),(543,517,
542),(542,517,541),(541,517,518),(541,518,540),(540,518,519),(540,519,539),
(539,519,538),(538,519,520),(538,520,537),(537,520,521),(537,521,536),(536,
521,522),(536,522,535),(535,522,523),(535,523,534),(534,523,524),(534,524,
533),(533,524,525),(533,525,532),(532,525,531),(531,525,526),(531,526,529),
(529,526,528),(528,526,527),(529,530,531)));
#60=COORDINATES_LIST('coordinates',636,((-11.1847941394224,-65.3742561455782,
-113.114038984696),(-11.4352596573188,-65.3742561455782,-112.863573466799),
(-11.3475889181294,-65.549597623957,-112.77590272761),(-11.1075958260684,
-65.549597623957,-113.015895819671),(-11.0708144239947,-65.6231604281044,
-112.979114417597),(-11.3108075160557,-65.6231604281044,-112.739121325536),
(-11.1611626336462,-65.9224501929233,-112.589476443127),(-11.2327242101881,
-65.9224501929233,-112.517914866585),(-11.5436026359343,-65.3006933414308,
-112.828793292331),(-11.2215755414961,-65.3006933414308,-113.15082038677),
(-10.7824098992663,-65.9224501929233,-112.968229177507),(-10.8504806671964,
-65.9224501929233,-112.900158409577),(-11.1752151005731,-65.2729813261698,
-113.224892842954),(-11.1071443326431,-65.2729813261698,-113.292963610884),
(-10.6055777300128,-65.6810407508882,-113.386470788795),(-10.5795131418527,
-65.6780806038035,-113.41549552404),(-10.5147677971065,-65.8075712932959,
-113.350750179294),(-10.5438628158718,-65.8471238968957,-113.282102556929),
(-10.565510236363,-65.8590274670873,-113.248551566246),(-10.5939617955818,
-65.8629953238179,-113.216132150297),(-10.6295661546658,-65.8578937937357,
-113.185629321295),(-10.6613268467642,-65.8425892034893,-113.169173219443),
(-10.6887445389477,-65.8172075167844,-113.167137213964),(-10.711319898287,
-65.7818746973266,-113.179894674083),(-10.7226158159277,-65.7504467527464,
-113.200026701022),(-10.721233731245,-65.726702594216,-113.225152944235),
(-10.7098761303808,-65.7093825846779,-113.253830554638),(-10.691245499477,
-65.6972270870747,-113.284616683145),(-10.6682411023836,-65.6901101377009,
-113.314738029612),(-10.6374194480426,-65.684882643913,-113.350787177741),
(-10.4944459694694,-65.8927227583706,-113.285920541856),(-10.4820172336162,
-65.8730724202764,-113.317999615804),(-10.4573283472928,-65.9224501929233,
-113.29331072948),(-10.3892575793628,-65.9224501929233,-113.36138149741),
(-10.5487276308193,-65.6035100900102,-113.520851548867),(-10.5717034907437,
-65.5630127586174,-113.538373020335),(-10.5967957009221,-65.5291915036284,
-113.547102065146),(-10.6243652765351,-65.5015424702202,-113.547181522941),
(-10.6547732327633,-65.47956180357,-113.538754233363),(-10.6872497782014,
-65.4629345944134,-113.522904897082),(-10.7196485644681,-65.452353643132,
-113.501087062096),(-10.7543909203143,-65.446685276374,-113.472013073008),
(-10.7938981744907,-65.444795820788,-113.434395274418),(-10.8597172600165,
-65.452353643132,-113.361018366548),(-10.8871627647174,-65.4595335743587,
-113.32639293062),(-10.9068045778516,-65.465957723351,-113.300326968494),
(-10.8667481194288,-65.5460706401965,-113.260270510071),(-10.8628209597405,
-65.5460706401965,-113.264197669759),(-10.8109542909141,-65.5223894635189,
-113.339745515263),(-10.7841964588822,-65.5163432056438,-113.37254960517),
(-10.7595685427852,-65.514327786352,-113.399192940559),(-10.7192217325102,
-65.5173509152896,-113.436516621897),(-10.681069918641,-65.5299472858628,
-113.462072065193),(-10.6637522135455,-65.5413470012315,-113.467990054919),
(-10.6475534044831,-65.5563996640665,-113.469136201147),(-10.6324228636439,
-65.5758610566021,-113.46480534945),(-10.6183099632181,-65.6004869610726,
-113.454292345406),(-10.6107521408742,-65.6156026057605,-113.446734523062),
(-10.7055120254519,-65.6259316296305,-113.341645614614),(-10.7438926702786,
-65.635567853119,-113.293628746299),(-10.7733302166558,-65.6508724433654,
-113.248886609675),(-10.7948957995722,-65.6741757289258,-113.204017741198),
(-10.8024450969561,-65.7047849094186,-113.165859263322),(-10.7968047050442,
-65.7425740211382,-113.133710543514),(-10.7788012200733,-65.7874171003787,
-113.106870949244),(-10.7611051368745,-65.8179003171659,-113.094083815656),
(-10.7392558862999,-65.8468719694842,-113.086961413912),(-10.7148819527366,
-65.872820492865,-113.085386824095),(-10.689611820572,-65.8942343228394,
-113.089243126285),(-10.6625075448536,-65.9116802960832,-113.09890142876),
(-10.6348804397575,-65.9247175396265,-113.113491290312),(-10.6077460470791,
-65.9328421986462,-113.132501023971),(-10.5821199086136,-65.9355504183195,
-113.155418942763),(-10.5557358892956,-65.9341018357035,-113.183251544697),
(-10.5376729820479,-65.9297560878558,-113.205660199793),(-10.5114226397522,
-65.9128769512877,-113.248789678656),(-10.1669836987956,-65.931519579736,
-113.574585991165),(-10.1943199454384,-65.9292364875696,-113.549532836688),
(-10.2209120986546,-65.9223872110705,-113.529789959971),(-10.2467601584441,
-65.9109717502385,-113.515357361014),(-10.2718641248069,-65.8949901050738,
-113.506235039816),(-10.2959765922253,-65.8740643844591,-113.503048293012),
(-10.3188501551812,-65.8478166972772,-113.506422417238),(-10.3404848136747,
-65.8162470435282,-113.516357412494),(-10.3608805677058,-65.7793554232119,
-113.532853278779),(-10.4901193297867,-65.5208778990501,-113.66209204086),
(-10.5359361928165,-65.5208778990501,-113.61627517783),(-10.5684348288954,
-65.4558806268924,-113.648773813909),(-10.5226179658655,-65.4558806268924,
-113.694590676938),(-10.5896306573149,-65.3218552439937,-113.761603368388),
(-10.5215598893849,-65.3218552439937,-113.829674136318),(-10.4545471979355,
-65.4558806268925,-113.762661444868),(-10.3293144389873,-65.4558806268925,
-113.887894203817),(-10.2968158029085,-65.5208778990501,-113.855395567738),
(-10.4220485618567,-65.5208778990501,-113.73016280879),(-10.3109485734012,
-65.7430778759611,-113.619062820334),(-10.2950248635412,-65.7743798568355,
-113.60368454932),(-10.2825235715662,-65.7977461242488,-113.592819573881),
(-10.2560019156553,-65.8337717440881,-113.583315609953),(-10.2415913065591,
-65.8465570602199,-113.584940902917),(-10.225189099277,-65.8556894288854,
-113.592210741534),(-10.2062498549632,-65.8611688500848,-113.605670564648),
(-10.1842281347722,-65.8629953238179,-113.625865811106),(-10.1550534958831,
-65.8572009933542,-113.660834780459),(-10.1443039910601,-65.8519734995663,
-113.67681177907),(-10.1372420725568,-65.8478796791301,-113.68796751801),
(-10.1333149128685,-65.8478796791301,-113.691894677698),(-10.0980450752636,
-65.9184193543399,-113.656624840093),(-10.132093700252,-65.9279925959755,
-113.613002973469),(-9.74520339048635,-65.9224501929233,-114.005435686287),
(-9.81327415841638,-65.9224501929233,-113.937364918357),(-10.1380085917932,
-65.2729813261698,-114.262099351734),(-10.0699378238631,-65.2729813261698,
-114.330170119664),(-9.74685290767356,-65.6372683631464,-114.288967998877),
(-9.53347723127751,-65.6372683631464,-114.502343675273),(-9.55035063431427,
-65.6076668922994,-114.515071743083),(-9.56748258527418,-65.5823481874473,
-114.523258496975),(-9.60346233686292,-65.5435513660818,-114.526075566752),
(-9.62471293517802,-65.527994848424,-114.520381486094),(-9.64726685319122,
-65.5165951330552,-114.50922728345),(-9.67154356604238,-65.5096041473871,
-114.491941556267),(-9.69796254887136,-65.5072738188311,-114.467852901994),
(-9.72183302760607,-65.5096041473871,-114.441652094703),(-9.73933693032734,
-65.5165951330552,-114.417157206314),(-9.76029679698229,-65.5440552209048,
-114.368737251809),(-9.76289132000115,-65.5851193889734,-114.325078560722),
(-9.75720349170246,-65.6093674023267,-114.306518375667),(-9.46457538559018,
-65.9330311442048,-114.275482739901),(-9.51224347102134,-65.9291105238639,
-114.231735274811),(-9.55837778833747,-65.9173486628412,-114.197362818518),
(-9.60297833753858,-65.8977455611367,-114.172365371021),(-9.64604511862466,
-65.8703012187503,-114.156742932321),(-9.68667898506445,-65.8356139632844,
-114.150796321348),(-9.72398079032667,-65.7942821223411,-114.154826357029),
(-9.75795053441134,-65.7463056959205,-114.168833039365),(-9.78858821731846,
-65.6916846840225,-114.192816368355),(-9.8123757070378,-65.6376462542636,
-114.223067308395),(-9.82680258120504,-65.5894021549682,-114.256884533523),
(-9.83186883982017,-65.5469523861366,-114.29426804374),(-9.82757448288318,
-65.5102969477686,-114.335217839045),(-9.81451271028385,-65.4807584587745,
-114.377818100638),(-9.79327672191195,-65.4596595380644,-114.42015300972),
(-9.76386651776748,-65.4470001856384,-114.462222566291),(-9.72628209785045,
-65.4427804014963,-114.50402677035),(-9.68930857044981,-65.4459294941396,
-114.537851205107),(-9.65344037340149,-65.4553767720695,-114.564272124225),
(-9.61827038560867,-65.4715001264032,-114.583318757685),(-9.58339148597451,
-65.4946774482579,-114.595020335464),(-9.54930526837514,-65.5243419009577,
-114.599442100364),(-9.51738602883965,-65.559926647827,-114.59577659303),
(-9.48726823029386,-65.6028172896287,-114.583003749774),(-9.45858633566362,
-65.6543994271259,-114.560103506907),(-9.4371725056892,-65.6972270870747,
-114.538689676933),(-9.71687354570938,-65.6972270870747,-114.258988636912),
(-9.69557314423474,-65.7354098353747,-114.242106290087),(-9.67223225305648,
-65.7688374537833,-114.232019562857),(-9.64685087217461,-65.7975099423005,
-114.228728455221),(-9.61942900158912,-65.8214273009264,-114.232232967181),
(-9.59061499089322,-65.8402746203965,-114.242199658407),(-9.5610571896801,
-65.8537369914466,-114.25829508857),(-9.53075559794976,-65.8618144140766,
-114.28051925767),(-9.4997102157022,-65.8645068882867,-114.308872165708),
(-9.45875409774834,-65.858712557823,-114.355622614125),(-9.42713253504205,
-65.8438488405466,-114.402107894108),(-9.40559888654225,-65.8249542846869,
-114.442536098467),(-9.39309360315551,-65.8080751481188,-114.471920518422),
(-9.38916644346724,-65.8080751481188,-114.47584767811),(-9.3463387835184,
-65.8937304680165,-114.433020018162),(-9.36920861660915,-65.9073345482355,
-114.396546104852),(-9.39476405990519,-65.9199309188087,-114.358394290983),
(-9.42563226365256,-65.9297560878558,-114.317700918188),(-9.44262177496449,
-65.9322123801176,-114.298255114614),(-8.93839025008493,-65.9224501929233,
-114.812248826688),(-9.00646101801496,-65.9224501929233,-114.744178058758),
(-9.13947869126782,-65.6564148464176,-114.877195732011),(-9.17207615969086,
-65.5964561224892,-114.904556987516),(-9.18847372624658,-65.5715153087543,
-114.913100234696),(-9.20471819773506,-65.5521168980716,-114.91625417389),
(-9.2223289707745,-65.5367493259723,-114.91401097295),(-9.24094503018432,
-65.5259164472794,-114.906227792233),(-9.26161114773947,-65.5194922982871,
-114.89198582367),(-9.28537209521487,-65.5173509152896,-114.870366259192),
(-9.30910982740346,-65.5212557901673,-114.842723652126),(-9.32970629909819,
-65.5329704148004,-114.810412555798),(-9.36188048348481,-65.5737826554575,
-114.737426130754),(-9.18754671475189,-65.9224501929233,-114.563092362021),
(-9.25561748268192,-65.9224501929233,-114.495021594091),(-9.48890226569736,
-65.4558806268925,-114.728306377107),(-9.42083149776733,-65.4558806268925,
-114.796377145037),(-9.39488297438657,-65.507777673654,-114.770428621656),
(-9.37859308979238,-65.4798137309815,-114.814682448923),(-9.35906973287184,
-65.4594076106529,-114.854611926172),(-9.33492399260603,-65.4469372037855,
-114.891228073305),(-9.30476695797605,-65.4427804014963,-114.925541910224),
(-9.27528703768079,-65.4456145848753,-114.95218764714),(-9.24619102319557,
-65.4541171350122,-114.972781111489),(-9.21747891452038,-65.468288051907,
-114.987322303269),(-9.18915071165523,-65.4881273355598,-114.995811222481),
(-9.16183901873009,-65.5133515676326,-114.997898683334),(-9.13617643987495,
-65.5436773297876,-114.993235500034),(-9.1121629750898,-65.5791046220247,
-114.981821672582),(-9.08979862437465,-65.6196334443439,-114.963657200978),
(-8.84844966017094,-65.5193663345813,-115.305273274944),(-8.79168299852962,
-65.5395205274984,-115.341885743668),(-8.66345194609456,-65.7959826323685,
-115.213654691233),(-8.67748776850482,-65.8152550793455,-115.180346421846),
(-8.69675318332107,-65.8297409055047,-115.146595180871),(-8.71981769550173,
-65.8388102923174,-115.114461281877),(-8.74525081000525,-65.8418334212549,
-115.086005038436),(-8.77006764195266,-65.8392984016771,-115.063723226067),
(-8.79390141292386,-65.8316933429435,-115.047494513829),(-8.81675212291882,
-65.8190182450543,-115.037318901723),(-8.83861977193757,-65.8012731080093,
-115.03319638975),(-8.85974867698721,-65.7786783682936,-115.034662224416),
(-8.88038315507488,-65.7514544623923,-115.041251652229),(-8.90052320620056,
-65.7196013903054,-115.052964673191),(-8.92016883036426,-65.6831191520328,
-115.069801287299),(-8.93764976711909,-65.6444482943731,-115.090991208204),
(-8.94902840931498,-65.6105640575312,-115.11349680285),(-8.95430475695192,
-65.5814664415071,-115.137318071237),(-8.95347881002993,-65.5571554463009,
-115.162455013366),(-8.94686826341465,-65.5379774721032,-115.188243534179),
(-8.93479081197174,-65.5242789191049,-115.21401953862),(-8.9172464557012,
-65.5160597873059,-115.239783026689),(-8.89423519460301,-65.5133200767062,
-115.265533998387),(-8.7663195034543,-66.0060900935293,-114.900679672713),
(-8.79114452191671,-65.9970207067166,-114.884924041063),(-8.79463533052851,
-65.9970207067166,-114.881433232451),(-8.75382308987138,-66.0786451880309,
-114.840620991794),(-8.68891885284429,-66.0932569778958,-114.890913438956),
(-8.62549485168823,-66.098799380948,-114.94879503706),(-8.58415081981132,
-66.0953353790403,-114.993603070845),(-8.55218880131672,-66.0849433733175,
-115.035957095062),(-8.52960879620444,-66.0676233637793,-115.075857109713),
(-8.51641080447447,-66.0433753504259,-115.113303114796),(-8.5126831218846,
-66.0116954784344,-115.148710669377),(-8.51851404419261,-65.9720798929817,
-115.182495332522),(-8.53390357139851,-65.9245285940679,-115.21465710423),
(-8.55885170350229,-65.869041581693,-115.245195984501),(-8.76543218090258,
-65.4558806268925,-115.451776461901),(-8.82957578914433,-65.4558806268925,
-115.38763285366),(-8.82367777978552,-65.4755309649866,-115.373880524924),
(-8.88180533410384,-65.4513459334861,-115.339938002106),(-8.91005305161273,
-65.4449217844938,-115.31811443359),(-8.9404138091198,-65.4427804014963,
-115.28989505908),(-8.97103868575269,-65.4468742219326,-115.255176362011),
(-8.99658795202723,-65.4591556832415,-115.217345634428),(-9.01580318252383,
-65.4788690031885,-115.178417083984),(-9.0274259518229,-65.5052583995393,
-115.140404918334),(-9.03113456781974,-65.5402763097328,-115.101678392144),
(-9.02687735339545,-65.5818443326243,-115.064367583677),(-9.01345434308973,
-65.6299624682139,-115.029672458393),(-8.98966557144227,-65.6846307165015,
-114.998792981753),(-8.96090732131528,-65.7370473635492,-114.975134584832),
(-8.93030852886781,-65.7829453888253,-114.959835352003),(-8.89786919409986,
-65.8223247923297,-114.952895283267),(-8.86358931701142,-65.8551855740625,
-114.954314378623),(-8.82848022041364,-65.8810868610536,-114.963522188229),
(-8.79355322711765,-65.899587780333,-114.979948262246),(-8.75880833712347,
-65.9106883319006,-115.003592600672),(-8.72424555043108,-65.9143885157565,
-115.034455203509),(-8.68950230760453,-65.9111134594075,-115.072473502684),
(-8.66468847504325,-65.9012882903604,-115.107112504293),(-8.64639310192491,
-65.884535117498,-115.142161050274),(-8.6312052374272,-65.8604760497033,
-115.181407982566),(-8.61079911709864,-65.9012882903604,-115.161001862237),
(-8.58981017113805,-65.9524295548875,-115.130849543671),(-8.58564234527645,
-65.9735284755976,-115.113918448822),(-8.58639703470594,-65.9919821584873,
-115.094710076503),(-8.59339399157106,-66.0072237668809,-115.072471511244),
(-8.60708026586338,-66.0186864641025,-115.047322539731),(-8.62770778499435,
-66.0258663953292,-115.019515089373),(-8.65552847637546,-66.0282597057381,
-114.989301087583),(-8.6918559151297,-66.0249846493891,-114.956248705178),
(-8.73095455541004,-66.0161671899879,-114.925967524299),(-8.30681905978467,
-65.931519579736,-115.434750630176),(-8.33415530642748,-65.9292364875696,
-115.409697475699),(-8.36074745964363,-65.9223872110705,-115.389954598982),
(-8.38659551943314,-65.9109717502385,-115.375522000025),(-8.41169948579599,
-65.8949901050738,-115.366399678827),(-8.43581195321431,-65.8740643844591,
-115.363212932023),(-8.45868551617023,-65.8478166972772,-115.366587056249),
(-8.48032017466374,-65.8162470435282,-115.376522051505),(-8.50071592869485,
-65.7793554232119,-115.39301791779),(-8.62995469077576,-65.5208778990501,
-115.522256679871),(-8.67577155380559,-65.5208778990501,-115.476439816841),
(-8.70827018988441,-65.4558806268925,-115.50893845292),(-8.66245332685458,
-65.4558806268925,-115.554755315949),(-8.72946601830394,-65.3218552439937,
-115.621768007399),(-8.66139525037391,-65.3218552439937,-115.689838775329),
(-8.59438255892456,-65.4558806268925,-115.622826083879),(-8.46914979997636,
-65.4558806268925,-115.748058842828),(-8.43665116389754,-65.5208778990501,
-115.715560206749),(-8.56188392284573,-65.5208778990501,-115.590327447801),
(-8.45078393439021,-65.7430778759611,-115.479227459345),(-8.43486022453023,
-65.7743798568355,-115.463849188331),(-8.42235893255521,-65.7977461242488,
-115.452984212892),(-8.3958372766443,-65.8337717440881,-115.443480248964),
(-8.38142666754818,-65.8465570602199,-115.445105541928),(-8.36502446026603,
-65.8556894288854,-115.452375380545),(-8.34608521595224,-65.8611688500848,
-115.465835203659),(-8.32406349576123,-65.8629953238179,-115.486030450117),
(-8.29488885687219,-65.8572009933542,-115.52099941947),(-8.28413935204909,
-65.8519734995663,-115.536976418081),(-8.27707743354583,-65.8478796791301,
-115.548132157021),(-8.27315027385756,-65.8478796791301,-115.552059316709),
(-8.23788043625263,-65.9184193543399,-115.516789479104),(-8.27192906124105,
-65.9279925959755,-115.47316761248),(-7.86845741056936,-65.9224501929233,
-115.882181666204),(-7.93652817849939,-65.9224501929233,-115.814110898274),
(-8.06954585175225,-65.6564148464176,-115.947128571527),(-8.10214332017529,
-65.5964561224892,-115.974489827032),(-8.11854088673101,-65.5715153087543,
-115.983033074211),(-8.13478535821949,-65.5521168980716,-115.986187013405),
(-8.15239613125893,-65.5367493259723,-115.983943812465),(-8.17101219066875,
-65.5259164472794,-115.976160631748),(-8.1916783082239,-65.5194922982871,
-115.961918663185),(-8.2154392556993,-65.5173509152896,-115.940299098708),
(-8.23917698788789,-65.5212557901673,-115.912656491641),(-8.25977345958263,
-65.5329704148004,-115.880345395313),(-8.29194764396924,-65.5737826554575,
-115.80735897027),(-8.11761387523632,-65.9224501929233,-115.633025201537),
(-8.18568464316635,-65.9224501929233,-115.564954433607),(-8.51041907654314,
-65.2729813261698,-115.889688866984),(-8.44234830861311,-65.2729813261698,
-115.957759634914),(-8.32495013487099,-65.507777673654,-115.840361461171),
(-8.30866025027681,-65.4798137309815,-115.884615288438),(-8.28913689335627,
-65.4594076106529,-115.924544765687),(-8.26499115309045,-65.4469372037855,
-115.961160912821),(-8.23483411846048,-65.4427804014963,-115.99547474974),
(-8.20535419816522,-65.4456145848753,-116.022120486656),(-8.17625818368,
-65.4541171350122,-116.042713951004),(-8.14754607500481,-65.468288051907,
-116.057255142785),(-8.11921787213966,-65.4881273355598,-116.065744061997),
(-8.09190617921452,-65.5133515676326,-116.067831522849),(-8.06624360035937,
-65.5436773297876,-116.063168339549),(-8.04223013557423,-65.5791046220247,
-116.051754512098),(-8.01986578485908,-65.6196334443439,-116.033590040493),
(-7.36847745357444,-65.8296779236518,-116.47493389247),(-7.36976983669177,
-65.8010211805978,-116.502298252407),(-7.3782706128679,-65.7661292341101,
-116.528689422718),(-7.39398264886851,-65.722923683044,-116.556182937784),
(-7.41646959361713,-65.6714045273997,-116.58521514868),(-7.44529509603726,
-65.6115717671771,-116.616222406482),(-7.47627086291334,-65.5518019888073,
-116.645016417976),(-7.50520860102976,-65.5004717787215,-116.667408889945),
(-7.53284269479074,-65.4572032458026,-116.683043329103),(-7.55990752860045,
-65.4216184989334,-116.691563242163),(-7.58678490965081,-65.3937175381138,
-116.692586821932),(-7.61385664513375,-65.3735003633438,-116.685732261219),
(-7.64176038572734,-65.3612189020349,-116.670109981934),(-7.67113378210971,
-65.3571250815987,-116.644830405988),(-7.6965224458249,-65.3612189020349,
-116.615347921837),(-7.71247198841699,-65.3735003633438,-116.587116917936),
(-7.7196369365007,-65.3939694655252,-116.559482867671),(-7.71867181669073,
-65.4226262085792,-116.531791244426),(-7.7098853612299,-65.4585258647128,
-116.504678043754),(-7.69345129486813,-65.5027391254247,-116.476898849404),
(-7.67063708681216,-65.5542582810691,-116.448193901815),(-7.64271020626876,
-65.612075622,-116.418303441428),(-7.61179516029876,-65.6721603096341,-116.389133799764),
(-7.58455114936933,-65.7214121185752,-116.367126001752),(-7.5583757313205,
-65.762854177761,-116.351859360615),(-7.53066646399231,-65.799509616129,
-116.342913189575),(-7.50369234921586,-65.8280403954773,-116.341356525003),
(-7.47596156522463,-65.8491393161874,-116.347988388284),(-7.44702540689912,
-65.8621765597306,-116.363887303067),(-7.41643516911984,-65.8665223075784,
-116.390131792998),(-7.39137376871201,-65.8624284871421,-116.419287013842),
(-7.37553331388903,-65.8501470258332,-116.447408929974),(-7.37198811518954,
-65.6115717671771,-116.68952938733),(-7.33557898157425,-65.6896535192676,
-116.647856768855),(-7.30999148133436,-65.7566189743273,-116.606478814035),
(-7.29522561446986,-65.8124681323562,-116.56539552287),(-7.29128138098075,
-65.8572009933542,-116.524606895361),(-7.29804630167772,-65.8914788667765,
-116.483564101242),(-7.31540789737148,-65.9159630620781,-116.441718310247),
(-7.34336616806201,-65.9306535792591,-116.399069522375),(-7.38192111374931,
-65.9355504183195,-116.355617737628),(-7.42596557373218,-65.9305591064798,
-116.316564589484),(-7.46908333408,-65.915585170961,-116.288420764655),
(-7.51127439479275,-65.8906286117628,-116.271186263141),(-7.55253875587044,
-65.8556894288854,-116.264861084941),(-7.59335691626844,-65.8105156949173,
-116.269216658511),(-7.63420937494211,-65.7548554824471,-116.284024412307),
(-7.67509613189146,-65.6887087914746,-116.30928434633),(-7.71601718711648,
-65.612075622,-116.34499646058),(-7.75263101175359,-65.5335844878658,-116.386873770077),
(-7.778328730236,-65.4663985963211,-116.428361943139),(-7.79311034256371,
-65.4105179473658,-116.469460979767),(-7.79697584873674,-65.3659425409999,
-116.51017087996),(-7.79007343785497,-65.3318851040626,-116.551130727779),
(-7.77255129901829,-65.3075583633932,-116.592979607285),(-7.74440943222672,
-65.2929623189915,-116.635717518478),(-7.70564783748024,-65.2880969708576,
-116.679344461359),(-7.6617706628985,-65.2931355190869,-116.718183087711),
(-7.61871840767761,-65.3082511637747,-116.746119698244),(-7.57649107181757,
-65.3334439049211,-116.763154292958),(-7.53508865531839,-65.368713742526,
-116.769286871852),(-7.49415240394627,-65.4141236584423,-116.764813207308),
(-7.45332356346742,-65.469736634523,-116.750029071706),(-7.41260213388184,
-65.5355526707679,-116.724934465047),(-7.03197239696767,-65.9224501929233,
-116.718666679805),(-7.11836991010963,-65.9224501929233,-116.632269166663),
(-7.17782477921507,-65.8035404547124,-116.691724035769),(-7.09142726607311,
-65.8035404547124,-116.778121548911),(-6.7401319034511,-65.8296779236518,
-117.103279442594),(-6.74142428656843,-65.8010211805978,-117.13064380253),
(-6.74992506274457,-65.7661292341101,-117.157034972842),(-6.76563709874518,
-65.722923683044,-117.184528487907),(-6.78812404349379,-65.6714045273997,
-117.213560698803),(-6.81694954591392,-65.6115717671771,-117.244567956605),
(-6.84792531279,-65.5518019888073,-117.273361968099),(-6.87686305090643,
-65.5004717787215,-117.295754440068),(-6.9044971446674,-65.4572032458026,
-117.311388879226),(-6.93156197847711,-65.4216184989334,-117.319908792286),
(-6.95843935952748,-65.3937175381138,-117.320932372055),(-6.98551109501041,
-65.3735003633438,-117.314077811342),(-7.01341483560401,-65.3612189020349,
-117.298455532058),(-7.04278823198637,-65.3571250815987,-117.273175956111),
(-7.06817689570156,-65.3612189020349,-117.24369347196),(-7.08412643829366,
-65.3735003633438,-117.215462468059),(-7.09129138637736,-65.3939694655252,
-117.187828417794),(-7.09032626656739,-65.4226262085792,-117.16013679455),
(-7.08153981110657,-65.4585258647128,-117.133023593877),(-7.06510574474479,
-65.5027391254247,-117.105244399527),(-7.04229153668882,-65.5542582810691,
-117.076539451939),(-7.01436465614543,-65.612075622,-117.046648991551),
(-6.98344961017542,-65.6721603096341,-117.017479349887),(-6.95620559924599,
-65.7214121185753,-116.995471551875),(-6.93003018119717,-65.762854177761,
-116.980204910738),(-6.90232091386898,-65.799509616129,-116.971258739698),
(-6.87534679909252,-65.8280403954773,-116.969702075127),(-6.84761601510129,
-65.8491393161874,-116.976333938408),(-6.81867985677579,-65.8621765597306,
-116.99223285319),(-6.78808961899651,-65.8665223075784,-117.018477343122),
(-6.76302821858867,-65.8624284871421,-117.047632563966),(-6.74718776376569,
-65.8501470258332,-117.075754480098),(-6.7436425650662,-65.6115717671771,
-117.317874937453),(-6.70723343145091,-65.6896535192676,-117.276202318978),
(-6.68164593121102,-65.7566189743273,-117.234824364158),(-6.66688006434652,
-65.8124681323562,-117.193741072994),(-6.66293583085741,-65.8572009933542,
-117.152952445485),(-6.66970075155439,-65.8914788667765,-117.111909651366),
(-6.68706234724814,-65.9159630620781,-117.07006386037),(-6.71502061793867,
-65.9306535792591,-117.027415072499),(-6.75357556362597,-65.9355504183195,
-116.983963287751),(-6.79762002360884,-65.9305591064798,-116.944910139608),
(-6.84073778395666,-65.915585170961,-116.916766314779),(-6.88292884466941,
-65.8906286117628,-116.899531813264),(-6.9241932057471,-65.8556894288854,
-116.893206635064),(-6.9650113661451,-65.8105156949173,-116.897562208634),
(-7.00586382481877,-65.7548554824471,-116.912369962431),(-7.04675058176812,
-65.6887087914746,-116.937629896454),(-7.08767163699315,-65.612075622,-116.973342010703),
(-7.12428546163025,-65.5335844878658,-117.0152193202),(-7.14998318011266,
-65.4663985963211,-117.056707493263),(-7.16476479244038,-65.4105179473658,
-117.09780652989),(-7.1686302986134,-65.3659425409999,-117.138516430083),
(-7.16172788773163,-65.3318851040626,-117.179476277902),(-7.14420574889496,
-65.3075583633932,-117.221325157408),(-7.11606388210338,-65.2929623189915,
-117.264063068602),(-7.0773022873569,-65.2880969708576,-117.307690011482),
(-7.03342511277516,-65.2931355190869,-117.346528637834),(-6.99037285755427,
-65.3082511637747,-117.374465248367),(-6.94814552169424,-65.3334439049211,
-117.391499843081),(-6.90674310519505,-65.368713742526,-117.397632421975),
(-6.86580685382293,-65.4141236584423,-117.393158757431),(-6.82497801334408,
-65.469736634523,-117.378374621829),(-6.7842565837585,-65.5355526707679,
-117.35328001517),(-6.33607080663568,-65.8296779236518,-117.507340539409),
(-6.33736318975301,-65.8010211805978,-117.534704899346),(-6.34586396592914,
-65.7661292341101,-117.561096069657),(-6.36157600192975,-65.722923683044,
-117.588589584723),(-6.38406294667836,-65.6714045273997,-117.617621795618),
(-6.4128884490985,-65.6115717671771,-117.648629053421),(-6.44386421597457,
-65.5518019888073,-117.677423064915),(-6.472801954091,-65.5004717787215,
-117.699815536884),(-6.50043604785198,-65.4572032458026,-117.715449976042),
(-6.52750088166169,-65.4216184989334,-117.723969889101),(-6.55437826271205,
-65.3937175381138,-117.724993468871),(-6.58144999819499,-65.3735003633438,
-117.718138908158),(-6.60935373878858,-65.3612189020349,-117.702516628873),
(-6.63872713517094,-65.3571250815987,-117.677237052927),(-6.66411579888614,
-65.3612189020349,-117.647754568775),(-6.68006534147823,-65.3735003633438,
-117.619523564874),(-6.68723028956194,-65.3939694655252,-117.591889514609),
(-6.68626516975197,-65.4226262085792,-117.564197891365),(-6.67747871429114,
-65.4585258647128,-117.537084690692),(-6.66104464792937,-65.5027391254247,
-117.509305496342),(-6.6382304398734,-65.5542582810691,-117.480600548754),
(-6.61030355933,-65.612075622,-117.450710088366),(-6.57938851336,-65.6721603096341,
-117.421540446702),(-6.55214450243057,-65.7214121185753,-117.399532648691),
(-6.52596908438174,-65.762854177761,-117.384266007554),(-6.49825981705355,
-65.799509616129,-117.375319836514),(-6.4712857022771,-65.8280403954773,
-117.373763171942),(-6.44355491828587,-65.8491393161874,-117.380395035223),
(-6.41461875996036,-65.8621765597306,-117.396293950005),(-6.38402852218108,
-65.8665223075784,-117.422538439937),(-6.35896712177325,-65.8624284871421,
-117.451693660781),(-6.34312666695027,-65.8501470258332,-117.479815576913),
(-6.33958146825078,-65.6115717671771,-117.721936034269),(-6.30317233463549,
-65.6896535192676,-117.680263415793),(-6.27758483439559,-65.7566189743273,
-117.638885460974),(-6.26281896753109,-65.8124681323562,-117.597802169809),
(-6.25887473404199,-65.8572009933542,-117.5570135423),(-6.26563965473896,
-65.8914788667765,-117.515970748181),(-6.28300125043272,-65.9159630620781,
-117.474124957186),(-6.31095952112324,-65.9306535792591,-117.431476169314),
(-6.34951446681055,-65.9355504183195,-117.388024384566),(-6.39355892679342,
-65.9305591064798,-117.348971236423),(-6.43667668714123,-65.915585170961,
-117.320827411594),(-6.47886774785399,-65.8906286117628,-117.30359291008),
(-6.52013210893168,-65.8556894288854,-117.297267731879),(-6.56095026932968,
-65.8105156949173,-117.301623305449),(-6.60180272800335,-65.7548554824471,
-117.316431059246),(-6.6426894849527,-65.6887087914746,-117.341690993269),
(-6.68361054017773,-65.612075622,-117.377403107519),(-6.72022436481483,
-65.5335844878658,-117.419280417016),(-6.74592208329724,-65.4663985963211,
-117.460768590078),(-6.76070369562495,-65.4105179473658,-117.501867626706),
(-6.76456920179798,-65.3659425409999,-117.542577526899),(-6.75766679091621,
-65.3318851040626,-117.583537374718),(-6.74014465207953,-65.3075583633932,
-117.625386254224),(-6.71200278528796,-65.2929623189915,-117.668124165417),
(-6.67324119054148,-65.2880969708576,-117.711751108297),(-6.62936401595974,
-65.2931355190869,-117.75058973465),(-6.58631176073885,-65.3082511637747,
-117.778526345183),(-6.54408442487881,-65.3334439049211,-117.795560939897),
(-6.50268200837963,-65.368713742526,-117.801693518791),(-6.4617457570075,
-65.4141236584423,-117.797219854247),(-6.42091691652865,-65.469736634523,
-117.782435718645),(-6.38019548694308,-65.5355526707679,-117.757341111986),
(-5.93200970982026,-65.8296779236518,-117.911401636224),(-5.93330209293758,
-65.8010211805978,-117.938765996161),(-5.94180286911372,-65.7661292341101,
-117.965157166473),(-5.95751490511433,-65.722923683044,-117.992650681538),
(-5.98000184986294,-65.6714045273997,-118.021682892434),(-6.00882735228307,
-65.6115717671771,-118.052690150236),(-6.03980311915915,-65.5518019888073,
-118.08148416173),(-6.06874085727558,-65.5004717787215,-118.103876633699),
(-6.09637495103655,-65.4572032458026,-118.119511072857),(-6.12343978484627,
-65.4216184989334,-118.128030985917),(-6.15031716589663,-65.3937175381138,
-118.129054565686),(-6.17738890137956,-65.3735003633438,-118.122200004973),
(-6.20529264197316,-65.3612189020349,-118.106577725688),(-6.23466603835552,
-65.3571250815987,-118.081298149742),(-6.26005470207071,-65.3612189020349,
-118.051815665591),(-6.27600424466281,-65.3735003633438,-118.02358466169),
(-6.28316919274651,-65.3939694655252,-117.995950611425),(-6.28220407293655,
-65.4226262085792,-117.968258988181),(-6.27341761747572,-65.4585258647128,
-117.941145787508),(-6.25698355111394,-65.5027391254247,-117.913366593158),
(-6.23416934305798,-65.5542582810691,-117.884661645569),(-6.20624246251458,
-65.612075622,-117.854771185182),(-6.17532741654458,-65.6721603096341,-117.825601543518),
(-6.14808340561515,-65.7214121185753,-117.803593745506),(-6.12190798756632,
-65.762854177761,-117.788327104369),(-6.09419872023813,-65.799509616129,
-117.779380933329),(-6.06722460546167,-65.8280403954773,-117.777824268757),
(-6.03949382147044,-65.8491393161874,-117.784456132039),(-6.01055766314494,
-65.8621765597306,-117.800355046821),(-5.97996742536566,-65.8665223075784,
-117.826599536752),(-5.95490602495782,-65.8624284871421,-117.855754757597),
(-5.93906557013485,-65.8501470258332,-117.883876673728),(-5.93552037143535,
-65.6115717671771,-118.125997131084),(-5.89911123782007,-65.6896535192676,
-118.084324512609),(-5.87352373758017,-65.7566189743273,-118.042946557789),
(-5.85875787071567,-65.8124681323562,-118.001863266625),(-5.85481363722656,
-65.8572009933542,-117.961074639116),(-5.86157855792354,-65.8914788667765,
-117.920031844996),(-5.87894015361729,-65.9159630620781,-117.878186054001),
(-5.90689842430782,-65.9306535792591,-117.83553726613),(-5.94545336999512,
-65.9355504183195,-117.792085481382),(-5.989497829978,-65.9305591064798,
-117.753032333239),(-6.03261559032581,-65.915585170961,-117.72488850841),
(-6.07480665103856,-65.8906286117628,-117.707654006895),(-6.11607101211625,
-65.8556894288854,-117.701328828695),(-6.15688917251425,-65.8105156949173,
-117.705684402265),(-6.19774163118793,-65.7548554824471,-117.720492156061),
(-6.23862838813728,-65.6887087914746,-117.745752090085),(-6.2795494433623,
-65.612075622,-117.781464204334),(-6.3161632679994,-65.5335844878658,-117.823341513831),
(-6.34186098648181,-65.4663985963211,-117.864829686894),(-6.35664259880953,
-65.4105179473658,-117.905928723521),(-6.36050810498255,-65.3659425409999,
-117.946638623714),(-6.35360569410078,-65.3318851040626,-117.987598471533),
(-6.33608355526411,-65.3075583633932,-118.029447351039),(-6.30794168847253,
-65.2929623189915,-118.072185262232),(-6.26918009372606,-65.2880969708576,
-118.115812205113),(-6.22530291914431,-65.2931355190869,-118.154650831465),
(-6.18225066392343,-65.3082511637747,-118.182587441998),(-6.14002332806339,
-65.3334439049211,-118.199622036712),(-6.0986209115642,-65.368713742526,
-118.205754615606),(-6.05768466019208,-65.4141236584423,-118.201280951062),
(-6.01685581971323,-65.469736634523,-118.18649681546),(-5.97613439012765,
-65.5355526707679,-118.161402208801),(-5.40045572202936,-65.9224501929233,
-118.350183354744),(-5.46852648995939,-65.9224501929233,-118.282112586814),
(-5.70181127297483,-65.4558806268925,-118.515397369829),(-5.63374050504481,
-65.4558806268925,-118.583468137759),(-5.667737464569,-65.3782869841616,
-118.627064820966),(-5.744971605105,-65.3782869841616,-118.54983068043),
(-5.78578384576213,-65.2966625028474,-118.590642921087),(-5.70854970522613,
-65.2966625028474,-118.667877061623),(-4.98330409291971,-65.9224501929233,
-118.767334983853),(-5.05137486084973,-65.9224501929233,-118.699264215923),
(-5.1843925341026,-65.6564148464176,-118.832281889176),(-5.21699000252563,
-65.5964561224892,-118.859643144682),(-5.23338756908136,-65.5715153087543,
-118.868186391861),(-5.24963204056983,-65.5521168980716,-118.871340331055),
(-5.26724281360927,-65.5367493259723,-118.869097130115),(-5.2858588730191,
-65.5259164472794,-118.861313949398),(-5.30652499057424,-65.5194922982871,
-118.847071980835),(-5.33028593804964,-65.5173509152896,-118.825452416357),
(-5.35402367023823,-65.5212557901673,-118.797809809291),(-5.37462014193297,
-65.5329704148004,-118.765498712963),(-5.40679432631959,-65.5737826554575,
-118.692512287919),(-5.23246055758667,-65.9224501929233,-118.518178519186),
(-5.30053132551669,-65.9224501929233,-118.450107751256),(-5.53381610853214,
-65.4558806268925,-118.683392534272),(-5.46574534060211,-65.4558806268925,
-118.751463302202),(-5.43979681722134,-65.507777673654,-118.725514778821),
(-5.42350693262716,-65.4798137309815,-118.769768606088),(-5.40398357570661,
-65.459407610653,-118.809698083337),(-5.3798378354408,-65.4469372037855,
-118.84631423047),(-5.34968080081082,-65.4427804014963,-118.880628067389),
(-5.32020088051557,-65.4456145848753,-118.907273804306),(-5.29110486603035,
-65.4541171350122,-118.927867268654),(-5.26239275735516,-65.468288051907,
-118.942408460434),(-5.23406455449001,-65.4881273355598,-118.950897379647),
(-5.20675286156486,-65.5133515676326,-118.952984840499),(-5.18109028270972,
-65.5436773297876,-118.948321657199),(-5.15707681792457,-65.5791046220247,
-118.936907829747),(-5.13471246720942,-65.6196334443439,-118.918743358143)));
#61=COORDINATES_LIST('coordinates',543,((-10.6729409823788,-66.3979624596653,
-112.602185827652),(-10.9234065002752,-66.3979624596653,-112.351720309756),
(-10.8357357610858,-66.5733039380441,-112.264049570566),(-10.5957426690248,
-66.5733039380441,-112.504042662627),(-10.5589612669511,-66.6468667421915,
-112.467261260554),(-10.7989543590121,-66.6468667421915,-112.227268168493),
(-10.6493094766027,-66.9461565070105,-112.077623286083),(-10.7208710531445,
-66.9461565070105,-112.006061709541),(-11.0317494788908,-66.3243996555179,
-112.316940135288),(-10.7097223844526,-66.3243996555179,-112.638967229726),
(-10.2705567422228,-66.9461565070105,-112.456376020463),(-10.3386275101528,
-66.9461565070105,-112.388305252533),(-10.6633619435296,-66.2966876402569,
-112.71303968591),(-10.5952911755995,-66.2966876402569,-112.78111045384),
(-10.0937245729693,-66.7047470649753,-112.874617631752),(-10.0676599848091,
-66.7017869178906,-112.903642366997),(-10.002914640063,-66.831277607383,
-112.83889702225),(-10.0320096588282,-66.8708302109828,-112.770249399885),
(-10.0536570793194,-66.8827337811745,-112.736698409203),(-10.0821086385382,
-66.886701637905,-112.704278993253),(-10.1177129976222,-66.8816001078229,
-112.673776164251),(-10.1494736897207,-66.8662955175765,-112.657320062399),
(-10.1768913819042,-66.8409138308715,-112.655284056921),(-10.1994667412434,
-66.8055810114137,-112.668041517039),(-10.2107626588841,-66.7741530668336,
-112.688173543979),(-10.2093805742015,-66.7504089083031,-112.713299787192),
(-10.1980229733373,-66.733088898765,-112.741977397594),(-10.1793923424334,
-66.7209334011619,-112.772763526101),(-10.15638794534,-66.713816451788,
-112.802884872568),(-10.1255662909991,-66.7085889580001,-112.838934020697),
(-9.98259281242579,-66.9164290724578,-112.774067384813),(-9.97016407657267,
-66.8967787343636,-112.80614645876),(-9.94547519024922,-66.9461565070105,
-112.781457572437),(-9.8774044223192,-66.9461565070105,-112.849528340367),
(-10.0368744737758,-66.6272164040974,-113.008998391823),(-10.0598503337001,
-66.5867190727046,-113.026519863292),(-10.0849425438785,-66.5528978177155,
-113.035248908102),(-10.1125121194915,-66.5252487843074,-113.035328365897),
(-10.1429200757198,-66.5032681176572,-113.026901076319),(-10.1753966211579,
-66.4866409085006,-113.011051740038),(-10.2077954074246,-66.4760599572191,
-112.989233905053),(-10.2425377632707,-66.4703915904612,-112.960159915965),
(-10.2820450174472,-66.4685021348752,-112.922542117374),(-10.3478641029729,
-66.4760599572191,-112.849165209504),(-10.3753096076738,-66.4832398884458,
-112.814539773577),(-10.394951420808,-66.4896640374381,-112.78847381145),
(-10.3548949623852,-66.5697769542836,-112.748417353028),(-10.350967802697,
-66.5697769542836,-112.752344512716),(-10.2991011338705,-66.546095777606,
-112.82789235822),(-10.2723433018387,-66.5400495197309,-112.860696448127),
(-10.2477153857416,-66.5380341004392,-112.887339783516),(-10.2073685754666,
-66.5410572293767,-112.924663464853),(-10.1692167615974,-66.5536535999499,
-112.950218908149),(-10.1518990565019,-66.5650533153187,-112.956136897876),
(-10.1357002474395,-66.5801059781536,-112.957283044103),(-10.1205697066003,
-66.5995673706892,-112.952952192407),(-10.1064568061746,-66.6241932751598,
-112.942439188362),(-10.0988989838307,-66.6393089198476,-112.934881366018),
(-10.1936588684083,-66.6496379437176,-112.82979245757),(-10.2320395132351,
-66.6592741672061,-112.781775589255),(-10.2614770596122,-66.6745787574526,
-112.737033452632),(-10.2830426425286,-66.6978820430129,-112.692164584155),
(-10.2905919399125,-66.7284912235058,-112.654006106278),(-10.2849515480007,
-66.7662803352253,-112.62185738647),(-10.2669480630297,-66.8111234144659,
-112.595017792201),(-10.249251979831,-66.841606631253,-112.582230658612),
(-10.2274027292563,-66.8705782835713,-112.575108256869),(-10.203028795693,
-66.8965268069521,-112.573533667051),(-10.1777586635285,-66.9179406369265,
-112.577389969241),(-10.15065438781,-66.9353866101704,-112.587048271716),
(-10.123027282714,-66.9484238537136,-112.601638133269),(-10.0958928900355,
-66.9565485127333,-112.620647866928),(-10.07026675157,-66.9592567324066,
-112.64356578572),(-10.043882732252,-66.9578081497907,-112.671398387654),
(-10.0258198250043,-66.9534624019429,-112.693807042749),(-9.99956948270866,
-66.9365832653748,-112.736936521613),(-9.65513054175205,-66.9552258938232,
-113.062732834121),(-9.68246678839486,-66.9529428016568,-113.037679679645),
(-9.70905894161102,-66.9460935251576,-113.017936802928),(-9.73490700140052,
-66.9346780643257,-113.00350420397),(-9.76001096776337,-66.9186964191609,
-112.994381882772),(-9.7841234351817,-66.8977706985462,-112.991195135969),
(-9.80699699813762,-66.8715230113643,-112.994569260194),(-9.82863165663113,
-66.8399533576153,-113.00450425545),(-9.84902741066223,-66.8030617372991,
-113.021000121735),(-9.97826617274314,-66.5445842131372,-113.150238883816),
(-10.024083035773,-66.5445842131372,-113.104422020786),(-10.0565816718518,
-66.4795869409796,-113.136920656865),(-10.010764808822,-66.4795869409796,
-113.182737519895),(-10.0777775002713,-66.3455615580809,-113.249750211344),
(-10.0097067323413,-66.3455615580809,-113.317820979274),(-9.94269404089194,
-66.4795869409796,-113.250808287825),(-9.81746128194375,-66.4795869409796,
-113.376041046773),(-9.78496264586492,-66.5445842131372,-113.343542410694),
(-9.91019540481312,-66.5445842131372,-113.218309651746),(-9.7990954163576,
-66.7667841900483,-113.107209663291),(-9.78317170649762,-66.7980861709226,
-113.091831392276),(-9.77067041452259,-66.8214524383359,-113.080966416838),
(-9.74414875861168,-66.8574780581752,-113.07146245291),(-9.72973814951557,
-66.870263374307,-113.073087745874),(-9.71333594223342,-66.8793957429726,
-113.08035758449),(-9.69439669791963,-66.8848751641719,-113.093817407605),
(-9.67237497772862,-66.886701637905,-113.114012654063),(-9.64320033883957,
-66.8809073074414,-113.148981623415),(-9.63245083401648,-66.8756798136535,
-113.164958622026),(-9.62538891551321,-66.8715859932172,-113.176114360966),
(-9.62146175582494,-66.8715859932172,-113.180041520654),(-9.58619191822002,
-66.9421256684271,-113.144771683049),(-9.62024054320844,-66.9516989100627,
-113.101149816425),(-9.04642892981324,-66.4795869409796,-114.147073398904),
(-8.91568664976931,-66.9461565070105,-113.811246112917),(-8.97852120478165,
-66.9461565070105,-113.748411557904),(-9.25701271985002,-66.5864041634402,
-113.829672386406),(-9.17531554027166,-66.9461565070105,-113.551617222414),
(-9.23771374420752,-66.9461565070105,-113.489219018478),(-9.57441373234743,
-66.4795869409796,-113.619088596369),(-9.50372485795855,-66.4795869409796,
-113.689777470758),(-9.25153132739721,-66.8408508490186,-113.580707093281),
(-9.33660239566881,-66.4795869409796,-113.856899933048),(-9.28031310680359,
-66.4795869409796,-113.913189221913),(-9.0015021605773,-66.8408508490186,
-113.830736260101),(-9.11493604881974,-66.4795869409796,-114.078566279897),
(-8.68398422816133,-66.9461565070105,-114.042948534525),(-8.75205499609136,
-66.9461565070105,-113.974877766595),(-8.9853397791068,-66.4795869409796,
-114.20816254961),(-8.91726901117677,-66.4795869409796,-114.27623331754),
(-8.95126597070097,-66.4019932982488,-114.319830000747),(-9.02850011123697,
-66.4019932982488,-114.242595860211),(-9.06931235189409,-66.3203688169345,
-114.283408100868),(-8.9920782113581,-66.3203688169345,-114.360642241404),
(-8.41225129116375,-66.8540770381205,-114.406760940412),(-8.39813230070817,
-66.8327891718518,-114.442167797136),(-8.53291346584128,-66.5632268415856,
-114.57694896227),(-8.56286456014321,-66.5513232713939,-114.558901438159),
(-8.58799318313598,-66.5438284309028,-114.541267655658),(-8.63383717752733,
-66.5385379552621,-114.500714136907),(-8.65718300942778,-66.5413721386411,
-114.474534121628),(-8.67485837595217,-66.549874688778,-114.448356204966),
(-8.68686327710052,-66.5640456056728,-114.422180386923),(-8.69319771287281,
-66.5838848893256,-114.396006667498),(-8.69358278682474,-66.609077630472,
-114.3704288524),(-8.68773960251199,-66.6393089198476,-114.346040747337),
(-8.67566815993458,-66.6745787574526,-114.322842352309),(-8.6573684590925,
-66.7148871432867,-114.300833667317),(-8.63651254375321,-66.7537626919682,
-114.282814033975),(-8.61526089321538,-66.7877571470526,-114.270071229428),
(-8.59361350747903,-66.8168705085399,-114.262605253677),(-8.57157038654415,
-66.8411027764301,-114.260416106722),(-8.54897324821461,-66.8601705323853,
-114.263945489097),(-8.52566381029429,-66.8737903580675,-114.273635101335),
(-8.50164207278318,-66.8819622534769,-114.289484943436),(-8.47690803568129,
-66.8846862186133,-114.311495015402),(-8.45194502412747,-66.8811592348528,
-114.339985010716),(-8.4302908207959,-66.8705782835713,-114.372220165329),
(-8.27337786519879,-66.9461565070105,-114.453554897487),(-8.34144863312882,
-66.9461565070105,-114.385484129557),(-8.36512980980641,-66.8987941536553,
-114.409165306235),(-8.37980538151288,-66.9239868948017,-114.369296993382),
(-8.39775600956838,-66.94262952325,-114.332703736878),(-8.42147383672603,
-66.9549739664117,-114.296641466559),(-8.45533141753773,-66.9592567324066,
-114.258501119752),(-8.48916897448565,-66.955288875676,-114.228631419535),
(-8.52435628170528,-66.9433853054844,-114.205347682507),(-8.56000376110705,
-66.9237979492431,-114.189287559346),(-8.5952218346014,-66.8967787343636,
-114.181088700731),(-8.62986992349278,-66.8623906426988,-114.180828703505),
(-8.66380744908565,-66.8206966561015,-114.188585164509),(-8.69636300882866,
-66.7719487019833,-114.204777558884),(-8.72686520017051,-66.7163987077555,
-114.22982536177),(-8.75208567849727,-66.6590852216475,-114.261918369552),
(-8.76627682508041,-66.6100853401178,-114.296727104498),(-8.7710041424544,
-66.5680134624034,-114.334071664839),(-8.76783313315371,-66.5314839877411,
-114.373772148802),(-8.75685253642632,-66.5044647728616,-114.411771960408),
(-8.73818726666891,-66.4838697069745,-114.451032296053),(-8.71268862820421,
-66.4708324634312,-114.489568178061),(-8.68120792535499,-66.4664867155835,
-114.525394628758),(-8.6520325183184,-66.4684391530223,-114.552617598356),
(-8.62472274576212,-66.4742964653389,-114.574070058595),(-8.5654121019201,
-66.4982295694279,-114.609447598348),(-8.6661830665056,-66.2966876402569,
-114.710218562934),(-8.59811229857558,-66.2966876402569,-114.778289330864),
(-8.04804952709633,-66.9552258938232,-114.669813848777),(-8.07538577373913,
-66.9529428016568,-114.644760694301),(-8.10197792695529,-66.9460935251576,
-114.625017817584),(-8.12782598674479,-66.9346780643257,-114.610585218626),
(-8.15292995310764,-66.9186964191609,-114.601462897428),(-8.17704242052597,
-66.8977706985462,-114.598276150624),(-8.19991598348189,-66.8715230113643,
-114.60165027485),(-8.2215506419754,-66.8399533576153,-114.611585270106),
(-8.24194639600651,-66.8030617372991,-114.628081136391),(-8.37118515808742,
-66.5445842131372,-114.757319898472),(-8.41700202111724,-66.5445842131372,
-114.711503035442),(-8.44950065719607,-66.4795869409796,-114.744001671521),
(-8.40368379416624,-66.4795869409796,-114.789818534551),(-8.4706964856156,
-66.3455615580809,-114.856831226),(-8.40262571768557,-66.3455615580809,
-114.92490199393),(-8.33561302623621,-66.4795869409796,-114.857889302481),
(-8.21038026728802,-66.4795869409796,-114.983122061429),(-8.17788163120919,
-66.5445842131373,-114.95062342535),(-8.30311439015739,-66.5445842131372,
-114.825390666402),(-8.19201440170187,-66.7667841900483,-114.714290677946),
(-8.17609069184189,-66.7980861709226,-114.698912406932),(-8.16358939986686,
-66.8214524383359,-114.688047431494),(-8.13706774395595,-66.8574780581752,
-114.678543467565),(-8.12265713485984,-66.870263374307,-114.68016876053),
(-8.10625492757769,-66.8793957429726,-114.687438599146),(-8.0873156832639,
-66.8848751641719,-114.700898422261),(-8.06529396307289,-66.886701637905,
-114.721093668719),(-8.03611932418385,-66.8809073074414,-114.756062638071),
(-8.02536981936075,-66.8756798136535,-114.772039636682),(-8.01830790085748,
-66.8715859932172,-114.783195375622),(-8.01438074116922,-66.8715859932172,
-114.78712253531),(-7.97911090356429,-66.9421256684271,-114.751852697705),
(-8.01315952855271,-66.9516989100627,-114.708230831081),(-7.60968787788102,
-66.9461565070105,-115.117244884805),(-7.67775864581105,-66.9461565070105,
-115.049174116875),(-7.81077631906391,-66.6801211605048,-115.182191790128),
(-7.84337378748694,-66.6201624365764,-115.209553045633),(-7.85977135404267,
-66.5952216228415,-115.218096292812),(-7.87601582553114,-66.5758232121588,
-115.221250232007),(-7.89362659857058,-66.5604556400595,-115.219007031066),
(-7.91224265798041,-66.5496227613665,-115.21122385035),(-7.93290877553556,
-66.5431986123742,-115.196981881787),(-7.95666972301095,-66.5410572293767,
-115.175362317309),(-7.98040745519955,-66.5449621042544,-115.147719710242),
(-8.00100392689428,-66.5566767288875,-115.115408613915),(-8.0331781112809,
-66.5974889695446,-115.042422188871),(-7.85884434254798,-66.9461565070105,
-114.868088420138),(-7.92691511047801,-66.9461565070105,-114.800017652208),
(-8.25164954385479,-66.2966876402569,-115.124752085585),(-8.18357877592476,
-66.2966876402569,-115.192822853515),(-8.06618060218265,-66.5314839877411,
-115.075424679773),(-8.04989071758847,-66.5035200450687,-115.119678507039),
(-8.03036736066792,-66.4831139247401,-115.159607984288),(-8.00622162040211,
-66.4706435178726,-115.196224131422),(-7.97606458577213,-66.4664867155835,
-115.230537968341),(-7.94658466547688,-66.4693208989625,-115.257183705257),
(-7.91748865099166,-66.4778234490993,-115.277777169605),(-7.88877654231647,
-66.4919943659942,-115.292318361386),(-7.86044833945132,-66.511833649647,
-115.300807280598),(-7.83313664652618,-66.5370578817198,-115.302894741451),
(-7.80747406767103,-66.5673836438747,-115.298231558151),(-7.78346060288589,
-66.6028109361118,-115.286817730699),(-7.76109625217074,-66.643339758431,
-115.268653259095),(-7.1097079208861,-66.853384237739,-115.709997111071),
(-7.11100030400342,-66.824727494685,-115.737361471008),(-7.11950108017956,
-66.7898355481972,-115.76375264132),(-7.13521311618017,-66.7466299971312,
-115.791246156385),(-7.15770006092878,-66.6951108414869,-115.820278367281),
(-7.18652556334892,-66.6352780812642,-115.851285625083),(-7.21750133022499,
-66.5755083028944,-115.880079636577),(-7.24643906834142,-66.5241780928087,
-115.902472108546),(-7.2740731621024,-66.4809095598898,-115.918106547704),
(-7.30113799591211,-66.4453248130205,-115.926626460764),(-7.32801537696247,
-66.4174238522009,-115.927650040533),(-7.3550871124454,-66.3972066774309,
-115.92079547982),(-7.382990853039,-66.3849252161221,-115.905173200535),
(-7.41236424942136,-66.3808313956858,-115.879893624589),(-7.43775291313656,
-66.3849252161221,-115.850411140438),(-7.45370245572865,-66.3972066774309,
-115.822180136537),(-7.46086740381236,-66.4176757796124,-115.794546086272),
(-7.45990228400239,-66.4463325226664,-115.766854463028),(-7.45111582854156,
-66.4822321788,-115.739741262355),(-7.43468176217979,-66.5264454395119,
-115.711962068005),(-7.41186755412382,-66.5779645951562,-115.683257120416),
(-7.38394067358042,-66.6357819360871,-115.653366660029),(-7.35302562761042,
-66.6958666237212,-115.624197018365),(-7.32578161668099,-66.7451184326624,
-115.602189220353),(-7.29960619863216,-66.7865604918482,-115.586922579216),
(-7.27189693130397,-66.8232159302162,-115.577976408176),(-7.24492281652751,
-66.8517467095644,-115.576419743604),(-7.21719203253628,-66.8728456302745,
-115.583051606886),(-7.18825587421078,-66.8858828738178,-115.598950521668),
(-7.1576656364315,-66.8902286216655,-115.625195011599),(-7.13260423602366,
-66.8861348012292,-115.654350232444),(-7.11676378120069,-66.8738533399204,
-115.682472148575),(-7.11321858250119,-66.6352780812642,-115.924592605931),
(-7.07680944888591,-66.7133598333547,-115.882919987456),(-7.05122194864601,
-66.7803252884145,-115.841542032636),(-7.03645608178151,-66.8361744464433,
-115.800458741472),(-7.03251184829241,-66.8809073074414,-115.759670113963),
(-7.03927676898938,-66.9151851808636,-115.718627319843),(-7.05663836468313,
-66.9396693761653,-115.676781528848),(-7.08459663537366,-66.9543598933463,
-115.634132740977),(-7.12315158106097,-66.9592567324066,-115.590680956229),
(-7.16719604104384,-66.954265420567,-115.551627808086),(-7.21031380139165,
-66.9392914850481,-115.523483983257),(-7.2525048621044,-66.91433492585,
-115.506249481742),(-7.2937692231821,-66.8793957429726,-115.499924303542),
(-7.33458738358009,-66.8342220090045,-115.504279877112),(-7.37543984225377,
-66.7785617965342,-115.519087630908),(-7.41632659920312,-66.7124151055618,
-115.544347564932),(-7.45724765442814,-66.6357819360871,-115.580059679181),
(-7.49386147906524,-66.5572908019529,-115.621936988678),(-7.51955919754765,
-66.4901049104082,-115.663425161741),(-7.53434080987537,-66.4342242614529,
-115.704524198368),(-7.5382063160484,-66.389648855087,-115.745234098561),
(-7.53130390516662,-66.3555914181498,-115.78619394638),(-7.51378176632995,
-66.3312646774803,-115.828042825886),(-7.48563989953837,-66.3166686330786,
-115.870780737079),(-7.4468783047919,-66.3118032849447,-115.91440767996),
(-7.40300113021016,-66.316841833174,-115.953246306312),(-7.35994887498927,
-66.3319574778618,-115.981182916845),(-7.31772153912923,-66.3571502190082,
-115.998217511559),(-7.27631912263004,-66.3924200566131,-116.004350090453),
(-7.23538287125792,-66.4378299725295,-115.999876425909),(-7.19455403077907,
-66.4934429486101,-115.985092290307),(-7.1538326011935,-66.559258984855,
-115.959997683648),(-6.77320286427932,-66.9461565070105,-115.953729898407),
(-6.85960037742128,-66.9461565070105,-115.867332385265),(-6.91905524652673,
-66.8272467687996,-115.92678725437),(-6.83265773338477,-66.8272467687996,
-116.013184767512),(-6.48136237076276,-66.853384237739,-116.338342661195),
(-6.48265475388009,-66.824727494685,-116.365707021131),(-6.49115553005623,
-66.7898355481972,-116.392098191443),(-6.50686756605684,-66.7466299971312,
-116.419591706508),(-6.52935451080544,-66.6951108414869,-116.448623917404),
(-6.55818001322558,-66.6352780812642,-116.479631175207),(-6.58915578010166,
-66.5755083028944,-116.5084251867),(-6.61809351821809,-66.5241780928087,
-116.53081765867),(-6.64572761197906,-66.4809095598898,-116.546452097828),
(-6.67279244578877,-66.4453248130205,-116.554972010887),(-6.69966982683914,
-66.4174238522009,-116.555995590656),(-6.72674156232207,-66.3972066774309,
-116.549141029943),(-6.75464530291566,-66.3849252161221,-116.533518750659),
(-6.78401869929803,-66.3808313956858,-116.508239174713),(-6.80940736301322,
-66.3849252161221,-116.478756690561),(-6.82535690560531,-66.3972066774309,
-116.45052568666),(-6.83252185368902,-66.4176757796124,-116.422891636395),
(-6.83155673387905,-66.4463325226664,-116.395200013151),(-6.82277027841822,
-66.4822321788,-116.368086812478),(-6.80633621205645,-66.5264454395119,
-116.340307618128),(-6.78352200400048,-66.5779645951562,-116.31160267054),
(-6.75559512345708,-66.6357819360871,-116.281712210152),(-6.72468007748708,
-66.6958666237212,-116.252542568488),(-6.69743606655765,-66.7451184326624,
-116.230534770476),(-6.67126064850883,-66.7865604918482,-116.215268129339),
(-6.64355138118064,-66.8232159302162,-116.2063219583),(-6.61657726640418,
-66.8517467095644,-116.204765293728),(-6.58884648241295,-66.8728456302745,
-116.211397157009),(-6.55991032408744,-66.8858828738178,-116.227296071791),
(-6.52932008630817,-66.8902286216655,-116.253540561723),(-6.50425868590033,
-66.8861348012292,-116.282695782567),(-6.48841823107735,-66.8738533399204,
-116.310817698699),(-6.48487303237786,-66.6352780812642,-116.552938156054),
(-6.44846389876257,-66.7133598333547,-116.511265537579),(-6.42287639852268,
-66.7803252884145,-116.469887582759),(-6.40811053165818,-66.8361744464433,
-116.428804291595),(-6.40416629816907,-66.8809073074414,-116.388015664086),
(-6.41093121886605,-66.9151851808636,-116.346972869967),(-6.4282928145598,
-66.9396693761653,-116.305127078971),(-6.45625108525032,-66.9543598933463,
-116.2624782911),(-6.49480603093763,-66.9592567324066,-116.219026506352),
(-6.5388504909205,-66.954265420567,-116.179973358209),(-6.58196825126832,
-66.9392914850481,-116.15182953338),(-6.62415931198107,-66.91433492585,
-116.134595031865),(-6.66542367305876,-66.8793957429726,-116.128269853665),
(-6.70624183345676,-66.8342220090045,-116.132625427235),(-6.74709429213043,
-66.7785617965342,-116.147433181032),(-6.78798104907978,-66.7124151055618,
-116.172693115055),(-6.82890210430481,-66.6357819360871,-116.208405229305),
(-6.86551592894191,-66.5572908019529,-116.250282538802),(-6.89121364742432,
-66.4901049104082,-116.291770711864),(-6.90599525975203,-66.4342242614529,
-116.332869748492),(-6.90986076592506,-66.389648855087,-116.373579648684),
(-6.90295835504329,-66.3555914181498,-116.414539496503),(-6.88543621620661,
-66.3312646774803,-116.45638837601),(-6.85729434941504,-66.3166686330786,
-116.499126287203),(-6.81853275466856,-66.3118032849447,-116.542753230083),
(-6.77465558008682,-66.316841833174,-116.581591856436),(-6.73160332486593,
-66.3319574778618,-116.609528466969),(-6.6893759890059,-66.3571502190082,
-116.626563061682),(-6.64797357250671,-66.3924200566131,-116.632695640577),
(-6.60703732113458,-66.4378299725295,-116.628221976032),(-6.56620848065574,
-66.4934429486101,-116.613437840431),(-6.52548705107016,-66.559258984855,
-116.588343233771),(-6.07730127394734,-66.853384237739,-116.74240375801),
(-6.07859365706466,-66.824727494685,-116.769768117947),(-6.0870944332408,
-66.7898355481972,-116.796159288258),(-6.10280646924141,-66.7466299971312,
-116.823652803324),(-6.12529341399002,-66.6951108414869,-116.85268501422),
(-6.15411891641016,-66.6352780812642,-116.883692272022),(-6.18509468328623,
-66.5755083028944,-116.912486283516),(-6.21403242140266,-66.5241780928087,
-116.934878755485),(-6.24166651516364,-66.4809095598898,-116.950513194643),
(-6.26873134897335,-66.4453248130205,-116.959033107703),(-6.29560873002371,
-66.4174238522009,-116.960056687472),(-6.32268046550664,-66.3972066774309,
-116.953202126759),(-6.35058420610024,-66.3849252161221,-116.937579847474),
(-6.3799576024826,-66.3808313956858,-116.912300271528),(-6.4053462661978,
-66.3849252161221,-116.882817787377),(-6.42129580878989,-66.3972066774309,
-116.854586783476),(-6.4284607568736,-66.4176757796124,-116.82695273321),
(-6.42749563706363,-66.4463325226664,-116.799261109966),(-6.4187091816028,
-66.4822321788,-116.772147909294),(-6.40227511524103,-66.5264454395119,
-116.744368714944),(-6.37946090718506,-66.5779645951562,-116.715663767355),
(-6.35153402664166,-66.6357819360871,-116.685773306968),(-6.32061898067166,
-66.6958666237212,-116.656603665304),(-6.29337496974223,-66.7451184326624,
-116.634595867292),(-6.2671995516934,-66.7865604918482,-116.619329226155),
(-6.23949028436521,-66.8232159302162,-116.610383055115),(-6.21251616958875,
-66.8517467095644,-116.608826390543),(-6.18478538559753,-66.8728456302745,
-116.615458253824),(-6.15584922727202,-66.8858828738178,-116.631357168607),
(-6.12525898949274,-66.8902286216655,-116.657601658538),(-6.1001975890849,
-66.8861348012292,-116.686756879382),(-6.08435713426193,-66.8738533399204,
-116.714878795514),(-6.08081193556243,-66.6352780812642,-116.95699925287),
(-6.04440280194715,-66.7133598333547,-116.915326634395),(-6.01881530170725,
-66.7803252884145,-116.873948679575),(-6.00404943484275,-66.8361744464433,
-116.83286538841),(-6.00010520135364,-66.8809073074414,-116.792076760901),
(-6.00687012205062,-66.9151851808636,-116.751033966782),(-6.02423171774437,
-66.9396693761653,-116.709188175787),(-6.0521899884349,-66.9543598933463,
-116.666539387915),(-6.09074493412221,-66.9592567324066,-116.623087603168),
(-6.13478939410508,-66.954265420567,-116.584034455024),(-6.17790715445289,
-66.9392914850481,-116.555890630195),(-6.22009821516564,-66.91433492585,
-116.538656128681),(-6.26136257624334,-66.8793957429726,-116.532330950481),
(-6.30218073664134,-66.8342220090045,-116.536686524051),(-6.34303319531501,
-66.7785617965342,-116.551494277847),(-6.38391995226436,-66.7124151055618,
-116.57675421187),(-6.42484100748938,-66.6357819360871,-116.61246632612),
(-6.46145483212648,-66.5572908019529,-116.654343635617),(-6.48715255060889,
-66.4901049104082,-116.695831808679),(-6.50193416293661,-66.4342242614529,
-116.736930845307),(-6.50579966910964,-66.389648855087,-116.7776407455),
(-6.49889725822786,-66.3555914181498,-116.818600593319),(-6.48137511939119,
-66.3312646774803,-116.860449472825),(-6.45323325259961,-66.3166686330786,
-116.903187384018),(-6.41447165785314,-66.3118032849447,-116.946814326899),
(-6.3705944832714,-66.316841833174,-116.985652953251),(-6.32754222805051,
-66.3319574778618,-117.013589563784),(-6.28531489219047,-66.3571502190082,
-117.030624158498),(-6.24391247569129,-66.3924200566131,-117.036756737392),
(-6.20297622431916,-66.4378299725295,-117.032283072848),(-6.16214738384031,
-66.4934429486101,-117.017498937246),(-6.12142595425474,-66.559258984855,
-116.992404330587),(-5.67324017713192,-66.853384237739,-117.146464854826),
(-5.67453256024924,-66.824727494685,-117.173829214762),(-5.68303333642538,
-66.7898355481972,-117.200220385074),(-5.69874537242599,-66.7466299971312,
-117.227713900139),(-5.7212323171746,-66.6951108414869,-117.256746111035),
(-5.75005781959473,-66.6352780812642,-117.287753368838),(-5.78103358647081,
-66.5755083028944,-117.316547380331),(-5.80997132458724,-66.5241780928087,
-117.338939852301),(-5.83760541834821,-66.4809095598898,-117.354574291458),
(-5.86467025215792,-66.4453248130205,-117.363094204518),(-5.89154763320829,
-66.4174238522009,-117.364117784287),(-5.91861936869122,-66.3972066774309,
-117.357263223574),(-5.94652310928482,-66.3849252161221,-117.34164094429),
(-5.97589650566718,-66.3808313956858,-117.316361368343),(-6.00128516938237,
-66.3849252161221,-117.286878884192),(-6.01723471197447,-66.3972066774309,
-117.258647880291),(-6.02439966005817,-66.4176757796124,-117.231013830026),
(-6.0234345402482,-66.4463325226664,-117.203322206782),(-6.01464808478738,
-66.4822321788,-117.176209006109),(-5.9982140184256,-66.5264454395119,-117.148429811759),
(-5.97539981036963,-66.5779645951562,-117.119724864171),(-5.94747292982624,
-66.6357819360871,-117.089834403783),(-5.91655788385623,-66.6958666237212,
-117.060664762119),(-5.8893138729268,-66.7451184326624,-117.038656964107),
(-5.86313845487798,-66.7865604918482,-117.02339032297),(-5.83542918754979,
-66.8232159302162,-117.014444151931),(-5.80845507277333,-66.8517467095644,
-117.012887487359),(-5.7807242887821,-66.8728456302745,-117.01951935064),
(-5.7517881304566,-66.8858828738178,-117.035418265422),(-5.72119789267732,
-66.8902286216655,-117.061662755354),(-5.69613649226948,-66.8861348012292,
-117.090817976198),(-5.6802960374465,-66.8738533399204,-117.11893989233),
(-5.67675083874701,-66.6352780812642,-117.361060349685),(-5.64034170513172,
-66.7133598333547,-117.31938773121),(-5.61475420489183,-66.7803252884145,
-117.27800977639),(-5.59998833802733,-66.8361744464433,-117.236926485226),
(-5.59604410453822,-66.8809073074414,-117.196137857717),(-5.6028090252352,
-66.9151851808636,-117.155095063598),(-5.62017062092895,-66.9396693761653,
-117.113249272602),(-5.64812889161948,-66.9543598933463,-117.070600484731),
(-5.68668383730678,-66.9592567324066,-117.027148699983),(-5.73072829728966,
-66.954265420567,-116.98809555184),(-5.77384605763747,-66.9392914850481,
-116.959951727011),(-5.81603711835022,-66.91433492585,-116.942717225496),
(-5.85730147942791,-66.8793957429726,-116.936392047296),(-5.89811963982591,
-66.8342220090045,-116.940747620866),(-5.93897209849959,-66.7785617965342,
-116.955555374663),(-5.97985885544893,-66.7124151055618,-116.980815308686),
(-6.02077991067396,-66.6357819360871,-117.016527422935),(-6.05739373531106,
-66.5572908019529,-117.058404732432),(-6.08309145379347,-66.4901049104082,
-117.099892905495),(-6.09787306612119,-66.4342242614529,-117.140991942122),
(-6.10173857229421,-66.389648855087,-117.181701842315),(-6.09483616141244,
-66.3555914181498,-117.222661690134),(-6.07731402257577,-66.3312646774803,
-117.26451056964),(-6.04917215578419,-66.3166686330786,-117.307248480834),
(-6.01041056103771,-66.3118032849447,-117.350875423714),(-5.96653338645597,
-66.316841833174,-117.389714050066),(-5.92348113123508,-66.3319574778618,
-117.4176506606),(-5.88125379537505,-66.3571502190082,-117.434685255313),
(-5.83985137887586,-66.3924200566131,-117.440817834207),(-5.79891512750374,
-66.4378299725295,-117.436344169663),(-5.75808628702489,-66.4934429486101,
-117.421560034061),(-5.71736485743931,-66.559258984855,-117.396465427402),
(-5.14168618934102,-66.9461565070105,-117.585246573345),(-5.20975695727105,
-66.9461565070105,-117.517175805415),(-5.44304174028649,-66.4795869409796,
-117.75046058843),(-5.37497097235646,-66.4795869409796,-117.81853135636),
(-5.40896793188066,-66.4019932982488,-117.862128039567),(-5.48620207241666,
-66.4019932982488,-117.784893899031),(-5.52701431307379,-66.3203688169345,
-117.825706139688),(-5.44978017253779,-66.3203688169345,-117.902940280224),
(-4.72453456023136,-66.9461565070105,-118.002398202455),(-4.79260532816139,
-66.9461565070105,-117.934327434525),(-4.92562300141426,-66.6801211605048,
-118.067345107777),(-4.95822046983729,-66.6201624365764,-118.094706363283),
(-4.97461803639302,-66.5952216228415,-118.103249610462),(-4.99086250788149,
-66.5758232121588,-118.106403549656),(-5.00847328092093,-66.5604556400595,
-118.104160348716),(-5.02708934033076,-66.5496227613665,-118.096377167999),
(-5.0477554578859,-66.5431986123742,-118.082135199436),(-5.0715164053613,
-66.5410572293768,-118.060515634958),(-5.09525413754989,-66.5449621042544,
-118.032873027892),(-5.11585060924463,-66.5566767288875,-118.000561931564),
(-5.14802479363124,-66.5974889695446,-117.927575506521),(-4.97369102489832,
-66.9461565070105,-117.753241737788),(-5.04176179282835,-66.9461565070105,
-117.685170969858),(-5.27504657584379,-66.4795869409796,-117.918455752873),
(-5.20697580791377,-66.4795869409796,-117.986526520803),(-5.181027284533,
-66.5314839877411,-117.960577997422),(-5.16473739993882,-66.5035200450687,
-118.004831824689),(-5.14521404301827,-66.4831139247401,-118.044761301938),
(-5.12106830275246,-66.4706435178726,-118.081377449071),(-5.09091126812248,
-66.4664867155835,-118.11569128599),(-5.06143134782722,-66.4693208989625,
-118.142337022907),(-5.03233533334201,-66.4778234490993,-118.162930487255),
(-5.00362322466682,-66.4919943659942,-118.177471679035),(-4.97529502180166,
-66.511833649647,-118.185960598248),(-4.94798332887652,-66.5370578817198,
-118.1880480591),(-4.92232075002138,-66.5673836438747,-118.1833848758),
(-4.89830728523623,-66.6028109361118,-118.171971048348),(-4.87594293452108,
-66.643339758431,-118.153806576744)));
#62=ANNOTATION_PLANE('',(#282),#113,(#55));
#63=COLOUR();
#64=STYLED_ITEM('',(#280),#66);
#65=STYLED_ITEM('',(#283),#40);
#66=MANIFOLD_SOLID_BREP('Brush Tube',#118);
#67=LINE('',#224,#69);
#68=LINE('',#228,#70);
#69=VECTOR('',#179,0.75);
#70=VECTOR('',#184,0.875);
#71=CYLINDRICAL_SURFACE('',#148,0.75);
#72=CYLINDRICAL_SURFACE('',#150,0.875);
#73=FACE_BOUND('',#80,.T.);
#74=FACE_BOUND('',#84,.T.);
#75=FACE_OUTER_BOUND('',#79,.T.);
#76=FACE_OUTER_BOUND('',#81,.T.);
#77=FACE_OUTER_BOUND('',#82,.T.);
#78=FACE_OUTER_BOUND('',#83,.T.);
#79=EDGE_LOOP('',(#99));
#80=EDGE_LOOP('',(#100));
#81=EDGE_LOOP('',(#101,#102,#103,#104));
#82=EDGE_LOOP('',(#105,#106,#107,#108));
#83=EDGE_LOOP('',(#109));
#84=EDGE_LOOP('',(#110));
#85=CIRCLE('',#146,0.875);
#86=CIRCLE('',#147,0.75);
#87=CIRCLE('',#149,0.75);
#88=CIRCLE('',#151,0.875);
#89=VERTEX_POINT('',#217);
#90=VERTEX_POINT('',#219);
#91=VERTEX_POINT('',#222);
#92=VERTEX_POINT('',#226);
#93=EDGE_CURVE('',#89,#89,#85,.T.);
#94=EDGE_CURVE('',#90,#90,#86,.T.);
#95=EDGE_CURVE('',#91,#91,#87,.T.);
#96=EDGE_CURVE('',#91,#90,#67,.T.);
#97=EDGE_CURVE('',#92,#92,#88,.T.);
#98=EDGE_CURVE('',#92,#89,#68,.T.);
#99=ORIENTED_EDGE('',*,*,#93,.T.);
#100=ORIENTED_EDGE('',*,*,#94,.T.);
#101=ORIENTED_EDGE('',*,*,#95,.F.);
#102=ORIENTED_EDGE('',*,*,#96,.T.);
#103=ORIENTED_EDGE('',*,*,#94,.F.);
#104=ORIENTED_EDGE('',*,*,#96,.F.);
#105=ORIENTED_EDGE('',*,*,#97,.F.);
#106=ORIENTED_EDGE('',*,*,#98,.T.);
#107=ORIENTED_EDGE('',*,*,#93,.F.);
#108=ORIENTED_EDGE('',*,*,#98,.F.);
#109=ORIENTED_EDGE('',*,*,#97,.T.);
#110=ORIENTED_EDGE('',*,*,#95,.T.);
#111=PLANE('',#145);
#112=PLANE('',#152);
#113=PLANE('',#153);
#114=ADVANCED_FACE('',(#75,#73),#111,.F.);
#115=ADVANCED_FACE('',(#76),#71,.F.);
#116=ADVANCED_FACE('',(#77),#72,.T.);
#117=ADVANCED_FACE('',(#78,#74),#112,.T.);
#118=CLOSED_SHELL('',(#114,#115,#116,#117));
#119=DERIVED_UNIT_ELEMENT(#121,1.);
#120=DERIVED_UNIT_ELEMENT(#256,-3.);
#121=(
CONVERSION_BASED_UNIT('gram',#123)
MASS_UNIT()
NAMED_UNIT(#253)
);
#122=(
MASS_UNIT()
NAMED_UNIT(*)
SI_UNIT(.KILO.,.GRAM.)
);
#123=MASS_MEASURE_WITH_UNIT(MASS_MEASURE(0.001),#122);
#124=DERIVED_UNIT((#119,#120));
#125=MEASURE_REPRESENTATION_ITEM('density measure',
POSITIVE_RATIO_MEASURE(2.68),#124);
#126=PROPERTY_DEFINITION_REPRESENTATION(#135,#129);
#127=PROPERTY_DEFINITION_REPRESENTATION(#136,#130);
#128=PROPERTY_DEFINITION_REPRESENTATION(#137,#131);
#129=REPRESENTATION('material name',(#132),#250);
#130=REPRESENTATION('density',(#125),#250);
#131=REPRESENTATION('',(#133,#134),#250);
#132=DESCRIPTIVE_REPRESENTATION_ITEM('Aluminum 5052 H32',
'Aluminum 5052 H32');
#133=DESCRIPTIVE_REPRESENTATION_ITEM('','Flat length 0.000 in');
#134=DESCRIPTIVE_REPRESENTATION_ITEM('','Flat width 0.000 in');
#135=PROPERTY_DEFINITION('material property','material name',#265);
#136=PROPERTY_DEFINITION('material property','density of part',#265);
#137=PROPERTY_DEFINITION('semantic text','',#265);
#138=DATE_TIME_ROLE('creation_date');
#139=APPLIED_DATE_AND_TIME_ASSIGNMENT(#140,#138,(#265));
#140=DATE_AND_TIME(#141,#142);
#141=CALENDAR_DATE(2025,30,8);
#142=LOCAL_TIME(0,0,0.,#143);
#143=COORDINATED_UNIVERSAL_TIME_OFFSET(0,0,.BEHIND.);
#144=AXIS2_PLACEMENT_3D('',#215,#167,#168);
#145=AXIS2_PLACEMENT_3D('',#216,#169,#170);
#146=AXIS2_PLACEMENT_3D('',#218,#171,#172);
#147=AXIS2_PLACEMENT_3D('',#220,#173,#174);
#148=AXIS2_PLACEMENT_3D('',#221,#175,#176);
#149=AXIS2_PLACEMENT_3D('',#223,#177,#178);
#150=AXIS2_PLACEMENT_3D('',#225,#180,#181);
#151=AXIS2_PLACEMENT_3D('',#227,#182,#183);
#152=AXIS2_PLACEMENT_3D('',#229,#185,#186);
#153=AXIS2_PLACEMENT_3D('',#230,#187,#188);
#154=AXIS2_PLACEMENT_3D('',#231,#189,#190);
#155=AXIS2_PLACEMENT_3D('view reference',#232,#191,#192);
#156=AXIS2_PLACEMENT_3D('view window',#233,#193,#194);
#157=AXIS2_PLACEMENT_3D('view reference',#235,#195,#196);
#158=AXIS2_PLACEMENT_3D('view window',#236,#197,#198);
#159=AXIS2_PLACEMENT_3D('view reference',#238,#199,#200);
#160=AXIS2_PLACEMENT_3D('view window',#239,#201,#202);
#161=AXIS2_PLACEMENT_3D('view reference',#241,#203,#204);
#162=AXIS2_PLACEMENT_3D('view window',#242,#205,#206);
#163=AXIS2_PLACEMENT_3D('',#244,#207,#208);
#164=AXIS2_PLACEMENT_3D('',#245,#209,#210);
#165=AXIS2_PLACEMENT_3D('',#246,#211,#212);
#166=AXIS2_PLACEMENT_3D('',#247,#213,#214);
#167=DIRECTION('axis',(0.,0.,1.));
#168=DIRECTION('refdir',(1.,0.,0.));
#169=DIRECTION('center_axis',(0.,0.,-1.));
#170=DIRECTION('ref_axis',(-1.,0.,0.));
#171=DIRECTION('center_axis',(0.,0.,1.));
#172=DIRECTION('ref_axis',(-1.,0.,0.));
#173=DIRECTION('center_axis',(0.,0.,-1.));
#174=DIRECTION('ref_axis',(1.,0.,0.));
#175=DIRECTION('center_axis',(0.,0.,-1.));
#176=DIRECTION('ref_axis',(1.,0.,0.));
#177=DIRECTION('center_axis',(0.,0.,1.));
#178=DIRECTION('ref_axis',(1.,0.,0.));
#179=DIRECTION('',(0.,0.,1.));
#180=DIRECTION('center_axis',(0.,0.,-1.));
#181=DIRECTION('ref_axis',(-1.,0.,0.));
#182=DIRECTION('center_axis',(0.,0.,-1.));
#183=DIRECTION('ref_axis',(-1.,0.,0.));
#184=DIRECTION('',(0.,0.,1.));
#185=DIRECTION('center_axis',(0.,0.,-1.));
#186=DIRECTION('ref_axis',(-1.,0.,0.));
#187=DIRECTION('center_axis',(0.227303255586467,0.227303255586467,0.227303255586466));
#188=DIRECTION('ref_axis',(0.707106781186546,-1.2490009027033E-15,-0.707106781186549));
#189=DIRECTION('center_axis',(0.,0.,1.));
#190=DIRECTION('ref_axis',(1.,0.,0.));
#191=DIRECTION('center_axis',(-0.577350269189626,-0.577350269189626,-0.577350269189626));
#192=DIRECTION('ref_axis',(-0.707106781186548,0.,0.707106781186548));
#193=DIRECTION('center_axis',(0.,0.,1.));
#194=DIRECTION('ref_axis',(1.,0.,0.));
#195=DIRECTION('center_axis',(4.44089209850062E-16,0.,-1.));
#196=DIRECTION('ref_axis',(-1.,0.,-4.44089209850062E-16));
#197=DIRECTION('center_axis',(0.,0.,1.));
#198=DIRECTION('ref_axis',(1.,0.,0.));
#199=DIRECTION('center_axis',(0.,-1.,0.));
#200=DIRECTION('ref_axis',(-1.,0.,0.));
#201=DIRECTION('center_axis',(0.,0.,1.));
#202=DIRECTION('ref_axis',(1.,0.,0.));
#203=DIRECTION('center_axis',(-1.,0.,0.));
#204=DIRECTION('ref_axis',(0.,0.,1.));
#205=DIRECTION('center_axis',(0.,0.,1.));
#206=DIRECTION('ref_axis',(1.,0.,0.));
#207=DIRECTION('center_axis',(0.,0.,1.));
#208=DIRECTION('ref_axis',(1.,0.,0.));
#209=DIRECTION('center_axis',(0.,0.,1.));
#210=DIRECTION('ref_axis',(1.,0.,0.));
#211=DIRECTION('center_axis',(0.,0.,1.));
#212=DIRECTION('ref_axis',(1.,0.,0.));
#213=DIRECTION('center_axis',(0.,0.,1.));
#214=DIRECTION('ref_axis',(1.,0.,0.));
#215=CARTESIAN_POINT('',(0.,0.,0.));
#216=CARTESIAN_POINT('Origin',(1.3987061727561E-15,-1.728,-1.785));
#217=CARTESIAN_POINT('',(0.875000000000001,-1.728,-1.785));
#218=CARTESIAN_POINT('Origin',(1.3987061727561E-15,-1.728,-1.785));
#219=CARTESIAN_POINT('',(-0.749999999999999,-1.728,-1.785));
#220=CARTESIAN_POINT('Origin',(1.3987061727561E-15,-1.728,-1.785));
#221=CARTESIAN_POINT('Origin',(1.3987061727561E-15,-1.728,-51.));
#222=CARTESIAN_POINT('',(-0.749999999999999,-1.728,-100.215));
#223=CARTESIAN_POINT('Origin',(1.3987061727561E-15,-1.728,-100.215));
#224=CARTESIAN_POINT('',(-0.749999999999999,-1.728,-51.));
#225=CARTESIAN_POINT('Origin',(1.3987061727561E-15,-1.728,-51.));
#226=CARTESIAN_POINT('',(0.875000000000001,-1.728,-100.215));
#227=CARTESIAN_POINT('Origin',(1.3987061727561E-15,-1.728,-100.215));
#228=CARTESIAN_POINT('',(0.875000000000001,-1.728,-51.));
#229=CARTESIAN_POINT('Origin',(1.3987061727561E-15,-1.728,-100.215));
#230=CARTESIAN_POINT('Origin',(-11.6120025048907,-65.2729813726367,-112.788105392169));
#231=CARTESIAN_POINT('Origin',(0.,0.,0.));
#232=CARTESIAN_POINT('Origin',(0.245290792424413,0.245290792424413,0.245290792424413));
#233=CARTESIAN_POINT('Origin',(-0.723867849852102,-0.393700787401575,0.424856115107914));
#234=CARTESIAN_POINT('',(0.,0.,0.));
#235=CARTESIAN_POINT('Origin',(-1.23101125816757E-15,0.,2.77199092178618));
#236=CARTESIAN_POINT('Origin',(-0.825277937818748,-0.393700787401575,2.77199092178618));
#237=CARTESIAN_POINT('',(0.,0.,0.));
#238=CARTESIAN_POINT('Origin',(0.,2.77199092178618,0.));
#239=CARTESIAN_POINT('Origin',(-0.825277937818748,-0.393700787401575,2.77199092178618));
#240=CARTESIAN_POINT('',(0.,0.,0.));
#241=CARTESIAN_POINT('Origin',(2.77199092178618,0.,0.));
#242=CARTESIAN_POINT('Origin',(-0.825277937818748,-0.393700787401575,2.77199092178618));
#243=CARTESIAN_POINT('',(0.,0.,0.));
#244=CARTESIAN_POINT('Origin',(0.,0.,0.));
#245=CARTESIAN_POINT('Origin',(0.,0.,0.));
#246=CARTESIAN_POINT('Origin',(0.,0.,0.));
#247=CARTESIAN_POINT('Origin',(0.,0.,0.));
#248=UNCERTAINTY_MEASURE_WITH_UNIT(LENGTH_MEASURE(0.000393700787401575),
#254,'DISTANCE_ACCURACY_VALUE',
'Maximum model space distance between geometric entities at asserted c
onnectivities');
#249=UNCERTAINTY_MEASURE_WITH_UNIT(LENGTH_MEASURE(0.000393700787401575),
#254,'DISTANCE_ACCURACY_VALUE',
'Maximum model space distance between geometric entities at asserted c
onnectivities');
#250=(
GEOMETRIC_REPRESENTATION_CONTEXT(3)
GLOBAL_UNCERTAINTY_ASSIGNED_CONTEXT((#248))
GLOBAL_UNIT_ASSIGNED_CONTEXT((#254,#258,#259))
REPRESENTATION_CONTEXT('','3D')
);
#251=(
GEOMETRIC_REPRESENTATION_CONTEXT(3)
GLOBAL_UNCERTAINTY_ASSIGNED_CONTEXT((#249))
GLOBAL_UNIT_ASSIGNED_CONTEXT((#254,#258,#259))
REPRESENTATION_CONTEXT('','3D')
);
#252=DIMENSIONAL_EXPONENTS(1.,0.,0.,0.,0.,0.,0.);
#253=DIMENSIONAL_EXPONENTS(0.,1.,0.,0.,0.,0.,0.);
#254=(
CONVERSION_BASED_UNIT('inch',#257)
LENGTH_UNIT()
NAMED_UNIT(#252)
);
#255=(
LENGTH_UNIT()
NAMED_UNIT(*)
SI_UNIT(.MILLI.,.METRE.)
);
#256=(
LENGTH_UNIT()
NAMED_UNIT(*)
SI_UNIT(.CENTI.,.METRE.)
);
#257=LENGTH_MEASURE_WITH_UNIT(LENGTH_MEASURE(25.4),#255);
#258=(
NAMED_UNIT(*)
PLANE_ANGLE_UNIT()
SI_UNIT($,.RADIAN.)
);
#259=(
NAMED_UNIT(*)
SI_UNIT($,.STERADIAN.)
SOLID_ANGLE_UNIT()
);
#260=SHAPE_DEFINITION_REPRESENTATION(#261,#262);
#261=PRODUCT_DEFINITION_SHAPE('',$,#265);
#262=SHAPE_REPRESENTATION('',(#144,#66),#250);
#263=PRODUCT_DEFINITION_CONTEXT('part definition',#271,'design');
#264=PRODUCT_DEFINITION_CONTEXT('',#273,'design');
#265=PRODUCT_DEFINITION('OM_CAGE_BT-001','Brush Tube',#266,#263);
#266=PRODUCT_DEFINITION_FORMATION('',$,#276);
#267=PRODUCT_DEFINITION_FORMATION('ASME Y14.41-2003','',#277);
#268=PRODUCT_RELATED_PRODUCT_CATEGORY('Brush Tube','Brush Tube',(#276));
#269=PRODUCT_RELATED_PRODUCT_CATEGORY('document','',(#277));
#270=APPLICATION_PROTOCOL_DEFINITION('international standard',
'ap242_managed_model_based_3d_engineering',2011,#271);
#271=APPLICATION_CONTEXT('Managed model based 3d engineering');
#272=APPLICATION_CONTEXT('product and manufacturing information');
#273=APPLICATION_CONTEXT('model based 3d annotation presentation');
#274=PRODUCT_CONTEXT('part definition',#271,'mechanical');
#275=PRODUCT_CONTEXT('',#272,'mechanical');
#276=PRODUCT('OM_CAGE_BT-001','Brush Tube','1-3/4" OD X 1/8" WALL TUBE',
(#274));
#277=PRODUCT('ASME Y14.41','','',(#275));
#278=CURVE_STYLE('',#279,$,#294);
#279=DRAUGHTING_PRE_DEFINED_CURVE_FONT('continuous');
#280=PRESENTATION_STYLE_ASSIGNMENT((#284));
#281=PRESENTATION_STYLE_ASSIGNMENT((#278));
#282=PRESENTATION_STYLE_ASSIGNMENT((#290));
#283=PRESENTATION_STYLE_ASSIGNMENT((NULL_STYLE(.NULL.)));
#284=SURFACE_STYLE_USAGE(.BOTH.,#287);
#285=SURFACE_STYLE_RENDERING_WITH_PROPERTIES($,#293,(#286));
#286=SURFACE_STYLE_TRANSPARENT(0.);
#287=SURFACE_SIDE_STYLE('',(#288,#285));
#288=SURFACE_STYLE_FILL_AREA(#289);
#289=FILL_AREA_STYLE('',(#291));
#290=FILL_AREA_STYLE('Plane',(#292));
#291=FILL_AREA_STYLE_COLOUR('',#293);
#292=FILL_AREA_STYLE_COLOUR('Plane',#63);
#293=COLOUR_RGB('',0.749019607843137,0.749019607843137,0.749019607843137);
#294=COLOUR_RGB('',0.129411764705882,0.129411764705882,0.129411764705882);
ENDSEC;
END-ISO-10303-21;
